M48
; DRILL file KiCad 10.0.6 date 2026-10-08T20:53:04
; FORMAT={-:-/ absolute / metric / decimal}
; #@! TF.CreationDate,2026-10-08T20:53:04+08:00
; #@! TF.GenerationSoftware,Kicad,Pcbnew,10.0.6
; #@! TF.FileFunction,Plated,1,2,PTH
FMAT,2
METRIC
; #@! TA.AperFunction,Plated,PTH,ViaDrill
T1C0.300
; #@! TA.AperFunction,Plated,PTH,ComponentDrill
T2C1.000
%
G90
G05
T1
X88.4Y-95.2
X92.5Y-94.75
X94.75Y-95.0
X97.25Y-95.0
X97.4Y-78.0
X97.75Y-87.75
X101.25Y-88.25
X102.0Y-102.5
X102.25Y-95.25
X102.5Y-108.5
X103.25Y-105.25
X104.75Y-79.25
X105.0Y-101.9
X105.0Y-110.5
X106.0Y-89.5
X106.25Y-87.5
X106.75Y-96.5
X107.5Y-74.1
X108.5Y-86.0
X108.5Y-108.25
X109.75Y-87.5
X110.0Y-84.0
X111.5Y-101.5
X111.5Y-107.5
X114.0Y-95.186
X114.0Y-87.5
X114.0Y-90.0
X114.25Y-85.0
X114.6Y-96.4
X115.0Y-92.5
X116.5Y-101.5
X118.2Y-105.4
X118.5Y-86.0
X118.5Y-88.5
X118.5Y-91.5
X118.5Y-100.5
X119.0Y-83.0
X119.0Y-92.5
X120.0Y-105.5
X121.36Y-105.5
X122.0Y-84.0
X122.5Y-82.0
X123.625Y-109.775
X124.0Y-95.0
X124.0Y-104.5
X125.0Y-75.5
X125.0Y-88.75
X125.16Y-104.5
X126.44Y-105.0
X126.5Y-101.0
X126.5Y-102.75
X128.0Y-110.0
X128.25Y-105.25
X129.0Y-93.75
X131.0Y-90.5
X131.8Y-100.9
X132.0Y-78.0
X133.2Y-101.2
X133.55Y-108.05
X134.0Y-105.1
X134.0Y-110.0
X136.5Y-104.6
X138.0Y-99.2
X138.0Y-101.6
X138.0Y-104.5
X138.2Y-102.6
X138.496Y-100.123
X144.3Y-106.6
X144.9Y-103.3
X149.762Y-99.362
X149.8Y-101.4
X152.6Y-106.0
X152.7Y-104.4
X153.2Y-100.4
X163.5Y-101.1
X198.4Y-85.0
X199.8Y-70.0
X200.2Y-96.0
T2
X95.8Y-70.0
X95.8Y-85.24
X95.8Y-91.5
X95.8Y-106.74
X98.34Y-70.0
X98.34Y-85.24
X98.34Y-91.5
X98.34Y-106.74
X100.88Y-70.0
X100.88Y-85.24
X100.88Y-91.5
X100.88Y-106.74
X103.42Y-70.0
X103.42Y-85.24
X103.42Y-91.5
X103.42Y-106.74
X105.96Y-70.0
X105.96Y-85.24
X105.96Y-91.5
X105.96Y-106.74
X108.5Y-70.0
X108.5Y-91.5
M30
