#VRML V2.0 utf8
# 3D model generated by kicad-lcsc-manager
# Based on easyeda2kicad.py v1.0.1

Shape{
    appearance Appearance {
        material  Material {
            diffuseColor 1.0 1.0 1.0
            specularColor 0.5019607843137255 0.5019607843137255 0.5019607843137255
            ambientIntensity 1.0
            transparency 0.0
            shininess 0.5
        }
    }
    geometry IndexedFaceSet {
        ccw TRUE
        solid FALSE
        coord DEF co Coordinate {
            point [
                1.061 2.4366 0.7226, 1.061 3.8544 0.7226, 1.061 3.8544 2.9208, 1.061 0.8455 0.7226, 1.061 2.4366 2.9208, 1.061 0.3541 2.9958, 1.061 0.3463 2.9949, 1.061 0.393 2.9949, 1.061 0.5524 3.1833, 1.061 0.6115 3.1833, 1.061 0.6115 3.2365, 1.061 -0.965 3.2217, 1.061 -0.9622 3.2365, 1.061 -1.3031 3.2365, 1.061 -0.3805 3.5005, 1.061 -0.3518 3.4812, 1.061 -0.0415 3.4812, 1.061 -0.2034 3.3339, 1.061 -0.1674 3.3034, 1.061 -0.0415 3.2912, 1.061 -0.3213 3.4607, 1.061 -0.3155 3.4553, 1.061 -0.2734 3.4038, 1.061 -0.2495 3.3558, 1.061 -0.2429 3.3535, 1.061 -0.6201 3.5025, 1.061 -0.5582 3.5239, 1.061 -1.3031 3.9764, 1.061 -0.0415 3.9764, 1.061 -0.5019 3.5298, 1.061 -0.4472 3.524, 1.061 -0.6558 3.4812, 1.061 -1.3031 3.4812, 1.061 -0.6613 3.478, 1.061 -0.9031 3.3584, 1.061 -0.8924 3.3684, 1.061 -0.8498 3.3977, 1.061 -0.8005 3.4162, 1.061 -0.7503 3.4222, 1.061 -0.6925 3.4512, 1.061 -0.735 3.4213, 1.061 -0.7198 3.4195, 1.061 -1.3031 3.2912, 1.061 -0.9556 3.2716, 1.061 -0.9467 3.2912, 1.061 -0.934 3.3191, 1.061 -0.8034 2.9984, 1.061 -0.823 3.0044, 1.061 -1.3031 2.9949, 1.061 -0.8707 3.0285, 1.061 -0.9097 3.0622, 1.061 -0.9411 3.1075, 1.061 -0.9596 3.1571, 1.061 -0.9655 3.207, 1.061 -0.7444 2.926, 1.061 -0.7704 2.9456, 1.061 -1.3031 2.9208, 1.061 -0.7901 2.97, 1.061 -0.8018 2.9949, 1.061 -0.0415 0.7226, 1.061 -0.0415 2.9208, 1.061 -0.6222 2.9208, 1.061 -1.3031 0.7226, 1.061 -0.7138 2.9131, 1.061 -0.7322 2.9208, 1.061 -0.6451 2.9121, 1.061 -0.6772 2.9081, 1.061 -0.6824 2.9082, 1.061 -0.0415 2.9949, 1.061 -0.5528 2.9949, 1.061 -0.5529 2.9944, 1.061 -0.5686 2.9648, 1.061 -0.589 2.9418, 1.061 -0.6155 2.9234, 1.061 -0.1241 3.225, 1.061 -0.118 3.1817, 1.061 -0.0415 3.2365, 1.061 -0.3832 3.0732, 1.061 -0.3741 3.0768, 1.061 -0.3584 3.1525, 1.061 -0.1672 3.0556, 1.061 -0.2033 3.0249, 1.061 -0.5776 3.1299, 1.061 -0.3996 3.2229, 1.061 -0.6008 3.1511, 1.061 -0.629 3.1662, 1.061 -0.3913 3.0674, 1.061 -0.1408 3.0922, 1.061 -0.201 3.192, 1.061 -0.2072 3.2175, 1.061 -0.2174 3.2365, 1.061 -0.8785 3.2365, 1.061 -0.1241 3.1343, 1.061 -0.3638 3.0781, 1.061 -0.3625 3.078, 1.061 -0.3585 3.0772, 1.061 -0.8707 3.1568, 1.061 -0.8549 3.1297, 1.061 -0.7874 3.116, 1.061 -0.831 3.1052, 1.061 -0.8021 3.0874, 1.061 -0.7383 3.16, 1.061 -0.7654 3.1411, 1.061 -0.8818 3.2096, 1.061 -0.8802 3.1893, 1.061 -0.7089 3.1712, 1.061 -0.6772 3.1751, 1.061 -0.6611 3.1741, 1.061 -0.4049 3.037, 1.061 -0.4046 3.0422, 1.061 -0.5444 3.0542, 1.061 -0.4019 3.0523, 1.061 -0.3968 3.0614, 1.061 -0.2273 3.1102, 1.061 -0.2127 3.1309, 1.061 -0.2036 3.1546, 1.061 -0.2004 3.1804, 1.061 -0.3739 2.997, 1.061 -0.3827 3.0004, 1.061 -0.3913 3.0066, 1.061 -0.3944 3.0097, 1.061 -0.4002 3.0181, 1.061 -0.4037 3.0271, 1.061 -0.5451 3.0272, 1.061 -0.5444 3.0409, 1.061 -0.2439 3.0051, 1.061 -0.288 2.9958, 1.061 -0.3664 2.9958, 1.061 -0.3558 3.0768, 1.061 -0.296 3.0768, 1.061 -0.2722 3.0814, 1.061 -0.2488 3.0922, 1.061 -0.2291 3.1082, 1.061 -0.3146 3.284, 1.061 -0.8665 3.2714, 1.061 -0.8779 3.2418, 1.061 -0.304 3.284, 1.061 -0.2196 3.2404, 1.061 -0.235 3.2576, 1.061 -0.2556 3.272, 1.061 -0.2787 3.2809, 1.061 -0.3432 3.3637, 1.061 -0.3731 3.3995, 1.061 -0.6786 3.3226, 1.061 -0.3766 3.4027, 1.061 -0.4139 3.4286, 1.061 -0.6583 3.3645, 1.061 -0.8527 3.2912, 1.061 -0.6882 3.3278, 1.061 -0.3162 3.2912, 1.061 -0.3227 3.3209, 1.061 -0.718 3.3387, 1.061 -0.749 3.3425, 1.061 -0.7627 3.3418, 1.061 -0.6285 3.4001, 1.061 -0.4556 3.4445, 1.061 -0.5928 3.4262, 1.061 -0.5006 3.4501, 1.061 -0.5494 3.4438, 1.061 -0.7955 3.334, 1.061 -0.8251 3.3183, 1.061 -0.8481 3.2979, 1.061 -0.1587 3.2912, 1.061 -0.1403 3.2656, 1.061 -0.1286 3.2365, 1.061 0.6529 3.0177, 1.061 0.6529 2.9964, 1.061 0.6705 2.9949, 1.061 0.6705 3.2365, 1.061 0.6486 3.1833, 1.061 0.6486 3.1618, 1.061 0.5765 3.0806, 1.061 0.5765 3.0177, 1.061 0.6115 3.0806, 1.061 0.6115 3.0177, 1.061 0.6433 3.0806, 1.061 0.6433 3.102, 1.061 0.5765 3.1618, 1.061 0.5765 3.102, 1.061 0.6115 3.1618, 1.061 0.6115 3.102, 1.061 0.6115 2.9949, 1.061 0.6115 2.9964, 1.061 0.5524 2.9964, 1.061 0.4601 3.0296, 1.061 0.463 3.0186, 1.061 0.4636 3.0186, 1.061 0.5272 3.1299, 1.061 0.4366 3.2365, 1.061 0.5029 3.1299, 1.061 0.4366 3.0974, 1.061 0.4665 3.0294, 1.061 0.4647 3.0232, 1.061 0.2969 3.0939, 1.061 0.2979 3.1022, 1.061 0.2731 3.2365, 1.061 0.3005 3.0776, 1.061 0.298 3.0847, 1.061 0.2968 3.0253, 1.061 0.307 3.0191, 1.061 0.3076 3.0189, 1.061 0.3076 3.0686, 1.061 0.3036 3.0727, 1.061 0.3074 3.0687, 1.061 0.3178 2.9949, 1.061 0.3133 2.9953, 1.061 0.3076 2.9949, 1.061 0.3076 2.9973, 1.061 0.2731 2.9949, 1.061 0.2968 3.0011, 1.061 0.3805 3.127, 1.061 0.3805 3.1043, 1.061 0.3119 3.1223, 1.061 0.3177 3.1259, 1.061 0.3076 3.2365, 1.061 0.3006 3.1097, 1.061 0.305 3.1161, 1.061 0.3076 3.1184, 1.061 0.3858 3.0233, 1.061 0.3829 3.0159, 1.061 0.3786 3.0097, 1.061 0.3303 3.1307, 1.061 0.3489 3.1329, 1.061 0.393 3.2365, 1.061 0.3653 3.1315, 1.061 0.3791 3.0548, 1.061 0.3834 3.0484, 1.061 0.3859 3.0415, 1.061 0.3869 3.0327, 1.061 0.3719 3.0039, 1.061 0.3664 3.0005, 1.061 0.3466 3.1139, 1.061 0.3397 3.1134, 1.061 0.3211 3.096, 1.061 0.3334 3.1117, 1.061 0.3282 3.1089, 1.061 0.3213 3.0928, 1.061 0.3222 3.0892, 1.061 0.3239 3.0861, 1.061 0.3262 3.0835, 1.061 0.3344 3.0784, 1.061 0.3607 3.1125, 1.061 0.3489 3.0721, 1.061 0.374 3.1079, 1.061 0.358 3.0684, 1.061 0.3735 3.0598, 1.061 0.3246 3.1058, 1.061 0.3226 3.1028, 1.061 0.3215 3.0997, 1.061 0.3217 3.0138, 1.061 0.3324 3.0551, 1.061 0.3184 3.0615, 1.061 0.3353 3.0124, 1.061 0.3363 3.0124, 1.061 0.3477 3.0486, 1.061 0.3483 3.0137, 1.061 0.3629 3.0304, 1.061 0.3627 3.0333, 1.061 0.3544 3.0159, 1.061 0.3565 3.0172, 1.061 0.3592 3.0196, 1.061 0.3612 3.0226, 1.061 0.3624 3.026, 1.061 0.3616 3.037, 1.061 0.3598 3.0401, 1.061 0.3569 3.0431, 1.061 0.8455 3.2912, 1.061 0.7848 3.2928, 1.061 0.7581 3.2928, 1.061 0.7391 3.3439, 1.061 0.6705 3.3439, 1.061 0.6705 3.2912, 1.061 0.7136 3.4796, 1.061 0.8455 3.4812, 1.061 0.6705 3.4812, 1.061 0.6613 3.3439, 1.061 0.6433 3.2928, 1.061 0.6115 3.2912, 1.061 0.6167 3.2928, 1.061 0.6115 3.4812, 1.061 0.6705 3.4342, 1.061 0.6878 3.4796, 1.061 0.4147 3.4582, 1.061 0.4366 3.4812, 1.061 0.4147 3.4796, 1.061 0.393 3.4812, 1.061 0.393 3.4796, 1.061 0.4189 3.3141, 1.061 0.4094 3.377, 1.061 0.393 3.3141, 1.061 0.393 3.377, 1.061 0.3426 3.3141, 1.061 0.3426 3.377, 1.061 0.3426 3.4582, 1.061 0.3426 3.3984, 1.061 0.393 3.4582, 1.061 0.393 3.3984, 1.061 0.4094 3.3984, 1.061 0.3184 3.2928, 1.061 0.3076 3.2912, 1.061 0.393 3.2912, 1.061 0.3184 3.4796, 1.061 0.3076 3.4812, 1.061 0.4366 3.2912, 1.061 0.4189 3.2928, 1.061 0.393 3.2928, 1.061 0.26 3.4583, 1.061 0.237 3.461, 1.061 0.2731 3.3201, 1.061 0.281 3.4499, 1.061 0.281 3.3237, 1.061 0.279 3.4511, 1.061 0.2731 3.4533, 1.061 0.2272 3.4605, 1.061 0.2113 3.4568, 1.061 0.1968 3.4495, 1.061 0.1861 3.4403, 1.061 0.1849 3.439, 1.061 0.1758 3.426, 1.061 0.1696 3.4099, 1.061 0.1665 3.3841, 1.061 0.1669 3.3745, 1.061 0.1703 3.3564, 1.061 0.2415 3.3115, 1.061 0.2627 3.3154, 1.061 0.2007 3.3185, 1.061 0.2141 3.3134, 1.061 0.2328 3.3112, 1.061 0.1767 3.3417, 1.061 0.1848 3.3308, 1.061 0.1885 3.3272, 1.061 0.2568 3.4812, 1.061 0.2613 3.4809, 1.061 0.2731 3.4812, 1.061 0.2731 3.4775, 1.061 0.281 3.4752, 1.061 0.2368 3.4828, 1.061 0.2731 3.9764, 1.061 0.2368 3.4828, 1.061 0.1495 3.9764, 1.061 0.2238 3.4812, 1.061 0.1495 3.4812, 1.061 0.1546 3.4376, 1.061 0.1681 3.4553, 1.061 0.1727 3.4596, 1.061 0.1902 3.4719, 1.061 0.2097 3.4795, 1.061 0.1383 3.4812, 1.061 0.1457 3.4168, 1.061 0.1495 3.4257, 1.061 0.1495 3.3403, 1.061 0.1449 3.3522, 1.061 0.1383 3.2912, 1.061 0.1412 3.3827, 1.061 0.1415 3.3924, 1.061 0.1978 3.2944, 1.061 0.1802 3.3027, 1.061 0.1495 3.2912, 1.061 0.1651 3.3152, 1.061 0.1525 3.3327, 1.061 0.213 3.2912, 1.061 0.1495 3.2365, 1.061 0.218 3.2902, 1.061 0.2293 3.2897, 1.061 0.2458 3.2912, 1.061 0.281 3.3006, 1.061 0.2779 3.299, 1.061 0.2731 3.2912, 1.061 0.2731 3.2974, 1.061 0.2578 3.2924, 1.061 0.1666 3.0592, 1.061 0.1709 3.0978, 1.061 0.1618 3.0516, 1.061 0.1589 3.043, 1.061 0.2651 2.9964, 1.061 0.2417 2.9964, 1.061 0.2226 3.1131, 1.061 0.2147 3.1139, 1.061 0.2021 3.0757, 1.061 0.2628 3.1019, 1.061 0.2651 3.0823, 1.061 0.1734 3.0655, 1.061 0.1828 3.0707, 1.061 0.187 3.1079, 1.061 0.2017 3.1127, 1.061 0.1495 2.9949, 1.061 0.1772 2.9983, 1.061 0.1693 3.0038, 1.061 0.1709 3.1205, 1.061 0.1579 3.0322, 1.061 0.1593 3.0204, 1.061 0.2417 3.0171, 1.061 0.2411 3.0171, 1.061 0.2365 3.0103, 1.061 0.229 3.0027, 1.061 0.1674 3.0057, 1.061 0.1623 3.0127, 1.061 0.2329 3.1312, 1.061 0.2423 3.128, 1.061 0.2498 3.1233, 1.061 0.2417 3.0812, 1.061 0.2409 3.0916, 1.061 0.2385 3.0999, 1.061 0.2357 3.1047, 1.061 0.254 3.1192, 1.061 0.259 3.112, 1.061 0.1757 3.1233, 1.061 0.1931 3.13, 1.061 0.2169 3.1329, 1.061 0.2322 3.1085, 1.061 0.228 3.1112, 1.061 0.2131 2.9949, 1.061 0.2127 2.9947, 1.061 0.2731 2.9208, 1.061 0.1495 2.9208, 1.061 0.2002 2.9933, 1.061 0.1866 2.9949, 1.061 0.1862 2.9949, 1.061 0.4366 2.9949, 1.061 0.4366 3.0346, 1.061 0.3991 3.1299, 1.061 0.4253 3.1299, 1.061 0.4514 2.9967, 1.061 0.4507 2.9949, 1.061 0.4412 2.9725, 1.061 0.393 2.9208, 1.061 0.4039 2.9355, 1.061 0.4039 2.9563, 1.061 0.4321 2.9591, 1.061 0.4365 2.9639, 1.061 0.4366 2.9641, 1.061 0.333 2.9933, 1.061 0.3076 2.9208, 1.061 0.4087 2.9547, 1.061 0.4172 2.9536, 1.061 0.4366 2.9378, 1.061 0.4285 2.9347, 1.061 0.4366 2.9208, 1.061 0.419 2.9336, 1.061 0.4138 2.9338, 1.061 0.4233 2.9544, 1.061 0.4284 2.9564, 1.061 0.4666 2.9763, 1.061 0.456 2.9556, 1.061 0.6115 2.9208, 1.061 0.474 2.9949, 1.061 0.4475 2.9454, 1.061 0.4459 2.9439, 1.061 0.4377 2.9382, 1.061 0.6705 0.7226, 1.061 0.6705 2.9208, 1.061 0.6115 0.7226, 1.061 0.4366 0.7226, 1.061 0.393 0.7226, 1.061 0.3076 0.7226, 1.061 0.2731 0.7226, 1.061 0.1495 0.7226, 1.061 0.2221 2.9983, 1.061 0.8455 2.9208, 1.061 2.4366 2.9949, 1.061 0.8455 2.9949, 1.061 0.035 3.1833, 1.061 0.1312 3.1833, 1.061 0.1383 3.2365, 1.061 0.1312 3.1618, 1.061 0.0591 3.0806, 1.061 0.0591 3.0177, 1.061 0.1259 3.0806, 1.061 0.1355 3.0177, 1.061 0.1259 3.102, 1.061 0.035 2.9964, 1.061 0.1383 2.9949, 1.061 0.1383 2.9208, 1.061 0.1383 0.7226, 1.061 0.0591 3.1618, 1.061 0.0591 3.102, 1.061 0.1355 2.9964, 1.061 0.7396 2.9964, 1.061 0.6882 2.9964, 1.061 0.8352 3.0585, 1.061 0.826 3.0391, 1.061 0.8121 3.0226, 1.061 0.7927 3.0086, 1.061 0.7714 3.0003, 1.061 0.6882 3.1833, 1.061 0.7415 3.1833, 1.061 0.8455 3.2365, 1.061 0.77 3.1801, 1.061 0.7925 3.1719, 1.061 0.8121 3.1585, 1.061 0.8186 3.1521, 1.061 0.8302 3.1359, 1.061 0.8372 3.118, 1.061 0.8403 3.0922, 1.061 0.8397 3.0803, 1.061 0.8773 2.9964, 1.061 0.8506 2.9964, 1.061 0.9921 2.9964, 1.061 0.9731 3.0475, 1.061 0.8953 3.0475, 1.061 0.9218 3.1833, 1.061 0.9476 3.1833, 1.061 0.0591 3.4796, 1.061 0.0591 3.3141, 1.061 0.1335 3.3141, 1.061 0.035 3.2928, 1.061 0.035 3.4796, 1.061 0.1335 3.2928, 1.061 0.6012 3.3549, 1.061 0.592 3.3355, 1.061 0.5781 3.319, 1.061 0.5587 3.305, 1.061 0.5075 3.4796, 1.061 0.536 3.4765, 1.061 0.5586 3.4683, 1.061 0.5374 3.2967, 1.061 0.5056 3.2928, 1.061 0.4542 3.2928, 1.061 0.4542 3.4796, 1.061 0.5781 3.4549, 1.061 0.5847 3.4485, 1.061 0.5963 3.4322, 1.061 0.6032 3.4144, 1.061 0.6063 3.3886, 1.061 0.6058 3.3767, 1.061 1.0188 2.9964, 1.061 2.4366 3.2365, 1.061 2.4366 3.2912, 1.061 2.4366 3.4812, 1.061 3.8544 2.9949, 1.061 3.8544 3.2365, 1.061 3.8544 3.2912, 1.061 3.8544 3.4812, 1.061 0.1383 3.9764, 1.061 3.8544 3.9764, 1.061 2.4366 3.9764, 1.061 0.8455 3.9764, 1.061 0.6705 3.9764, 1.061 0.6115 3.9764, 1.061 0.4366 3.9764, 1.061 0.393 3.9764, 1.061 0.3076 3.9764, 1.061 -1.3031 0.4677, 1.061 -1.3031 0.0394, 1.061 3.8544 0.4677, 1.061 3.8544 0.0394, -0.6713 -1.3031 0.0394, -1.065 -1.3031 0.0394, -0.6713 3.8544 0.0394, -1.065 3.8544 0.0394, -1.065 -1.3031 3.9764, -0.5138 -1.3031 3.9764, -0.5138 0.0748 3.9764, 0.5098 -1.3031 3.9764, 0.5098 0.0748 3.9764, -1.065 3.8544 3.9764, 0.6673 3.8544 0.0394, 0.6673 -1.3031 0.0394, -0.6713 -1.3031 0.1575, 0.7461 -1.3031 1.9291, 0.7461 -1.3031 2.0866, -0.75 -1.3031 1.9291, -0.75 -1.3031 2.0866, 0.9507 -1.3031 0.5314, 0.9379 -1.3031 0.5622, 0.7461 -1.3031 0.4331, 0.6673 -1.3031 0.1575, -0.75 -1.3031 0.4331, -0.75 -1.3031 3.5827, 0.9709 -1.3031 0.6853, 0.9973 -1.3031 0.7055, 0.9336 -1.3031 0.5951, 0.9379 -1.3031 0.6281, 0.9507 -1.3031 0.6589, 1.028 -1.3031 0.7182, 0.7461 -1.3031 3.5827, 1.028 -1.3031 0.472, 0.9973 -1.3031 0.4848, 0.9709 -1.3031 0.505, -0.6713 3.8544 0.1575, 0.6673 3.8544 0.1575, 0.2224 3.8544 0.1575, 0.2224 3.8544 0.6299, 0.3917 3.8544 0.6299, 1.028 3.8544 0.472, 0.9973 3.8544 0.4848, 0.9709 3.8544 0.505, -0.3957 3.8544 0.6299, -0.2264 3.8544 0.6299, -0.2264 3.8544 0.1575, 0.9973 3.8544 0.7055, 0.3917 3.8544 1.6142, 1.028 3.8544 0.7182, 0.9379 3.8544 0.6281, 0.9507 3.8544 0.6589, 0.9709 3.8544 0.6853, 0.9336 3.8544 0.5951, 0.9379 3.8544 0.5622, 0.9507 3.8544 0.5314, -0.3957 3.8544 3.3858, 0.3917 3.8544 3.3858, 0.3917 3.8544 2.4016, -0.3957 3.8544 2.4016, -0.3957 3.8544 1.6142, -0.75 2.2402 0.4331, -0.75 2.2402 1.9291, 0.7461 2.2402 1.9291, 0.7461 2.2402 0.4331, 0.2224 2.2402 0.9567, 0.2224 2.2402 1.4055, -0.2264 2.2402 1.4055, -0.2264 2.2402 0.9567, 0.7461 2.2402 3.5827, 0.7461 2.2402 2.0866, -0.75 2.2402 2.0866, -0.75 2.2402 3.5827, 0.2224 2.2402 3.0591, -0.2264 2.2402 3.0591, -0.2264 2.2402 2.6102, 0.2224 2.2402 2.6102, -0.3957 3.6575 3.3858, -0.3957 3.6575 2.4016, 0.3917 3.6575 2.4016, 0.3917 3.6575 3.3858, 0.2224 3.6575 3.0591, 0.2224 3.6575 2.6102, -0.2264 3.6575 2.6102, -0.2264 3.6575 3.0591, 0.3917 3.6575 0.6299, 0.3917 3.6575 1.6142, -0.3957 3.6575 1.6142, -0.3957 3.6575 0.6299, -0.2264 3.7874 0.6299, 0.2224 3.7874 0.6299, 0.2224 3.6575 0.9567, -0.2264 3.6575 0.9567, -0.2264 3.6575 1.4055, 0.2224 3.6575 1.4055
            ]
        }
        coordIndex [
            0,1,2,-1,3,0,4,-1,5,6,7,-1,8,9,10,-1,11,12,13,-1,14,15,16,-1,17,18,16,-1,16,18,19,-1,15,20,16,-1,16,20,21,-1,16,21,22,-1,22,23,16,-1,16,23,24,-1,16,24,17,-1,25,26,27,-1,27,26,28,-1,28,26,29,-1,28,29,30,-1,25,27,31,-1,31,27,32,-1,31,32,33,-1,32,34,35,-1,35,36,32,-1,32,36,37,-1,32,37,33,-1,33,37,38,-1,33,38,39,-1,39,38,40,-1,39,40,41,-1,13,12,42,-1,12,43,42,-1,42,43,44,-1,42,44,32,-1,32,44,45,-1,32,45,34,-1,46,47,48,-1,48,47,49,-1,48,49,50,-1,50,51,48,-1,48,51,52,-1,48,52,13,-1,13,52,53,-1,13,53,11,-1,54,55,56,-1,56,55,57,-1,56,57,48,-1,48,57,58,-1,48,58,46,-1,59,60,61,-1,62,63,56,-1,56,63,64,-1,56,64,54,-1,61,65,59,-1,59,65,66,-1,59,66,62,-1,62,66,67,-1,62,67,63,-1,68,69,60,-1,60,69,70,-1,60,70,71,-1,71,72,60,-1,60,72,73,-1,60,73,61,-1,74,75,76,-1,77,78,79,-1,80,81,68,-1,82,83,84,-1,84,83,85,-1,77,79,86,-1,80,68,87,-1,88,89,83,-1,83,89,90,-1,83,90,91,-1,76,75,68,-1,68,75,92,-1,68,92,87,-1,78,93,79,-1,79,93,94,-1,79,94,95,-1,96,97,98,-1,98,97,99,-1,98,99,100,-1,101,91,102,-1,102,91,103,-1,102,103,98,-1,98,103,104,-1,98,104,96,-1,101,105,91,-1,91,105,106,-1,91,106,83,-1,83,106,107,-1,83,107,85,-1,108,109,110,-1,110,109,111,-1,110,111,79,-1,79,111,112,-1,79,112,86,-1,113,114,79,-1,79,114,115,-1,79,115,83,-1,83,115,116,-1,83,116,88,-1,117,118,69,-1,69,118,119,-1,69,119,120,-1,120,121,69,-1,69,121,122,-1,69,122,123,-1,123,122,108,-1,123,108,124,-1,124,108,110,-1,81,125,68,-1,68,125,126,-1,68,126,69,-1,69,126,127,-1,69,127,117,-1,95,128,79,-1,79,128,129,-1,79,129,130,-1,130,131,79,-1,79,131,132,-1,79,132,113,-1,133,134,135,-1,135,91,133,-1,133,91,90,-1,133,90,136,-1,136,90,137,-1,137,138,136,-1,136,138,139,-1,136,139,140,-1,141,142,143,-1,142,144,143,-1,143,144,145,-1,143,145,146,-1,147,143,148,-1,134,133,147,-1,147,133,149,-1,147,149,143,-1,143,149,150,-1,143,150,141,-1,148,151,147,-1,147,151,152,-1,147,152,153,-1,146,145,154,-1,154,145,155,-1,154,155,156,-1,156,155,157,-1,156,157,158,-1,159,160,153,-1,153,160,161,-1,153,161,147,-1,18,162,19,-1,19,162,163,-1,19,163,76,-1,76,163,164,-1,76,164,74,-1,165,166,167,-1,10,9,168,-1,168,9,169,-1,168,169,170,-1,171,172,173,-1,173,172,174,-1,173,174,175,-1,175,174,165,-1,175,165,176,-1,177,178,179,-1,179,178,180,-1,179,180,170,-1,167,166,181,-1,181,166,182,-1,181,182,183,-1,184,185,186,-1,187,188,189,-1,189,188,190,-1,189,190,191,-1,191,190,184,-1,191,184,192,-1,192,184,186,-1,193,194,195,-1,196,197,198,-1,199,200,201,-1,196,198,202,-1,199,201,198,-1,198,201,203,-1,198,203,202,-1,204,205,206,-1,206,205,207,-1,206,207,208,-1,208,207,209,-1,208,209,198,-1,210,211,7,-1,212,213,214,-1,194,215,195,-1,195,215,216,-1,195,216,214,-1,214,216,217,-1,214,217,212,-1,218,219,7,-1,7,219,220,-1,213,221,214,-1,214,221,222,-1,214,222,223,-1,223,222,224,-1,223,224,210,-1,225,226,211,-1,211,226,227,-1,211,227,7,-1,7,227,228,-1,7,228,218,-1,220,229,7,-1,7,229,230,-1,7,230,5,-1,231,232,233,-1,233,232,234,-1,233,234,235,-1,233,236,231,-1,231,236,237,-1,231,237,238,-1,238,239,231,-1,231,239,240,-1,231,240,241,-1,241,240,242,-1,241,242,243,-1,243,242,244,-1,243,244,211,-1,211,244,245,-1,211,245,225,-1,246,247,235,-1,235,247,248,-1,235,248,233,-1,249,250,200,-1,200,250,251,-1,200,251,201,-1,249,252,250,-1,250,252,253,-1,250,253,254,-1,254,253,255,-1,254,256,257,-1,255,258,254,-1,254,258,259,-1,254,259,260,-1,260,261,254,-1,254,261,262,-1,254,262,256,-1,257,263,254,-1,254,263,264,-1,254,264,265,-1,266,267,268,-1,269,270,268,-1,268,270,271,-1,268,271,266,-1,267,266,272,-1,272,266,273,-1,272,273,274,-1,270,275,271,-1,271,275,276,-1,271,276,277,-1,277,276,278,-1,277,278,279,-1,279,278,280,-1,279,280,274,-1,274,280,281,-1,274,281,272,-1,282,283,284,-1,284,283,285,-1,284,285,286,-1,287,288,289,-1,289,288,290,-1,289,290,291,-1,291,290,292,-1,293,294,295,-1,295,294,296,-1,295,296,282,-1,282,296,297,-1,282,297,283,-1,298,299,300,-1,286,285,301,-1,301,285,302,-1,301,302,298,-1,297,288,283,-1,283,288,287,-1,283,287,303,-1,303,287,304,-1,303,304,300,-1,300,304,305,-1,300,305,298,-1,306,307,308,-1,298,302,299,-1,299,302,309,-1,299,309,310,-1,310,309,311,-1,310,311,308,-1,308,311,312,-1,308,312,306,-1,307,313,308,-1,308,313,314,-1,308,314,315,-1,315,316,308,-1,308,316,317,-1,308,317,318,-1,318,319,308,-1,308,319,320,-1,308,320,321,-1,322,323,321,-1,321,323,324,-1,321,324,308,-1,325,326,327,-1,322,328,323,-1,323,328,329,-1,323,329,327,-1,327,329,330,-1,327,330,325,-1,331,332,333,-1,333,332,334,-1,333,334,302,-1,302,334,335,-1,302,335,309,-1,336,337,338,-1,338,337,339,-1,338,339,340,-1,341,342,343,-1,343,344,341,-1,341,344,345,-1,341,345,346,-1,347,348,341,-1,341,348,349,-1,341,349,342,-1,350,351,352,-1,352,351,353,-1,352,353,347,-1,347,353,354,-1,347,354,348,-1,355,356,357,-1,356,358,357,-1,357,358,359,-1,357,359,350,-1,355,357,360,-1,360,357,361,-1,360,361,362,-1,362,361,363,-1,363,361,195,-1,363,195,364,-1,310,365,299,-1,299,365,366,-1,299,366,367,-1,367,366,368,-1,367,368,369,-1,370,371,372,-1,372,371,373,-1,208,374,375,-1,376,377,378,-1,195,379,380,-1,370,381,371,-1,371,381,382,-1,371,382,383,-1,383,382,378,-1,383,378,384,-1,384,378,377,-1,197,193,198,-1,198,193,195,-1,198,195,208,-1,208,195,380,-1,208,380,374,-1,385,386,387,-1,371,388,373,-1,373,388,361,-1,373,361,389,-1,389,361,385,-1,389,385,390,-1,391,392,375,-1,375,392,393,-1,375,393,394,-1,387,395,385,-1,385,395,396,-1,385,396,390,-1,397,398,195,-1,195,398,399,-1,400,401,378,-1,378,401,402,-1,378,402,403,-1,399,404,195,-1,195,404,405,-1,195,405,379,-1,388,406,361,-1,361,406,407,-1,361,407,195,-1,195,407,408,-1,195,408,397,-1,403,409,378,-1,378,409,410,-1,378,410,376,-1,411,412,413,-1,413,412,414,-1,412,415,414,-1,414,415,416,-1,414,416,385,-1,385,416,417,-1,385,417,386,-1,418,419,7,-1,7,419,420,-1,210,7,223,-1,223,7,420,-1,223,420,188,-1,188,420,421,-1,188,421,190,-1,422,419,423,-1,423,419,418,-1,423,418,424,-1,425,426,427,-1,428,429,418,-1,418,429,430,-1,418,430,424,-1,431,432,6,-1,6,432,425,-1,6,425,7,-1,7,425,427,-1,7,427,418,-1,418,427,433,-1,418,433,434,-1,435,436,437,-1,437,436,438,-1,437,438,425,-1,425,438,439,-1,425,439,426,-1,434,440,418,-1,418,440,441,-1,418,441,428,-1,442,443,444,-1,442,444,445,-1,443,446,444,-1,444,446,447,-1,444,447,437,-1,437,447,448,-1,437,448,435,-1,449,450,451,-1,451,450,444,-1,451,444,452,-1,452,444,437,-1,452,437,453,-1,453,437,425,-1,453,425,454,-1,454,425,432,-1,454,432,455,-1,455,432,413,-1,455,413,456,-1,456,413,414,-1,431,204,432,-1,432,204,206,-1,432,206,413,-1,413,206,208,-1,413,208,411,-1,411,208,375,-1,411,375,457,-1,457,375,394,-1,450,167,444,-1,444,167,181,-1,444,181,445,-1,445,181,183,-1,445,183,187,-1,187,183,8,-1,187,8,188,-1,188,8,10,-1,3,4,458,-1,458,4,459,-1,458,459,460,-1,461,462,463,-1,463,462,464,-1,465,466,467,-1,467,466,468,-1,467,468,469,-1,461,76,470,-1,470,76,68,-1,470,68,471,-1,471,68,60,-1,471,60,472,-1,472,60,59,-1,472,59,473,-1,474,475,464,-1,464,475,469,-1,464,469,463,-1,463,469,468,-1,463,468,471,-1,471,468,476,-1,471,476,470,-1,477,167,460,-1,460,167,450,-1,460,450,458,-1,458,450,449,-1,458,449,3,-1,477,478,167,-1,167,478,168,-1,167,168,165,-1,165,168,170,-1,165,170,176,-1,176,170,180,-1,479,480,460,-1,460,480,481,-1,481,482,460,-1,460,482,483,-1,460,483,477,-1,478,484,168,-1,168,484,485,-1,168,485,486,-1,486,485,487,-1,486,487,488,-1,488,489,486,-1,486,489,490,-1,486,490,491,-1,491,492,486,-1,486,492,493,-1,486,493,460,-1,460,493,494,-1,460,494,479,-1,495,496,460,-1,497,498,499,-1,460,496,486,-1,486,496,500,-1,486,500,501,-1,350,352,357,-1,357,352,463,-1,357,463,361,-1,361,463,471,-1,361,471,385,-1,385,471,472,-1,385,472,414,-1,414,472,473,-1,414,473,456,-1,486,266,168,-1,168,266,271,-1,168,271,10,-1,10,271,277,-1,10,277,188,-1,188,277,303,-1,188,303,223,-1,223,303,300,-1,223,300,214,-1,214,300,299,-1,214,299,195,-1,195,299,367,-1,195,367,364,-1,364,367,369,-1,502,503,504,-1,461,463,76,-1,76,463,352,-1,76,352,19,-1,19,352,505,-1,19,505,16,-1,505,506,16,-1,16,506,502,-1,16,502,347,-1,347,502,504,-1,347,504,352,-1,352,504,507,-1,352,507,505,-1,508,509,277,-1,277,509,510,-1,277,510,511,-1,283,512,279,-1,279,512,513,-1,279,513,514,-1,511,515,277,-1,277,515,516,-1,277,516,303,-1,303,516,517,-1,303,517,283,-1,283,517,518,-1,283,518,512,-1,514,519,279,-1,279,519,520,-1,279,520,521,-1,521,522,279,-1,279,522,523,-1,279,523,277,-1,277,523,524,-1,277,524,508,-1,499,495,497,-1,497,495,460,-1,497,460,525,-1,525,460,459,-1,525,459,501,-1,501,459,526,-1,501,526,486,-1,486,526,527,-1,486,527,266,-1,266,527,528,-1,266,528,273,-1,0,2,4,-1,4,2,529,-1,4,529,459,-1,459,529,530,-1,459,530,526,-1,526,530,531,-1,526,531,527,-1,527,531,532,-1,527,532,528,-1,346,340,341,-1,341,340,339,-1,341,339,347,-1,347,339,533,-1,347,533,16,-1,16,533,28,-1,16,28,14,-1,14,28,30,-1,532,534,528,-1,528,534,535,-1,528,535,273,-1,273,535,536,-1,273,536,274,-1,274,536,537,-1,274,537,279,-1,279,537,538,-1,279,538,283,-1,283,538,539,-1,283,539,285,-1,285,539,540,-1,285,540,302,-1,302,540,541,-1,302,541,333,-1,333,541,337,-1,333,337,331,-1,331,337,336,-1,542,543,544,-1,544,543,545,-1,546,547,548,-1,548,547,549,-1,550,551,552,-1,553,27,554,-1,554,27,534,-1,554,534,552,-1,552,534,555,-1,552,555,550,-1,547,550,549,-1,549,550,555,-1,556,545,557,-1,557,545,543,-1,547,546,558,-1,559,560,561,-1,561,560,562,-1,563,564,565,-1,557,543,566,-1,566,543,565,-1,566,565,558,-1,558,565,567,-1,558,567,547,-1,547,567,561,-1,547,561,550,-1,550,561,562,-1,550,562,568,-1,559,569,570,-1,564,571,565,-1,565,571,572,-1,565,572,559,-1,559,572,573,-1,559,573,569,-1,570,574,559,-1,559,574,62,-1,559,62,560,-1,560,62,27,-1,560,27,575,-1,575,27,553,-1,575,553,568,-1,568,553,551,-1,568,551,550,-1,542,576,543,-1,543,576,577,-1,543,577,565,-1,565,577,578,-1,565,578,563,-1,579,548,549,-1,545,556,580,-1,581,582,580,-1,580,582,583,-1,544,545,584,-1,584,545,580,-1,584,580,585,-1,585,580,586,-1,587,588,589,-1,590,591,592,-1,592,591,534,-1,592,534,1,-1,593,583,594,-1,594,583,591,-1,594,591,595,-1,595,591,590,-1,593,596,583,-1,583,596,597,-1,583,597,580,-1,580,597,598,-1,580,598,586,-1,599,555,600,-1,600,555,534,-1,600,534,601,-1,601,534,591,-1,601,591,602,-1,602,591,603,-1,599,602,555,-1,555,602,603,-1,555,603,549,-1,549,603,587,-1,549,587,579,-1,579,587,589,-1,604,605,567,-1,567,605,561,-1,605,606,561,-1,561,606,559,-1,606,607,559,-1,559,607,565,-1,607,604,565,-1,565,604,567,-1,608,607,609,-1,609,607,606,-1,609,606,610,-1,610,606,605,-1,610,605,611,-1,611,605,604,-1,611,604,608,-1,608,604,607,-1,612,613,575,-1,575,613,560,-1,613,614,560,-1,560,614,562,-1,614,615,562,-1,562,615,568,-1,615,612,568,-1,568,612,575,-1,616,612,617,-1,617,612,615,-1,617,615,618,-1,618,615,614,-1,618,614,619,-1,619,614,613,-1,619,613,616,-1,616,613,612,-1,620,621,599,-1,599,621,602,-1,621,622,602,-1,602,622,601,-1,622,623,601,-1,601,623,600,-1,623,620,600,-1,600,620,599,-1,624,623,625,-1,625,623,622,-1,625,622,626,-1,626,622,621,-1,626,621,627,-1,627,621,620,-1,627,620,624,-1,624,620,623,-1,628,629,583,-1,583,629,591,-1,629,630,591,-1,591,630,603,-1,630,631,603,-1,603,631,587,-1,588,587,632,-1,632,587,631,-1,632,631,633,-1,633,631,628,-1,633,628,582,-1,582,628,583,-1,634,628,635,-1,635,628,631,-1,635,631,636,-1,636,631,630,-1,636,630,637,-1,637,630,629,-1,637,629,634,-1,634,629,628,-1,
        ]
    }
}
Shape{
    appearance Appearance {
        material  Material {
            diffuseColor 0.7529411764705882 0.7529411764705882 0.7529411764705882
            specularColor 0.3764705882352941 0.3764705882352941 0.3764705882352941
            ambientIntensity 0.7529
            transparency 0.0
            shininess 0.5
        }
    }
    geometry IndexedFaceSet {
        ccw TRUE
        solid FALSE
        coord DEF co Coordinate {
            point [
                -0.2264 3.815 1.4055, 0.2224 3.815 1.4055, 0.2224 3.924 1.3912, -0.2264 3.924 1.3912, 0.2224 4.0256 1.3491, -0.2264 4.0256 1.3491, 0.2224 4.1129 1.2821, -0.2264 4.1129 1.2821, 0.2224 4.1798 1.1949, -0.2264 4.1798 1.1949, 0.2224 4.2219 1.0933, -0.2264 4.2219 1.0933, 0.2224 4.2362 0.9843, -0.2264 4.2362 0.9843, -0.2264 4.2362 -1.1417, 0.2224 4.2362 -1.1417, 0.1508 4.1646 -1.3386, 0.1508 3.8591 -1.3386, -0.1547 4.1646 -1.3386, -0.1547 3.8591 -1.3386, -0.2264 3.6575 0.9567, -0.2264 3.6575 1.4055, -0.2264 3.7874 0.9567, -0.2264 3.7874 0.6299, -0.2264 3.8544 0.6299, -0.2264 3.8544 0.1575, -0.2264 3.7874 0.1575, -0.2264 3.7874 -1.1417, 0.2224 3.8544 0.1575, 0.2224 3.7874 0.1575, 0.2224 3.7874 -1.1417, 0.2224 3.6575 1.4055, 0.2224 3.6575 0.9567, 0.2224 3.7874 0.9567, 0.2224 3.7874 0.6299, 0.2224 3.8544 0.6299, -0.2264 0.2717 0.9567, -0.2264 2.2402 0.9567, 0.2224 0.2717 0.9567, 0.2224 2.2402 0.9567, 0.2224 0.2717 1.4055, 0.2224 2.2402 1.4055, -0.2264 0.2717 1.4055, -0.2264 2.2402 1.4055, 0.1508 0.0748 1.0283, 0.1508 0.0748 1.3339, -0.1547 0.0748 1.0283, -0.1547 0.0748 1.3339, -0.2264 5.3898 3.0591, 0.2224 5.3898 3.0591, 0.2224 5.5872 3.0396, -0.2264 5.5872 3.0396, 0.2224 5.777 2.982, -0.2264 5.777 2.982, 0.2224 5.9519 2.8885, -0.2264 5.9519 2.8885, 0.2224 6.1052 2.7627, -0.2264 6.1052 2.7627, 0.2224 6.2311 2.6094, -0.2264 6.2311 2.6094, 0.2224 6.3246 2.4344, -0.2264 6.3246 2.4344, 0.2224 6.3822 2.2446, -0.2264 6.3822 2.2446, 0.2224 6.4016 2.0472, -0.2264 6.4016 2.0472, -0.2264 6.4016 -1.1417, 0.2224 6.4016 -1.1417, 0.1508 6.3299 -1.3386, 0.1508 6.0244 -1.3386, -0.1547 6.3299 -1.3386, -0.1547 6.0244 -1.3386, 0.2224 5.9528 -1.1417, 0.2224 5.9528 2.0472, -0.2264 5.9528 -1.1417, -0.2264 5.9528 2.0472, -0.2264 5.9336 2.193, 0.2224 5.9336 2.193, -0.2264 5.8774 2.3287, 0.2224 5.8774 2.3287, -0.2264 5.7879 2.4453, 0.2224 5.7879 2.4453, -0.2264 5.6713 2.5348, 0.2224 5.6713 2.5348, -0.2264 5.5355 2.5911, 0.2224 5.5355 2.5911, -0.2264 5.3898 2.6102, 0.2224 5.3898 2.6102, 0.2224 3.6575 3.0591, 0.2224 3.6575 2.6102, -0.2264 3.6575 2.6102, -0.2264 3.6575 3.0591, -0.2264 0.2717 2.6102, -0.2264 2.2402 2.6102, 0.2224 0.2717 2.6102, 0.2224 2.2402 2.6102, 0.1508 0.0748 2.6819, 0.1508 0.0748 2.9874, -0.1547 0.0748 2.6819, -0.1547 0.0748 2.9874, 0.2224 0.2717 3.0591, 0.2224 2.2402 3.0591, -0.2264 0.2717 3.0591, -0.2264 2.2402 3.0591
            ]
        }
        coordIndex [
            0,1,2,-1,0,2,3,-1,3,2,4,-1,3,4,5,-1,5,4,6,-1,5,6,7,-1,7,6,8,-1,7,8,9,-1,9,8,10,-1,9,10,11,-1,11,10,12,-1,11,12,13,-1,14,13,15,-1,15,13,12,-1,16,17,18,-1,18,17,19,-1,20,21,22,-1,22,21,0,-1,0,3,22,-1,22,3,5,-1,22,5,7,-1,7,9,22,-1,22,9,11,-1,22,11,13,-1,23,22,24,-1,24,22,13,-1,24,13,25,-1,25,13,14,-1,25,14,26,-1,26,14,27,-1,28,29,30,-1,31,32,1,-1,1,32,33,-1,6,4,33,-1,33,4,2,-1,33,2,1,-1,33,34,35,-1,30,15,28,-1,28,15,12,-1,28,12,35,-1,35,12,10,-1,35,10,33,-1,33,10,8,-1,33,8,6,-1,1,0,31,-1,31,0,21,-1,20,22,32,-1,32,22,33,-1,33,22,34,-1,34,22,23,-1,30,29,27,-1,27,29,26,-1,36,37,38,-1,38,37,39,-1,40,41,42,-1,42,41,43,-1,42,43,36,-1,36,43,37,-1,38,39,40,-1,40,39,41,-1,44,45,46,-1,46,45,47,-1,27,19,30,-1,30,19,17,-1,14,18,27,-1,27,18,19,-1,16,15,17,-1,17,15,30,-1,15,16,14,-1,14,16,18,-1,42,47,40,-1,40,47,45,-1,36,46,42,-1,42,46,47,-1,44,38,45,-1,45,38,40,-1,38,44,36,-1,36,44,46,-1,48,49,50,-1,48,50,51,-1,51,50,52,-1,51,52,53,-1,53,52,54,-1,53,54,55,-1,55,54,56,-1,55,56,57,-1,57,56,58,-1,57,58,59,-1,59,58,60,-1,59,60,61,-1,61,60,62,-1,61,62,63,-1,63,62,64,-1,63,64,65,-1,66,65,67,-1,67,65,64,-1,68,69,70,-1,70,69,71,-1,72,73,74,-1,74,73,75,-1,75,73,76,-1,76,73,77,-1,76,77,78,-1,78,77,79,-1,78,79,80,-1,80,79,81,-1,80,81,82,-1,82,81,83,-1,82,83,84,-1,84,83,85,-1,84,85,86,-1,86,85,87,-1,72,67,73,-1,73,67,64,-1,73,64,77,-1,88,89,49,-1,49,89,87,-1,49,87,50,-1,50,87,85,-1,50,85,52,-1,52,85,83,-1,64,62,77,-1,77,62,60,-1,77,60,79,-1,79,60,58,-1,79,58,81,-1,81,58,56,-1,81,56,83,-1,83,56,54,-1,83,54,52,-1,66,74,65,-1,65,74,75,-1,65,75,63,-1,63,75,76,-1,63,76,61,-1,61,76,78,-1,90,91,86,-1,86,91,48,-1,86,48,84,-1,48,51,84,-1,84,51,53,-1,84,53,82,-1,82,53,55,-1,82,55,80,-1,80,55,57,-1,80,57,78,-1,78,57,59,-1,78,59,61,-1,88,49,91,-1,91,49,48,-1,86,87,90,-1,90,87,89,-1,92,93,94,-1,94,93,95,-1,96,97,98,-1,98,97,99,-1,100,101,102,-1,102,101,103,-1,102,103,92,-1,92,103,93,-1,94,95,100,-1,100,95,101,-1,102,99,100,-1,100,99,97,-1,92,98,102,-1,102,98,99,-1,96,94,97,-1,97,94,100,-1,94,96,92,-1,92,96,98,-1,74,71,72,-1,72,71,69,-1,66,70,74,-1,74,70,71,-1,68,67,69,-1,69,67,72,-1,67,68,66,-1,66,68,70,-1,
        ]
    }
}
Shape{
    appearance Appearance {
        material  Material {
            diffuseColor 1.0 1.0 1.0
            specularColor 0.5019607843137255 0.5019607843137255 0.5019607843137255
            ambientIntensity 1.0
            transparency 0.0
            shininess 0.5
        }
    }
    geometry IndexedFaceSet {
        ccw TRUE
        solid FALSE
        coord DEF co Coordinate {
            point [
                0.5098 0.0748 4.5276, 0.5098 0.0748 3.9764, -0.5138 0.0748 4.5276, -0.5138 0.0748 3.9764, 0.5098 -0.3189 4.5276, -0.5138 -0.3189 4.5276, 0.5098 -1.3031 3.9764, -0.5138 -1.3031 3.9764, -0.6713 3.8544 0.1575, -0.6713 -1.3031 0.1575, -0.6713 3.8544 0.0394, -0.6713 -1.3031 0.0394, 0.6673 -1.3031 0.1575, 0.6673 3.8544 0.1575, 0.6673 -1.3031 0.0394, 0.6673 3.8544 0.0394, -0.2264 3.8544 0.1575, -0.2264 3.7874 0.1575, 0.2224 3.8544 0.1575, 0.2224 3.7874 0.1575, 1.061 3.8544 0.7226, 1.061 -1.3031 0.7226, 1.028 3.8544 0.7182, 1.028 -1.3031 0.7182, 0.9973 3.8544 0.7055, 0.9973 -1.3031 0.7055, 0.9709 3.8544 0.6853, 0.9709 -1.3031 0.6853, 0.9507 3.8544 0.6589, 0.9507 -1.3031 0.6589, 0.9379 3.8544 0.6281, 0.9379 -1.3031 0.6281, 0.9336 3.8544 0.5951, 0.9336 -1.3031 0.5951, 0.9379 3.8544 0.5622, 0.9379 -1.3031 0.5622, 0.9507 3.8544 0.5314, 0.9507 -1.3031 0.5314, 0.9709 3.8544 0.505, 0.9709 -1.3031 0.505, 0.9973 3.8544 0.4848, 0.9973 -1.3031 0.4848, 1.028 3.8544 0.472, 1.028 -1.3031 0.472, 1.061 3.8544 0.4677, 1.061 -1.3031 0.4677
            ]
        }
        coordIndex [
            0,1,2,-1,2,1,3,-1,4,0,5,-1,5,0,2,-1,6,4,7,-1,7,4,5,-1,4,6,0,-1,0,6,1,-1,7,5,3,-1,3,5,2,-1,8,9,10,-1,10,9,11,-1,12,13,14,-1,14,13,15,-1,8,16,17,-1,18,13,19,-1,19,13,12,-1,19,12,17,-1,17,12,9,-1,17,9,8,-1,20,21,22,-1,22,21,23,-1,22,23,24,-1,24,23,25,-1,24,25,26,-1,26,25,27,-1,26,27,28,-1,28,27,29,-1,28,29,30,-1,30,29,31,-1,30,31,32,-1,32,31,33,-1,32,33,34,-1,34,33,35,-1,34,35,36,-1,36,35,37,-1,36,37,38,-1,38,37,39,-1,38,39,40,-1,40,39,41,-1,40,41,42,-1,42,41,43,-1,42,43,44,-1,44,43,45,-1,
        ]
    }
}
Shape{
    appearance Appearance {
        material  Material {
            diffuseColor 0.0 0.0 0.0
            specularColor 0.0 0.0 0.0
            ambientIntensity 0.0
            transparency 0.0
            shininess 0.5
        }
    }
    geometry IndexedFaceSet {
        ccw TRUE
        solid FALSE
        coord DEF co Coordinate {
            point [
                1.065 0.1335 3.3141, 1.065 0.1335 3.2928, 1.061 0.1335 3.3141, 1.061 0.1335 3.2928, 1.065 0.0591 3.3141, 1.061 0.0591 3.3141, 1.065 0.0591 3.4796, 1.061 0.0591 3.4796, 1.065 0.035 3.4796, 1.061 0.035 3.4796, 1.065 0.035 3.2928, 1.061 0.035 3.2928, 1.065 0.2578 3.2924, 1.065 0.2293 3.2897, 1.061 0.2293 3.2897, 1.061 0.2458 3.2912, 1.061 0.2578 3.2924, 1.065 0.2779 3.299, 1.061 0.2731 3.2974, 1.061 0.2779 3.299, 1.061 0.281 3.3006, 1.065 0.281 3.3006, 1.065 0.281 3.3237, 1.061 0.281 3.3237, 1.061 0.2731 3.3201, 1.065 0.2627 3.3154, 1.061 0.2627 3.3154, 1.061 0.2415 3.3115, 1.065 0.2415 3.3115, 1.061 0.2328 3.3112, 1.065 0.2328 3.3112, 1.061 0.2141 3.3134, 1.065 0.2141 3.3134, 1.061 0.2007 3.3185, 1.065 0.2007 3.3185, 1.061 0.1885 3.3272, 1.065 0.1885 3.3272, 1.061 0.1848 3.3308, 1.065 0.1848 3.3308, 1.061 0.1767 3.3417, 1.065 0.1767 3.3417, 1.061 0.1703 3.3564, 1.065 0.1703 3.3564, 1.061 0.1669 3.3745, 1.065 0.1669 3.3745, 1.061 0.1665 3.3841, 1.065 0.1665 3.3841, 1.061 0.1696 3.4099, 1.065 0.1696 3.4099, 1.061 0.1758 3.426, 1.065 0.1758 3.426, 1.061 0.1849 3.439, 1.065 0.1849 3.439, 1.061 0.1861 3.4403, 1.065 0.1861 3.4403, 1.061 0.1968 3.4495, 1.065 0.1968 3.4495, 1.061 0.2113 3.4568, 1.065 0.2113 3.4568, 1.061 0.2272 3.4605, 1.065 0.2272 3.4605, 1.061 0.237 3.461, 1.065 0.237 3.461, 1.061 0.26 3.4583, 1.061 0.2731 3.4533, 1.065 0.279 3.4511, 1.065 0.26 3.4583, 1.061 0.279 3.4511, 1.061 0.281 3.4499, 1.065 0.281 3.4499, 1.065 0.281 3.4752, 1.061 0.281 3.4752, 1.061 0.2368 3.4828, 1.065 0.2368 3.4828, 1.065 0.2368 3.4828, 1.061 0.2731 3.4775, 1.065 0.2613 3.4809, 1.061 0.2613 3.4809, 1.061 0.2568 3.4812, 1.061 0.2368 3.4828, 1.061 0.2238 3.4812, 1.065 0.2097 3.4795, 1.061 0.2097 3.4795, 1.061 0.1902 3.4719, 1.065 0.1902 3.4719, 1.061 0.1727 3.4596, 1.065 0.1727 3.4596, 1.061 0.1681 3.4553, 1.065 0.1681 3.4553, 1.061 0.1546 3.4376, 1.061 0.1495 3.4257, 1.065 0.1457 3.4168, 1.065 0.1546 3.4376, 1.061 0.1457 3.4168, 1.061 0.1415 3.3924, 1.065 0.1415 3.3924, 1.061 0.1412 3.3827, 1.065 0.1412 3.3827, 1.061 0.1449 3.3522, 1.061 0.1495 3.3403, 1.065 0.1525 3.3327, 1.065 0.1449 3.3522, 1.061 0.1525 3.3327, 1.061 0.1651 3.3152, 1.065 0.1651 3.3152, 1.061 0.1978 3.2944, 1.065 0.1802 3.3027, 1.061 0.1802 3.3027, 1.061 0.213 3.2912, 1.065 0.218 3.2902, 1.065 0.1978 3.2944, 1.061 0.218 3.2902, 1.065 0.4189 3.3141, 1.065 0.4189 3.2928, 1.061 0.4189 3.3141, 1.061 0.4189 3.2928, 1.061 0.3426 3.3141, 1.065 0.3426 3.3141, 1.061 0.393 3.3141, 1.065 0.3426 3.377, 1.061 0.3426 3.377, 1.061 0.4094 3.377, 1.065 0.4094 3.377, 1.061 0.393 3.377, 1.065 0.4094 3.3984, 1.061 0.4094 3.3984, 1.061 0.3426 3.3984, 1.065 0.3426 3.3984, 1.061 0.393 3.3984, 1.065 0.3426 3.4582, 1.061 0.3426 3.4582, 1.061 0.4147 3.4582, 1.065 0.4147 3.4582, 1.061 0.393 3.4582, 1.065 0.4147 3.4796, 1.061 0.4147 3.4796, 1.061 0.3184 3.4796, 1.065 0.3184 3.4796, 1.061 0.393 3.4796, 1.065 0.3184 3.2928, 1.061 0.3184 3.2928, 1.061 0.393 3.2928, 1.065 0.5781 3.319, 1.065 0.5589 3.3316, 1.065 0.5587 3.305, 1.065 0.5469 3.3232, 1.065 0.5374 3.2967, 1.065 0.5315 3.3172, 1.065 0.5056 3.2928, 1.065 0.5055 3.3141, 1.065 0.4542 3.2928, 1.065 0.4783 3.3141, 1.065 0.4542 3.4796, 1.065 0.4783 3.4582, 1.065 0.5075 3.4796, 1.065 0.5066 3.4582, 1.065 0.5138 3.4579, 1.065 0.536 3.4765, 1.065 0.5333 3.4548, 1.065 0.5586 3.4683, 1.065 0.549 3.4485, 1.065 0.5781 3.4549, 1.065 0.5605 3.4406, 1.065 0.5847 3.4485, 1.065 0.5656 3.4355, 1.065 0.5963 3.4322, 1.065 0.5729 3.4251, 1.065 0.6032 3.4144, 1.065 0.5782 3.4114, 1.065 0.6063 3.3886, 1.065 0.581 3.3879, 1.065 0.6058 3.3767, 1.065 0.5801 3.374, 1.065 0.6012 3.3549, 1.065 0.5762 3.3574, 1.065 0.592 3.3355, 1.065 0.5694 3.3438, 1.065 0.561 3.3336, 1.061 0.5056 3.2928, 1.061 0.4542 3.2928, 1.061 0.5374 3.2967, 1.061 0.5587 3.305, 1.061 0.5781 3.319, 1.061 0.592 3.3355, 1.061 0.6012 3.3549, 1.061 0.6058 3.3767, 1.061 0.6063 3.3886, 1.061 0.6032 3.4144, 1.061 0.5963 3.4322, 1.061 0.5847 3.4485, 1.061 0.5781 3.4549, 1.061 0.5586 3.4683, 1.061 0.536 3.4765, 1.061 0.5075 3.4796, 1.061 0.4542 3.4796, 1.061 0.5066 3.4582, 1.061 0.4783 3.4582, 1.061 0.4783 3.3141, 1.061 0.5055 3.3141, 1.061 0.561 3.3336, 1.061 0.5589 3.3316, 1.061 0.5469 3.3232, 1.061 0.5315 3.3172, 1.061 0.581 3.3879, 1.061 0.5801 3.374, 1.061 0.5762 3.3574, 1.061 0.5694 3.3438, 1.061 0.5605 3.4406, 1.061 0.5656 3.4355, 1.061 0.5729 3.4251, 1.061 0.5782 3.4114, 1.061 0.5138 3.4579, 1.061 0.5333 3.4548, 1.061 0.549 3.4485
            ]
        }
        coordIndex [
            0,1,2,-1,2,1,3,-1,4,0,5,-1,5,0,2,-1,6,4,7,-1,7,4,5,-1,8,6,9,-1,9,6,7,-1,10,8,11,-1,11,8,9,-1,1,10,3,-1,3,10,11,-1,6,8,4,-1,4,8,10,-1,4,10,0,-1,0,10,1,-1,12,13,14,-1,14,15,12,-1,12,15,16,-1,12,16,17,-1,17,16,18,-1,18,19,17,-1,17,19,20,-1,17,20,21,-1,22,21,23,-1,23,21,20,-1,22,23,24,-1,22,24,25,-1,24,26,25,-1,25,26,27,-1,25,27,28,-1,28,27,29,-1,28,29,30,-1,30,29,31,-1,30,31,32,-1,32,31,33,-1,32,33,34,-1,34,33,35,-1,34,35,36,-1,36,35,37,-1,36,37,38,-1,38,37,39,-1,38,39,40,-1,40,39,41,-1,40,41,42,-1,42,41,43,-1,42,43,44,-1,44,43,45,-1,44,45,46,-1,46,45,47,-1,46,47,48,-1,48,47,49,-1,48,49,50,-1,50,49,51,-1,50,51,52,-1,52,51,53,-1,52,53,54,-1,54,53,55,-1,54,55,56,-1,56,55,57,-1,56,57,58,-1,58,57,59,-1,58,59,60,-1,60,59,61,-1,60,61,62,-1,62,61,63,-1,64,65,63,-1,63,65,66,-1,63,66,62,-1,64,67,65,-1,65,67,68,-1,65,68,69,-1,70,69,71,-1,71,69,68,-1,72,73,74,-1,70,71,75,-1,70,75,76,-1,75,77,76,-1,76,77,78,-1,76,78,74,-1,74,78,79,-1,74,79,72,-1,73,72,80,-1,73,80,81,-1,80,82,81,-1,81,82,83,-1,81,83,84,-1,84,83,85,-1,84,85,86,-1,86,85,87,-1,86,87,88,-1,88,87,89,-1,90,91,89,-1,89,91,92,-1,89,92,88,-1,90,93,91,-1,91,93,94,-1,91,94,95,-1,95,94,96,-1,95,96,97,-1,97,96,98,-1,99,100,98,-1,98,100,101,-1,98,101,97,-1,99,102,100,-1,100,102,103,-1,100,103,104,-1,105,106,107,-1,107,106,104,-1,107,104,103,-1,108,109,105,-1,105,109,110,-1,105,110,106,-1,108,111,109,-1,109,111,14,-1,109,14,13,-1,65,69,70,-1,48,50,92,-1,92,50,88,-1,65,70,66,-1,66,70,76,-1,66,76,62,-1,62,76,74,-1,62,74,60,-1,60,74,73,-1,60,73,58,-1,58,73,81,-1,58,81,56,-1,97,46,95,-1,95,46,48,-1,95,48,91,-1,91,48,92,-1,50,52,88,-1,88,52,54,-1,88,54,86,-1,86,54,56,-1,86,56,84,-1,84,56,81,-1,21,22,17,-1,17,22,25,-1,17,25,12,-1,12,25,28,-1,12,28,13,-1,13,28,30,-1,13,30,109,-1,109,30,32,-1,109,32,110,-1,110,32,34,-1,110,34,106,-1,106,34,36,-1,106,36,104,-1,104,36,38,-1,104,38,100,-1,100,38,40,-1,100,40,101,-1,101,40,42,-1,101,42,97,-1,97,42,44,-1,97,44,46,-1,112,113,114,-1,114,113,115,-1,116,117,118,-1,118,117,112,-1,118,112,114,-1,119,117,120,-1,120,117,116,-1,121,122,123,-1,123,122,119,-1,123,119,120,-1,124,122,125,-1,125,122,121,-1,126,127,128,-1,128,127,124,-1,128,124,125,-1,129,127,130,-1,130,127,126,-1,131,132,133,-1,133,132,129,-1,133,129,130,-1,134,132,135,-1,135,132,131,-1,136,137,138,-1,138,137,134,-1,138,134,135,-1,139,137,140,-1,140,137,136,-1,115,113,141,-1,141,113,139,-1,141,139,140,-1,139,113,112,-1,112,117,139,-1,139,117,119,-1,139,119,137,-1,132,134,129,-1,129,134,137,-1,129,137,127,-1,127,137,119,-1,127,119,124,-1,124,119,122,-1,142,143,144,-1,144,143,145,-1,144,145,146,-1,146,145,147,-1,146,147,148,-1,148,147,149,-1,148,149,150,-1,150,149,151,-1,150,151,152,-1,152,151,153,-1,152,153,154,-1,153,155,154,-1,154,155,156,-1,154,156,157,-1,157,156,158,-1,157,158,159,-1,159,158,160,-1,159,160,161,-1,161,160,162,-1,161,162,163,-1,163,162,164,-1,163,164,165,-1,165,164,166,-1,165,166,167,-1,167,166,168,-1,167,168,169,-1,169,168,170,-1,169,170,171,-1,171,170,172,-1,171,172,173,-1,173,172,174,-1,173,174,175,-1,175,174,176,-1,175,176,142,-1,142,176,177,-1,142,177,143,-1,148,150,178,-1,178,150,179,-1,148,178,180,-1,148,180,146,-1,146,180,181,-1,146,181,144,-1,144,181,182,-1,144,182,142,-1,142,182,183,-1,142,183,175,-1,175,183,184,-1,175,184,173,-1,173,184,185,-1,173,185,171,-1,171,185,186,-1,171,186,169,-1,169,186,187,-1,169,187,167,-1,167,187,188,-1,167,188,165,-1,165,188,189,-1,165,189,163,-1,163,189,190,-1,163,190,161,-1,161,190,191,-1,161,191,159,-1,159,191,192,-1,159,192,157,-1,157,192,193,-1,157,193,154,-1,152,154,194,-1,194,154,193,-1,150,152,179,-1,179,152,194,-1,155,153,195,-1,195,153,196,-1,153,151,196,-1,196,151,197,-1,151,149,197,-1,197,149,198,-1,177,199,200,-1,177,200,143,-1,143,200,201,-1,143,201,145,-1,145,201,202,-1,145,202,147,-1,147,202,198,-1,147,198,149,-1,170,203,204,-1,170,204,172,-1,172,204,205,-1,172,205,174,-1,174,205,206,-1,174,206,176,-1,176,206,199,-1,176,199,177,-1,162,207,208,-1,162,208,164,-1,164,208,209,-1,164,209,166,-1,166,209,210,-1,166,210,168,-1,168,210,203,-1,168,203,170,-1,155,195,211,-1,155,211,156,-1,156,211,212,-1,156,212,158,-1,158,212,213,-1,158,213,160,-1,160,213,207,-1,160,207,162,-1,
        ]
    }
}
Shape{
    appearance Appearance {
        material  Material {
            diffuseColor 1.0 1.0 1.0
            specularColor 0.5019607843137255 0.5019607843137255 0.5019607843137255
            ambientIntensity 1.0
            transparency 0.0
            shininess 0.5
        }
    }
    geometry IndexedFaceSet {
        ccw TRUE
        solid FALSE
        coord DEF co Coordinate {
            point [
                1.061 0.5066 3.4582, 1.061 0.4783 3.4582, 1.061 0.4783 3.3141, 1.061 0.5762 3.3574, 1.061 0.5801 3.374, 1.061 0.5138 3.4579, 1.061 0.5055 3.3141, 1.061 0.5315 3.3172, 1.061 0.5469 3.3232, 1.061 0.5589 3.3316, 1.061 0.561 3.3336, 1.061 0.5694 3.3438, 1.061 0.5605 3.4406, 1.061 0.581 3.3879, 1.061 0.549 3.4485, 1.061 0.5333 3.4548, 1.061 0.5782 3.4114, 1.061 0.5729 3.4251, 1.061 0.5656 3.4355
            ]
        }
        coordIndex [
            0,1,2,-1,3,4,5,-1,2,6,0,-1,0,6,7,-1,0,7,8,-1,8,9,0,-1,0,9,10,-1,0,10,5,-1,5,10,11,-1,5,11,3,-1,12,4,13,-1,12,14,4,-1,4,14,15,-1,4,15,5,-1,16,17,13,-1,13,17,18,-1,13,18,12,-1,
        ]
    }
}
Shape{
    appearance Appearance {
        material  Material {
            diffuseColor 0.0 0.0 0.0
            specularColor 0.0 0.0 0.0
            ambientIntensity 0.0
            transparency 0.0
            shininess 0.5
        }
    }
    geometry IndexedFaceSet {
        ccw TRUE
        solid FALSE
        coord DEF co Coordinate {
            point [
                1.065 0.6689 3.365, 1.065 0.6613 3.3439, 1.065 0.7316 3.365, 1.065 0.7391 3.3439, 1.065 0.6969 3.4427, 1.065 0.6878 3.4796, 1.065 0.6167 3.2928, 1.065 0.6433 3.2928, 1.065 0.6985 3.4483, 1.065 0.6999 3.4558, 1.065 0.7136 3.4796, 1.065 0.7005 3.4558, 1.065 0.702 3.4479, 1.065 0.7034 3.4427, 1.065 0.7848 3.2928, 1.065 0.7581 3.2928, 1.061 0.7136 3.4796, 1.061 0.7848 3.2928, 1.061 0.6878 3.4796, 1.061 0.6167 3.2928, 1.061 0.6705 3.4342, 1.061 0.6433 3.2928, 1.061 0.6613 3.3439, 1.061 0.7391 3.3439, 1.061 0.6705 3.3439, 1.061 0.7581 3.2928, 1.061 0.6689 3.365, 1.061 0.7316 3.365, 1.061 0.7034 3.4427, 1.061 0.7005 3.4558, 1.061 0.702 3.4479, 1.061 0.6999 3.4558, 1.061 0.6969 3.4427, 1.061 0.6985 3.4483
            ]
        }
        coordIndex [
            0,1,2,-1,2,1,3,-1,4,5,0,-1,0,5,6,-1,0,6,1,-1,1,6,7,-1,4,8,5,-1,5,8,9,-1,5,9,10,-1,10,9,11,-1,10,11,12,-1,12,13,10,-1,10,13,2,-1,10,2,14,-1,14,2,3,-1,14,3,15,-1,10,14,16,-1,16,14,17,-1,5,10,18,-1,18,10,16,-1,19,6,20,-1,20,6,5,-1,20,5,18,-1,7,6,21,-1,21,6,19,-1,1,7,22,-1,22,7,21,-1,23,3,24,-1,24,3,1,-1,24,1,22,-1,15,3,25,-1,25,3,23,-1,14,15,17,-1,17,15,25,-1,0,2,26,-1,26,2,27,-1,2,13,27,-1,27,13,28,-1,11,29,30,-1,11,30,12,-1,12,30,28,-1,12,28,13,-1,11,9,29,-1,29,9,31,-1,4,32,33,-1,4,33,8,-1,8,33,31,-1,8,31,9,-1,4,0,32,-1,32,0,26,-1,
        ]
    }
}
Shape{
    appearance Appearance {
        material  Material {
            diffuseColor 1.0 1.0 1.0
            specularColor 0.5019607843137255 0.5019607843137255 0.5019607843137255
            ambientIntensity 1.0
            transparency 0.0
            shininess 0.5
        }
    }
    geometry IndexedFaceSet {
        ccw TRUE
        solid FALSE
        coord DEF co Coordinate {
            point [
                1.061 0.7005 3.4558, 1.061 0.6999 3.4558, 1.061 0.702 3.4479, 1.061 0.6985 3.4483, 1.061 0.7034 3.4427, 1.061 0.6969 3.4427, 1.061 0.7316 3.365, 1.061 0.6689 3.365
            ]
        }
        coordIndex [
            0,1,2,-1,2,1,3,-1,2,3,4,-1,4,3,5,-1,4,5,6,-1,6,5,7,-1,
        ]
    }
}
Shape{
    appearance Appearance {
        material  Material {
            diffuseColor 0.0 0.0 0.0
            specularColor 0.0 0.0 0.0
            ambientIntensity 0.0
            transparency 0.0
            shininess 0.5
        }
    }
    geometry IndexedFaceSet {
        ccw TRUE
        solid FALSE
        coord DEF co Coordinate {
            point [
                1.065 0.1355 3.0177, 1.065 0.1355 2.9964, 1.061 0.1355 3.0177, 1.061 0.1355 2.9964, 1.065 0.0591 3.0177, 1.061 0.0591 3.0177, 1.065 0.0591 3.0806, 1.061 0.0591 3.0806, 1.065 0.1259 3.0806, 1.061 0.1259 3.0806, 1.065 0.1259 3.102, 1.061 0.1259 3.102, 1.065 0.0591 3.102, 1.061 0.0591 3.102, 1.065 0.0591 3.1618, 1.061 0.0591 3.1618, 1.065 0.1312 3.1618, 1.061 0.1312 3.1618, 1.065 0.1312 3.1833, 1.061 0.1312 3.1833, 1.065 0.035 3.1833, 1.061 0.035 3.1833, 1.065 0.035 2.9964, 1.061 0.035 2.9964, 1.065 0.2411 3.0171, 1.065 0.2417 3.0171, 1.065 0.2402 3.0386, 1.065 0.1902 3.0529, 1.065 0.1954 3.0555, 1.065 0.1828 3.0707, 1.065 0.2417 3.049, 1.065 0.2651 3.0823, 1.065 0.2417 3.0506, 1.065 0.2417 3.0634, 1.065 0.2417 2.9964, 1.065 0.2651 2.9964, 1.065 0.2329 3.1312, 1.065 0.228 3.1112, 1.065 0.2423 3.128, 1.065 0.2322 3.1085, 1.065 0.2367 3.0302, 1.065 0.2317 3.0234, 1.065 0.2365 3.0103, 1.065 0.2287 3.0205, 1.065 0.229 3.0027, 1.065 0.2221 3.016, 1.065 0.2221 2.9983, 1.065 0.215 3.0135, 1.065 0.2127 2.9947, 1.065 0.2062 3.0125, 1.065 0.2002 2.9933, 1.065 0.1983 3.0134, 1.065 0.1862 2.9949, 1.065 0.1931 3.0153, 1.065 0.1772 2.9983, 1.065 0.1884 3.0185, 1.065 0.1693 3.0038, 1.065 0.1864 3.0205, 1.065 0.2021 3.0757, 1.065 0.2105 3.0592, 1.065 0.2417 3.0812, 1.065 0.1709 3.1205, 1.065 0.1709 3.0978, 1.065 0.1757 3.1233, 1.065 0.187 3.1079, 1.065 0.1931 3.13, 1.065 0.2017 3.1127, 1.065 0.2169 3.1329, 1.065 0.2147 3.1139, 1.065 0.2226 3.1131, 1.065 0.2409 3.0916, 1.065 0.2628 3.1019, 1.065 0.2385 3.0999, 1.065 0.259 3.112, 1.065 0.2357 3.1047, 1.065 0.254 3.1192, 1.065 0.2498 3.1233, 1.065 0.1878 3.051, 1.065 0.1734 3.0655, 1.065 0.185 3.0475, 1.065 0.1666 3.0592, 1.065 0.183 3.0431, 1.065 0.1618 3.0516, 1.065 0.1818 3.0378, 1.065 0.1589 3.043, 1.065 0.1816 3.0341, 1.065 0.1579 3.0322, 1.065 0.1822 3.0287, 1.065 0.1593 3.0204, 1.065 0.1837 3.0244, 1.065 0.1623 3.0127, 1.065 0.1674 3.0057, 1.061 0.2169 3.1329, 1.061 0.1931 3.13, 1.061 0.1757 3.1233, 1.061 0.1709 3.1205, 1.061 0.1709 3.0978, 1.061 0.187 3.1079, 1.061 0.2017 3.1127, 1.061 0.2147 3.1139, 1.061 0.2226 3.1131, 1.061 0.228 3.1112, 1.061 0.2322 3.1085, 1.061 0.2357 3.1047, 1.061 0.2385 3.0999, 1.061 0.2409 3.0916, 1.061 0.2417 3.0812, 1.061 0.2021 3.0757, 1.061 0.1828 3.0707, 1.061 0.1734 3.0655, 1.061 0.1666 3.0592, 1.061 0.1618 3.0516, 1.061 0.1589 3.043, 1.061 0.1579 3.0322, 1.061 0.1593 3.0204, 1.061 0.1623 3.0127, 1.061 0.1674 3.0057, 1.061 0.1693 3.0038, 1.061 0.2002 2.9933, 1.061 0.1866 2.9949, 1.061 0.1862 2.9949, 1.061 0.1772 2.9983, 1.061 0.2127 2.9947, 1.061 0.2131 2.9949, 1.061 0.2221 2.9983, 1.061 0.229 3.0027, 1.061 0.2365 3.0103, 1.061 0.2411 3.0171, 1.061 0.2417 3.0171, 1.061 0.2417 2.9964, 1.061 0.2651 2.9964, 1.061 0.2651 3.0823, 1.061 0.2628 3.1019, 1.061 0.259 3.112, 1.061 0.254 3.1192, 1.061 0.2498 3.1233, 1.061 0.2423 3.128, 1.061 0.2329 3.1312, 1.061 0.1878 3.051, 1.061 0.1902 3.0529, 1.061 0.1954 3.0555, 1.061 0.2105 3.0592, 1.061 0.1816 3.0341, 1.061 0.1818 3.0378, 1.061 0.183 3.0431, 1.061 0.185 3.0475, 1.061 0.1884 3.0185, 1.061 0.1864 3.0205, 1.061 0.1837 3.0244, 1.061 0.1822 3.0287, 1.061 0.2062 3.0125, 1.061 0.1983 3.0134, 1.061 0.1931 3.0153, 1.061 0.2317 3.0234, 1.061 0.2287 3.0205, 1.061 0.2221 3.016, 1.061 0.215 3.0135, 1.061 0.2417 3.0506, 1.061 0.2417 3.049, 1.061 0.2402 3.0386, 1.061 0.2367 3.0302, 1.061 0.2417 3.0634
            ]
        }
        coordIndex [
            0,1,2,-1,2,1,3,-1,4,0,5,-1,5,0,2,-1,6,4,7,-1,7,4,5,-1,8,6,9,-1,9,6,7,-1,10,8,11,-1,11,8,9,-1,12,10,13,-1,13,10,11,-1,14,12,15,-1,15,12,13,-1,16,14,17,-1,17,14,15,-1,18,16,19,-1,19,16,17,-1,20,18,21,-1,21,18,19,-1,22,20,23,-1,23,20,21,-1,1,22,3,-1,3,22,23,-1,16,18,14,-1,14,18,20,-1,14,20,12,-1,1,0,22,-1,22,0,4,-1,22,4,6,-1,8,10,6,-1,6,10,12,-1,6,12,22,-1,22,12,20,-1,24,25,26,-1,27,28,29,-1,30,31,32,-1,32,31,33,-1,34,35,25,-1,25,35,31,-1,25,31,26,-1,26,31,30,-1,36,37,38,-1,38,37,39,-1,26,40,24,-1,24,40,41,-1,24,41,42,-1,42,41,43,-1,42,43,44,-1,44,43,45,-1,44,45,46,-1,46,45,47,-1,46,47,48,-1,48,47,49,-1,48,49,50,-1,50,49,51,-1,50,51,52,-1,52,51,53,-1,52,53,54,-1,54,53,55,-1,54,55,56,-1,56,55,57,-1,29,28,58,-1,58,28,59,-1,58,59,60,-1,61,62,63,-1,63,62,64,-1,63,64,65,-1,65,64,66,-1,65,66,67,-1,67,66,68,-1,67,68,36,-1,36,68,69,-1,36,69,37,-1,59,33,60,-1,60,33,31,-1,60,31,70,-1,70,31,71,-1,70,71,72,-1,72,71,73,-1,72,73,74,-1,74,73,75,-1,74,75,39,-1,39,75,76,-1,39,76,38,-1,27,29,77,-1,77,29,78,-1,77,78,79,-1,79,78,80,-1,79,80,81,-1,81,80,82,-1,81,82,83,-1,83,82,84,-1,83,84,85,-1,85,84,86,-1,85,86,87,-1,87,86,88,-1,87,88,89,-1,89,88,90,-1,89,90,57,-1,57,90,91,-1,57,91,56,-1,67,92,93,-1,67,93,65,-1,65,93,94,-1,65,94,63,-1,63,94,95,-1,63,95,61,-1,62,61,96,-1,96,61,95,-1,62,96,97,-1,62,97,64,-1,64,97,98,-1,64,98,66,-1,66,98,99,-1,66,99,68,-1,68,99,100,-1,68,100,69,-1,69,100,101,-1,69,101,37,-1,37,101,102,-1,37,102,39,-1,39,102,103,-1,39,103,74,-1,74,103,104,-1,74,104,72,-1,72,104,105,-1,72,105,70,-1,70,105,106,-1,70,106,60,-1,58,60,107,-1,107,60,106,-1,58,107,108,-1,58,108,29,-1,29,108,109,-1,29,109,78,-1,78,109,110,-1,78,110,80,-1,80,110,111,-1,80,111,82,-1,82,111,112,-1,82,112,84,-1,84,112,113,-1,84,113,86,-1,86,113,114,-1,86,114,88,-1,88,114,115,-1,88,115,90,-1,90,115,116,-1,90,116,91,-1,91,116,117,-1,91,117,56,-1,118,50,119,-1,119,50,52,-1,119,52,120,-1,120,52,54,-1,120,54,121,-1,121,54,56,-1,121,56,117,-1,50,118,122,-1,50,122,48,-1,48,122,123,-1,48,123,46,-1,123,124,46,-1,46,124,125,-1,46,125,44,-1,44,125,126,-1,44,126,42,-1,42,126,127,-1,42,127,24,-1,25,24,128,-1,128,24,127,-1,34,25,129,-1,129,25,128,-1,35,34,130,-1,130,34,129,-1,31,35,131,-1,131,35,130,-1,31,131,132,-1,31,132,71,-1,71,132,133,-1,71,133,73,-1,73,133,134,-1,73,134,75,-1,75,134,135,-1,75,135,76,-1,76,135,136,-1,76,136,38,-1,38,136,137,-1,38,137,36,-1,36,137,92,-1,36,92,67,-1,77,138,139,-1,77,139,27,-1,27,139,140,-1,27,140,28,-1,28,140,141,-1,28,141,59,-1,85,142,143,-1,85,143,83,-1,83,143,144,-1,83,144,81,-1,81,144,145,-1,81,145,79,-1,79,145,138,-1,79,138,77,-1,55,146,147,-1,55,147,57,-1,57,147,148,-1,57,148,89,-1,89,148,149,-1,89,149,87,-1,87,149,142,-1,87,142,85,-1,49,150,151,-1,49,151,51,-1,51,151,152,-1,51,152,53,-1,53,152,146,-1,53,146,55,-1,41,153,154,-1,41,154,43,-1,43,154,155,-1,43,155,45,-1,45,155,156,-1,45,156,47,-1,47,156,150,-1,47,150,49,-1,32,157,158,-1,32,158,30,-1,30,158,159,-1,30,159,26,-1,26,159,160,-1,26,160,40,-1,40,160,153,-1,40,153,41,-1,32,33,157,-1,157,33,161,-1,33,59,161,-1,161,59,141,-1,
        ]
    }
}
Shape{
    appearance Appearance {
        material  Material {
            diffuseColor 1.0 1.0 1.0
            specularColor 0.5019607843137255 0.5019607843137255 0.5019607843137255
            ambientIntensity 1.0
            transparency 0.0
            shininess 0.5
        }
    }
    geometry IndexedFaceSet {
        ccw TRUE
        solid FALSE
        coord DEF co Coordinate {
            point [
                1.061 0.2417 3.049, 1.061 0.2417 3.0506, 1.061 0.1878 3.051, 1.061 0.2417 3.0634, 1.061 0.2105 3.0592, 1.061 0.1954 3.0555, 1.061 0.1902 3.0529, 1.061 0.2402 3.0386, 1.061 0.185 3.0475, 1.061 0.2367 3.0302, 1.061 0.1864 3.0205, 1.061 0.1884 3.0185, 1.061 0.2287 3.0205, 1.061 0.1837 3.0244, 1.061 0.2221 3.016, 1.061 0.215 3.0135, 1.061 0.2062 3.0125, 1.061 0.183 3.0431, 1.061 0.1818 3.0378, 1.061 0.2317 3.0234, 1.061 0.1816 3.0341, 1.061 0.1822 3.0287, 1.061 0.1931 3.0153, 1.061 0.1983 3.0134
            ]
        }
        coordIndex [
            0,1,2,-1,1,3,4,-1,4,5,1,-1,1,5,6,-1,1,6,2,-1,0,2,7,-1,7,2,8,-1,7,8,9,-1,10,11,12,-1,10,12,13,-1,14,12,15,-1,15,12,16,-1,8,17,9,-1,9,17,18,-1,9,18,19,-1,19,18,20,-1,19,20,12,-1,12,20,21,-1,12,21,13,-1,11,22,12,-1,12,22,23,-1,12,23,16,-1,
        ]
    }
}
Shape{
    appearance Appearance {
        material  Material {
            diffuseColor 0.0 0.0 0.0
            specularColor 0.0 0.0 0.0
            ambientIntensity 0.0
            transparency 0.0
            shininess 0.5
        }
    }
    geometry IndexedFaceSet {
        ccw TRUE
        solid FALSE
        coord DEF co Coordinate {
            point [
                1.061 0.2968 3.0253, 1.065 0.2968 3.0253, 1.065 0.307 3.0191, 1.065 0.3353 3.0124, 1.061 0.3353 3.0124, 1.061 0.3217 3.0138, 1.065 0.3217 3.0138, 1.061 0.3076 3.0189, 1.061 0.307 3.0191, 1.065 0.2968 3.0011, 1.061 0.2968 3.0011, 1.065 0.3133 2.9953, 1.061 0.3076 2.9973, 1.061 0.333 2.9933, 1.065 0.333 2.9933, 1.061 0.3178 2.9949, 1.061 0.3133 2.9953, 1.065 0.3541 2.9958, 1.061 0.3463 2.9949, 1.061 0.3541 2.9958, 1.061 0.3664 3.0005, 1.065 0.3664 3.0005, 1.061 0.3719 3.0039, 1.065 0.3719 3.0039, 1.061 0.3786 3.0097, 1.065 0.3786 3.0097, 1.061 0.3829 3.0159, 1.065 0.3829 3.0159, 1.061 0.3858 3.0233, 1.065 0.3858 3.0233, 1.061 0.3869 3.0327, 1.065 0.3869 3.0327, 1.061 0.3859 3.0415, 1.065 0.3859 3.0415, 1.061 0.3834 3.0484, 1.065 0.3834 3.0484, 1.061 0.3791 3.0548, 1.065 0.3791 3.0548, 1.061 0.3735 3.0598, 1.065 0.3735 3.0598, 1.061 0.358 3.0684, 1.065 0.358 3.0684, 1.061 0.3489 3.0721, 1.065 0.3489 3.0721, 1.061 0.3344 3.0784, 1.065 0.3344 3.0784, 1.061 0.3262 3.0835, 1.065 0.3262 3.0835, 1.061 0.3239 3.0861, 1.065 0.3239 3.0861, 1.061 0.3222 3.0892, 1.065 0.3222 3.0892, 1.061 0.3213 3.0928, 1.065 0.3213 3.0928, 1.061 0.3211 3.096, 1.065 0.3211 3.096, 1.061 0.3215 3.0997, 1.065 0.3215 3.0997, 1.061 0.3226 3.1028, 1.065 0.3226 3.1028, 1.061 0.3246 3.1058, 1.065 0.3246 3.1058, 1.061 0.3282 3.1089, 1.065 0.3282 3.1089, 1.061 0.3334 3.1117, 1.065 0.3334 3.1117, 1.061 0.3397 3.1134, 1.065 0.3397 3.1134, 1.061 0.3466 3.1139, 1.065 0.3466 3.1139, 1.061 0.3607 3.1125, 1.065 0.3607 3.1125, 1.061 0.374 3.1079, 1.065 0.374 3.1079, 1.061 0.3805 3.1043, 1.065 0.3805 3.1043, 1.065 0.3805 3.127, 1.061 0.3805 3.127, 1.061 0.3653 3.1315, 1.065 0.3653 3.1315, 1.061 0.3489 3.1329, 1.065 0.3489 3.1329, 1.061 0.3303 3.1307, 1.065 0.3303 3.1307, 1.061 0.3177 3.1259, 1.065 0.3177 3.1259, 1.061 0.3119 3.1223, 1.065 0.3119 3.1223, 1.065 0.305 3.1161, 1.061 0.3076 3.1184, 1.061 0.305 3.1161, 1.061 0.3006 3.1097, 1.065 0.3006 3.1097, 1.061 0.2979 3.1022, 1.065 0.2979 3.1022, 1.061 0.2969 3.0939, 1.065 0.2969 3.0939, 1.061 0.298 3.0847, 1.065 0.298 3.0847, 1.061 0.3005 3.0776, 1.065 0.3005 3.0776, 1.061 0.3036 3.0727, 1.065 0.3036 3.0727, 1.061 0.3324 3.0551, 1.065 0.3324 3.0551, 1.065 0.3184 3.0615, 1.061 0.3074 3.0687, 1.065 0.3074 3.0687, 1.061 0.3076 3.0686, 1.061 0.3184 3.0615, 1.061 0.3477 3.0486, 1.065 0.3477 3.0486, 1.061 0.3569 3.0431, 1.065 0.3569 3.0431, 1.061 0.3598 3.0401, 1.065 0.3598 3.0401, 1.061 0.3616 3.037, 1.065 0.3616 3.037, 1.061 0.3627 3.0333, 1.065 0.3627 3.0333, 1.061 0.3629 3.0304, 1.065 0.3629 3.0304, 1.061 0.3624 3.026, 1.065 0.3624 3.026, 1.061 0.3612 3.0226, 1.065 0.3612 3.0226, 1.061 0.3592 3.0196, 1.065 0.3592 3.0196, 1.061 0.3565 3.0172, 1.065 0.3565 3.0172, 1.061 0.3544 3.0159, 1.065 0.3544 3.0159, 1.061 0.3483 3.0137, 1.065 0.3483 3.0137, 1.061 0.3363 3.0124, 1.065 0.3363 3.0124, 1.065 0.5029 3.1299, 1.065 0.5272 3.1299, 1.061 0.5029 3.1299, 1.061 0.5272 3.1299, 1.065 0.4665 3.0294, 1.061 0.4665 3.0294, 1.061 0.4647 3.0232, 1.065 0.4647 3.0232, 1.061 0.4636 3.0186, 1.065 0.4636 3.0186, 1.065 0.463 3.0186, 1.061 0.463 3.0186, 1.065 0.4601 3.0296, 1.061 0.4601 3.0296, 1.061 0.4253 3.1299, 1.065 0.4253 3.1299, 1.061 0.4366 3.0974, 1.065 0.3991 3.1299, 1.061 0.3991 3.1299, 1.061 0.4514 2.9967, 1.065 0.4514 2.9967, 1.061 0.4366 3.0346, 1.061 0.4412 2.9725, 1.065 0.4412 2.9725, 1.061 0.4507 2.9949, 1.061 0.4366 2.9641, 1.065 0.4365 2.9639, 1.061 0.4365 2.9639, 1.061 0.4321 2.9591, 1.065 0.4321 2.9591, 1.061 0.4284 2.9564, 1.065 0.4284 2.9564, 1.061 0.4233 2.9544, 1.065 0.4233 2.9544, 1.061 0.4172 2.9536, 1.065 0.4172 2.9536, 1.061 0.4087 2.9547, 1.065 0.4087 2.9547, 1.061 0.4039 2.9563, 1.065 0.4039 2.9563, 1.065 0.4039 2.9355, 1.061 0.4039 2.9355, 1.061 0.4138 2.9338, 1.065 0.4138 2.9338, 1.061 0.419 2.9336, 1.065 0.419 2.9336, 1.061 0.4285 2.9347, 1.065 0.4285 2.9347, 1.061 0.4366 2.9378, 1.065 0.4377 2.9382, 1.061 0.4377 2.9382, 1.061 0.4459 2.9439, 1.065 0.4459 2.9439, 1.061 0.4475 2.9454, 1.065 0.4475 2.9454, 1.061 0.456 2.9556, 1.065 0.456 2.9556, 1.061 0.4666 2.9763, 1.065 0.4666 2.9763, 1.061 0.474 2.9949, 1.065 0.6529 3.0177, 1.065 0.6529 2.9964, 1.061 0.6529 3.0177, 1.061 0.6529 2.9964, 1.061 0.5765 3.0177, 1.065 0.5765 3.0177, 1.061 0.6115 3.0177, 1.065 0.5765 3.0806, 1.061 0.5765 3.0806, 1.061 0.6433 3.0806, 1.065 0.6433 3.0806, 1.061 0.6115 3.0806, 1.065 0.6433 3.102, 1.061 0.6433 3.102, 1.061 0.5765 3.102, 1.065 0.5765 3.102, 1.061 0.6115 3.102, 1.065 0.5765 3.1618, 1.061 0.5765 3.1618, 1.061 0.6486 3.1618, 1.065 0.6486 3.1618, 1.061 0.6115 3.1618, 1.065 0.6486 3.1833, 1.061 0.6486 3.1833, 1.061 0.5524 3.1833, 1.065 0.5524 3.1833, 1.061 0.6115 3.1833, 1.065 0.5524 2.9964, 1.061 0.5524 2.9964, 1.061 0.6115 2.9964, 1.065 0.8121 3.0226, 1.065 0.7929 3.0352, 1.065 0.7927 3.0086, 1.065 0.7808 3.0269, 1.065 0.7714 3.0003, 1.065 0.7654 3.0209, 1.065 0.7396 2.9964, 1.065 0.7394 3.0177, 1.065 0.6882 2.9964, 1.065 0.7123 3.0177, 1.065 0.6882 3.1833, 1.065 0.7123 3.1618, 1.065 0.7415 3.1833, 1.065 0.7405 3.1618, 1.065 0.7477 3.1616, 1.065 0.77 3.1801, 1.065 0.7673 3.1584, 1.065 0.7925 3.1719, 1.065 0.783 3.1521, 1.065 0.8121 3.1585, 1.065 0.7944 3.1442, 1.065 0.8186 3.1521, 1.065 0.7996 3.1391, 1.065 0.8302 3.1359, 1.065 0.8068 3.1287, 1.065 0.8372 3.118, 1.065 0.8121 3.1151, 1.065 0.8403 3.0922, 1.065 0.8149 3.0916, 1.065 0.8397 3.0803, 1.065 0.8141 3.0776, 1.065 0.8352 3.0585, 1.065 0.8101 3.061, 1.065 0.826 3.0391, 1.065 0.8034 3.0474, 1.065 0.795 3.0372, 1.061 0.7396 2.9964, 1.061 0.6882 2.9964, 1.061 0.7714 3.0003, 1.061 0.7927 3.0086, 1.061 0.8121 3.0226, 1.061 0.826 3.0391, 1.061 0.8352 3.0585, 1.061 0.8397 3.0803, 1.061 0.8403 3.0922, 1.061 0.8372 3.118, 1.061 0.8302 3.1359, 1.061 0.8186 3.1521, 1.061 0.8121 3.1585, 1.061 0.7925 3.1719, 1.061 0.77 3.1801, 1.061 0.7415 3.1833, 1.061 0.6882 3.1833, 1.061 0.7405 3.1618, 1.061 0.7123 3.1618, 1.061 0.7123 3.0177, 1.061 0.7394 3.0177, 1.061 0.795 3.0372, 1.061 0.7929 3.0352, 1.061 0.7808 3.0269, 1.061 0.7654 3.0209, 1.061 0.8149 3.0916, 1.061 0.8141 3.0776, 1.061 0.8101 3.061, 1.061 0.8034 3.0474, 1.061 0.7944 3.1442, 1.061 0.7996 3.1391, 1.061 0.8068 3.1287, 1.061 0.8121 3.1151, 1.061 0.7477 3.1616, 1.061 0.7673 3.1584, 1.061 0.783 3.1521
            ]
        }
        coordIndex [
            0,1,2,-1,3,4,5,-1,3,5,6,-1,6,5,7,-1,6,7,2,-1,2,7,8,-1,2,8,0,-1,9,1,10,-1,10,1,0,-1,9,10,11,-1,11,10,12,-1,13,14,15,-1,15,14,11,-1,15,11,16,-1,16,11,12,-1,14,13,17,-1,17,13,18,-1,18,19,17,-1,17,19,20,-1,17,20,21,-1,21,20,22,-1,21,22,23,-1,23,22,24,-1,23,24,25,-1,25,24,26,-1,25,26,27,-1,27,26,28,-1,27,28,29,-1,29,28,30,-1,29,30,31,-1,31,30,32,-1,31,32,33,-1,33,32,34,-1,33,34,35,-1,35,34,36,-1,35,36,37,-1,37,36,38,-1,37,38,39,-1,39,38,40,-1,39,40,41,-1,41,40,42,-1,41,42,43,-1,43,42,44,-1,43,44,45,-1,45,44,46,-1,45,46,47,-1,47,46,48,-1,47,48,49,-1,49,48,50,-1,49,50,51,-1,51,50,52,-1,51,52,53,-1,53,52,54,-1,53,54,55,-1,55,54,56,-1,55,56,57,-1,57,56,58,-1,57,58,59,-1,59,58,60,-1,59,60,61,-1,61,60,62,-1,61,62,63,-1,63,62,64,-1,63,64,65,-1,65,64,66,-1,65,66,67,-1,67,66,68,-1,67,68,69,-1,69,68,70,-1,69,70,71,-1,71,70,72,-1,71,72,73,-1,73,72,74,-1,73,74,75,-1,76,75,77,-1,77,75,74,-1,76,77,78,-1,76,78,79,-1,79,78,80,-1,79,80,81,-1,81,80,82,-1,81,82,83,-1,83,82,84,-1,83,84,85,-1,85,84,86,-1,85,86,87,-1,87,86,88,-1,88,86,89,-1,89,90,88,-1,88,90,91,-1,88,91,92,-1,92,91,93,-1,92,93,94,-1,94,93,95,-1,94,95,96,-1,96,95,97,-1,96,97,98,-1,98,97,99,-1,98,99,100,-1,100,99,101,-1,100,101,102,-1,103,104,105,-1,102,101,106,-1,102,106,107,-1,107,106,108,-1,107,108,105,-1,105,108,109,-1,105,109,103,-1,104,103,110,-1,104,110,111,-1,111,110,112,-1,111,112,113,-1,113,112,114,-1,113,114,115,-1,115,114,116,-1,115,116,117,-1,117,116,118,-1,117,118,119,-1,119,118,120,-1,119,120,121,-1,121,120,122,-1,121,122,123,-1,123,122,124,-1,123,124,125,-1,125,124,126,-1,125,126,127,-1,127,126,128,-1,127,128,129,-1,129,128,130,-1,129,130,131,-1,131,130,132,-1,131,132,133,-1,133,132,134,-1,133,134,135,-1,135,134,4,-1,135,4,3,-1,61,63,85,-1,85,63,83,-1,111,43,104,-1,104,43,45,-1,21,23,127,-1,127,23,25,-1,127,25,125,-1,125,25,27,-1,125,27,123,-1,123,27,29,-1,123,29,121,-1,121,29,31,-1,121,31,119,-1,119,31,33,-1,119,33,117,-1,117,33,35,-1,117,35,115,-1,115,35,37,-1,115,37,113,-1,113,37,39,-1,113,39,111,-1,111,39,41,-1,111,41,43,-1,14,3,11,-1,11,3,6,-1,11,6,9,-1,9,6,2,-1,9,2,1,-1,63,65,83,-1,83,65,67,-1,83,67,81,-1,81,67,69,-1,81,69,79,-1,79,69,71,-1,79,71,76,-1,76,71,73,-1,76,73,75,-1,127,129,21,-1,21,129,131,-1,21,131,17,-1,17,131,133,-1,17,133,14,-1,14,133,135,-1,14,135,3,-1,85,87,61,-1,61,87,88,-1,61,88,59,-1,59,88,92,-1,59,92,57,-1,57,92,94,-1,57,94,55,-1,55,94,96,-1,55,96,53,-1,53,96,98,-1,53,98,51,-1,51,98,100,-1,51,100,49,-1,49,100,102,-1,49,102,47,-1,47,102,107,-1,47,107,45,-1,45,107,105,-1,45,105,104,-1,136,137,138,-1,138,137,139,-1,140,136,141,-1,141,136,138,-1,140,141,142,-1,140,142,143,-1,143,142,144,-1,143,144,145,-1,146,145,147,-1,147,145,144,-1,148,146,149,-1,149,146,147,-1,150,151,152,-1,152,151,148,-1,152,148,149,-1,153,151,154,-1,154,151,150,-1,155,156,157,-1,157,156,153,-1,157,153,154,-1,158,159,160,-1,160,159,156,-1,160,156,155,-1,158,161,159,-1,159,161,162,-1,161,163,162,-1,162,163,164,-1,162,164,165,-1,165,164,166,-1,165,166,167,-1,167,166,168,-1,167,168,169,-1,169,168,170,-1,169,170,171,-1,171,170,172,-1,171,172,173,-1,173,172,174,-1,173,174,175,-1,176,175,177,-1,177,175,174,-1,176,177,178,-1,176,178,179,-1,179,178,180,-1,179,180,181,-1,181,180,182,-1,181,182,183,-1,183,182,184,-1,183,184,185,-1,184,186,185,-1,185,186,187,-1,185,187,188,-1,188,187,189,-1,188,189,190,-1,190,189,191,-1,190,191,192,-1,192,191,193,-1,192,193,194,-1,139,137,195,-1,195,137,194,-1,195,194,193,-1,143,145,194,-1,137,136,194,-1,194,136,140,-1,194,140,143,-1,151,153,148,-1,148,153,156,-1,148,156,146,-1,175,176,173,-1,173,176,179,-1,173,179,171,-1,171,179,181,-1,171,181,169,-1,169,181,183,-1,169,183,167,-1,167,183,185,-1,167,185,165,-1,145,146,194,-1,194,146,156,-1,194,156,192,-1,156,159,192,-1,192,159,162,-1,192,162,190,-1,190,162,165,-1,190,165,188,-1,188,165,185,-1,196,197,198,-1,198,197,199,-1,200,201,202,-1,202,201,196,-1,202,196,198,-1,203,201,204,-1,204,201,200,-1,205,206,207,-1,207,206,203,-1,207,203,204,-1,208,206,209,-1,209,206,205,-1,210,211,212,-1,212,211,208,-1,212,208,209,-1,213,211,214,-1,214,211,210,-1,215,216,217,-1,217,216,213,-1,217,213,214,-1,218,216,219,-1,219,216,215,-1,220,221,222,-1,222,221,218,-1,222,218,219,-1,223,221,224,-1,224,221,220,-1,199,197,225,-1,225,197,223,-1,225,223,224,-1,223,197,196,-1,196,201,223,-1,223,201,203,-1,223,203,221,-1,216,218,213,-1,213,218,221,-1,213,221,211,-1,211,221,203,-1,211,203,208,-1,208,203,206,-1,226,227,228,-1,228,227,229,-1,228,229,230,-1,230,229,231,-1,230,231,232,-1,232,231,233,-1,232,233,234,-1,234,233,235,-1,234,235,236,-1,236,235,237,-1,236,237,238,-1,237,239,238,-1,238,239,240,-1,238,240,241,-1,241,240,242,-1,241,242,243,-1,243,242,244,-1,243,244,245,-1,245,244,246,-1,245,246,247,-1,247,246,248,-1,247,248,249,-1,249,248,250,-1,249,250,251,-1,251,250,252,-1,251,252,253,-1,253,252,254,-1,253,254,255,-1,255,254,256,-1,255,256,257,-1,257,256,258,-1,257,258,259,-1,259,258,260,-1,259,260,226,-1,226,260,261,-1,226,261,227,-1,232,234,262,-1,262,234,263,-1,232,262,264,-1,232,264,230,-1,230,264,265,-1,230,265,228,-1,228,265,266,-1,228,266,226,-1,226,266,267,-1,226,267,259,-1,259,267,268,-1,259,268,257,-1,257,268,269,-1,257,269,255,-1,255,269,270,-1,255,270,253,-1,253,270,271,-1,253,271,251,-1,251,271,272,-1,251,272,249,-1,249,272,273,-1,249,273,247,-1,247,273,274,-1,247,274,245,-1,245,274,275,-1,245,275,243,-1,243,275,276,-1,243,276,241,-1,241,276,277,-1,241,277,238,-1,236,238,278,-1,278,238,277,-1,234,236,263,-1,263,236,278,-1,239,237,279,-1,279,237,280,-1,237,235,280,-1,280,235,281,-1,235,233,281,-1,281,233,282,-1,261,283,284,-1,261,284,227,-1,227,284,285,-1,227,285,229,-1,229,285,286,-1,229,286,231,-1,231,286,282,-1,231,282,233,-1,254,287,288,-1,254,288,256,-1,256,288,289,-1,256,289,258,-1,258,289,290,-1,258,290,260,-1,260,290,283,-1,260,283,261,-1,246,291,292,-1,246,292,248,-1,248,292,293,-1,248,293,250,-1,250,293,294,-1,250,294,252,-1,252,294,287,-1,252,287,254,-1,239,279,295,-1,239,295,240,-1,240,295,296,-1,240,296,242,-1,242,296,297,-1,242,297,244,-1,244,297,291,-1,244,291,246,-1,
        ]
    }
}
Shape{
    appearance Appearance {
        material  Material {
            diffuseColor 1.0 1.0 1.0
            specularColor 0.5019607843137255 0.5019607843137255 0.5019607843137255
            ambientIntensity 1.0
            transparency 0.0
            shininess 0.5
        }
    }
    geometry IndexedFaceSet {
        ccw TRUE
        solid FALSE
        coord DEF co Coordinate {
            point [
                1.061 0.7405 3.1618, 1.061 0.7123 3.1618, 1.061 0.7123 3.0177, 1.061 0.8101 3.061, 1.061 0.8141 3.0776, 1.061 0.7477 3.1616, 1.061 0.7394 3.0177, 1.061 0.7654 3.0209, 1.061 0.7808 3.0269, 1.061 0.7929 3.0352, 1.061 0.795 3.0372, 1.061 0.8034 3.0474, 1.061 0.7944 3.1442, 1.061 0.8149 3.0916, 1.061 0.783 3.1521, 1.061 0.7673 3.1584, 1.061 0.8121 3.1151, 1.061 0.8068 3.1287, 1.061 0.7996 3.1391
            ]
        }
        coordIndex [
            0,1,2,-1,3,4,5,-1,2,6,0,-1,0,6,7,-1,0,7,8,-1,8,9,0,-1,0,9,10,-1,0,10,5,-1,5,10,11,-1,5,11,3,-1,12,4,13,-1,12,14,4,-1,4,14,15,-1,4,15,5,-1,16,17,13,-1,13,17,18,-1,13,18,12,-1,
        ]
    }
}
Shape{
    appearance Appearance {
        material  Material {
            diffuseColor 0.0 0.0 0.0
            specularColor 0.0 0.0 0.0
            ambientIntensity 0.0
            transparency 0.0
            shininess 0.5
        }
    }
    geometry IndexedFaceSet {
        ccw TRUE
        solid FALSE
        coord DEF co Coordinate {
            point [
                1.065 0.9029 3.0686, 1.065 0.8953 3.0475, 1.065 0.9656 3.0686, 1.065 0.9731 3.0475, 1.065 0.9308 3.1463, 1.065 0.9218 3.1833, 1.065 0.8506 2.9964, 1.065 0.8773 2.9964, 1.065 0.9325 3.1519, 1.065 0.9339 3.1594, 1.065 0.9476 3.1833, 1.065 0.9345 3.1594, 1.065 0.936 3.1515, 1.065 0.9374 3.1463, 1.065 1.0188 2.9964, 1.065 0.9921 2.9964, 1.061 0.9476 3.1833, 1.061 1.0188 2.9964, 1.061 0.9218 3.1833, 1.061 0.8506 2.9964, 1.061 0.8773 2.9964, 1.061 0.8953 3.0475, 1.061 0.9731 3.0475, 1.061 0.9921 2.9964, 1.061 0.9029 3.0686, 1.061 0.9656 3.0686, 1.061 0.9374 3.1463, 1.061 0.9345 3.1594, 1.061 0.936 3.1515, 1.061 0.9339 3.1594, 1.061 0.9308 3.1463, 1.061 0.9325 3.1519
            ]
        }
        coordIndex [
            0,1,2,-1,2,1,3,-1,4,5,0,-1,0,5,6,-1,0,6,1,-1,1,6,7,-1,4,8,5,-1,5,8,9,-1,5,9,10,-1,10,9,11,-1,10,11,12,-1,12,13,10,-1,10,13,2,-1,10,2,14,-1,14,2,3,-1,14,3,15,-1,10,14,16,-1,16,14,17,-1,5,10,18,-1,18,10,16,-1,6,5,19,-1,19,5,18,-1,7,6,20,-1,20,6,19,-1,1,7,21,-1,21,7,20,-1,3,1,22,-1,22,1,21,-1,15,3,23,-1,23,3,22,-1,14,15,17,-1,17,15,23,-1,0,2,24,-1,24,2,25,-1,2,13,25,-1,25,13,26,-1,11,27,28,-1,11,28,12,-1,12,28,26,-1,12,26,13,-1,11,9,27,-1,27,9,29,-1,4,30,31,-1,4,31,8,-1,8,31,29,-1,8,29,9,-1,4,0,30,-1,30,0,24,-1,
        ]
    }
}
Shape{
    appearance Appearance {
        material  Material {
            diffuseColor 1.0 1.0 1.0
            specularColor 0.5019607843137255 0.5019607843137255 0.5019607843137255
            ambientIntensity 1.0
            transparency 0.0
            shininess 0.5
        }
    }
    geometry IndexedFaceSet {
        ccw TRUE
        solid FALSE
        coord DEF co Coordinate {
            point [
                1.061 0.9345 3.1594, 1.061 0.9339 3.1594, 1.061 0.936 3.1515, 1.061 0.9325 3.1519, 1.061 0.9374 3.1463, 1.061 0.9308 3.1463, 1.061 0.9656 3.0686, 1.061 0.9029 3.0686
            ]
        }
        coordIndex [
            0,1,2,-1,2,1,3,-1,2,3,4,-1,4,3,5,-1,4,5,6,-1,6,5,7,-1,
        ]
    }
}
Shape{
    appearance Appearance {
        material  Material {
            diffuseColor 0.0 0.0 0.0
            specularColor 0.0 0.0 0.0
            ambientIntensity 0.0
            transparency 0.0
            shininess 0.5
        }
    }
    geometry IndexedFaceSet {
        ccw TRUE
        solid FALSE
        coord DEF co Coordinate {
            point [
                1.065 -0.7901 2.97, 1.065 -0.7704 2.9456, 1.065 -0.8021 3.0874, 1.065 -0.3227 3.3209, 1.065 -0.3146 3.284, 1.065 -0.2495 3.3558, 1.065 -0.8251 3.3183, 1.065 -0.7955 3.334, 1.065 -0.8005 3.4162, 1.065 -0.5686 2.9648, 1.065 -0.5529 2.9944, 1.065 -0.5451 3.0272, 1.065 -0.7503 3.4222, 1.065 -0.3584 3.1525, 1.065 -0.3996 3.2229, 1.065 -0.5444 3.0542, 1.065 -0.5776 3.1299, 1.065 -0.5444 3.0409, 1.065 -0.6155 2.9234, 1.065 -0.589 2.9418, 1.065 -0.6307 3.0594, 1.065 -0.6273 3.0472, 1.065 -0.627 3.0343, 1.065 -0.6301 3.0215, 1.065 -0.6361 3.01, 1.065 -0.831 3.1052, 1.065 -0.823 3.0044, 1.065 -0.8034 2.9984, 1.065 -0.7117 2.9998, 1.065 -0.7008 2.9929, 1.065 -0.7444 2.926, 1.065 -0.6884 2.9888, 1.065 -0.304 3.284, 1.065 -0.2787 3.2809, 1.065 -0.2429 3.3535, 1.065 -0.2556 3.272, 1.065 -0.2034 3.3339, 1.065 -0.1674 3.3034, 1.065 -0.5928 3.4262, 1.065 -0.6613 3.478, 1.065 -0.6285 3.4001, 1.065 -0.6925 3.4512, 1.065 -0.6583 3.3645, 1.065 -0.7198 3.4195, 1.065 -0.6786 3.3226, 1.065 -0.7627 3.3418, 1.065 -0.749 3.3425, 1.065 -0.735 3.4213, 1.065 -0.718 3.3387, 1.065 -0.6882 3.3278, 1.065 -0.7298 3.032, 1.065 -0.7265 3.0199, 1.065 -0.7205 3.0092, 1.065 -0.7138 2.9131, 1.065 -0.6824 2.9082, 1.065 -0.6786 2.9878, 1.065 -0.6772 2.9081, 1.065 -0.6666 2.9892, 1.065 -0.6451 2.9121, 1.065 -0.655 2.9935, 1.065 -0.6447 3.0004, 1.065 -0.1672 3.0556, 1.065 -0.2291 3.1082, 1.065 -0.2033 3.0249, 1.065 -0.2488 3.0922, 1.065 -0.2439 3.0051, 1.065 -0.2722 3.0814, 1.065 -0.288 2.9958, 1.065 -0.296 3.0768, 1.065 -0.3664 2.9958, 1.065 -0.3558 3.0768, 1.065 -0.3739 2.997, 1.065 -0.8779 3.2418, 1.065 -0.965 3.2217, 1.065 -0.8818 3.2096, 1.065 -0.9655 3.207, 1.065 -0.8802 3.1893, 1.065 -0.9596 3.1571, 1.065 -0.8707 3.1568, 1.065 -0.9411 3.1075, 1.065 -0.8549 3.1297, 1.065 -0.9097 3.0622, 1.065 -0.8707 3.0285, 1.065 -0.235 3.2576, 1.065 -0.2196 3.2404, 1.065 -0.1403 3.2656, 1.065 -0.2072 3.2175, 1.065 -0.1241 3.225, 1.065 -0.201 3.192, 1.065 -0.118 3.1817, 1.065 -0.2004 3.1804, 1.065 -0.1241 3.1343, 1.065 -0.2036 3.1546, 1.065 -0.1408 3.0922, 1.065 -0.2127 3.1309, 1.065 -0.2273 3.1102, 1.065 -0.8498 3.3977, 1.065 -0.8924 3.3684, 1.065 -0.8481 3.2979, 1.065 -0.9031 3.3584, 1.065 -0.8665 3.2714, 1.065 -0.934 3.3191, 1.065 -0.9556 3.2716, 1.065 -0.3432 3.3637, 1.065 -0.2734 3.4038, 1.065 -0.3731 3.3995, 1.065 -0.3155 3.4553, 1.065 -0.3766 3.4027, 1.065 -0.3213 3.4607, 1.065 -0.4139 3.4286, 1.065 -0.3805 3.5005, 1.065 -0.4556 3.4445, 1.065 -0.4472 3.524, 1.065 -0.5006 3.4501, 1.065 -0.5019 3.5298, 1.065 -0.5494 3.4438, 1.065 -0.5582 3.5239, 1.065 -0.6201 3.5025, 1.065 -0.7301 3.045, 1.065 -0.7271 3.0578, 1.065 -0.7874 3.116, 1.065 -0.721 3.0694, 1.065 -0.7654 3.1411, 1.065 -0.7127 3.0786, 1.065 -0.7383 3.16, 1.065 -0.7021 3.0857, 1.065 -0.7089 3.1712, 1.065 -0.6905 3.09, 1.065 -0.6772 3.1751, 1.065 -0.6786 3.0914, 1.065 -0.6611 3.1741, 1.065 -0.6689 3.0905, 1.065 -0.629 3.1662, 1.065 -0.6564 3.0864, 1.065 -0.6008 3.1511, 1.065 -0.6455 3.0795, 1.065 -0.6367 3.0701, 1.065 -0.3625 3.078, 1.065 -0.3944 3.0097, 1.065 -0.3913 3.0066, 1.065 -0.3585 3.0772, 1.065 -0.3827 3.0004, 1.065 -0.4049 3.037, 1.065 -0.4037 3.0271, 1.065 -0.4002 3.0181, 1.065 -0.3741 3.0768, 1.065 -0.3832 3.0732, 1.065 -0.4046 3.0422, 1.065 -0.3913 3.0674, 1.065 -0.3968 3.0614, 1.065 -0.4019 3.0523, 1.065 -0.3638 3.0781, 1.061 -0.118 3.1817, 1.061 -0.1241 3.225, 1.061 -0.1587 3.2912, 1.061 -0.1286 3.2365, 1.061 -0.1403 3.2656, 1.061 -0.1674 3.3034, 1.061 -0.2034 3.3339, 1.061 -0.2429 3.3535, 1.061 -0.2495 3.3558, 1.061 -0.2734 3.4038, 1.061 -0.3155 3.4553, 1.061 -0.3213 3.4607, 1.061 -0.3518 3.4812, 1.061 -0.3805 3.5005, 1.061 -0.4472 3.524, 1.061 -0.5019 3.5298, 1.061 -0.5582 3.5239, 1.061 -0.6201 3.5025, 1.061 -0.6558 3.4812, 1.061 -0.6613 3.478, 1.061 -0.6925 3.4512, 1.061 -0.7198 3.4195, 1.061 -0.735 3.4213, 1.061 -0.7503 3.4222, 1.061 -0.8005 3.4162, 1.061 -0.8498 3.3977, 1.061 -0.8924 3.3684, 1.061 -0.9031 3.3584, 1.061 -0.9655 3.207, 1.061 -0.934 3.3191, 1.061 -0.9467 3.2912, 1.061 -0.9556 3.2716, 1.061 -0.9622 3.2365, 1.061 -0.965 3.2217, 1.061 -0.9596 3.1571, 1.061 -0.9411 3.1075, 1.061 -0.9097 3.0622, 1.061 -0.8707 3.0285, 1.061 -0.823 3.0044, 1.061 -0.8034 2.9984, 1.061 -0.8018 2.9949, 1.061 -0.7901 2.97, 1.061 -0.7704 2.9456, 1.061 -0.7444 2.926, 1.061 -0.7322 2.9208, 1.061 -0.7138 2.9131, 1.061 -0.6824 2.9082, 1.061 -0.6772 2.9081, 1.061 -0.5444 3.0409, 1.061 -0.6451 2.9121, 1.061 -0.6222 2.9208, 1.061 -0.6155 2.9234, 1.061 -0.589 2.9418, 1.061 -0.5686 2.9648, 1.061 -0.5529 2.9944, 1.061 -0.5528 2.9949, 1.061 -0.5451 3.0272, 1.061 -0.5444 3.0542, 1.061 -0.3584 3.1525, 1.061 -0.3996 3.2229, 1.061 -0.5776 3.1299, 1.061 -0.6008 3.1511, 1.061 -0.629 3.1662, 1.061 -0.6611 3.1741, 1.061 -0.6772 3.1751, 1.061 -0.7089 3.1712, 1.061 -0.7383 3.16, 1.061 -0.7654 3.1411, 1.061 -0.7874 3.116, 1.061 -0.8021 3.0874, 1.061 -0.831 3.1052, 1.061 -0.8549 3.1297, 1.061 -0.8707 3.1568, 1.061 -0.8802 3.1893, 1.061 -0.8818 3.2096, 1.061 -0.8785 3.2365, 1.061 -0.8779 3.2418, 1.061 -0.8665 3.2714, 1.061 -0.8527 3.2912, 1.061 -0.8481 3.2979, 1.061 -0.8251 3.3183, 1.061 -0.7955 3.334, 1.061 -0.7627 3.3418, 1.061 -0.749 3.3425, 1.061 -0.718 3.3387, 1.061 -0.6882 3.3278, 1.061 -0.6786 3.3226, 1.061 -0.6583 3.3645, 1.061 -0.6285 3.4001, 1.061 -0.5928 3.4262, 1.061 -0.5494 3.4438, 1.061 -0.5006 3.4501, 1.061 -0.4556 3.4445, 1.061 -0.4139 3.4286, 1.061 -0.3766 3.4027, 1.061 -0.3731 3.3995, 1.061 -0.3432 3.3637, 1.061 -0.3227 3.3209, 1.061 -0.3162 3.2912, 1.061 -0.3146 3.284, 1.061 -0.304 3.284, 1.061 -0.2787 3.2809, 1.061 -0.2556 3.272, 1.061 -0.235 3.2576, 1.061 -0.2196 3.2404, 1.061 -0.2174 3.2365, 1.061 -0.2072 3.2175, 1.061 -0.201 3.192, 1.061 -0.2004 3.1804, 1.061 -0.2036 3.1546, 1.061 -0.2127 3.1309, 1.061 -0.2273 3.1102, 1.061 -0.2291 3.1082, 1.061 -0.2488 3.0922, 1.061 -0.2722 3.0814, 1.061 -0.296 3.0768, 1.061 -0.3558 3.0768, 1.061 -0.3585 3.0772, 1.061 -0.3625 3.078, 1.061 -0.3638 3.0781, 1.061 -0.3741 3.0768, 1.061 -0.3832 3.0732, 1.061 -0.3913 3.0674, 1.061 -0.3968 3.0614, 1.061 -0.4019 3.0523, 1.061 -0.4046 3.0422, 1.061 -0.4049 3.037, 1.061 -0.4037 3.0271, 1.061 -0.4002 3.0181, 1.061 -0.3944 3.0097, 1.061 -0.3913 3.0066, 1.061 -0.3827 3.0004, 1.061 -0.3739 2.997, 1.061 -0.3664 2.9958, 1.061 -0.288 2.9958, 1.061 -0.2439 3.0051, 1.061 -0.2033 3.0249, 1.061 -0.1672 3.0556, 1.061 -0.1408 3.0922, 1.061 -0.1241 3.1343, 1.061 -0.6786 3.0914, 1.061 -0.6689 3.0905, 1.061 -0.6564 3.0864, 1.061 -0.6455 3.0795, 1.061 -0.6367 3.0701, 1.061 -0.6307 3.0594, 1.061 -0.6273 3.0472, 1.061 -0.627 3.0343, 1.061 -0.6301 3.0215, 1.061 -0.6361 3.01, 1.061 -0.6447 3.0004, 1.061 -0.655 2.9935, 1.061 -0.6666 2.9892, 1.061 -0.6786 2.9878, 1.061 -0.6884 2.9888, 1.061 -0.7008 2.9929, 1.061 -0.7117 2.9998, 1.061 -0.7205 3.0092, 1.061 -0.7265 3.0199, 1.061 -0.7298 3.032, 1.061 -0.7301 3.045, 1.061 -0.7271 3.0578, 1.061 -0.721 3.0694, 1.061 -0.7127 3.0786, 1.061 -0.7021 3.0857, 1.061 -0.6905 3.09
            ]
        }
        coordIndex [
            0,1,2,-1,3,4,5,-1,6,7,8,-1,9,10,11,-1,8,7,12,-1,13,14,15,-1,15,14,16,-1,15,16,17,-1,17,16,18,-1,17,18,11,-1,11,18,19,-1,11,19,9,-1,20,21,16,-1,16,21,22,-1,16,22,18,-1,18,22,23,-1,18,23,24,-1,25,26,2,-1,2,26,27,-1,2,27,0,-1,28,1,29,-1,29,1,30,-1,29,30,31,-1,4,32,5,-1,5,32,33,-1,5,33,34,-1,34,33,35,-1,34,35,36,-1,36,35,37,-1,38,39,40,-1,40,39,41,-1,40,41,42,-1,42,41,43,-1,42,43,44,-1,7,45,12,-1,12,45,46,-1,12,46,47,-1,47,46,48,-1,47,48,43,-1,43,48,49,-1,43,49,44,-1,50,2,51,-1,51,2,1,-1,51,1,52,-1,52,1,28,-1,30,53,31,-1,31,53,54,-1,31,54,55,-1,55,54,56,-1,55,56,57,-1,57,56,58,-1,57,58,59,-1,59,58,18,-1,59,18,60,-1,60,18,24,-1,61,62,63,-1,63,62,64,-1,63,64,65,-1,65,64,66,-1,65,66,67,-1,67,66,68,-1,67,68,69,-1,69,68,70,-1,69,70,71,-1,72,73,74,-1,74,73,75,-1,74,75,76,-1,76,75,77,-1,76,77,78,-1,78,77,79,-1,78,79,80,-1,80,79,81,-1,80,81,25,-1,25,81,82,-1,25,82,26,-1,35,83,37,-1,37,83,84,-1,37,84,85,-1,85,84,86,-1,85,86,87,-1,87,86,88,-1,87,88,89,-1,89,88,90,-1,89,90,91,-1,91,90,92,-1,91,92,93,-1,93,92,94,-1,93,94,61,-1,61,94,95,-1,61,95,62,-1,8,96,6,-1,6,96,97,-1,6,97,98,-1,98,97,99,-1,98,99,100,-1,100,99,101,-1,100,101,72,-1,72,101,102,-1,72,102,73,-1,3,5,103,-1,103,5,104,-1,103,104,105,-1,105,104,106,-1,105,106,107,-1,107,106,108,-1,107,108,109,-1,109,108,110,-1,109,110,111,-1,111,110,112,-1,111,112,113,-1,113,112,114,-1,113,114,115,-1,115,114,116,-1,115,116,38,-1,38,116,117,-1,38,117,39,-1,50,118,2,-1,2,118,119,-1,2,119,120,-1,120,119,121,-1,120,121,122,-1,122,121,123,-1,122,123,124,-1,124,123,125,-1,124,125,126,-1,126,125,127,-1,126,127,128,-1,128,127,129,-1,128,129,130,-1,130,129,131,-1,130,131,132,-1,132,131,133,-1,132,133,134,-1,134,133,135,-1,134,135,16,-1,16,135,136,-1,16,136,20,-1,137,138,139,-1,70,140,71,-1,71,140,137,-1,71,137,141,-1,141,137,139,-1,142,143,137,-1,137,143,144,-1,137,144,138,-1,145,146,147,-1,146,148,147,-1,147,148,149,-1,147,149,150,-1,142,137,147,-1,147,137,151,-1,147,151,145,-1,89,152,153,-1,154,37,85,-1,89,153,87,-1,87,153,155,-1,87,155,85,-1,85,155,156,-1,85,156,154,-1,154,157,37,-1,37,157,158,-1,37,158,36,-1,36,158,159,-1,36,159,34,-1,34,159,160,-1,34,160,5,-1,5,160,161,-1,5,161,104,-1,104,161,162,-1,104,162,106,-1,106,162,163,-1,106,163,108,-1,110,108,164,-1,164,108,163,-1,164,165,110,-1,110,165,166,-1,110,166,112,-1,112,166,167,-1,112,167,114,-1,114,167,168,-1,114,168,116,-1,116,168,169,-1,116,169,117,-1,117,169,39,-1,39,169,170,-1,39,170,171,-1,39,171,172,-1,39,172,41,-1,41,172,173,-1,41,173,43,-1,43,173,174,-1,43,174,47,-1,47,174,175,-1,47,175,12,-1,12,175,176,-1,12,176,8,-1,8,176,177,-1,8,177,96,-1,96,177,178,-1,96,178,97,-1,97,178,179,-1,97,179,99,-1,180,75,73,-1,99,179,181,-1,99,181,101,-1,101,181,182,-1,101,182,102,-1,182,183,102,-1,102,183,184,-1,102,184,73,-1,73,184,185,-1,73,185,180,-1,75,180,186,-1,75,186,77,-1,77,186,187,-1,77,187,79,-1,79,187,188,-1,79,188,81,-1,81,188,189,-1,81,189,82,-1,82,189,190,-1,82,190,26,-1,26,190,191,-1,26,191,27,-1,27,191,192,-1,27,192,0,-1,192,193,0,-1,0,193,194,-1,0,194,1,-1,1,194,195,-1,1,195,30,-1,30,195,196,-1,30,196,53,-1,196,197,53,-1,53,197,198,-1,53,198,54,-1,54,198,199,-1,54,199,56,-1,200,17,11,-1,56,199,201,-1,202,18,201,-1,201,18,58,-1,201,58,56,-1,202,203,18,-1,18,203,204,-1,18,204,19,-1,19,204,205,-1,19,205,9,-1,9,205,206,-1,9,206,10,-1,10,206,207,-1,10,207,11,-1,11,207,208,-1,11,208,200,-1,15,17,209,-1,209,17,200,-1,13,15,210,-1,210,15,209,-1,14,13,211,-1,211,13,210,-1,16,14,212,-1,212,14,211,-1,16,212,213,-1,16,213,134,-1,134,213,214,-1,134,214,132,-1,132,214,215,-1,132,215,130,-1,130,215,216,-1,130,216,128,-1,128,216,217,-1,128,217,126,-1,126,217,218,-1,126,218,124,-1,124,218,219,-1,124,219,122,-1,122,219,220,-1,122,220,120,-1,120,220,221,-1,120,221,2,-1,2,221,222,-1,2,222,25,-1,25,222,223,-1,25,223,80,-1,80,223,224,-1,80,224,78,-1,78,224,225,-1,78,225,76,-1,76,225,226,-1,76,226,74,-1,72,74,226,-1,226,227,72,-1,72,227,228,-1,72,228,229,-1,230,98,229,-1,229,98,100,-1,229,100,72,-1,230,231,98,-1,98,231,232,-1,98,232,6,-1,6,232,233,-1,6,233,7,-1,7,233,234,-1,7,234,45,-1,45,234,235,-1,45,235,46,-1,46,235,236,-1,46,236,48,-1,48,236,237,-1,48,237,49,-1,49,237,238,-1,49,238,44,-1,44,238,239,-1,44,239,42,-1,42,239,240,-1,42,240,40,-1,40,240,241,-1,40,241,38,-1,38,241,242,-1,38,242,115,-1,115,242,243,-1,115,243,113,-1,113,243,244,-1,113,244,111,-1,111,244,245,-1,111,245,109,-1,109,245,246,-1,109,246,107,-1,107,246,247,-1,107,247,105,-1,105,247,248,-1,105,248,103,-1,103,248,249,-1,103,249,3,-1,3,249,4,-1,4,249,250,-1,4,250,251,-1,32,4,252,-1,252,4,251,-1,32,252,253,-1,32,253,33,-1,33,253,254,-1,33,254,35,-1,35,254,255,-1,35,255,83,-1,83,255,256,-1,83,256,84,-1,84,256,257,-1,84,257,86,-1,257,258,86,-1,86,258,259,-1,86,259,88,-1,88,259,260,-1,88,260,90,-1,90,260,261,-1,90,261,92,-1,92,261,262,-1,92,262,94,-1,94,262,263,-1,94,263,95,-1,95,263,264,-1,95,264,62,-1,62,264,265,-1,62,265,64,-1,64,265,266,-1,64,266,66,-1,66,266,267,-1,66,267,68,-1,70,68,268,-1,268,68,267,-1,70,268,269,-1,70,269,140,-1,140,269,270,-1,140,270,137,-1,137,270,271,-1,137,271,151,-1,151,271,272,-1,151,272,145,-1,145,272,273,-1,145,273,146,-1,146,273,274,-1,146,274,148,-1,148,274,275,-1,148,275,149,-1,149,275,276,-1,149,276,150,-1,150,276,277,-1,150,277,147,-1,147,277,278,-1,147,278,142,-1,142,278,279,-1,142,279,143,-1,143,279,280,-1,143,280,144,-1,144,280,281,-1,144,281,138,-1,138,281,282,-1,138,282,139,-1,139,282,283,-1,139,283,141,-1,141,283,284,-1,141,284,71,-1,71,284,285,-1,71,285,69,-1,67,69,286,-1,286,69,285,-1,67,286,287,-1,67,287,65,-1,65,287,288,-1,65,288,63,-1,63,288,289,-1,63,289,61,-1,61,289,290,-1,61,290,93,-1,93,290,291,-1,93,291,91,-1,91,291,152,-1,91,152,89,-1,129,292,293,-1,129,293,131,-1,131,293,294,-1,131,294,133,-1,133,294,295,-1,133,295,135,-1,135,295,296,-1,135,296,136,-1,136,296,297,-1,136,297,20,-1,20,297,298,-1,20,298,21,-1,21,298,299,-1,21,299,22,-1,22,299,300,-1,22,300,23,-1,23,300,301,-1,23,301,24,-1,24,301,302,-1,24,302,60,-1,60,302,303,-1,60,303,59,-1,59,303,304,-1,59,304,57,-1,57,304,305,-1,57,305,55,-1,55,305,306,-1,55,306,31,-1,31,306,307,-1,31,307,29,-1,29,307,308,-1,29,308,28,-1,28,308,309,-1,28,309,52,-1,52,309,310,-1,52,310,51,-1,51,310,311,-1,51,311,50,-1,50,311,312,-1,50,312,118,-1,118,312,313,-1,118,313,119,-1,119,313,314,-1,119,314,121,-1,121,314,315,-1,121,315,123,-1,123,315,316,-1,123,316,125,-1,125,316,317,-1,125,317,127,-1,127,317,292,-1,127,292,129,-1,
        ]
    }
}
Shape{
    appearance Appearance {
        material  Material {
            diffuseColor 1.0 1.0 1.0
            specularColor 0.5019607843137255 0.5019607843137255 0.5019607843137255
            ambientIntensity 1.0
            transparency 0.0
            shininess 0.5
        }
    }
    geometry IndexedFaceSet {
        ccw TRUE
        solid FALSE
        coord DEF co Coordinate {
            point [
                1.061 -0.6905 3.09, 1.061 -0.6884 2.9888, 1.061 -0.6786 3.0914, 1.061 -0.6786 2.9878, 1.061 -0.6689 3.0905, 1.061 -0.6666 2.9892, 1.061 -0.7127 3.0786, 1.061 -0.7205 3.0092, 1.061 -0.7117 2.9998, 1.061 -0.7021 3.0857, 1.061 -0.7008 2.9929, 1.061 -0.6447 3.0004, 1.061 -0.6367 3.0701, 1.061 -0.6455 3.0795, 1.061 -0.655 2.9935, 1.061 -0.6564 3.0864, 1.061 -0.7271 3.0578, 1.061 -0.7301 3.045, 1.061 -0.721 3.0694, 1.061 -0.7298 3.032, 1.061 -0.7265 3.0199, 1.061 -0.6301 3.0215, 1.061 -0.627 3.0343, 1.061 -0.6361 3.01, 1.061 -0.6273 3.0472, 1.061 -0.6307 3.0594
            ]
        }
        coordIndex [
            0,1,2,-1,2,1,3,-1,2,3,4,-1,4,3,5,-1,6,7,8,-1,0,9,1,-1,1,9,6,-1,1,6,10,-1,10,6,8,-1,11,12,13,-1,5,14,4,-1,4,14,11,-1,4,11,15,-1,15,11,13,-1,16,17,18,-1,18,17,19,-1,18,19,6,-1,6,19,20,-1,6,20,7,-1,21,22,23,-1,23,22,24,-1,23,24,11,-1,11,24,25,-1,11,25,12,-1,
        ]
    }
}