#VRML V2.0 utf8
# 3D model generated by kicad-lcsc-manager
# Based on easyeda2kicad.py v1.0.1

Shape{
    appearance Appearance {
        material  Material {
            diffuseColor 0.7686274509803922 0.7686274509803922 0.7686274509803922
            specularColor 0.615686274509804 0.615686274509804 0.615686274509804
            ambientIntensity 0.7686
            transparency 0.0
            shininess 0.5
        }
    }
    geometry IndexedFaceSet {
        ccw TRUE
        solid FALSE
        coord DEF co Coordinate {
            point [
                -0.8268 -1.1893 0.6702, -0.748 -1.1893 0.6702, -0.748 -1.1983 0.6734, -0.8268 -1.1983 0.6734, -0.748 -1.2063 0.6787, -0.8268 -1.2063 0.6787, -0.748 -1.2127 0.6858, -0.8268 -1.2127 0.6858, -0.748 -1.2173 0.6942, -0.8268 -1.2173 0.6942, -0.748 -1.2197 0.7034, -0.8268 -1.2197 0.7034, -0.748 -1.2198 0.713, -0.8268 -1.2198 0.713, -0.748 -1.2176 0.7223, -0.8268 -1.2176 0.7223, -0.748 -1.2133 0.7308, -0.8268 -1.2133 0.7308, -0.748 -1.207 0.738, -0.8268 -1.207 0.738, -0.748 -1.1991 0.7435, -0.8268 -1.1991 0.7435, -0.748 -1.1902 0.7469, -0.8268 -1.1902 0.7469, -0.748 -1.1807 0.748, -0.8268 -1.1807 0.748, -0.748 0.3154 0.748, -0.8268 0.3154 0.748, -0.8268 0.3154 0.5512, -0.748 0.3154 0.5512, -0.8268 0.335 0.5512, -0.748 0.335 0.5512, -0.8268 0.335 0.4331, -0.748 0.335 0.4331, -0.8268 0.3154 0.4331, -0.748 0.3154 0.4331, -0.8268 0.3154 0.2165, -0.748 0.3154 0.2165, -0.8268 0.3941 0.1378, -0.748 0.3941 0.1378, -0.8268 0.5909 0.1378, -0.748 0.5909 0.1378, -0.8268 0.5909 0.0197, -0.748 0.5909 0.0197, -0.8268 0.3547 0.0197, -0.748 0.3547 0.0197, -0.8268 0.3154 0.0591, -0.748 0.3154 0.0591, -0.8268 0.3154 0.1378, -0.748 0.3154 0.1378, -0.8268 -0.9445 0.1378, -0.748 -0.9445 0.1378, -0.748 -0.9538 0.1389, -0.8268 -0.9538 0.1389, -0.748 -0.9626 0.1422, -0.8268 -0.9626 0.1422, -0.748 -0.9704 0.1475, -0.8268 -0.9704 0.1475, -0.748 -0.9767 0.1545, -0.8268 -0.9767 0.1545, -0.748 -0.9812 0.1628, -0.8268 -0.9812 0.1628, -0.748 -0.9835 0.172, -0.8268 -0.9835 0.172, -0.748 -0.9836 0.1814, -0.8268 -0.9836 0.1814, -0.748 -0.9815 0.1905, -0.8268 -0.9815 0.1905, -0.748 -0.9773 0.199, -0.8268 -0.9773 0.199, -0.748 -0.9712 0.2061, -0.8268 -0.9712 0.2061, -0.8268 -0.8531 0.315, -0.748 -0.8531 0.315, -0.8268 -0.8531 0.2362, -0.748 -0.8531 0.2362, -0.8268 -0.0783 0.2362, -0.748 -0.0783 0.2362, -0.8268 -0.0783 0.2165, -0.748 -0.0783 0.2165, -0.8268 0.1972 0.2165, -0.748 0.1972 0.2165, -0.8268 0.1972 0.6693, -0.748 0.1972 0.6693, -0.8268 -0.787 0.6693, -0.748 -0.787 0.6693, -0.8268 -0.8325 0.5906, -0.748 -0.8325 0.5906, -0.4331 -1.1893 0.6702, -0.3543 -1.1893 0.6702, -0.3543 -1.1983 0.6734, -0.4331 -1.1983 0.6734, -0.3543 -1.2063 0.6787, -0.4331 -1.2063 0.6787, -0.3543 -1.2127 0.6858, -0.4331 -1.2127 0.6858, -0.3543 -1.2173 0.6942, -0.4331 -1.2173 0.6942, -0.3543 -1.2197 0.7034, -0.4331 -1.2197 0.7034, -0.3543 -1.2198 0.713, -0.4331 -1.2198 0.713, -0.3543 -1.2176 0.7223, -0.4331 -1.2176 0.7223, -0.3543 -1.2133 0.7308, -0.4331 -1.2133 0.7308, -0.3543 -1.207 0.738, -0.4331 -1.207 0.738, -0.3543 -1.1991 0.7435, -0.4331 -1.1991 0.7435, -0.3543 -1.1902 0.7469, -0.4331 -1.1902 0.7469, -0.3543 -1.1807 0.748, -0.4331 -1.1807 0.748, -0.3543 0.3154 0.748, -0.4331 0.3154 0.748, -0.4331 0.3154 0.5512, -0.3543 0.3154 0.5512, -0.4331 0.335 0.5512, -0.3543 0.335 0.5512, -0.4331 0.335 0.4331, -0.3543 0.335 0.4331, -0.4331 0.3154 0.4331, -0.3543 0.3154 0.4331, -0.4331 0.3154 0.2165, -0.3543 0.3154 0.2165, -0.4331 0.3941 0.1378, -0.3543 0.3941 0.1378, -0.4331 0.5909 0.1378, -0.3543 0.5909 0.1378, -0.4331 0.5909 0.0197, -0.3543 0.5909 0.0197, -0.4331 0.3547 0.0197, -0.3543 0.3547 0.0197, -0.4331 0.3154 0.0591, -0.3543 0.3154 0.0591, -0.4331 0.3154 0.1378, -0.3543 0.3154 0.1378, -0.4331 -0.9445 0.1378, -0.3543 -0.9445 0.1378, -0.3543 -0.9538 0.1389, -0.4331 -0.9538 0.1389, -0.3543 -0.9626 0.1422, -0.4331 -0.9626 0.1422, -0.3543 -0.9704 0.1475, -0.4331 -0.9704 0.1475, -0.3543 -0.9767 0.1545, -0.4331 -0.9767 0.1545, -0.3543 -0.9812 0.1628, -0.4331 -0.9812 0.1628, -0.3543 -0.9835 0.172, -0.4331 -0.9835 0.172, -0.3543 -0.9836 0.1814, -0.4331 -0.9836 0.1814, -0.3543 -0.9815 0.1905, -0.4331 -0.9815 0.1905, -0.3543 -0.9773 0.199, -0.4331 -0.9773 0.199, -0.3543 -0.9712 0.2061, -0.4331 -0.9712 0.2061, -0.4331 -0.8531 0.315, -0.3543 -0.8531 0.315, -0.4331 -0.8531 0.2362, -0.3543 -0.8531 0.2362, -0.4331 -0.0783 0.2362, -0.3543 -0.0783 0.2362, -0.4331 -0.0783 0.2165, -0.3543 -0.0783 0.2165, -0.4331 0.1972 0.2165, -0.3543 0.1972 0.2165, -0.4331 0.1972 0.6693, -0.3543 0.1972 0.6693, -0.4331 -0.787 0.6693, -0.3543 -0.787 0.6693, -0.4331 -0.8325 0.5906, -0.3543 -0.8325 0.5906, -0.0394 -1.1893 0.6702, 0.0394 -1.1893 0.6702, 0.0394 -1.1983 0.6734, -0.0394 -1.1983 0.6734, 0.0394 -1.2063 0.6787, -0.0394 -1.2063 0.6787, 0.0394 -1.2127 0.6858, -0.0394 -1.2127 0.6858, 0.0394 -1.2173 0.6942, -0.0394 -1.2173 0.6942, 0.0394 -1.2197 0.7034, -0.0394 -1.2197 0.7034, 0.0394 -1.2198 0.713, -0.0394 -1.2198 0.713, 0.0394 -1.2176 0.7223, -0.0394 -1.2176 0.7223, 0.0394 -1.2133 0.7308, -0.0394 -1.2133 0.7308, 0.0394 -1.207 0.738, -0.0394 -1.207 0.738, 0.0394 -1.1991 0.7435, -0.0394 -1.1991 0.7435, 0.0394 -1.1902 0.7469, -0.0394 -1.1902 0.7469, 0.0394 -1.1807 0.748, -0.0394 -1.1807 0.748, 0.0394 0.3154 0.748, -0.0394 0.3154 0.748, -0.0394 0.3154 0.5512, 0.0394 0.3154 0.5512, -0.0394 0.335 0.5512, 0.0394 0.335 0.5512, -0.0394 0.335 0.4331, 0.0394 0.335 0.4331, -0.0394 0.3154 0.4331, 0.0394 0.3154 0.4331, -0.0394 0.3154 0.2165, 0.0394 0.3154 0.2165, -0.0394 0.3941 0.1378, 0.0394 0.3941 0.1378, -0.0394 0.5909 0.1378, 0.0394 0.5909 0.1378, -0.0394 0.5909 0.0197, 0.0394 0.5909 0.0197, -0.0394 0.3547 0.0197, 0.0394 0.3547 0.0197, -0.0394 0.3154 0.0591, 0.0394 0.3154 0.0591, -0.0394 0.3154 0.1378, 0.0394 0.3154 0.1378, -0.0394 -0.9445 0.1378, 0.0394 -0.9445 0.1378, 0.0394 -0.9538 0.1389, -0.0394 -0.9538 0.1389, 0.0394 -0.9626 0.1422, -0.0394 -0.9626 0.1422, 0.0394 -0.9704 0.1475, -0.0394 -0.9704 0.1475, 0.0394 -0.9767 0.1545, -0.0394 -0.9767 0.1545, 0.0394 -0.9812 0.1628, -0.0394 -0.9812 0.1628, 0.0394 -0.9835 0.172, -0.0394 -0.9835 0.172, 0.0394 -0.9836 0.1814, -0.0394 -0.9836 0.1814, 0.0394 -0.9815 0.1905, -0.0394 -0.9815 0.1905, 0.0394 -0.9773 0.199, -0.0394 -0.9773 0.199, 0.0394 -0.9712 0.2061, -0.0394 -0.9712 0.2061, -0.0394 -0.8531 0.315, 0.0394 -0.8531 0.315, -0.0394 -0.8531 0.2362, 0.0394 -0.8531 0.2362, -0.0394 -0.0783 0.2362, 0.0394 -0.0783 0.2362, -0.0394 -0.0783 0.2165, 0.0394 -0.0783 0.2165, -0.0394 0.1972 0.2165, 0.0394 0.1972 0.2165, -0.0394 0.1972 0.6693, 0.0394 0.1972 0.6693, -0.0394 -0.787 0.6693, 0.0394 -0.787 0.6693, -0.0394 -0.8325 0.5906, 0.0394 -0.8325 0.5906, 0.3543 -1.1893 0.6702, 0.4331 -1.1893 0.6702, 0.4331 -1.1983 0.6734, 0.3543 -1.1983 0.6734, 0.4331 -1.2063 0.6787, 0.3543 -1.2063 0.6787, 0.4331 -1.2127 0.6858, 0.3543 -1.2127 0.6858, 0.4331 -1.2173 0.6942, 0.3543 -1.2173 0.6942, 0.4331 -1.2197 0.7034, 0.3543 -1.2197 0.7034, 0.4331 -1.2198 0.713, 0.3543 -1.2198 0.713, 0.4331 -1.2176 0.7223, 0.3543 -1.2176 0.7223, 0.4331 -1.2133 0.7308, 0.3543 -1.2133 0.7308, 0.4331 -1.207 0.738, 0.3543 -1.207 0.738, 0.4331 -1.1991 0.7435, 0.3543 -1.1991 0.7435, 0.4331 -1.1902 0.7469, 0.3543 -1.1902 0.7469, 0.4331 -1.1807 0.748, 0.3543 -1.1807 0.748, 0.4331 0.3154 0.748, 0.3543 0.3154 0.748, 0.3543 0.3154 0.5512, 0.4331 0.3154 0.5512, 0.3543 0.335 0.5512, 0.4331 0.335 0.5512, 0.3543 0.335 0.4331, 0.4331 0.335 0.4331, 0.3543 0.3154 0.4331, 0.4331 0.3154 0.4331, 0.3543 0.3154 0.2165, 0.4331 0.3154 0.2165, 0.3543 0.3941 0.1378, 0.4331 0.3941 0.1378, 0.3543 0.5909 0.1378, 0.4331 0.5909 0.1378, 0.3543 0.5909 0.0197, 0.4331 0.5909 0.0197, 0.3543 0.3547 0.0197, 0.4331 0.3547 0.0197, 0.3543 0.3154 0.0591, 0.4331 0.3154 0.0591, 0.3543 0.3154 0.1378, 0.4331 0.3154 0.1378, 0.3543 -0.9445 0.1378, 0.4331 -0.9445 0.1378, 0.4331 -0.9538 0.1389, 0.3543 -0.9538 0.1389, 0.4331 -0.9626 0.1422, 0.3543 -0.9626 0.1422, 0.4331 -0.9704 0.1475, 0.3543 -0.9704 0.1475, 0.4331 -0.9767 0.1545, 0.3543 -0.9767 0.1545, 0.4331 -0.9812 0.1628, 0.3543 -0.9812 0.1628, 0.4331 -0.9835 0.172, 0.3543 -0.9835 0.172, 0.4331 -0.9836 0.1814, 0.3543 -0.9836 0.1814, 0.4331 -0.9815 0.1905, 0.3543 -0.9815 0.1905, 0.4331 -0.9773 0.199, 0.3543 -0.9773 0.199, 0.4331 -0.9712 0.2061, 0.3543 -0.9712 0.2061, 0.3543 -0.8531 0.315, 0.4331 -0.8531 0.315, 0.3543 -0.8531 0.2362, 0.4331 -0.8531 0.2362, 0.3543 -0.0783 0.2362, 0.4331 -0.0783 0.2362, 0.3543 -0.0783 0.2165, 0.4331 -0.0783 0.2165, 0.3543 0.1972 0.2165, 0.4331 0.1972 0.2165, 0.3543 0.1972 0.6693, 0.4331 0.1972 0.6693, 0.3543 -0.787 0.6693, 0.4331 -0.787 0.6693, 0.3543 -0.8325 0.5906, 0.4331 -0.8325 0.5906, 0.748 -1.1893 0.6702, 0.8268 -1.1893 0.6702, 0.8268 -1.1983 0.6734, 0.748 -1.1983 0.6734, 0.8268 -1.2063 0.6787, 0.748 -1.2063 0.6787, 0.8268 -1.2127 0.6858, 0.748 -1.2127 0.6858, 0.8268 -1.2173 0.6942, 0.748 -1.2173 0.6942, 0.8268 -1.2197 0.7034, 0.748 -1.2197 0.7034, 0.8268 -1.2198 0.713, 0.748 -1.2198 0.713, 0.8268 -1.2176 0.7223, 0.748 -1.2176 0.7223, 0.8268 -1.2133 0.7308, 0.748 -1.2133 0.7308, 0.8268 -1.207 0.738, 0.748 -1.207 0.738, 0.8268 -1.1991 0.7435, 0.748 -1.1991 0.7435, 0.8268 -1.1902 0.7469, 0.748 -1.1902 0.7469, 0.8268 -1.1807 0.748, 0.748 -1.1807 0.748, 0.8268 0.3154 0.748, 0.748 0.3154 0.748, 0.748 0.3154 0.5512, 0.8268 0.3154 0.5512, 0.748 0.335 0.5512, 0.8268 0.335 0.5512, 0.748 0.335 0.4331, 0.8268 0.335 0.4331, 0.748 0.3154 0.4331, 0.8268 0.3154 0.4331, 0.748 0.3154 0.2165, 0.8268 0.3154 0.2165, 0.748 0.3941 0.1378, 0.8268 0.3941 0.1378, 0.748 0.5909 0.1378, 0.8268 0.5909 0.1378, 0.748 0.5909 0.0197, 0.8268 0.5909 0.0197, 0.748 0.3547 0.0197, 0.8268 0.3547 0.0197, 0.748 0.3154 0.0591, 0.8268 0.3154 0.0591, 0.748 0.3154 0.1378, 0.8268 0.3154 0.1378, 0.748 -0.9445 0.1378, 0.8268 -0.9445 0.1378, 0.8268 -0.9538 0.1389, 0.748 -0.9538 0.1389, 0.8268 -0.9626 0.1422, 0.748 -0.9626 0.1422, 0.8268 -0.9704 0.1475, 0.748 -0.9704 0.1475, 0.8268 -0.9767 0.1545, 0.748 -0.9767 0.1545, 0.8268 -0.9812 0.1628, 0.748 -0.9812 0.1628, 0.8268 -0.9835 0.172, 0.748 -0.9835 0.172, 0.8268 -0.9836 0.1814, 0.748 -0.9836 0.1814, 0.8268 -0.9815 0.1905, 0.748 -0.9815 0.1905, 0.8268 -0.9773 0.199, 0.748 -0.9773 0.199, 0.8268 -0.9712 0.2061, 0.748 -0.9712 0.2061, 0.748 -0.8531 0.315, 0.8268 -0.8531 0.315, 0.748 -0.8531 0.2362, 0.8268 -0.8531 0.2362, 0.748 -0.0783 0.2362, 0.8268 -0.0783 0.2362, 0.748 -0.0783 0.2165, 0.8268 -0.0783 0.2165, 0.748 0.1972 0.2165, 0.8268 0.1972 0.2165, 0.748 0.1972 0.6693, 0.8268 0.1972 0.6693, 0.748 -0.787 0.6693, 0.8268 -0.787 0.6693, 0.748 -0.8325 0.5906, 0.8268 -0.8325 0.5906
            ]
        }
        coordIndex [
            0,1,2,-1,0,2,3,-1,3,2,4,-1,3,4,5,-1,5,4,6,-1,5,6,7,-1,7,6,8,-1,7,8,9,-1,9,8,10,-1,9,10,11,-1,11,10,12,-1,11,12,13,-1,13,12,14,-1,13,14,15,-1,15,14,16,-1,15,16,17,-1,17,16,18,-1,17,18,19,-1,19,18,20,-1,19,20,21,-1,21,20,22,-1,21,22,23,-1,23,22,24,-1,23,24,25,-1,26,27,24,-1,24,27,25,-1,28,27,29,-1,29,27,26,-1,30,28,31,-1,31,28,29,-1,32,30,33,-1,33,30,31,-1,34,32,35,-1,35,32,33,-1,36,34,37,-1,37,34,35,-1,38,36,39,-1,39,36,37,-1,40,38,41,-1,41,38,39,-1,42,40,43,-1,43,40,41,-1,44,42,45,-1,45,42,43,-1,46,44,47,-1,47,44,45,-1,48,46,49,-1,49,46,47,-1,50,48,51,-1,51,48,49,-1,50,51,52,-1,50,52,53,-1,53,52,54,-1,53,54,55,-1,55,54,56,-1,55,56,57,-1,57,56,58,-1,57,58,59,-1,59,58,60,-1,59,60,61,-1,61,60,62,-1,61,62,63,-1,63,62,64,-1,63,64,65,-1,65,64,66,-1,65,66,67,-1,67,66,68,-1,67,68,69,-1,69,68,70,-1,69,70,71,-1,72,71,73,-1,73,71,70,-1,74,72,75,-1,75,72,73,-1,76,74,77,-1,77,74,75,-1,78,76,79,-1,79,76,77,-1,80,78,81,-1,81,78,79,-1,82,80,83,-1,83,80,81,-1,84,82,85,-1,85,82,83,-1,86,84,87,-1,87,84,85,-1,0,86,1,-1,1,86,87,-1,71,72,74,-1,40,42,38,-1,38,42,44,-1,44,46,38,-1,38,46,48,-1,38,48,36,-1,74,76,78,-1,69,53,67,-1,67,53,55,-1,67,55,57,-1,27,28,80,-1,57,59,67,-1,67,59,61,-1,67,61,65,-1,65,61,63,-1,30,32,28,-1,28,32,34,-1,28,34,80,-1,80,82,27,-1,27,82,84,-1,27,84,25,-1,25,84,86,-1,25,86,0,-1,69,71,53,-1,53,71,74,-1,53,74,50,-1,50,74,78,-1,50,78,48,-1,48,78,80,-1,48,80,36,-1,36,80,34,-1,0,3,25,-1,25,3,5,-1,25,5,7,-1,7,9,25,-1,25,9,11,-1,25,11,23,-1,23,11,13,-1,23,13,15,-1,17,19,15,-1,15,19,21,-1,15,21,23,-1,49,47,45,-1,35,33,31,-1,37,49,39,-1,39,49,45,-1,39,45,41,-1,41,45,43,-1,51,75,52,-1,52,75,73,-1,52,73,70,-1,24,85,26,-1,26,85,83,-1,26,83,29,-1,31,29,35,-1,35,29,83,-1,35,83,37,-1,37,83,81,-1,37,81,49,-1,49,81,79,-1,49,79,51,-1,51,79,77,-1,51,77,75,-1,64,62,60,-1,70,68,52,-1,52,68,66,-1,52,66,54,-1,54,66,56,-1,12,10,22,-1,24,6,4,-1,64,60,66,-1,66,60,58,-1,66,58,56,-1,22,10,24,-1,24,10,8,-1,24,8,6,-1,87,85,1,-1,1,85,24,-1,1,24,2,-1,2,24,4,-1,18,16,14,-1,12,22,14,-1,14,22,20,-1,14,20,18,-1,88,89,90,-1,88,90,91,-1,91,90,92,-1,91,92,93,-1,93,92,94,-1,93,94,95,-1,95,94,96,-1,95,96,97,-1,97,96,98,-1,97,98,99,-1,99,98,100,-1,99,100,101,-1,101,100,102,-1,101,102,103,-1,103,102,104,-1,103,104,105,-1,105,104,106,-1,105,106,107,-1,107,106,108,-1,107,108,109,-1,109,108,110,-1,109,110,111,-1,111,110,112,-1,111,112,113,-1,114,115,112,-1,112,115,113,-1,116,115,117,-1,117,115,114,-1,118,116,119,-1,119,116,117,-1,120,118,121,-1,121,118,119,-1,122,120,123,-1,123,120,121,-1,124,122,125,-1,125,122,123,-1,126,124,127,-1,127,124,125,-1,128,126,129,-1,129,126,127,-1,130,128,131,-1,131,128,129,-1,132,130,133,-1,133,130,131,-1,134,132,135,-1,135,132,133,-1,136,134,137,-1,137,134,135,-1,138,136,139,-1,139,136,137,-1,138,139,140,-1,138,140,141,-1,141,140,142,-1,141,142,143,-1,143,142,144,-1,143,144,145,-1,145,144,146,-1,145,146,147,-1,147,146,148,-1,147,148,149,-1,149,148,150,-1,149,150,151,-1,151,150,152,-1,151,152,153,-1,153,152,154,-1,153,154,155,-1,155,154,156,-1,155,156,157,-1,157,156,158,-1,157,158,159,-1,160,159,161,-1,161,159,158,-1,162,160,163,-1,163,160,161,-1,164,162,165,-1,165,162,163,-1,166,164,167,-1,167,164,165,-1,168,166,169,-1,169,166,167,-1,170,168,171,-1,171,168,169,-1,172,170,173,-1,173,170,171,-1,174,172,175,-1,175,172,173,-1,88,174,89,-1,89,174,175,-1,159,160,162,-1,128,130,126,-1,126,130,132,-1,132,134,126,-1,126,134,136,-1,126,136,124,-1,162,164,166,-1,157,141,155,-1,155,141,143,-1,155,143,145,-1,115,116,168,-1,145,147,155,-1,155,147,149,-1,155,149,153,-1,153,149,151,-1,118,120,116,-1,116,120,122,-1,116,122,168,-1,168,170,115,-1,115,170,172,-1,115,172,113,-1,113,172,174,-1,113,174,88,-1,157,159,141,-1,141,159,162,-1,141,162,138,-1,138,162,166,-1,138,166,136,-1,136,166,168,-1,136,168,124,-1,124,168,122,-1,88,91,113,-1,113,91,93,-1,113,93,95,-1,95,97,113,-1,113,97,99,-1,113,99,111,-1,111,99,101,-1,111,101,103,-1,105,107,103,-1,103,107,109,-1,103,109,111,-1,137,135,133,-1,123,121,119,-1,125,137,127,-1,127,137,133,-1,127,133,129,-1,129,133,131,-1,139,163,140,-1,140,163,161,-1,140,161,158,-1,112,173,114,-1,114,173,171,-1,114,171,117,-1,119,117,123,-1,123,117,171,-1,123,171,125,-1,125,171,169,-1,125,169,137,-1,137,169,167,-1,137,167,139,-1,139,167,165,-1,139,165,163,-1,152,150,148,-1,158,156,140,-1,140,156,154,-1,140,154,142,-1,142,154,144,-1,100,98,110,-1,112,94,92,-1,152,148,154,-1,154,148,146,-1,154,146,144,-1,110,98,112,-1,112,98,96,-1,112,96,94,-1,175,173,89,-1,89,173,112,-1,89,112,90,-1,90,112,92,-1,106,104,102,-1,100,110,102,-1,102,110,108,-1,102,108,106,-1,176,177,178,-1,176,178,179,-1,179,178,180,-1,179,180,181,-1,181,180,182,-1,181,182,183,-1,183,182,184,-1,183,184,185,-1,185,184,186,-1,185,186,187,-1,187,186,188,-1,187,188,189,-1,189,188,190,-1,189,190,191,-1,191,190,192,-1,191,192,193,-1,193,192,194,-1,193,194,195,-1,195,194,196,-1,195,196,197,-1,197,196,198,-1,197,198,199,-1,199,198,200,-1,199,200,201,-1,202,203,200,-1,200,203,201,-1,204,203,205,-1,205,203,202,-1,206,204,207,-1,207,204,205,-1,208,206,209,-1,209,206,207,-1,210,208,211,-1,211,208,209,-1,212,210,213,-1,213,210,211,-1,214,212,215,-1,215,212,213,-1,216,214,217,-1,217,214,215,-1,218,216,219,-1,219,216,217,-1,220,218,221,-1,221,218,219,-1,222,220,223,-1,223,220,221,-1,224,222,225,-1,225,222,223,-1,226,224,227,-1,227,224,225,-1,226,227,228,-1,226,228,229,-1,229,228,230,-1,229,230,231,-1,231,230,232,-1,231,232,233,-1,233,232,234,-1,233,234,235,-1,235,234,236,-1,235,236,237,-1,237,236,238,-1,237,238,239,-1,239,238,240,-1,239,240,241,-1,241,240,242,-1,241,242,243,-1,243,242,244,-1,243,244,245,-1,245,244,246,-1,245,246,247,-1,248,247,249,-1,249,247,246,-1,250,248,251,-1,251,248,249,-1,252,250,253,-1,253,250,251,-1,254,252,255,-1,255,252,253,-1,256,254,257,-1,257,254,255,-1,258,256,259,-1,259,256,257,-1,260,258,261,-1,261,258,259,-1,262,260,263,-1,263,260,261,-1,176,262,177,-1,177,262,263,-1,247,248,250,-1,216,218,214,-1,214,218,220,-1,220,222,214,-1,214,222,224,-1,214,224,212,-1,250,252,254,-1,245,229,243,-1,243,229,231,-1,243,231,233,-1,203,204,256,-1,233,235,243,-1,243,235,237,-1,243,237,241,-1,241,237,239,-1,206,208,204,-1,204,208,210,-1,204,210,256,-1,256,258,203,-1,203,258,260,-1,203,260,201,-1,201,260,262,-1,201,262,176,-1,245,247,229,-1,229,247,250,-1,229,250,226,-1,226,250,254,-1,226,254,224,-1,224,254,256,-1,224,256,212,-1,212,256,210,-1,176,179,201,-1,201,179,181,-1,201,181,183,-1,183,185,201,-1,201,185,187,-1,201,187,199,-1,199,187,189,-1,199,189,191,-1,193,195,191,-1,191,195,197,-1,191,197,199,-1,225,223,221,-1,211,209,207,-1,213,225,215,-1,215,225,221,-1,215,221,217,-1,217,221,219,-1,227,251,228,-1,228,251,249,-1,228,249,246,-1,200,261,202,-1,202,261,259,-1,202,259,205,-1,207,205,211,-1,211,205,259,-1,211,259,213,-1,213,259,257,-1,213,257,225,-1,225,257,255,-1,225,255,227,-1,227,255,253,-1,227,253,251,-1,240,238,236,-1,246,244,228,-1,228,244,242,-1,228,242,230,-1,230,242,232,-1,188,186,198,-1,200,182,180,-1,240,236,242,-1,242,236,234,-1,242,234,232,-1,198,186,200,-1,200,186,184,-1,200,184,182,-1,263,261,177,-1,177,261,200,-1,177,200,178,-1,178,200,180,-1,194,192,190,-1,188,198,190,-1,190,198,196,-1,190,196,194,-1,264,265,266,-1,264,266,267,-1,267,266,268,-1,267,268,269,-1,269,268,270,-1,269,270,271,-1,271,270,272,-1,271,272,273,-1,273,272,274,-1,273,274,275,-1,275,274,276,-1,275,276,277,-1,277,276,278,-1,277,278,279,-1,279,278,280,-1,279,280,281,-1,281,280,282,-1,281,282,283,-1,283,282,284,-1,283,284,285,-1,285,284,286,-1,285,286,287,-1,287,286,288,-1,287,288,289,-1,290,291,288,-1,288,291,289,-1,292,291,293,-1,293,291,290,-1,294,292,295,-1,295,292,293,-1,296,294,297,-1,297,294,295,-1,298,296,299,-1,299,296,297,-1,300,298,301,-1,301,298,299,-1,302,300,303,-1,303,300,301,-1,304,302,305,-1,305,302,303,-1,306,304,307,-1,307,304,305,-1,308,306,309,-1,309,306,307,-1,310,308,311,-1,311,308,309,-1,312,310,313,-1,313,310,311,-1,314,312,315,-1,315,312,313,-1,314,315,316,-1,314,316,317,-1,317,316,318,-1,317,318,319,-1,319,318,320,-1,319,320,321,-1,321,320,322,-1,321,322,323,-1,323,322,324,-1,323,324,325,-1,325,324,326,-1,325,326,327,-1,327,326,328,-1,327,328,329,-1,329,328,330,-1,329,330,331,-1,331,330,332,-1,331,332,333,-1,333,332,334,-1,333,334,335,-1,336,335,337,-1,337,335,334,-1,338,336,339,-1,339,336,337,-1,340,338,341,-1,341,338,339,-1,342,340,343,-1,343,340,341,-1,344,342,345,-1,345,342,343,-1,346,344,347,-1,347,344,345,-1,348,346,349,-1,349,346,347,-1,350,348,351,-1,351,348,349,-1,264,350,265,-1,265,350,351,-1,335,336,338,-1,304,306,302,-1,302,306,308,-1,308,310,302,-1,302,310,312,-1,302,312,300,-1,338,340,342,-1,333,317,331,-1,331,317,319,-1,331,319,321,-1,291,292,344,-1,321,323,331,-1,331,323,325,-1,331,325,329,-1,329,325,327,-1,294,296,292,-1,292,296,298,-1,292,298,344,-1,344,346,291,-1,291,346,348,-1,291,348,289,-1,289,348,350,-1,289,350,264,-1,333,335,317,-1,317,335,338,-1,317,338,314,-1,314,338,342,-1,314,342,312,-1,312,342,344,-1,312,344,300,-1,300,344,298,-1,264,267,289,-1,289,267,269,-1,289,269,271,-1,271,273,289,-1,289,273,275,-1,289,275,287,-1,287,275,277,-1,287,277,279,-1,281,283,279,-1,279,283,285,-1,279,285,287,-1,313,311,309,-1,299,297,295,-1,301,313,303,-1,303,313,309,-1,303,309,305,-1,305,309,307,-1,315,339,316,-1,316,339,337,-1,316,337,334,-1,288,349,290,-1,290,349,347,-1,290,347,293,-1,295,293,299,-1,299,293,347,-1,299,347,301,-1,301,347,345,-1,301,345,313,-1,313,345,343,-1,313,343,315,-1,315,343,341,-1,315,341,339,-1,328,326,324,-1,334,332,316,-1,316,332,330,-1,316,330,318,-1,318,330,320,-1,276,274,286,-1,288,270,268,-1,328,324,330,-1,330,324,322,-1,330,322,320,-1,286,274,288,-1,288,274,272,-1,288,272,270,-1,351,349,265,-1,265,349,288,-1,265,288,266,-1,266,288,268,-1,282,280,278,-1,276,286,278,-1,278,286,284,-1,278,284,282,-1,352,353,354,-1,352,354,355,-1,355,354,356,-1,355,356,357,-1,357,356,358,-1,357,358,359,-1,359,358,360,-1,359,360,361,-1,361,360,362,-1,361,362,363,-1,363,362,364,-1,363,364,365,-1,365,364,366,-1,365,366,367,-1,367,366,368,-1,367,368,369,-1,369,368,370,-1,369,370,371,-1,371,370,372,-1,371,372,373,-1,373,372,374,-1,373,374,375,-1,375,374,376,-1,375,376,377,-1,378,379,376,-1,376,379,377,-1,380,379,381,-1,381,379,378,-1,382,380,383,-1,383,380,381,-1,384,382,385,-1,385,382,383,-1,386,384,387,-1,387,384,385,-1,388,386,389,-1,389,386,387,-1,390,388,391,-1,391,388,389,-1,392,390,393,-1,393,390,391,-1,394,392,395,-1,395,392,393,-1,396,394,397,-1,397,394,395,-1,398,396,399,-1,399,396,397,-1,400,398,401,-1,401,398,399,-1,402,400,403,-1,403,400,401,-1,402,403,404,-1,402,404,405,-1,405,404,406,-1,405,406,407,-1,407,406,408,-1,407,408,409,-1,409,408,410,-1,409,410,411,-1,411,410,412,-1,411,412,413,-1,413,412,414,-1,413,414,415,-1,415,414,416,-1,415,416,417,-1,417,416,418,-1,417,418,419,-1,419,418,420,-1,419,420,421,-1,421,420,422,-1,421,422,423,-1,424,423,425,-1,425,423,422,-1,426,424,427,-1,427,424,425,-1,428,426,429,-1,429,426,427,-1,430,428,431,-1,431,428,429,-1,432,430,433,-1,433,430,431,-1,434,432,435,-1,435,432,433,-1,436,434,437,-1,437,434,435,-1,438,436,439,-1,439,436,437,-1,352,438,353,-1,353,438,439,-1,423,424,426,-1,392,394,390,-1,390,394,396,-1,396,398,390,-1,390,398,400,-1,390,400,388,-1,426,428,430,-1,421,405,419,-1,419,405,407,-1,419,407,409,-1,379,380,432,-1,409,411,419,-1,419,411,413,-1,419,413,417,-1,417,413,415,-1,382,384,380,-1,380,384,386,-1,380,386,432,-1,432,434,379,-1,379,434,436,-1,379,436,377,-1,377,436,438,-1,377,438,352,-1,421,423,405,-1,405,423,426,-1,405,426,402,-1,402,426,430,-1,402,430,400,-1,400,430,432,-1,400,432,388,-1,388,432,386,-1,352,355,377,-1,377,355,357,-1,377,357,359,-1,359,361,377,-1,377,361,363,-1,377,363,375,-1,375,363,365,-1,375,365,367,-1,369,371,367,-1,367,371,373,-1,367,373,375,-1,401,399,397,-1,387,385,383,-1,389,401,391,-1,391,401,397,-1,391,397,393,-1,393,397,395,-1,403,427,404,-1,404,427,425,-1,404,425,422,-1,376,437,378,-1,378,437,435,-1,378,435,381,-1,383,381,387,-1,387,381,435,-1,387,435,389,-1,389,435,433,-1,389,433,401,-1,401,433,431,-1,401,431,403,-1,403,431,429,-1,403,429,427,-1,416,414,412,-1,422,420,404,-1,404,420,418,-1,404,418,406,-1,406,418,408,-1,364,362,374,-1,376,358,356,-1,416,412,418,-1,418,412,410,-1,418,410,408,-1,374,362,376,-1,376,362,360,-1,376,360,358,-1,439,437,353,-1,353,437,376,-1,353,376,354,-1,354,376,356,-1,370,368,366,-1,364,374,366,-1,366,374,372,-1,366,372,370,-1,
        ]
    }
}
Shape{
    appearance Appearance {
        material  Material {
            diffuseColor 0.8313725490196079 0.8313725490196079 0.8196078431372549
            specularColor 0.6666666666666666 0.6666666666666666 0.6549019607843137
            ambientIntensity 0.83
            transparency 0.0
            shininess 0.5
        }
    }
    geometry IndexedFaceSet {
        ccw TRUE
        solid FALSE
        coord DEF co Coordinate {
            point [
                -1.3583 0.1185 0.0197, -1.3583 0.1185 0.0787, -1.3583 -0.6689 0.0197, -1.3583 -0.6689 0.0787, -2.0866 -0.6689 0.0787, -2.0866 -0.6689 0.0, -1.3779 -0.6689 0.0, -1.3728 -0.6689 0.0007, -1.3589 -0.6689 0.0146, -1.3681 -0.6689 0.0026, -1.364 -0.6689 0.0058, -1.3609 -0.6689 0.0098, -2.0954 -0.6679 0.0787, -2.0954 -0.6679 0.0, -2.1037 -0.665 0.0787, -2.1037 -0.665 0.0, -2.1112 -0.6603 0.0787, -2.1112 -0.6603 0.0, -2.1174 -0.6541 0.0787, -2.1174 -0.6541 0.0, -2.1221 -0.6466 0.0787, -2.1221 -0.6466 0.0, -2.125 -0.6383 0.0787, -2.125 -0.6383 0.0, -2.126 -0.6295 0.0787, -2.126 -0.6295 0.0, -2.126 -0.5902 0.0, -2.126 -0.5902 0.0787, -2.125 -0.5814 0.0787, -2.125 -0.5814 0.0, -2.1221 -0.5731 0.0787, -2.1221 -0.5731 0.0, -2.1174 -0.5656 0.0787, -2.1174 -0.5656 0.0, -2.1112 -0.5594 0.0787, -2.1112 -0.5594 0.0, -2.1037 -0.5547 0.0787, -2.1037 -0.5547 0.0, -2.0954 -0.5518 0.0787, -2.0954 -0.5518 0.0, -2.0866 -0.5508 0.0787, -2.0866 -0.5508 0.0, -1.9882 -0.5508 0.0, -1.9882 -0.5508 0.0787, -1.9794 -0.5498 0.0, -1.9794 -0.5498 0.0787, -1.9711 -0.5469 0.0, -1.9711 -0.5469 0.0787, -1.9636 -0.5422 0.0, -1.9636 -0.5422 0.0787, -1.9574 -0.536 0.0, -1.9574 -0.536 0.0787, -1.9527 -0.5285 0.0, -1.9527 -0.5285 0.0787, -1.9498 -0.5202 0.0, -1.9498 -0.5202 0.0787, -1.9488 -0.5114 0.0, -1.9488 -0.5114 0.0787, -1.9488 -0.472 0.0, -1.9488 -0.472 0.0787, -1.9498 -0.4633 0.0, -1.9498 -0.4633 0.0787, -1.9527 -0.455 0.0, -1.9527 -0.455 0.0787, -1.9574 -0.4475 0.0, -1.9574 -0.4475 0.0787, -1.9636 -0.4413 0.0, -1.9636 -0.4413 0.0787, -1.9711 -0.4366 0.0, -1.9711 -0.4366 0.0787, -1.9794 -0.4337 0.0, -1.9794 -0.4337 0.0787, -1.9882 -0.4327 0.0, -1.9882 -0.4327 0.0787, -2.0866 -0.4327 0.0, -2.0866 -0.4327 0.0787, -2.0954 -0.4317 0.0787, -2.0954 -0.4317 0.0, -2.1037 -0.4288 0.0787, -2.1037 -0.4288 0.0, -2.1112 -0.4241 0.0787, -2.1112 -0.4241 0.0, -2.1174 -0.4179 0.0787, -2.1174 -0.4179 0.0, -2.1221 -0.4104 0.0787, -2.1221 -0.4104 0.0, -2.125 -0.4021 0.0787, -2.125 -0.4021 0.0, -2.126 -0.3933 0.0787, -2.126 -0.3933 0.0, -2.126 -0.3539 0.0, -2.126 -0.3539 0.0787, -2.125 -0.3452 0.0787, -2.125 -0.3452 0.0, -2.1221 -0.3369 0.0787, -2.1221 -0.3369 0.0, -2.1174 -0.3294 0.0787, -2.1174 -0.3294 0.0, -2.1112 -0.3232 0.0787, -2.1112 -0.3232 0.0, -2.1037 -0.3185 0.0787, -2.1037 -0.3185 0.0, -2.0954 -0.3156 0.0787, -2.0954 -0.3156 0.0, -2.0866 -0.3146 0.0787, -2.0866 -0.3146 0.0, -1.9882 -0.3146 0.0, -1.9882 -0.3146 0.0787, -1.9794 -0.3136 0.0, -1.9794 -0.3136 0.0787, -1.9711 -0.3107 0.0, -1.9711 -0.3107 0.0787, -1.9636 -0.306 0.0, -1.9636 -0.306 0.0787, -1.9574 -0.2997 0.0, -1.9574 -0.2997 0.0787, -1.9527 -0.2923 0.0, -1.9527 -0.2923 0.0787, -1.9498 -0.284 0.0, -1.9498 -0.284 0.0787, -1.9488 -0.2752 0.0, -1.9488 -0.2752 0.0787, -1.9488 0.1185 0.0, -1.9488 0.1185 0.0787, -1.3779 0.1185 0.0, -1.3681 0.1185 0.0026, -1.3589 0.1185 0.0146, -1.364 0.1185 0.0058, -1.3609 0.1185 0.0098, -1.3728 0.1185 0.0007, -1.437 0.3154 0.748, -1.437 0.1185 0.748, -1.3583 0.3154 0.748, -1.3583 0.1185 0.748, -1.437 0.3154 0.0, -1.3583 0.3154 0.0, -1.437 0.1972 0.0, -1.3583 0.1972 0.0, -1.437 0.1776 0.0394, -1.3583 0.1776 0.0394, -1.437 0.1185 0.0394, -1.3583 0.1185 0.0394, 1.3583 0.1185 0.0787, 1.3583 0.1185 0.0197, 1.3583 -0.6689 0.0787, 1.3583 -0.6689 0.0197, 1.378 -0.6689 0.0, 2.0866 -0.6689 0.0, 2.0866 -0.6689 0.0787, 1.3589 -0.6689 0.0146, 1.3609 -0.6689 0.0098, 1.364 -0.6689 0.0058, 1.3681 -0.6689 0.0026, 1.3729 -0.6689 0.0007, 2.126 -0.6295 0.0, 2.126 -0.6295 0.0787, 2.125 -0.6383 0.0787, 2.125 -0.6383 0.0, 2.1221 -0.6466 0.0787, 2.1221 -0.6466 0.0, 2.1174 -0.6541 0.0787, 2.1174 -0.6541 0.0, 2.1112 -0.6603 0.0787, 2.1112 -0.6603 0.0, 2.1037 -0.665 0.0787, 2.1037 -0.665 0.0, 2.0954 -0.6679 0.0787, 2.0954 -0.6679 0.0, 2.126 -0.5902 0.0, 2.126 -0.5902 0.0787, 2.0866 -0.5508 0.0, 2.0866 -0.5508 0.0787, 2.0954 -0.5518 0.0787, 2.0954 -0.5518 0.0, 2.1037 -0.5547 0.0787, 2.1037 -0.5547 0.0, 2.1112 -0.5594 0.0787, 2.1112 -0.5594 0.0, 2.1174 -0.5656 0.0787, 2.1174 -0.5656 0.0, 2.1221 -0.5731 0.0787, 2.1221 -0.5731 0.0, 2.125 -0.5814 0.0787, 2.125 -0.5814 0.0, 1.9882 -0.5508 0.0, 1.9882 -0.5508 0.0787, 1.9488 -0.5114 0.0, 1.9488 -0.5114 0.0787, 1.9498 -0.5202 0.0, 1.9498 -0.5202 0.0787, 1.9527 -0.5285 0.0, 1.9527 -0.5285 0.0787, 1.9574 -0.536 0.0, 1.9574 -0.536 0.0787, 1.9637 -0.5422 0.0, 1.9637 -0.5422 0.0787, 1.9711 -0.5469 0.0, 1.9711 -0.5469 0.0787, 1.9794 -0.5498 0.0, 1.9794 -0.5498 0.0787, 1.9488 -0.472 0.0, 1.9488 -0.472 0.0787, 1.9882 -0.4327 0.0, 1.9882 -0.4327 0.0787, 1.9794 -0.4337 0.0, 1.9794 -0.4337 0.0787, 1.9711 -0.4366 0.0, 1.9711 -0.4366 0.0787, 1.9637 -0.4413 0.0, 1.9637 -0.4413 0.0787, 1.9574 -0.4475 0.0, 1.9574 -0.4475 0.0787, 1.9527 -0.455 0.0, 1.9527 -0.455 0.0787, 1.9498 -0.4633 0.0, 1.9498 -0.4633 0.0787, 2.0866 -0.4327 0.0, 2.0866 -0.4327 0.0787, 2.126 -0.3933 0.0, 2.126 -0.3933 0.0787, 2.125 -0.4021 0.0787, 2.125 -0.4021 0.0, 2.1221 -0.4104 0.0787, 2.1221 -0.4104 0.0, 2.1174 -0.4179 0.0787, 2.1174 -0.4179 0.0, 2.1112 -0.4241 0.0787, 2.1112 -0.4241 0.0, 2.1037 -0.4288 0.0787, 2.1037 -0.4288 0.0, 2.0954 -0.4317 0.0787, 2.0954 -0.4317 0.0, 2.126 -0.3539 0.0, 2.126 -0.3539 0.0787, 2.0866 -0.3146 0.0, 2.0866 -0.3146 0.0787, 2.0954 -0.3156 0.0787, 2.0954 -0.3156 0.0, 2.1037 -0.3185 0.0787, 2.1037 -0.3185 0.0, 2.1112 -0.3232 0.0787, 2.1112 -0.3232 0.0, 2.1174 -0.3294 0.0787, 2.1174 -0.3294 0.0, 2.1221 -0.3369 0.0787, 2.1221 -0.3369 0.0, 2.125 -0.3452 0.0787, 2.125 -0.3452 0.0, 1.9882 -0.3146 0.0, 1.9882 -0.3146 0.0787, 1.9488 -0.2752 0.0, 1.9488 -0.2752 0.0787, 1.9498 -0.284 0.0, 1.9498 -0.284 0.0787, 1.9527 -0.2923 0.0, 1.9527 -0.2923 0.0787, 1.9574 -0.2997 0.0, 1.9574 -0.2997 0.0787, 1.9637 -0.306 0.0, 1.9637 -0.306 0.0787, 1.9711 -0.3107 0.0, 1.9711 -0.3107 0.0787, 1.9794 -0.3136 0.0, 1.9794 -0.3136 0.0787, 1.9488 0.1185 0.0, 1.9488 0.1185 0.0787, 1.378 0.1185 0.0, 1.364 0.1185 0.0058, 1.3609 0.1185 0.0098, 1.3589 0.1185 0.0146, 1.3681 0.1185 0.0026, 1.3729 0.1185 0.0007, 1.3583 0.3154 0.748, 1.3583 0.1185 0.748, 1.437 0.3154 0.748, 1.437 0.1185 0.748, 1.437 0.3154 0.0, 1.3583 0.3154 0.0, 1.437 0.1972 0.0, 1.3583 0.1972 0.0, 1.437 0.1776 0.0394, 1.3583 0.1776 0.0394, 1.437 0.1185 0.0394, 1.3583 0.1185 0.0394
            ]
        }
        coordIndex [
            0,1,2,-1,2,1,3,-1,4,5,3,-1,3,5,6,-1,7,8,6,-1,6,8,2,-1,6,2,3,-1,7,9,8,-1,8,9,10,-1,8,10,11,-1,5,4,12,-1,5,12,13,-1,13,12,14,-1,13,14,15,-1,15,14,16,-1,15,16,17,-1,17,16,18,-1,17,18,19,-1,19,18,20,-1,19,20,21,-1,21,20,22,-1,21,22,23,-1,23,22,24,-1,23,24,25,-1,26,25,27,-1,27,25,24,-1,26,27,28,-1,26,28,29,-1,29,28,30,-1,29,30,31,-1,31,30,32,-1,31,32,33,-1,33,32,34,-1,33,34,35,-1,35,34,36,-1,35,36,37,-1,37,36,38,-1,37,38,39,-1,39,38,40,-1,39,40,41,-1,42,41,43,-1,43,41,40,-1,42,43,44,-1,44,43,45,-1,44,45,46,-1,46,45,47,-1,46,47,48,-1,48,47,49,-1,48,49,50,-1,50,49,51,-1,50,51,52,-1,52,51,53,-1,52,53,54,-1,54,53,55,-1,54,55,56,-1,56,55,57,-1,58,56,59,-1,59,56,57,-1,58,59,60,-1,60,59,61,-1,60,61,62,-1,62,61,63,-1,62,63,64,-1,64,63,65,-1,64,65,66,-1,66,65,67,-1,66,67,68,-1,68,67,69,-1,68,69,70,-1,70,69,71,-1,70,71,72,-1,72,71,73,-1,74,72,75,-1,75,72,73,-1,74,75,76,-1,74,76,77,-1,77,76,78,-1,77,78,79,-1,79,78,80,-1,79,80,81,-1,81,80,82,-1,81,82,83,-1,83,82,84,-1,83,84,85,-1,85,84,86,-1,85,86,87,-1,87,86,88,-1,87,88,89,-1,90,89,91,-1,91,89,88,-1,90,91,92,-1,90,92,93,-1,93,92,94,-1,93,94,95,-1,95,94,96,-1,95,96,97,-1,97,96,98,-1,97,98,99,-1,99,98,100,-1,99,100,101,-1,101,100,102,-1,101,102,103,-1,103,102,104,-1,103,104,105,-1,106,105,107,-1,107,105,104,-1,106,107,108,-1,108,107,109,-1,108,109,110,-1,110,109,111,-1,110,111,112,-1,112,111,113,-1,112,113,114,-1,114,113,115,-1,114,115,116,-1,116,115,117,-1,116,117,118,-1,118,117,119,-1,118,119,120,-1,120,119,121,-1,122,120,123,-1,123,120,121,-1,122,123,124,-1,124,123,1,-1,125,126,127,-1,127,126,128,-1,1,0,124,-1,124,0,126,-1,124,126,129,-1,129,126,125,-1,48,50,6,-1,6,50,52,-1,6,52,54,-1,62,124,60,-1,60,124,6,-1,116,118,124,-1,124,118,120,-1,124,120,122,-1,41,5,25,-1,41,42,5,-1,5,42,44,-1,5,44,6,-1,6,44,46,-1,6,46,48,-1,54,56,6,-1,6,56,58,-1,6,58,60,-1,110,112,70,-1,70,112,114,-1,70,114,116,-1,19,21,5,-1,5,21,23,-1,5,23,25,-1,62,64,124,-1,124,64,66,-1,124,66,116,-1,116,66,68,-1,116,68,70,-1,19,5,17,-1,17,5,13,-1,17,13,15,-1,25,26,41,-1,41,26,29,-1,41,29,31,-1,31,33,41,-1,41,33,35,-1,41,35,39,-1,39,35,37,-1,74,105,72,-1,72,105,106,-1,72,106,70,-1,70,106,108,-1,70,108,110,-1,90,93,105,-1,105,93,95,-1,105,95,97,-1,90,105,89,-1,89,105,74,-1,89,74,87,-1,87,74,77,-1,87,77,79,-1,97,99,105,-1,105,99,101,-1,105,101,103,-1,79,81,87,-1,87,81,83,-1,87,83,85,-1,123,121,1,-1,1,121,119,-1,1,119,117,-1,113,111,71,-1,67,65,1,-1,57,55,3,-1,3,55,53,-1,3,53,51,-1,111,109,71,-1,71,109,107,-1,71,107,73,-1,65,63,1,-1,1,63,61,-1,1,61,3,-1,3,61,59,-1,3,59,57,-1,67,1,69,-1,69,1,117,-1,69,117,71,-1,71,117,115,-1,71,115,113,-1,45,4,47,-1,47,4,3,-1,47,3,49,-1,49,3,51,-1,45,43,4,-1,4,43,40,-1,4,40,27,-1,32,30,40,-1,40,30,28,-1,40,28,27,-1,73,107,75,-1,75,107,104,-1,75,104,91,-1,32,40,34,-1,34,40,38,-1,34,38,36,-1,27,24,4,-1,4,24,22,-1,4,22,20,-1,20,18,4,-1,4,18,16,-1,4,16,12,-1,12,16,14,-1,96,94,104,-1,104,94,92,-1,104,92,91,-1,91,88,75,-1,75,88,86,-1,75,86,76,-1,76,86,78,-1,102,100,104,-1,104,100,98,-1,104,98,96,-1,84,82,86,-1,86,82,80,-1,86,80,78,-1,6,124,129,-1,6,129,7,-1,7,129,125,-1,7,125,9,-1,9,125,127,-1,9,127,10,-1,10,127,128,-1,10,128,11,-1,11,128,126,-1,11,126,8,-1,8,126,0,-1,8,0,2,-1,130,131,132,-1,132,131,133,-1,134,130,135,-1,135,130,132,-1,136,134,137,-1,137,134,135,-1,138,136,139,-1,139,136,137,-1,140,138,141,-1,141,138,139,-1,131,140,133,-1,133,140,141,-1,140,131,138,-1,138,131,130,-1,138,130,136,-1,136,130,134,-1,137,135,139,-1,139,135,132,-1,139,132,141,-1,141,132,133,-1,142,143,144,-1,144,143,145,-1,146,147,148,-1,148,144,146,-1,146,144,145,-1,146,145,149,-1,149,150,151,-1,151,152,149,-1,149,152,153,-1,149,153,146,-1,154,155,156,-1,154,156,157,-1,157,156,158,-1,157,158,159,-1,159,158,160,-1,159,160,161,-1,161,160,162,-1,161,162,163,-1,163,162,164,-1,163,164,165,-1,165,164,166,-1,165,166,167,-1,167,166,148,-1,167,148,147,-1,154,168,155,-1,155,168,169,-1,170,171,172,-1,170,172,173,-1,173,172,174,-1,173,174,175,-1,175,174,176,-1,175,176,177,-1,177,176,178,-1,177,178,179,-1,179,178,180,-1,179,180,181,-1,181,180,182,-1,181,182,183,-1,183,182,169,-1,183,169,168,-1,170,184,171,-1,171,184,185,-1,186,187,188,-1,188,187,189,-1,188,189,190,-1,190,189,191,-1,190,191,192,-1,192,191,193,-1,192,193,194,-1,194,193,195,-1,194,195,196,-1,196,195,197,-1,196,197,198,-1,198,197,199,-1,198,199,184,-1,184,199,185,-1,186,200,187,-1,187,200,201,-1,202,203,204,-1,204,203,205,-1,204,205,206,-1,206,205,207,-1,206,207,208,-1,208,207,209,-1,208,209,210,-1,210,209,211,-1,210,211,212,-1,212,211,213,-1,212,213,214,-1,214,213,215,-1,214,215,200,-1,200,215,201,-1,202,216,203,-1,203,216,217,-1,218,219,220,-1,218,220,221,-1,221,220,222,-1,221,222,223,-1,223,222,224,-1,223,224,225,-1,225,224,226,-1,225,226,227,-1,227,226,228,-1,227,228,229,-1,229,228,230,-1,229,230,231,-1,231,230,217,-1,231,217,216,-1,218,232,219,-1,219,232,233,-1,234,235,236,-1,234,236,237,-1,237,236,238,-1,237,238,239,-1,239,238,240,-1,239,240,241,-1,241,240,242,-1,241,242,243,-1,243,242,244,-1,243,244,245,-1,245,244,246,-1,245,246,247,-1,247,246,233,-1,247,233,232,-1,234,248,235,-1,235,248,249,-1,250,251,252,-1,252,251,253,-1,252,253,254,-1,254,253,255,-1,254,255,256,-1,256,255,257,-1,256,257,258,-1,258,257,259,-1,258,259,260,-1,260,259,261,-1,260,261,262,-1,262,261,263,-1,262,263,248,-1,248,263,249,-1,250,264,251,-1,251,264,265,-1,265,264,142,-1,142,264,266,-1,142,266,143,-1,267,268,269,-1,267,269,270,-1,143,266,269,-1,269,266,271,-1,269,271,270,-1,204,252,254,-1,266,212,146,-1,146,212,214,-1,188,190,146,-1,146,190,192,-1,254,256,204,-1,204,256,258,-1,204,258,260,-1,214,200,146,-1,146,200,186,-1,146,186,188,-1,260,262,204,-1,204,262,248,-1,204,248,202,-1,264,250,266,-1,266,250,252,-1,198,147,196,-1,196,147,146,-1,196,146,194,-1,194,146,192,-1,204,206,252,-1,252,206,208,-1,252,208,266,-1,266,208,210,-1,266,210,212,-1,181,183,170,-1,183,168,170,-1,170,168,147,-1,170,147,184,-1,184,147,198,-1,175,177,179,-1,168,154,147,-1,147,154,157,-1,147,157,159,-1,159,161,147,-1,147,161,163,-1,147,163,167,-1,167,163,165,-1,202,248,216,-1,216,248,234,-1,216,234,232,-1,181,170,179,-1,179,170,173,-1,179,173,175,-1,237,239,234,-1,234,239,241,-1,234,241,243,-1,243,245,234,-1,234,245,247,-1,234,247,232,-1,232,218,216,-1,216,218,221,-1,216,221,231,-1,231,221,229,-1,223,225,221,-1,221,225,227,-1,221,227,229,-1,185,199,148,-1,195,193,144,-1,144,193,191,-1,144,191,189,-1,142,213,211,-1,148,199,144,-1,144,199,197,-1,144,197,195,-1,251,265,142,-1,185,148,171,-1,171,148,155,-1,171,155,169,-1,189,187,144,-1,144,187,201,-1,144,201,142,-1,142,201,215,-1,142,215,213,-1,251,142,253,-1,257,205,259,-1,259,205,261,-1,160,158,148,-1,148,158,156,-1,148,156,155,-1,160,148,162,-1,162,148,166,-1,162,166,164,-1,169,182,171,-1,171,182,180,-1,171,180,178,-1,257,255,205,-1,205,255,253,-1,205,253,207,-1,207,253,142,-1,207,142,209,-1,209,142,211,-1,176,174,178,-1,178,174,172,-1,178,172,171,-1,217,235,203,-1,203,235,249,-1,203,249,205,-1,205,249,263,-1,205,263,261,-1,233,246,235,-1,235,246,244,-1,235,244,242,-1,242,240,235,-1,235,240,238,-1,235,238,236,-1,233,235,219,-1,219,235,217,-1,219,217,220,-1,220,217,230,-1,220,230,228,-1,228,226,220,-1,220,226,224,-1,220,224,222,-1,145,143,269,-1,145,269,149,-1,149,269,268,-1,149,268,150,-1,150,268,267,-1,150,267,151,-1,151,267,270,-1,151,270,152,-1,152,270,271,-1,152,271,153,-1,153,271,266,-1,153,266,146,-1,272,273,274,-1,274,273,275,-1,274,276,272,-1,272,276,277,-1,276,278,277,-1,277,278,279,-1,278,280,279,-1,279,280,281,-1,280,282,281,-1,281,282,283,-1,282,275,283,-1,283,275,273,-1,278,276,280,-1,280,276,274,-1,280,274,282,-1,282,274,275,-1,283,273,281,-1,281,273,272,-1,281,272,279,-1,279,272,277,-1,
        ]
    }
}
Shape{
    appearance Appearance {
        material  Material {
            diffuseColor 0.20784313725490197 0.20784313725490197 0.20784313725490197
            specularColor 0.01568627450980392 0.01568627450980392 0.01568627450980392
            ambientIntensity 0.298
            transparency 0.0
            shininess 0.5
        }
    }
    geometry IndexedFaceSet {
        ccw TRUE
        solid FALSE
        coord DEF co Coordinate {
            point [
                1.2402 -1.0035 0.7283, 1.2402 -1.2398 0.7283, 1.378 -1.0035 0.7283, 1.7323 -1.2398 0.7283, 1.378 -0.9248 0.7283, 1.7323 -0.9248 0.7283, 0.9449 -1.0035 0.7283, 0.9449 -1.2398 0.7283, 1.1221 -1.0035 0.7283, 1.1221 -1.2398 0.7283, 0.5512 -1.0035 0.7283, 0.5512 -1.2398 0.7283, 0.6299 -1.0035 0.7283, 0.6299 -1.2398 0.7283, 0.1575 -1.0035 0.7283, 0.1575 -1.2398 0.7283, 0.2362 -1.0035 0.7283, 0.2362 -1.2398 0.7283, -0.2362 -1.0035 0.7283, -0.2362 -1.2398 0.7283, -0.1575 -1.0035 0.7283, -0.1575 -1.2398 0.7283, -1.3779 -0.9248 0.7283, -1.7323 -0.9248 0.7283, -1.3779 -1.0035 0.7283, -1.7323 -1.2398 0.7283, -1.2401 -1.0035 0.7283, -1.2401 -1.2398 0.7283, -0.9449 -1.2398 0.7283, -0.9449 -1.0035 0.7283, -1.122 -1.2398 0.7283, -1.122 -1.0035 0.7283, -1.7323 -0.8854 0.2559, -1.3976 -0.8854 0.2559, -1.7323 -1.476 0.2559, -1.3976 -1.7516 0.2559, -1.8701 -1.476 0.2559, -1.8701 -1.7516 0.2559, 1.8701 -1.476 0.2559, 1.8701 -1.7516 0.2559, 1.7323 -1.476 0.2559, 1.3976 -1.7516 0.2559, 1.7323 -0.8854 0.2559, 1.3976 -0.8854 0.2559, -1.7323 -1.476 0.8071, -1.8701 -1.476 0.8071, -1.8701 -1.7516 0.8071, 1.8701 -1.7516 0.8071, 1.8701 -1.476 0.8071, 1.7323 -1.476 0.8071, 1.7323 -1.4366 0.8071, -1.7323 -1.4366 0.8071, -0.5512 -1.2398 0.7283, -0.6299 -1.2398 0.7283, -0.6299 -1.0035 0.7283, -0.5512 -1.0035 0.7283, -1.3976 -1.7122 0.689, -1.3976 -1.7516 0.689, -1.3976 -1.7122 0.3346, -1.3976 -0.8854 0.3346, 1.3976 -0.8854 0.3346, 1.3976 -1.7122 0.3346, 1.3976 -1.7122 0.689, 1.3976 -1.7516 0.689, -1.3779 -0.8854 0.3346, -1.3779 -1.0035 0.3346, 1.378 -0.8854 0.3346, 1.378 -1.0035 0.3346, 1.378 -0.8868 0.6992, 1.378 -0.8854 0.689, 1.378 -0.9051 0.7231, 1.378 -0.897 0.7168, 1.378 -0.8907 0.7087, 1.378 -0.9146 0.727, -1.122 -1.0035 0.5315, -0.9449 -1.0035 0.5315, -1.2401 -1.0035 0.5315, -0.6299 -1.0035 0.5315, -0.2362 -1.0035 0.5315, -0.1575 -1.0035 0.5315, 0.1575 -1.0035 0.5315, -0.5512 -1.0035 0.5315, 0.5512 -1.0035 0.5315, 0.6299 -1.0035 0.5315, 0.9449 -1.0035 0.5315, 0.2362 -1.0035 0.5315, 1.2402 -1.0035 0.5315, 1.1221 -1.0035 0.5315, -1.3779 -0.8854 0.689, -1.3779 -0.8868 0.6992, -1.3779 -0.8907 0.7087, -1.3779 -0.897 0.7168, -1.3779 -0.9051 0.7231, -1.3779 -0.9146 0.727, 1.7323 -0.8854 0.689, 1.7323 -0.8868 0.6992, 1.7323 -0.8907 0.7087, 1.7323 -0.897 0.7168, 1.7323 -0.9051 0.7231, 1.7323 -0.9146 0.727, -1.7323 -0.8854 0.689, -1.7323 -0.8868 0.6992, -1.7323 -0.9051 0.7231, -1.7323 -0.897 0.7168, -1.7323 -0.8907 0.7087, -1.7323 -0.9146 0.727, -0.9449 -1.2398 0.5315, -0.6299 -1.2398 0.5315, -1.2401 -1.2398 0.5315, -1.122 -1.2398 0.5315, -0.2362 -1.2398 0.5315, -0.5512 -1.2398 0.5315, 0.1575 -1.2398 0.5315, -0.1575 -1.2398 0.5315, 0.5512 -1.2398 0.5315, 0.2362 -1.2398 0.5315, 0.9449 -1.2398 0.5315, 0.6299 -1.2398 0.5315, 1.2402 -1.2398 0.5315, 1.1221 -1.2398 0.5315, -1.3976 -0.8067 0.2559, -1.8701 -0.8067 0.2559, -1.3976 -0.8067 0.3346, -1.8701 -0.8067 0.689, 1.3976 -0.8067 0.3346, 1.8701 -0.8067 0.689, 1.3976 -0.8067 0.2559, 1.8701 -0.8067 0.2559, -1.8701 -0.808 0.6992, -1.8701 -0.8461 0.7283, -1.8701 -0.8657 0.2559, -1.8701 -0.8657 0.7283, -1.8701 -0.8264 0.7231, -1.8701 -0.8182 0.7168, -1.8701 -0.812 0.7087, -1.8701 -0.8359 0.727, 1.8701 -0.8657 0.2559, 1.8701 -0.8657 0.7283, 1.8701 -0.8461 0.7283, 1.8701 -0.808 0.6992, 1.8701 -0.812 0.7087, 1.8701 -0.8182 0.7168, 1.8701 -0.8264 0.7231, 1.8701 -0.8359 0.727, -1.3583 -0.8657 0.7283, 1.3583 -0.8657 0.7283, 1.3583 -0.9445 0.7283, -1.3583 -0.9445 0.7283, 1.3583 -0.8657 0.3346, 1.3976 -0.8657 0.3346, -1.3976 -0.8657 0.3346, -1.3583 -0.8657 0.3346, -1.3583 -0.9445 0.3346, 1.3583 -0.9445 0.3346, 1.3976 -0.8657 0.2559, -1.3976 -0.8657 0.2559
            ]
        }
        coordIndex [
            0,1,2,-1,2,1,3,-1,2,3,4,-1,4,3,5,-1,6,7,8,-1,8,7,9,-1,10,11,12,-1,12,11,13,-1,14,15,16,-1,16,15,17,-1,18,19,20,-1,20,19,21,-1,22,23,24,-1,24,23,25,-1,24,25,26,-1,26,25,27,-1,28,29,30,-1,30,29,31,-1,32,33,34,-1,34,33,35,-1,34,35,36,-1,36,35,37,-1,38,39,40,-1,40,39,41,-1,40,41,42,-1,42,41,43,-1,44,45,46,-1,47,48,49,-1,50,51,49,-1,49,51,44,-1,49,44,47,-1,47,44,46,-1,13,11,50,-1,50,3,1,-1,1,9,50,-1,50,9,7,-1,50,7,13,-1,11,17,50,-1,50,17,15,-1,50,15,51,-1,51,15,21,-1,51,21,19,-1,19,52,51,-1,51,52,53,-1,51,53,28,-1,28,30,51,-1,51,30,27,-1,51,27,25,-1,54,53,55,-1,55,53,52,-1,37,46,36,-1,36,46,45,-1,47,39,48,-1,48,39,38,-1,56,57,58,-1,58,57,35,-1,58,35,59,-1,59,35,33,-1,60,43,61,-1,61,43,41,-1,61,41,62,-1,62,41,63,-1,59,64,65,-1,66,60,67,-1,67,60,61,-1,67,61,65,-1,65,61,58,-1,65,58,59,-1,41,39,63,-1,63,39,47,-1,63,47,57,-1,57,47,46,-1,57,46,35,-1,35,46,37,-1,56,62,57,-1,57,62,63,-1,62,56,61,-1,61,56,58,-1,68,69,4,-1,66,67,69,-1,69,67,2,-1,69,2,4,-1,70,71,72,-1,68,4,72,-1,72,4,73,-1,72,73,70,-1,65,24,26,-1,31,29,74,-1,74,29,75,-1,26,76,65,-1,65,76,74,-1,65,74,67,-1,67,74,75,-1,67,75,77,-1,78,18,20,-1,79,80,67,-1,20,79,78,-1,78,79,67,-1,78,67,81,-1,81,67,77,-1,81,77,55,-1,55,77,54,-1,82,10,12,-1,83,84,67,-1,12,83,82,-1,82,83,67,-1,82,67,85,-1,85,67,80,-1,85,80,16,-1,16,80,14,-1,0,2,86,-1,86,2,67,-1,86,67,87,-1,87,67,84,-1,87,84,8,-1,8,84,6,-1,65,64,24,-1,24,64,88,-1,24,88,22,-1,22,88,89,-1,22,89,90,-1,91,92,90,-1,90,92,93,-1,90,93,22,-1,50,49,3,-1,3,49,40,-1,40,42,3,-1,3,42,94,-1,3,94,5,-1,5,94,95,-1,5,95,96,-1,97,98,96,-1,96,98,99,-1,96,99,5,-1,66,69,60,-1,60,69,94,-1,60,94,43,-1,43,94,42,-1,33,32,59,-1,59,32,100,-1,59,100,64,-1,64,100,88,-1,100,32,34,-1,44,51,34,-1,34,51,25,-1,34,25,100,-1,100,25,23,-1,100,23,101,-1,102,103,104,-1,101,23,104,-1,104,23,105,-1,104,105,102,-1,45,44,36,-1,36,44,34,-1,48,38,49,-1,49,38,40,-1,106,75,28,-1,28,75,29,-1,77,107,54,-1,54,107,53,-1,107,106,53,-1,53,106,28,-1,107,77,106,-1,106,77,75,-1,108,76,27,-1,27,76,26,-1,74,109,31,-1,31,109,30,-1,109,108,30,-1,30,108,27,-1,109,74,108,-1,108,74,76,-1,78,110,18,-1,18,110,19,-1,110,111,19,-1,19,111,52,-1,111,81,52,-1,52,81,55,-1,111,110,81,-1,81,110,78,-1,80,112,14,-1,14,112,15,-1,112,113,15,-1,15,113,21,-1,113,79,21,-1,21,79,20,-1,113,112,79,-1,79,112,80,-1,82,114,10,-1,10,114,11,-1,114,115,11,-1,11,115,17,-1,115,85,17,-1,17,85,16,-1,115,114,85,-1,85,114,82,-1,84,116,6,-1,6,116,7,-1,116,117,7,-1,7,117,13,-1,117,83,13,-1,13,83,12,-1,117,116,83,-1,83,116,84,-1,86,118,0,-1,0,118,1,-1,118,119,1,-1,1,119,9,-1,119,87,9,-1,9,87,8,-1,87,119,86,-1,86,119,118,-1,94,69,68,-1,94,68,95,-1,95,68,72,-1,95,72,96,-1,96,72,71,-1,96,71,97,-1,97,71,70,-1,97,70,98,-1,98,70,73,-1,98,73,99,-1,99,73,4,-1,99,4,5,-1,88,100,101,-1,88,101,89,-1,89,101,104,-1,89,104,90,-1,90,104,103,-1,90,103,91,-1,91,103,102,-1,91,102,92,-1,92,102,105,-1,92,105,93,-1,93,105,23,-1,93,23,22,-1,120,121,122,-1,122,121,123,-1,122,123,124,-1,124,123,125,-1,124,125,126,-1,126,125,127,-1,128,123,129,-1,121,130,123,-1,123,130,131,-1,123,131,129,-1,132,133,134,-1,128,129,134,-1,134,129,135,-1,134,135,132,-1,136,127,137,-1,137,127,125,-1,137,125,138,-1,138,125,139,-1,138,139,140,-1,141,142,140,-1,140,142,143,-1,140,143,138,-1,138,129,144,-1,144,129,131,-1,137,138,145,-1,145,138,144,-1,145,144,146,-1,146,144,147,-1,122,124,148,-1,148,124,149,-1,150,122,151,-1,151,122,148,-1,151,148,152,-1,152,148,153,-1,149,124,154,-1,154,124,126,-1,120,122,155,-1,155,122,150,-1,126,127,154,-1,154,127,136,-1,121,120,130,-1,130,120,155,-1,154,136,149,-1,149,136,137,-1,149,137,148,-1,148,137,145,-1,153,148,146,-1,146,148,145,-1,153,146,152,-1,152,146,147,-1,152,147,151,-1,151,147,144,-1,151,144,150,-1,150,144,131,-1,150,131,155,-1,155,131,130,-1,129,138,143,-1,129,143,135,-1,135,143,142,-1,135,142,132,-1,132,142,141,-1,132,141,133,-1,133,141,140,-1,133,140,134,-1,134,140,139,-1,134,139,128,-1,128,139,125,-1,128,125,123,-1,
        ]
    }
}
Shape{
    appearance Appearance {
        material  Material {
            diffuseColor 0.8431372549019608 0.8156862745098039 0.7529411764705882
            specularColor 0.25098039215686274 0.24313725490196078 0.22745098039215686
            ambientIntensity 0.8167
            transparency 0.0
            shininess 0.5
        }
    }
    geometry IndexedFaceSet {
        ccw TRUE
        solid FALSE
        coord DEF co Coordinate {
            point [
                -1.4764 0.3154 0.748, -1.437 0.3154 0.748, -1.4764 0.3154 0.3346, -1.437 0.3154 0.0787, -1.9094 0.3154 0.3346, -1.9094 0.3154 0.0787, -1.3583 0.3154 0.0787, -1.3583 0.3154 0.748, -1.2992 0.3154 0.0787, -0.853 0.3154 0.748, -1.2992 0.3154 0.0197, -0.7218 0.3154 0.748, -0.4593 0.3154 0.748, -0.7218 0.3154 0.1378, -0.4593 0.3154 0.1378, -0.853 0.3154 0.1378, -0.081 0.3154 0.0197, -0.3281 0.3154 0.1378, -0.0656 0.3154 0.748, -0.0656 0.3154 0.1378, -0.3281 0.3154 0.748, 0.0656 0.3154 0.748, 0.3281 0.3154 0.748, 0.0656 0.3154 0.1378, 0.3281 0.3154 0.1378, 1.2992 0.3154 0.0197, 0.4593 0.3154 0.1378, 0.4593 0.3154 0.748, 0.7218 0.3154 0.748, 0.7218 0.3154 0.1378, 0.853 0.3154 0.1378, 1.2992 0.3154 0.0787, 0.853 0.3154 0.748, 1.3583 0.3154 0.0787, 1.3583 0.3154 0.748, -0.081 -1.4563 0.0197, 0.1654 -0.8438 0.0197, 1.2992 -1.4563 0.0197, 0.2612 -0.8438 0.0197, 1.2992 -0.6854 0.0197, 0.0845 -0.6854 0.0197, 0.0795 -0.686 0.0197, 0.0236 -0.6863 0.0197, 0.0704 -0.6896 0.0197, -0.0658 -0.7038 0.0197, 0.0024 -0.7038 0.0197, 0.0024 -0.7526 0.0197, 0.0622 -0.6954 0.0197, 0.0546 -0.7043 0.0197, 0.0493 -0.7148 0.0197, 0.0461 -0.7297 0.0197, 0.0457 -0.7425 0.0197, 0.0236 -0.8438 0.0197, 0.1181 -0.7234 0.0197, 0.122 -0.7393 0.0197, 0.0659 -0.7811 0.0197, 0.1239 -0.7683 0.0197, 0.0667 -0.7961 0.0197, 0.1216 -0.7972 0.0197, 0.2612 -0.6863 0.0197, 0.24 -0.6863 0.0197, 0.1002 -0.6854 0.0197, 0.0762 -0.8206 0.0197, 0.1181 -0.8091 0.0197, -0.081 -0.6854 0.0197, -0.0658 -0.6863 0.0197, 0.1024 -0.6856 0.0197, 0.0024 -0.7701 0.0197, 0.0024 -0.8263 0.0197, -0.0603 -0.7701 0.0197, -0.0704 -0.8263 0.0197, -0.0603 -0.7526 0.0197, 0.0724 -0.816 0.0197, 0.0694 -0.8094 0.0197, -0.0704 -0.8438 0.0197, 0.0982 -0.8275 0.0197, 0.0926 -0.8281 0.0197, 0.1034 -0.8257 0.0197, 0.1141 -0.8164 0.0197, 0.1084 -0.8225 0.0197, 0.0671 -0.727 0.0197, 0.0698 -0.7172 0.0197, 0.0903 -0.702 0.0197, 0.0724 -0.7121 0.0197, 0.0843 -0.7029 0.0197, 0.0756 -0.708 0.0197, 0.0797 -0.7049 0.0197, 0.0984 -0.7028 0.0197, 0.1037 -0.705 0.0197, 0.0659 -0.7425 0.0197, 0.1086 -0.7086 0.0197, 0.1133 -0.7142 0.0197, 0.1378 -0.7183 0.0197, 0.1299 -0.7043 0.0197, 0.0869 -0.8273 0.0197, 0.0818 -0.8251 0.0197, 0.0917 -0.7019 0.0197, 0.1211 -0.6949 0.0197, 0.112 -0.689 0.0197, 0.0447 -0.7811 0.0197, 0.0468 -0.8025 0.0197, 0.1654 -0.8263 0.0197, 0.1435 -0.7983 0.0197, 0.24 -0.8263 0.0197, 0.146 -0.7701 0.0197, 0.1436 -0.7391 0.0197, 0.051 -0.8172 0.0197, 0.0562 -0.8268 0.0197, 0.0643 -0.8354 0.0197, 0.0738 -0.8415 0.0197, 0.0831 -0.8447 0.0197, 0.0926 -0.8456 0.0197, 0.1323 -0.8253 0.0197, 0.1382 -0.8153 0.0197, 0.1048 -0.8441 0.0197, 0.115 -0.8402 0.0197, 0.124 -0.834 0.0197, 0.0917 -0.6845 0.0197, -0.1647 -0.6972 0.0197, -0.1728 -0.7044 0.0197, -0.2479 -0.6854 0.0197, -0.1795 -0.7143 0.0197, -0.1855 -0.7305 0.0197, -0.1837 -0.8047 0.0197, -0.1781 -0.817 0.0197, -0.2021 -0.8438 0.0197, -0.2242 -0.8438 0.0197, -0.1229 -0.6863 0.0197, -0.1401 -0.6877 0.0197, -0.1541 -0.6915 0.0197, -0.0916 -0.6863 0.0197, -0.0916 -0.8438 0.0197, -0.1229 -0.8438 0.0197, -0.1326 -0.8433 0.0197, -0.1499 -0.8394 0.0197, -0.1715 -0.8256 0.0197, -0.1623 -0.8331 0.0197, -0.1891 -0.7612 0.0197, -0.1892 -0.7655 0.0197, -0.1877 -0.7881 0.0197, -0.2481 -0.6845 0.0197, -0.2665 -0.6845 0.0197, -1.2992 -0.6854 0.0197, -0.2668 -0.6854 0.0197, -1.2992 -1.4563 0.0197, -0.3126 -0.8438 0.0197, -0.2905 -0.8438 0.0197, -0.2776 -0.795 0.0197, -0.2371 -0.795 0.0197, 1.752 -1.4563 0.8071, 1.752 -1.4563 0.748, 1.9095 -1.4563 0.748, 1.9095 -1.4563 0.3346, 2.1457 -1.4563 0.0787, 2.1457 -1.4563 0.8071, 1.752 -1.4563 0.1378, -1.752 -1.4563 0.1378, -1.2992 -1.4563 0.0787, -2.1457 -1.4563 0.0787, 1.2992 -1.4563 0.0787, -1.752 -1.4563 0.748, -1.752 -1.4563 0.8071, -1.9094 -1.4563 0.748, -2.1457 -1.4563 0.8071, -1.9094 -1.4563 0.3346, -1.752 -1.4563 0.3346, 1.752 -1.4563 0.3346, 1.437 0.3154 0.748, 1.4764 0.3154 0.748, 1.4764 0.3154 0.3346, 1.9095 0.3154 0.3346, 1.9095 0.3154 0.0787, 1.437 0.3154 0.0787, -2.1457 0.1579 0.8071, -1.752 -0.8657 0.8071, -1.3583 -0.8657 0.8071, 2.1457 0.1579 0.8071, 1.752 -0.8657 0.8071, 1.3583 -0.8657 0.8071, 1.3583 -0.9839 0.8071, -1.3583 -0.9839 0.8071, 0.4593 -0.9839 0.1378, 0.0656 -0.9839 0.1378, 0.3281 -0.9839 0.1378, 1.752 -0.8657 0.1378, 1.3583 -0.8657 0.1378, 1.3583 -0.9839 0.1378, 0.853 -0.9839 0.1378, -0.3281 -0.9839 0.1378, -0.4593 -0.9839 0.1378, -0.7218 -0.9839 0.1378, 0.7218 -0.9839 0.1378, -0.0656 -0.9839 0.1378, -1.3583 -0.8657 0.1378, -1.752 -0.8657 0.1378, -1.3583 -0.9839 0.1378, -0.853 -0.9839 0.1378, 0.4593 -0.9839 0.748, 0.3281 -0.9839 0.748, 0.4593 0.1579 0.748, 0.3281 0.1579 0.748, 0.0656 -0.9839 0.748, -0.0656 -0.9839 0.748, 0.0656 0.1579 0.748, -0.0656 0.1579 0.748, -0.3281 -0.9839 0.748, -0.4593 -0.9839 0.748, -0.3281 0.1579 0.748, -0.4593 0.1579 0.748, -0.7218 -0.9839 0.748, -0.853 -0.9839 0.748, -0.7218 0.1579 0.748, -0.853 0.1579 0.748, -2.1457 0.1579 0.0787, -1.9094 0.1579 0.0787, -1.3583 -0.6689 0.0787, -1.437 -0.6689 0.0787, -1.9094 0.1579 0.3346, -1.5157 0.1579 0.748, -1.9094 0.1579 0.748, 2.1457 0.1579 0.0787, 1.9095 0.1579 0.0787, 1.9095 0.1579 0.3346, 1.9095 0.1579 0.748, 1.5158 0.1579 0.748, -1.4764 0.1579 0.748, -1.4764 0.1579 0.3346, -1.5157 0.1579 0.3346, 1.5158 0.1579 0.3346, 1.4764 0.1579 0.3346, 1.4764 0.1579 0.748, 1.437 0.1579 0.748, 1.3583 0.1579 0.748, 0.853 0.1579 0.748, 0.7218 0.1579 0.748, -1.3583 0.1579 0.748, -1.437 0.1579 0.748, -1.752 -0.8657 0.3346, -1.5157 -0.8657 0.3346, -1.5157 -0.8657 0.748, -1.752 -0.8657 0.748, -1.3583 -0.6689 0.748, -1.437 -0.6689 0.748, 0.853 -0.9839 0.748, 0.7218 -0.9839 0.748, 1.3583 -0.6689 0.0787, 1.437 -0.6689 0.0787, 1.752 -0.8657 0.3346, 1.5158 -0.8657 0.3346, 1.5158 -0.8657 0.748, 1.752 -0.8657 0.748, 1.3583 -0.6689 0.748, 1.437 -0.6689 0.748
            ]
        }
        coordIndex [
            0,1,2,-1,2,1,3,-1,2,3,4,-1,4,3,5,-1,6,7,8,-1,8,7,9,-1,8,9,10,-1,11,12,13,-1,13,12,14,-1,9,15,10,-1,10,15,13,-1,10,13,16,-1,16,13,14,-1,16,14,17,-1,18,19,20,-1,20,19,17,-1,21,22,23,-1,23,22,24,-1,17,19,16,-1,16,19,23,-1,16,23,25,-1,25,23,24,-1,25,24,26,-1,27,28,26,-1,26,28,29,-1,26,29,25,-1,25,29,30,-1,25,30,31,-1,31,30,32,-1,31,32,33,-1,33,32,34,-1,35,36,37,-1,37,36,38,-1,37,38,39,-1,40,41,42,-1,42,41,43,-1,44,45,46,-1,43,47,42,-1,42,47,48,-1,42,48,49,-1,49,50,42,-1,42,50,51,-1,42,51,52,-1,53,54,55,-1,55,54,56,-1,55,56,57,-1,57,56,58,-1,59,60,61,-1,62,58,63,-1,64,65,44,-1,61,60,66,-1,67,68,69,-1,69,68,70,-1,69,70,71,-1,62,72,58,-1,58,72,73,-1,58,73,57,-1,46,71,44,-1,44,71,70,-1,44,70,64,-1,64,70,74,-1,64,74,35,-1,35,74,52,-1,63,75,76,-1,75,63,77,-1,77,63,78,-1,77,78,79,-1,80,81,82,-1,82,81,83,-1,82,83,84,-1,84,83,85,-1,84,85,86,-1,87,88,89,-1,89,88,90,-1,89,90,91,-1,60,92,93,-1,76,94,63,-1,63,94,95,-1,63,95,62,-1,80,82,89,-1,89,82,96,-1,89,96,87,-1,93,97,60,-1,60,97,98,-1,60,98,66,-1,91,53,89,-1,89,53,55,-1,89,55,51,-1,51,55,99,-1,51,99,52,-1,52,99,100,-1,101,102,103,-1,103,102,104,-1,103,104,60,-1,60,104,105,-1,60,105,92,-1,100,106,52,-1,52,106,107,-1,52,107,35,-1,35,107,108,-1,108,109,35,-1,35,109,110,-1,35,110,111,-1,36,112,101,-1,101,112,113,-1,101,113,102,-1,111,114,35,-1,35,114,115,-1,35,115,36,-1,36,115,116,-1,36,116,112,-1,38,59,39,-1,39,59,61,-1,39,61,25,-1,25,61,16,-1,61,117,16,-1,16,117,40,-1,16,40,64,-1,64,40,42,-1,64,42,65,-1,118,119,120,-1,120,119,121,-1,120,121,122,-1,123,124,125,-1,35,126,125,-1,127,128,120,-1,120,128,129,-1,120,129,118,-1,130,64,131,-1,131,64,35,-1,131,35,132,-1,132,35,125,-1,132,125,133,-1,133,125,134,-1,124,135,125,-1,125,135,136,-1,125,136,134,-1,122,137,120,-1,120,137,138,-1,120,138,125,-1,125,138,139,-1,125,139,123,-1,130,127,64,-1,64,127,120,-1,64,120,16,-1,16,120,140,-1,16,140,10,-1,10,140,141,-1,10,141,142,-1,142,141,143,-1,142,143,144,-1,144,143,145,-1,144,145,35,-1,35,145,146,-1,35,146,126,-1,126,146,147,-1,126,147,148,-1,149,150,151,-1,152,153,151,-1,151,153,154,-1,151,154,149,-1,155,156,157,-1,157,156,158,-1,35,37,159,-1,160,161,162,-1,162,161,163,-1,162,163,164,-1,164,163,158,-1,164,158,165,-1,165,158,156,-1,144,35,157,-1,157,35,159,-1,157,159,155,-1,155,159,153,-1,155,153,166,-1,166,153,152,-1,167,168,169,-1,170,171,169,-1,169,171,172,-1,169,172,167,-1,173,163,161,-1,161,174,173,-1,173,174,175,-1,173,175,176,-1,149,154,177,-1,177,154,176,-1,177,176,178,-1,178,176,175,-1,178,175,179,-1,179,175,180,-1,181,26,24,-1,156,155,182,-1,182,155,183,-1,184,185,155,-1,155,185,186,-1,155,186,187,-1,188,17,14,-1,189,190,156,-1,30,29,187,-1,187,29,191,-1,187,191,155,-1,155,191,181,-1,155,181,183,-1,183,181,24,-1,14,189,188,-1,188,189,156,-1,188,156,192,-1,192,156,182,-1,192,182,19,-1,19,182,23,-1,193,194,195,-1,195,194,156,-1,195,156,196,-1,196,156,190,-1,196,190,15,-1,15,190,13,-1,197,198,199,-1,199,198,200,-1,27,26,199,-1,199,26,181,-1,199,181,197,-1,198,183,200,-1,200,183,24,-1,200,24,22,-1,201,202,203,-1,203,202,204,-1,21,23,203,-1,203,23,182,-1,203,182,201,-1,202,192,204,-1,204,192,19,-1,204,19,18,-1,205,206,207,-1,207,206,208,-1,20,17,207,-1,207,17,188,-1,207,188,205,-1,206,189,208,-1,208,189,14,-1,208,14,12,-1,209,210,211,-1,211,210,212,-1,11,13,211,-1,211,13,190,-1,211,190,209,-1,210,196,212,-1,212,196,15,-1,212,15,9,-1,213,158,173,-1,173,158,163,-1,144,157,142,-1,142,157,8,-1,142,8,10,-1,158,213,157,-1,157,213,214,-1,6,8,215,-1,215,8,157,-1,215,157,216,-1,216,157,214,-1,216,214,3,-1,3,214,5,-1,4,5,217,-1,217,5,214,-1,218,219,173,-1,220,221,222,-1,173,219,213,-1,213,219,217,-1,213,217,214,-1,220,222,176,-1,176,222,223,-1,176,223,224,-1,225,226,227,-1,228,229,224,-1,224,229,230,-1,224,230,176,-1,176,230,231,-1,176,231,173,-1,231,232,173,-1,173,232,233,-1,173,233,234,-1,234,199,173,-1,173,199,200,-1,173,200,203,-1,203,204,173,-1,173,204,207,-1,173,207,208,-1,208,211,173,-1,173,211,212,-1,173,212,235,-1,227,218,225,-1,225,218,173,-1,225,173,236,-1,236,173,235,-1,227,226,2,-1,217,164,237,-1,237,164,165,-1,237,238,217,-1,217,238,227,-1,217,227,4,-1,4,227,2,-1,0,2,225,-1,225,2,226,-1,239,218,238,-1,238,218,227,-1,160,162,240,-1,240,162,219,-1,240,219,239,-1,239,219,218,-1,219,162,217,-1,217,162,164,-1,7,6,235,-1,235,6,215,-1,235,215,241,-1,242,216,236,-1,236,216,3,-1,236,3,1,-1,242,241,216,-1,216,241,215,-1,241,242,235,-1,235,242,236,-1,243,244,233,-1,233,244,234,-1,32,30,233,-1,233,30,187,-1,233,187,243,-1,244,191,234,-1,234,191,29,-1,234,29,28,-1,153,220,154,-1,154,220,176,-1,25,31,39,-1,39,31,159,-1,39,159,37,-1,221,220,153,-1,31,33,245,-1,246,172,171,-1,171,221,246,-1,246,221,153,-1,246,153,245,-1,245,153,159,-1,245,159,31,-1,171,170,221,-1,221,170,222,-1,166,152,247,-1,247,152,222,-1,169,229,170,-1,170,229,228,-1,170,228,222,-1,222,228,248,-1,222,248,247,-1,230,229,168,-1,168,229,169,-1,248,228,249,-1,249,228,224,-1,151,150,250,-1,249,224,250,-1,250,224,223,-1,250,223,151,-1,151,223,152,-1,152,223,222,-1,251,245,232,-1,232,245,33,-1,232,33,34,-1,167,172,231,-1,231,172,246,-1,231,246,252,-1,251,252,245,-1,245,252,246,-1,252,251,231,-1,231,251,232,-1,194,237,156,-1,156,237,165,-1,161,160,174,-1,174,160,240,-1,237,194,238,-1,238,194,193,-1,238,193,239,-1,239,193,175,-1,239,175,240,-1,240,175,174,-1,250,177,249,-1,249,177,178,-1,249,178,248,-1,248,178,185,-1,248,185,247,-1,247,185,184,-1,155,166,184,-1,184,166,247,-1,177,250,149,-1,149,250,150,-1,186,185,179,-1,179,185,178,-1,193,195,175,-1,175,195,180,-1,197,181,191,-1,187,186,243,-1,243,186,179,-1,243,179,244,-1,244,179,180,-1,195,196,180,-1,180,196,210,-1,180,210,209,-1,190,189,209,-1,209,189,206,-1,209,206,180,-1,180,206,205,-1,188,192,205,-1,205,192,202,-1,205,202,180,-1,180,202,201,-1,182,183,201,-1,201,183,198,-1,201,198,180,-1,180,198,197,-1,180,197,244,-1,244,197,191,-1,
        ]
    }
}
Shape{
    appearance Appearance {
        material  Material {
            diffuseColor 0.20784313725490197 0.20784313725490197 0.20784313725490197
            specularColor 0.01568627450980392 0.01568627450980392 0.01568627450980392
            ambientIntensity 0.298
            transparency 0.0
            shininess 0.5
        }
    }
    geometry IndexedFaceSet {
        ccw TRUE
        solid FALSE
        coord DEF co Coordinate {
            point [
                -0.2776 -0.795 0.0236, -0.2776 -0.795 0.0197, -0.2905 -0.8438 0.0236, -0.2905 -0.8438 0.0197, -0.2371 -0.795 0.0236, -0.2371 -0.795 0.0197, -0.2242 -0.8438 0.0236, -0.2242 -0.8438 0.0197, -0.2021 -0.8438 0.0236, -0.2021 -0.8438 0.0197, -0.2479 -0.6854 0.0197, -0.2481 -0.6845 0.0236, -0.2481 -0.6845 0.0197, -0.2665 -0.6845 0.0236, -0.2665 -0.6845 0.0197, -0.2668 -0.6854 0.0197, -0.3126 -0.8438 0.0236, -0.3126 -0.8438 0.0197, -0.2417 -0.7775 0.0236, -0.2564 -0.7213 0.0236, -0.273 -0.7775 0.0236, -0.2583 -0.7213 0.0236, -0.2564 -0.7213 0.0197, -0.2583 -0.7213 0.0197, -0.2417 -0.7775 0.0197, -0.273 -0.7775 0.0197, -0.0916 -0.8438 0.0236, -0.0916 -0.8438 0.0197, -0.1229 -0.8438 0.0236, -0.1229 -0.8438 0.0197, -0.0916 -0.6863 0.0236, -0.0916 -0.6863 0.0197, -0.1229 -0.6863 0.0236, -0.1229 -0.6863 0.0197, -0.1892 -0.7655 0.0236, -0.1892 -0.7655 0.0197, -0.1891 -0.7612 0.0197, -0.1891 -0.7612 0.0236, -0.1855 -0.7305 0.0197, -0.1855 -0.7305 0.0236, -0.1795 -0.7143 0.0197, -0.1795 -0.7143 0.0236, -0.1728 -0.7044 0.0197, -0.1728 -0.7044 0.0236, -0.1647 -0.6972 0.0197, -0.1647 -0.6972 0.0236, -0.1541 -0.6915 0.0197, -0.1541 -0.6915 0.0236, -0.1401 -0.6877 0.0197, -0.1401 -0.6877 0.0236, -0.1326 -0.8433 0.0197, -0.1326 -0.8433 0.0236, -0.1499 -0.8394 0.0197, -0.1499 -0.8394 0.0236, -0.1623 -0.8331 0.0197, -0.1623 -0.8331 0.0236, -0.1715 -0.8256 0.0197, -0.1715 -0.8256 0.0236, -0.1781 -0.817 0.0197, -0.1781 -0.817 0.0236, -0.1837 -0.8047 0.0197, -0.1837 -0.8047 0.0236, -0.1877 -0.7881 0.0197, -0.1877 -0.7881 0.0236, -0.1127 -0.7038 0.0236, -0.1127 -0.8263 0.0236, -0.1229 -0.8263 0.0236, -0.1353 -0.825 0.0236, -0.144 -0.8222 0.0236, -0.151 -0.8179 0.0236, -0.1564 -0.8125 0.0236, -0.1606 -0.8055 0.0236, -0.1647 -0.7926 0.0236, -0.1229 -0.7038 0.0236, -0.1264 -0.7039 0.0236, -0.1381 -0.7058 0.0236, -0.1462 -0.7092 0.0236, -0.1528 -0.7141 0.0236, -0.1579 -0.7202 0.0236, -0.1621 -0.7289 0.0236, -0.1656 -0.7435 0.0236, -0.1671 -0.7655 0.0236, -0.1127 -0.7038 0.0197, -0.1229 -0.7038 0.0197, -0.1127 -0.8263 0.0197, -0.1229 -0.8263 0.0197, -0.1671 -0.7655 0.0197, -0.1647 -0.7926 0.0197, -0.1606 -0.8055 0.0197, -0.1564 -0.8125 0.0197, -0.151 -0.8179 0.0197, -0.144 -0.8222 0.0197, -0.1353 -0.825 0.0197, -0.1264 -0.7039 0.0197, -0.1381 -0.7058 0.0197, -0.1462 -0.7092 0.0197, -0.1528 -0.7141 0.0197, -0.1579 -0.7202 0.0197, -0.1621 -0.7289 0.0197, -0.1656 -0.7435 0.0197, 0.0236 -0.6863 0.0236, 0.0236 -0.6863 0.0197, 0.0236 -0.8438 0.0236, 0.0236 -0.8438 0.0197, -0.0658 -0.6863 0.0236, -0.0658 -0.6863 0.0197, -0.0658 -0.7038 0.0236, -0.0658 -0.7038 0.0197, 0.0024 -0.7038 0.0236, 0.0024 -0.7038 0.0197, 0.0024 -0.7526 0.0236, 0.0024 -0.7526 0.0197, -0.0603 -0.7526 0.0236, -0.0603 -0.7526 0.0197, -0.0603 -0.7701 0.0236, -0.0603 -0.7701 0.0197, 0.0024 -0.7701 0.0236, 0.0024 -0.7701 0.0197, 0.0024 -0.8263 0.0236, 0.0024 -0.8263 0.0197, -0.0704 -0.8263 0.0236, -0.0704 -0.8263 0.0197, -0.0704 -0.8438 0.0236, -0.0704 -0.8438 0.0197, 0.146 -0.7701 0.0236, 0.146 -0.7701 0.0197, 0.1435 -0.7983 0.0197, 0.1435 -0.7983 0.0236, 0.1382 -0.8153 0.0197, 0.1382 -0.8153 0.0236, 0.1323 -0.8253 0.0197, 0.1323 -0.8253 0.0236, 0.124 -0.834 0.0197, 0.124 -0.834 0.0236, 0.115 -0.8402 0.0197, 0.115 -0.8402 0.0236, 0.1048 -0.8441 0.0197, 0.1048 -0.8441 0.0236, 0.0926 -0.8456 0.0197, 0.0926 -0.8456 0.0236, 0.0917 -0.6845 0.0197, 0.1002 -0.6854 0.0197, 0.0917 -0.6845 0.0236, 0.1024 -0.6856 0.0236, 0.1024 -0.6856 0.0197, 0.112 -0.689 0.0197, 0.112 -0.689 0.0236, 0.1211 -0.6949 0.0197, 0.1211 -0.6949 0.0236, 0.1299 -0.7043 0.0197, 0.1299 -0.7043 0.0236, 0.1378 -0.7183 0.0197, 0.1378 -0.7183 0.0236, 0.1436 -0.7391 0.0197, 0.1436 -0.7391 0.0236, 0.0845 -0.6854 0.0197, 0.0795 -0.686 0.0236, 0.0795 -0.686 0.0197, 0.0704 -0.6896 0.0236, 0.0704 -0.6896 0.0197, 0.0622 -0.6954 0.0236, 0.0622 -0.6954 0.0197, 0.0546 -0.7043 0.0236, 0.0546 -0.7043 0.0197, 0.0493 -0.7148 0.0236, 0.0493 -0.7148 0.0197, 0.0461 -0.7297 0.0236, 0.0461 -0.7297 0.0197, 0.0457 -0.7425 0.0236, 0.0457 -0.7425 0.0197, 0.0659 -0.7425 0.0236, 0.0659 -0.7425 0.0197, 0.0917 -0.7019 0.0236, 0.0917 -0.7019 0.0197, 0.0903 -0.702 0.0197, 0.0903 -0.702 0.0236, 0.0843 -0.7029 0.0197, 0.0843 -0.7029 0.0236, 0.0797 -0.7049 0.0197, 0.0797 -0.7049 0.0236, 0.0756 -0.708 0.0197, 0.0756 -0.708 0.0236, 0.0724 -0.7121 0.0197, 0.0724 -0.7121 0.0236, 0.0698 -0.7172 0.0197, 0.0698 -0.7172 0.0236, 0.0671 -0.727 0.0197, 0.0671 -0.727 0.0236, 0.1239 -0.7683 0.0236, 0.1239 -0.7683 0.0197, 0.122 -0.7393 0.0197, 0.122 -0.7393 0.0236, 0.1181 -0.7234 0.0197, 0.1181 -0.7234 0.0236, 0.1133 -0.7142 0.0197, 0.1133 -0.7142 0.0236, 0.1086 -0.7086 0.0197, 0.1086 -0.7086 0.0236, 0.1037 -0.705 0.0197, 0.1037 -0.705 0.0236, 0.0984 -0.7028 0.0197, 0.0984 -0.7028 0.0236, 0.0926 -0.8281 0.0236, 0.0926 -0.8281 0.0197, 0.0982 -0.8275 0.0197, 0.0982 -0.8275 0.0236, 0.1034 -0.8257 0.0197, 0.1034 -0.8257 0.0236, 0.1084 -0.8225 0.0197, 0.1084 -0.8225 0.0236, 0.1141 -0.8164 0.0197, 0.1141 -0.8164 0.0236, 0.1181 -0.8091 0.0197, 0.1181 -0.8091 0.0236, 0.1216 -0.7972 0.0197, 0.1216 -0.7972 0.0236, 0.0659 -0.7811 0.0236, 0.0659 -0.7811 0.0197, 0.0667 -0.7961 0.0197, 0.0667 -0.7961 0.0236, 0.0694 -0.8094 0.0197, 0.0694 -0.8094 0.0236, 0.0724 -0.816 0.0197, 0.0724 -0.816 0.0236, 0.0762 -0.8206 0.0197, 0.0762 -0.8206 0.0236, 0.0818 -0.8251 0.0197, 0.0818 -0.8251 0.0236, 0.0869 -0.8273 0.0197, 0.0869 -0.8273 0.0236, 0.0447 -0.7811 0.0236, 0.0447 -0.7811 0.0197, 0.0831 -0.8447 0.0197, 0.0831 -0.8447 0.0236, 0.0738 -0.8415 0.0197, 0.0738 -0.8415 0.0236, 0.0643 -0.8354 0.0197, 0.0643 -0.8354 0.0236, 0.0562 -0.8268 0.0197, 0.0562 -0.8268 0.0236, 0.051 -0.8172 0.0197, 0.051 -0.8172 0.0236, 0.0468 -0.8025 0.0197, 0.0468 -0.8025 0.0236, 0.2612 -0.6863 0.0236, 0.2612 -0.6863 0.0197, 0.2612 -0.8438 0.0236, 0.2612 -0.8438 0.0197, 0.24 -0.6863 0.0236, 0.24 -0.6863 0.0197, 0.24 -0.8263 0.0236, 0.24 -0.8263 0.0197, 0.1654 -0.8263 0.0236, 0.1654 -0.8263 0.0197, 0.1654 -0.8438 0.0236, 0.1654 -0.8438 0.0197
            ]
        }
        coordIndex [
            0,1,2,-1,2,1,3,-1,4,5,0,-1,0,5,1,-1,6,7,4,-1,4,7,5,-1,8,9,6,-1,6,9,7,-1,9,8,10,-1,10,8,11,-1,10,11,12,-1,13,14,11,-1,11,14,12,-1,14,13,15,-1,15,13,16,-1,15,16,17,-1,16,2,17,-1,17,2,3,-1,18,19,11,-1,20,16,13,-1,11,19,13,-1,13,19,21,-1,13,21,20,-1,8,6,4,-1,2,16,0,-1,0,16,20,-1,0,20,4,-1,4,20,18,-1,4,18,8,-1,8,18,11,-1,19,22,21,-1,21,22,23,-1,18,24,19,-1,19,24,22,-1,20,25,18,-1,18,25,24,-1,23,25,21,-1,21,25,20,-1,26,27,28,-1,28,27,29,-1,30,31,26,-1,26,31,27,-1,32,33,30,-1,30,33,31,-1,34,35,36,-1,34,36,37,-1,37,36,38,-1,37,38,39,-1,39,38,40,-1,39,40,41,-1,41,40,42,-1,41,42,43,-1,43,42,44,-1,43,44,45,-1,45,44,46,-1,45,46,47,-1,47,46,48,-1,47,48,49,-1,49,48,33,-1,49,33,32,-1,28,29,50,-1,28,50,51,-1,51,50,52,-1,51,52,53,-1,53,52,54,-1,53,54,55,-1,55,54,56,-1,55,56,57,-1,57,56,58,-1,57,58,59,-1,59,58,60,-1,59,60,61,-1,61,60,62,-1,61,62,63,-1,63,62,35,-1,63,35,34,-1,32,30,64,-1,64,30,65,-1,65,30,26,-1,65,26,66,-1,66,26,28,-1,66,28,67,-1,67,28,51,-1,67,51,68,-1,68,51,53,-1,68,53,69,-1,69,53,55,-1,69,55,70,-1,70,55,57,-1,70,57,71,-1,71,57,59,-1,71,59,72,-1,64,73,32,-1,32,73,74,-1,32,74,49,-1,49,74,75,-1,49,75,47,-1,47,75,76,-1,47,76,45,-1,45,76,77,-1,45,77,43,-1,43,77,78,-1,43,78,41,-1,41,78,79,-1,41,79,39,-1,39,79,80,-1,39,80,37,-1,37,80,81,-1,59,61,72,-1,72,61,63,-1,72,63,81,-1,81,63,34,-1,81,34,37,-1,64,82,73,-1,73,82,83,-1,65,84,64,-1,64,84,82,-1,66,85,65,-1,65,85,84,-1,81,86,87,-1,81,87,72,-1,72,87,88,-1,72,88,71,-1,71,88,89,-1,71,89,70,-1,70,89,90,-1,70,90,69,-1,69,90,91,-1,69,91,68,-1,68,91,92,-1,68,92,67,-1,67,92,85,-1,67,85,66,-1,73,83,93,-1,73,93,74,-1,74,93,94,-1,74,94,75,-1,75,94,95,-1,75,95,76,-1,76,95,96,-1,76,96,77,-1,77,96,97,-1,77,97,78,-1,78,97,98,-1,78,98,79,-1,79,98,99,-1,79,99,80,-1,80,99,86,-1,80,86,81,-1,100,101,102,-1,102,101,103,-1,104,105,100,-1,100,105,101,-1,106,107,104,-1,104,107,105,-1,108,109,106,-1,106,109,107,-1,110,111,108,-1,108,111,109,-1,112,113,110,-1,110,113,111,-1,114,115,112,-1,112,115,113,-1,116,117,114,-1,114,117,115,-1,118,119,116,-1,116,119,117,-1,120,121,118,-1,118,121,119,-1,122,123,120,-1,120,123,121,-1,122,102,123,-1,123,102,103,-1,102,122,120,-1,120,118,102,-1,102,118,116,-1,102,116,100,-1,106,104,108,-1,108,104,100,-1,108,100,110,-1,110,100,116,-1,110,116,112,-1,112,116,114,-1,124,125,126,-1,124,126,127,-1,127,126,128,-1,127,128,129,-1,129,128,130,-1,129,130,131,-1,131,130,132,-1,131,132,133,-1,133,132,134,-1,133,134,135,-1,135,134,136,-1,135,136,137,-1,137,136,138,-1,137,138,139,-1,140,141,142,-1,142,141,143,-1,141,144,143,-1,143,144,145,-1,143,145,146,-1,146,145,147,-1,146,147,148,-1,148,147,149,-1,148,149,150,-1,150,149,151,-1,150,151,152,-1,152,151,153,-1,152,153,154,-1,154,153,125,-1,154,125,124,-1,140,142,155,-1,155,142,156,-1,155,156,157,-1,157,156,158,-1,157,158,159,-1,159,158,160,-1,159,160,161,-1,161,160,162,-1,161,162,163,-1,163,162,164,-1,163,164,165,-1,165,164,166,-1,165,166,167,-1,167,166,168,-1,167,168,169,-1,170,171,168,-1,168,171,169,-1,172,173,174,-1,172,174,175,-1,175,174,176,-1,175,176,177,-1,177,176,178,-1,177,178,179,-1,179,178,180,-1,179,180,181,-1,181,180,182,-1,181,182,183,-1,183,182,184,-1,183,184,185,-1,185,184,186,-1,185,186,187,-1,187,186,171,-1,187,171,170,-1,188,189,190,-1,188,190,191,-1,191,190,192,-1,191,192,193,-1,193,192,194,-1,193,194,195,-1,195,194,196,-1,195,196,197,-1,197,196,198,-1,197,198,199,-1,199,198,200,-1,199,200,201,-1,201,200,173,-1,201,173,172,-1,202,203,204,-1,202,204,205,-1,205,204,206,-1,205,206,207,-1,207,206,208,-1,207,208,209,-1,209,208,210,-1,209,210,211,-1,211,210,212,-1,211,212,213,-1,213,212,214,-1,213,214,215,-1,215,214,189,-1,215,189,188,-1,216,217,218,-1,216,218,219,-1,219,218,220,-1,219,220,221,-1,221,220,222,-1,221,222,223,-1,223,222,224,-1,223,224,225,-1,225,224,226,-1,225,226,227,-1,227,226,228,-1,227,228,229,-1,229,228,203,-1,229,203,202,-1,230,231,216,-1,216,231,217,-1,139,138,232,-1,139,232,233,-1,233,232,234,-1,233,234,235,-1,235,234,236,-1,235,236,237,-1,237,236,238,-1,237,238,239,-1,239,238,240,-1,239,240,241,-1,241,240,242,-1,241,242,243,-1,243,242,231,-1,243,231,230,-1,170,168,187,-1,187,168,166,-1,187,166,185,-1,185,166,164,-1,185,164,183,-1,183,164,162,-1,183,162,181,-1,181,162,160,-1,181,160,179,-1,179,160,158,-1,179,158,177,-1,177,158,156,-1,177,156,175,-1,175,156,142,-1,230,216,243,-1,243,216,219,-1,243,219,241,-1,241,219,221,-1,241,221,239,-1,239,221,223,-1,239,223,237,-1,237,223,225,-1,237,225,235,-1,235,225,227,-1,235,227,233,-1,233,227,229,-1,233,229,139,-1,139,229,202,-1,139,202,137,-1,137,202,205,-1,137,205,135,-1,135,205,207,-1,135,207,133,-1,133,207,209,-1,133,209,131,-1,131,209,211,-1,131,211,129,-1,129,211,213,-1,129,213,127,-1,127,213,215,-1,127,215,124,-1,124,215,188,-1,124,188,154,-1,154,188,191,-1,154,191,152,-1,152,191,193,-1,152,193,150,-1,150,193,195,-1,150,195,148,-1,148,195,197,-1,148,197,146,-1,146,197,199,-1,146,199,143,-1,143,199,201,-1,143,201,142,-1,142,201,172,-1,142,172,175,-1,244,245,246,-1,246,245,247,-1,248,249,244,-1,244,249,245,-1,250,251,248,-1,248,251,249,-1,252,253,250,-1,250,253,251,-1,254,255,252,-1,252,255,253,-1,254,246,255,-1,255,246,247,-1,248,244,250,-1,250,244,246,-1,250,246,252,-1,252,246,254,-1,
        ]
    }
}
Shape{
    appearance Appearance {
        material  Material {
            diffuseColor 0.8431372549019608 0.8156862745098039 0.7529411764705882
            specularColor 0.25098039215686274 0.24313725490196078 0.22745098039215686
            ambientIntensity 0.8167
            transparency 0.0
            shininess 0.5
        }
    }
    geometry IndexedFaceSet {
        ccw TRUE
        solid FALSE
        coord DEF co Coordinate {
            point [
                -0.2564 -0.7213 0.0197, -0.2417 -0.7775 0.0197, -0.2583 -0.7213 0.0197, -0.273 -0.7775 0.0197, -0.1381 -0.7058 0.0197, -0.1264 -0.7039 0.0197, -0.1621 -0.7289 0.0197, -0.1127 -0.7038 0.0197, -0.1127 -0.8263 0.0197, -0.1229 -0.7038 0.0197, -0.1229 -0.8263 0.0197, -0.1647 -0.7926 0.0197, -0.1671 -0.7655 0.0197, -0.1656 -0.7435 0.0197, -0.1353 -0.825 0.0197, -0.144 -0.8222 0.0197, -0.1606 -0.8055 0.0197, -0.151 -0.8179 0.0197, -0.1564 -0.8125 0.0197, -0.1579 -0.7202 0.0197, -0.1528 -0.7141 0.0197, -0.1462 -0.7092 0.0197, 0.0656 0.1579 0.748, 0.3281 0.1579 0.748, 0.0656 0.3154 0.748, 0.3281 0.3154 0.748, -0.3281 0.1579 0.748, -0.0656 0.1579 0.748, -0.3281 0.3154 0.748, -0.0656 0.3154 0.748, -0.7218 0.1579 0.748, -0.4593 0.1579 0.748, -0.7218 0.3154 0.748, -0.4593 0.3154 0.748, -1.3583 0.1579 0.748, -0.853 0.1579 0.748, -1.3583 0.3154 0.748, -0.853 0.3154 0.748, 0.7218 0.1579 0.748, 0.7218 0.3154 0.748, 0.4593 0.1579 0.748, 0.4593 0.3154 0.748, -1.4764 0.1579 0.748, -1.437 0.1579 0.748, -1.4764 0.3154 0.748, -1.437 0.3154 0.748, 1.3583 0.1579 0.748, 1.3583 0.3154 0.748, 0.853 0.1579 0.748, 0.853 0.3154 0.748, 1.4764 0.3154 0.748, 1.437 0.3154 0.748, 1.4764 0.1579 0.748, 1.437 0.1579 0.748
            ]
        }
        coordIndex [
            0,1,2,-1,2,1,3,-1,4,5,6,-1,7,8,9,-1,9,8,10,-1,9,10,5,-1,11,12,10,-1,10,12,5,-1,5,12,13,-1,5,13,6,-1,10,14,11,-1,11,14,15,-1,11,15,16,-1,16,15,17,-1,16,17,18,-1,19,20,6,-1,6,20,21,-1,6,21,4,-1,22,23,24,-1,24,23,25,-1,26,27,28,-1,28,27,29,-1,30,31,32,-1,32,31,33,-1,34,35,36,-1,36,35,37,-1,38,39,40,-1,40,39,41,-1,42,43,44,-1,44,43,45,-1,46,47,48,-1,48,47,49,-1,50,51,52,-1,52,51,53,-1,
        ]
    }
}