#VRML V2.0 utf8
# 3D model generated by kicad-lcsc-manager
# Based on easyeda2kicad.py v1.0.1

Shape{
    appearance Appearance {
        material  Material {
            diffuseColor 0.25098039215686274 0.25098039215686274 0.25098039215686274
            specularColor 0.12549019607843137 0.12549019607843137 0.12549019607843137
            ambientIntensity 0.251
            transparency 0.0
            shininess 0.5
        }
    }
    geometry IndexedFaceSet {
        ccw TRUE
        solid FALSE
        coord DEF co Coordinate {
            point [
                2.4791 -0.4902 0.0812, 2.4791 -0.4902 0.0601, 2.5305 -0.4902 0.0601, 2.4791 -0.4902 0.1659, 2.4791 -0.4902 0.1503, 2.5305 -0.4902 0.1503, 2.5889 -0.4902 0.2136, 2.5889 -0.4902 0.1965, 2.6033 -0.4902 0.1965, 2.7076 -0.4902 0.1664, 2.7021 -0.4902 0.181, 2.6826 -0.4902 0.181, 2.5921 -0.4902 0.0815, 2.59 -0.4902 0.0812, 2.6033 -0.4902 0.0812, 2.5806 -0.4902 0.0813, 2.5789 -0.4902 0.0819, 2.5789 -0.4902 0.0812, 2.6557 -0.4902 0.1289, 2.6557 -0.4902 0.1118, 2.6657 -0.4902 0.1118, 2.4328 -0.4902 0.1781, 2.4431 -0.4902 0.1694, 2.4791 -0.4902 0.2202, 2.3905 -0.4902 0.2202, 2.3992 -0.4902 0.2143, 2.4118 -0.4902 0.1998, 2.4197 -0.4902 0.1843, 2.4215 -0.4902 0.1837, 2.3113 -0.4902 0.225, 2.3288 -0.4902 0.2317, 2.206 -0.4902 0.9843, 2.3476 -0.4902 0.2341, 2.4791 -0.4902 0.9843, 2.3632 -0.4902 0.2324, 2.3823 -0.4902 0.2257, 2.206 -0.4902 0.2202, 2.2616 -0.4902 0.2015, 2.2766 -0.4902 0.2033, 2.206 -0.4902 0.1659, 2.2205 -0.4902 0.1659, 2.2238 -0.4902 0.1734, 2.233 -0.4902 0.1851, 2.3035 -0.4902 0.2202, 2.302 -0.4902 0.2193, 2.2931 -0.4902 0.2116, 2.281 -0.4902 0.2031, 2.2853 -0.4902 0.2026, 2.2355 -0.4902 0.1875, 2.2476 -0.4902 0.196, 2.2614 -0.4902 0.0822, 2.2566 -0.4902 0.0837, 2.206 -0.4902 0.0812, 2.2429 -0.4902 0.0904, 2.2311 -0.4902 0.1005, 2.2224 -0.4902 0.1128, 2.217 -0.4902 0.1269, 2.206 -0.4902 0.1503, 2.2151 -0.4902 0.1418, 2.2152 -0.4902 0.1454, 2.2161 -0.4902 0.1503, 2.2178 -0.4902 0.1597, 2.2783 -0.4902 0.0615, 2.2709 -0.4902 0.0671, 2.206 -0.4902 0.0601, 2.2652 -0.4902 0.0741, 2.2619 -0.4902 0.0812, 2.2975 -0.4902 0.0564, 2.206 -0.4902 0.0, 2.3067 -0.4902 0.0576, 2.4791 -0.4902 0.0, 2.3132 -0.4902 0.0601, 2.2961 -0.4902 0.0565, 2.2871 -0.4902 0.0579, 2.2818 -0.4902 0.0601, 2.333 -0.4902 0.0812, 2.333 -0.4902 0.081, 2.3285 -0.4902 0.0725, 2.3227 -0.4902 0.0661, 2.3152 -0.4902 0.0608, 2.4555 -0.4902 0.147, 2.4573 -0.4902 0.1346, 2.3815 -0.4902 0.1036, 2.3841 -0.4902 0.1046, 2.3886 -0.4902 0.1263, 2.4432 -0.4902 0.0986, 2.4329 -0.4902 0.0898, 2.3259 -0.4902 0.1198, 2.3768 -0.4902 0.1464, 2.3193 -0.4902 0.1259, 2.3112 -0.4902 0.1302, 2.3792 -0.4902 0.102, 2.4508 -0.4902 0.1091, 2.4555 -0.4902 0.1211, 2.387 -0.4902 0.105, 2.3874 -0.4902 0.105, 2.3886 -0.4902 0.1047, 2.2422 -0.4902 0.1274, 2.2467 -0.4902 0.1198, 2.266 -0.4902 0.1158, 2.2535 -0.4902 0.1128, 2.2618 -0.4902 0.1077, 2.28 -0.4902 0.1284, 2.24 -0.4902 0.1503, 2.2722 -0.4902 0.123, 2.239 -0.4902 0.1426, 2.2395 -0.4902 0.1367, 2.2884 -0.4902 0.1316, 2.2975 -0.4902 0.1327, 2.3021 -0.4902 0.1325, 2.3753 -0.4902 0.0933, 2.3754 -0.4902 0.0947, 2.3354 -0.4902 0.0982, 2.3761 -0.4902 0.0976, 2.3776 -0.4902 0.1002, 2.3893 -0.4902 0.1046, 2.4064 -0.4902 0.1046, 2.4101 -0.4902 0.1051, 2.3842 -0.4902 0.0818, 2.3816 -0.4902 0.0828, 2.3792 -0.4902 0.0846, 2.3783 -0.4902 0.0855, 2.3766 -0.4902 0.0879, 2.3756 -0.4902 0.0904, 2.3352 -0.4902 0.0903, 2.3354 -0.4902 0.0944, 2.4213 -0.4902 0.0842, 2.4087 -0.4902 0.0815, 2.3863 -0.4902 0.0815, 2.4267 -0.4902 0.115, 2.4307 -0.4902 0.121, 2.4331 -0.4902 0.1279, 2.4337 -0.4902 0.1342, 2.4335 -0.4902 0.1377, 2.4171 -0.4902 0.1075, 2.4232 -0.4902 0.1115, 2.4041 -0.4902 0.1638, 2.4011 -0.4902 0.1638, 2.4288 -0.4902 0.1503, 2.4104 -0.4902 0.1632, 2.4317 -0.4902 0.145, 2.2402 -0.4902 0.1518, 2.2434 -0.4902 0.1603, 2.4281 -0.4902 0.1515, 2.4231 -0.4902 0.1569, 2.4171 -0.4902 0.1608, 2.3929 -0.4902 0.1867, 2.3843 -0.4902 0.1969, 2.2971 -0.4902 0.1748, 2.3834 -0.4902 0.1977, 2.3728 -0.4902 0.2051, 2.3029 -0.4902 0.1869, 2.2474 -0.4902 0.1659, 2.2945 -0.4902 0.1763, 2.4006 -0.4902 0.1659, 2.3987 -0.4902 0.1745, 2.286 -0.4902 0.1794, 2.277 -0.4902 0.1805, 2.2729 -0.4902 0.1803, 2.3114 -0.4902 0.197, 2.3609 -0.4902 0.2097, 2.3216 -0.4902 0.2044, 2.348 -0.4902 0.2113, 2.334 -0.4902 0.2095, 2.2636 -0.4902 0.1781, 2.2551 -0.4902 0.1736, 2.2487 -0.4902 0.1678, 2.4456 -0.4902 0.1659, 2.4509 -0.4902 0.1586, 2.4542 -0.4902 0.1503, 2.6763 -0.4902 0.1351, 2.6763 -0.4902 0.1289, 2.6826 -0.4902 0.1503, 2.6775 -0.4902 0.0878, 2.6826 -0.4902 0.0812, 2.6775 -0.4902 0.0817, 2.6657 -0.4902 0.0812, 2.6557 -0.4902 0.0878, 2.6657 -0.4902 0.0878, 2.6557 -0.4902 0.1057, 2.6657 -0.4902 0.1057, 2.6748 -0.4902 0.1057, 2.6748 -0.4902 0.1118, 2.6657 -0.4902 0.1289, 2.6657 -0.4902 0.0817, 2.6488 -0.4902 0.0817, 2.6452 -0.4902 0.0812, 2.6488 -0.4902 0.1351, 2.5388 -0.4902 0.0998, 2.5398 -0.4902 0.1106, 2.5374 -0.4902 0.0979, 2.5365 -0.4902 0.0956, 2.5758 -0.4902 0.0899, 2.5667 -0.4902 0.1062, 2.5758 -0.4902 0.083, 2.5667 -0.4902 0.0817, 2.5567 -0.4902 0.0837, 2.5543 -0.4902 0.0821, 2.56 -0.4902 0.0817, 2.5518 -0.4902 0.0812, 2.5337 -0.4902 0.0812, 2.5372 -0.4902 0.0866, 2.5364 -0.4902 0.0888, 2.5546 -0.4902 0.115, 2.5523 -0.4902 0.1152, 2.5487 -0.4902 0.1043, 2.5337 -0.4902 0.0601, 2.5443 -0.4902 0.0812, 2.5442 -0.4902 0.0812, 2.5416 -0.4902 0.0822, 2.5467 -0.4902 0.12, 2.5337 -0.4902 0.1503, 2.5416 -0.4902 0.1181, 2.5398 -0.4902 0.1171, 2.5408 -0.4902 0.1016, 2.5437 -0.4902 0.1031, 2.5446 -0.4902 0.1136, 2.5487 -0.4902 0.1149, 2.5394 -0.4902 0.0838, 2.5386 -0.4902 0.0845, 2.5784 -0.4902 0.0883, 2.5789 -0.4902 0.0881, 2.5789 -0.4902 0.1023, 2.5769 -0.4902 0.1141, 2.562 -0.4902 0.1182, 2.5638 -0.4902 0.1165, 2.56 -0.4902 0.0876, 2.5599 -0.4902 0.0876, 2.5588 -0.4902 0.086, 2.5662 -0.4902 0.1113, 2.5761 -0.4902 0.1069, 2.5761 -0.4902 0.1119, 2.5529 -0.4902 0.1207, 2.5569 -0.4902 0.1203, 2.5597 -0.4902 0.1195, 2.5361 -0.4902 0.0919, 2.5361 -0.4902 0.0927, 2.5651 -0.4902 0.1144, 2.5758 -0.4902 0.1095, 2.56 -0.4902 0.1059, 2.5598 -0.4902 0.1089, 2.5591 -0.4902 0.1112, 2.5583 -0.4902 0.1126, 2.5788 -0.4902 0.1023, 2.5777 -0.4902 0.1035, 2.5768 -0.4902 0.1049, 2.5573 -0.4902 0.1137, 2.5561 -0.4902 0.1145, 2.5817 -0.4902 0.0812, 2.5789 -0.4902 0.0601, 2.5861 -0.4902 0.0808, 2.6033 -0.4902 0.0601, 2.5997 -0.4902 0.119, 2.5997 -0.4902 0.1125, 2.5781 -0.4902 0.1159, 2.5789 -0.4902 0.1165, 2.5789 -0.4902 0.1503, 2.5801 -0.4902 0.1176, 2.582 -0.4902 0.1188, 2.6012 -0.4902 0.0894, 2.6004 -0.4902 0.0872, 2.5991 -0.4902 0.0855, 2.5857 -0.4902 0.1201, 2.5907 -0.4902 0.1207, 2.6033 -0.4902 0.1503, 2.5945 -0.4902 0.1204, 2.5993 -0.4902 0.0983, 2.6005 -0.4902 0.0965, 2.6013 -0.4902 0.0945, 2.6015 -0.4902 0.092, 2.5972 -0.4902 0.0838, 2.5956 -0.4902 0.0828, 2.59 -0.4902 0.1152, 2.588 -0.4902 0.1151, 2.5827 -0.4902 0.1101, 2.5862 -0.4902 0.1146, 2.5847 -0.4902 0.1138, 2.5828 -0.4902 0.1092, 2.583 -0.4902 0.1082, 2.5835 -0.4902 0.1073, 2.5842 -0.4902 0.1066, 2.5865 -0.4902 0.1051, 2.5944 -0.4902 0.1147, 2.5907 -0.4902 0.1033, 2.5982 -0.4902 0.1134, 2.5933 -0.4902 0.1022, 2.5977 -0.4902 0.0998, 2.5837 -0.4902 0.1129, 2.5832 -0.4902 0.1121, 2.5828 -0.4902 0.1112, 2.5826 -0.4902 0.0867, 2.5859 -0.4902 0.0984, 2.582 -0.4902 0.1003, 2.5868 -0.4902 0.0862, 2.5871 -0.4902 0.0862, 2.5903 -0.4902 0.0966, 2.5905 -0.4902 0.0866, 2.5947 -0.4902 0.0914, 2.5946 -0.4902 0.0922, 2.5922 -0.4902 0.0872, 2.5928 -0.4902 0.0876, 2.5936 -0.4902 0.0883, 2.5942 -0.4902 0.0892, 2.5945 -0.4902 0.0901, 2.5943 -0.4902 0.0933, 2.5938 -0.4902 0.0941, 2.5929 -0.4902 0.095, 2.7152 -0.4902 0.1664, 2.6826 -0.4902 0.1659, 2.8031 -0.4902 0.1659, 2.8031 -0.4902 0.2202, 2.6949 -0.4902 0.2197, 2.6826 -0.4902 0.2202, 2.6748 -0.4902 0.1664, 2.6672 -0.4902 0.1664, 2.6657 -0.4902 0.1659, 2.6799 -0.4902 0.181, 2.6657 -0.4902 0.2202, 2.6826 -0.4902 0.2067, 2.6875 -0.4902 0.2197, 2.6452 -0.4902 0.1659, 2.6444 -0.4902 0.1674, 2.6354 -0.4902 0.1664, 2.636 -0.4902 0.2197, 2.6452 -0.4902 0.2202, 2.6157 -0.4902 0.2202, 2.6157 -0.4902 0.1659, 2.6208 -0.4902 0.1664, 2.6208 -0.4902 0.2197, 2.6585 -0.4902 0.2103, 2.6617 -0.4902 0.2055, 2.6627 -0.4902 0.1838, 2.66 -0.4902 0.1783, 2.6562 -0.4902 0.2127, 2.6447 -0.4902 0.2187, 2.6452 -0.4902 0.2185, 2.6511 -0.4902 0.2162, 2.6505 -0.4902 0.1698, 2.6452 -0.4902 0.1677, 2.6562 -0.4902 0.1738, 2.6556 -0.4902 0.1733, 2.6635 -0.4902 0.2003, 2.6642 -0.4902 0.1937, 2.664 -0.4902 0.19, 2.6033 -0.4902 0.2202, 2.6095 -0.4902 0.2197, 2.6033 -0.4902 0.2197, 2.5889 -0.4902 0.1724, 2.6033 -0.4902 0.1724, 2.5889 -0.4902 0.1904, 2.6033 -0.4902 0.1904, 2.6079 -0.4902 0.1904, 2.6107 -0.4902 0.1724, 2.6079 -0.4902 0.1965, 2.6095 -0.4902 0.2136, 2.6033 -0.4902 0.2136, 2.582 -0.4902 0.1664, 2.5789 -0.4902 0.1659, 2.6033 -0.4902 0.1659, 2.6107 -0.4902 0.1664, 2.6033 -0.4902 0.1664, 2.582 -0.4902 0.2197, 2.5789 -0.4902 0.2202, 2.5641 -0.4902 0.2202, 2.566 -0.4902 0.22, 2.5713 -0.4902 0.2185, 2.5713 -0.4902 0.2112, 2.5713 -0.4902 0.1752, 2.5713 -0.4902 0.1686, 2.5704 -0.4902 0.1681, 2.5646 -0.4902 0.1662, 2.5612 -0.4902 0.1659, 2.5601 -0.4902 0.1717, 2.5661 -0.4902 0.1728, 2.5385 -0.4902 0.1919, 2.5385 -0.4902 0.1924, 2.5434 -0.4902 0.2076, 2.5409 -0.4902 0.2038, 2.5392 -0.4902 0.1991, 2.5649 -0.4902 0.2137, 2.5587 -0.4902 0.2144, 2.5563 -0.4902 0.2143, 2.5517 -0.4902 0.2134, 2.5394 -0.4902 0.1854, 2.5411 -0.4902 0.181, 2.5438 -0.4902 0.1772, 2.5486 -0.4902 0.1736, 2.5525 -0.4902 0.1721, 2.5575 -0.4902 0.1716, 2.5704 -0.4902 0.2117, 2.5476 -0.4902 0.2113, 2.5441 -0.4902 0.2085, 2.5451 -0.4902 0.176, 2.5543 -0.4902 0.2202, 2.5586 -0.4902 0.2206, 2.5337 -0.4902 0.9843, 2.5789 -0.4902 0.9843, 2.5591 -0.4902 0.2206, 2.5337 -0.4902 0.2202, 2.5519 -0.4902 0.2199, 2.5462 -0.4902 0.218, 2.5353 -0.4902 0.208, 2.539 -0.4902 0.2128, 2.5408 -0.4902 0.2145, 2.5337 -0.4902 0.1799, 2.5323 -0.4902 0.1835, 2.5305 -0.4902 0.1659, 2.5313 -0.4902 0.192, 2.5314 -0.4902 0.1953, 2.5305 -0.4902 0.2202, 2.5327 -0.4902 0.2022, 2.5337 -0.4902 0.2043, 2.5425 -0.4902 0.1692, 2.5382 -0.4902 0.1727, 2.5337 -0.4902 0.1659, 2.5376 -0.4902 0.1733, 2.5345 -0.4902 0.1779, 2.5565 -0.4902 0.1655, 2.5533 -0.4902 0.1656, 2.5518 -0.4902 0.1659, 2.5475 -0.4902 0.1668, 2.5516 -0.4902 0.0812, 2.5482 -0.4902 0.0808, 2.6347 -0.4902 0.1198, 2.6416 -0.4902 0.1198, 2.6452 -0.4902 0.1503, 2.6657 -0.4902 0.1351, 2.6657 -0.4902 0.1503, 2.6264 -0.4902 0.0812, 2.6224 -0.4902 0.0911, 2.6233 -0.4902 0.088, 2.6234 -0.4902 0.088, 2.6157 -0.4902 0.1503, 2.6157 -0.4902 0.1105, 2.6243 -0.4902 0.0911, 2.6237 -0.4902 0.0893, 2.6157 -0.4902 0.0926, 2.605 -0.4902 0.1198, 2.6125 -0.4902 0.1198, 2.6197 -0.4902 0.0812, 2.62 -0.4902 0.0818, 2.6157 -0.4902 0.0724, 2.6157 -0.4902 0.0724, 2.6157 -0.4902 0.0812, 2.617 -0.4902 0.0748, 2.6064 -0.4902 0.0702, 2.6064 -0.4902 0.0643, 2.6078 -0.4902 0.0698, 2.6102 -0.4902 0.0694, 2.6118 -0.4902 0.0696, 2.6157 -0.4902 0.0649, 2.6134 -0.4902 0.064, 2.6157 -0.4902 0.0601, 2.6107 -0.4902 0.0637, 2.6092 -0.4902 0.0638, 2.6132 -0.4902 0.0702, 2.6145 -0.4902 0.071, 2.6243 -0.4902 0.0759, 2.6213 -0.4902 0.07, 2.6452 -0.4902 0.0601, 2.6188 -0.4902 0.0671, 2.6184 -0.4902 0.0667, 2.616 -0.4902 0.065, 2.1969 -0.4902 0.0, 2.1969 -0.4902 0.0601, 2.1969 -0.4902 0.0812, 2.1969 -0.4902 0.1503, 2.1969 -0.4902 0.1659, 2.1969 -0.4902 0.2202, 2.1969 -0.4902 0.9843, 2.5291 -0.4902 0.1724, 2.5291 -0.4902 0.1664, 2.501 -0.4902 0.1664, 2.5079 -0.4902 0.2197, 2.5079 -0.4902 0.1724, 2.501 -0.4902 0.2197, 2.5305 -0.4902 0.0812, 2.5297 -0.4902 0.0817, 2.501 -0.4902 0.0817, 2.5297 -0.4902 0.0878, 2.5285 -0.4902 0.1289, 2.5079 -0.4902 0.1057, 2.5079 -0.4902 0.0878, 2.527 -0.4902 0.1057, 2.527 -0.4902 0.1118, 2.5079 -0.4902 0.1118, 2.5079 -0.4902 0.1289, 2.501 -0.4902 0.1351, 2.5285 -0.4902 0.1351, 2.5305 -0.4902 0.9843, 2.6033 -0.4902 0.9843, 2.6157 -0.4902 0.9843, 2.6452 -0.4902 0.9843, 2.6657 -0.4902 0.9843, 2.6826 -0.4902 0.9843, 2.8031 -0.4902 0.9843, 2.8031 -0.4902 0.1503, 2.8031 -0.4902 0.0812, 2.7023 -0.4902 0.0817, 2.6876 -0.4902 0.0817, 2.6876 -0.4902 0.1351, 2.7617 -0.4902 0.1351, 2.7821 -0.4902 0.0817, 2.7744 -0.4902 0.0817, 2.7295 -0.4902 0.0992, 2.7268 -0.4902 0.0937, 2.734 -0.4902 0.0817, 2.723 -0.4902 0.0891, 2.7544 -0.4902 0.1351, 2.7253 -0.4902 0.1257, 2.7285 -0.4902 0.1209, 2.7225 -0.4902 0.0887, 2.7173 -0.4902 0.0851, 2.7112 -0.4902 0.0827, 2.723 -0.4902 0.128, 2.7304 -0.4902 0.1156, 2.7311 -0.4902 0.109, 2.7309 -0.4902 0.1054, 2.7416 -0.4902 0.0817, 2.7468 -0.4902 0.0963, 2.769 -0.4902 0.0963, 2.7028 -0.4902 0.1351, 2.7116 -0.4902 0.134, 2.7179 -0.4902 0.1315, 2.6657 -0.4902 0.0601, 2.6826 -0.4902 0.0601, 2.8031 -0.4902 0.0601, 2.5305 -0.4902 0.0, 2.5337 -0.4902 0.0, 2.5789 -0.4902 0.0, 2.6033 -0.4902 0.0, 2.6157 -0.4902 0.0, 2.6452 -0.4902 0.0, 2.6657 -0.4902 0.0, 2.6826 -0.4902 0.0, 2.8031 -0.4902 0.0, 2.0 -0.2933 0.9843, 2.0 0.2972 0.9843, 2.374 -0.124 0.9843, 2.1969 0.4941 0.9843, 2.374 0.128 0.9843, 2.8031 0.4941 0.9843, 2.626 0.128 0.9843, 3.0 0.2972 0.9843, 2.626 -0.124 0.9843, 3.0 -0.2933 0.9843, 2.626 0.128 0.1181, 3.0 0.2972 0.1181, 2.626 -0.124 0.1181, 3.0 -0.2933 0.1181, 2.374 -0.124 0.1181, 2.0 -0.2933 0.1181, 2.374 0.128 0.1181, 2.0 0.2972 0.1181, 3.0 -0.2933 0.0, 2.0 -0.2933 0.0, 2.8031 0.4941 0.0, 2.1969 0.4941 0.0, 2.0 0.2972 0.0, 3.0 0.2972 0.0
            ]
        }
        coordIndex [
            0,1,2,-1,3,4,5,-1,6,7,8,-1,9,10,11,-1,12,13,14,-1,15,16,17,-1,18,19,20,-1,21,22,23,-1,23,22,3,-1,24,25,23,-1,23,25,26,-1,26,27,23,-1,23,27,28,-1,23,28,21,-1,29,30,31,-1,31,30,32,-1,31,32,33,-1,33,32,34,-1,33,34,35,-1,36,37,38,-1,39,40,36,-1,36,40,41,-1,36,41,42,-1,29,31,43,-1,43,31,36,-1,43,36,44,-1,44,36,38,-1,44,38,45,-1,45,38,46,-1,45,46,47,-1,42,48,36,-1,36,48,49,-1,36,49,37,-1,50,51,52,-1,52,51,53,-1,52,53,54,-1,54,55,52,-1,52,55,56,-1,52,56,57,-1,57,56,58,-1,58,59,57,-1,57,59,60,-1,57,60,39,-1,39,60,61,-1,39,61,40,-1,62,63,64,-1,64,63,65,-1,64,65,52,-1,52,65,66,-1,52,66,50,-1,67,68,69,-1,69,68,70,-1,69,70,71,-1,67,72,68,-1,68,72,73,-1,68,73,64,-1,64,73,74,-1,64,74,62,-1,0,75,1,-1,1,75,76,-1,1,76,77,-1,77,78,1,-1,1,78,79,-1,1,79,71,-1,80,81,4,-1,82,83,84,-1,85,86,0,-1,87,88,89,-1,89,88,90,-1,82,84,91,-1,85,0,92,-1,4,81,0,-1,0,81,93,-1,0,93,92,-1,83,94,84,-1,84,94,95,-1,84,95,96,-1,97,98,99,-1,99,98,100,-1,99,100,101,-1,102,103,104,-1,104,103,105,-1,104,105,99,-1,99,105,106,-1,99,106,97,-1,102,107,103,-1,103,107,108,-1,103,108,88,-1,88,108,109,-1,88,109,90,-1,110,111,112,-1,112,111,113,-1,112,113,84,-1,84,113,114,-1,84,114,91,-1,96,115,84,-1,84,115,116,-1,84,116,117,-1,118,119,75,-1,75,119,120,-1,75,120,121,-1,121,122,75,-1,75,122,123,-1,75,123,124,-1,124,123,110,-1,124,110,125,-1,125,110,112,-1,86,126,0,-1,0,126,127,-1,0,127,75,-1,75,127,128,-1,75,128,118,-1,129,130,84,-1,84,130,131,-1,84,131,88,-1,88,131,132,-1,88,132,133,-1,117,134,84,-1,84,134,135,-1,84,135,129,-1,136,137,138,-1,136,138,139,-1,133,140,88,-1,88,140,138,-1,88,138,103,-1,103,138,137,-1,103,137,141,-1,141,137,142,-1,143,144,138,-1,138,144,145,-1,138,145,139,-1,146,147,148,-1,147,149,148,-1,148,149,150,-1,148,150,151,-1,152,148,153,-1,142,137,152,-1,152,137,154,-1,152,154,148,-1,148,154,155,-1,148,155,146,-1,153,156,152,-1,152,156,157,-1,152,157,158,-1,151,150,159,-1,159,150,160,-1,159,160,161,-1,161,160,162,-1,161,162,163,-1,164,165,158,-1,158,165,166,-1,158,166,152,-1,22,167,3,-1,3,167,168,-1,3,168,4,-1,4,168,169,-1,4,169,80,-1,170,171,172,-1,172,171,173,-1,172,173,174,-1,174,173,175,-1,174,175,176,-1,177,178,179,-1,179,178,180,-1,180,178,181,-1,181,178,173,-1,181,173,182,-1,182,173,171,-1,182,171,20,-1,20,171,183,-1,20,183,18,-1,175,184,176,-1,176,184,185,-1,176,185,186,-1,186,185,187,-1,188,189,190,-1,190,189,191,-1,192,193,194,-1,194,193,195,-1,194,195,16,-1,196,197,198,-1,198,197,199,-1,198,199,195,-1,200,201,202,-1,203,204,205,-1,206,207,200,-1,200,207,208,-1,200,208,209,-1,210,211,212,-1,212,211,213,-1,188,214,189,-1,189,214,215,-1,189,215,216,-1,216,215,205,-1,216,205,217,-1,217,205,204,-1,209,218,200,-1,200,218,219,-1,200,219,201,-1,220,221,222,-1,223,224,225,-1,226,227,198,-1,198,227,228,-1,198,228,196,-1,229,193,230,-1,223,225,231,-1,210,232,211,-1,211,232,233,-1,211,233,234,-1,202,235,200,-1,200,235,236,-1,200,236,211,-1,211,236,191,-1,211,191,213,-1,213,191,189,-1,220,222,192,-1,225,237,231,-1,231,237,229,-1,231,229,238,-1,238,229,230,-1,239,240,205,-1,205,240,241,-1,205,241,242,-1,222,243,192,-1,192,243,244,-1,192,244,193,-1,193,244,245,-1,193,245,230,-1,242,246,205,-1,205,246,247,-1,205,247,203,-1,15,17,248,-1,248,17,249,-1,248,249,250,-1,250,249,13,-1,13,249,251,-1,13,251,14,-1,252,253,14,-1,254,255,256,-1,256,255,257,-1,256,257,258,-1,259,260,14,-1,14,260,261,-1,258,262,256,-1,256,262,263,-1,256,263,264,-1,264,263,265,-1,264,265,252,-1,266,267,253,-1,253,267,268,-1,253,268,14,-1,14,268,269,-1,14,269,259,-1,261,270,14,-1,14,270,271,-1,14,271,12,-1,272,273,274,-1,274,273,275,-1,274,275,276,-1,274,277,272,-1,272,277,278,-1,272,278,279,-1,279,280,272,-1,272,280,281,-1,272,281,282,-1,282,281,283,-1,282,283,284,-1,284,283,285,-1,284,285,253,-1,253,285,286,-1,253,286,266,-1,287,288,276,-1,276,288,289,-1,276,289,274,-1,290,291,221,-1,221,291,292,-1,221,292,222,-1,290,293,291,-1,291,293,294,-1,291,294,295,-1,295,294,296,-1,295,297,298,-1,296,299,295,-1,295,299,300,-1,295,300,301,-1,301,302,295,-1,295,302,303,-1,295,303,297,-1,298,304,295,-1,295,304,305,-1,295,305,306,-1,307,9,308,-1,309,310,311,-1,311,310,312,-1,313,314,315,-1,9,11,308,-1,308,11,316,-1,308,316,313,-1,315,314,317,-1,317,314,318,-1,317,318,312,-1,312,318,319,-1,312,319,311,-1,320,321,322,-1,323,324,325,-1,320,322,326,-1,326,322,327,-1,326,327,325,-1,325,327,328,-1,325,328,323,-1,329,330,317,-1,331,332,315,-1,329,317,333,-1,323,334,324,-1,324,334,335,-1,324,335,317,-1,317,335,336,-1,317,336,333,-1,315,337,320,-1,320,337,338,-1,320,338,321,-1,332,339,315,-1,315,339,340,-1,315,340,337,-1,330,341,317,-1,317,341,342,-1,317,342,315,-1,315,342,343,-1,315,343,331,-1,325,344,345,-1,345,344,346,-1,347,348,349,-1,349,348,350,-1,350,348,351,-1,351,348,352,-1,351,352,353,-1,353,352,354,-1,353,354,8,-1,8,354,355,-1,8,355,6,-1,356,357,358,-1,345,354,325,-1,325,354,352,-1,325,352,326,-1,326,352,359,-1,326,359,358,-1,358,359,360,-1,358,360,356,-1,346,344,361,-1,361,344,362,-1,361,362,356,-1,363,364,362,-1,362,364,365,-1,362,365,366,-1,367,368,357,-1,368,369,357,-1,357,369,370,-1,357,370,371,-1,372,373,374,-1,374,373,367,-1,374,367,375,-1,376,377,367,-1,367,377,378,-1,367,378,375,-1,379,380,367,-1,367,380,381,-1,367,381,382,-1,383,384,385,-1,386,387,374,-1,374,387,388,-1,374,388,372,-1,356,362,357,-1,357,362,366,-1,357,366,367,-1,367,366,389,-1,367,389,379,-1,382,390,367,-1,367,390,391,-1,367,391,376,-1,383,385,374,-1,374,385,392,-1,374,392,386,-1,393,394,395,-1,395,394,396,-1,396,394,397,-1,396,397,363,-1,393,398,399,-1,399,398,400,-1,401,402,398,-1,398,402,403,-1,398,403,400,-1,404,405,406,-1,407,408,409,-1,409,408,410,-1,409,410,398,-1,398,410,411,-1,398,411,401,-1,412,413,414,-1,414,413,415,-1,414,415,416,-1,417,418,211,-1,211,418,419,-1,211,419,414,-1,414,419,420,-1,414,420,412,-1,224,223,234,-1,234,223,254,-1,234,254,211,-1,211,254,256,-1,211,256,417,-1,16,195,17,-1,17,195,199,-1,17,199,249,-1,249,199,421,-1,249,421,206,-1,206,421,422,-1,206,422,207,-1,423,424,425,-1,170,172,426,-1,426,172,427,-1,426,427,187,-1,187,427,425,-1,187,425,186,-1,186,425,424,-1,186,424,428,-1,429,430,431,-1,425,432,423,-1,423,432,433,-1,423,433,434,-1,434,433,429,-1,434,429,435,-1,435,429,431,-1,436,437,14,-1,252,14,264,-1,264,14,437,-1,264,437,432,-1,432,437,438,-1,432,438,433,-1,439,440,436,-1,441,442,443,-1,443,442,444,-1,443,444,439,-1,439,436,443,-1,443,436,14,-1,443,14,445,-1,445,14,251,-1,445,251,446,-1,445,447,443,-1,443,447,448,-1,443,448,449,-1,450,451,452,-1,452,451,453,-1,452,453,251,-1,251,453,454,-1,251,454,446,-1,449,455,443,-1,443,455,456,-1,443,456,441,-1,457,458,459,-1,457,459,428,-1,458,460,459,-1,459,460,461,-1,459,461,452,-1,452,461,462,-1,452,462,450,-1,463,68,464,-1,464,68,64,-1,464,64,465,-1,465,64,52,-1,465,52,466,-1,466,52,57,-1,466,57,467,-1,467,57,39,-1,467,39,468,-1,468,39,36,-1,468,36,469,-1,469,36,31,-1,470,471,406,-1,406,471,472,-1,473,409,23,-1,405,407,406,-1,406,407,409,-1,406,409,470,-1,470,409,473,-1,470,473,474,-1,5,406,3,-1,3,406,472,-1,3,472,23,-1,23,472,475,-1,23,475,473,-1,476,477,478,-1,477,476,479,-1,479,476,5,-1,479,5,480,-1,481,482,483,-1,483,482,479,-1,483,479,484,-1,484,479,480,-1,484,480,485,-1,485,480,486,-1,2,476,0,-1,0,476,478,-1,0,478,4,-1,4,478,487,-1,4,487,5,-1,5,487,488,-1,5,488,480,-1,393,395,398,-1,398,395,489,-1,398,489,409,-1,409,489,33,-1,409,33,23,-1,23,33,35,-1,23,35,24,-1,2,206,476,-1,476,206,200,-1,476,200,5,-1,5,200,211,-1,5,211,406,-1,406,211,414,-1,406,414,404,-1,404,414,416,-1,172,315,427,-1,427,315,320,-1,427,320,425,-1,425,320,326,-1,425,326,432,-1,432,326,358,-1,432,358,264,-1,264,358,357,-1,264,357,256,-1,256,357,371,-1,256,371,417,-1,363,362,396,-1,396,362,344,-1,396,344,490,-1,490,344,325,-1,490,325,491,-1,491,325,324,-1,491,324,492,-1,492,324,317,-1,492,317,493,-1,493,317,312,-1,493,312,494,-1,494,312,310,-1,494,310,495,-1,311,307,309,-1,309,307,308,-1,309,308,496,-1,497,498,174,-1,174,498,499,-1,174,499,172,-1,172,499,500,-1,496,501,497,-1,497,501,502,-1,497,502,503,-1,504,505,506,-1,506,505,507,-1,313,315,308,-1,308,315,172,-1,308,172,496,-1,496,172,508,-1,496,508,501,-1,509,510,508,-1,507,511,506,-1,506,511,512,-1,506,512,513,-1,509,508,514,-1,510,515,508,-1,508,515,516,-1,508,516,506,-1,506,516,517,-1,506,517,504,-1,513,498,506,-1,506,498,497,-1,506,497,518,-1,518,497,503,-1,518,503,519,-1,519,503,520,-1,500,521,172,-1,172,521,522,-1,172,522,508,-1,508,522,523,-1,508,523,514,-1,428,459,186,-1,186,459,524,-1,186,524,176,-1,176,524,525,-1,176,525,174,-1,174,525,526,-1,174,526,497,-1,71,70,1,-1,1,70,527,-1,1,527,2,-1,2,527,528,-1,2,528,206,-1,206,528,529,-1,206,529,249,-1,249,529,530,-1,249,530,251,-1,251,530,531,-1,251,531,452,-1,452,531,532,-1,452,532,459,-1,459,532,533,-1,459,533,524,-1,524,533,534,-1,524,534,525,-1,525,534,535,-1,525,535,526,-1,536,469,537,-1,537,469,538,-1,537,538,539,-1,539,538,540,-1,539,540,541,-1,541,540,542,-1,541,542,543,-1,543,542,544,-1,543,544,545,-1,469,31,538,-1,538,31,33,-1,538,33,544,-1,544,33,489,-1,489,395,544,-1,544,395,396,-1,544,396,490,-1,490,491,544,-1,544,491,492,-1,544,492,493,-1,493,494,544,-1,544,494,495,-1,544,495,545,-1,546,547,548,-1,548,547,549,-1,548,549,550,-1,550,549,551,-1,550,551,552,-1,552,551,553,-1,552,553,546,-1,546,553,547,-1,543,545,547,-1,547,545,549,-1,536,537,551,-1,551,537,553,-1,554,535,555,-1,555,535,463,-1,556,557,541,-1,541,557,539,-1,558,557,559,-1,559,557,556,-1,555,463,551,-1,551,463,469,-1,551,469,536,-1,545,495,549,-1,549,495,535,-1,549,535,554,-1,559,556,547,-1,547,556,541,-1,547,541,543,-1,537,539,553,-1,553,539,557,-1,553,557,558,-1,551,549,555,-1,555,549,554,-1,547,553,559,-1,559,553,558,-1,
        ]
    }
}
Shape{
    appearance Appearance {
        material  Material {
            diffuseColor 0.7529411764705882 0.7529411764705882 0.7529411764705882
            specularColor 0.3764705882352941 0.3764705882352941 0.3764705882352941
            ambientIntensity 0.7529
            transparency 0.0
            shininess 0.5
        }
    }
    geometry IndexedFaceSet {
        ccw TRUE
        solid FALSE
        coord DEF co Coordinate {
            point [
                2.5687 -0.0667 -1.1811, 2.4313 -0.0667 -1.1811, 2.5687 0.0706 -1.1811, 2.4313 0.0706 -1.1811, 2.374 0.128 -1.0236, 2.374 0.128 0.1181, 2.626 0.128 -1.0236, 2.626 0.128 0.1181, 2.626 -0.124 -1.0236, 2.626 -0.124 0.1181, 2.374 -0.124 -1.0236, 2.374 -0.124 0.1181, 2.626 -0.124 3.189, 2.626 -0.124 0.9843, 2.626 0.128 3.189, 2.626 0.128 0.9843, 2.374 0.128 3.189, 2.374 0.128 0.9843, 2.374 -0.124 3.189, 2.374 -0.124 0.9843, 2.4313 -0.0667 3.3465, 2.5687 -0.0667 3.3465, 2.4313 0.0706 3.3465, 2.5687 0.0706 3.3465
            ]
        }
        coordIndex [
            0,1,2,-1,2,1,3,-1,4,5,6,-1,6,5,7,-1,8,9,10,-1,10,9,11,-1,10,11,4,-1,4,11,5,-1,6,7,8,-1,8,7,9,-1,12,13,14,-1,14,13,15,-1,16,17,18,-1,18,17,19,-1,14,15,16,-1,16,15,17,-1,18,19,12,-1,12,19,13,-1,20,21,22,-1,22,21,23,-1,4,3,10,-1,10,3,1,-1,6,2,4,-1,4,2,3,-1,0,8,1,-1,1,8,10,-1,8,0,6,-1,6,0,2,-1,14,23,12,-1,12,23,21,-1,16,22,14,-1,14,22,23,-1,20,18,21,-1,21,18,12,-1,18,20,16,-1,16,20,22,-1,
        ]
    }
}
Shape{
    appearance Appearance {
        material  Material {
            diffuseColor 1.0 1.0 1.0
            specularColor 0.5019607843137255 0.5019607843137255 0.5019607843137255
            ambientIntensity 1.0
            transparency 0.0
            shininess 0.5
        }
    }
    geometry IndexedFaceSet {
        ccw TRUE
        solid FALSE
        coord DEF co Coordinate {
            point [
                2.5291 -0.4941 0.1724, 2.5291 -0.4941 0.1664, 2.5291 -0.4902 0.1724, 2.5291 -0.4902 0.1664, 2.5079 -0.4941 0.1724, 2.5079 -0.4902 0.1724, 2.5079 -0.4941 0.2197, 2.5079 -0.4902 0.2197, 2.501 -0.4941 0.2197, 2.501 -0.4902 0.2197, 2.501 -0.4941 0.1664, 2.501 -0.4902 0.1664, 2.5565 -0.4941 0.1655, 2.5565 -0.4902 0.1655, 2.5646 -0.4941 0.1662, 2.5612 -0.4902 0.1659, 2.5646 -0.4902 0.1662, 2.5704 -0.4902 0.1681, 2.5704 -0.4941 0.1681, 2.5713 -0.4902 0.1686, 2.5713 -0.4941 0.1686, 2.5713 -0.4941 0.1752, 2.5713 -0.4902 0.1752, 2.5661 -0.4902 0.1728, 2.5661 -0.4941 0.1728, 2.5601 -0.4902 0.1717, 2.5601 -0.4941 0.1717, 2.5575 -0.4902 0.1716, 2.5575 -0.4941 0.1716, 2.5525 -0.4902 0.1721, 2.5525 -0.4941 0.1721, 2.5486 -0.4902 0.1736, 2.5486 -0.4941 0.1736, 2.5451 -0.4902 0.176, 2.5451 -0.4941 0.176, 2.5438 -0.4902 0.1772, 2.5438 -0.4941 0.1772, 2.5411 -0.4902 0.181, 2.5411 -0.4941 0.181, 2.5394 -0.4902 0.1854, 2.5394 -0.4941 0.1854, 2.5385 -0.4902 0.1919, 2.5385 -0.4941 0.1919, 2.5385 -0.4902 0.1924, 2.5385 -0.4941 0.1924, 2.5392 -0.4902 0.1991, 2.5392 -0.4941 0.1991, 2.5409 -0.4902 0.2038, 2.5409 -0.4941 0.2038, 2.5434 -0.4902 0.2076, 2.5434 -0.4941 0.2076, 2.5441 -0.4902 0.2085, 2.5441 -0.4941 0.2085, 2.5476 -0.4902 0.2113, 2.5476 -0.4941 0.2113, 2.5517 -0.4902 0.2134, 2.5517 -0.4941 0.2134, 2.5563 -0.4902 0.2143, 2.5563 -0.4941 0.2143, 2.5587 -0.4902 0.2144, 2.5587 -0.4941 0.2144, 2.5649 -0.4902 0.2137, 2.5649 -0.4941 0.2137, 2.5704 -0.4902 0.2117, 2.5704 -0.4941 0.2117, 2.5713 -0.4902 0.2112, 2.5713 -0.4941 0.2112, 2.5713 -0.4941 0.2185, 2.5713 -0.4902 0.2185, 2.5586 -0.4902 0.2206, 2.5586 -0.4941 0.2206, 2.5591 -0.4941 0.2206, 2.566 -0.4902 0.22, 2.566 -0.4941 0.22, 2.5641 -0.4902 0.2202, 2.5591 -0.4902 0.2206, 2.5519 -0.4941 0.2199, 2.5543 -0.4902 0.2202, 2.5519 -0.4902 0.2199, 2.5462 -0.4902 0.218, 2.5462 -0.4941 0.218, 2.5408 -0.4902 0.2145, 2.5408 -0.4941 0.2145, 2.539 -0.4902 0.2128, 2.539 -0.4941 0.2128, 2.5353 -0.4902 0.208, 2.5337 -0.4902 0.2043, 2.5327 -0.4941 0.2022, 2.5353 -0.4941 0.208, 2.5327 -0.4902 0.2022, 2.5314 -0.4902 0.1953, 2.5314 -0.4941 0.1953, 2.5313 -0.4902 0.192, 2.5313 -0.4941 0.192, 2.5323 -0.4902 0.1835, 2.5323 -0.4941 0.1835, 2.5337 -0.4902 0.1799, 2.5345 -0.4941 0.1779, 2.5345 -0.4902 0.1779, 2.5376 -0.4902 0.1733, 2.5376 -0.4941 0.1733, 2.5382 -0.4902 0.1727, 2.5382 -0.4941 0.1727, 2.5533 -0.4941 0.1656, 2.5425 -0.4902 0.1692, 2.5425 -0.4941 0.1692, 2.5475 -0.4902 0.1668, 2.5475 -0.4941 0.1668, 2.5518 -0.4902 0.1659, 2.5533 -0.4902 0.1656, 2.6107 -0.4941 0.1724, 2.6107 -0.4941 0.1664, 2.6107 -0.4902 0.1724, 2.6107 -0.4902 0.1664, 2.5889 -0.4902 0.1724, 2.5889 -0.4941 0.1724, 2.6033 -0.4902 0.1724, 2.5889 -0.4941 0.1904, 2.5889 -0.4902 0.1904, 2.6079 -0.4941 0.1904, 2.6033 -0.4902 0.1904, 2.6079 -0.4902 0.1904, 2.6079 -0.4941 0.1965, 2.6079 -0.4902 0.1965, 2.5889 -0.4902 0.1965, 2.5889 -0.4941 0.1965, 2.6033 -0.4902 0.1965, 2.5889 -0.4941 0.2136, 2.5889 -0.4902 0.2136, 2.6095 -0.4941 0.2136, 2.6033 -0.4902 0.2136, 2.6095 -0.4902 0.2136, 2.6095 -0.4941 0.2197, 2.6095 -0.4902 0.2197, 2.582 -0.4902 0.2197, 2.582 -0.4941 0.2197, 2.6033 -0.4902 0.2197, 2.582 -0.4941 0.1664, 2.582 -0.4902 0.1664, 2.6033 -0.4902 0.1664, 2.6568 -0.4941 0.1905, 2.664 -0.4941 0.19, 2.657 -0.4941 0.1935, 2.6642 -0.4941 0.1937, 2.6563 -0.4941 0.1999, 2.6635 -0.4941 0.2003, 2.6548 -0.4941 0.2038, 2.6617 -0.4941 0.2055, 2.6528 -0.4941 0.2069, 2.6585 -0.4941 0.2103, 2.6511 -0.4941 0.2086, 2.6562 -0.4941 0.2127, 2.647 -0.4941 0.2113, 2.6511 -0.4941 0.2162, 2.6423 -0.4941 0.2129, 2.6447 -0.4941 0.2187, 2.6357 -0.4941 0.2136, 2.636 -0.4941 0.2197, 2.6276 -0.4941 0.2136, 2.6208 -0.4941 0.2197, 2.6276 -0.4941 0.1724, 2.6208 -0.4941 0.1664, 2.6354 -0.4941 0.1724, 2.6354 -0.4941 0.1664, 2.6421 -0.4941 0.1731, 2.6444 -0.4941 0.1674, 2.6467 -0.4941 0.1748, 2.6505 -0.4941 0.1698, 2.6502 -0.4941 0.1771, 2.6556 -0.4941 0.1733, 2.6513 -0.4941 0.178, 2.6562 -0.4941 0.1738, 2.6541 -0.4941 0.1815, 2.66 -0.4941 0.1783, 2.6558 -0.4941 0.1855, 2.6627 -0.4941 0.1838, 2.6354 -0.4902 0.1664, 2.6208 -0.4902 0.1664, 2.6444 -0.4902 0.1674, 2.6452 -0.4902 0.1677, 2.6505 -0.4902 0.1698, 2.6556 -0.4902 0.1733, 2.6562 -0.4902 0.1738, 2.66 -0.4902 0.1783, 2.6627 -0.4902 0.1838, 2.664 -0.4902 0.19, 2.6642 -0.4902 0.1937, 2.6635 -0.4902 0.2003, 2.6617 -0.4902 0.2055, 2.6585 -0.4902 0.2103, 2.6562 -0.4902 0.2127, 2.636 -0.4902 0.2197, 2.6511 -0.4902 0.2162, 2.6452 -0.4902 0.2185, 2.6447 -0.4902 0.2187, 2.6208 -0.4902 0.2197, 2.6357 -0.4902 0.2136, 2.6276 -0.4902 0.2136, 2.6276 -0.4902 0.1724, 2.6354 -0.4902 0.1724, 2.6513 -0.4902 0.178, 2.6502 -0.4902 0.1771, 2.6467 -0.4902 0.1748, 2.6421 -0.4902 0.1731, 2.657 -0.4902 0.1935, 2.6568 -0.4902 0.1905, 2.6558 -0.4902 0.1855, 2.6541 -0.4902 0.1815, 2.6511 -0.4902 0.2086, 2.6528 -0.4902 0.2069, 2.6548 -0.4902 0.2038, 2.6563 -0.4902 0.1999, 2.6423 -0.4902 0.2129, 2.647 -0.4902 0.2113
            ]
        }
        coordIndex [
            0,1,2,-1,2,1,3,-1,4,0,5,-1,5,0,2,-1,6,4,7,-1,7,4,5,-1,8,6,9,-1,9,6,7,-1,10,8,11,-1,11,8,9,-1,1,10,3,-1,3,10,11,-1,6,8,4,-1,4,8,10,-1,4,10,0,-1,0,10,1,-1,12,13,14,-1,14,13,15,-1,15,16,14,-1,14,16,17,-1,14,17,18,-1,18,17,19,-1,18,19,20,-1,21,20,22,-1,22,20,19,-1,21,22,23,-1,21,23,24,-1,24,23,25,-1,24,25,26,-1,26,25,27,-1,26,27,28,-1,28,27,29,-1,28,29,30,-1,30,29,31,-1,30,31,32,-1,32,31,33,-1,32,33,34,-1,34,33,35,-1,34,35,36,-1,36,35,37,-1,36,37,38,-1,38,37,39,-1,38,39,40,-1,40,39,41,-1,40,41,42,-1,42,41,43,-1,42,43,44,-1,44,43,45,-1,44,45,46,-1,46,45,47,-1,46,47,48,-1,48,47,49,-1,48,49,50,-1,50,49,51,-1,50,51,52,-1,52,51,53,-1,52,53,54,-1,54,53,55,-1,54,55,56,-1,56,55,57,-1,56,57,58,-1,58,57,59,-1,58,59,60,-1,60,59,61,-1,60,61,62,-1,62,61,63,-1,62,63,64,-1,64,63,65,-1,64,65,66,-1,67,66,68,-1,68,66,65,-1,69,70,71,-1,67,68,72,-1,67,72,73,-1,73,72,74,-1,73,74,71,-1,71,74,75,-1,71,75,69,-1,70,69,76,-1,76,69,77,-1,77,78,76,-1,76,78,79,-1,76,79,80,-1,80,79,81,-1,80,81,82,-1,82,81,83,-1,82,83,84,-1,84,83,85,-1,86,87,85,-1,85,87,88,-1,85,88,84,-1,86,89,87,-1,87,89,90,-1,87,90,91,-1,91,90,92,-1,91,92,93,-1,93,92,94,-1,93,94,95,-1,95,94,96,-1,95,96,97,-1,96,98,97,-1,97,98,99,-1,97,99,100,-1,100,99,101,-1,100,101,102,-1,13,12,103,-1,102,101,104,-1,102,104,105,-1,105,104,106,-1,105,106,107,-1,107,106,108,-1,107,108,103,-1,103,108,109,-1,103,109,13,-1,64,66,67,-1,38,40,95,-1,46,48,88,-1,95,40,93,-1,88,48,84,-1,64,67,62,-1,62,67,73,-1,62,73,60,-1,60,73,71,-1,60,71,58,-1,58,71,70,-1,58,70,56,-1,56,70,76,-1,56,76,54,-1,76,80,54,-1,54,80,82,-1,54,82,52,-1,52,82,84,-1,52,84,50,-1,50,84,48,-1,95,97,38,-1,38,97,100,-1,38,100,36,-1,36,100,102,-1,36,102,34,-1,34,102,105,-1,34,105,32,-1,32,105,107,-1,32,107,30,-1,30,107,103,-1,30,103,28,-1,28,103,12,-1,28,12,26,-1,26,12,14,-1,26,14,24,-1,24,14,18,-1,24,18,21,-1,21,18,20,-1,40,42,93,-1,93,42,44,-1,93,44,91,-1,91,44,46,-1,91,46,87,-1,87,46,88,-1,110,111,112,-1,112,111,113,-1,114,115,116,-1,116,115,110,-1,116,110,112,-1,117,115,118,-1,118,115,114,-1,117,118,119,-1,119,118,120,-1,119,120,121,-1,122,119,123,-1,123,119,121,-1,124,125,126,-1,126,125,122,-1,126,122,123,-1,127,125,128,-1,128,125,124,-1,127,128,129,-1,129,128,130,-1,129,130,131,-1,132,129,133,-1,133,129,131,-1,134,135,136,-1,136,135,132,-1,136,132,133,-1,137,135,138,-1,138,135,134,-1,137,138,111,-1,111,138,139,-1,111,139,113,-1,137,111,110,-1,110,115,137,-1,137,115,117,-1,137,117,135,-1,129,132,127,-1,127,132,135,-1,127,135,125,-1,125,135,117,-1,125,117,122,-1,122,117,119,-1,140,141,142,-1,142,141,143,-1,142,143,144,-1,144,143,145,-1,144,145,146,-1,146,145,147,-1,146,147,148,-1,148,147,149,-1,148,149,150,-1,150,149,151,-1,150,151,152,-1,152,151,153,-1,152,153,154,-1,154,153,155,-1,154,155,156,-1,156,155,157,-1,156,157,158,-1,158,157,159,-1,158,159,160,-1,160,159,161,-1,160,161,162,-1,162,161,163,-1,162,163,164,-1,164,163,165,-1,164,165,166,-1,166,165,167,-1,166,167,168,-1,168,167,169,-1,168,169,170,-1,170,169,171,-1,170,171,172,-1,172,171,173,-1,172,173,174,-1,174,173,175,-1,174,175,140,-1,140,175,141,-1,163,161,176,-1,176,161,177,-1,163,176,178,-1,163,178,165,-1,165,178,179,-1,165,179,167,-1,179,180,167,-1,167,180,181,-1,167,181,169,-1,169,181,182,-1,169,182,171,-1,171,182,183,-1,171,183,173,-1,173,183,184,-1,173,184,175,-1,175,184,185,-1,175,185,141,-1,141,185,186,-1,141,186,143,-1,143,186,187,-1,143,187,145,-1,145,187,188,-1,145,188,147,-1,147,188,189,-1,147,189,149,-1,149,189,190,-1,149,190,151,-1,191,157,155,-1,151,190,192,-1,151,192,153,-1,153,192,193,-1,153,193,155,-1,155,193,194,-1,155,194,191,-1,159,157,195,-1,195,157,191,-1,161,159,177,-1,177,159,195,-1,156,158,196,-1,196,158,197,-1,158,160,197,-1,197,160,198,-1,160,162,198,-1,198,162,199,-1,170,200,201,-1,170,201,168,-1,168,201,202,-1,168,202,166,-1,166,202,203,-1,166,203,164,-1,164,203,199,-1,164,199,162,-1,142,204,205,-1,142,205,140,-1,140,205,206,-1,140,206,174,-1,174,206,207,-1,174,207,172,-1,172,207,200,-1,172,200,170,-1,150,208,209,-1,150,209,148,-1,148,209,210,-1,148,210,146,-1,146,210,211,-1,146,211,144,-1,144,211,204,-1,144,204,142,-1,156,196,212,-1,156,212,154,-1,154,212,213,-1,154,213,152,-1,152,213,208,-1,152,208,150,-1,
        ]
    }
}
Shape{
    appearance Appearance {
        material  Material {
            diffuseColor 0.25098039215686274 0.25098039215686274 0.25098039215686274
            specularColor 0.12549019607843137 0.12549019607843137 0.12549019607843137
            ambientIntensity 0.251
            transparency 0.0
            shininess 0.5
        }
    }
    geometry IndexedFaceSet {
        ccw TRUE
        solid FALSE
        coord DEF co Coordinate {
            point [
                2.6276 -0.4902 0.2136, 2.6276 -0.4902 0.1724, 2.6357 -0.4902 0.2136, 2.6354 -0.4902 0.1724, 2.6421 -0.4902 0.1731, 2.6467 -0.4902 0.1748, 2.6502 -0.4902 0.1771, 2.6513 -0.4902 0.178, 2.6541 -0.4902 0.1815, 2.6558 -0.4902 0.1855, 2.6568 -0.4902 0.1905, 2.657 -0.4902 0.1935, 2.6563 -0.4902 0.1999, 2.6548 -0.4902 0.2038, 2.6528 -0.4902 0.2069, 2.6511 -0.4902 0.2086, 2.6423 -0.4902 0.2129, 2.647 -0.4902 0.2113
            ]
        }
        coordIndex [
            0,1,2,-1,2,1,3,-1,2,3,4,-1,4,5,2,-1,2,5,6,-1,2,6,7,-1,7,8,2,-1,2,8,9,-1,2,9,10,-1,10,11,2,-1,2,11,12,-1,2,12,13,-1,13,14,2,-1,2,14,15,-1,2,15,16,-1,16,15,17,-1,
        ]
    }
}
Shape{
    appearance Appearance {
        material  Material {
            diffuseColor 1.0 1.0 1.0
            specularColor 0.5019607843137255 0.5019607843137255 0.5019607843137255
            ambientIntensity 1.0
            transparency 0.0
            shininess 0.5
        }
    }
    geometry IndexedFaceSet {
        ccw TRUE
        solid FALSE
        coord DEF co Coordinate {
            point [
                2.6821 -0.4941 0.187, 2.6799 -0.4941 0.181, 2.7 -0.4941 0.187, 2.7021 -0.4941 0.181, 2.6901 -0.4941 0.2092, 2.6875 -0.4941 0.2197, 2.6672 -0.4941 0.1664, 2.6748 -0.4941 0.1664, 2.6905 -0.4941 0.2108, 2.691 -0.4941 0.2129, 2.6949 -0.4941 0.2197, 2.6911 -0.4941 0.2129, 2.6916 -0.4941 0.2107, 2.692 -0.4941 0.2092, 2.7152 -0.4941 0.1664, 2.7076 -0.4941 0.1664, 2.6949 -0.4902 0.2197, 2.7152 -0.4902 0.1664, 2.6875 -0.4902 0.2197, 2.6672 -0.4902 0.1664, 2.6826 -0.4902 0.2067, 2.6748 -0.4902 0.1664, 2.6799 -0.4902 0.181, 2.7021 -0.4902 0.181, 2.6826 -0.4902 0.181, 2.7076 -0.4902 0.1664, 2.6821 -0.4902 0.187, 2.7 -0.4902 0.187, 2.692 -0.4902 0.2092, 2.6911 -0.4902 0.2129, 2.6916 -0.4902 0.2107, 2.691 -0.4902 0.2129, 2.6901 -0.4902 0.2092, 2.6905 -0.4902 0.2108
            ]
        }
        coordIndex [
            0,1,2,-1,2,1,3,-1,4,5,0,-1,0,5,6,-1,0,6,1,-1,1,6,7,-1,4,8,5,-1,5,8,9,-1,5,9,10,-1,10,9,11,-1,10,11,12,-1,12,13,10,-1,10,13,2,-1,10,2,14,-1,14,2,3,-1,14,3,15,-1,10,14,16,-1,16,14,17,-1,5,10,18,-1,18,10,16,-1,19,6,20,-1,20,6,5,-1,20,5,18,-1,7,6,21,-1,21,6,19,-1,1,7,22,-1,22,7,21,-1,23,3,24,-1,24,3,1,-1,24,1,22,-1,15,3,25,-1,25,3,23,-1,14,15,17,-1,17,15,25,-1,0,2,26,-1,26,2,27,-1,2,13,27,-1,27,13,28,-1,11,29,30,-1,11,30,12,-1,12,30,28,-1,12,28,13,-1,11,9,29,-1,29,9,31,-1,4,32,33,-1,4,33,8,-1,8,33,31,-1,8,31,9,-1,4,0,32,-1,32,0,26,-1,
        ]
    }
}
Shape{
    appearance Appearance {
        material  Material {
            diffuseColor 0.25098039215686274 0.25098039215686274 0.25098039215686274
            specularColor 0.12549019607843137 0.12549019607843137 0.12549019607843137
            ambientIntensity 0.251
            transparency 0.0
            shininess 0.5
        }
    }
    geometry IndexedFaceSet {
        ccw TRUE
        solid FALSE
        coord DEF co Coordinate {
            point [
                2.6911 -0.4902 0.2129, 2.691 -0.4902 0.2129, 2.6916 -0.4902 0.2107, 2.6905 -0.4902 0.2108, 2.692 -0.4902 0.2092, 2.6901 -0.4902 0.2092, 2.7 -0.4902 0.187, 2.6821 -0.4902 0.187
            ]
        }
        coordIndex [
            0,1,2,-1,2,1,3,-1,2,3,4,-1,4,3,5,-1,4,5,6,-1,6,5,7,-1,
        ]
    }
}
Shape{
    appearance Appearance {
        material  Material {
            diffuseColor 1.0 1.0 1.0
            specularColor 0.5019607843137255 0.5019607843137255 0.5019607843137255
            ambientIntensity 1.0
            transparency 0.0
            shininess 0.5
        }
    }
    geometry IndexedFaceSet {
        ccw TRUE
        solid FALSE
        coord DEF co Coordinate {
            point [
                2.5297 -0.4941 0.0878, 2.5297 -0.4941 0.0817, 2.5297 -0.4902 0.0878, 2.5297 -0.4902 0.0817, 2.5079 -0.4941 0.0878, 2.5079 -0.4902 0.0878, 2.5079 -0.4941 0.1057, 2.5079 -0.4902 0.1057, 2.527 -0.4941 0.1057, 2.527 -0.4902 0.1057, 2.527 -0.4941 0.1118, 2.527 -0.4902 0.1118, 2.5079 -0.4941 0.1118, 2.5079 -0.4902 0.1118, 2.5079 -0.4941 0.1289, 2.5079 -0.4902 0.1289, 2.5285 -0.4941 0.1289, 2.5285 -0.4902 0.1289, 2.5285 -0.4941 0.1351, 2.5285 -0.4902 0.1351, 2.501 -0.4941 0.1351, 2.501 -0.4902 0.1351, 2.501 -0.4941 0.0817, 2.501 -0.4902 0.0817, 2.5599 -0.4941 0.0876, 2.56 -0.4941 0.0876, 2.5596 -0.4941 0.0937, 2.5437 -0.4941 0.1031, 2.5456 -0.4941 0.098, 2.5473 -0.4941 0.0987, 2.56 -0.4941 0.0967, 2.5667 -0.4941 0.1062, 2.56 -0.4941 0.0971, 2.56 -0.4941 0.1008, 2.56 -0.4941 0.0817, 2.5667 -0.4941 0.0817, 2.5487 -0.4941 0.1043, 2.5511 -0.4941 0.0996, 2.56 -0.4941 0.1059, 2.5586 -0.4941 0.0913, 2.5572 -0.4941 0.0894, 2.5588 -0.4941 0.086, 2.5563 -0.4941 0.0885, 2.5567 -0.4941 0.0837, 2.5544 -0.4941 0.0873, 2.5543 -0.4941 0.0821, 2.5524 -0.4941 0.0865, 2.5516 -0.4941 0.0812, 2.5499 -0.4941 0.0863, 2.5482 -0.4941 0.0808, 2.5476 -0.4941 0.0865, 2.5442 -0.4941 0.0812, 2.5461 -0.4941 0.0871, 2.5416 -0.4941 0.0822, 2.5448 -0.4941 0.088, 2.5394 -0.4941 0.0838, 2.5442 -0.4941 0.0885, 2.5446 -0.4941 0.0973, 2.5408 -0.4941 0.1016, 2.5438 -0.4941 0.0963, 2.5388 -0.4941 0.0998, 2.5433 -0.4941 0.095, 2.5374 -0.4941 0.0979, 2.5429 -0.4941 0.0935, 2.5398 -0.4941 0.1171, 2.5398 -0.4941 0.1106, 2.5416 -0.4941 0.1181, 2.5446 -0.4941 0.1136, 2.5467 -0.4941 0.12, 2.5487 -0.4941 0.1149, 2.5529 -0.4941 0.1207, 2.5523 -0.4941 0.1152, 2.5569 -0.4941 0.1203, 2.5546 -0.4941 0.115, 2.5597 -0.4941 0.1195, 2.5561 -0.4941 0.1145, 2.562 -0.4941 0.1182, 2.5573 -0.4941 0.1137, 2.5638 -0.4941 0.1165, 2.5583 -0.4941 0.1126, 2.5651 -0.4941 0.1144, 2.5591 -0.4941 0.1112, 2.5662 -0.4941 0.1113, 2.5598 -0.4941 0.1089, 2.5365 -0.4941 0.0956, 2.5361 -0.4941 0.0927, 2.5429 -0.4941 0.0924, 2.5361 -0.4941 0.0919, 2.543 -0.4941 0.0909, 2.5364 -0.4941 0.0888, 2.5435 -0.4941 0.0897, 2.5372 -0.4941 0.0866, 2.5386 -0.4941 0.0845, 2.5529 -0.4902 0.1207, 2.5467 -0.4902 0.12, 2.5416 -0.4902 0.1181, 2.5398 -0.4902 0.1171, 2.5398 -0.4902 0.1106, 2.5446 -0.4902 0.1136, 2.5487 -0.4902 0.1149, 2.5523 -0.4902 0.1152, 2.5546 -0.4902 0.115, 2.5561 -0.4902 0.1145, 2.5573 -0.4902 0.1137, 2.5583 -0.4902 0.1126, 2.5591 -0.4902 0.1112, 2.5598 -0.4902 0.1089, 2.56 -0.4902 0.1059, 2.5487 -0.4902 0.1043, 2.5437 -0.4902 0.1031, 2.5408 -0.4902 0.1016, 2.5388 -0.4902 0.0998, 2.5374 -0.4902 0.0979, 2.5365 -0.4902 0.0956, 2.5361 -0.4902 0.0927, 2.5361 -0.4902 0.0919, 2.5364 -0.4902 0.0888, 2.5372 -0.4902 0.0866, 2.5386 -0.4902 0.0845, 2.5394 -0.4902 0.0838, 2.5482 -0.4902 0.0808, 2.5443 -0.4902 0.0812, 2.5442 -0.4902 0.0812, 2.5416 -0.4902 0.0822, 2.5516 -0.4902 0.0812, 2.5518 -0.4902 0.0812, 2.5543 -0.4902 0.0821, 2.5567 -0.4902 0.0837, 2.5588 -0.4902 0.086, 2.5599 -0.4902 0.0876, 2.56 -0.4902 0.0876, 2.56 -0.4902 0.0817, 2.5667 -0.4902 0.0817, 2.5667 -0.4902 0.1062, 2.5662 -0.4902 0.1113, 2.5651 -0.4902 0.1144, 2.5638 -0.4902 0.1165, 2.562 -0.4902 0.1182, 2.5597 -0.4902 0.1195, 2.5569 -0.4902 0.1203, 2.5446 -0.4902 0.0973, 2.5456 -0.4902 0.098, 2.5473 -0.4902 0.0987, 2.5511 -0.4902 0.0996, 2.5429 -0.4902 0.0924, 2.5429 -0.4902 0.0935, 2.5433 -0.4902 0.095, 2.5438 -0.4902 0.0963, 2.5448 -0.4902 0.088, 2.5442 -0.4902 0.0885, 2.5435 -0.4902 0.0897, 2.543 -0.4902 0.0909, 2.5499 -0.4902 0.0863, 2.5476 -0.4902 0.0865, 2.5461 -0.4902 0.0871, 2.5572 -0.4902 0.0894, 2.5563 -0.4902 0.0885, 2.5544 -0.4902 0.0873, 2.5524 -0.4902 0.0865, 2.56 -0.4902 0.0971, 2.56 -0.4902 0.0967, 2.5596 -0.4902 0.0937, 2.5586 -0.4902 0.0913, 2.56 -0.4902 0.1008
            ]
        }
        coordIndex [
            0,1,2,-1,2,1,3,-1,4,0,5,-1,5,0,2,-1,6,4,7,-1,7,4,5,-1,8,6,9,-1,9,6,7,-1,10,8,11,-1,11,8,9,-1,12,10,13,-1,13,10,11,-1,14,12,15,-1,15,12,13,-1,16,14,17,-1,17,14,15,-1,18,16,19,-1,19,16,17,-1,20,18,21,-1,21,18,19,-1,22,20,23,-1,23,20,21,-1,1,22,3,-1,3,22,23,-1,22,1,0,-1,0,4,22,-1,22,4,6,-1,22,6,20,-1,16,18,14,-1,14,18,20,-1,14,20,12,-1,12,20,6,-1,12,6,10,-1,10,6,8,-1,24,25,26,-1,27,28,29,-1,30,31,32,-1,32,31,33,-1,34,35,25,-1,25,35,31,-1,25,31,26,-1,26,31,30,-1,27,29,36,-1,36,29,37,-1,36,37,38,-1,26,39,24,-1,24,39,40,-1,24,40,41,-1,41,40,42,-1,41,42,43,-1,43,42,44,-1,43,44,45,-1,45,44,46,-1,45,46,47,-1,47,46,48,-1,47,48,49,-1,49,48,50,-1,49,50,51,-1,51,50,52,-1,51,52,53,-1,53,52,54,-1,53,54,55,-1,55,54,56,-1,28,27,57,-1,57,27,58,-1,57,58,59,-1,59,58,60,-1,59,60,61,-1,61,60,62,-1,61,62,63,-1,64,65,66,-1,66,65,67,-1,66,67,68,-1,68,67,69,-1,68,69,70,-1,70,69,71,-1,70,71,72,-1,72,71,73,-1,72,73,74,-1,74,73,75,-1,74,75,76,-1,76,75,77,-1,76,77,78,-1,78,77,79,-1,78,79,80,-1,80,79,81,-1,80,81,82,-1,82,81,83,-1,82,83,31,-1,31,83,38,-1,31,38,33,-1,33,38,37,-1,62,84,63,-1,63,84,85,-1,63,85,86,-1,86,85,87,-1,86,87,88,-1,88,87,89,-1,88,89,90,-1,90,89,91,-1,90,91,56,-1,56,91,92,-1,56,92,55,-1,70,93,94,-1,70,94,68,-1,68,94,95,-1,68,95,66,-1,66,95,96,-1,66,96,64,-1,65,64,97,-1,97,64,96,-1,65,97,98,-1,65,98,67,-1,67,98,99,-1,67,99,69,-1,69,99,100,-1,69,100,71,-1,71,100,101,-1,71,101,73,-1,73,101,102,-1,73,102,75,-1,75,102,103,-1,75,103,77,-1,77,103,104,-1,77,104,79,-1,79,104,105,-1,79,105,81,-1,81,105,106,-1,81,106,83,-1,83,106,107,-1,83,107,38,-1,36,38,108,-1,108,38,107,-1,36,108,109,-1,36,109,27,-1,27,109,110,-1,27,110,58,-1,58,110,111,-1,58,111,60,-1,60,111,112,-1,60,112,62,-1,62,112,113,-1,62,113,84,-1,84,113,114,-1,84,114,85,-1,85,114,115,-1,85,115,87,-1,87,115,116,-1,87,116,89,-1,89,116,117,-1,89,117,91,-1,91,117,118,-1,91,118,92,-1,92,118,119,-1,92,119,55,-1,120,49,121,-1,121,49,51,-1,121,51,122,-1,122,51,53,-1,122,53,123,-1,123,53,55,-1,123,55,119,-1,49,120,124,-1,49,124,47,-1,47,124,125,-1,47,125,45,-1,125,126,45,-1,45,126,127,-1,45,127,43,-1,43,127,128,-1,43,128,41,-1,41,128,129,-1,41,129,24,-1,25,24,130,-1,130,24,129,-1,34,25,131,-1,131,25,130,-1,35,34,132,-1,132,34,131,-1,31,35,133,-1,133,35,132,-1,31,133,134,-1,31,134,82,-1,82,134,135,-1,82,135,80,-1,80,135,136,-1,80,136,78,-1,78,136,137,-1,78,137,76,-1,76,137,138,-1,76,138,74,-1,74,138,139,-1,74,139,72,-1,72,139,93,-1,72,93,70,-1,57,140,141,-1,57,141,28,-1,28,141,142,-1,28,142,29,-1,29,142,143,-1,29,143,37,-1,86,144,145,-1,86,145,63,-1,63,145,146,-1,63,146,61,-1,61,146,147,-1,61,147,59,-1,59,147,140,-1,59,140,57,-1,54,148,149,-1,54,149,56,-1,56,149,150,-1,56,150,90,-1,90,150,151,-1,90,151,88,-1,88,151,144,-1,88,144,86,-1,48,152,153,-1,48,153,50,-1,50,153,154,-1,50,154,52,-1,52,154,148,-1,52,148,54,-1,40,155,156,-1,40,156,42,-1,42,156,157,-1,42,157,44,-1,44,157,158,-1,44,158,46,-1,46,158,152,-1,46,152,48,-1,32,159,160,-1,32,160,30,-1,30,160,161,-1,30,161,26,-1,26,161,162,-1,26,162,39,-1,39,162,155,-1,39,155,40,-1,32,33,159,-1,159,33,163,-1,33,37,163,-1,163,37,143,-1,
        ]
    }
}
Shape{
    appearance Appearance {
        material  Material {
            diffuseColor 0.25098039215686274 0.25098039215686274 0.25098039215686274
            specularColor 0.12549019607843137 0.12549019607843137 0.12549019607843137
            ambientIntensity 0.251
            transparency 0.0
            shininess 0.5
        }
    }
    geometry IndexedFaceSet {
        ccw TRUE
        solid FALSE
        coord DEF co Coordinate {
            point [
                2.56 -0.4902 0.1008, 2.5511 -0.4902 0.0996, 2.56 -0.4902 0.0971, 2.5473 -0.4902 0.0987, 2.5456 -0.4902 0.098, 2.5446 -0.4902 0.0973, 2.56 -0.4902 0.0967, 2.5596 -0.4902 0.0937, 2.5438 -0.4902 0.0963, 2.5586 -0.4902 0.0913, 2.5442 -0.4902 0.0885, 2.5448 -0.4902 0.088, 2.5563 -0.4902 0.0885, 2.5435 -0.4902 0.0897, 2.5544 -0.4902 0.0873, 2.5524 -0.4902 0.0865, 2.5499 -0.4902 0.0863, 2.5433 -0.4902 0.095, 2.5429 -0.4902 0.0935, 2.5572 -0.4902 0.0894, 2.5429 -0.4902 0.0924, 2.543 -0.4902 0.0909, 2.5461 -0.4902 0.0871, 2.5476 -0.4902 0.0865
            ]
        }
        coordIndex [
            0,1,2,-1,2,1,3,-1,3,4,2,-1,2,4,5,-1,2,5,6,-1,6,5,7,-1,7,5,8,-1,7,8,9,-1,10,11,12,-1,10,12,13,-1,14,12,15,-1,15,12,16,-1,8,17,9,-1,9,17,18,-1,9,18,19,-1,19,18,20,-1,19,20,12,-1,12,20,21,-1,12,21,13,-1,11,22,12,-1,12,22,23,-1,12,23,16,-1,
        ]
    }
}
Shape{
    appearance Appearance {
        material  Material {
            diffuseColor 1.0 1.0 1.0
            specularColor 0.5019607843137255 0.5019607843137255 0.5019607843137255
            ambientIntensity 1.0
            transparency 0.0
            shininess 0.5
        }
    }
    geometry IndexedFaceSet {
        ccw TRUE
        solid FALSE
        coord DEF co Coordinate {
            point [
                2.5758 -0.4902 0.0899, 2.5758 -0.4941 0.0899, 2.5784 -0.4941 0.0883, 2.5868 -0.4941 0.0862, 2.5868 -0.4902 0.0862, 2.5826 -0.4902 0.0867, 2.5826 -0.4941 0.0867, 2.5789 -0.4902 0.0881, 2.5784 -0.4902 0.0883, 2.5758 -0.4941 0.083, 2.5758 -0.4902 0.083, 2.5789 -0.4902 0.0819, 2.5806 -0.4941 0.0813, 2.5861 -0.4902 0.0808, 2.5861 -0.4941 0.0808, 2.5817 -0.4902 0.0812, 2.5806 -0.4902 0.0813, 2.59 -0.4902 0.0812, 2.5921 -0.4941 0.0815, 2.5921 -0.4902 0.0815, 2.5956 -0.4902 0.0828, 2.5956 -0.4941 0.0828, 2.5972 -0.4902 0.0838, 2.5972 -0.4941 0.0838, 2.5991 -0.4902 0.0855, 2.5991 -0.4941 0.0855, 2.6004 -0.4902 0.0872, 2.6004 -0.4941 0.0872, 2.6012 -0.4902 0.0894, 2.6012 -0.4941 0.0894, 2.6015 -0.4902 0.092, 2.6015 -0.4941 0.092, 2.6013 -0.4902 0.0945, 2.6013 -0.4941 0.0945, 2.6005 -0.4902 0.0965, 2.6005 -0.4941 0.0965, 2.5993 -0.4902 0.0983, 2.5993 -0.4941 0.0983, 2.5977 -0.4902 0.0998, 2.5977 -0.4941 0.0998, 2.5933 -0.4902 0.1022, 2.5933 -0.4941 0.1022, 2.5907 -0.4902 0.1033, 2.5907 -0.4941 0.1033, 2.5865 -0.4902 0.1051, 2.5865 -0.4941 0.1051, 2.5842 -0.4902 0.1066, 2.5842 -0.4941 0.1066, 2.5835 -0.4902 0.1073, 2.5835 -0.4941 0.1073, 2.583 -0.4902 0.1082, 2.583 -0.4941 0.1082, 2.5828 -0.4902 0.1092, 2.5828 -0.4941 0.1092, 2.5827 -0.4902 0.1101, 2.5827 -0.4941 0.1101, 2.5828 -0.4902 0.1112, 2.5828 -0.4941 0.1112, 2.5832 -0.4902 0.1121, 2.5832 -0.4941 0.1121, 2.5837 -0.4902 0.1129, 2.5837 -0.4941 0.1129, 2.5847 -0.4902 0.1138, 2.5847 -0.4941 0.1138, 2.5862 -0.4902 0.1146, 2.5862 -0.4941 0.1146, 2.588 -0.4902 0.1151, 2.588 -0.4941 0.1151, 2.59 -0.4902 0.1152, 2.59 -0.4941 0.1152, 2.5944 -0.4902 0.1147, 2.5944 -0.4941 0.1147, 2.5982 -0.4902 0.1134, 2.5982 -0.4941 0.1134, 2.5997 -0.4902 0.1125, 2.5997 -0.4941 0.1125, 2.5997 -0.4941 0.119, 2.5997 -0.4902 0.119, 2.5945 -0.4902 0.1204, 2.5945 -0.4941 0.1204, 2.5907 -0.4902 0.1207, 2.5907 -0.4941 0.1207, 2.5857 -0.4902 0.1201, 2.5857 -0.4941 0.1201, 2.582 -0.4902 0.1188, 2.582 -0.4941 0.1188, 2.5801 -0.4902 0.1176, 2.5801 -0.4941 0.1176, 2.5789 -0.4902 0.1165, 2.5781 -0.4941 0.1159, 2.5781 -0.4902 0.1159, 2.5769 -0.4902 0.1141, 2.5769 -0.4941 0.1141, 2.5761 -0.4902 0.1119, 2.5761 -0.4941 0.1119, 2.5758 -0.4902 0.1095, 2.5758 -0.4941 0.1095, 2.5761 -0.4902 0.1069, 2.5761 -0.4941 0.1069, 2.5768 -0.4902 0.1049, 2.5768 -0.4941 0.1049, 2.5777 -0.4902 0.1035, 2.5777 -0.4941 0.1035, 2.5859 -0.4902 0.0984, 2.5859 -0.4941 0.0984, 2.582 -0.4941 0.1003, 2.5788 -0.4902 0.1023, 2.5788 -0.4941 0.1023, 2.5789 -0.4902 0.1023, 2.582 -0.4902 0.1003, 2.5903 -0.4902 0.0966, 2.5903 -0.4941 0.0966, 2.5929 -0.4902 0.095, 2.5929 -0.4941 0.095, 2.5938 -0.4902 0.0941, 2.5938 -0.4941 0.0941, 2.5943 -0.4902 0.0933, 2.5943 -0.4941 0.0933, 2.5946 -0.4902 0.0922, 2.5946 -0.4941 0.0922, 2.5947 -0.4902 0.0914, 2.5947 -0.4941 0.0914, 2.5945 -0.4902 0.0901, 2.5945 -0.4941 0.0901, 2.5942 -0.4902 0.0892, 2.5942 -0.4941 0.0892, 2.5936 -0.4902 0.0883, 2.5936 -0.4941 0.0883, 2.5928 -0.4902 0.0876, 2.5928 -0.4941 0.0876, 2.5922 -0.4902 0.0872, 2.5922 -0.4941 0.0872, 2.5905 -0.4902 0.0866, 2.5905 -0.4941 0.0866, 2.5871 -0.4902 0.0862, 2.5871 -0.4941 0.0862, 2.6347 -0.4941 0.1198, 2.6416 -0.4941 0.1198, 2.6347 -0.4902 0.1198, 2.6416 -0.4902 0.1198, 2.6243 -0.4941 0.0911, 2.6243 -0.4902 0.0911, 2.6237 -0.4902 0.0893, 2.6237 -0.4941 0.0893, 2.6234 -0.4902 0.088, 2.6234 -0.4941 0.088, 2.6233 -0.4941 0.088, 2.6233 -0.4902 0.088, 2.6224 -0.4941 0.0911, 2.6224 -0.4902 0.0911, 2.6125 -0.4941 0.1198, 2.6157 -0.4902 0.1105, 2.6125 -0.4902 0.1198, 2.605 -0.4941 0.1198, 2.605 -0.4902 0.1198, 2.62 -0.4941 0.0818, 2.6157 -0.4902 0.0926, 2.62 -0.4902 0.0818, 2.617 -0.4902 0.0748, 2.617 -0.4941 0.0748, 2.6197 -0.4902 0.0812, 2.6157 -0.4902 0.0724, 2.6157 -0.4902 0.0724, 2.6145 -0.4941 0.071, 2.6157 -0.4941 0.0724, 2.6145 -0.4902 0.071, 2.6132 -0.4902 0.0702, 2.6132 -0.4941 0.0702, 2.6118 -0.4902 0.0696, 2.6118 -0.4941 0.0696, 2.6102 -0.4902 0.0694, 2.6102 -0.4941 0.0694, 2.6078 -0.4902 0.0698, 2.6078 -0.4941 0.0698, 2.6064 -0.4902 0.0702, 2.6064 -0.4941 0.0702, 2.6064 -0.4941 0.0643, 2.6064 -0.4902 0.0643, 2.6092 -0.4902 0.0638, 2.6092 -0.4941 0.0638, 2.6107 -0.4902 0.0637, 2.6107 -0.4941 0.0637, 2.6134 -0.4902 0.064, 2.6134 -0.4941 0.064, 2.6157 -0.4902 0.0649, 2.616 -0.4941 0.065, 2.616 -0.4902 0.065, 2.6184 -0.4902 0.0667, 2.6184 -0.4941 0.0667, 2.6188 -0.4902 0.0671, 2.6188 -0.4941 0.0671, 2.6213 -0.4902 0.07, 2.6213 -0.4941 0.07, 2.6243 -0.4902 0.0759, 2.6243 -0.4941 0.0759, 2.6264 -0.4902 0.0812, 2.6775 -0.4941 0.0878, 2.6775 -0.4941 0.0817, 2.6775 -0.4902 0.0878, 2.6775 -0.4902 0.0817, 2.6557 -0.4941 0.0878, 2.6657 -0.4902 0.0878, 2.6557 -0.4902 0.0878, 2.6557 -0.4941 0.1057, 2.6557 -0.4902 0.1057, 2.6748 -0.4941 0.1057, 2.6657 -0.4902 0.1057, 2.6748 -0.4902 0.1057, 2.6748 -0.4941 0.1118, 2.6748 -0.4902 0.1118, 2.6557 -0.4902 0.1118, 2.6557 -0.4941 0.1118, 2.6657 -0.4902 0.1118, 2.6557 -0.4941 0.1289, 2.6557 -0.4902 0.1289, 2.6763 -0.4902 0.1289, 2.6763 -0.4941 0.1289, 2.6657 -0.4902 0.1289, 2.6763 -0.4941 0.1351, 2.6763 -0.4902 0.1351, 2.6488 -0.4902 0.1351, 2.6488 -0.4941 0.1351, 2.6657 -0.4902 0.1351, 2.6488 -0.4941 0.0817, 2.6488 -0.4902 0.0817, 2.6657 -0.4902 0.0817, 2.7237 -0.4941 0.1058, 2.7309 -0.4941 0.1054, 2.7238 -0.4941 0.1089, 2.7311 -0.4941 0.109, 2.7231 -0.4941 0.1152, 2.7304 -0.4941 0.1156, 2.7217 -0.4941 0.1192, 2.7285 -0.4941 0.1209, 2.7196 -0.4941 0.1222, 2.7253 -0.4941 0.1257, 2.718 -0.4941 0.1239, 2.723 -0.4941 0.128, 2.7139 -0.4941 0.1266, 2.7179 -0.4941 0.1315, 2.7092 -0.4941 0.1282, 2.7116 -0.4941 0.134, 2.7026 -0.4941 0.1289, 2.7028 -0.4941 0.1351, 2.6945 -0.4941 0.1289, 2.6876 -0.4941 0.1351, 2.6945 -0.4941 0.0878, 2.6876 -0.4941 0.0817, 2.7022 -0.4941 0.0878, 2.7023 -0.4941 0.0817, 2.7089 -0.4941 0.0885, 2.7112 -0.4941 0.0827, 2.7135 -0.4941 0.0901, 2.7173 -0.4941 0.0851, 2.7171 -0.4941 0.0924, 2.7225 -0.4941 0.0887, 2.7181 -0.4941 0.0933, 2.723 -0.4941 0.0891, 2.7209 -0.4941 0.0968, 2.7268 -0.4941 0.0937, 2.7227 -0.4941 0.1008, 2.7295 -0.4941 0.0992, 2.7023 -0.4902 0.0817, 2.6876 -0.4902 0.0817, 2.7112 -0.4902 0.0827, 2.7173 -0.4902 0.0851, 2.7225 -0.4902 0.0887, 2.723 -0.4902 0.0891, 2.7268 -0.4902 0.0937, 2.7295 -0.4902 0.0992, 2.7309 -0.4902 0.1054, 2.7311 -0.4902 0.109, 2.7304 -0.4902 0.1156, 2.7285 -0.4902 0.1209, 2.7253 -0.4902 0.1257, 2.723 -0.4902 0.128, 2.7179 -0.4902 0.1315, 2.7116 -0.4902 0.134, 2.7028 -0.4902 0.1351, 2.6876 -0.4902 0.1351, 2.7026 -0.4902 0.1289, 2.6945 -0.4902 0.1289, 2.6945 -0.4902 0.0878, 2.7022 -0.4902 0.0878, 2.7181 -0.4902 0.0933, 2.7171 -0.4902 0.0924, 2.7135 -0.4902 0.0901, 2.7089 -0.4902 0.0885, 2.7238 -0.4902 0.1089, 2.7237 -0.4902 0.1058, 2.7227 -0.4902 0.1008, 2.7209 -0.4902 0.0968, 2.718 -0.4902 0.1239, 2.7196 -0.4902 0.1222, 2.7217 -0.4902 0.1192, 2.7231 -0.4902 0.1152, 2.7092 -0.4902 0.1282, 2.7139 -0.4902 0.1266
            ]
        }
        coordIndex [
            0,1,2,-1,3,4,5,-1,3,5,6,-1,6,5,7,-1,6,7,2,-1,2,7,8,-1,2,8,0,-1,9,1,10,-1,10,1,0,-1,10,11,9,-1,9,11,12,-1,13,14,15,-1,15,14,12,-1,15,12,16,-1,16,12,11,-1,13,17,14,-1,14,17,18,-1,17,19,18,-1,18,19,20,-1,18,20,21,-1,21,20,22,-1,21,22,23,-1,23,22,24,-1,23,24,25,-1,25,24,26,-1,25,26,27,-1,27,26,28,-1,27,28,29,-1,29,28,30,-1,29,30,31,-1,31,30,32,-1,31,32,33,-1,33,32,34,-1,33,34,35,-1,35,34,36,-1,35,36,37,-1,37,36,38,-1,37,38,39,-1,39,38,40,-1,39,40,41,-1,41,40,42,-1,41,42,43,-1,43,42,44,-1,43,44,45,-1,45,44,46,-1,45,46,47,-1,47,46,48,-1,47,48,49,-1,49,48,50,-1,49,50,51,-1,51,50,52,-1,51,52,53,-1,53,52,54,-1,53,54,55,-1,55,54,56,-1,55,56,57,-1,57,56,58,-1,57,58,59,-1,59,58,60,-1,59,60,61,-1,61,60,62,-1,61,62,63,-1,63,62,64,-1,63,64,65,-1,65,64,66,-1,65,66,67,-1,67,66,68,-1,67,68,69,-1,69,68,70,-1,69,70,71,-1,71,70,72,-1,71,72,73,-1,73,72,74,-1,73,74,75,-1,76,75,77,-1,77,75,74,-1,76,77,78,-1,76,78,79,-1,79,78,80,-1,79,80,81,-1,81,80,82,-1,81,82,83,-1,83,82,84,-1,83,84,85,-1,85,84,86,-1,85,86,87,-1,86,88,87,-1,87,88,89,-1,88,90,89,-1,89,90,91,-1,89,91,92,-1,92,91,93,-1,92,93,94,-1,94,93,95,-1,94,95,96,-1,96,95,97,-1,96,97,98,-1,98,97,99,-1,98,99,100,-1,100,99,101,-1,100,101,102,-1,103,104,105,-1,102,101,106,-1,102,106,107,-1,107,106,108,-1,107,108,105,-1,105,108,109,-1,105,109,103,-1,104,103,110,-1,104,110,111,-1,111,110,112,-1,111,112,113,-1,113,112,114,-1,113,114,115,-1,115,114,116,-1,115,116,117,-1,117,116,118,-1,117,118,119,-1,119,118,120,-1,119,120,121,-1,121,120,122,-1,121,122,123,-1,123,122,124,-1,123,124,125,-1,125,124,126,-1,125,126,127,-1,127,126,128,-1,127,128,129,-1,129,128,130,-1,129,130,131,-1,131,130,132,-1,131,132,133,-1,133,132,134,-1,133,134,135,-1,135,134,4,-1,135,4,3,-1,61,63,85,-1,85,63,83,-1,111,43,104,-1,104,43,45,-1,21,23,127,-1,127,23,25,-1,127,25,125,-1,125,25,27,-1,125,27,123,-1,123,27,29,-1,123,29,121,-1,121,29,31,-1,121,31,119,-1,119,31,33,-1,119,33,117,-1,117,33,35,-1,117,35,115,-1,115,35,37,-1,115,37,113,-1,113,37,39,-1,113,39,111,-1,111,39,41,-1,111,41,43,-1,14,3,12,-1,12,3,6,-1,12,6,9,-1,9,6,2,-1,9,2,1,-1,63,65,83,-1,83,65,67,-1,83,67,81,-1,81,67,69,-1,81,69,79,-1,79,69,71,-1,79,71,76,-1,76,71,73,-1,76,73,75,-1,127,129,21,-1,21,129,131,-1,21,131,18,-1,18,131,133,-1,18,133,14,-1,14,133,135,-1,14,135,3,-1,85,87,61,-1,61,87,89,-1,61,89,59,-1,59,89,92,-1,59,92,57,-1,57,92,94,-1,57,94,55,-1,55,94,96,-1,55,96,53,-1,53,96,98,-1,53,98,51,-1,51,98,100,-1,51,100,49,-1,49,100,102,-1,49,102,47,-1,47,102,107,-1,47,107,45,-1,45,107,105,-1,45,105,104,-1,136,137,138,-1,138,137,139,-1,140,136,141,-1,141,136,138,-1,140,141,142,-1,140,142,143,-1,143,142,144,-1,143,144,145,-1,146,145,147,-1,147,145,144,-1,148,146,149,-1,149,146,147,-1,148,149,150,-1,150,149,151,-1,150,151,152,-1,153,150,154,-1,154,150,152,-1,153,154,155,-1,155,154,156,-1,155,156,157,-1,158,159,160,-1,160,159,155,-1,160,155,157,-1,159,158,161,-1,162,163,161,-1,161,163,164,-1,161,164,159,-1,162,165,163,-1,163,165,166,-1,163,166,167,-1,167,166,168,-1,167,168,169,-1,169,168,170,-1,169,170,171,-1,171,170,172,-1,171,172,173,-1,173,172,174,-1,173,174,175,-1,176,175,177,-1,177,175,174,-1,176,177,178,-1,176,178,179,-1,179,178,180,-1,179,180,181,-1,181,180,182,-1,181,182,183,-1,183,182,184,-1,183,184,185,-1,184,186,185,-1,185,186,187,-1,185,187,188,-1,188,187,189,-1,188,189,190,-1,190,189,191,-1,190,191,192,-1,192,191,193,-1,192,193,194,-1,139,137,195,-1,195,137,194,-1,195,194,193,-1,143,145,194,-1,137,136,194,-1,194,136,140,-1,194,140,143,-1,150,153,148,-1,148,153,155,-1,148,155,146,-1,192,164,190,-1,190,164,163,-1,175,176,173,-1,173,176,179,-1,173,179,171,-1,171,179,181,-1,171,181,169,-1,169,181,183,-1,169,183,167,-1,167,183,185,-1,167,185,163,-1,163,185,188,-1,163,188,190,-1,145,146,194,-1,194,146,155,-1,194,155,192,-1,192,155,159,-1,192,159,164,-1,196,197,198,-1,198,197,199,-1,196,198,200,-1,200,198,201,-1,200,201,202,-1,203,200,204,-1,204,200,202,-1,203,204,205,-1,205,204,206,-1,205,206,207,-1,208,205,209,-1,209,205,207,-1,210,211,212,-1,212,211,208,-1,212,208,209,-1,213,211,214,-1,214,211,210,-1,215,216,217,-1,217,216,213,-1,217,213,214,-1,218,216,219,-1,219,216,215,-1,220,221,222,-1,222,221,218,-1,222,218,219,-1,223,221,224,-1,224,221,220,-1,223,224,197,-1,197,224,225,-1,197,225,199,-1,223,197,196,-1,196,200,223,-1,223,200,203,-1,223,203,221,-1,216,218,213,-1,213,218,221,-1,213,221,211,-1,211,221,203,-1,211,203,208,-1,208,203,205,-1,226,227,228,-1,228,227,229,-1,228,229,230,-1,230,229,231,-1,230,231,232,-1,232,231,233,-1,232,233,234,-1,234,233,235,-1,234,235,236,-1,236,235,237,-1,236,237,238,-1,238,237,239,-1,238,239,240,-1,240,239,241,-1,240,241,242,-1,242,241,243,-1,242,243,244,-1,244,243,245,-1,244,245,246,-1,246,245,247,-1,246,247,248,-1,248,247,249,-1,248,249,250,-1,250,249,251,-1,250,251,252,-1,252,251,253,-1,252,253,254,-1,254,253,255,-1,254,255,256,-1,256,255,257,-1,256,257,258,-1,258,257,259,-1,258,259,260,-1,260,259,261,-1,260,261,226,-1,226,261,227,-1,249,247,262,-1,262,247,263,-1,249,262,264,-1,249,264,251,-1,251,264,265,-1,251,265,253,-1,253,265,266,-1,253,266,255,-1,255,266,267,-1,255,267,257,-1,257,267,268,-1,257,268,259,-1,259,268,269,-1,259,269,261,-1,261,269,270,-1,261,270,227,-1,227,270,271,-1,227,271,229,-1,229,271,272,-1,229,272,231,-1,231,272,273,-1,231,273,233,-1,233,273,274,-1,233,274,235,-1,235,274,275,-1,235,275,237,-1,237,275,276,-1,237,276,239,-1,239,276,277,-1,239,277,241,-1,241,277,278,-1,241,278,243,-1,245,243,279,-1,279,243,278,-1,247,245,263,-1,263,245,279,-1,242,244,280,-1,280,244,281,-1,244,246,281,-1,281,246,282,-1,246,248,282,-1,282,248,283,-1,256,284,285,-1,256,285,254,-1,254,285,286,-1,254,286,252,-1,252,286,287,-1,252,287,250,-1,250,287,283,-1,250,283,248,-1,228,288,289,-1,228,289,226,-1,226,289,290,-1,226,290,260,-1,260,290,291,-1,260,291,258,-1,258,291,284,-1,258,284,256,-1,236,292,293,-1,236,293,234,-1,234,293,294,-1,234,294,232,-1,232,294,295,-1,232,295,230,-1,230,295,288,-1,230,288,228,-1,242,280,296,-1,242,296,240,-1,240,296,297,-1,240,297,238,-1,238,297,292,-1,238,292,236,-1,
        ]
    }
}
Shape{
    appearance Appearance {
        material  Material {
            diffuseColor 0.25098039215686274 0.25098039215686274 0.25098039215686274
            specularColor 0.12549019607843137 0.12549019607843137 0.12549019607843137
            ambientIntensity 0.251
            transparency 0.0
            shininess 0.5
        }
    }
    geometry IndexedFaceSet {
        ccw TRUE
        solid FALSE
        coord DEF co Coordinate {
            point [
                2.6945 -0.4902 0.1289, 2.6945 -0.4902 0.0878, 2.7026 -0.4902 0.1289, 2.7022 -0.4902 0.0878, 2.7089 -0.4902 0.0885, 2.7135 -0.4902 0.0901, 2.7171 -0.4902 0.0924, 2.7181 -0.4902 0.0933, 2.7209 -0.4902 0.0968, 2.7227 -0.4902 0.1008, 2.7237 -0.4902 0.1058, 2.7238 -0.4902 0.1089, 2.7231 -0.4902 0.1152, 2.7217 -0.4902 0.1192, 2.7196 -0.4902 0.1222, 2.718 -0.4902 0.1239, 2.7092 -0.4902 0.1282, 2.7139 -0.4902 0.1266
            ]
        }
        coordIndex [
            0,1,2,-1,2,1,3,-1,2,3,4,-1,4,5,2,-1,2,5,6,-1,2,6,7,-1,7,8,2,-1,2,8,9,-1,2,9,10,-1,10,11,2,-1,2,11,12,-1,2,12,13,-1,13,14,2,-1,2,14,15,-1,2,15,16,-1,16,15,17,-1,
        ]
    }
}
Shape{
    appearance Appearance {
        material  Material {
            diffuseColor 1.0 1.0 1.0
            specularColor 0.5019607843137255 0.5019607843137255 0.5019607843137255
            ambientIntensity 1.0
            transparency 0.0
            shininess 0.5
        }
    }
    geometry IndexedFaceSet {
        ccw TRUE
        solid FALSE
        coord DEF co Coordinate {
            point [
                2.7489 -0.4941 0.1023, 2.7468 -0.4941 0.0963, 2.7669 -0.4941 0.1023, 2.769 -0.4941 0.0963, 2.7569 -0.4941 0.1245, 2.7544 -0.4941 0.1351, 2.734 -0.4941 0.0817, 2.7416 -0.4941 0.0817, 2.7574 -0.4941 0.1261, 2.7578 -0.4941 0.1282, 2.7617 -0.4941 0.1351, 2.758 -0.4941 0.1282, 2.7584 -0.4941 0.126, 2.7588 -0.4941 0.1245, 2.7821 -0.4941 0.0817, 2.7744 -0.4941 0.0817, 2.7617 -0.4902 0.1351, 2.7821 -0.4902 0.0817, 2.7544 -0.4902 0.1351, 2.734 -0.4902 0.0817, 2.7416 -0.4902 0.0817, 2.7468 -0.4902 0.0963, 2.769 -0.4902 0.0963, 2.7744 -0.4902 0.0817, 2.7489 -0.4902 0.1023, 2.7669 -0.4902 0.1023, 2.7588 -0.4902 0.1245, 2.758 -0.4902 0.1282, 2.7584 -0.4902 0.126, 2.7578 -0.4902 0.1282, 2.7569 -0.4902 0.1245, 2.7574 -0.4902 0.1261
            ]
        }
        coordIndex [
            0,1,2,-1,2,1,3,-1,4,5,0,-1,0,5,6,-1,0,6,1,-1,1,6,7,-1,4,8,5,-1,5,8,9,-1,5,9,10,-1,10,9,11,-1,10,11,12,-1,12,13,10,-1,10,13,2,-1,10,2,14,-1,14,2,3,-1,14,3,15,-1,10,14,16,-1,16,14,17,-1,5,10,18,-1,18,10,16,-1,6,5,19,-1,19,5,18,-1,7,6,20,-1,20,6,19,-1,1,7,21,-1,21,7,20,-1,3,1,22,-1,22,1,21,-1,15,3,23,-1,23,3,22,-1,14,15,17,-1,17,15,23,-1,0,2,24,-1,24,2,25,-1,2,13,25,-1,25,13,26,-1,11,27,28,-1,11,28,12,-1,12,28,26,-1,12,26,13,-1,11,9,27,-1,27,9,29,-1,4,30,31,-1,4,31,8,-1,8,31,29,-1,8,29,9,-1,4,0,30,-1,30,0,24,-1,
        ]
    }
}
Shape{
    appearance Appearance {
        material  Material {
            diffuseColor 0.25098039215686274 0.25098039215686274 0.25098039215686274
            specularColor 0.12549019607843137 0.12549019607843137 0.12549019607843137
            ambientIntensity 0.251
            transparency 0.0
            shininess 0.5
        }
    }
    geometry IndexedFaceSet {
        ccw TRUE
        solid FALSE
        coord DEF co Coordinate {
            point [
                2.758 -0.4902 0.1282, 2.7578 -0.4902 0.1282, 2.7584 -0.4902 0.126, 2.7574 -0.4902 0.1261, 2.7588 -0.4902 0.1245, 2.7569 -0.4902 0.1245, 2.7669 -0.4902 0.1023, 2.7489 -0.4902 0.1023
            ]
        }
        coordIndex [
            0,1,2,-1,2,1,3,-1,2,3,4,-1,4,3,5,-1,4,5,6,-1,6,5,7,-1,
        ]
    }
}
Shape{
    appearance Appearance {
        material  Material {
            diffuseColor 1.0 1.0 1.0
            specularColor 0.5019607843137255 0.5019607843137255 0.5019607843137255
            ambientIntensity 1.0
            transparency 0.0
            shininess 0.5
        }
    }
    geometry IndexedFaceSet {
        ccw TRUE
        solid FALSE
        coord DEF co Coordinate {
            point [
                2.2551 -0.4941 0.1736, 2.2636 -0.4941 0.1781, 2.2616 -0.4941 0.2015, 2.3285 -0.4941 0.0725, 2.333 -0.4941 0.081, 2.3352 -0.4941 0.0903, 2.2853 -0.4941 0.2026, 2.2971 -0.4941 0.1748, 2.3029 -0.4941 0.1869, 2.283 -0.4941 0.0894, 2.2823 -0.4941 0.0929, 2.2618 -0.4941 0.1077, 2.2614 -0.4941 0.0822, 2.2566 -0.4941 0.0837, 2.2535 -0.4941 0.1128, 2.2766 -0.4941 0.2033, 2.3886 -0.4941 0.1263, 2.3768 -0.4941 0.1464, 2.3354 -0.4941 0.0982, 2.3259 -0.4941 0.1198, 2.3354 -0.4941 0.0944, 2.3152 -0.4941 0.0608, 2.3227 -0.4941 0.0661, 2.2845 -0.4941 0.0862, 2.2709 -0.4941 0.0671, 2.2652 -0.4941 0.0741, 2.2931 -0.4941 0.2116, 2.3114 -0.4941 0.197, 2.302 -0.4941 0.2193, 2.3216 -0.4941 0.2044, 2.3113 -0.4941 0.225, 2.2729 -0.4941 0.1803, 2.277 -0.4941 0.1805, 2.281 -0.4941 0.2031, 2.286 -0.4941 0.1794, 2.2945 -0.4941 0.1763, 2.3091 -0.4941 0.0854, 2.3071 -0.4941 0.0831, 2.3042 -0.4941 0.081, 2.3067 -0.4941 0.0576, 2.3009 -0.4941 0.0797, 2.2975 -0.4941 0.0564, 2.2971 -0.4941 0.0792, 2.2961 -0.4941 0.0565, 2.2965 -0.4941 0.0792, 2.2871 -0.4941 0.0579, 2.293 -0.4941 0.0798, 2.2783 -0.4941 0.0615, 2.2896 -0.4941 0.0813, 2.2867 -0.4941 0.0835, 2.3109 -0.4941 0.0993, 2.3118 -0.4941 0.0958, 2.3118 -0.4941 0.0923, 2.3109 -0.4941 0.0887, 2.4213 -0.4941 0.0842, 2.4101 -0.4941 0.1051, 2.4087 -0.4941 0.0815, 2.4064 -0.4941 0.1046, 2.3863 -0.4941 0.0815, 2.3893 -0.4941 0.1046, 2.3842 -0.4941 0.0818, 2.2825 -0.4941 0.0966, 2.2836 -0.4941 0.1002, 2.266 -0.4941 0.1158, 2.2856 -0.4941 0.1033, 2.2722 -0.4941 0.123, 2.2871 -0.4941 0.1049, 2.28 -0.4941 0.1284, 2.2901 -0.4941 0.107, 2.2884 -0.4941 0.1316, 2.2934 -0.4941 0.1083, 2.2975 -0.4941 0.1327, 2.2971 -0.4941 0.1088, 2.3021 -0.4941 0.1325, 2.3003 -0.4941 0.1085, 2.3112 -0.4941 0.1302, 2.3038 -0.4941 0.1072, 2.3193 -0.4941 0.1259, 2.3068 -0.4941 0.1051, 2.3093 -0.4941 0.1024, 2.4011 -0.4941 0.1638, 2.4041 -0.4941 0.1638, 2.4197 -0.4941 0.1843, 2.4104 -0.4941 0.1632, 2.4215 -0.4941 0.1837, 2.4171 -0.4941 0.1608, 2.4328 -0.4941 0.1781, 2.4231 -0.4941 0.1569, 2.4431 -0.4941 0.1694, 2.4281 -0.4941 0.1515, 2.4509 -0.4941 0.1586, 2.4317 -0.4941 0.145, 2.4555 -0.4941 0.147, 2.4335 -0.4941 0.1377, 2.4573 -0.4941 0.1346, 2.4337 -0.4941 0.1342, 2.4555 -0.4941 0.1211, 2.4331 -0.4941 0.1279, 2.4508 -0.4941 0.1091, 2.4307 -0.4941 0.121, 2.4432 -0.4941 0.0986, 2.4267 -0.4941 0.115, 2.4329 -0.4941 0.0898, 2.4232 -0.4941 0.1115, 2.4171 -0.4941 0.1075, 2.3992 -0.4941 0.2143, 2.3843 -0.4941 0.1969, 2.4118 -0.4941 0.1998, 2.3929 -0.4941 0.1867, 2.3987 -0.4941 0.1745, 2.2402 -0.4941 0.1518, 2.2152 -0.4941 0.1454, 2.239 -0.4941 0.1426, 2.2151 -0.4941 0.1418, 2.2395 -0.4941 0.1367, 2.217 -0.4941 0.1269, 2.2422 -0.4941 0.1274, 2.2224 -0.4941 0.1128, 2.2467 -0.4941 0.1198, 2.2311 -0.4941 0.1005, 2.2429 -0.4941 0.0904, 2.3288 -0.4941 0.2317, 2.334 -0.4941 0.2095, 2.3476 -0.4941 0.2341, 2.348 -0.4941 0.2113, 2.3632 -0.4941 0.2324, 2.3609 -0.4941 0.2097, 2.3823 -0.4941 0.2257, 2.3728 -0.4941 0.2051, 2.3834 -0.4941 0.1977, 2.2476 -0.4941 0.196, 2.2355 -0.4941 0.1875, 2.2487 -0.4941 0.1678, 2.233 -0.4941 0.1851, 2.2434 -0.4941 0.1603, 2.2238 -0.4941 0.1734, 2.2178 -0.4941 0.1597, 2.3874 -0.4941 0.105, 2.3783 -0.4941 0.0855, 2.3792 -0.4941 0.0846, 2.3886 -0.4941 0.1047, 2.3816 -0.4941 0.0828, 2.3753 -0.4941 0.0933, 2.3756 -0.4941 0.0904, 2.3766 -0.4941 0.0879, 2.3841 -0.4941 0.1046, 2.3815 -0.4941 0.1036, 2.3754 -0.4941 0.0947, 2.3792 -0.4941 0.102, 2.3776 -0.4941 0.1002, 2.3761 -0.4941 0.0976, 2.387 -0.4941 0.105, 2.4456 -0.4902 0.1659, 2.4509 -0.4902 0.1586, 2.4542 -0.4902 0.1503, 2.4555 -0.4902 0.147, 2.4573 -0.4902 0.1346, 2.4431 -0.4902 0.1694, 2.4328 -0.4902 0.1781, 2.4215 -0.4902 0.1837, 2.4197 -0.4902 0.1843, 2.4118 -0.4902 0.1998, 2.3992 -0.4902 0.2143, 2.3905 -0.4902 0.2202, 2.3823 -0.4902 0.2257, 2.3632 -0.4902 0.2324, 2.3476 -0.4902 0.2341, 2.302 -0.4902 0.2193, 2.3035 -0.4902 0.2202, 2.3113 -0.4902 0.225, 2.3288 -0.4902 0.2317, 2.2931 -0.4902 0.2116, 2.2853 -0.4902 0.2026, 2.281 -0.4902 0.2031, 2.2766 -0.4902 0.2033, 2.2616 -0.4902 0.2015, 2.2476 -0.4902 0.196, 2.2355 -0.4902 0.1875, 2.233 -0.4902 0.1851, 2.2238 -0.4902 0.1734, 2.2205 -0.4902 0.1659, 2.2178 -0.4902 0.1597, 2.2161 -0.4902 0.1503, 2.2152 -0.4902 0.1454, 2.2151 -0.4902 0.1418, 2.217 -0.4902 0.1269, 2.2224 -0.4902 0.1128, 2.2311 -0.4902 0.1005, 2.2429 -0.4902 0.0904, 2.2566 -0.4902 0.0837, 2.2614 -0.4902 0.0822, 2.2619 -0.4902 0.0812, 2.2652 -0.4902 0.0741, 2.2709 -0.4902 0.0671, 2.2783 -0.4902 0.0615, 2.2818 -0.4902 0.0601, 2.2871 -0.4902 0.0579, 2.2961 -0.4902 0.0565, 2.2975 -0.4902 0.0564, 2.3354 -0.4902 0.0944, 2.3067 -0.4902 0.0576, 2.3132 -0.4902 0.0601, 2.3152 -0.4902 0.0608, 2.3227 -0.4902 0.0661, 2.3285 -0.4902 0.0725, 2.333 -0.4902 0.081, 2.333 -0.4902 0.0812, 2.3352 -0.4902 0.0903, 2.3354 -0.4902 0.0982, 2.3886 -0.4902 0.1263, 2.3768 -0.4902 0.1464, 2.3259 -0.4902 0.1198, 2.3193 -0.4902 0.1259, 2.3112 -0.4902 0.1302, 2.3021 -0.4902 0.1325, 2.2975 -0.4902 0.1327, 2.2884 -0.4902 0.1316, 2.28 -0.4902 0.1284, 2.2722 -0.4902 0.123, 2.266 -0.4902 0.1158, 2.2618 -0.4902 0.1077, 2.2535 -0.4902 0.1128, 2.2467 -0.4902 0.1198, 2.2422 -0.4902 0.1274, 2.2395 -0.4902 0.1367, 2.239 -0.4902 0.1426, 2.24 -0.4902 0.1503, 2.2402 -0.4902 0.1518, 2.2434 -0.4902 0.1603, 2.2474 -0.4902 0.1659, 2.2487 -0.4902 0.1678, 2.2551 -0.4902 0.1736, 2.2636 -0.4902 0.1781, 2.2729 -0.4902 0.1803, 2.277 -0.4902 0.1805, 2.286 -0.4902 0.1794, 2.2945 -0.4902 0.1763, 2.2971 -0.4902 0.1748, 2.3029 -0.4902 0.1869, 2.3114 -0.4902 0.197, 2.3216 -0.4902 0.2044, 2.334 -0.4902 0.2095, 2.348 -0.4902 0.2113, 2.4011 -0.4902 0.1638, 2.4006 -0.4902 0.1659, 2.3987 -0.4902 0.1745, 2.3929 -0.4902 0.1867, 2.3843 -0.4902 0.1969, 2.3834 -0.4902 0.1977, 2.3728 -0.4902 0.2051, 2.3609 -0.4902 0.2097, 2.4041 -0.4902 0.1638, 2.4104 -0.4902 0.1632, 2.4171 -0.4902 0.1608, 2.4231 -0.4902 0.1569, 2.4281 -0.4902 0.1515, 2.4288 -0.4902 0.1503, 2.4317 -0.4902 0.145, 2.4335 -0.4902 0.1377, 2.4337 -0.4902 0.1342, 2.4331 -0.4902 0.1279, 2.4307 -0.4902 0.121, 2.4267 -0.4902 0.115, 2.4232 -0.4902 0.1115, 2.4171 -0.4902 0.1075, 2.4101 -0.4902 0.1051, 2.4064 -0.4902 0.1046, 2.3893 -0.4902 0.1046, 2.3886 -0.4902 0.1047, 2.3874 -0.4902 0.105, 2.387 -0.4902 0.105, 2.3841 -0.4902 0.1046, 2.3815 -0.4902 0.1036, 2.3792 -0.4902 0.102, 2.3776 -0.4902 0.1002, 2.3761 -0.4902 0.0976, 2.3754 -0.4902 0.0947, 2.3753 -0.4902 0.0933, 2.3756 -0.4902 0.0904, 2.3766 -0.4902 0.0879, 2.3783 -0.4902 0.0855, 2.3792 -0.4902 0.0846, 2.3816 -0.4902 0.0828, 2.3842 -0.4902 0.0818, 2.3863 -0.4902 0.0815, 2.4087 -0.4902 0.0815, 2.4213 -0.4902 0.0842, 2.4329 -0.4902 0.0898, 2.4432 -0.4902 0.0986, 2.4508 -0.4902 0.1091, 2.4555 -0.4902 0.1211, 2.2971 -0.4902 0.1088, 2.3003 -0.4902 0.1085, 2.3038 -0.4902 0.1072, 2.3068 -0.4902 0.1051, 2.3093 -0.4902 0.1024, 2.3109 -0.4902 0.0993, 2.3118 -0.4902 0.0958, 2.3118 -0.4902 0.0923, 2.3109 -0.4902 0.0887, 2.3091 -0.4902 0.0854, 2.3071 -0.4902 0.0831, 2.3042 -0.4902 0.081, 2.3009 -0.4902 0.0797, 2.2971 -0.4902 0.0792, 2.2965 -0.4902 0.0792, 2.293 -0.4902 0.0798, 2.2896 -0.4902 0.0813, 2.2867 -0.4902 0.0835, 2.2845 -0.4902 0.0862, 2.283 -0.4902 0.0894, 2.2823 -0.4902 0.0929, 2.2825 -0.4902 0.0966, 2.2836 -0.4902 0.1002, 2.2856 -0.4902 0.1033, 2.2871 -0.4902 0.1049, 2.2901 -0.4902 0.107, 2.2934 -0.4902 0.1083
            ]
        }
        coordIndex [
            0,1,2,-1,3,4,5,-1,6,7,8,-1,9,10,11,-1,12,11,13,-1,13,11,14,-1,2,1,15,-1,16,17,18,-1,18,17,19,-1,18,19,20,-1,20,19,21,-1,20,21,5,-1,5,21,22,-1,5,22,3,-1,23,9,24,-1,24,9,11,-1,24,11,25,-1,25,11,12,-1,6,8,26,-1,26,8,27,-1,26,27,28,-1,28,27,29,-1,28,29,30,-1,1,31,15,-1,15,31,32,-1,15,32,33,-1,33,32,34,-1,33,34,6,-1,6,34,35,-1,6,35,7,-1,36,37,21,-1,21,37,38,-1,21,38,39,-1,39,38,40,-1,39,40,41,-1,41,40,42,-1,41,42,43,-1,43,42,44,-1,43,44,45,-1,45,44,46,-1,45,46,47,-1,47,46,48,-1,47,48,24,-1,24,48,49,-1,24,49,23,-1,50,51,19,-1,19,51,52,-1,19,52,21,-1,21,52,53,-1,21,53,36,-1,54,55,56,-1,56,55,57,-1,56,57,58,-1,58,57,59,-1,58,59,60,-1,10,61,11,-1,11,61,62,-1,11,62,63,-1,63,62,64,-1,63,64,65,-1,65,64,66,-1,65,66,67,-1,67,66,68,-1,67,68,69,-1,69,68,70,-1,69,70,71,-1,71,70,72,-1,71,72,73,-1,73,72,74,-1,73,74,75,-1,75,74,76,-1,75,76,77,-1,77,76,78,-1,77,78,19,-1,19,78,79,-1,19,79,50,-1,80,81,82,-1,82,81,83,-1,82,83,84,-1,84,83,85,-1,84,85,86,-1,86,85,87,-1,86,87,88,-1,88,87,89,-1,88,89,90,-1,90,89,91,-1,90,91,92,-1,92,91,93,-1,92,93,94,-1,94,93,95,-1,94,95,96,-1,96,95,97,-1,96,97,98,-1,98,97,99,-1,98,99,100,-1,100,99,101,-1,100,101,102,-1,102,101,103,-1,102,103,54,-1,54,103,104,-1,54,104,55,-1,105,106,107,-1,107,106,108,-1,107,108,82,-1,82,108,109,-1,82,109,80,-1,110,111,112,-1,112,111,113,-1,112,113,114,-1,114,113,115,-1,114,115,116,-1,116,115,117,-1,116,117,118,-1,118,117,119,-1,118,119,14,-1,14,119,120,-1,14,120,13,-1,30,29,121,-1,121,29,122,-1,121,122,123,-1,123,122,124,-1,123,124,125,-1,125,124,126,-1,125,126,127,-1,127,126,128,-1,127,128,105,-1,105,128,129,-1,105,129,106,-1,2,130,0,-1,0,130,131,-1,0,131,132,-1,132,131,133,-1,132,133,134,-1,134,133,135,-1,134,135,110,-1,110,135,136,-1,110,136,111,-1,137,138,139,-1,59,140,60,-1,60,140,137,-1,60,137,141,-1,141,137,139,-1,142,143,137,-1,137,143,144,-1,137,144,138,-1,145,146,147,-1,146,148,147,-1,147,148,149,-1,147,149,150,-1,142,137,147,-1,147,137,151,-1,147,151,145,-1,152,88,153,-1,153,88,90,-1,153,90,154,-1,154,90,92,-1,154,92,155,-1,155,92,94,-1,155,94,156,-1,152,157,88,-1,88,157,158,-1,88,158,86,-1,86,158,159,-1,86,159,84,-1,84,159,160,-1,84,160,82,-1,82,160,161,-1,82,161,107,-1,107,161,162,-1,107,162,105,-1,105,162,127,-1,127,162,163,-1,163,164,127,-1,127,164,165,-1,127,165,125,-1,125,165,166,-1,125,166,123,-1,167,28,168,-1,168,28,30,-1,168,30,169,-1,169,30,121,-1,169,121,170,-1,170,121,123,-1,170,123,166,-1,28,167,171,-1,28,171,26,-1,26,171,172,-1,26,172,6,-1,6,172,173,-1,6,173,33,-1,33,173,174,-1,33,174,15,-1,15,174,175,-1,15,175,2,-1,2,175,176,-1,2,176,130,-1,130,176,177,-1,130,177,131,-1,131,177,178,-1,131,178,133,-1,136,135,179,-1,179,135,133,-1,179,133,178,-1,179,180,136,-1,136,180,181,-1,136,181,111,-1,111,181,182,-1,182,183,111,-1,111,183,184,-1,111,184,113,-1,113,184,185,-1,113,185,115,-1,115,185,186,-1,115,186,117,-1,117,186,187,-1,117,187,119,-1,119,187,188,-1,119,188,120,-1,120,188,189,-1,120,189,13,-1,13,189,190,-1,13,190,12,-1,12,190,191,-1,12,191,25,-1,191,192,25,-1,25,192,193,-1,25,193,24,-1,24,193,194,-1,24,194,47,-1,47,194,195,-1,47,195,45,-1,195,196,45,-1,45,196,197,-1,45,197,43,-1,43,197,198,-1,43,198,41,-1,199,20,5,-1,41,198,200,-1,41,200,39,-1,39,200,201,-1,39,201,21,-1,201,202,21,-1,21,202,203,-1,21,203,22,-1,22,203,204,-1,22,204,3,-1,3,204,205,-1,3,205,4,-1,4,205,206,-1,4,206,5,-1,5,206,207,-1,5,207,199,-1,18,20,208,-1,208,20,199,-1,16,18,209,-1,209,18,208,-1,17,16,210,-1,210,16,209,-1,19,17,211,-1,211,17,210,-1,19,211,212,-1,19,212,77,-1,77,212,213,-1,77,213,75,-1,75,213,214,-1,75,214,73,-1,73,214,215,-1,73,215,71,-1,71,215,216,-1,71,216,69,-1,69,216,217,-1,69,217,67,-1,67,217,218,-1,67,218,65,-1,65,218,219,-1,65,219,63,-1,63,219,220,-1,63,220,11,-1,11,220,221,-1,11,221,14,-1,14,221,222,-1,14,222,118,-1,118,222,223,-1,118,223,116,-1,116,223,224,-1,116,224,114,-1,114,224,225,-1,114,225,112,-1,112,225,226,-1,112,226,110,-1,110,226,227,-1,110,227,228,-1,229,132,228,-1,228,132,134,-1,228,134,110,-1,229,230,132,-1,132,230,231,-1,132,231,0,-1,0,231,232,-1,0,232,1,-1,1,232,233,-1,1,233,31,-1,31,233,234,-1,31,234,32,-1,32,234,235,-1,32,235,34,-1,34,235,236,-1,34,236,35,-1,35,236,237,-1,35,237,7,-1,7,237,238,-1,7,238,8,-1,8,238,239,-1,8,239,27,-1,27,239,240,-1,27,240,29,-1,29,240,241,-1,29,241,122,-1,122,241,242,-1,122,242,124,-1,243,80,244,-1,244,80,109,-1,244,109,245,-1,245,109,108,-1,245,108,246,-1,246,108,106,-1,246,106,247,-1,247,106,129,-1,247,129,248,-1,248,129,128,-1,248,128,249,-1,249,128,126,-1,249,126,250,-1,250,126,124,-1,250,124,242,-1,81,80,251,-1,251,80,243,-1,81,251,252,-1,81,252,83,-1,83,252,253,-1,83,253,85,-1,85,253,254,-1,85,254,87,-1,87,254,255,-1,87,255,89,-1,89,255,256,-1,89,256,91,-1,256,257,91,-1,91,257,258,-1,91,258,93,-1,93,258,259,-1,93,259,95,-1,95,259,260,-1,95,260,97,-1,97,260,261,-1,97,261,99,-1,99,261,262,-1,99,262,101,-1,101,262,263,-1,101,263,103,-1,103,263,264,-1,103,264,104,-1,104,264,265,-1,104,265,55,-1,55,265,266,-1,55,266,57,-1,59,57,267,-1,267,57,266,-1,59,267,268,-1,59,268,140,-1,140,268,269,-1,140,269,137,-1,137,269,270,-1,137,270,151,-1,151,270,271,-1,151,271,145,-1,145,271,272,-1,145,272,146,-1,146,272,273,-1,146,273,148,-1,148,273,274,-1,148,274,149,-1,149,274,275,-1,149,275,150,-1,150,275,276,-1,150,276,147,-1,147,276,277,-1,147,277,142,-1,142,277,278,-1,142,278,143,-1,143,278,279,-1,143,279,144,-1,144,279,280,-1,144,280,138,-1,138,280,281,-1,138,281,139,-1,139,281,282,-1,139,282,141,-1,141,282,283,-1,141,283,60,-1,60,283,284,-1,60,284,58,-1,56,58,285,-1,285,58,284,-1,56,285,286,-1,56,286,54,-1,54,286,287,-1,54,287,102,-1,102,287,288,-1,102,288,100,-1,100,288,289,-1,100,289,98,-1,98,289,290,-1,98,290,96,-1,96,290,156,-1,96,156,94,-1,72,291,292,-1,72,292,74,-1,74,292,293,-1,74,293,76,-1,76,293,294,-1,76,294,78,-1,78,294,295,-1,78,295,79,-1,79,295,296,-1,79,296,50,-1,50,296,297,-1,50,297,51,-1,51,297,298,-1,51,298,52,-1,52,298,299,-1,52,299,53,-1,53,299,300,-1,53,300,36,-1,36,300,301,-1,36,301,37,-1,37,301,302,-1,37,302,38,-1,38,302,303,-1,38,303,40,-1,40,303,304,-1,40,304,42,-1,42,304,305,-1,42,305,44,-1,44,305,306,-1,44,306,46,-1,46,306,307,-1,46,307,48,-1,48,307,308,-1,48,308,49,-1,49,308,309,-1,49,309,23,-1,23,309,310,-1,23,310,9,-1,9,310,311,-1,9,311,10,-1,10,311,312,-1,10,312,61,-1,61,312,313,-1,61,313,62,-1,62,313,314,-1,62,314,64,-1,64,314,315,-1,64,315,66,-1,66,315,316,-1,66,316,68,-1,68,316,317,-1,68,317,70,-1,70,317,291,-1,70,291,72,-1,
        ]
    }
}
Shape{
    appearance Appearance {
        material  Material {
            diffuseColor 0.25098039215686274 0.25098039215686274 0.25098039215686274
            specularColor 0.12549019607843137 0.12549019607843137 0.12549019607843137
            ambientIntensity 0.251
            transparency 0.0
            shininess 0.5
        }
    }
    geometry IndexedFaceSet {
        ccw TRUE
        solid FALSE
        coord DEF co Coordinate {
            point [
                2.2965 -0.4902 0.0792, 2.2871 -0.4902 0.1049, 2.2856 -0.4902 0.1033, 2.3009 -0.4902 0.0797, 2.3042 -0.4902 0.081, 2.3003 -0.4902 0.1085, 2.2971 -0.4902 0.1088, 2.2934 -0.4902 0.1083, 2.2901 -0.4902 0.107, 2.283 -0.4902 0.0894, 2.2845 -0.4902 0.0862, 2.2867 -0.4902 0.0835, 2.2971 -0.4902 0.0792, 2.2836 -0.4902 0.1002, 2.2825 -0.4902 0.0966, 2.2823 -0.4902 0.0929, 2.2896 -0.4902 0.0813, 2.293 -0.4902 0.0798, 2.3071 -0.4902 0.0831, 2.3091 -0.4902 0.0854, 2.3109 -0.4902 0.0887, 2.3118 -0.4902 0.0923, 2.3118 -0.4902 0.0958, 2.3109 -0.4902 0.0993, 2.3093 -0.4902 0.1024, 2.3068 -0.4902 0.1051, 2.3038 -0.4902 0.1072, 1.374 -0.124 0.9843, 1.1969 -0.4902 0.9843, 1.626 -0.124 0.9843, 1.8031 -0.4902 0.9843, 2.0 -0.2933 0.9843, 2.0 0.2972 0.9843, 1.626 0.128 0.9843, 1.8031 0.4941 0.9843, 1.374 0.128 0.9843, 1.1969 0.4941 0.9843, 1.0 0.2972 0.9843, 1.0 -0.2933 0.9843, 1.626 0.128 0.1181, 2.0 0.2972 0.1181, 1.626 -0.124 0.1181, 2.0 -0.2933 0.1181, 1.374 -0.124 0.1181, 1.0 -0.2933 0.1181, 1.374 0.128 0.1181, 1.0 0.2972 0.1181, 2.0 -0.2933 0.0, 1.8031 -0.4902 0.0, 1.0 -0.2933 0.0, 1.1969 -0.4902 0.0, 1.8031 0.4941 0.0, 1.1969 0.4941 0.0, 1.0 0.2972 0.0, 2.0 0.2972 0.0
            ]
        }
        coordIndex [
            0,1,2,-1,3,4,5,-1,6,7,0,-1,0,7,8,-1,0,8,1,-1,9,10,2,-1,2,10,11,-1,6,0,5,-1,5,0,12,-1,5,12,3,-1,13,14,2,-1,2,14,15,-1,2,15,9,-1,11,16,2,-1,2,16,17,-1,2,17,0,-1,4,18,5,-1,5,18,19,-1,5,19,20,-1,20,21,5,-1,5,21,22,-1,5,22,23,-1,23,24,5,-1,5,24,25,-1,5,25,26,-1,27,28,29,-1,29,28,30,-1,30,31,29,-1,29,31,32,-1,29,32,33,-1,33,32,34,-1,33,34,35,-1,35,34,36,-1,35,36,27,-1,27,36,37,-1,27,37,28,-1,28,37,38,-1,39,40,41,-1,41,40,42,-1,41,42,43,-1,43,42,44,-1,43,44,45,-1,45,44,46,-1,45,46,39,-1,39,46,40,-1,32,31,40,-1,40,31,42,-1,38,37,44,-1,44,37,46,-1,47,48,49,-1,49,48,50,-1,51,52,34,-1,34,52,36,-1,50,48,28,-1,28,48,30,-1,53,52,54,-1,54,52,51,-1,49,50,44,-1,44,50,28,-1,44,28,38,-1,31,30,42,-1,42,30,48,-1,42,48,47,-1,54,51,40,-1,40,51,34,-1,40,34,32,-1,37,36,46,-1,46,36,52,-1,46,52,53,-1,44,42,49,-1,49,42,47,-1,40,46,54,-1,54,46,53,-1,
        ]
    }
}
Shape{
    appearance Appearance {
        material  Material {
            diffuseColor 0.7529411764705882 0.7529411764705882 0.7529411764705882
            specularColor 0.3764705882352941 0.3764705882352941 0.3764705882352941
            ambientIntensity 0.7529
            transparency 0.0
            shininess 0.5
        }
    }
    geometry IndexedFaceSet {
        ccw TRUE
        solid FALSE
        coord DEF co Coordinate {
            point [
                1.5687 -0.0667 -1.1811, 1.4313 -0.0667 -1.1811, 1.5687 0.0706 -1.1811, 1.4313 0.0706 -1.1811, 1.374 0.128 -1.0236, 1.374 0.128 0.1181, 1.626 0.128 -1.0236, 1.626 0.128 0.1181, 1.626 -0.124 -1.0236, 1.626 -0.124 0.1181, 1.374 -0.124 -1.0236, 1.374 -0.124 0.1181, 1.626 -0.124 3.189, 1.626 -0.124 0.9843, 1.626 0.128 3.189, 1.626 0.128 0.9843, 1.374 0.128 3.189, 1.374 0.128 0.9843, 1.374 -0.124 3.189, 1.374 -0.124 0.9843, 1.4313 -0.0667 3.3465, 1.5687 -0.0667 3.3465, 1.4313 0.0706 3.3465, 1.5687 0.0706 3.3465
            ]
        }
        coordIndex [
            0,1,2,-1,2,1,3,-1,4,5,6,-1,6,5,7,-1,8,9,10,-1,10,9,11,-1,10,11,4,-1,4,11,5,-1,6,7,8,-1,8,7,9,-1,12,13,14,-1,14,13,15,-1,16,17,18,-1,18,17,19,-1,14,15,16,-1,16,15,17,-1,18,19,12,-1,12,19,13,-1,20,21,22,-1,22,21,23,-1,4,3,10,-1,10,3,1,-1,6,2,4,-1,4,2,3,-1,0,8,1,-1,1,8,10,-1,8,0,6,-1,6,0,2,-1,14,23,12,-1,12,23,21,-1,16,22,14,-1,14,22,23,-1,20,18,21,-1,21,18,12,-1,18,20,16,-1,16,20,22,-1,
        ]
    }
}
Shape{
    appearance Appearance {
        material  Material {
            diffuseColor 0.25098039215686274 0.25098039215686274 0.25098039215686274
            specularColor 0.12549019607843137 0.12549019607843137 0.12549019607843137
            ambientIntensity 0.251
            transparency 0.0
            shininess 0.5
        }
    }
    geometry IndexedFaceSet {
        ccw TRUE
        solid FALSE
        coord DEF co Coordinate {
            point [
                0.374 -0.124 0.9843, 0.1969 -0.4902 0.9843, 0.626 -0.124 0.9843, 0.8031 -0.4902 0.9843, 1.0 -0.2933 0.9843, 1.0 0.2972 0.9843, 0.626 0.128 0.9843, 0.8031 0.4941 0.9843, 0.374 0.128 0.9843, 0.1969 0.4941 0.9843, -0.0 0.2972 0.9843, -0.0 -0.2933 0.9843, 0.626 0.128 0.1181, 1.0 0.2972 0.1181, 0.626 -0.124 0.1181, 1.0 -0.2933 0.1181, 0.374 -0.124 0.1181, -0.0 -0.2933 0.1181, 0.374 0.128 0.1181, -0.0 0.2972 0.1181, 1.0 -0.2933 0.0, 0.8031 -0.4902 0.0, -0.0 -0.2933 0.0, 0.1969 -0.4902 0.0, 0.8031 0.4941 0.0, 0.1969 0.4941 0.0, -0.0 0.2972 0.0, 1.0 0.2972 0.0
            ]
        }
        coordIndex [
            0,1,2,-1,2,1,3,-1,3,4,2,-1,2,4,5,-1,2,5,6,-1,6,5,7,-1,6,7,8,-1,8,7,9,-1,8,9,0,-1,0,9,10,-1,0,10,1,-1,1,10,11,-1,12,13,14,-1,14,13,15,-1,14,15,16,-1,16,15,17,-1,16,17,18,-1,18,17,19,-1,18,19,12,-1,12,19,13,-1,5,4,13,-1,13,4,15,-1,11,10,17,-1,17,10,19,-1,20,21,22,-1,22,21,23,-1,24,25,7,-1,7,25,9,-1,23,21,1,-1,1,21,3,-1,26,25,27,-1,27,25,24,-1,22,23,17,-1,17,23,1,-1,17,1,11,-1,4,3,15,-1,15,3,21,-1,15,21,20,-1,27,24,13,-1,13,24,7,-1,13,7,5,-1,10,9,19,-1,19,9,25,-1,19,25,26,-1,17,15,22,-1,22,15,20,-1,13,19,27,-1,27,19,26,-1,
        ]
    }
}
Shape{
    appearance Appearance {
        material  Material {
            diffuseColor 0.7529411764705882 0.7529411764705882 0.7529411764705882
            specularColor 0.3764705882352941 0.3764705882352941 0.3764705882352941
            ambientIntensity 0.7529
            transparency 0.0
            shininess 0.5
        }
    }
    geometry IndexedFaceSet {
        ccw TRUE
        solid FALSE
        coord DEF co Coordinate {
            point [
                0.5687 -0.0667 -1.1811, 0.4313 -0.0667 -1.1811, 0.5687 0.0706 -1.1811, 0.4313 0.0706 -1.1811, 0.374 0.128 -1.0236, 0.374 0.128 0.1181, 0.626 0.128 -1.0236, 0.626 0.128 0.1181, 0.626 -0.124 -1.0236, 0.626 -0.124 0.1181, 0.374 -0.124 -1.0236, 0.374 -0.124 0.1181, 0.626 -0.124 3.189, 0.626 -0.124 0.9843, 0.626 0.128 3.189, 0.626 0.128 0.9843, 0.374 0.128 3.189, 0.374 0.128 0.9843, 0.374 -0.124 3.189, 0.374 -0.124 0.9843, 0.4313 -0.0667 3.3465, 0.5687 -0.0667 3.3465, 0.4313 0.0706 3.3465, 0.5687 0.0706 3.3465
            ]
        }
        coordIndex [
            0,1,2,-1,2,1,3,-1,4,5,6,-1,6,5,7,-1,8,9,10,-1,10,9,11,-1,10,11,4,-1,4,11,5,-1,6,7,8,-1,8,7,9,-1,12,13,14,-1,14,13,15,-1,16,17,18,-1,18,17,19,-1,14,15,16,-1,16,15,17,-1,18,19,12,-1,12,19,13,-1,20,21,22,-1,22,21,23,-1,4,3,10,-1,10,3,1,-1,6,2,4,-1,4,2,3,-1,0,8,1,-1,1,8,10,-1,8,0,6,-1,6,0,2,-1,14,23,12,-1,12,23,21,-1,16,22,14,-1,14,22,23,-1,20,18,21,-1,21,18,12,-1,18,20,16,-1,16,20,22,-1,
        ]
    }
}
Shape{
    appearance Appearance {
        material  Material {
            diffuseColor 0.25098039215686274 0.25098039215686274 0.25098039215686274
            specularColor 0.12549019607843137 0.12549019607843137 0.12549019607843137
            ambientIntensity 0.251
            transparency 0.0
            shininess 0.5
        }
    }
    geometry IndexedFaceSet {
        ccw TRUE
        solid FALSE
        coord DEF co Coordinate {
            point [
                -0.8031 0.4941 0.9843, -0.626 0.128 0.9843, -0.1969 0.4941 0.9843, -0.374 0.128 0.9843, -0.0 0.2972 0.9843, -0.374 -0.124 0.9843, -0.0 -0.2933 0.9843, -1.0 0.2972 0.9843, -1.0 -0.2933 0.9843, -0.626 -0.124 0.9843, -0.8031 -0.4902 0.9843, -0.1969 -0.4902 0.9843, -0.374 0.128 0.1181, -0.0 0.2972 0.1181, -0.374 -0.124 0.1181, -0.0 -0.2933 0.1181, -0.626 -0.124 0.1181, -1.0 -0.2933 0.1181, -0.626 0.128 0.1181, -1.0 0.2972 0.1181, -0.0 -0.2933 0.0, -0.1969 -0.4902 0.0, -1.0 -0.2933 0.0, -0.8031 -0.4902 0.0, -0.1969 0.4941 0.0, -0.8031 0.4941 0.0, -1.0 0.2972 0.0, -0.0 0.2972 0.0
            ]
        }
        coordIndex [
            0,1,2,-1,2,1,3,-1,2,3,4,-1,4,3,5,-1,4,5,6,-1,0,7,1,-1,1,7,8,-1,1,8,9,-1,9,8,10,-1,9,10,5,-1,5,10,11,-1,5,11,6,-1,12,13,14,-1,14,13,15,-1,14,15,16,-1,16,15,17,-1,16,17,18,-1,18,17,19,-1,18,19,12,-1,12,19,13,-1,4,6,13,-1,13,6,15,-1,8,7,17,-1,17,7,19,-1,20,21,22,-1,22,21,23,-1,24,25,2,-1,2,25,0,-1,23,21,10,-1,10,21,11,-1,26,25,27,-1,27,25,24,-1,22,23,17,-1,17,23,10,-1,17,10,8,-1,6,11,15,-1,15,11,21,-1,15,21,20,-1,27,24,13,-1,13,24,2,-1,13,2,4,-1,7,0,19,-1,19,0,25,-1,19,25,26,-1,17,15,22,-1,22,15,20,-1,13,19,27,-1,27,19,26,-1,
        ]
    }
}
Shape{
    appearance Appearance {
        material  Material {
            diffuseColor 0.7529411764705882 0.7529411764705882 0.7529411764705882
            specularColor 0.3764705882352941 0.3764705882352941 0.3764705882352941
            ambientIntensity 0.7529
            transparency 0.0
            shininess 0.5
        }
    }
    geometry IndexedFaceSet {
        ccw TRUE
        solid FALSE
        coord DEF co Coordinate {
            point [
                -0.4313 -0.0667 -1.1811, -0.5687 -0.0667 -1.1811, -0.4313 0.0706 -1.1811, -0.5687 0.0706 -1.1811, -0.626 0.128 -1.0236, -0.626 0.128 0.1181, -0.374 0.128 -1.0236, -0.374 0.128 0.1181, -0.374 -0.124 -1.0236, -0.374 -0.124 0.1181, -0.626 -0.124 -1.0236, -0.626 -0.124 0.1181, -0.374 -0.124 3.189, -0.374 -0.124 0.9843, -0.374 0.128 3.189, -0.374 0.128 0.9843, -0.626 0.128 3.189, -0.626 0.128 0.9843, -0.626 -0.124 3.189, -0.626 -0.124 0.9843, -0.5687 -0.0667 3.3465, -0.4313 -0.0667 3.3465, -0.5687 0.0706 3.3465, -0.4313 0.0706 3.3465
            ]
        }
        coordIndex [
            0,1,2,-1,2,1,3,-1,4,5,6,-1,6,5,7,-1,8,9,10,-1,10,9,11,-1,10,11,4,-1,4,11,5,-1,6,7,8,-1,8,7,9,-1,12,13,14,-1,14,13,15,-1,16,17,18,-1,18,17,19,-1,14,15,16,-1,16,15,17,-1,18,19,12,-1,12,19,13,-1,20,21,22,-1,22,21,23,-1,4,3,10,-1,10,3,1,-1,6,2,4,-1,4,2,3,-1,0,8,1,-1,1,8,10,-1,8,0,6,-1,6,0,2,-1,14,23,12,-1,12,23,21,-1,16,22,14,-1,14,22,23,-1,20,18,21,-1,21,18,12,-1,18,20,16,-1,16,20,22,-1,
        ]
    }
}
Shape{
    appearance Appearance {
        material  Material {
            diffuseColor 0.25098039215686274 0.25098039215686274 0.25098039215686274
            specularColor 0.12549019607843137 0.12549019607843137 0.12549019607843137
            ambientIntensity 0.251
            transparency 0.0
            shininess 0.5
        }
    }
    geometry IndexedFaceSet {
        ccw TRUE
        solid FALSE
        coord DEF co Coordinate {
            point [
                -1.8031 0.4941 0.9843, -1.626 0.128 0.9843, -1.1969 0.4941 0.9843, -1.374 0.128 0.9843, -1.0 0.2972 0.9843, -1.374 -0.124 0.9843, -1.0 -0.2933 0.9843, -2.0 0.2972 0.9843, -2.0 -0.2933 0.9843, -1.626 -0.124 0.9843, -1.8031 -0.4902 0.9843, -1.1969 -0.4902 0.9843, -1.374 0.128 0.1181, -1.0 0.2972 0.1181, -1.374 -0.124 0.1181, -1.0 -0.2933 0.1181, -1.626 -0.124 0.1181, -2.0 -0.2933 0.1181, -1.626 0.128 0.1181, -2.0 0.2972 0.1181, -1.0 -0.2933 0.0, -1.1969 -0.4902 0.0, -2.0 -0.2933 0.0, -1.8031 -0.4902 0.0, -1.1969 0.4941 0.0, -1.8031 0.4941 0.0, -2.0 0.2972 0.0, -1.0 0.2972 0.0
            ]
        }
        coordIndex [
            0,1,2,-1,2,1,3,-1,2,3,4,-1,4,3,5,-1,4,5,6,-1,0,7,1,-1,1,7,8,-1,1,8,9,-1,9,8,10,-1,9,10,5,-1,5,10,11,-1,5,11,6,-1,12,13,14,-1,14,13,15,-1,14,15,16,-1,16,15,17,-1,16,17,18,-1,18,17,19,-1,18,19,12,-1,12,19,13,-1,4,6,13,-1,13,6,15,-1,8,7,17,-1,17,7,19,-1,20,21,22,-1,22,21,23,-1,24,25,2,-1,2,25,0,-1,23,21,10,-1,10,21,11,-1,26,25,27,-1,27,25,24,-1,22,23,17,-1,17,23,10,-1,17,10,8,-1,6,11,15,-1,15,11,21,-1,15,21,20,-1,27,24,13,-1,13,24,2,-1,13,2,4,-1,7,0,19,-1,19,0,25,-1,19,25,26,-1,17,15,22,-1,22,15,20,-1,13,19,27,-1,27,19,26,-1,
        ]
    }
}
Shape{
    appearance Appearance {
        material  Material {
            diffuseColor 0.7529411764705882 0.7529411764705882 0.7529411764705882
            specularColor 0.3764705882352941 0.3764705882352941 0.3764705882352941
            ambientIntensity 0.7529
            transparency 0.0
            shininess 0.5
        }
    }
    geometry IndexedFaceSet {
        ccw TRUE
        solid FALSE
        coord DEF co Coordinate {
            point [
                -1.4313 -0.0667 -1.1811, -1.5687 -0.0667 -1.1811, -1.4313 0.0706 -1.1811, -1.5687 0.0706 -1.1811, -1.626 0.128 -1.0236, -1.626 0.128 0.1181, -1.374 0.128 -1.0236, -1.374 0.128 0.1181, -1.374 -0.124 -1.0236, -1.374 -0.124 0.1181, -1.626 -0.124 -1.0236, -1.626 -0.124 0.1181, -1.374 -0.124 3.189, -1.374 -0.124 0.9843, -1.374 0.128 3.189, -1.374 0.128 0.9843, -1.626 0.128 3.189, -1.626 0.128 0.9843, -1.626 -0.124 3.189, -1.626 -0.124 0.9843, -1.5687 -0.0667 3.3465, -1.4313 -0.0667 3.3465, -1.5687 0.0706 3.3465, -1.4313 0.0706 3.3465
            ]
        }
        coordIndex [
            0,1,2,-1,2,1,3,-1,4,5,6,-1,6,5,7,-1,8,9,10,-1,10,9,11,-1,10,11,4,-1,4,11,5,-1,6,7,8,-1,8,7,9,-1,12,13,14,-1,14,13,15,-1,16,17,18,-1,18,17,19,-1,14,15,16,-1,16,15,17,-1,18,19,12,-1,12,19,13,-1,20,21,22,-1,22,21,23,-1,4,3,10,-1,10,3,1,-1,6,2,4,-1,4,2,3,-1,0,8,1,-1,1,8,10,-1,8,0,6,-1,6,0,2,-1,14,23,12,-1,12,23,21,-1,16,22,14,-1,14,22,23,-1,20,18,21,-1,21,18,12,-1,18,20,16,-1,16,20,22,-1,
        ]
    }
}
Shape{
    appearance Appearance {
        material  Material {
            diffuseColor 0.25098039215686274 0.25098039215686274 0.25098039215686274
            specularColor 0.12549019607843137 0.12549019607843137 0.12549019607843137
            ambientIntensity 0.251
            transparency 0.0
            shininess 0.5
        }
    }
    geometry IndexedFaceSet {
        ccw TRUE
        solid FALSE
        coord DEF co Coordinate {
            point [
                -2.8031 0.4941 0.9843, -2.626 0.128 0.9843, -2.1969 0.4941 0.9843, -2.374 0.128 0.9843, -2.0 0.2972 0.9843, -2.374 -0.124 0.9843, -2.0 -0.2933 0.9843, -3.0 0.2972 0.9843, -3.0 -0.2933 0.9843, -2.626 -0.124 0.9843, -2.8031 -0.4902 0.9843, -2.1969 -0.4902 0.9843, -2.374 0.128 0.1181, -2.0 0.2972 0.1181, -2.374 -0.124 0.1181, -2.0 -0.2933 0.1181, -2.626 -0.124 0.1181, -3.0 -0.2933 0.1181, -2.626 0.128 0.1181, -3.0 0.2972 0.1181, -2.0 -0.2933 0.0, -2.1969 -0.4902 0.0, -3.0 -0.2933 0.0, -2.8031 -0.4902 0.0, -2.1969 0.4941 0.0, -2.8031 0.4941 0.0, -3.0 0.2972 0.0, -2.0 0.2972 0.0
            ]
        }
        coordIndex [
            0,1,2,-1,2,1,3,-1,2,3,4,-1,4,3,5,-1,4,5,6,-1,0,7,1,-1,1,7,8,-1,1,8,9,-1,9,8,10,-1,9,10,5,-1,5,10,11,-1,5,11,6,-1,12,13,14,-1,14,13,15,-1,14,15,16,-1,16,15,17,-1,16,17,18,-1,18,17,19,-1,18,19,12,-1,12,19,13,-1,4,6,13,-1,13,6,15,-1,8,7,17,-1,17,7,19,-1,20,21,22,-1,22,21,23,-1,24,25,2,-1,2,25,0,-1,23,21,10,-1,10,21,11,-1,26,25,27,-1,27,25,24,-1,22,23,17,-1,17,23,10,-1,17,10,8,-1,6,11,15,-1,15,11,21,-1,15,21,20,-1,27,24,13,-1,13,24,2,-1,13,2,4,-1,7,0,19,-1,19,0,25,-1,19,25,26,-1,17,15,22,-1,22,15,20,-1,13,19,27,-1,27,19,26,-1,
        ]
    }
}
Shape{
    appearance Appearance {
        material  Material {
            diffuseColor 0.7529411764705882 0.7529411764705882 0.7529411764705882
            specularColor 0.3764705882352941 0.3764705882352941 0.3764705882352941
            ambientIntensity 0.7529
            transparency 0.0
            shininess 0.5
        }
    }
    geometry IndexedFaceSet {
        ccw TRUE
        solid FALSE
        coord DEF co Coordinate {
            point [
                -2.4313 -0.0667 -1.1811, -2.5687 -0.0667 -1.1811, -2.4313 0.0706 -1.1811, -2.5687 0.0706 -1.1811, -2.626 0.128 -1.0236, -2.626 0.128 0.1181, -2.374 0.128 -1.0236, -2.374 0.128 0.1181, -2.374 -0.124 -1.0236, -2.374 -0.124 0.1181, -2.626 -0.124 -1.0236, -2.626 -0.124 0.1181, -2.374 -0.124 3.189, -2.374 -0.124 0.9843, -2.374 0.128 3.189, -2.374 0.128 0.9843, -2.626 0.128 3.189, -2.626 0.128 0.9843, -2.626 -0.124 3.189, -2.626 -0.124 0.9843, -2.5687 -0.0667 3.3465, -2.4313 -0.0667 3.3465, -2.5687 0.0706 3.3465, -2.4313 0.0706 3.3465
            ]
        }
        coordIndex [
            0,1,2,-1,2,1,3,-1,4,5,6,-1,6,5,7,-1,8,9,10,-1,10,9,11,-1,10,11,4,-1,4,11,5,-1,6,7,8,-1,8,7,9,-1,12,13,14,-1,14,13,15,-1,16,17,18,-1,18,17,19,-1,14,15,16,-1,16,15,17,-1,18,19,12,-1,12,19,13,-1,20,21,22,-1,22,21,23,-1,4,3,10,-1,10,3,1,-1,6,2,4,-1,4,2,3,-1,0,8,1,-1,1,8,10,-1,8,0,6,-1,6,0,2,-1,14,23,12,-1,12,23,21,-1,16,22,14,-1,14,22,23,-1,20,18,21,-1,21,18,12,-1,18,20,16,-1,16,20,22,-1,
        ]
    }
}