%TF.GenerationSoftware,KiCad,Pcbnew,10.0.6*%
%TF.CreationDate,2026-10-08T20:53:08+08:00*%
%TF.ProjectId,keyboard,6b657962-6f61-4726-942e-6b696361645f,rev?*%
%TF.SameCoordinates,Original*%
%TF.FileFunction,Copper,L2,Bot*%
%TF.FilePolarity,Positive*%
%FSLAX46Y46*%
G04 Gerber Fmt 4.6, Leading zero omitted, Abs format (unit mm)*
G04 Created by KiCad (PCBNEW 10.0.6) date 2026-10-08 20:53:08*
%MOMM*%
%LPD*%
G01*
G04 APERTURE LIST*
G04 Aperture macros list*
%AMRoundRect*
0 Rectangle with rounded corners*
0 $1 Rounding radius*
0 $2 $3 $4 $5 $6 $7 $8 $9 X,Y pos of 4 corners*
0 Add a 4 corners polygon primitive as box body*
4,1,4,$2,$3,$4,$5,$6,$7,$8,$9,$2,$3,0*
0 Add four circle primitives for the rounded corners*
1,1,$1+$1,$2,$3*
1,1,$1+$1,$4,$5*
1,1,$1+$1,$6,$7*
1,1,$1+$1,$8,$9*
0 Add four rect primitives between the rounded corners*
20,1,$1+$1,$2,$3,$4,$5,0*
20,1,$1+$1,$4,$5,$6,$7,0*
20,1,$1+$1,$6,$7,$8,$9,0*
20,1,$1+$1,$8,$9,$2,$3,0*%
G04 Aperture macros list end*
%TA.AperFunction,ComponentPad*%
%ADD10C,1.600000*%
%TD*%
%TA.AperFunction,SMDPad,CuDef*%
%ADD11C,2.000000*%
%TD*%
%TA.AperFunction,SMDPad,CuDef*%
%ADD12O,0.574000X2.388000*%
%TD*%
%TA.AperFunction,SMDPad,CuDef*%
%ADD13RoundRect,0.250000X0.550000X-1.500000X0.550000X1.500000X-0.550000X1.500000X-0.550000X-1.500000X0*%
%TD*%
%TA.AperFunction,ViaPad*%
%ADD14C,0.600000*%
%TD*%
%TA.AperFunction,Conductor*%
%ADD15C,0.200000*%
%TD*%
%TA.AperFunction,Conductor*%
%ADD16C,0.400000*%
%TD*%
G04 APERTURE END LIST*
D10*
%TO.P,LED2,1,E_1*%
%TO.N,/SEG5*%
X95800000Y-85240000D03*
%TO.P,LED2,2,D_2*%
%TO.N,/SEG4*%
X98340000Y-85240000D03*
%TO.P,LED2,3,DP_3*%
%TO.N,/SEG8*%
X100880000Y-85240000D03*
%TO.P,LED2,4,C_4*%
%TO.N,/SEG3*%
X103420000Y-85240000D03*
%TO.P,LED2,5,G_5*%
%TO.N,/SEG7*%
X105960000Y-85240000D03*
%TO.P,LED2,7,B_7*%
%TO.N,/SEG2*%
X108500000Y-70000000D03*
%TO.P,LED2,8,DIG3_8*%
%TO.N,/GRID6*%
X105960000Y-70000000D03*
%TO.P,LED2,9,DIG2_9*%
%TO.N,/GRID5*%
X103420000Y-70000000D03*
%TO.P,LED2,10,F_10*%
%TO.N,/SEG6*%
X100880000Y-70000000D03*
%TO.P,LED2,11,A_11*%
%TO.N,/SEG1*%
X98340000Y-70000000D03*
%TO.P,LED2,12,DIG1_12*%
%TO.N,/GRID4*%
X95800000Y-70000000D03*
%TD*%
%TO.P,LED1,1,E_1*%
%TO.N,/SEG5*%
X95800000Y-106740000D03*
%TO.P,LED1,2,D_2*%
%TO.N,/SEG4*%
X98340000Y-106740000D03*
%TO.P,LED1,3,DP_3*%
%TO.N,/SEG8*%
X100880000Y-106740000D03*
%TO.P,LED1,4,C_4*%
%TO.N,/SEG3*%
X103420000Y-106740000D03*
%TO.P,LED1,5,G_5*%
%TO.N,/SEG7*%
X105960000Y-106740000D03*
%TO.P,LED1,7,B_7*%
%TO.N,/SEG2*%
X108500000Y-91500000D03*
%TO.P,LED1,8,DIG3_8*%
%TO.N,/GRID3*%
X105960000Y-91500000D03*
%TO.P,LED1,9,DIG2_9*%
%TO.N,/GRID2*%
X103420000Y-91500000D03*
%TO.P,LED1,10,F_10*%
%TO.N,/SEG6*%
X100880000Y-91500000D03*
%TO.P,LED1,11,A_11*%
%TO.N,/SEG1*%
X98340000Y-91500000D03*
%TO.P,LED1,12,DIG1_12*%
%TO.N,/GRID1*%
X95800000Y-91500000D03*
%TD*%
D11*
%TO.P,TP1,1,1_1*%
%TO.N,Net-(U1-STB)*%
X144500000Y-96500000D03*
%TD*%
%TO.P,TP2,1,1_1*%
%TO.N,Net-(U1-CLK)*%
X148575000Y-96500000D03*
%TD*%
%TO.P,TP3,1,1_1*%
%TO.N,Net-(U1-DIO)*%
X152625000Y-96500000D03*
%TD*%
D12*
%TO.P,U1,1,K1_1*%
%TO.N,unconnected-(U1-K1-Pad1)*%
X130240000Y-108000000D03*
%TO.P,U1,2,K2_2*%
%TO.N,Net-(SW10-A)*%
X128980000Y-108000000D03*
%TO.P,U1,3,K3_3*%
%TO.N,Net-(SW1-A)*%
X127710000Y-108000000D03*
%TO.P,U1,4,VDD_4*%
%TO.N,+5V*%
X126440000Y-108000000D03*
%TO.P,U1,5,SEG1/K1_5*%
%TO.N,/SEG1*%
X125160000Y-108000000D03*
%TO.P,U1,6,SEG2/K2_6*%
%TO.N,/SEG2*%
X123890000Y-108000000D03*
%TO.P,U1,7,SEG3/K3_7*%
%TO.N,/SEG3*%
X122620000Y-108000000D03*
%TO.P,U1,8,SEG4/K4_8*%
%TO.N,/SEG4*%
X121360000Y-108000000D03*
%TO.P,U1,9,SEG5/K5_9*%
%TO.N,/SEG5*%
X120090000Y-108000000D03*
%TO.P,U1,10,SEG6/K6_10*%
%TO.N,/SEG6*%
X118820000Y-108000000D03*
%TO.P,U1,11,SEG7/K7_11*%
%TO.N,/SEG7*%
X117540000Y-108000000D03*
%TO.P,U1,12,SEG8/K8_12*%
%TO.N,/SEG8*%
X116270000Y-108000000D03*
%TO.P,U1,13,SEG9_13*%
%TO.N,unconnected-(U1-SEG9-Pad13)*%
X115000000Y-108000000D03*
%TO.P,U1,14,SEG10_14*%
%TO.N,unconnected-(U1-SEG10-Pad14)*%
X113730000Y-108000000D03*
%TO.P,U1,15,VDD_15*%
%TO.N,+5V*%
X113730000Y-98520000D03*
%TO.P,U1,16,GR8_16*%
%TO.N,unconnected-(U1-GR8-Pad16)*%
X115000000Y-98520000D03*
%TO.P,U1,17,GR7_17*%
%TO.N,unconnected-(U1-GR7-Pad17)*%
X116270000Y-98520000D03*
%TO.P,U1,18,GND_18*%
%TO.N,GND*%
X117540000Y-98520000D03*
%TO.P,U1,19,GR6_19*%
%TO.N,/GRID6*%
X118820000Y-98520000D03*
%TO.P,U1,20,GR5_20*%
%TO.N,/GRID5*%
X120090000Y-98520000D03*
%TO.P,U1,21,GR4_21*%
%TO.N,/GRID4*%
X121360000Y-98520000D03*
%TO.P,U1,22,GR3_22*%
%TO.N,/GRID3*%
X122620000Y-98520000D03*
%TO.P,U1,23,GR2_23*%
%TO.N,/GRID2*%
X123890000Y-98520000D03*
%TO.P,U1,24,GR1_24*%
%TO.N,/GRID1*%
X125160000Y-98520000D03*
%TO.P,U1,25,GND_25*%
%TO.N,GND*%
X126440000Y-98520000D03*
%TO.P,U1,26,DIO_26*%
%TO.N,Net-(U1-DIO)*%
X127710000Y-98520000D03*
%TO.P,U1,27,CLK_27*%
%TO.N,Net-(U1-CLK)*%
X128980000Y-98520000D03*
%TO.P,U1,28,STB_28*%
%TO.N,Net-(U1-STB)*%
X130240000Y-98520000D03*
%TD*%
D11*
%TO.P,TP4,1,1_1*%
%TO.N,GND*%
X156500000Y-96525000D03*
%TD*%
D13*
%TO.P,C4,1*%
%TO.N,+5V*%
X135000000Y-107800000D03*
%TO.P,C4,2*%
%TO.N,GND*%
X135000000Y-102400000D03*
%TD*%
D14*
%TO.N,/SEG6*%
X118500000Y-88500000D03*
X103250000Y-105250000D03*
X122000000Y-84000000D03*
%TO.N,Net-(SW1-A)*%
X125000000Y-88750000D03*
X123625000Y-109775000D03*
X125000000Y-75500000D03*
%TO.N,Net-(SW10-A)*%
X131000000Y-90500000D03*
X128000000Y-110000000D03*
X132000000Y-78000000D03*
%TO.N,+5V*%
X133550000Y-108050000D03*
X126440000Y-105000000D03*
X114600000Y-96400000D03*
%TO.N,GND*%
X114000000Y-90000000D03*
X118200000Y-105400000D03*
X106250000Y-87500000D03*
X106000000Y-89500000D03*
X102500000Y-108500000D03*
X129000000Y-93750000D03*
X149800000Y-101400000D03*
X97750000Y-87750000D03*
X163500000Y-101100000D03*
X199800000Y-70000000D03*
X198400000Y-85000000D03*
X109750000Y-87500000D03*
X102250000Y-95250000D03*
X106750000Y-96500000D03*
X144900000Y-103300000D03*
X134000000Y-110000000D03*
X138000000Y-104500000D03*
X152600000Y-106000000D03*
X88400000Y-95200000D03*
X138495784Y-100122991D03*
X94750000Y-95000000D03*
X113999876Y-95186424D03*
X104750000Y-79250000D03*
X200200000Y-96000000D03*
X136500000Y-104600000D03*
X97400000Y-78000000D03*
X134000000Y-105100000D03*
X126500000Y-101000000D03*
X114000000Y-87500000D03*
X114250000Y-85000000D03*
X92500000Y-94750000D03*
X128250000Y-105250000D03*
X108500000Y-108250000D03*
X97250000Y-95000000D03*
X101250000Y-88250000D03*
X126500000Y-102750000D03*
X153200000Y-100400000D03*
X116500000Y-101500000D03*
X133200000Y-101200000D03*
%TO.N,/SEG5*%
X120000000Y-105500000D03*
%TO.N,/SEG4*%
X121360000Y-105500000D03*
X122500000Y-82000000D03*
X119000000Y-83000000D03*
X110000000Y-84000000D03*
%TO.N,/SEG3*%
X105000000Y-101900000D03*
X105000000Y-110500000D03*
X131800000Y-100900000D03*
%TO.N,/SEG7*%
X111500000Y-107500000D03*
X111500000Y-101500000D03*
%TO.N,/SEG2*%
X118500000Y-86000000D03*
X124000000Y-104500000D03*
X108500000Y-86000000D03*
X124000000Y-95000000D03*
%TO.N,/GRID6*%
X107500000Y-74100000D03*
%TO.N,/SEG1*%
X125160000Y-104500000D03*
X102000000Y-102500000D03*
X118500000Y-100500000D03*
%TO.N,/GRID4*%
X115000000Y-92500000D03*
X119000000Y-92500000D03*
%TO.N,Net-(U1-DIO)*%
X138000000Y-101600000D03*
X149762500Y-99362500D03*
%TO.N,Net-(U1-CLK)*%
X138200000Y-102600000D03*
%TO.N,Net-(U1-STB)*%
X138000000Y-99200000D03*
X152700000Y-104400000D03*
X144300000Y-106600000D03*
%TO.N,/GRID3*%
X118500000Y-91500000D03*
%TD*%
%TO.N,/SEG6*%
D15*
X117140000Y-105500000D02*
X118820000Y-107180000D01*
X117500000Y-88000000D02*
X118000000Y-88500000D01*
X103500000Y-105500000D02*
X117140000Y-105500000D01*
X118500000Y-84000000D02*
X117500000Y-85000000D01*
X122000000Y-84000000D02*
X118500000Y-84000000D01*
X117500000Y-85000000D02*
X117500000Y-88000000D01*
X103250000Y-105250000D02*
X103500000Y-105500000D01*
X118000000Y-88500000D02*
X118500000Y-88500000D01*
X118820000Y-107180000D02*
X118820000Y-108000000D01*
%TO.N,Net-(SW1-A)*%
X125000000Y-75500000D02*
X125000000Y-88750000D01*
X123625000Y-109775000D02*
X124000000Y-110150000D01*
X124000000Y-110150000D02*
X126027143Y-110150000D01*
X126027143Y-110150000D02*
X127710000Y-108467143D01*
X127710000Y-108467143D02*
X127710000Y-108000000D01*
%TO.N,Net-(SW10-A)*%
X128980000Y-109020000D02*
X128980000Y-108000000D01*
X131000000Y-90500000D02*
X132000000Y-89500000D01*
X132000000Y-89500000D02*
X132000000Y-78000000D01*
X128000000Y-110000000D02*
X128980000Y-109020000D01*
%TO.N,+5V*%
D16*
X113730000Y-97270000D02*
X113730000Y-98520000D01*
X126440000Y-105000000D02*
X126440000Y-108000000D01*
X133550000Y-108050000D02*
X134750000Y-108050000D01*
X114600000Y-96400000D02*
X113730000Y-97270000D01*
D15*
X113730000Y-98520000D02*
X113730000Y-97770000D01*
D16*
X134750000Y-108050000D02*
X135000000Y-107800000D01*
%TO.N,GND*%
D15*
X126440000Y-100940000D02*
X126440000Y-98520000D01*
X126500000Y-101000000D02*
X126440000Y-100940000D01*
%TO.N,/SEG5*%
X120090000Y-108000000D02*
X120090000Y-105590000D01*
X119000000Y-104500000D02*
X98040000Y-104500000D01*
X93500000Y-87500000D02*
X93500000Y-104440000D01*
X120090000Y-105590000D02*
X120000000Y-105500000D01*
X98040000Y-104500000D02*
X95800000Y-106740000D01*
X93540000Y-87500000D02*
X93500000Y-87500000D01*
X95800000Y-85240000D02*
X93540000Y-87500000D01*
X93500000Y-104440000D02*
X95800000Y-106740000D01*
X120000000Y-105500000D02*
X119000000Y-104500000D01*
%TO.N,/SEG4*%
X98340000Y-85240000D02*
X98340000Y-84160000D01*
X98340000Y-106740000D02*
X96580000Y-108500000D01*
X121360000Y-105500000D02*
X121360000Y-108000000D01*
X94000000Y-108500000D02*
X91500000Y-106000000D01*
X109500000Y-83500000D02*
X110000000Y-84000000D01*
X98000000Y-83500000D02*
X98340000Y-83840000D01*
X99000000Y-83500000D02*
X100500000Y-83500000D01*
X91500000Y-106000000D02*
X91500000Y-86000000D01*
X121500000Y-83000000D02*
X122500000Y-82000000D01*
X91500000Y-86000000D02*
X94000000Y-83500000D01*
X94000000Y-83500000D02*
X98000000Y-83500000D01*
X100500000Y-83500000D02*
X109500000Y-83500000D01*
X119000000Y-83000000D02*
X121500000Y-83000000D01*
X98340000Y-84160000D02*
X99000000Y-83500000D01*
X96580000Y-108500000D02*
X94000000Y-108500000D01*
X98340000Y-83840000D02*
X98340000Y-85240000D01*
%TO.N,/SEG8*%
X116270000Y-108000000D02*
X116270000Y-108467143D01*
X101994000Y-109494000D02*
X100880000Y-108380000D01*
X116270000Y-108467143D02*
X115243143Y-109494000D01*
X100880000Y-108380000D02*
X100880000Y-106740000D01*
X115243143Y-109494000D02*
X101994000Y-109494000D01*
%TO.N,/SEG3*%
X121990000Y-110500000D02*
X122620000Y-109870000D01*
X104520000Y-100980000D02*
X104500000Y-101000000D01*
X104520000Y-101420000D02*
X105000000Y-101900000D01*
X131800000Y-100900000D02*
X131300000Y-101400000D01*
X123500000Y-110750000D02*
X122620000Y-109870000D01*
X131300000Y-101400000D02*
X131300000Y-110300000D01*
X130850000Y-110750000D02*
X123500000Y-110750000D01*
X104520000Y-86340000D02*
X104520000Y-100500000D01*
X104520000Y-100500000D02*
X104520000Y-100980000D01*
X103420000Y-85240000D02*
X104520000Y-86340000D01*
X131300000Y-110300000D02*
X130850000Y-110750000D01*
X105000000Y-110500000D02*
X121990000Y-110500000D01*
X122620000Y-108000000D02*
X122620000Y-109870000D01*
X104520000Y-100500000D02*
X104520000Y-101420000D01*
%TO.N,/SEG7*%
X112500000Y-106500000D02*
X111500000Y-107500000D01*
X105960000Y-106740000D02*
X106200000Y-106500000D01*
X106200000Y-106500000D02*
X112500000Y-106500000D01*
X106700000Y-84500000D02*
X105960000Y-85240000D01*
X110500000Y-86000000D02*
X109000000Y-84500000D01*
X112500000Y-106500000D02*
X116860000Y-106500000D01*
X109000000Y-84500000D02*
X106700000Y-84500000D01*
X116860000Y-106500000D02*
X117540000Y-107180000D01*
X110500000Y-100500000D02*
X110500000Y-86000000D01*
X111500000Y-101500000D02*
X110500000Y-100500000D01*
X117540000Y-107180000D02*
X117540000Y-108000000D01*
%TO.N,/SEG2*%
X124000000Y-107890000D02*
X123890000Y-108000000D01*
X118500000Y-86000000D02*
X123000000Y-86000000D01*
X108500000Y-86000000D02*
X108500000Y-91500000D01*
X124000000Y-104500000D02*
X124000000Y-107890000D01*
X124000000Y-87000000D02*
X123000000Y-86000000D01*
X124000000Y-95000000D02*
X124000000Y-87000000D01*
%TO.N,/GRID6*%
X118820000Y-98520000D02*
X118820000Y-95500000D01*
X115600000Y-74100000D02*
X116500000Y-75000000D01*
X118820000Y-95320000D02*
X118820000Y-95500000D01*
X116500000Y-75000000D02*
X116500000Y-93000000D01*
X107500000Y-74100000D02*
X115600000Y-74100000D01*
X116500000Y-93000000D02*
X118820000Y-95320000D01*
%TO.N,/GRID5*%
X103420000Y-70000000D02*
X103420000Y-71920000D01*
X105000000Y-73500000D02*
X116000000Y-73500000D01*
X117000000Y-92500000D02*
X120090000Y-95590000D01*
X117000000Y-74500000D02*
X117000000Y-92500000D01*
X103420000Y-71920000D02*
X105000000Y-73500000D01*
X120090000Y-95590000D02*
X120090000Y-98520000D01*
X116000000Y-73500000D02*
X117000000Y-74500000D01*
%TO.N,/SEG1*%
X125160000Y-108000000D02*
X125160000Y-105500000D01*
X98340000Y-91500000D02*
X98340000Y-101500000D01*
X118500000Y-100500000D02*
X122377143Y-100500000D01*
X125747000Y-103913000D02*
X125160000Y-104500000D01*
X98340000Y-101500000D02*
X99340000Y-102500000D01*
X125747000Y-97369857D02*
X125747000Y-103913000D01*
X125160000Y-105500000D02*
X125160000Y-104340000D01*
X123576857Y-97000000D02*
X125377143Y-97000000D01*
X122377143Y-100500000D02*
X123207000Y-99670143D01*
X99340000Y-102500000D02*
X102000000Y-102500000D01*
X123207000Y-99670143D02*
X123207000Y-97369857D01*
X123207000Y-97369857D02*
X123576857Y-97000000D01*
X125377143Y-97000000D02*
X125747000Y-97369857D01*
%TO.N,/GRID4*%
X95800000Y-80800000D02*
X97500000Y-82500000D01*
X120500000Y-92500000D02*
X119000000Y-92500000D01*
X121360000Y-93360000D02*
X120500000Y-92500000D01*
X111500000Y-84000000D02*
X111500000Y-92000000D01*
X97500000Y-82500000D02*
X110000000Y-82500000D01*
X95800000Y-70000000D02*
X95800000Y-80800000D01*
X121360000Y-98520000D02*
X121360000Y-93360000D01*
X110000000Y-82500000D02*
X111500000Y-84000000D01*
X112000000Y-92500000D02*
X115000000Y-92500000D01*
X111500000Y-92000000D02*
X112000000Y-92500000D01*
%TO.N,Net-(U1-DIO)*%
X130648828Y-100414000D02*
X128784000Y-100414000D01*
X136500000Y-100100000D02*
X130962829Y-100100000D01*
X128784000Y-100414000D02*
X127710000Y-99340000D01*
X138000000Y-101600000D02*
X136500000Y-100100000D01*
X130962829Y-100100000D02*
X130648828Y-100414000D01*
X127710000Y-99340000D02*
X127710000Y-98520000D01*
X149762500Y-99362500D02*
X152625000Y-96500000D01*
%TO.N,Net-(U1-CLK)*%
X138200000Y-102600000D02*
X138550000Y-102250000D01*
X138600000Y-101075736D02*
X137224264Y-99700000D01*
X130483143Y-100014000D02*
X129654000Y-100014000D01*
X138200000Y-102600000D02*
X138600000Y-102200000D01*
X138550000Y-102250000D02*
X142825000Y-102250000D01*
X142825000Y-102250000D02*
X148575000Y-96500000D01*
X137224264Y-99700000D02*
X130797143Y-99700000D01*
X138600000Y-102200000D02*
X138600000Y-101075736D01*
X129654000Y-100014000D02*
X128980000Y-99340000D01*
X128980000Y-99340000D02*
X128980000Y-98520000D01*
X130797143Y-99700000D02*
X130483143Y-100014000D01*
%TO.N,Net-(U1-STB)*%
X130240000Y-98520000D02*
X130240000Y-98260000D01*
X138000000Y-99200000D02*
X141800000Y-99200000D01*
X141800000Y-99200000D02*
X144500000Y-96500000D01*
X136320000Y-98520000D02*
X130240000Y-98520000D01*
X152700000Y-104700000D02*
X152100000Y-105300000D01*
X138000000Y-99200000D02*
X137000000Y-99200000D01*
X152100000Y-105300000D02*
X145600000Y-105300000D01*
X130240000Y-98260000D02*
X130500000Y-98000000D01*
X145600000Y-105300000D02*
X144300000Y-106600000D01*
X152700000Y-104400000D02*
X152700000Y-104700000D01*
X137000000Y-99200000D02*
X136320000Y-98520000D01*
%TO.N,/GRID3*%
X122620000Y-92620000D02*
X121500000Y-91500000D01*
X121500000Y-91500000D02*
X118500000Y-91500000D01*
X122620000Y-98520000D02*
X122620000Y-92620000D01*
%TO.N,/GRID2*%
X104000000Y-102500000D02*
X103420000Y-101920000D01*
X123500000Y-102500000D02*
X123890000Y-102110000D01*
X111500000Y-102500000D02*
X104000000Y-102500000D01*
X111500000Y-102500000D02*
X123500000Y-102500000D01*
X123890000Y-102110000D02*
X123890000Y-98520000D01*
X103420000Y-101920000D02*
X103420000Y-91500000D01*
%TO.N,/GRID1*%
X97000000Y-103500000D02*
X95800000Y-102300000D01*
X98000000Y-103500000D02*
X97000000Y-103500000D01*
X95800000Y-102300000D02*
X95800000Y-91500000D01*
X98000000Y-103500000D02*
X97100000Y-103500000D01*
X125160000Y-98520000D02*
X125160000Y-102840000D01*
X124500000Y-103500000D02*
X111500000Y-103500000D01*
X125160000Y-102840000D02*
X124500000Y-103500000D01*
X111500000Y-103500000D02*
X98000000Y-103500000D01*
%TD*%
%TA.AperFunction,Conductor*%
%TO.N,GND*%
G36*
X212504853Y-66300882D02*
G01*
X212529202Y-66302798D01*
X212674251Y-66314213D01*
X212701595Y-66319504D01*
X212716466Y-66324164D01*
X212717555Y-66324511D01*
X212758166Y-66337706D01*
X212765470Y-66340336D01*
X212805085Y-66356021D01*
X212806158Y-66356452D01*
X212833524Y-66367621D01*
X212835872Y-66368608D01*
X212842423Y-66371443D01*
X212862372Y-66380076D01*
X212864742Y-66381132D01*
X212891527Y-66393395D01*
X212892691Y-66393935D01*
X212897305Y-66396105D01*
X212897316Y-66396115D01*
X212897318Y-66396112D01*
X212931159Y-66412036D01*
X212938097Y-66415571D01*
X212975506Y-66436136D01*
X212976362Y-66436612D01*
X213002241Y-66451193D01*
X213004445Y-66452465D01*
X213029274Y-66467148D01*
X213031399Y-66468435D01*
X213056581Y-66484049D01*
X213057459Y-66484600D01*
X213061279Y-66487024D01*
X213062470Y-66487781D01*
X213093551Y-66507507D01*
X213099989Y-66511883D01*
X213132953Y-66535832D01*
X213132959Y-66535836D01*
X213134338Y-66536838D01*
X213135378Y-66537603D01*
X213159100Y-66555220D01*
X213161170Y-66556791D01*
X213183923Y-66574440D01*
X213185927Y-66576028D01*
X213208858Y-66594597D01*
X213209821Y-66595386D01*
X213213272Y-66598240D01*
X213242617Y-66622517D01*
X213248451Y-66627660D01*
X213279556Y-66656869D01*
X213280495Y-66657761D01*
X213301685Y-66678080D01*
X213303544Y-66679900D01*
X213323927Y-66700283D01*
X213325747Y-66702142D01*
X213346066Y-66723332D01*
X213346958Y-66724271D01*
X213376166Y-66755375D01*
X213381317Y-66761218D01*
X213408409Y-66793967D01*
X213409228Y-66794968D01*
X213427771Y-66817865D01*
X213429387Y-66819904D01*
X213447036Y-66842657D01*
X213448607Y-66844726D01*
X213466245Y-66868476D01*
X213466942Y-66869425D01*
X213477216Y-66883565D01*
X213477217Y-66883567D01*
X213491959Y-66903858D01*
X213496337Y-66910300D01*
X213542648Y-66983275D01*
X213546611Y-66989977D01*
X213566597Y-67026329D01*
X213566603Y-67026352D01*
X213566608Y-67026350D01*
X213567096Y-67027238D01*
X213567708Y-67028365D01*
X213581653Y-67054374D01*
X213582855Y-67056673D01*
X213595926Y-67082327D01*
X213597080Y-67084651D01*
X213609904Y-67111178D01*
X213610463Y-67112350D01*
X213628575Y-67150839D01*
X213631669Y-67157988D01*
X213647340Y-67197567D01*
X213647791Y-67198726D01*
X213658373Y-67226295D01*
X213659261Y-67228684D01*
X213669033Y-67255831D01*
X213669882Y-67258269D01*
X213679270Y-67286158D01*
X213679681Y-67287401D01*
X213692833Y-67327880D01*
X213695002Y-67335344D01*
X213697274Y-67344188D01*
X213697276Y-67344210D01*
X213697280Y-67344210D01*
X213705607Y-67376648D01*
X213705920Y-67377897D01*
X213712920Y-67406391D01*
X213713515Y-67408927D01*
X213719805Y-67437070D01*
X213720344Y-67439606D01*
X213726180Y-67468548D01*
X213726431Y-67469826D01*
X213734391Y-67511558D01*
X213735607Y-67519230D01*
X213736115Y-67523246D01*
X213736117Y-67523265D01*
X213740944Y-67561474D01*
X213741100Y-67562763D01*
X213744485Y-67592017D01*
X213744757Y-67594602D01*
X213747468Y-67623286D01*
X213747685Y-67625872D01*
X213749845Y-67655284D01*
X213749933Y-67656580D01*
X213750534Y-67666133D01*
X213749719Y-67690099D01*
X213749500Y-67691762D01*
X213749500Y-97995572D01*
X213749184Y-98004419D01*
X213734869Y-98204557D01*
X213732351Y-98222068D01*
X213690645Y-98413790D01*
X213685661Y-98430765D01*
X213617093Y-98614605D01*
X213609743Y-98630699D01*
X213515709Y-98802908D01*
X213506144Y-98817791D01*
X213388561Y-98974864D01*
X213376975Y-98988235D01*
X213238235Y-99126975D01*
X213224864Y-99138561D01*
X213067791Y-99256144D01*
X213052908Y-99265709D01*
X212880699Y-99359743D01*
X212864605Y-99367093D01*
X212680765Y-99435661D01*
X212663790Y-99440645D01*
X212472068Y-99482351D01*
X212454557Y-99484869D01*
X212273779Y-99497799D01*
X212254417Y-99499184D01*
X212245572Y-99499500D01*
X169348746Y-99499500D01*
X169198598Y-99517731D01*
X169048449Y-99535963D01*
X168899459Y-99572685D01*
X168754728Y-99608358D01*
X168471886Y-99715627D01*
X168326440Y-99791963D01*
X168204032Y-99856207D01*
X168204030Y-99856208D01*
X168204025Y-99856211D01*
X167955070Y-100028054D01*
X167728648Y-100228646D01*
X167728646Y-100228648D01*
X167528054Y-100455070D01*
X167356211Y-100704025D01*
X167356208Y-100704030D01*
X167356207Y-100704032D01*
X167341641Y-100731785D01*
X167215627Y-100971886D01*
X167108358Y-101254728D01*
X167078200Y-101377085D01*
X167035963Y-101548449D01*
X167028563Y-101609394D01*
X166999500Y-101848745D01*
X166999500Y-109495572D01*
X166999184Y-109504419D01*
X166984869Y-109704557D01*
X166982351Y-109722068D01*
X166940645Y-109913790D01*
X166935661Y-109930765D01*
X166867093Y-110114605D01*
X166859743Y-110130699D01*
X166765709Y-110302908D01*
X166756144Y-110317791D01*
X166638561Y-110474864D01*
X166626975Y-110488235D01*
X166488235Y-110626975D01*
X166474864Y-110638561D01*
X166317791Y-110756144D01*
X166302908Y-110765709D01*
X166130699Y-110859743D01*
X166114605Y-110867093D01*
X165930765Y-110935661D01*
X165913792Y-110940645D01*
X165907379Y-110942040D01*
X165886111Y-110946666D01*
X165859756Y-110949500D01*
X131799098Y-110949500D01*
X131732059Y-110929815D01*
X131686304Y-110877011D01*
X131676360Y-110807853D01*
X131705385Y-110744297D01*
X131711417Y-110737819D01*
X131730001Y-110719235D01*
X131780520Y-110668716D01*
X131835804Y-110572960D01*
X131859577Y-110531785D01*
X131900500Y-110379057D01*
X131900500Y-110220943D01*
X131900500Y-107971153D01*
X132749500Y-107971153D01*
X132749500Y-108128846D01*
X132780261Y-108283489D01*
X132780264Y-108283501D01*
X132840602Y-108429172D01*
X132840609Y-108429185D01*
X132928210Y-108560288D01*
X132928213Y-108560292D01*
X133039707Y-108671786D01*
X133039711Y-108671789D01*
X133170814Y-108759390D01*
X133170827Y-108759397D01*
X133316498Y-108819735D01*
X133316503Y-108819737D01*
X133471153Y-108850499D01*
X133471156Y-108850500D01*
X133575500Y-108850500D01*
X133642539Y-108870185D01*
X133688294Y-108922989D01*
X133699500Y-108974500D01*
X133699500Y-109350001D01*
X133699501Y-109350019D01*
X133710000Y-109452796D01*
X133710001Y-109452799D01*
X133731835Y-109518688D01*
X133765186Y-109619334D01*
X133857288Y-109768656D01*
X133981344Y-109892712D01*
X134130666Y-109984814D01*
X134297203Y-110039999D01*
X134399991Y-110050500D01*
X135600008Y-110050499D01*
X135702797Y-110039999D01*
X135869334Y-109984814D01*
X136018656Y-109892712D01*
X136142712Y-109768656D01*
X136234814Y-109619334D01*
X136289999Y-109452797D01*
X136300500Y-109350009D01*
X136300499Y-106521153D01*
X143499500Y-106521153D01*
X143499500Y-106678846D01*
X143530261Y-106833489D01*
X143530264Y-106833501D01*
X143590602Y-106979172D01*
X143590609Y-106979185D01*
X143678210Y-107110288D01*
X143678213Y-107110292D01*
X143789707Y-107221786D01*
X143789711Y-107221789D01*
X143920814Y-107309390D01*
X143920827Y-107309397D01*
X143996181Y-107340609D01*
X144066503Y-107369737D01*
X144221153Y-107400499D01*
X144221156Y-107400500D01*
X144221158Y-107400500D01*
X144378844Y-107400500D01*
X144378845Y-107400499D01*
X144533497Y-107369737D01*
X144679179Y-107309394D01*
X144810289Y-107221789D01*
X144921789Y-107110289D01*
X145009394Y-106979179D01*
X145069737Y-106833497D01*
X145089113Y-106736085D01*
X145100638Y-106678150D01*
X145133023Y-106616239D01*
X145134516Y-106614718D01*
X145812417Y-105936819D01*
X145873740Y-105903334D01*
X145900098Y-105900500D01*
X152013331Y-105900500D01*
X152013347Y-105900501D01*
X152020943Y-105900501D01*
X152179054Y-105900501D01*
X152179057Y-105900501D01*
X152331785Y-105859577D01*
X152397244Y-105821784D01*
X152468716Y-105780520D01*
X152580520Y-105668716D01*
X152580520Y-105668714D01*
X152590724Y-105658511D01*
X152590728Y-105658506D01*
X153068713Y-105180521D01*
X153068716Y-105180520D01*
X153180520Y-105068716D01*
X153195792Y-105042262D01*
X153215497Y-105016580D01*
X153321789Y-104910289D01*
X153409394Y-104779179D01*
X153469737Y-104633497D01*
X153500500Y-104478842D01*
X153500500Y-104378711D01*
X161649500Y-104378711D01*
X161649500Y-104621288D01*
X161671790Y-104790606D01*
X161681162Y-104861789D01*
X161707542Y-104960240D01*
X161743947Y-105096104D01*
X161836773Y-105320205D01*
X161836777Y-105320214D01*
X161841761Y-105328846D01*
X161958064Y-105530289D01*
X161958066Y-105530292D01*
X161958067Y-105530293D01*
X162105733Y-105722736D01*
X162105739Y-105722743D01*
X162277256Y-105894260D01*
X162277263Y-105894266D01*
X162335411Y-105938884D01*
X162469711Y-106041936D01*
X162679788Y-106163224D01*
X162903900Y-106256054D01*
X163138211Y-106318838D01*
X163266787Y-106335765D01*
X163378711Y-106350500D01*
X163378712Y-106350500D01*
X163621289Y-106350500D01*
X163669388Y-106344167D01*
X163861789Y-106318838D01*
X164096100Y-106256054D01*
X164320212Y-106163224D01*
X164530289Y-106041936D01*
X164722738Y-105894265D01*
X164894265Y-105722738D01*
X165041936Y-105530289D01*
X165163224Y-105320212D01*
X165256054Y-105096100D01*
X165318838Y-104861789D01*
X165350500Y-104621288D01*
X165350500Y-104378712D01*
X165347158Y-104353330D01*
X165338900Y-104290602D01*
X165318838Y-104138211D01*
X165256054Y-103903900D01*
X165163224Y-103679788D01*
X165041936Y-103469711D01*
X164894265Y-103277262D01*
X164894260Y-103277256D01*
X164722743Y-103105739D01*
X164722736Y-103105733D01*
X164530293Y-102958067D01*
X164530292Y-102958066D01*
X164530289Y-102958064D01*
X164358661Y-102858974D01*
X164320214Y-102836777D01*
X164320205Y-102836773D01*
X164096104Y-102743947D01*
X163861785Y-102681161D01*
X163621289Y-102649500D01*
X163621288Y-102649500D01*
X163378712Y-102649500D01*
X163378711Y-102649500D01*
X163138214Y-102681161D01*
X162903895Y-102743947D01*
X162679794Y-102836773D01*
X162679785Y-102836777D01*
X162469706Y-102958067D01*
X162277263Y-103105733D01*
X162277256Y-103105739D01*
X162105739Y-103277256D01*
X162105733Y-103277263D01*
X161958067Y-103469706D01*
X161836777Y-103679785D01*
X161836773Y-103679794D01*
X161743947Y-103903895D01*
X161681161Y-104138214D01*
X161649500Y-104378711D01*
X153500500Y-104378711D01*
X153500500Y-104321158D01*
X153500500Y-104321155D01*
X153500499Y-104321153D01*
X153488469Y-104260676D01*
X153469737Y-104166503D01*
X153458719Y-104139903D01*
X153409397Y-104020827D01*
X153409390Y-104020814D01*
X153321789Y-103889711D01*
X153321786Y-103889707D01*
X153210292Y-103778213D01*
X153210288Y-103778210D01*
X153079185Y-103690609D01*
X153079172Y-103690602D01*
X152933501Y-103630264D01*
X152933489Y-103630261D01*
X152778845Y-103599500D01*
X152778842Y-103599500D01*
X152621158Y-103599500D01*
X152621155Y-103599500D01*
X152466510Y-103630261D01*
X152466498Y-103630264D01*
X152320827Y-103690602D01*
X152320814Y-103690609D01*
X152189711Y-103778210D01*
X152189707Y-103778213D01*
X152078213Y-103889707D01*
X152078210Y-103889711D01*
X151990609Y-104020814D01*
X151990602Y-104020827D01*
X151930264Y-104166498D01*
X151930261Y-104166510D01*
X151899500Y-104321153D01*
X151899500Y-104321158D01*
X151899500Y-104478842D01*
X151899501Y-104478846D01*
X151913914Y-104551310D01*
X151907685Y-104620902D01*
X151864821Y-104676079D01*
X151798931Y-104699322D01*
X151792296Y-104699500D01*
X145686670Y-104699500D01*
X145686654Y-104699499D01*
X145679058Y-104699499D01*
X145520943Y-104699499D01*
X145444579Y-104719961D01*
X145368214Y-104740423D01*
X145368209Y-104740426D01*
X145231290Y-104819475D01*
X145231282Y-104819481D01*
X144285339Y-105765425D01*
X144224016Y-105798910D01*
X144221850Y-105799361D01*
X144066508Y-105830261D01*
X144066498Y-105830264D01*
X143920827Y-105890602D01*
X143920814Y-105890609D01*
X143789711Y-105978210D01*
X143789707Y-105978213D01*
X143678213Y-106089707D01*
X143678210Y-106089711D01*
X143590609Y-106220814D01*
X143590602Y-106220827D01*
X143530264Y-106366498D01*
X143530261Y-106366510D01*
X143499500Y-106521153D01*
X136300499Y-106521153D01*
X136300499Y-106249992D01*
X136297518Y-106220814D01*
X136289999Y-106147203D01*
X136289998Y-106147200D01*
X136270948Y-106089711D01*
X136234814Y-105980666D01*
X136142712Y-105831344D01*
X136018656Y-105707288D01*
X135901631Y-105635107D01*
X135869336Y-105615187D01*
X135869331Y-105615185D01*
X135867862Y-105614698D01*
X135702797Y-105560001D01*
X135702795Y-105560000D01*
X135600010Y-105549500D01*
X134399998Y-105549500D01*
X134399981Y-105549501D01*
X134297203Y-105560000D01*
X134297200Y-105560001D01*
X134130668Y-105615185D01*
X134130663Y-105615187D01*
X133981342Y-105707289D01*
X133857289Y-105831342D01*
X133765187Y-105980663D01*
X133765185Y-105980668D01*
X133755370Y-106010289D01*
X133710001Y-106147203D01*
X133710001Y-106147204D01*
X133710000Y-106147204D01*
X133699500Y-106249983D01*
X133699500Y-107125500D01*
X133679815Y-107192539D01*
X133627011Y-107238294D01*
X133575500Y-107249500D01*
X133471155Y-107249500D01*
X133316510Y-107280261D01*
X133316498Y-107280264D01*
X133170827Y-107340602D01*
X133170814Y-107340609D01*
X133039711Y-107428210D01*
X133039707Y-107428213D01*
X132928213Y-107539707D01*
X132928210Y-107539711D01*
X132840609Y-107670814D01*
X132840602Y-107670827D01*
X132780264Y-107816498D01*
X132780261Y-107816510D01*
X132749500Y-107971153D01*
X131900500Y-107971153D01*
X131900500Y-103949986D01*
X133700001Y-103949986D01*
X133710494Y-104052697D01*
X133765641Y-104219119D01*
X133765643Y-104219124D01*
X133857684Y-104368345D01*
X133981654Y-104492315D01*
X134130875Y-104584356D01*
X134130880Y-104584358D01*
X134297302Y-104639505D01*
X134297309Y-104639506D01*
X134400019Y-104649999D01*
X134749999Y-104649999D01*
X135250000Y-104649999D01*
X135599972Y-104649999D01*
X135599986Y-104649998D01*
X135702697Y-104639505D01*
X135869119Y-104584358D01*
X135869124Y-104584356D01*
X136018345Y-104492315D01*
X136142315Y-104368345D01*
X136234356Y-104219124D01*
X136234358Y-104219119D01*
X136289505Y-104052697D01*
X136289506Y-104052690D01*
X136299999Y-103949986D01*
X136300000Y-103949973D01*
X136300000Y-102650000D01*
X135250000Y-102650000D01*
X135250000Y-104649999D01*
X134749999Y-104649999D01*
X134750000Y-104649998D01*
X134750000Y-102650000D01*
X133700001Y-102650000D01*
X133700001Y-103949986D01*
X131900500Y-103949986D01*
X131900500Y-101797955D01*
X131920185Y-101730916D01*
X131972989Y-101685161D01*
X132000303Y-101676339D01*
X132033497Y-101669737D01*
X132179179Y-101609394D01*
X132310289Y-101521789D01*
X132421789Y-101410289D01*
X132509394Y-101279179D01*
X132569737Y-101133497D01*
X132600500Y-100978842D01*
X132600500Y-100824500D01*
X132620185Y-100757461D01*
X132672989Y-100711706D01*
X132724500Y-100700500D01*
X133577962Y-100700500D01*
X133645001Y-100720185D01*
X133690756Y-100772989D01*
X133701320Y-100837105D01*
X133700000Y-100850019D01*
X133700000Y-102150000D01*
X136299999Y-102150000D01*
X136299999Y-101048596D01*
X136319684Y-100981557D01*
X136372488Y-100935802D01*
X136441646Y-100925858D01*
X136505202Y-100954883D01*
X136511680Y-100960915D01*
X137165425Y-101614660D01*
X137198910Y-101675983D01*
X137199361Y-101678149D01*
X137230261Y-101833491D01*
X137230264Y-101833501D01*
X137290602Y-101979172D01*
X137290609Y-101979185D01*
X137378210Y-102110288D01*
X137378213Y-102110292D01*
X137431472Y-102163551D01*
X137464957Y-102224874D01*
X137459973Y-102294566D01*
X137458353Y-102298682D01*
X137430264Y-102366497D01*
X137430261Y-102366505D01*
X137399500Y-102521153D01*
X137399500Y-102678846D01*
X137430261Y-102833489D01*
X137430264Y-102833501D01*
X137490602Y-102979172D01*
X137490609Y-102979185D01*
X137578210Y-103110288D01*
X137578213Y-103110292D01*
X137689707Y-103221786D01*
X137689711Y-103221789D01*
X137820814Y-103309390D01*
X137820827Y-103309397D01*
X137966498Y-103369735D01*
X137966503Y-103369737D01*
X138121153Y-103400499D01*
X138121156Y-103400500D01*
X138121158Y-103400500D01*
X138278844Y-103400500D01*
X138278845Y-103400499D01*
X138433497Y-103369737D01*
X138579179Y-103309394D01*
X138710289Y-103221789D01*
X138821789Y-103110289D01*
X138909394Y-102979179D01*
X138930987Y-102927047D01*
X138974827Y-102872644D01*
X139041121Y-102850579D01*
X139045548Y-102850500D01*
X142738331Y-102850500D01*
X142738347Y-102850501D01*
X142745943Y-102850501D01*
X142904054Y-102850501D01*
X142904057Y-102850501D01*
X143056785Y-102809577D01*
X143143387Y-102759577D01*
X143193716Y-102730520D01*
X143305520Y-102618716D01*
X143305520Y-102618714D01*
X143315724Y-102608511D01*
X143315728Y-102608506D01*
X146640580Y-99283653D01*
X148962000Y-99283653D01*
X148962000Y-99441346D01*
X148992761Y-99595989D01*
X148992764Y-99596001D01*
X149053102Y-99741672D01*
X149053109Y-99741685D01*
X149140710Y-99872788D01*
X149140713Y-99872792D01*
X149252207Y-99984286D01*
X149252211Y-99984289D01*
X149383314Y-100071890D01*
X149383327Y-100071897D01*
X149511227Y-100124874D01*
X149529003Y-100132237D01*
X149683653Y-100162999D01*
X149683656Y-100163000D01*
X149683658Y-100163000D01*
X149841344Y-100163000D01*
X149841345Y-100162999D01*
X149995997Y-100132237D01*
X150141679Y-100071894D01*
X150272789Y-99984289D01*
X150384289Y-99872789D01*
X150471894Y-99741679D01*
X150532237Y-99595997D01*
X150554843Y-99482351D01*
X150563138Y-99440650D01*
X150595523Y-99378739D01*
X150597019Y-99377215D01*
X152021437Y-97952796D01*
X152082758Y-97919313D01*
X152147433Y-97922547D01*
X152273632Y-97963553D01*
X152361110Y-97977408D01*
X152506903Y-98000500D01*
X152506908Y-98000500D01*
X152743097Y-98000500D01*
X152976368Y-97963553D01*
X153009468Y-97952798D01*
X153200992Y-97890568D01*
X153411433Y-97783343D01*
X153460549Y-97747658D01*
X155630893Y-97747658D01*
X155713828Y-97807914D01*
X155924197Y-97915102D01*
X156148752Y-97988065D01*
X156148751Y-97988065D01*
X156381948Y-98025000D01*
X156618052Y-98025000D01*
X156851247Y-97988065D01*
X157075802Y-97915102D01*
X157286163Y-97807918D01*
X157286169Y-97807914D01*
X157369104Y-97747658D01*
X157369105Y-97747658D01*
X156500000Y-96878554D01*
X155630893Y-97747658D01*
X153460549Y-97747658D01*
X153602510Y-97644517D01*
X153769517Y-97477510D01*
X153908343Y-97286433D01*
X154015568Y-97075992D01*
X154088553Y-96851368D01*
X154121547Y-96643052D01*
X154125500Y-96618097D01*
X154125500Y-96406947D01*
X155000000Y-96406947D01*
X155000000Y-96643052D01*
X155036934Y-96876247D01*
X155109897Y-97100802D01*
X155217087Y-97311174D01*
X155277338Y-97394104D01*
X155277340Y-97394105D01*
X156146446Y-96525000D01*
X156146445Y-96524999D01*
X156853554Y-96524999D01*
X156853554Y-96525001D01*
X157722658Y-97394105D01*
X157722658Y-97394104D01*
X157782914Y-97311169D01*
X157782918Y-97311163D01*
X157890102Y-97100802D01*
X157963065Y-96876247D01*
X158000000Y-96643052D01*
X158000000Y-96406947D01*
X157963065Y-96173752D01*
X157890102Y-95949197D01*
X157782914Y-95738828D01*
X157722658Y-95655894D01*
X157722658Y-95655893D01*
X156853554Y-96524999D01*
X156146445Y-96524999D01*
X155277340Y-95655894D01*
X155217084Y-95738830D01*
X155109897Y-95949197D01*
X155036934Y-96173752D01*
X155000000Y-96406947D01*
X154125500Y-96406947D01*
X154125500Y-96381902D01*
X154088553Y-96148631D01*
X154054689Y-96044412D01*
X154015568Y-95924008D01*
X154015566Y-95924005D01*
X154015566Y-95924003D01*
X153959002Y-95812991D01*
X153908343Y-95713567D01*
X153769517Y-95522490D01*
X153602510Y-95355483D01*
X153529365Y-95302340D01*
X155630894Y-95302340D01*
X156500000Y-96171446D01*
X156500001Y-96171446D01*
X157369105Y-95302340D01*
X157369104Y-95302338D01*
X157286174Y-95242087D01*
X157075802Y-95134897D01*
X156851247Y-95061934D01*
X156851248Y-95061934D01*
X156618052Y-95025000D01*
X156381948Y-95025000D01*
X156148752Y-95061934D01*
X155924197Y-95134897D01*
X155713830Y-95242084D01*
X155630894Y-95302340D01*
X153529365Y-95302340D01*
X153411433Y-95216657D01*
X153200996Y-95109433D01*
X152976368Y-95036446D01*
X152743097Y-94999500D01*
X152743092Y-94999500D01*
X152506908Y-94999500D01*
X152506903Y-94999500D01*
X152273631Y-95036446D01*
X152049003Y-95109433D01*
X151838566Y-95216657D01*
X151729550Y-95295862D01*
X151647490Y-95355483D01*
X151647488Y-95355485D01*
X151647487Y-95355485D01*
X151480485Y-95522487D01*
X151480485Y-95522488D01*
X151480483Y-95522490D01*
X151468381Y-95539147D01*
X151341657Y-95713566D01*
X151234433Y-95924003D01*
X151161446Y-96148631D01*
X151124500Y-96381902D01*
X151124500Y-96618097D01*
X151161447Y-96851369D01*
X151161447Y-96851372D01*
X151202450Y-96977564D01*
X151204445Y-97047405D01*
X151172200Y-97103563D01*
X149747839Y-98527925D01*
X149686516Y-98561410D01*
X149684350Y-98561861D01*
X149529008Y-98592761D01*
X149528998Y-98592764D01*
X149383327Y-98653102D01*
X149383314Y-98653109D01*
X149252211Y-98740710D01*
X149252207Y-98740713D01*
X149140713Y-98852207D01*
X149140710Y-98852211D01*
X149053109Y-98983314D01*
X149053102Y-98983327D01*
X148992764Y-99128998D01*
X148992761Y-99129010D01*
X148962000Y-99283653D01*
X146640580Y-99283653D01*
X147971437Y-97952796D01*
X148032758Y-97919313D01*
X148097433Y-97922547D01*
X148223632Y-97963553D01*
X148311110Y-97977408D01*
X148456903Y-98000500D01*
X148456908Y-98000500D01*
X148693097Y-98000500D01*
X148926368Y-97963553D01*
X148959468Y-97952798D01*
X149150992Y-97890568D01*
X149361433Y-97783343D01*
X149552510Y-97644517D01*
X149719517Y-97477510D01*
X149858343Y-97286433D01*
X149965568Y-97075992D01*
X150038553Y-96851368D01*
X150071547Y-96643052D01*
X150075500Y-96618097D01*
X150075500Y-96381902D01*
X150038553Y-96148631D01*
X150004689Y-96044412D01*
X149965568Y-95924008D01*
X149965566Y-95924005D01*
X149965566Y-95924003D01*
X149909002Y-95812991D01*
X149858343Y-95713567D01*
X149719517Y-95522490D01*
X149552510Y-95355483D01*
X149361433Y-95216657D01*
X149150996Y-95109433D01*
X148926368Y-95036446D01*
X148693097Y-94999500D01*
X148693092Y-94999500D01*
X148456908Y-94999500D01*
X148456903Y-94999500D01*
X148223631Y-95036446D01*
X147999003Y-95109433D01*
X147788566Y-95216657D01*
X147679550Y-95295862D01*
X147597490Y-95355483D01*
X147597488Y-95355485D01*
X147597487Y-95355485D01*
X147430485Y-95522487D01*
X147430485Y-95522488D01*
X147430483Y-95522490D01*
X147418381Y-95539147D01*
X147291657Y-95713566D01*
X147184433Y-95924003D01*
X147111446Y-96148631D01*
X147074500Y-96381902D01*
X147074500Y-96618097D01*
X147111447Y-96851369D01*
X147111447Y-96851372D01*
X147152450Y-96977564D01*
X147154445Y-97047405D01*
X147122200Y-97103563D01*
X142612584Y-101613181D01*
X142551261Y-101646666D01*
X142524903Y-101649500D01*
X139324500Y-101649500D01*
X139257461Y-101629815D01*
X139211706Y-101577011D01*
X139200500Y-101525500D01*
X139200500Y-101164796D01*
X139200501Y-101164783D01*
X139200501Y-100996680D01*
X139198633Y-100989707D01*
X139159577Y-100843952D01*
X139155624Y-100837105D01*
X139080524Y-100707026D01*
X139080518Y-100707018D01*
X138428299Y-100054800D01*
X138394814Y-99993477D01*
X138399798Y-99923786D01*
X138441669Y-99867852D01*
X138447075Y-99864026D01*
X138472815Y-99846827D01*
X138510877Y-99821397D01*
X138577555Y-99800520D01*
X138579766Y-99800500D01*
X141713331Y-99800500D01*
X141713347Y-99800501D01*
X141720943Y-99800501D01*
X141879054Y-99800501D01*
X141879057Y-99800501D01*
X142031785Y-99759577D01*
X142107908Y-99715627D01*
X142168716Y-99680520D01*
X142280520Y-99568716D01*
X142280520Y-99568714D01*
X142290724Y-99558511D01*
X142290728Y-99558506D01*
X143896437Y-97952796D01*
X143957758Y-97919313D01*
X144022433Y-97922547D01*
X144148632Y-97963553D01*
X144236110Y-97977408D01*
X144381903Y-98000500D01*
X144381908Y-98000500D01*
X144618097Y-98000500D01*
X144851368Y-97963553D01*
X144884468Y-97952798D01*
X145075992Y-97890568D01*
X145286433Y-97783343D01*
X145477510Y-97644517D01*
X145644517Y-97477510D01*
X145783343Y-97286433D01*
X145890568Y-97075992D01*
X145963553Y-96851368D01*
X145996547Y-96643052D01*
X146000500Y-96618097D01*
X146000500Y-96381902D01*
X145963553Y-96148631D01*
X145929689Y-96044412D01*
X145890568Y-95924008D01*
X145890566Y-95924005D01*
X145890566Y-95924003D01*
X145834002Y-95812991D01*
X145783343Y-95713567D01*
X145644517Y-95522490D01*
X145477510Y-95355483D01*
X145286433Y-95216657D01*
X145075996Y-95109433D01*
X144851368Y-95036446D01*
X144618097Y-94999500D01*
X144618092Y-94999500D01*
X144381908Y-94999500D01*
X144381903Y-94999500D01*
X144148631Y-95036446D01*
X143924003Y-95109433D01*
X143713566Y-95216657D01*
X143604550Y-95295862D01*
X143522490Y-95355483D01*
X143522488Y-95355485D01*
X143522487Y-95355485D01*
X143355485Y-95522487D01*
X143355485Y-95522488D01*
X143355483Y-95522490D01*
X143343381Y-95539147D01*
X143216657Y-95713566D01*
X143109433Y-95924003D01*
X143036446Y-96148631D01*
X142999500Y-96381902D01*
X142999500Y-96618097D01*
X143036447Y-96851369D01*
X143036447Y-96851372D01*
X143077450Y-96977564D01*
X143079445Y-97047405D01*
X143047200Y-97103563D01*
X141587584Y-98563181D01*
X141526261Y-98596666D01*
X141499903Y-98599500D01*
X138579766Y-98599500D01*
X138512727Y-98579815D01*
X138510875Y-98578602D01*
X138379185Y-98490609D01*
X138379172Y-98490602D01*
X138233501Y-98430264D01*
X138233489Y-98430261D01*
X138078845Y-98399500D01*
X138078842Y-98399500D01*
X137921158Y-98399500D01*
X137921155Y-98399500D01*
X137766510Y-98430261D01*
X137766498Y-98430264D01*
X137620827Y-98490602D01*
X137620814Y-98490609D01*
X137489125Y-98578602D01*
X137422447Y-98599480D01*
X137420234Y-98599500D01*
X137300097Y-98599500D01*
X137233058Y-98579815D01*
X137212416Y-98563181D01*
X136807590Y-98158355D01*
X136807588Y-98158352D01*
X136688717Y-98039481D01*
X136688716Y-98039480D01*
X136601904Y-97989360D01*
X136601904Y-97989359D01*
X136601900Y-97989358D01*
X136551785Y-97960423D01*
X136399057Y-97919499D01*
X136240943Y-97919499D01*
X136233347Y-97919499D01*
X136233331Y-97919500D01*
X131195263Y-97919500D01*
X131128224Y-97899815D01*
X131082469Y-97847011D01*
X131075489Y-97827595D01*
X131059578Y-97768219D01*
X131059577Y-97768215D01*
X131047709Y-97747658D01*
X131044112Y-97741427D01*
X131027500Y-97679429D01*
X131027500Y-97535435D01*
X130997237Y-97383300D01*
X130997236Y-97383299D01*
X130997236Y-97383295D01*
X130967358Y-97311163D01*
X130937874Y-97239980D01*
X130937872Y-97239976D01*
X130851694Y-97111002D01*
X130851688Y-97110994D01*
X130742005Y-97001311D01*
X130741997Y-97001305D01*
X130613023Y-96915127D01*
X130613019Y-96915125D01*
X130469709Y-96855765D01*
X130469699Y-96855762D01*
X130317564Y-96825500D01*
X130317562Y-96825500D01*
X130162438Y-96825500D01*
X130162436Y-96825500D01*
X130010300Y-96855762D01*
X130010290Y-96855765D01*
X129866980Y-96915125D01*
X129866976Y-96915127D01*
X129738002Y-97001305D01*
X129737994Y-97001311D01*
X129697681Y-97041625D01*
X129636358Y-97075110D01*
X129566666Y-97070126D01*
X129522319Y-97041625D01*
X129482005Y-97001311D01*
X129481997Y-97001305D01*
X129353023Y-96915127D01*
X129353019Y-96915125D01*
X129209709Y-96855765D01*
X129209699Y-96855762D01*
X129057564Y-96825500D01*
X129057562Y-96825500D01*
X128902438Y-96825500D01*
X128902436Y-96825500D01*
X128750300Y-96855762D01*
X128750290Y-96855765D01*
X128606980Y-96915125D01*
X128606976Y-96915127D01*
X128478002Y-97001305D01*
X128477994Y-97001311D01*
X128432681Y-97046625D01*
X128371358Y-97080110D01*
X128301666Y-97075126D01*
X128257319Y-97046625D01*
X128212005Y-97001311D01*
X128211997Y-97001305D01*
X128083023Y-96915127D01*
X128083019Y-96915125D01*
X127939709Y-96855765D01*
X127939699Y-96855762D01*
X127787564Y-96825500D01*
X127787562Y-96825500D01*
X127632438Y-96825500D01*
X127632436Y-96825500D01*
X127480300Y-96855762D01*
X127480290Y-96855765D01*
X127336980Y-96915125D01*
X127336976Y-96915127D01*
X127208002Y-97001305D01*
X127207993Y-97001312D01*
X127162326Y-97046979D01*
X127101003Y-97080463D01*
X127031311Y-97075478D01*
X126986965Y-97046978D01*
X126941683Y-97001696D01*
X126812790Y-96915573D01*
X126812780Y-96915568D01*
X126690000Y-96864710D01*
X126690000Y-100175288D01*
X126812782Y-100124430D01*
X126941685Y-100038301D01*
X126986964Y-99993022D01*
X127048287Y-99959536D01*
X127117978Y-99964520D01*
X127162327Y-99993021D01*
X127207994Y-100038688D01*
X127208002Y-100038694D01*
X127336976Y-100124872D01*
X127336980Y-100124874D01*
X127429026Y-100163000D01*
X127480295Y-100184236D01*
X127480299Y-100184236D01*
X127480300Y-100184237D01*
X127632435Y-100214500D01*
X127632438Y-100214500D01*
X127683903Y-100214500D01*
X127750942Y-100234185D01*
X127771584Y-100250819D01*
X128299139Y-100778374D01*
X128299149Y-100778385D01*
X128303479Y-100782715D01*
X128303480Y-100782716D01*
X128415284Y-100894520D01*
X128415286Y-100894521D01*
X128415290Y-100894524D01*
X128549287Y-100971886D01*
X128552216Y-100973577D01*
X128664019Y-101003534D01*
X128704942Y-101014500D01*
X128704943Y-101014500D01*
X128704944Y-101014500D01*
X130569770Y-101014500D01*
X130620012Y-101014500D01*
X130687050Y-101034185D01*
X130732805Y-101086989D01*
X130742749Y-101156147D01*
X130739787Y-101170586D01*
X130699499Y-101320943D01*
X130699499Y-101320945D01*
X130699499Y-101489046D01*
X130699500Y-101489059D01*
X130699500Y-106245369D01*
X130679815Y-106312408D01*
X130627011Y-106358163D01*
X130557853Y-106368107D01*
X130528048Y-106359930D01*
X130469709Y-106335765D01*
X130469699Y-106335762D01*
X130317564Y-106305500D01*
X130317562Y-106305500D01*
X130162438Y-106305500D01*
X130162436Y-106305500D01*
X130010300Y-106335762D01*
X130010290Y-106335765D01*
X129866980Y-106395125D01*
X129866976Y-106395127D01*
X129738002Y-106481305D01*
X129737994Y-106481311D01*
X129697681Y-106521625D01*
X129636358Y-106555110D01*
X129566666Y-106550126D01*
X129522319Y-106521625D01*
X129482005Y-106481311D01*
X129481997Y-106481305D01*
X129353023Y-106395127D01*
X129353019Y-106395125D01*
X129209709Y-106335765D01*
X129209699Y-106335762D01*
X129057564Y-106305500D01*
X129057562Y-106305500D01*
X128902438Y-106305500D01*
X128902436Y-106305500D01*
X128750300Y-106335762D01*
X128750290Y-106335765D01*
X128606980Y-106395125D01*
X128606976Y-106395127D01*
X128478002Y-106481305D01*
X128477994Y-106481311D01*
X128432681Y-106526625D01*
X128371358Y-106560110D01*
X128301666Y-106555126D01*
X128257319Y-106526625D01*
X128212005Y-106481311D01*
X128211997Y-106481305D01*
X128083023Y-106395127D01*
X128083019Y-106395125D01*
X127939709Y-106335765D01*
X127939699Y-106335762D01*
X127787564Y-106305500D01*
X127787562Y-106305500D01*
X127632438Y-106305500D01*
X127632436Y-106305500D01*
X127480300Y-106335762D01*
X127480290Y-106335765D01*
X127336981Y-106395125D01*
X127333387Y-106397527D01*
X127266709Y-106418402D01*
X127199330Y-106399915D01*
X127152641Y-106347935D01*
X127140500Y-106294422D01*
X127140500Y-105425316D01*
X127149939Y-105377864D01*
X127183080Y-105297853D01*
X127209737Y-105233497D01*
X127240500Y-105078842D01*
X127240500Y-104921158D01*
X127240500Y-104921155D01*
X127240499Y-104921153D01*
X127218134Y-104808717D01*
X127209737Y-104766503D01*
X127198936Y-104740426D01*
X127149397Y-104620827D01*
X127149390Y-104620814D01*
X127061789Y-104489711D01*
X127061786Y-104489707D01*
X126950292Y-104378213D01*
X126950288Y-104378210D01*
X126819185Y-104290609D01*
X126819172Y-104290602D01*
X126673501Y-104230264D01*
X126673489Y-104230261D01*
X126518845Y-104199500D01*
X126518842Y-104199500D01*
X126453516Y-104199500D01*
X126386477Y-104179815D01*
X126340722Y-104127011D01*
X126330778Y-104057853D01*
X126333741Y-104043407D01*
X126340152Y-104019480D01*
X126347500Y-103992058D01*
X126347500Y-103833943D01*
X126347500Y-97458917D01*
X126347501Y-97458904D01*
X126347501Y-97290802D01*
X126347501Y-97290800D01*
X126306577Y-97138072D01*
X126227520Y-97001141D01*
X125857664Y-96631285D01*
X125857663Y-96631284D01*
X125745859Y-96519480D01*
X125658414Y-96468994D01*
X125658413Y-96468993D01*
X125608933Y-96440425D01*
X125608932Y-96440424D01*
X125596406Y-96437067D01*
X125456200Y-96399499D01*
X125298086Y-96399499D01*
X125290490Y-96399499D01*
X125290474Y-96399500D01*
X123663527Y-96399500D01*
X123663511Y-96399499D01*
X123655915Y-96399499D01*
X123497800Y-96399499D01*
X123376592Y-96431976D01*
X123306744Y-96430314D01*
X123248881Y-96391152D01*
X123221377Y-96326923D01*
X123220500Y-96312202D01*
X123220500Y-95651941D01*
X123240185Y-95584902D01*
X123292989Y-95539147D01*
X123362147Y-95529203D01*
X123425703Y-95558228D01*
X123432181Y-95564260D01*
X123489707Y-95621786D01*
X123489711Y-95621789D01*
X123620814Y-95709390D01*
X123620827Y-95709397D01*
X123691886Y-95738830D01*
X123766503Y-95769737D01*
X123921153Y-95800499D01*
X123921156Y-95800500D01*
X123921158Y-95800500D01*
X124078844Y-95800500D01*
X124078845Y-95800499D01*
X124233497Y-95769737D01*
X124346166Y-95723067D01*
X124379172Y-95709397D01*
X124379172Y-95709396D01*
X124379179Y-95709394D01*
X124510289Y-95621789D01*
X124621789Y-95510289D01*
X124709394Y-95379179D01*
X124769737Y-95233497D01*
X124800500Y-95078842D01*
X124800500Y-94921158D01*
X124800500Y-94921155D01*
X124800499Y-94921153D01*
X124769738Y-94766510D01*
X124769737Y-94766503D01*
X124769735Y-94766498D01*
X124709397Y-94620827D01*
X124709390Y-94620814D01*
X124621398Y-94489125D01*
X124600520Y-94422447D01*
X124600500Y-94420234D01*
X124600500Y-90421153D01*
X130199500Y-90421153D01*
X130199500Y-90578846D01*
X130230261Y-90733489D01*
X130230264Y-90733501D01*
X130290602Y-90879172D01*
X130290609Y-90879185D01*
X130378210Y-91010288D01*
X130378213Y-91010292D01*
X130489707Y-91121786D01*
X130489711Y-91121789D01*
X130620814Y-91209390D01*
X130620827Y-91209397D01*
X130758695Y-91266503D01*
X130766503Y-91269737D01*
X130921153Y-91300499D01*
X130921156Y-91300500D01*
X130921158Y-91300500D01*
X131078844Y-91300500D01*
X131078845Y-91300499D01*
X131233497Y-91269737D01*
X131379179Y-91209394D01*
X131510289Y-91121789D01*
X131621789Y-91010289D01*
X131709394Y-90879179D01*
X131769737Y-90733497D01*
X131789113Y-90636085D01*
X131800638Y-90578150D01*
X131833023Y-90516239D01*
X131834515Y-90514719D01*
X132480520Y-89868716D01*
X132559577Y-89731784D01*
X132600501Y-89579057D01*
X132600501Y-89420942D01*
X132600501Y-89413347D01*
X132600500Y-89413329D01*
X132600500Y-84378711D01*
X208649500Y-84378711D01*
X208649500Y-84621288D01*
X208681161Y-84861785D01*
X208743947Y-85096104D01*
X208836773Y-85320205D01*
X208836777Y-85320214D01*
X208850866Y-85344616D01*
X208958064Y-85530289D01*
X208958066Y-85530292D01*
X208958067Y-85530293D01*
X209105733Y-85722736D01*
X209105739Y-85722743D01*
X209277256Y-85894260D01*
X209277263Y-85894266D01*
X209390321Y-85981018D01*
X209469711Y-86041936D01*
X209679788Y-86163224D01*
X209903900Y-86256054D01*
X210138211Y-86318838D01*
X210288192Y-86338583D01*
X210378711Y-86350500D01*
X210378712Y-86350500D01*
X210621289Y-86350500D01*
X210669388Y-86344167D01*
X210861789Y-86318838D01*
X211096100Y-86256054D01*
X211320212Y-86163224D01*
X211530289Y-86041936D01*
X211722738Y-85894265D01*
X211894265Y-85722738D01*
X212041936Y-85530289D01*
X212163224Y-85320212D01*
X212256054Y-85096100D01*
X212318838Y-84861789D01*
X212350500Y-84621288D01*
X212350500Y-84378712D01*
X212318838Y-84138211D01*
X212256054Y-83903900D01*
X212163224Y-83679788D01*
X212041936Y-83469711D01*
X211978602Y-83387172D01*
X211894266Y-83277263D01*
X211894260Y-83277256D01*
X211722743Y-83105739D01*
X211722736Y-83105733D01*
X211530293Y-82958067D01*
X211530292Y-82958066D01*
X211530289Y-82958064D01*
X211320212Y-82836776D01*
X211320205Y-82836773D01*
X211096104Y-82743947D01*
X210978944Y-82712554D01*
X210861789Y-82681162D01*
X210861788Y-82681161D01*
X210861785Y-82681161D01*
X210621289Y-82649500D01*
X210621288Y-82649500D01*
X210378712Y-82649500D01*
X210378711Y-82649500D01*
X210138214Y-82681161D01*
X209903895Y-82743947D01*
X209679794Y-82836773D01*
X209679785Y-82836777D01*
X209469706Y-82958067D01*
X209277263Y-83105733D01*
X209277256Y-83105739D01*
X209105739Y-83277256D01*
X209105733Y-83277263D01*
X208958067Y-83469706D01*
X208836777Y-83679785D01*
X208836773Y-83679794D01*
X208743947Y-83903895D01*
X208681161Y-84138214D01*
X208649500Y-84378711D01*
X132600500Y-84378711D01*
X132600500Y-78579765D01*
X132620185Y-78512726D01*
X132621398Y-78510874D01*
X132709390Y-78379185D01*
X132709390Y-78379184D01*
X132709394Y-78379179D01*
X132769737Y-78233497D01*
X132800500Y-78078842D01*
X132800500Y-77921158D01*
X132800500Y-77921155D01*
X132800499Y-77921153D01*
X132769738Y-77766510D01*
X132769737Y-77766503D01*
X132769735Y-77766498D01*
X132709397Y-77620827D01*
X132709390Y-77620814D01*
X132621789Y-77489711D01*
X132621786Y-77489707D01*
X132510292Y-77378213D01*
X132510288Y-77378210D01*
X132379185Y-77290609D01*
X132379172Y-77290602D01*
X132233501Y-77230264D01*
X132233489Y-77230261D01*
X132078845Y-77199500D01*
X132078842Y-77199500D01*
X131921158Y-77199500D01*
X131921155Y-77199500D01*
X131766510Y-77230261D01*
X131766498Y-77230264D01*
X131620827Y-77290602D01*
X131620814Y-77290609D01*
X131489711Y-77378210D01*
X131489707Y-77378213D01*
X131378213Y-77489707D01*
X131378210Y-77489711D01*
X131290609Y-77620814D01*
X131290602Y-77620827D01*
X131230264Y-77766498D01*
X131230261Y-77766510D01*
X131199500Y-77921153D01*
X131199500Y-78078846D01*
X131230261Y-78233489D01*
X131230264Y-78233501D01*
X131290602Y-78379172D01*
X131290609Y-78379185D01*
X131378602Y-78510874D01*
X131399480Y-78577551D01*
X131399500Y-78579765D01*
X131399500Y-89199902D01*
X131379815Y-89266941D01*
X131363181Y-89287583D01*
X130985339Y-89665425D01*
X130924016Y-89698910D01*
X130921850Y-89699361D01*
X130766508Y-89730261D01*
X130766498Y-89730264D01*
X130620827Y-89790602D01*
X130620814Y-89790609D01*
X130489711Y-89878210D01*
X130489707Y-89878213D01*
X130378213Y-89989707D01*
X130378210Y-89989711D01*
X130290609Y-90120814D01*
X130290602Y-90120827D01*
X130230264Y-90266498D01*
X130230261Y-90266510D01*
X130199500Y-90421153D01*
X124600500Y-90421153D01*
X124600500Y-89636555D01*
X124620185Y-89569516D01*
X124672989Y-89523761D01*
X124742147Y-89513817D01*
X124760411Y-89518840D01*
X124760676Y-89517969D01*
X124766492Y-89519732D01*
X124766503Y-89519737D01*
X124921153Y-89550499D01*
X124921156Y-89550500D01*
X124921158Y-89550500D01*
X125078844Y-89550500D01*
X125078845Y-89550499D01*
X125233497Y-89519737D01*
X125379179Y-89459394D01*
X125510289Y-89371789D01*
X125621789Y-89260289D01*
X125709394Y-89129179D01*
X125769737Y-88983497D01*
X125800500Y-88828842D01*
X125800500Y-88671158D01*
X125800500Y-88671155D01*
X125800499Y-88671153D01*
X125769738Y-88516510D01*
X125769737Y-88516503D01*
X125730242Y-88421153D01*
X125709397Y-88370827D01*
X125709390Y-88370814D01*
X125621398Y-88239125D01*
X125600520Y-88172447D01*
X125600500Y-88170234D01*
X125600500Y-76079765D01*
X125620185Y-76012726D01*
X125621398Y-76010874D01*
X125709390Y-75879185D01*
X125709390Y-75879184D01*
X125709394Y-75879179D01*
X125769737Y-75733497D01*
X125800500Y-75578842D01*
X125800500Y-75421158D01*
X125800500Y-75421155D01*
X125800499Y-75421153D01*
X125769738Y-75266510D01*
X125769737Y-75266503D01*
X125747334Y-75212416D01*
X125709397Y-75120827D01*
X125709390Y-75120814D01*
X125621789Y-74989711D01*
X125621786Y-74989707D01*
X125510292Y-74878213D01*
X125510288Y-74878210D01*
X125379185Y-74790609D01*
X125379172Y-74790602D01*
X125233501Y-74730264D01*
X125233489Y-74730261D01*
X125078845Y-74699500D01*
X125078842Y-74699500D01*
X124921158Y-74699500D01*
X124921155Y-74699500D01*
X124766510Y-74730261D01*
X124766498Y-74730264D01*
X124620827Y-74790602D01*
X124620814Y-74790609D01*
X124489711Y-74878210D01*
X124489707Y-74878213D01*
X124378213Y-74989707D01*
X124378210Y-74989711D01*
X124290609Y-75120814D01*
X124290602Y-75120827D01*
X124230264Y-75266498D01*
X124230261Y-75266510D01*
X124199500Y-75421153D01*
X124199500Y-75578846D01*
X124230261Y-75733489D01*
X124230264Y-75733501D01*
X124290602Y-75879172D01*
X124290609Y-75879185D01*
X124378602Y-76010874D01*
X124399480Y-76077551D01*
X124399500Y-76079765D01*
X124399500Y-86250902D01*
X124379815Y-86317941D01*
X124327011Y-86363696D01*
X124257853Y-86373640D01*
X124194297Y-86344615D01*
X124187819Y-86338583D01*
X123487590Y-85638355D01*
X123487588Y-85638352D01*
X123368717Y-85519481D01*
X123368716Y-85519480D01*
X123281904Y-85469360D01*
X123281904Y-85469359D01*
X123281900Y-85469358D01*
X123231785Y-85440423D01*
X123079057Y-85399499D01*
X122920943Y-85399499D01*
X122913347Y-85399499D01*
X122913331Y-85399500D01*
X119079766Y-85399500D01*
X119012727Y-85379815D01*
X119010875Y-85378602D01*
X118879185Y-85290609D01*
X118879172Y-85290602D01*
X118733501Y-85230264D01*
X118733489Y-85230261D01*
X118578845Y-85199500D01*
X118578842Y-85199500D01*
X118449097Y-85199500D01*
X118382058Y-85179815D01*
X118336303Y-85127011D01*
X118326359Y-85057853D01*
X118355384Y-84994297D01*
X118361416Y-84987819D01*
X118476054Y-84873182D01*
X118712417Y-84636819D01*
X118773740Y-84603334D01*
X118800098Y-84600500D01*
X121420234Y-84600500D01*
X121487273Y-84620185D01*
X121489125Y-84621398D01*
X121620814Y-84709390D01*
X121620827Y-84709397D01*
X121696584Y-84740776D01*
X121766503Y-84769737D01*
X121921153Y-84800499D01*
X121921156Y-84800500D01*
X121921158Y-84800500D01*
X122078844Y-84800500D01*
X122078845Y-84800499D01*
X122233497Y-84769737D01*
X122379179Y-84709394D01*
X122510289Y-84621789D01*
X122621789Y-84510289D01*
X122709394Y-84379179D01*
X122709588Y-84378712D01*
X122737145Y-84312181D01*
X122769737Y-84233497D01*
X122800500Y-84078842D01*
X122800500Y-83921158D01*
X122800500Y-83921155D01*
X122800499Y-83921153D01*
X122790069Y-83868717D01*
X122769737Y-83766503D01*
X122763275Y-83750902D01*
X122709397Y-83620827D01*
X122709390Y-83620814D01*
X122621789Y-83489711D01*
X122621786Y-83489707D01*
X122510292Y-83378213D01*
X122510288Y-83378210D01*
X122379185Y-83290609D01*
X122379172Y-83290602D01*
X122323969Y-83267737D01*
X122269565Y-83223896D01*
X122247500Y-83157602D01*
X122264779Y-83089903D01*
X122283740Y-83065495D01*
X122329756Y-83019479D01*
X122514665Y-82834570D01*
X122575984Y-82801088D01*
X122578151Y-82800637D01*
X122578840Y-82800500D01*
X122578842Y-82800500D01*
X122733497Y-82769737D01*
X122879179Y-82709394D01*
X123010289Y-82621789D01*
X123121789Y-82510289D01*
X123209394Y-82379179D01*
X123269737Y-82233497D01*
X123300500Y-82078842D01*
X123300500Y-81921158D01*
X123300500Y-81921155D01*
X123300499Y-81921153D01*
X123292276Y-81879815D01*
X123269737Y-81766503D01*
X123269735Y-81766498D01*
X123209397Y-81620827D01*
X123209390Y-81620814D01*
X123121789Y-81489711D01*
X123121786Y-81489707D01*
X123010292Y-81378213D01*
X123010288Y-81378210D01*
X122879185Y-81290609D01*
X122879172Y-81290602D01*
X122733501Y-81230264D01*
X122733489Y-81230261D01*
X122578845Y-81199500D01*
X122578842Y-81199500D01*
X122421158Y-81199500D01*
X122421155Y-81199500D01*
X122266510Y-81230261D01*
X122266498Y-81230264D01*
X122120827Y-81290602D01*
X122120814Y-81290609D01*
X121989711Y-81378210D01*
X121989707Y-81378213D01*
X121878213Y-81489707D01*
X121878210Y-81489711D01*
X121790609Y-81620814D01*
X121790602Y-81620827D01*
X121730264Y-81766498D01*
X121730261Y-81766508D01*
X121699362Y-81921849D01*
X121666977Y-81983759D01*
X121665426Y-81985338D01*
X121287584Y-82363181D01*
X121226261Y-82396666D01*
X121199903Y-82399500D01*
X119579766Y-82399500D01*
X119512727Y-82379815D01*
X119510875Y-82378602D01*
X119379185Y-82290609D01*
X119379172Y-82290602D01*
X119233501Y-82230264D01*
X119233489Y-82230261D01*
X119078845Y-82199500D01*
X119078842Y-82199500D01*
X118921158Y-82199500D01*
X118921155Y-82199500D01*
X118766510Y-82230261D01*
X118766498Y-82230264D01*
X118620827Y-82290602D01*
X118620814Y-82290609D01*
X118489711Y-82378210D01*
X118489707Y-82378213D01*
X118378213Y-82489707D01*
X118378210Y-82489711D01*
X118290609Y-82620814D01*
X118290602Y-82620827D01*
X118230264Y-82766498D01*
X118230261Y-82766510D01*
X118199500Y-82921153D01*
X118199500Y-83078846D01*
X118230261Y-83233489D01*
X118230263Y-83233497D01*
X118253919Y-83290609D01*
X118265142Y-83317702D01*
X118272611Y-83387172D01*
X118241336Y-83449651D01*
X118212582Y-83472542D01*
X118131284Y-83519479D01*
X118131282Y-83519481D01*
X117812181Y-83838583D01*
X117750858Y-83872068D01*
X117681166Y-83867084D01*
X117625233Y-83825212D01*
X117600816Y-83759748D01*
X117600500Y-83750902D01*
X117600500Y-74589060D01*
X117600501Y-74589047D01*
X117600501Y-74420944D01*
X117577069Y-74333497D01*
X117559577Y-74268216D01*
X117520371Y-74200308D01*
X117480524Y-74131290D01*
X117480518Y-74131282D01*
X116487590Y-73138355D01*
X116487588Y-73138352D01*
X116368717Y-73019481D01*
X116368716Y-73019480D01*
X116281904Y-72969360D01*
X116281904Y-72969359D01*
X116281900Y-72969358D01*
X116231785Y-72940423D01*
X116079057Y-72899499D01*
X115920943Y-72899499D01*
X115913347Y-72899499D01*
X115913331Y-72899500D01*
X105300097Y-72899500D01*
X105233058Y-72879815D01*
X105212416Y-72863181D01*
X104056819Y-71707584D01*
X104023334Y-71646261D01*
X104020500Y-71619903D01*
X104020500Y-71229601D01*
X104040185Y-71162562D01*
X104088206Y-71119116D01*
X104101610Y-71112287D01*
X104267219Y-70991966D01*
X104411966Y-70847219D01*
X104411968Y-70847215D01*
X104411971Y-70847213D01*
X104532284Y-70681614D01*
X104532285Y-70681613D01*
X104532287Y-70681610D01*
X104579516Y-70588917D01*
X104627489Y-70538123D01*
X104695310Y-70521328D01*
X104761445Y-70543865D01*
X104800485Y-70588919D01*
X104847715Y-70681614D01*
X104968028Y-70847213D01*
X105112786Y-70991971D01*
X105267749Y-71104556D01*
X105278390Y-71112287D01*
X105385943Y-71167088D01*
X105460776Y-71205218D01*
X105460778Y-71205218D01*
X105460781Y-71205220D01*
X105535818Y-71229601D01*
X105655465Y-71268477D01*
X105756557Y-71284488D01*
X105857648Y-71300500D01*
X105857649Y-71300500D01*
X106062351Y-71300500D01*
X106062352Y-71300500D01*
X106264534Y-71268477D01*
X106459219Y-71205220D01*
X106641610Y-71112287D01*
X106738446Y-71041932D01*
X106807213Y-70991971D01*
X106807215Y-70991968D01*
X106807219Y-70991966D01*
X106951966Y-70847219D01*
X106951968Y-70847215D01*
X106951971Y-70847213D01*
X107072284Y-70681614D01*
X107072285Y-70681613D01*
X107072287Y-70681610D01*
X107119516Y-70588917D01*
X107167489Y-70538123D01*
X107235310Y-70521328D01*
X107301445Y-70543865D01*
X107340485Y-70588919D01*
X107387715Y-70681614D01*
X107508028Y-70847213D01*
X107652786Y-70991971D01*
X107807749Y-71104556D01*
X107818390Y-71112287D01*
X107925943Y-71167088D01*
X108000776Y-71205218D01*
X108000778Y-71205218D01*
X108000781Y-71205220D01*
X108075818Y-71229601D01*
X108195465Y-71268477D01*
X108296557Y-71284488D01*
X108397648Y-71300500D01*
X108397649Y-71300500D01*
X108602351Y-71300500D01*
X108602352Y-71300500D01*
X108804534Y-71268477D01*
X108999219Y-71205220D01*
X109181610Y-71112287D01*
X109278446Y-71041932D01*
X109347213Y-70991971D01*
X109347215Y-70991968D01*
X109347219Y-70991966D01*
X109491966Y-70847219D01*
X109491968Y-70847215D01*
X109491971Y-70847213D01*
X109582407Y-70722736D01*
X109612287Y-70681610D01*
X109705220Y-70499219D01*
X109768477Y-70304534D01*
X109800500Y-70102352D01*
X109800500Y-69897648D01*
X109768477Y-69695466D01*
X109705220Y-69500781D01*
X109705218Y-69500778D01*
X109705218Y-69500776D01*
X109669638Y-69430948D01*
X109659515Y-69411080D01*
X109643022Y-69378711D01*
X161649500Y-69378711D01*
X161649500Y-69621288D01*
X161659265Y-69695466D01*
X161681162Y-69861789D01*
X161712554Y-69978944D01*
X161743947Y-70096104D01*
X161826299Y-70294918D01*
X161836776Y-70320212D01*
X161958064Y-70530289D01*
X161958066Y-70530292D01*
X161958067Y-70530293D01*
X162105733Y-70722736D01*
X162105739Y-70722743D01*
X162277256Y-70894260D01*
X162277262Y-70894265D01*
X162469711Y-71041936D01*
X162679788Y-71163224D01*
X162903900Y-71256054D01*
X163138211Y-71318838D01*
X163318586Y-71342584D01*
X163378711Y-71350500D01*
X163378712Y-71350500D01*
X163621289Y-71350500D01*
X163669388Y-71344167D01*
X163861789Y-71318838D01*
X164096100Y-71256054D01*
X164320212Y-71163224D01*
X164530289Y-71041936D01*
X164722738Y-70894265D01*
X164894265Y-70722738D01*
X165041936Y-70530289D01*
X165163224Y-70320212D01*
X165256054Y-70096100D01*
X165318838Y-69861789D01*
X165350500Y-69621288D01*
X165350500Y-69378712D01*
X165318838Y-69138211D01*
X165256054Y-68903900D01*
X165163224Y-68679788D01*
X165041936Y-68469711D01*
X164894265Y-68277262D01*
X164894260Y-68277256D01*
X164722743Y-68105739D01*
X164722736Y-68105733D01*
X164530293Y-67958067D01*
X164530292Y-67958066D01*
X164530289Y-67958064D01*
X164320212Y-67836776D01*
X164320205Y-67836773D01*
X164096104Y-67743947D01*
X163895142Y-67690099D01*
X163861789Y-67681162D01*
X163861788Y-67681161D01*
X163861785Y-67681161D01*
X163621289Y-67649500D01*
X163621288Y-67649500D01*
X163378712Y-67649500D01*
X163378711Y-67649500D01*
X163138214Y-67681161D01*
X162903895Y-67743947D01*
X162679794Y-67836773D01*
X162679785Y-67836777D01*
X162469706Y-67958067D01*
X162277263Y-68105733D01*
X162277256Y-68105739D01*
X162105739Y-68277256D01*
X162105733Y-68277263D01*
X161958067Y-68469706D01*
X161836777Y-68679785D01*
X161836773Y-68679794D01*
X161743947Y-68903895D01*
X161681161Y-69138214D01*
X161649500Y-69378711D01*
X109643022Y-69378711D01*
X109612287Y-69318390D01*
X109612285Y-69318387D01*
X109612284Y-69318385D01*
X109491971Y-69152786D01*
X109347213Y-69008028D01*
X109181613Y-68887715D01*
X109181612Y-68887714D01*
X109181610Y-68887713D01*
X109124653Y-68858691D01*
X108999223Y-68794781D01*
X108804534Y-68731522D01*
X108629995Y-68703878D01*
X108602352Y-68699500D01*
X108397648Y-68699500D01*
X108373329Y-68703351D01*
X108195465Y-68731522D01*
X108000776Y-68794781D01*
X107818386Y-68887715D01*
X107652786Y-69008028D01*
X107508028Y-69152786D01*
X107387715Y-69318386D01*
X107340485Y-69411080D01*
X107292510Y-69461876D01*
X107224689Y-69478671D01*
X107158554Y-69456134D01*
X107119515Y-69411080D01*
X107118883Y-69409840D01*
X107072287Y-69318390D01*
X107064556Y-69307749D01*
X106951971Y-69152786D01*
X106807213Y-69008028D01*
X106641613Y-68887715D01*
X106641612Y-68887714D01*
X106641610Y-68887713D01*
X106584653Y-68858691D01*
X106459223Y-68794781D01*
X106264534Y-68731522D01*
X106089995Y-68703878D01*
X106062352Y-68699500D01*
X105857648Y-68699500D01*
X105833329Y-68703351D01*
X105655465Y-68731522D01*
X105460776Y-68794781D01*
X105278386Y-68887715D01*
X105112786Y-69008028D01*
X104968028Y-69152786D01*
X104847715Y-69318386D01*
X104800485Y-69411080D01*
X104752510Y-69461876D01*
X104684689Y-69478671D01*
X104618554Y-69456134D01*
X104579515Y-69411080D01*
X104578883Y-69409840D01*
X104532287Y-69318390D01*
X104524556Y-69307749D01*
X104411971Y-69152786D01*
X104267213Y-69008028D01*
X104101613Y-68887715D01*
X104101612Y-68887714D01*
X104101610Y-68887713D01*
X104044653Y-68858691D01*
X103919223Y-68794781D01*
X103724534Y-68731522D01*
X103549995Y-68703878D01*
X103522352Y-68699500D01*
X103317648Y-68699500D01*
X103293329Y-68703351D01*
X103115465Y-68731522D01*
X102920776Y-68794781D01*
X102738386Y-68887715D01*
X102572786Y-69008028D01*
X102428028Y-69152786D01*
X102307715Y-69318386D01*
X102260485Y-69411080D01*
X102212510Y-69461876D01*
X102144689Y-69478671D01*
X102078554Y-69456134D01*
X102039515Y-69411080D01*
X102038883Y-69409840D01*
X101992287Y-69318390D01*
X101984556Y-69307749D01*
X101871971Y-69152786D01*
X101727213Y-69008028D01*
X101561613Y-68887715D01*
X101561612Y-68887714D01*
X101561610Y-68887713D01*
X101504653Y-68858691D01*
X101379223Y-68794781D01*
X101184534Y-68731522D01*
X101009995Y-68703878D01*
X100982352Y-68699500D01*
X100777648Y-68699500D01*
X100753329Y-68703351D01*
X100575465Y-68731522D01*
X100380776Y-68794781D01*
X100198386Y-68887715D01*
X100032786Y-69008028D01*
X99888028Y-69152786D01*
X99767715Y-69318386D01*
X99720485Y-69411080D01*
X99672510Y-69461876D01*
X99604689Y-69478671D01*
X99538554Y-69456134D01*
X99499515Y-69411080D01*
X99498883Y-69409840D01*
X99452287Y-69318390D01*
X99444556Y-69307749D01*
X99331971Y-69152786D01*
X99187213Y-69008028D01*
X99021613Y-68887715D01*
X99021612Y-68887714D01*
X99021610Y-68887713D01*
X98964653Y-68858691D01*
X98839223Y-68794781D01*
X98644534Y-68731522D01*
X98469995Y-68703878D01*
X98442352Y-68699500D01*
X98237648Y-68699500D01*
X98213329Y-68703351D01*
X98035465Y-68731522D01*
X97840776Y-68794781D01*
X97658386Y-68887715D01*
X97492786Y-69008028D01*
X97348028Y-69152786D01*
X97227715Y-69318386D01*
X97180485Y-69411080D01*
X97132510Y-69461876D01*
X97064689Y-69478671D01*
X96998554Y-69456134D01*
X96959515Y-69411080D01*
X96958883Y-69409840D01*
X96912287Y-69318390D01*
X96904556Y-69307749D01*
X96791971Y-69152786D01*
X96647213Y-69008028D01*
X96481613Y-68887715D01*
X96481612Y-68887714D01*
X96481610Y-68887713D01*
X96424653Y-68858691D01*
X96299223Y-68794781D01*
X96104534Y-68731522D01*
X95929995Y-68703878D01*
X95902352Y-68699500D01*
X95697648Y-68699500D01*
X95673329Y-68703351D01*
X95495465Y-68731522D01*
X95300776Y-68794781D01*
X95118386Y-68887715D01*
X94952786Y-69008028D01*
X94808028Y-69152786D01*
X94687715Y-69318386D01*
X94594781Y-69500776D01*
X94531522Y-69695465D01*
X94499500Y-69897648D01*
X94499500Y-70102351D01*
X94531522Y-70304534D01*
X94594781Y-70499223D01*
X94687715Y-70681613D01*
X94808028Y-70847213D01*
X94808034Y-70847219D01*
X94952781Y-70991966D01*
X95118390Y-71112287D01*
X95131793Y-71119116D01*
X95182589Y-71167088D01*
X95199500Y-71229601D01*
X95199500Y-80713330D01*
X95199499Y-80713348D01*
X95199499Y-80879054D01*
X95199498Y-80879054D01*
X95240423Y-81031785D01*
X95269358Y-81081900D01*
X95269359Y-81081904D01*
X95269360Y-81081904D01*
X95319479Y-81168714D01*
X95319481Y-81168717D01*
X95438349Y-81287585D01*
X95438355Y-81287590D01*
X96838584Y-82687819D01*
X96872069Y-82749142D01*
X96867085Y-82818834D01*
X96825213Y-82874767D01*
X96759749Y-82899184D01*
X96750903Y-82899500D01*
X94086669Y-82899500D01*
X94086653Y-82899499D01*
X94079057Y-82899499D01*
X93920943Y-82899499D01*
X93813587Y-82928265D01*
X93768210Y-82940424D01*
X93768209Y-82940425D01*
X93718096Y-82969359D01*
X93718095Y-82969360D01*
X93674689Y-82994420D01*
X93631285Y-83019479D01*
X93631282Y-83019481D01*
X91019481Y-85631282D01*
X91019479Y-85631285D01*
X90971775Y-85713913D01*
X90971773Y-85713915D01*
X90940425Y-85768209D01*
X90940424Y-85768210D01*
X90924843Y-85826359D01*
X90899499Y-85920943D01*
X90899499Y-85920945D01*
X90899499Y-86089046D01*
X90899500Y-86089059D01*
X90899500Y-105913330D01*
X90899499Y-105913348D01*
X90899499Y-106079054D01*
X90899498Y-106079054D01*
X90940423Y-106231785D01*
X90954433Y-106256052D01*
X90960227Y-106266086D01*
X91019479Y-106368714D01*
X91019481Y-106368717D01*
X91138349Y-106487585D01*
X91138355Y-106487590D01*
X93515139Y-108864374D01*
X93515149Y-108864385D01*
X93519479Y-108868715D01*
X93519480Y-108868716D01*
X93631284Y-108980520D01*
X93718095Y-109030639D01*
X93718097Y-109030641D01*
X93756151Y-109052611D01*
X93768215Y-109059577D01*
X93920943Y-109100501D01*
X93920946Y-109100501D01*
X94086653Y-109100501D01*
X94086669Y-109100500D01*
X96493331Y-109100500D01*
X96493347Y-109100501D01*
X96500943Y-109100501D01*
X96659054Y-109100501D01*
X96659057Y-109100501D01*
X96811785Y-109059577D01*
X96861904Y-109030639D01*
X96948716Y-108980520D01*
X97060520Y-108868716D01*
X97060520Y-108868714D01*
X97070728Y-108858507D01*
X97070730Y-108858504D01*
X97895158Y-108034075D01*
X97956479Y-108000592D01*
X98021151Y-108003825D01*
X98035466Y-108008477D01*
X98237648Y-108040500D01*
X98237649Y-108040500D01*
X98442351Y-108040500D01*
X98442352Y-108040500D01*
X98644534Y-108008477D01*
X98839219Y-107945220D01*
X99021610Y-107852287D01*
X99114590Y-107784732D01*
X99187213Y-107731971D01*
X99187215Y-107731968D01*
X99187219Y-107731966D01*
X99331966Y-107587219D01*
X99331968Y-107587215D01*
X99331971Y-107587213D01*
X99452284Y-107421614D01*
X99452285Y-107421613D01*
X99452287Y-107421610D01*
X99499516Y-107328917D01*
X99547489Y-107278123D01*
X99615310Y-107261328D01*
X99681445Y-107283865D01*
X99720483Y-107328917D01*
X99741283Y-107369738D01*
X99767715Y-107421614D01*
X99888028Y-107587213D01*
X99888034Y-107587219D01*
X100032781Y-107731966D01*
X100198390Y-107852287D01*
X100211793Y-107859116D01*
X100262589Y-107907088D01*
X100279500Y-107969601D01*
X100279500Y-108293330D01*
X100279499Y-108293348D01*
X100279499Y-108459054D01*
X100279498Y-108459054D01*
X100320423Y-108611787D01*
X100328899Y-108626466D01*
X100328898Y-108626466D01*
X100328900Y-108626468D01*
X100399475Y-108748709D01*
X100399481Y-108748717D01*
X100518349Y-108867585D01*
X100518355Y-108867590D01*
X101509139Y-109858374D01*
X101509149Y-109858385D01*
X101513479Y-109862715D01*
X101513480Y-109862716D01*
X101625284Y-109974520D01*
X101694073Y-110014235D01*
X101762215Y-110053577D01*
X101914943Y-110094501D01*
X101914946Y-110094501D01*
X102080653Y-110094501D01*
X102080669Y-110094500D01*
X104115930Y-110094500D01*
X104182969Y-110114185D01*
X104228724Y-110166989D01*
X104238668Y-110236147D01*
X104231945Y-110260650D01*
X104232031Y-110260676D01*
X104231066Y-110263855D01*
X104230491Y-110265953D01*
X104230263Y-110266502D01*
X104230261Y-110266510D01*
X104199500Y-110421153D01*
X104199500Y-110578846D01*
X104230261Y-110733489D01*
X104230264Y-110733501D01*
X104248716Y-110778048D01*
X104256185Y-110847517D01*
X104224909Y-110909996D01*
X104164820Y-110945648D01*
X104134155Y-110949500D01*
X75754875Y-110949500D01*
X75745146Y-110949118D01*
X75532975Y-110932419D01*
X75513757Y-110929375D01*
X75311568Y-110880835D01*
X75293062Y-110874822D01*
X75100959Y-110795249D01*
X75083622Y-110786415D01*
X74906319Y-110677764D01*
X74890578Y-110666328D01*
X74851845Y-110633247D01*
X74732456Y-110531279D01*
X74718720Y-110517543D01*
X74583668Y-110359417D01*
X74572235Y-110343680D01*
X74463584Y-110166377D01*
X74454750Y-110149040D01*
X74415207Y-110053577D01*
X74375174Y-109956930D01*
X74369166Y-109938439D01*
X74320623Y-109736238D01*
X74317580Y-109717024D01*
X74316616Y-109704779D01*
X74300882Y-109504853D01*
X74300500Y-109495124D01*
X74300500Y-104378711D01*
X76649500Y-104378711D01*
X76649500Y-104621288D01*
X76671790Y-104790606D01*
X76681162Y-104861789D01*
X76707542Y-104960240D01*
X76743947Y-105096104D01*
X76836773Y-105320205D01*
X76836777Y-105320214D01*
X76841761Y-105328846D01*
X76958064Y-105530289D01*
X76958066Y-105530292D01*
X76958067Y-105530293D01*
X77105733Y-105722736D01*
X77105739Y-105722743D01*
X77277256Y-105894260D01*
X77277263Y-105894266D01*
X77335411Y-105938884D01*
X77469711Y-106041936D01*
X77679788Y-106163224D01*
X77903900Y-106256054D01*
X78138211Y-106318838D01*
X78266787Y-106335765D01*
X78378711Y-106350500D01*
X78378712Y-106350500D01*
X78621289Y-106350500D01*
X78669388Y-106344167D01*
X78861789Y-106318838D01*
X79096100Y-106256054D01*
X79320212Y-106163224D01*
X79530289Y-106041936D01*
X79722738Y-105894265D01*
X79894265Y-105722738D01*
X80041936Y-105530289D01*
X80163224Y-105320212D01*
X80256054Y-105096100D01*
X80318838Y-104861789D01*
X80350500Y-104621288D01*
X80350500Y-104378712D01*
X80347158Y-104353330D01*
X80338900Y-104290602D01*
X80318838Y-104138211D01*
X80256054Y-103903900D01*
X80163224Y-103679788D01*
X80041936Y-103469711D01*
X79894265Y-103277262D01*
X79894260Y-103277256D01*
X79722743Y-103105739D01*
X79722736Y-103105733D01*
X79530293Y-102958067D01*
X79530292Y-102958066D01*
X79530289Y-102958064D01*
X79358661Y-102858974D01*
X79320214Y-102836777D01*
X79320205Y-102836773D01*
X79096104Y-102743947D01*
X78861785Y-102681161D01*
X78621289Y-102649500D01*
X78621288Y-102649500D01*
X78378712Y-102649500D01*
X78378711Y-102649500D01*
X78138214Y-102681161D01*
X77903895Y-102743947D01*
X77679794Y-102836773D01*
X77679785Y-102836777D01*
X77469706Y-102958067D01*
X77277263Y-103105733D01*
X77277256Y-103105739D01*
X77105739Y-103277256D01*
X77105733Y-103277263D01*
X76958067Y-103469706D01*
X76836777Y-103679785D01*
X76836773Y-103679794D01*
X76743947Y-103903895D01*
X76681161Y-104138214D01*
X76649500Y-104378711D01*
X74300500Y-104378711D01*
X74300500Y-69378711D01*
X76649500Y-69378711D01*
X76649500Y-69621288D01*
X76659265Y-69695466D01*
X76681162Y-69861789D01*
X76712554Y-69978944D01*
X76743947Y-70096104D01*
X76826299Y-70294918D01*
X76836776Y-70320212D01*
X76958064Y-70530289D01*
X76958066Y-70530292D01*
X76958067Y-70530293D01*
X77105733Y-70722736D01*
X77105739Y-70722743D01*
X77277256Y-70894260D01*
X77277262Y-70894265D01*
X77469711Y-71041936D01*
X77679788Y-71163224D01*
X77903900Y-71256054D01*
X78138211Y-71318838D01*
X78318586Y-71342584D01*
X78378711Y-71350500D01*
X78378712Y-71350500D01*
X78621289Y-71350500D01*
X78669388Y-71344167D01*
X78861789Y-71318838D01*
X79096100Y-71256054D01*
X79320212Y-71163224D01*
X79530289Y-71041936D01*
X79722738Y-70894265D01*
X79894265Y-70722738D01*
X80041936Y-70530289D01*
X80163224Y-70320212D01*
X80256054Y-70096100D01*
X80318838Y-69861789D01*
X80350500Y-69621288D01*
X80350500Y-69378712D01*
X80318838Y-69138211D01*
X80256054Y-68903900D01*
X80163224Y-68679788D01*
X80041936Y-68469711D01*
X79894265Y-68277262D01*
X79894260Y-68277256D01*
X79722743Y-68105739D01*
X79722736Y-68105733D01*
X79530293Y-67958067D01*
X79530292Y-67958066D01*
X79530289Y-67958064D01*
X79320212Y-67836776D01*
X79320205Y-67836773D01*
X79096104Y-67743947D01*
X78895142Y-67690099D01*
X78861789Y-67681162D01*
X78861788Y-67681161D01*
X78861785Y-67681161D01*
X78621289Y-67649500D01*
X78621288Y-67649500D01*
X78378712Y-67649500D01*
X78378711Y-67649500D01*
X78138214Y-67681161D01*
X77903895Y-67743947D01*
X77679794Y-67836773D01*
X77679785Y-67836777D01*
X77469706Y-67958067D01*
X77277263Y-68105733D01*
X77277256Y-68105739D01*
X77105739Y-68277256D01*
X77105733Y-68277263D01*
X76958067Y-68469706D01*
X76836777Y-68679785D01*
X76836773Y-68679794D01*
X76743947Y-68903895D01*
X76681161Y-69138214D01*
X76649500Y-69378711D01*
X74300500Y-69378711D01*
X74300500Y-67754875D01*
X74300882Y-67745146D01*
X74306204Y-67677525D01*
X74317580Y-67532969D01*
X74320622Y-67513763D01*
X74369167Y-67311556D01*
X74375173Y-67293073D01*
X74454750Y-67100957D01*
X74463584Y-67083622D01*
X74572235Y-66906319D01*
X74583663Y-66890587D01*
X74718726Y-66732449D01*
X74732449Y-66718726D01*
X74890587Y-66583663D01*
X74906319Y-66572235D01*
X75083622Y-66463584D01*
X75100959Y-66454750D01*
X75293073Y-66375173D01*
X75311556Y-66369167D01*
X75513763Y-66320622D01*
X75532969Y-66317580D01*
X75745146Y-66300881D01*
X75754875Y-66300500D01*
X75816842Y-66300500D01*
X212433158Y-66300500D01*
X212495125Y-66300500D01*
X212504853Y-66300882D01*
G37*
%TD.AperFunction*%
%TA.AperFunction,Conductor*%
G36*
X110680484Y-107120185D02*
G01*
X110726239Y-107172989D01*
X110736183Y-107242147D01*
X110731159Y-107260411D01*
X110732031Y-107260676D01*
X110730261Y-107266510D01*
X110699500Y-107421153D01*
X110699500Y-107578846D01*
X110730261Y-107733489D01*
X110730264Y-107733501D01*
X110790602Y-107879172D01*
X110790609Y-107879185D01*
X110878210Y-108010288D01*
X110878213Y-108010292D01*
X110989707Y-108121786D01*
X110989711Y-108121789D01*
X111120814Y-108209390D01*
X111120827Y-108209397D01*
X111266498Y-108269735D01*
X111266503Y-108269737D01*
X111385203Y-108293348D01*
X111421153Y-108300499D01*
X111421156Y-108300500D01*
X111421158Y-108300500D01*
X111578844Y-108300500D01*
X111578845Y-108300499D01*
X111733497Y-108269737D01*
X111879179Y-108209394D01*
X112010289Y-108121789D01*
X112121789Y-108010289D01*
X112209394Y-107879179D01*
X112211222Y-107874767D01*
X112223067Y-107846166D01*
X112269737Y-107733497D01*
X112298835Y-107587213D01*
X112300638Y-107578150D01*
X112333023Y-107516239D01*
X112334514Y-107514720D01*
X112712417Y-107136819D01*
X112773740Y-107103334D01*
X112800098Y-107100500D01*
X112818500Y-107100500D01*
X112885539Y-107120185D01*
X112931294Y-107172989D01*
X112942500Y-107224500D01*
X112942500Y-108769500D01*
X112922815Y-108836539D01*
X112870011Y-108882294D01*
X112818500Y-108893500D01*
X102294097Y-108893500D01*
X102227058Y-108873815D01*
X102206416Y-108857181D01*
X101516819Y-108167584D01*
X101483334Y-108106261D01*
X101480500Y-108079903D01*
X101480500Y-107969601D01*
X101500185Y-107902562D01*
X101548206Y-107859116D01*
X101561610Y-107852287D01*
X101727219Y-107731966D01*
X101871966Y-107587219D01*
X101871968Y-107587215D01*
X101871971Y-107587213D01*
X101992284Y-107421614D01*
X101992285Y-107421613D01*
X101992287Y-107421610D01*
X102039516Y-107328917D01*
X102087489Y-107278123D01*
X102155310Y-107261328D01*
X102221445Y-107283865D01*
X102260483Y-107328917D01*
X102281283Y-107369738D01*
X102307715Y-107421614D01*
X102428028Y-107587213D01*
X102572786Y-107731971D01*
X102727749Y-107844556D01*
X102738390Y-107852287D01*
X102831051Y-107899500D01*
X102920776Y-107945218D01*
X102920778Y-107945218D01*
X102920781Y-107945220D01*
X102995818Y-107969601D01*
X103115465Y-108008477D01*
X103216557Y-108024488D01*
X103317648Y-108040500D01*
X103317649Y-108040500D01*
X103522351Y-108040500D01*
X103522352Y-108040500D01*
X103724534Y-108008477D01*
X103919219Y-107945220D01*
X104101610Y-107852287D01*
X104194590Y-107784732D01*
X104267213Y-107731971D01*
X104267215Y-107731968D01*
X104267219Y-107731966D01*
X104411966Y-107587219D01*
X104411968Y-107587215D01*
X104411971Y-107587213D01*
X104532284Y-107421614D01*
X104532285Y-107421613D01*
X104532287Y-107421610D01*
X104579516Y-107328917D01*
X104627489Y-107278123D01*
X104695310Y-107261328D01*
X104761445Y-107283865D01*
X104800483Y-107328917D01*
X104821283Y-107369738D01*
X104847715Y-107421614D01*
X104968028Y-107587213D01*
X105112786Y-107731971D01*
X105267749Y-107844556D01*
X105278390Y-107852287D01*
X105371051Y-107899500D01*
X105460776Y-107945218D01*
X105460778Y-107945218D01*
X105460781Y-107945220D01*
X105535818Y-107969601D01*
X105655465Y-108008477D01*
X105756557Y-108024488D01*
X105857648Y-108040500D01*
X105857649Y-108040500D01*
X106062351Y-108040500D01*
X106062352Y-108040500D01*
X106264534Y-108008477D01*
X106459219Y-107945220D01*
X106641610Y-107852287D01*
X106734590Y-107784732D01*
X106807213Y-107731971D01*
X106807215Y-107731968D01*
X106807219Y-107731966D01*
X106951966Y-107587219D01*
X106951968Y-107587215D01*
X106951971Y-107587213D01*
X107004732Y-107514590D01*
X107072287Y-107421610D01*
X107165220Y-107239219D01*
X107182453Y-107186180D01*
X107221891Y-107128506D01*
X107286250Y-107101308D01*
X107300384Y-107100500D01*
X110613445Y-107100500D01*
X110680484Y-107120185D01*
G37*
%TD.AperFunction*%
%TA.AperFunction,Conductor*%
G36*
X94867992Y-84120185D02*
G01*
X94913747Y-84172989D01*
X94923691Y-84242147D01*
X94894666Y-84305703D01*
X94888634Y-84312181D01*
X94808032Y-84392782D01*
X94808028Y-84392786D01*
X94687715Y-84558386D01*
X94594781Y-84740776D01*
X94531522Y-84935465D01*
X94506080Y-85096104D01*
X94499500Y-85137648D01*
X94499500Y-85342352D01*
X94505180Y-85378211D01*
X94531523Y-85544535D01*
X94536172Y-85558845D01*
X94538165Y-85628687D01*
X94505921Y-85684841D01*
X93237469Y-86953294D01*
X93211789Y-86973000D01*
X93131284Y-87019480D01*
X93131281Y-87019482D01*
X93019481Y-87131282D01*
X93019475Y-87131290D01*
X92940426Y-87268209D01*
X92940423Y-87268216D01*
X92899500Y-87420943D01*
X92899500Y-104353330D01*
X92899499Y-104353348D01*
X92899499Y-104519054D01*
X92899498Y-104519054D01*
X92940423Y-104671786D01*
X92940424Y-104671787D01*
X92961405Y-104708127D01*
X93009024Y-104790606D01*
X93019481Y-104808717D01*
X93138349Y-104927585D01*
X93138355Y-104927590D01*
X94505922Y-106295157D01*
X94539407Y-106356480D01*
X94536173Y-106421155D01*
X94531522Y-106435468D01*
X94499500Y-106637648D01*
X94499500Y-106842351D01*
X94531522Y-107044534D01*
X94594781Y-107239223D01*
X94646437Y-107340602D01*
X94687480Y-107421153D01*
X94687715Y-107421613D01*
X94808028Y-107587213D01*
X94908634Y-107687819D01*
X94942119Y-107749142D01*
X94937135Y-107818834D01*
X94895263Y-107874767D01*
X94829799Y-107899184D01*
X94820953Y-107899500D01*
X94300097Y-107899500D01*
X94233058Y-107879815D01*
X94212416Y-107863181D01*
X92136819Y-105787584D01*
X92103334Y-105726261D01*
X92100500Y-105699903D01*
X92100500Y-86300097D01*
X92120185Y-86233058D01*
X92136819Y-86212416D01*
X94212416Y-84136819D01*
X94273739Y-84103334D01*
X94300097Y-84100500D01*
X94800953Y-84100500D01*
X94867992Y-84120185D01*
G37*
%TD.AperFunction*%
%TA.AperFunction,Conductor*%
G36*
X118766942Y-105120185D02*
G01*
X118787584Y-105136819D01*
X119165425Y-105514660D01*
X119198910Y-105575983D01*
X119199361Y-105578149D01*
X119230261Y-105733491D01*
X119230264Y-105733501D01*
X119290602Y-105879172D01*
X119290609Y-105879185D01*
X119378209Y-106010287D01*
X119378210Y-106010288D01*
X119378211Y-106010289D01*
X119453182Y-106085260D01*
X119486666Y-106146581D01*
X119489500Y-106172940D01*
X119489500Y-106361239D01*
X119469815Y-106428278D01*
X119417011Y-106474033D01*
X119347853Y-106483977D01*
X119296610Y-106464342D01*
X119227917Y-106418444D01*
X119193021Y-106395127D01*
X119193018Y-106395125D01*
X119193017Y-106395125D01*
X119049709Y-106335765D01*
X119049699Y-106335762D01*
X118897564Y-106305500D01*
X118897562Y-106305500D01*
X118846098Y-106305500D01*
X118779059Y-106285815D01*
X118758417Y-106269181D01*
X118280909Y-105791673D01*
X117801415Y-105312180D01*
X117767931Y-105250858D01*
X117772915Y-105181167D01*
X117814787Y-105125233D01*
X117880251Y-105100816D01*
X117889097Y-105100500D01*
X118699903Y-105100500D01*
X118766942Y-105120185D01*
G37*
%TD.AperFunction*%
%TA.AperFunction,Conductor*%
G36*
X102221445Y-85783865D02*
G01*
X102260483Y-85828917D01*
X102293780Y-85894265D01*
X102307715Y-85921614D01*
X102428028Y-86087213D01*
X102572786Y-86231971D01*
X102691116Y-86317941D01*
X102738390Y-86352287D01*
X102846061Y-86407148D01*
X102920776Y-86445218D01*
X102920778Y-86445218D01*
X102920781Y-86445220D01*
X103009932Y-86474187D01*
X103115465Y-86508477D01*
X103216557Y-86524488D01*
X103317648Y-86540500D01*
X103317649Y-86540500D01*
X103522351Y-86540500D01*
X103522352Y-86540500D01*
X103724534Y-86508477D01*
X103738842Y-86503827D01*
X103808682Y-86501831D01*
X103864842Y-86534077D01*
X103883181Y-86552416D01*
X103916666Y-86613739D01*
X103919500Y-86640097D01*
X103919500Y-90124199D01*
X103899815Y-90191238D01*
X103847011Y-90236993D01*
X103777853Y-90246937D01*
X103757183Y-90242130D01*
X103724542Y-90231524D01*
X103724535Y-90231523D01*
X103623443Y-90215511D01*
X103522352Y-90199500D01*
X103317648Y-90199500D01*
X103293329Y-90203351D01*
X103115465Y-90231522D01*
X102920776Y-90294781D01*
X102738386Y-90387715D01*
X102572786Y-90508028D01*
X102428028Y-90652786D01*
X102307715Y-90818386D01*
X102260485Y-90911080D01*
X102212510Y-90961876D01*
X102144689Y-90978671D01*
X102078554Y-90956134D01*
X102039515Y-90911080D01*
X102033614Y-90899499D01*
X101992287Y-90818390D01*
X101972098Y-90790602D01*
X101871971Y-90652786D01*
X101727213Y-90508028D01*
X101561613Y-90387715D01*
X101561612Y-90387714D01*
X101561610Y-90387713D01*
X101504653Y-90358691D01*
X101379223Y-90294781D01*
X101184534Y-90231522D01*
X101009995Y-90203878D01*
X100982352Y-90199500D01*
X100777648Y-90199500D01*
X100753329Y-90203351D01*
X100575465Y-90231522D01*
X100380776Y-90294781D01*
X100198386Y-90387715D01*
X100032786Y-90508028D01*
X99888028Y-90652786D01*
X99767715Y-90818386D01*
X99720485Y-90911080D01*
X99672510Y-90961876D01*
X99604689Y-90978671D01*
X99538554Y-90956134D01*
X99499515Y-90911080D01*
X99493614Y-90899499D01*
X99452287Y-90818390D01*
X99432098Y-90790602D01*
X99331971Y-90652786D01*
X99187213Y-90508028D01*
X99021613Y-90387715D01*
X99021612Y-90387714D01*
X99021610Y-90387713D01*
X98964653Y-90358691D01*
X98839223Y-90294781D01*
X98644534Y-90231522D01*
X98469995Y-90203878D01*
X98442352Y-90199500D01*
X98237648Y-90199500D01*
X98213329Y-90203351D01*
X98035465Y-90231522D01*
X97840776Y-90294781D01*
X97658386Y-90387715D01*
X97492786Y-90508028D01*
X97348028Y-90652786D01*
X97227715Y-90818386D01*
X97180485Y-90911080D01*
X97132510Y-90961876D01*
X97064689Y-90978671D01*
X96998554Y-90956134D01*
X96959515Y-90911080D01*
X96953614Y-90899499D01*
X96912287Y-90818390D01*
X96892098Y-90790602D01*
X96791971Y-90652786D01*
X96647213Y-90508028D01*
X96481613Y-90387715D01*
X96481612Y-90387714D01*
X96481610Y-90387713D01*
X96424653Y-90358691D01*
X96299223Y-90294781D01*
X96104534Y-90231522D01*
X95929995Y-90203878D01*
X95902352Y-90199500D01*
X95697648Y-90199500D01*
X95673329Y-90203351D01*
X95495465Y-90231522D01*
X95300776Y-90294781D01*
X95118386Y-90387715D01*
X94952786Y-90508028D01*
X94808028Y-90652786D01*
X94687715Y-90818386D01*
X94594781Y-91000776D01*
X94531522Y-91195465D01*
X94499500Y-91397648D01*
X94499500Y-91602351D01*
X94531522Y-91804534D01*
X94594781Y-91999223D01*
X94641174Y-92090273D01*
X94663668Y-92134420D01*
X94687715Y-92181613D01*
X94808028Y-92347213D01*
X94808034Y-92347219D01*
X94952781Y-92491966D01*
X95118390Y-92612287D01*
X95131793Y-92619116D01*
X95182589Y-92667088D01*
X95199500Y-92729601D01*
X95199500Y-102213330D01*
X95199499Y-102213348D01*
X95199499Y-102379054D01*
X95199498Y-102379054D01*
X95210780Y-102421158D01*
X95237575Y-102521158D01*
X95240423Y-102531784D01*
X95240424Y-102531788D01*
X95267591Y-102578843D01*
X95267592Y-102578843D01*
X95319477Y-102668712D01*
X95319481Y-102668717D01*
X95438349Y-102787585D01*
X95438355Y-102787590D01*
X96515139Y-103864374D01*
X96515149Y-103864385D01*
X96519479Y-103868715D01*
X96519480Y-103868716D01*
X96631284Y-103980520D01*
X96698767Y-104019481D01*
X96768215Y-104059577D01*
X96920942Y-104100500D01*
X96920943Y-104100500D01*
X97020943Y-104100500D01*
X97290902Y-104100500D01*
X97357941Y-104120185D01*
X97403696Y-104172989D01*
X97413640Y-104242147D01*
X97384615Y-104305703D01*
X97378583Y-104312181D01*
X96244842Y-105445921D01*
X96183519Y-105479406D01*
X96118848Y-105476173D01*
X96104534Y-105471522D01*
X95929995Y-105443878D01*
X95902352Y-105439500D01*
X95697648Y-105439500D01*
X95659599Y-105445526D01*
X95495468Y-105471522D01*
X95486717Y-105474365D01*
X95481154Y-105476173D01*
X95411313Y-105478167D01*
X95355157Y-105445922D01*
X94136819Y-104227584D01*
X94103334Y-104166261D01*
X94100500Y-104139903D01*
X94100500Y-87840097D01*
X94120185Y-87773058D01*
X94136819Y-87752416D01*
X94676819Y-87212416D01*
X95355159Y-86534075D01*
X95416480Y-86500592D01*
X95481154Y-86503826D01*
X95495466Y-86508477D01*
X95697648Y-86540500D01*
X95697649Y-86540500D01*
X95902351Y-86540500D01*
X95902352Y-86540500D01*
X96104534Y-86508477D01*
X96299219Y-86445220D01*
X96481610Y-86352287D01*
X96589723Y-86273739D01*
X96647213Y-86231971D01*
X96647215Y-86231968D01*
X96647219Y-86231966D01*
X96791966Y-86087219D01*
X96791968Y-86087215D01*
X96791971Y-86087213D01*
X96912284Y-85921614D01*
X96912285Y-85921613D01*
X96912287Y-85921610D01*
X96959516Y-85828917D01*
X97007489Y-85778123D01*
X97075310Y-85761328D01*
X97141445Y-85783865D01*
X97180483Y-85828917D01*
X97213780Y-85894265D01*
X97227715Y-85921614D01*
X97348028Y-86087213D01*
X97492786Y-86231971D01*
X97611116Y-86317941D01*
X97658390Y-86352287D01*
X97766061Y-86407148D01*
X97840776Y-86445218D01*
X97840778Y-86445218D01*
X97840781Y-86445220D01*
X97929932Y-86474187D01*
X98035465Y-86508477D01*
X98136557Y-86524488D01*
X98237648Y-86540500D01*
X98237649Y-86540500D01*
X98442351Y-86540500D01*
X98442352Y-86540500D01*
X98644534Y-86508477D01*
X98839219Y-86445220D01*
X99021610Y-86352287D01*
X99129723Y-86273739D01*
X99187213Y-86231971D01*
X99187215Y-86231968D01*
X99187219Y-86231966D01*
X99331966Y-86087219D01*
X99331968Y-86087215D01*
X99331971Y-86087213D01*
X99452284Y-85921614D01*
X99452285Y-85921613D01*
X99452287Y-85921610D01*
X99499516Y-85828917D01*
X99547489Y-85778123D01*
X99615310Y-85761328D01*
X99681445Y-85783865D01*
X99720483Y-85828917D01*
X99753780Y-85894265D01*
X99767715Y-85921614D01*
X99888028Y-86087213D01*
X100032786Y-86231971D01*
X100151116Y-86317941D01*
X100198390Y-86352287D01*
X100306061Y-86407148D01*
X100380776Y-86445218D01*
X100380778Y-86445218D01*
X100380781Y-86445220D01*
X100469932Y-86474187D01*
X100575465Y-86508477D01*
X100676557Y-86524488D01*
X100777648Y-86540500D01*
X100777649Y-86540500D01*
X100982351Y-86540500D01*
X100982352Y-86540500D01*
X101184534Y-86508477D01*
X101379219Y-86445220D01*
X101561610Y-86352287D01*
X101669723Y-86273739D01*
X101727213Y-86231971D01*
X101727215Y-86231968D01*
X101727219Y-86231966D01*
X101871966Y-86087219D01*
X101871968Y-86087215D01*
X101871971Y-86087213D01*
X101992284Y-85921614D01*
X101992285Y-85921613D01*
X101992287Y-85921610D01*
X102039516Y-85828917D01*
X102087489Y-85778123D01*
X102155310Y-85761328D01*
X102221445Y-85783865D01*
G37*
%TD.AperFunction*%
%TA.AperFunction,Conductor*%
G36*
X97141445Y-92043865D02*
G01*
X97180483Y-92088917D01*
X97204035Y-92135139D01*
X97227715Y-92181614D01*
X97348028Y-92347213D01*
X97348034Y-92347219D01*
X97492781Y-92491966D01*
X97658390Y-92612287D01*
X97671793Y-92619116D01*
X97722589Y-92667088D01*
X97739500Y-92729601D01*
X97739500Y-101413330D01*
X97739499Y-101413348D01*
X97739499Y-101579054D01*
X97739498Y-101579054D01*
X97780423Y-101731785D01*
X97809358Y-101781900D01*
X97809359Y-101781904D01*
X97809360Y-101781904D01*
X97856284Y-101863181D01*
X97859479Y-101868714D01*
X97859481Y-101868717D01*
X97978349Y-101987585D01*
X97978355Y-101987590D01*
X98678583Y-102687819D01*
X98712068Y-102749142D01*
X98707084Y-102818834D01*
X98665212Y-102874767D01*
X98599748Y-102899184D01*
X98590902Y-102899500D01*
X97300097Y-102899500D01*
X97233058Y-102879815D01*
X97212416Y-102863181D01*
X96436819Y-102087584D01*
X96403334Y-102026261D01*
X96400500Y-101999903D01*
X96400500Y-92729601D01*
X96420185Y-92662562D01*
X96468206Y-92619116D01*
X96481610Y-92612287D01*
X96647219Y-92491966D01*
X96791966Y-92347219D01*
X96791968Y-92347215D01*
X96791971Y-92347213D01*
X96912284Y-92181614D01*
X96912285Y-92181613D01*
X96912287Y-92181610D01*
X96959516Y-92088917D01*
X97007489Y-92038123D01*
X97075310Y-92021328D01*
X97141445Y-92043865D01*
G37*
%TD.AperFunction*%
%TA.AperFunction,Conductor*%
G36*
X102221445Y-92043865D02*
G01*
X102260483Y-92088917D01*
X102284035Y-92135139D01*
X102307715Y-92181614D01*
X102428028Y-92347213D01*
X102428034Y-92347219D01*
X102572781Y-92491966D01*
X102738390Y-92612287D01*
X102751793Y-92619116D01*
X102802589Y-92667088D01*
X102819500Y-92729601D01*
X102819500Y-101833330D01*
X102819499Y-101833348D01*
X102819499Y-101888058D01*
X102799814Y-101955097D01*
X102747010Y-102000852D01*
X102677852Y-102010796D01*
X102614296Y-101981771D01*
X102607818Y-101975739D01*
X102510292Y-101878213D01*
X102510288Y-101878210D01*
X102379185Y-101790609D01*
X102379172Y-101790602D01*
X102233501Y-101730264D01*
X102233489Y-101730261D01*
X102078845Y-101699500D01*
X102078842Y-101699500D01*
X101921158Y-101699500D01*
X101921155Y-101699500D01*
X101766510Y-101730261D01*
X101766498Y-101730264D01*
X101620827Y-101790602D01*
X101620814Y-101790609D01*
X101489125Y-101878602D01*
X101422447Y-101899480D01*
X101420234Y-101899500D01*
X99640098Y-101899500D01*
X99573059Y-101879815D01*
X99552417Y-101863181D01*
X98976819Y-101287583D01*
X98943334Y-101226260D01*
X98940500Y-101199902D01*
X98940500Y-92729601D01*
X98960185Y-92662562D01*
X99008206Y-92619116D01*
X99021610Y-92612287D01*
X99187219Y-92491966D01*
X99331966Y-92347219D01*
X99331968Y-92347215D01*
X99331971Y-92347213D01*
X99452284Y-92181614D01*
X99452285Y-92181613D01*
X99452287Y-92181610D01*
X99499516Y-92088917D01*
X99547489Y-92038123D01*
X99615310Y-92021328D01*
X99681445Y-92043865D01*
X99720483Y-92088917D01*
X99744035Y-92135139D01*
X99767715Y-92181614D01*
X99888028Y-92347213D01*
X100032786Y-92491971D01*
X100187749Y-92604556D01*
X100198390Y-92612287D01*
X100294813Y-92661417D01*
X100380776Y-92705218D01*
X100380778Y-92705218D01*
X100380781Y-92705220D01*
X100455818Y-92729601D01*
X100575465Y-92768477D01*
X100676557Y-92784488D01*
X100777648Y-92800500D01*
X100777649Y-92800500D01*
X100982351Y-92800500D01*
X100982352Y-92800500D01*
X101184534Y-92768477D01*
X101379219Y-92705220D01*
X101561610Y-92612287D01*
X101689348Y-92519481D01*
X101727213Y-92491971D01*
X101727215Y-92491968D01*
X101727219Y-92491966D01*
X101871966Y-92347219D01*
X101871968Y-92347215D01*
X101871971Y-92347213D01*
X101992284Y-92181614D01*
X101992285Y-92181613D01*
X101992287Y-92181610D01*
X102039516Y-92088917D01*
X102087489Y-92038123D01*
X102155310Y-92021328D01*
X102221445Y-92043865D01*
G37*
%TD.AperFunction*%
%TA.AperFunction,Conductor*%
G36*
X109846945Y-92033071D02*
G01*
X109890397Y-92087786D01*
X109899500Y-92134420D01*
X109899500Y-100413330D01*
X109899499Y-100413348D01*
X109899499Y-100579054D01*
X109899498Y-100579054D01*
X109940423Y-100731787D01*
X109949910Y-100748217D01*
X109949909Y-100748217D01*
X109949911Y-100748219D01*
X110019475Y-100868709D01*
X110019481Y-100868717D01*
X110138349Y-100987585D01*
X110138355Y-100987590D01*
X110665425Y-101514660D01*
X110698910Y-101575983D01*
X110699361Y-101578149D01*
X110730261Y-101733491D01*
X110732031Y-101739324D01*
X110729279Y-101740158D01*
X110735503Y-101797359D01*
X110704309Y-101859878D01*
X110644266Y-101895608D01*
X110613445Y-101899500D01*
X105917848Y-101899500D01*
X105850809Y-101879815D01*
X105805054Y-101827011D01*
X105796231Y-101799692D01*
X105769738Y-101666508D01*
X105769737Y-101666507D01*
X105769737Y-101666503D01*
X105761520Y-101646666D01*
X105709397Y-101520827D01*
X105709390Y-101520814D01*
X105621789Y-101389711D01*
X105621786Y-101389707D01*
X105510292Y-101278213D01*
X105510288Y-101278210D01*
X105379185Y-101190609D01*
X105379172Y-101190602D01*
X105233501Y-101130264D01*
X105233492Y-101130261D01*
X105220307Y-101127639D01*
X105158397Y-101095253D01*
X105123823Y-101034537D01*
X105120500Y-101006022D01*
X105120500Y-92734187D01*
X105140185Y-92667148D01*
X105192989Y-92621393D01*
X105262147Y-92611449D01*
X105300795Y-92623703D01*
X105460771Y-92705216D01*
X105460776Y-92705217D01*
X105460781Y-92705220D01*
X105595824Y-92749098D01*
X105655465Y-92768477D01*
X105756557Y-92784488D01*
X105857648Y-92800500D01*
X105857649Y-92800500D01*
X106062351Y-92800500D01*
X106062352Y-92800500D01*
X106264534Y-92768477D01*
X106459219Y-92705220D01*
X106641610Y-92612287D01*
X106769348Y-92519481D01*
X106807213Y-92491971D01*
X106807215Y-92491968D01*
X106807219Y-92491966D01*
X106951966Y-92347219D01*
X106951968Y-92347215D01*
X106951971Y-92347213D01*
X107072284Y-92181614D01*
X107072285Y-92181613D01*
X107072287Y-92181610D01*
X107119516Y-92088917D01*
X107167489Y-92038123D01*
X107235310Y-92021328D01*
X107301445Y-92043865D01*
X107340483Y-92088917D01*
X107364035Y-92135139D01*
X107387715Y-92181614D01*
X107508028Y-92347213D01*
X107652786Y-92491971D01*
X107807749Y-92604556D01*
X107818390Y-92612287D01*
X107914813Y-92661417D01*
X108000776Y-92705218D01*
X108000778Y-92705218D01*
X108000781Y-92705220D01*
X108075818Y-92729601D01*
X108195465Y-92768477D01*
X108296557Y-92784488D01*
X108397648Y-92800500D01*
X108397649Y-92800500D01*
X108602351Y-92800500D01*
X108602352Y-92800500D01*
X108804534Y-92768477D01*
X108999219Y-92705220D01*
X109181610Y-92612287D01*
X109309348Y-92519481D01*
X109347213Y-92491971D01*
X109347215Y-92491968D01*
X109347219Y-92491966D01*
X109491966Y-92347219D01*
X109491968Y-92347215D01*
X109491971Y-92347213D01*
X109612284Y-92181614D01*
X109612285Y-92181613D01*
X109612287Y-92181610D01*
X109665015Y-92078124D01*
X109712989Y-92027329D01*
X109780810Y-92010534D01*
X109846945Y-92033071D01*
G37*
%TD.AperFunction*%
%TA.AperFunction,Conductor*%
G36*
X111305703Y-92655385D02*
G01*
X111312181Y-92661417D01*
X111631284Y-92980520D01*
X111631286Y-92980521D01*
X111631290Y-92980524D01*
X111768209Y-93059573D01*
X111768216Y-93059577D01*
X111920943Y-93100501D01*
X111920945Y-93100501D01*
X112086654Y-93100501D01*
X112086670Y-93100500D01*
X114420234Y-93100500D01*
X114487273Y-93120185D01*
X114489125Y-93121398D01*
X114620814Y-93209390D01*
X114620827Y-93209397D01*
X114766498Y-93269735D01*
X114766503Y-93269737D01*
X114921153Y-93300499D01*
X114921156Y-93300500D01*
X114921158Y-93300500D01*
X115078844Y-93300500D01*
X115078845Y-93300499D01*
X115233497Y-93269737D01*
X115379179Y-93209394D01*
X115510289Y-93121789D01*
X115621789Y-93010289D01*
X115672397Y-92934549D01*
X115726009Y-92889744D01*
X115795334Y-92881037D01*
X115858361Y-92911191D01*
X115895081Y-92970634D01*
X115899499Y-93003440D01*
X115899499Y-93079054D01*
X115899498Y-93079054D01*
X115914976Y-93136819D01*
X115940423Y-93231785D01*
X115962335Y-93269737D01*
X116019479Y-93368714D01*
X116019481Y-93368717D01*
X116138349Y-93487585D01*
X116138355Y-93487590D01*
X118183181Y-95532416D01*
X118216666Y-95593739D01*
X118219500Y-95620097D01*
X118219500Y-96888522D01*
X118199815Y-96955561D01*
X118147011Y-97001316D01*
X118077853Y-97011260D01*
X118026610Y-96991625D01*
X117912788Y-96915572D01*
X117912780Y-96915568D01*
X117790000Y-96864710D01*
X117790000Y-100097619D01*
X117780561Y-100145071D01*
X117730264Y-100266498D01*
X117730261Y-100266510D01*
X117699500Y-100421153D01*
X117699500Y-100578846D01*
X117730261Y-100733489D01*
X117730264Y-100733501D01*
X117790602Y-100879172D01*
X117790609Y-100879185D01*
X117878210Y-101010288D01*
X117878213Y-101010292D01*
X117989707Y-101121786D01*
X117989711Y-101121789D01*
X118120814Y-101209390D01*
X118120827Y-101209397D01*
X118230282Y-101254734D01*
X118266503Y-101269737D01*
X118421153Y-101300499D01*
X118421156Y-101300500D01*
X118421158Y-101300500D01*
X118578844Y-101300500D01*
X118578845Y-101300499D01*
X118733497Y-101269737D01*
X118879179Y-101209394D01*
X118909238Y-101189309D01*
X119010875Y-101121398D01*
X119077553Y-101100520D01*
X119079766Y-101100500D01*
X122290474Y-101100500D01*
X122290490Y-101100501D01*
X122298086Y-101100501D01*
X122456197Y-101100501D01*
X122456200Y-101100501D01*
X122608928Y-101059577D01*
X122678376Y-101019481D01*
X122745859Y-100980520D01*
X122857663Y-100868716D01*
X122857663Y-100868714D01*
X122867867Y-100858511D01*
X122867870Y-100858506D01*
X123077820Y-100648557D01*
X123139142Y-100615073D01*
X123208834Y-100620057D01*
X123264767Y-100661929D01*
X123289184Y-100727393D01*
X123289500Y-100736239D01*
X123289500Y-101775500D01*
X123269815Y-101842539D01*
X123217011Y-101888294D01*
X123165500Y-101899500D01*
X112386555Y-101899500D01*
X112319516Y-101879815D01*
X112273761Y-101827011D01*
X112263817Y-101757853D01*
X112268840Y-101739588D01*
X112267969Y-101739324D01*
X112269731Y-101733509D01*
X112269737Y-101733497D01*
X112300500Y-101578842D01*
X112300500Y-101421158D01*
X112300500Y-101421155D01*
X112300499Y-101421153D01*
X112273930Y-101287583D01*
X112269737Y-101266503D01*
X112238298Y-101190602D01*
X112209397Y-101120827D01*
X112209390Y-101120814D01*
X112121789Y-100989711D01*
X112121786Y-100989707D01*
X112010292Y-100878213D01*
X112010288Y-100878210D01*
X111879185Y-100790609D01*
X111879172Y-100790602D01*
X111733501Y-100730264D01*
X111733491Y-100730261D01*
X111578151Y-100699362D01*
X111516241Y-100666977D01*
X111514662Y-100665426D01*
X111136819Y-100287583D01*
X111103334Y-100226260D01*
X111100500Y-100199902D01*
X111100500Y-99504564D01*
X112942499Y-99504564D01*
X112972762Y-99656699D01*
X112972765Y-99656709D01*
X113032125Y-99800019D01*
X113032127Y-99800023D01*
X113118305Y-99928997D01*
X113118311Y-99929005D01*
X113227994Y-100038688D01*
X113228002Y-100038694D01*
X113356976Y-100124872D01*
X113356980Y-100124874D01*
X113449026Y-100163000D01*
X113500295Y-100184236D01*
X113500299Y-100184236D01*
X113500300Y-100184237D01*
X113652435Y-100214500D01*
X113652438Y-100214500D01*
X113807564Y-100214500D01*
X113909915Y-100194140D01*
X113959705Y-100184236D01*
X114085243Y-100132237D01*
X114103019Y-100124874D01*
X114103023Y-100124872D01*
X114167078Y-100082071D01*
X114232002Y-100038691D01*
X114242643Y-100028050D01*
X114277319Y-99993375D01*
X114338642Y-99959890D01*
X114408334Y-99964874D01*
X114452681Y-99993375D01*
X114497994Y-100038688D01*
X114498002Y-100038694D01*
X114626976Y-100124872D01*
X114626980Y-100124874D01*
X114719026Y-100163000D01*
X114770295Y-100184236D01*
X114770299Y-100184236D01*
X114770300Y-100184237D01*
X114922435Y-100214500D01*
X114922438Y-100214500D01*
X115077564Y-100214500D01*
X115179915Y-100194140D01*
X115229705Y-100184236D01*
X115355243Y-100132237D01*
X115373019Y-100124874D01*
X115373023Y-100124872D01*
X115437078Y-100082071D01*
X115502002Y-100038691D01*
X115512643Y-100028050D01*
X115547319Y-99993375D01*
X115608642Y-99959890D01*
X115678334Y-99964874D01*
X115722681Y-99993375D01*
X115767994Y-100038688D01*
X115768002Y-100038694D01*
X115896976Y-100124872D01*
X115896980Y-100124874D01*
X115989026Y-100163000D01*
X116040295Y-100184236D01*
X116040299Y-100184236D01*
X116040300Y-100184237D01*
X116192435Y-100214500D01*
X116192438Y-100214500D01*
X116347564Y-100214500D01*
X116449915Y-100194140D01*
X116499705Y-100184236D01*
X116625243Y-100132237D01*
X116643019Y-100124874D01*
X116643023Y-100124872D01*
X116707078Y-100082071D01*
X116772002Y-100038691D01*
X116817671Y-99993022D01*
X116878994Y-99959536D01*
X116948685Y-99964520D01*
X116993034Y-99993021D01*
X117038314Y-100038301D01*
X117167217Y-100124430D01*
X117289999Y-100175288D01*
X117290000Y-100175288D01*
X117290000Y-96864710D01*
X117167219Y-96915568D01*
X117167209Y-96915573D01*
X117038316Y-97001696D01*
X116993033Y-97046979D01*
X116931710Y-97080463D01*
X116862018Y-97075478D01*
X116817672Y-97046978D01*
X116772005Y-97001311D01*
X116771997Y-97001305D01*
X116643023Y-96915127D01*
X116643019Y-96915125D01*
X116499709Y-96855765D01*
X116499699Y-96855762D01*
X116347564Y-96825500D01*
X116347562Y-96825500D01*
X116192438Y-96825500D01*
X116192436Y-96825500D01*
X116040300Y-96855762D01*
X116040290Y-96855765D01*
X115896980Y-96915125D01*
X115896976Y-96915127D01*
X115768002Y-97001305D01*
X115767994Y-97001311D01*
X115722681Y-97046625D01*
X115661358Y-97080110D01*
X115591666Y-97075126D01*
X115547319Y-97046625D01*
X115502005Y-97001311D01*
X115501997Y-97001305D01*
X115367956Y-96911742D01*
X115368763Y-96910532D01*
X115324097Y-96866659D01*
X115308635Y-96798522D01*
X115317832Y-96758807D01*
X115369737Y-96633497D01*
X115400500Y-96478842D01*
X115400500Y-96321158D01*
X115400500Y-96321155D01*
X115400499Y-96321153D01*
X115398719Y-96312202D01*
X115369737Y-96166503D01*
X115362334Y-96148631D01*
X115309397Y-96020827D01*
X115309390Y-96020814D01*
X115221789Y-95889711D01*
X115221786Y-95889707D01*
X115110292Y-95778213D01*
X115110288Y-95778210D01*
X114979185Y-95690609D01*
X114979172Y-95690602D01*
X114833501Y-95630264D01*
X114833489Y-95630261D01*
X114678845Y-95599500D01*
X114678842Y-95599500D01*
X114521158Y-95599500D01*
X114521155Y-95599500D01*
X114366510Y-95630261D01*
X114366498Y-95630264D01*
X114220827Y-95690602D01*
X114220814Y-95690609D01*
X114089711Y-95778210D01*
X114089707Y-95778213D01*
X113978213Y-95889707D01*
X113978210Y-95889711D01*
X113890609Y-96020814D01*
X113890604Y-96020823D01*
X113830809Y-96165184D01*
X113803929Y-96205412D01*
X113185887Y-96823454D01*
X113153245Y-96872308D01*
X113120749Y-96920942D01*
X113112054Y-96933954D01*
X113109222Y-96938193D01*
X113056421Y-97065667D01*
X113056418Y-97065677D01*
X113029500Y-97201004D01*
X113029500Y-97221656D01*
X113020061Y-97269108D01*
X112972765Y-97383290D01*
X112972762Y-97383300D01*
X112942500Y-97535435D01*
X112942500Y-97535438D01*
X112942500Y-99504562D01*
X112942500Y-99504564D01*
X112942499Y-99504564D01*
X111100500Y-99504564D01*
X111100500Y-92749098D01*
X111120185Y-92682059D01*
X111172989Y-92636304D01*
X111242147Y-92626360D01*
X111305703Y-92655385D01*
G37*
%TD.AperFunction*%
%TA.AperFunction,Conductor*%
G36*
X102221445Y-70543865D02*
G01*
X102260485Y-70588919D01*
X102307715Y-70681614D01*
X102428028Y-70847213D01*
X102428034Y-70847219D01*
X102572781Y-70991966D01*
X102738390Y-71112287D01*
X102751793Y-71119116D01*
X102802589Y-71167088D01*
X102819500Y-71229601D01*
X102819500Y-71833330D01*
X102819499Y-71833348D01*
X102819499Y-71999054D01*
X102819498Y-71999054D01*
X102860423Y-72151785D01*
X102889358Y-72201900D01*
X102889359Y-72201904D01*
X102889360Y-72201904D01*
X102939479Y-72288714D01*
X102939481Y-72288717D01*
X103058349Y-72407585D01*
X103058355Y-72407590D01*
X104515139Y-73864374D01*
X104515149Y-73864385D01*
X104519479Y-73868715D01*
X104519480Y-73868716D01*
X104631284Y-73980520D01*
X104631286Y-73980521D01*
X104631290Y-73980524D01*
X104768209Y-74059573D01*
X104768216Y-74059577D01*
X104880019Y-74089534D01*
X104920942Y-74100500D01*
X104920943Y-74100500D01*
X106582152Y-74100500D01*
X106649191Y-74120185D01*
X106694946Y-74172989D01*
X106703769Y-74200308D01*
X106730261Y-74333491D01*
X106730264Y-74333501D01*
X106790602Y-74479172D01*
X106790609Y-74479185D01*
X106878210Y-74610288D01*
X106878213Y-74610292D01*
X106989707Y-74721786D01*
X106989711Y-74721789D01*
X107120814Y-74809390D01*
X107120827Y-74809397D01*
X107266498Y-74869735D01*
X107266503Y-74869737D01*
X107421153Y-74900499D01*
X107421156Y-74900500D01*
X107421158Y-74900500D01*
X107578844Y-74900500D01*
X107578845Y-74900499D01*
X107733497Y-74869737D01*
X107879179Y-74809394D01*
X107907303Y-74790602D01*
X108010875Y-74721398D01*
X108077553Y-74700520D01*
X108079766Y-74700500D01*
X115299903Y-74700500D01*
X115366942Y-74720185D01*
X115387584Y-74736819D01*
X115863181Y-75212416D01*
X115896666Y-75273739D01*
X115899500Y-75300097D01*
X115899500Y-91996560D01*
X115879815Y-92063599D01*
X115827011Y-92109354D01*
X115757853Y-92119298D01*
X115694297Y-92090273D01*
X115672398Y-92065451D01*
X115621789Y-91989711D01*
X115621786Y-91989707D01*
X115510292Y-91878213D01*
X115510288Y-91878210D01*
X115379185Y-91790609D01*
X115379172Y-91790602D01*
X115233501Y-91730264D01*
X115233489Y-91730261D01*
X115078845Y-91699500D01*
X115078842Y-91699500D01*
X114921158Y-91699500D01*
X114921155Y-91699500D01*
X114766510Y-91730261D01*
X114766498Y-91730264D01*
X114620827Y-91790602D01*
X114620814Y-91790609D01*
X114489125Y-91878602D01*
X114422447Y-91899480D01*
X114420234Y-91899500D01*
X112300098Y-91899500D01*
X112233059Y-91879815D01*
X112212417Y-91863181D01*
X112136819Y-91787583D01*
X112103334Y-91726260D01*
X112100500Y-91699902D01*
X112100500Y-83920943D01*
X112095933Y-83903901D01*
X112095932Y-83903895D01*
X112086506Y-83868716D01*
X112059577Y-83768216D01*
X112008522Y-83679785D01*
X111980524Y-83631290D01*
X111980521Y-83631286D01*
X111980520Y-83631284D01*
X111868716Y-83519480D01*
X111868715Y-83519479D01*
X111864385Y-83515149D01*
X111864374Y-83515139D01*
X110487590Y-82138355D01*
X110487588Y-82138352D01*
X110368717Y-82019481D01*
X110368716Y-82019480D01*
X110281904Y-81969360D01*
X110281904Y-81969359D01*
X110281900Y-81969358D01*
X110231785Y-81940423D01*
X110079057Y-81899499D01*
X109920943Y-81899499D01*
X109913347Y-81899499D01*
X109913331Y-81899500D01*
X97800097Y-81899500D01*
X97733058Y-81879815D01*
X97712416Y-81863181D01*
X96436819Y-80587584D01*
X96403334Y-80526261D01*
X96400500Y-80499903D01*
X96400500Y-71229601D01*
X96420185Y-71162562D01*
X96468206Y-71119116D01*
X96481610Y-71112287D01*
X96647219Y-70991966D01*
X96791966Y-70847219D01*
X96791968Y-70847215D01*
X96791971Y-70847213D01*
X96912284Y-70681614D01*
X96912285Y-70681613D01*
X96912287Y-70681610D01*
X96959516Y-70588917D01*
X97007489Y-70538123D01*
X97075310Y-70521328D01*
X97141445Y-70543865D01*
X97180485Y-70588919D01*
X97227715Y-70681614D01*
X97348028Y-70847213D01*
X97492786Y-70991971D01*
X97647749Y-71104556D01*
X97658390Y-71112287D01*
X97765943Y-71167088D01*
X97840776Y-71205218D01*
X97840778Y-71205218D01*
X97840781Y-71205220D01*
X97915818Y-71229601D01*
X98035465Y-71268477D01*
X98136557Y-71284488D01*
X98237648Y-71300500D01*
X98237649Y-71300500D01*
X98442351Y-71300500D01*
X98442352Y-71300500D01*
X98644534Y-71268477D01*
X98839219Y-71205220D01*
X99021610Y-71112287D01*
X99118446Y-71041932D01*
X99187213Y-70991971D01*
X99187215Y-70991968D01*
X99187219Y-70991966D01*
X99331966Y-70847219D01*
X99331968Y-70847215D01*
X99331971Y-70847213D01*
X99452284Y-70681614D01*
X99452285Y-70681613D01*
X99452287Y-70681610D01*
X99499516Y-70588917D01*
X99547489Y-70538123D01*
X99615310Y-70521328D01*
X99681445Y-70543865D01*
X99720485Y-70588919D01*
X99767715Y-70681614D01*
X99888028Y-70847213D01*
X100032786Y-70991971D01*
X100187749Y-71104556D01*
X100198390Y-71112287D01*
X100305943Y-71167088D01*
X100380776Y-71205218D01*
X100380778Y-71205218D01*
X100380781Y-71205220D01*
X100455818Y-71229601D01*
X100575465Y-71268477D01*
X100676557Y-71284488D01*
X100777648Y-71300500D01*
X100777649Y-71300500D01*
X100982351Y-71300500D01*
X100982352Y-71300500D01*
X101184534Y-71268477D01*
X101379219Y-71205220D01*
X101561610Y-71112287D01*
X101658446Y-71041932D01*
X101727213Y-70991971D01*
X101727215Y-70991968D01*
X101727219Y-70991966D01*
X101871966Y-70847219D01*
X101871968Y-70847215D01*
X101871971Y-70847213D01*
X101992284Y-70681614D01*
X101992285Y-70681613D01*
X101992287Y-70681610D01*
X102039516Y-70588917D01*
X102087489Y-70538123D01*
X102155310Y-70521328D01*
X102221445Y-70543865D01*
G37*
%TD.AperFunction*%
%TA.AperFunction,Conductor*%
G36*
X109505703Y-85855384D02*
G01*
X109512181Y-85861416D01*
X109863181Y-86212416D01*
X109896666Y-86273739D01*
X109899500Y-86300097D01*
X109899500Y-90865579D01*
X109879815Y-90932618D01*
X109827011Y-90978373D01*
X109757853Y-90988317D01*
X109694297Y-90959292D01*
X109665015Y-90921874D01*
X109653614Y-90899499D01*
X109612287Y-90818390D01*
X109592098Y-90790602D01*
X109491971Y-90652786D01*
X109347213Y-90508028D01*
X109181610Y-90387712D01*
X109168200Y-90380879D01*
X109117406Y-90332903D01*
X109100500Y-90270397D01*
X109100500Y-86579765D01*
X109120185Y-86512726D01*
X109121398Y-86510874D01*
X109209390Y-86379185D01*
X109209390Y-86379184D01*
X109209394Y-86379179D01*
X109269737Y-86233497D01*
X109300500Y-86078842D01*
X109300500Y-85949097D01*
X109320185Y-85882058D01*
X109372989Y-85836303D01*
X109442147Y-85826359D01*
X109505703Y-85855384D01*
G37*
%TD.AperFunction*%
%TA.AperFunction,Conductor*%
G36*
X108063600Y-85120185D02*
G01*
X108109355Y-85172989D01*
X108119299Y-85242147D01*
X108090274Y-85305703D01*
X108065452Y-85327602D01*
X107989711Y-85378210D01*
X107989707Y-85378213D01*
X107878213Y-85489707D01*
X107878210Y-85489711D01*
X107790609Y-85620814D01*
X107790602Y-85620827D01*
X107730264Y-85766498D01*
X107730261Y-85766510D01*
X107699500Y-85921153D01*
X107699500Y-86078846D01*
X107730261Y-86233489D01*
X107730264Y-86233501D01*
X107790602Y-86379172D01*
X107790609Y-86379185D01*
X107878602Y-86510874D01*
X107899480Y-86577551D01*
X107899500Y-86579765D01*
X107899500Y-90270397D01*
X107879815Y-90337436D01*
X107831800Y-90380879D01*
X107818389Y-90387712D01*
X107652786Y-90508028D01*
X107508028Y-90652786D01*
X107387715Y-90818386D01*
X107340485Y-90911080D01*
X107292510Y-90961876D01*
X107224689Y-90978671D01*
X107158554Y-90956134D01*
X107119515Y-90911080D01*
X107113614Y-90899499D01*
X107072287Y-90818390D01*
X107052098Y-90790602D01*
X106951971Y-90652786D01*
X106807213Y-90508028D01*
X106641613Y-90387715D01*
X106641612Y-90387714D01*
X106641610Y-90387713D01*
X106584653Y-90358691D01*
X106459223Y-90294781D01*
X106264534Y-90231522D01*
X106089995Y-90203878D01*
X106062352Y-90199500D01*
X105857648Y-90199500D01*
X105833329Y-90203351D01*
X105655465Y-90231522D01*
X105460776Y-90294781D01*
X105300795Y-90376297D01*
X105232126Y-90389193D01*
X105167385Y-90362917D01*
X105127128Y-90305810D01*
X105120500Y-90265812D01*
X105120500Y-86474187D01*
X105140185Y-86407148D01*
X105192989Y-86361393D01*
X105262147Y-86351449D01*
X105300795Y-86363703D01*
X105460771Y-86445216D01*
X105460776Y-86445217D01*
X105460781Y-86445220D01*
X105568888Y-86480346D01*
X105655465Y-86508477D01*
X105756557Y-86524488D01*
X105857648Y-86540500D01*
X105857649Y-86540500D01*
X106062351Y-86540500D01*
X106062352Y-86540500D01*
X106264534Y-86508477D01*
X106459219Y-86445220D01*
X106641610Y-86352287D01*
X106749723Y-86273739D01*
X106807213Y-86231971D01*
X106807215Y-86231968D01*
X106807219Y-86231966D01*
X106951966Y-86087219D01*
X106951968Y-86087215D01*
X106951971Y-86087213D01*
X107004732Y-86014590D01*
X107072287Y-85921610D01*
X107165220Y-85739219D01*
X107228477Y-85544534D01*
X107260500Y-85342352D01*
X107260500Y-85224500D01*
X107280185Y-85157461D01*
X107332989Y-85111706D01*
X107384500Y-85100500D01*
X107996561Y-85100500D01*
X108063600Y-85120185D01*
G37*
%TD.AperFunction*%
%TD*%
M02*
