%TF.GenerationSoftware,KiCad,Pcbnew,10.0.6*%
%TF.CreationDate,2026-10-08T20:53:08+08:00*%
%TF.ProjectId,keyboard,6b657962-6f61-4726-942e-6b696361645f,rev?*%
%TF.SameCoordinates,Original*%
%TF.FileFunction,Soldermask,Bot*%
%TF.FilePolarity,Negative*%
%FSLAX46Y46*%
G04 Gerber Fmt 4.6, Leading zero omitted, Abs format (unit mm)*
G04 Created by KiCad (PCBNEW 10.0.6) date 2026-10-08 20:53:08*
%MOMM*%
%LPD*%
G01*
G04 APERTURE LIST*
G04 Aperture macros list*
%AMRoundRect*
0 Rectangle with rounded corners*
0 $1 Rounding radius*
0 $2 $3 $4 $5 $6 $7 $8 $9 X,Y pos of 4 corners*
0 Add a 4 corners polygon primitive as box body*
4,1,4,$2,$3,$4,$5,$6,$7,$8,$9,$2,$3,0*
0 Add four circle primitives for the rounded corners*
1,1,$1+$1,$2,$3*
1,1,$1+$1,$4,$5*
1,1,$1+$1,$6,$7*
1,1,$1+$1,$8,$9*
0 Add four rect primitives between the rounded corners*
20,1,$1+$1,$2,$3,$4,$5,0*
20,1,$1+$1,$4,$5,$6,$7,0*
20,1,$1+$1,$6,$7,$8,$9,0*
20,1,$1+$1,$8,$9,$2,$3,0*%
G04 Aperture macros list end*
%ADD10C,1.600000*%
%ADD11C,3.200000*%
%ADD12C,2.000000*%
%ADD13O,0.574000X2.388000*%
%ADD14RoundRect,0.250000X0.550000X-1.500000X0.550000X1.500000X-0.550000X1.500000X-0.550000X-1.500000X0*%
G04 APERTURE END LIST*
D10*
%TO.C,LED2*%
X95800000Y-85240000D03*
X98340000Y-85240000D03*
X100880000Y-85240000D03*
X103420000Y-85240000D03*
X105960000Y-85240000D03*
X108500000Y-70000000D03*
X105960000Y-70000000D03*
X103420000Y-70000000D03*
X100880000Y-70000000D03*
X98340000Y-70000000D03*
X95800000Y-70000000D03*
%TD*%
D11*
%TO.C,*%
X78500000Y-104500000D03*
%TD*%
%TO.C,*%
X163500000Y-69500000D03*
%TD*%
%TO.C,*%
X210500000Y-84500000D03*
%TD*%
%TO.C,*%
X163500000Y-104500000D03*
%TD*%
D10*
%TO.C,LED1*%
X95800000Y-106740000D03*
X98340000Y-106740000D03*
X100880000Y-106740000D03*
X103420000Y-106740000D03*
X105960000Y-106740000D03*
X108500000Y-91500000D03*
X105960000Y-91500000D03*
X103420000Y-91500000D03*
X100880000Y-91500000D03*
X98340000Y-91500000D03*
X95800000Y-91500000D03*
%TD*%
D11*
%TO.C,*%
X78500000Y-69500000D03*
%TD*%
D12*
%TO.C,TP1*%
X144500000Y-96500000D03*
%TD*%
%TO.C,TP2*%
X148575000Y-96500000D03*
%TD*%
%TO.C,TP3*%
X152625000Y-96500000D03*
%TD*%
D13*
%TO.C,U1*%
X130240000Y-108000000D03*
X128980000Y-108000000D03*
X127710000Y-108000000D03*
X126440000Y-108000000D03*
X125160000Y-108000000D03*
X123890000Y-108000000D03*
X122620000Y-108000000D03*
X121360000Y-108000000D03*
X120090000Y-108000000D03*
X118820000Y-108000000D03*
X117540000Y-108000000D03*
X116270000Y-108000000D03*
X115000000Y-108000000D03*
X113730000Y-108000000D03*
X113730000Y-98520000D03*
X115000000Y-98520000D03*
X116270000Y-98520000D03*
X117540000Y-98520000D03*
X118820000Y-98520000D03*
X120090000Y-98520000D03*
X121360000Y-98520000D03*
X122620000Y-98520000D03*
X123890000Y-98520000D03*
X125160000Y-98520000D03*
X126440000Y-98520000D03*
X127710000Y-98520000D03*
X128980000Y-98520000D03*
X130240000Y-98520000D03*
%TD*%
D12*
%TO.C,TP4*%
X156500000Y-96525000D03*
%TD*%
D14*
%TO.C,C4*%
X135000000Y-107800000D03*
X135000000Y-102400000D03*
%TD*%
M02*
