%TF.GenerationSoftware,KiCad,Pcbnew,10.0.6*%
%TF.CreationDate,2026-10-08T20:53:08+08:00*%
%TF.ProjectId,keyboard,6b657962-6f61-4726-942e-6b696361645f,rev?*%
%TF.SameCoordinates,Original*%
%TF.FileFunction,Profile,NP*%
%FSLAX46Y46*%
G04 Gerber Fmt 4.6, Leading zero omitted, Abs format (unit mm)*
G04 Created by KiCad (PCBNEW 10.0.6) date 2026-10-08 20:53:08*
%MOMM*%
%LPD*%
G01*
G04 APERTURE LIST*
%TA.AperFunction,Profile*%
%ADD10C,0.100000*%
%TD*%
G04 APERTURE END LIST*
D10*
X73750000Y-67757655D02*
X73750000Y-109492345D01*
X73750000Y-67757655D02*
G75*
G02*
X73750059Y-67742346I2020200J-145D01*
G01*
X73750059Y-109507654D02*
G75*
G02*
X73750000Y-109492345I2020141J15454D01*
G01*
X73750059Y-109507654D02*
X73750481Y-109562837D01*
X73750481Y-67687163D02*
X73750059Y-67742346D01*
X73750481Y-109562837D02*
X73754425Y-109625528D01*
X73754425Y-67624472D02*
X73750481Y-67687163D01*
X73754425Y-67624472D02*
G75*
G02*
X73766251Y-67499372I1995475J-125528D01*
G01*
X73766251Y-109750628D02*
G75*
G02*
X73754425Y-109625528I1983649J250628D01*
G01*
X73766251Y-109750628D02*
X73774124Y-109812948D01*
X73774124Y-67437052D02*
X73766251Y-67499372D01*
X73774124Y-109812948D02*
X73785895Y-109874656D01*
X73785895Y-67375344D02*
X73774124Y-67437052D01*
X73785895Y-67375344D02*
G75*
G02*
X73813304Y-67252723I1961905J-374156D01*
G01*
X73813304Y-109997277D02*
G75*
G02*
X73785894Y-109874656I1938396J497677D01*
G01*
X73813304Y-109997277D02*
X73828927Y-110058123D01*
X73828927Y-67191877D02*
X73813304Y-67252723D01*
X73828927Y-110058123D02*
X73867762Y-110177647D01*
X73867762Y-67072353D02*
X73828927Y-67191877D01*
X73867762Y-110177647D02*
X73890887Y-110236055D01*
X73890887Y-67013945D02*
X73867762Y-67072353D01*
X73890887Y-67013945D02*
G75*
G02*
X73940792Y-66898630I1859213J-736155D01*
G01*
X73940789Y-110351371D02*
G75*
G02*
X73890888Y-110236055I1806911J850371D01*
G01*
X73940789Y-110351371D02*
X73967536Y-110408211D01*
X73967536Y-66841789D02*
X73940789Y-66898629D01*
X73967536Y-110408211D02*
X74028080Y-110518340D01*
X73997801Y-66786737D02*
X73967536Y-66841789D01*
X73997801Y-66786737D02*
G75*
G02*
X74061756Y-66678591I1750899J-962463D01*
G01*
X74028080Y-110518340D02*
X74061741Y-110571381D01*
X74095420Y-66625549D02*
X74061758Y-66678592D01*
X74132347Y-66574723D02*
X74095420Y-66625549D01*
X74132347Y-66574723D02*
G75*
G02*
X74209352Y-66475449I1618153J-1175677D01*
G01*
X74132365Y-110675301D02*
G75*
G02*
X74061740Y-110571382I1615835J1174101D01*
G01*
X74132365Y-110675301D02*
X74169290Y-110726124D01*
X74169290Y-110726124D02*
X74209332Y-110774527D01*
X74249398Y-66427042D02*
X74209352Y-66475449D01*
X74292409Y-66381241D02*
X74249398Y-66427042D01*
X74292409Y-66381241D02*
G75*
G02*
X74381241Y-66292409I1457191J-1368359D01*
G01*
X74292427Y-110868779D02*
G75*
G02*
X74209333Y-110774526I1457473J1368679D01*
G01*
X74292427Y-110868779D02*
X74335429Y-110914571D01*
X74335429Y-110914571D02*
X74427042Y-111000602D01*
X74427042Y-66249398D02*
X74381241Y-66292409D01*
X74427042Y-111000602D02*
X74475449Y-111040648D01*
X74475449Y-66209352D02*
X74427042Y-66249398D01*
X74475449Y-66209352D02*
G75*
G02*
X74574723Y-66132347I1274951J-1541148D01*
G01*
X74574723Y-111117653D02*
G75*
G02*
X74475449Y-111040648I1175677J1618153D01*
G01*
X74574723Y-111117653D02*
X74625549Y-111154580D01*
X74625549Y-66095420D02*
X74574723Y-66132347D01*
X74625549Y-111154580D02*
X74678592Y-111188242D01*
X74678592Y-66061758D02*
X74625549Y-66095420D01*
X74678592Y-66061758D02*
G75*
G02*
X74786738Y-65997802I1071508J-1688442D01*
G01*
X74786737Y-111252199D02*
G75*
G02*
X74678591Y-111188243I963363J1752399D01*
G01*
X74786737Y-111252199D02*
X74841789Y-111282464D01*
X74841789Y-65967536D02*
X74786737Y-65997801D01*
X74841789Y-111282464D02*
X74898629Y-111309211D01*
X74898629Y-65940789D02*
X74841789Y-65967536D01*
X74898629Y-65940789D02*
G75*
G02*
X75013944Y-65890884I851471J-1809311D01*
G01*
X75013945Y-111359113D02*
G75*
G02*
X74898630Y-111309208I736155J1859213D01*
G01*
X75013945Y-111359113D02*
X75072353Y-111382238D01*
X75072353Y-65867762D02*
X75013945Y-65890887D01*
X75072353Y-111382238D02*
X75191877Y-111421073D01*
X75132106Y-65848347D02*
X75072353Y-65867762D01*
X75132106Y-65848347D02*
G75*
G02*
X75252749Y-65813298I617994J-1902053D01*
G01*
X75191877Y-111421073D02*
X75252723Y-111436696D01*
X75313603Y-65797673D02*
X75252749Y-65813298D01*
X75375320Y-65785900D02*
X75313603Y-65797673D01*
X75375320Y-65785900D02*
G75*
G02*
X75499402Y-65766247I374780J-1964700D01*
G01*
X75375344Y-111464105D02*
G75*
G02*
X75252723Y-111436696I374156J1961905D01*
G01*
X75375344Y-111464105D02*
X75437052Y-111475876D01*
X75437052Y-111475876D02*
X75499372Y-111483749D01*
X75561736Y-65758372D02*
X75499402Y-65766247D01*
X75624472Y-111495575D02*
G75*
G02*
X75499372Y-111483749I125528J1995475D01*
G01*
X75624472Y-111495575D02*
X75632084Y-111496054D01*
X75632082Y-65753946D02*
X75561736Y-65758372D01*
X75632082Y-65753946D02*
G75*
G02*
X75742351Y-65750056I125618J-1996254D01*
G01*
X75742350Y-111499941D02*
G75*
G02*
X75632084Y-111496056I15350J2002641D01*
G01*
X75742350Y-111499941D02*
X75750000Y-111500000D01*
X75750000Y-65750000D02*
X75742351Y-65750059D01*
X75750000Y-111500000D02*
X165500000Y-111500000D01*
X167500000Y-102000000D02*
G75*
G02*
X169500000Y-100000000I2000000J0D01*
G01*
X167500000Y-109500000D02*
G75*
G02*
X165500000Y-111500000I-2000000J0D01*
G01*
X167500000Y-109500000D02*
X167500000Y-102000000D01*
X169500000Y-100000000D02*
X212250000Y-100000000D01*
X212246173Y-65750000D02*
X75750000Y-65750000D01*
X212246173Y-65750000D02*
G75*
G02*
X212261482Y-65750059I-173J-2020200D01*
G01*
X212316665Y-65750481D02*
X212261482Y-65750059D01*
X212442092Y-65758372D02*
X212316665Y-65750481D01*
X212504426Y-65766247D02*
X212442092Y-65758372D01*
X212504426Y-65766247D02*
G75*
G02*
X212628508Y-65785902I-250726J-1984353D01*
G01*
X212690225Y-65797673D02*
X212628508Y-65785900D01*
X212751079Y-65813298D02*
X212690225Y-65797673D01*
X212751079Y-65813298D02*
G75*
G02*
X212871721Y-65848349I-497379J-1937102D01*
G01*
X212931475Y-65867762D02*
X212871722Y-65848347D01*
X212989883Y-65890887D02*
X212931475Y-65867762D01*
X212989883Y-65890887D02*
G75*
G02*
X213105199Y-65940789I-737183J-1861713D01*
G01*
X213162039Y-65967536D02*
X213105199Y-65940789D01*
X213217091Y-65997801D02*
X213162039Y-65967536D01*
X213217091Y-65997801D02*
G75*
G02*
X213325236Y-66061758I-962491J-1750899D01*
G01*
X213378279Y-66095420D02*
X213325236Y-66061758D01*
X213429105Y-66132347D02*
X213378279Y-66095420D01*
X213429105Y-66132347D02*
G75*
G02*
X213528378Y-66209353I-1175705J-1618153D01*
G01*
X213576786Y-66249398D02*
X213528379Y-66209352D01*
X213622587Y-66292409D02*
X213576786Y-66249398D01*
X213622587Y-66292409D02*
G75*
G02*
X213711418Y-66381242I-1368387J-1457191D01*
G01*
X213754430Y-66427042D02*
X213711419Y-66381241D01*
X213794476Y-66475449D02*
X213754430Y-66427042D01*
X213794476Y-66475449D02*
G75*
G02*
X213871480Y-66574723I-1541176J-1274951D01*
G01*
X213908408Y-66625549D02*
X213871481Y-66574723D01*
X213975748Y-66731660D02*
X213908408Y-66625549D01*
X214006013Y-66786712D02*
X213975748Y-66731660D01*
X214006013Y-66786712D02*
G75*
G02*
X214063053Y-66898658I-1754713J-964588D01*
G01*
X214089802Y-66955503D02*
X214063053Y-66898658D01*
X214112927Y-67013910D02*
X214089802Y-66955503D01*
X214112927Y-67013910D02*
G75*
G02*
X214155492Y-67132132I-1864827J-738190D01*
G01*
X214174901Y-67191877D02*
X214155489Y-67132133D01*
X214190524Y-67252723D02*
X214174901Y-67191877D01*
X214190524Y-67252723D02*
G75*
G02*
X214217931Y-67375344I-1936424J-497177D01*
G01*
X214229704Y-67437052D02*
X214217933Y-67375344D01*
X214237577Y-67499372D02*
X214229704Y-67437052D01*
X214237577Y-67499372D02*
G75*
G02*
X214249403Y-67624472I-1983677J-250628D01*
G01*
X214250000Y-98000000D02*
G75*
G02*
X212250000Y-100000000I-2000000J0D01*
G01*
X214250000Y-98000000D02*
X214250000Y-67757655D01*
X214253347Y-67687163D02*
X214249403Y-67624472D01*
X214253769Y-67742346D02*
X214253347Y-67687163D01*
X214253769Y-67742346D02*
G75*
G02*
X214253828Y-67757655I-2020069J-15454D01*
G01*
M02*
