%TF.GenerationSoftware,KiCad,Pcbnew,10.0.6*%
%TF.CreationDate,2026-10-08T20:53:08+08:00*%
%TF.ProjectId,keyboard,6b657962-6f61-4726-942e-6b696361645f,rev?*%
%TF.SameCoordinates,Original*%
%TF.FileFunction,Legend,Top*%
%TF.FilePolarity,Positive*%
%FSLAX46Y46*%
G04 Gerber Fmt 4.6, Leading zero omitted, Abs format (unit mm)*
G04 Created by KiCad (PCBNEW 10.0.6) date 2026-10-08 20:53:08*
%MOMM*%
%LPD*%
G01*
G04 APERTURE LIST*
%ADD10C,0.150000*%
%ADD11C,0.120000*%
%ADD12C,0.250000*%
%ADD13C,0.300000*%
%ADD14C,0.060000*%
%ADD15C,1.000000*%
G04 APERTURE END LIST*
D10*
X205261905Y-83954819D02*
X205261905Y-82954819D01*
X205261905Y-82954819D02*
X205500000Y-82954819D01*
X205500000Y-82954819D02*
X205642857Y-83002438D01*
X205642857Y-83002438D02*
X205738095Y-83097676D01*
X205738095Y-83097676D02*
X205785714Y-83192914D01*
X205785714Y-83192914D02*
X205833333Y-83383390D01*
X205833333Y-83383390D02*
X205833333Y-83526247D01*
X205833333Y-83526247D02*
X205785714Y-83716723D01*
X205785714Y-83716723D02*
X205738095Y-83811961D01*
X205738095Y-83811961D02*
X205642857Y-83907200D01*
X205642857Y-83907200D02*
X205500000Y-83954819D01*
X205500000Y-83954819D02*
X205261905Y-83954819D01*
X206690476Y-82954819D02*
X206500000Y-82954819D01*
X206500000Y-82954819D02*
X206404762Y-83002438D01*
X206404762Y-83002438D02*
X206357143Y-83050057D01*
X206357143Y-83050057D02*
X206261905Y-83192914D01*
X206261905Y-83192914D02*
X206214286Y-83383390D01*
X206214286Y-83383390D02*
X206214286Y-83764342D01*
X206214286Y-83764342D02*
X206261905Y-83859580D01*
X206261905Y-83859580D02*
X206309524Y-83907200D01*
X206309524Y-83907200D02*
X206404762Y-83954819D01*
X206404762Y-83954819D02*
X206595238Y-83954819D01*
X206595238Y-83954819D02*
X206690476Y-83907200D01*
X206690476Y-83907200D02*
X206738095Y-83859580D01*
X206738095Y-83859580D02*
X206785714Y-83764342D01*
X206785714Y-83764342D02*
X206785714Y-83526247D01*
X206785714Y-83526247D02*
X206738095Y-83431009D01*
X206738095Y-83431009D02*
X206690476Y-83383390D01*
X206690476Y-83383390D02*
X206595238Y-83335771D01*
X206595238Y-83335771D02*
X206404762Y-83335771D01*
X206404762Y-83335771D02*
X206309524Y-83383390D01*
X206309524Y-83383390D02*
X206261905Y-83431009D01*
X206261905Y-83431009D02*
X206214286Y-83526247D01*
X159666667Y-72407200D02*
X159809524Y-72454819D01*
X159809524Y-72454819D02*
X160047619Y-72454819D01*
X160047619Y-72454819D02*
X160142857Y-72407200D01*
X160142857Y-72407200D02*
X160190476Y-72359580D01*
X160190476Y-72359580D02*
X160238095Y-72264342D01*
X160238095Y-72264342D02*
X160238095Y-72169104D01*
X160238095Y-72169104D02*
X160190476Y-72073866D01*
X160190476Y-72073866D02*
X160142857Y-72026247D01*
X160142857Y-72026247D02*
X160047619Y-71978628D01*
X160047619Y-71978628D02*
X159857143Y-71931009D01*
X159857143Y-71931009D02*
X159761905Y-71883390D01*
X159761905Y-71883390D02*
X159714286Y-71835771D01*
X159714286Y-71835771D02*
X159666667Y-71740533D01*
X159666667Y-71740533D02*
X159666667Y-71645295D01*
X159666667Y-71645295D02*
X159714286Y-71550057D01*
X159714286Y-71550057D02*
X159761905Y-71502438D01*
X159761905Y-71502438D02*
X159857143Y-71454819D01*
X159857143Y-71454819D02*
X160095238Y-71454819D01*
X160095238Y-71454819D02*
X160238095Y-71502438D01*
X160571429Y-71454819D02*
X160809524Y-72454819D01*
X160809524Y-72454819D02*
X161000000Y-71740533D01*
X161000000Y-71740533D02*
X161190476Y-72454819D01*
X161190476Y-72454819D02*
X161428572Y-71454819D01*
X161857143Y-72454819D02*
X162047619Y-72454819D01*
X162047619Y-72454819D02*
X162142857Y-72407200D01*
X162142857Y-72407200D02*
X162190476Y-72359580D01*
X162190476Y-72359580D02*
X162285714Y-72216723D01*
X162285714Y-72216723D02*
X162333333Y-72026247D01*
X162333333Y-72026247D02*
X162333333Y-71645295D01*
X162333333Y-71645295D02*
X162285714Y-71550057D01*
X162285714Y-71550057D02*
X162238095Y-71502438D01*
X162238095Y-71502438D02*
X162142857Y-71454819D01*
X162142857Y-71454819D02*
X161952381Y-71454819D01*
X161952381Y-71454819D02*
X161857143Y-71502438D01*
X161857143Y-71502438D02*
X161809524Y-71550057D01*
X161809524Y-71550057D02*
X161761905Y-71645295D01*
X161761905Y-71645295D02*
X161761905Y-71883390D01*
X161761905Y-71883390D02*
X161809524Y-71978628D01*
X161809524Y-71978628D02*
X161857143Y-72026247D01*
X161857143Y-72026247D02*
X161952381Y-72073866D01*
X161952381Y-72073866D02*
X162142857Y-72073866D01*
X162142857Y-72073866D02*
X162238095Y-72026247D01*
X162238095Y-72026247D02*
X162285714Y-71978628D01*
X162285714Y-71978628D02*
X162333333Y-71883390D01*
X174666667Y-87407200D02*
X174809524Y-87454819D01*
X174809524Y-87454819D02*
X175047619Y-87454819D01*
X175047619Y-87454819D02*
X175142857Y-87407200D01*
X175142857Y-87407200D02*
X175190476Y-87359580D01*
X175190476Y-87359580D02*
X175238095Y-87264342D01*
X175238095Y-87264342D02*
X175238095Y-87169104D01*
X175238095Y-87169104D02*
X175190476Y-87073866D01*
X175190476Y-87073866D02*
X175142857Y-87026247D01*
X175142857Y-87026247D02*
X175047619Y-86978628D01*
X175047619Y-86978628D02*
X174857143Y-86931009D01*
X174857143Y-86931009D02*
X174761905Y-86883390D01*
X174761905Y-86883390D02*
X174714286Y-86835771D01*
X174714286Y-86835771D02*
X174666667Y-86740533D01*
X174666667Y-86740533D02*
X174666667Y-86645295D01*
X174666667Y-86645295D02*
X174714286Y-86550057D01*
X174714286Y-86550057D02*
X174761905Y-86502438D01*
X174761905Y-86502438D02*
X174857143Y-86454819D01*
X174857143Y-86454819D02*
X175095238Y-86454819D01*
X175095238Y-86454819D02*
X175238095Y-86502438D01*
X175571429Y-86454819D02*
X175809524Y-87454819D01*
X175809524Y-87454819D02*
X176000000Y-86740533D01*
X176000000Y-86740533D02*
X176190476Y-87454819D01*
X176190476Y-87454819D02*
X176428572Y-86454819D01*
X177238095Y-86788152D02*
X177238095Y-87454819D01*
X177000000Y-86407200D02*
X176761905Y-87121485D01*
X176761905Y-87121485D02*
X177380952Y-87121485D01*
X132833333Y-100359580D02*
X132785714Y-100407200D01*
X132785714Y-100407200D02*
X132642857Y-100454819D01*
X132642857Y-100454819D02*
X132547619Y-100454819D01*
X132547619Y-100454819D02*
X132404762Y-100407200D01*
X132404762Y-100407200D02*
X132309524Y-100311961D01*
X132309524Y-100311961D02*
X132261905Y-100216723D01*
X132261905Y-100216723D02*
X132214286Y-100026247D01*
X132214286Y-100026247D02*
X132214286Y-99883390D01*
X132214286Y-99883390D02*
X132261905Y-99692914D01*
X132261905Y-99692914D02*
X132309524Y-99597676D01*
X132309524Y-99597676D02*
X132404762Y-99502438D01*
X132404762Y-99502438D02*
X132547619Y-99454819D01*
X132547619Y-99454819D02*
X132642857Y-99454819D01*
X132642857Y-99454819D02*
X132785714Y-99502438D01*
X132785714Y-99502438D02*
X132833333Y-99550057D01*
X133738095Y-99454819D02*
X133261905Y-99454819D01*
X133261905Y-99454819D02*
X133214286Y-99931009D01*
X133214286Y-99931009D02*
X133261905Y-99883390D01*
X133261905Y-99883390D02*
X133357143Y-99835771D01*
X133357143Y-99835771D02*
X133595238Y-99835771D01*
X133595238Y-99835771D02*
X133690476Y-99883390D01*
X133690476Y-99883390D02*
X133738095Y-99931009D01*
X133738095Y-99931009D02*
X133785714Y-100026247D01*
X133785714Y-100026247D02*
X133785714Y-100264342D01*
X133785714Y-100264342D02*
X133738095Y-100359580D01*
X133738095Y-100359580D02*
X133690476Y-100407200D01*
X133690476Y-100407200D02*
X133595238Y-100454819D01*
X133595238Y-100454819D02*
X133357143Y-100454819D01*
X133357143Y-100454819D02*
X133261905Y-100407200D01*
X133261905Y-100407200D02*
X133214286Y-100359580D01*
X130166667Y-87407200D02*
X130309524Y-87454819D01*
X130309524Y-87454819D02*
X130547619Y-87454819D01*
X130547619Y-87454819D02*
X130642857Y-87407200D01*
X130642857Y-87407200D02*
X130690476Y-87359580D01*
X130690476Y-87359580D02*
X130738095Y-87264342D01*
X130738095Y-87264342D02*
X130738095Y-87169104D01*
X130738095Y-87169104D02*
X130690476Y-87073866D01*
X130690476Y-87073866D02*
X130642857Y-87026247D01*
X130642857Y-87026247D02*
X130547619Y-86978628D01*
X130547619Y-86978628D02*
X130357143Y-86931009D01*
X130357143Y-86931009D02*
X130261905Y-86883390D01*
X130261905Y-86883390D02*
X130214286Y-86835771D01*
X130214286Y-86835771D02*
X130166667Y-86740533D01*
X130166667Y-86740533D02*
X130166667Y-86645295D01*
X130166667Y-86645295D02*
X130214286Y-86550057D01*
X130214286Y-86550057D02*
X130261905Y-86502438D01*
X130261905Y-86502438D02*
X130357143Y-86454819D01*
X130357143Y-86454819D02*
X130595238Y-86454819D01*
X130595238Y-86454819D02*
X130738095Y-86502438D01*
X131071429Y-86454819D02*
X131309524Y-87454819D01*
X131309524Y-87454819D02*
X131500000Y-86740533D01*
X131500000Y-86740533D02*
X131690476Y-87454819D01*
X131690476Y-87454819D02*
X131928572Y-86454819D01*
X132833333Y-87454819D02*
X132261905Y-87454819D01*
X132547619Y-87454819D02*
X132547619Y-86454819D01*
X132547619Y-86454819D02*
X132452381Y-86597676D01*
X132452381Y-86597676D02*
X132357143Y-86692914D01*
X132357143Y-86692914D02*
X132261905Y-86740533D01*
X204190476Y-72407200D02*
X204333333Y-72454819D01*
X204333333Y-72454819D02*
X204571428Y-72454819D01*
X204571428Y-72454819D02*
X204666666Y-72407200D01*
X204666666Y-72407200D02*
X204714285Y-72359580D01*
X204714285Y-72359580D02*
X204761904Y-72264342D01*
X204761904Y-72264342D02*
X204761904Y-72169104D01*
X204761904Y-72169104D02*
X204714285Y-72073866D01*
X204714285Y-72073866D02*
X204666666Y-72026247D01*
X204666666Y-72026247D02*
X204571428Y-71978628D01*
X204571428Y-71978628D02*
X204380952Y-71931009D01*
X204380952Y-71931009D02*
X204285714Y-71883390D01*
X204285714Y-71883390D02*
X204238095Y-71835771D01*
X204238095Y-71835771D02*
X204190476Y-71740533D01*
X204190476Y-71740533D02*
X204190476Y-71645295D01*
X204190476Y-71645295D02*
X204238095Y-71550057D01*
X204238095Y-71550057D02*
X204285714Y-71502438D01*
X204285714Y-71502438D02*
X204380952Y-71454819D01*
X204380952Y-71454819D02*
X204619047Y-71454819D01*
X204619047Y-71454819D02*
X204761904Y-71502438D01*
X205095238Y-71454819D02*
X205333333Y-72454819D01*
X205333333Y-72454819D02*
X205523809Y-71740533D01*
X205523809Y-71740533D02*
X205714285Y-72454819D01*
X205714285Y-72454819D02*
X205952381Y-71454819D01*
X206857142Y-72454819D02*
X206285714Y-72454819D01*
X206571428Y-72454819D02*
X206571428Y-71454819D01*
X206571428Y-71454819D02*
X206476190Y-71597676D01*
X206476190Y-71597676D02*
X206380952Y-71692914D01*
X206380952Y-71692914D02*
X206285714Y-71740533D01*
X207238095Y-71550057D02*
X207285714Y-71502438D01*
X207285714Y-71502438D02*
X207380952Y-71454819D01*
X207380952Y-71454819D02*
X207619047Y-71454819D01*
X207619047Y-71454819D02*
X207714285Y-71502438D01*
X207714285Y-71502438D02*
X207761904Y-71550057D01*
X207761904Y-71550057D02*
X207809523Y-71645295D01*
X207809523Y-71645295D02*
X207809523Y-71740533D01*
X207809523Y-71740533D02*
X207761904Y-71883390D01*
X207761904Y-71883390D02*
X207190476Y-72454819D01*
X207190476Y-72454819D02*
X207809523Y-72454819D01*
X205261905Y-98954819D02*
X205261905Y-97954819D01*
X205261905Y-97954819D02*
X205500000Y-97954819D01*
X205500000Y-97954819D02*
X205642857Y-98002438D01*
X205642857Y-98002438D02*
X205738095Y-98097676D01*
X205738095Y-98097676D02*
X205785714Y-98192914D01*
X205785714Y-98192914D02*
X205833333Y-98383390D01*
X205833333Y-98383390D02*
X205833333Y-98526247D01*
X205833333Y-98526247D02*
X205785714Y-98716723D01*
X205785714Y-98716723D02*
X205738095Y-98811961D01*
X205738095Y-98811961D02*
X205642857Y-98907200D01*
X205642857Y-98907200D02*
X205500000Y-98954819D01*
X205500000Y-98954819D02*
X205261905Y-98954819D01*
X206166667Y-97954819D02*
X206785714Y-97954819D01*
X206785714Y-97954819D02*
X206452381Y-98335771D01*
X206452381Y-98335771D02*
X206595238Y-98335771D01*
X206595238Y-98335771D02*
X206690476Y-98383390D01*
X206690476Y-98383390D02*
X206738095Y-98431009D01*
X206738095Y-98431009D02*
X206785714Y-98526247D01*
X206785714Y-98526247D02*
X206785714Y-98764342D01*
X206785714Y-98764342D02*
X206738095Y-98859580D01*
X206738095Y-98859580D02*
X206690476Y-98907200D01*
X206690476Y-98907200D02*
X206595238Y-98954819D01*
X206595238Y-98954819D02*
X206309524Y-98954819D01*
X206309524Y-98954819D02*
X206214286Y-98907200D01*
X206214286Y-98907200D02*
X206166667Y-98859580D01*
X144033333Y-100679819D02*
X143700000Y-100203628D01*
X143461905Y-100679819D02*
X143461905Y-99679819D01*
X143461905Y-99679819D02*
X143842857Y-99679819D01*
X143842857Y-99679819D02*
X143938095Y-99727438D01*
X143938095Y-99727438D02*
X143985714Y-99775057D01*
X143985714Y-99775057D02*
X144033333Y-99870295D01*
X144033333Y-99870295D02*
X144033333Y-100013152D01*
X144033333Y-100013152D02*
X143985714Y-100108390D01*
X143985714Y-100108390D02*
X143938095Y-100156009D01*
X143938095Y-100156009D02*
X143842857Y-100203628D01*
X143842857Y-100203628D02*
X143461905Y-100203628D01*
X144366667Y-99679819D02*
X144985714Y-99679819D01*
X144985714Y-99679819D02*
X144652381Y-100060771D01*
X144652381Y-100060771D02*
X144795238Y-100060771D01*
X144795238Y-100060771D02*
X144890476Y-100108390D01*
X144890476Y-100108390D02*
X144938095Y-100156009D01*
X144938095Y-100156009D02*
X144985714Y-100251247D01*
X144985714Y-100251247D02*
X144985714Y-100489342D01*
X144985714Y-100489342D02*
X144938095Y-100584580D01*
X144938095Y-100584580D02*
X144890476Y-100632200D01*
X144890476Y-100632200D02*
X144795238Y-100679819D01*
X144795238Y-100679819D02*
X144509524Y-100679819D01*
X144509524Y-100679819D02*
X144414286Y-100632200D01*
X144414286Y-100632200D02*
X144366667Y-100584580D01*
X175261905Y-98954819D02*
X175261905Y-97954819D01*
X175261905Y-97954819D02*
X175500000Y-97954819D01*
X175500000Y-97954819D02*
X175642857Y-98002438D01*
X175642857Y-98002438D02*
X175738095Y-98097676D01*
X175738095Y-98097676D02*
X175785714Y-98192914D01*
X175785714Y-98192914D02*
X175833333Y-98383390D01*
X175833333Y-98383390D02*
X175833333Y-98526247D01*
X175833333Y-98526247D02*
X175785714Y-98716723D01*
X175785714Y-98716723D02*
X175738095Y-98811961D01*
X175738095Y-98811961D02*
X175642857Y-98907200D01*
X175642857Y-98907200D02*
X175500000Y-98954819D01*
X175500000Y-98954819D02*
X175261905Y-98954819D01*
X176214286Y-98050057D02*
X176261905Y-98002438D01*
X176261905Y-98002438D02*
X176357143Y-97954819D01*
X176357143Y-97954819D02*
X176595238Y-97954819D01*
X176595238Y-97954819D02*
X176690476Y-98002438D01*
X176690476Y-98002438D02*
X176738095Y-98050057D01*
X176738095Y-98050057D02*
X176785714Y-98145295D01*
X176785714Y-98145295D02*
X176785714Y-98240533D01*
X176785714Y-98240533D02*
X176738095Y-98383390D01*
X176738095Y-98383390D02*
X176166667Y-98954819D01*
X176166667Y-98954819D02*
X176785714Y-98954819D01*
X161033333Y-100854819D02*
X160700000Y-100378628D01*
X160461905Y-100854819D02*
X160461905Y-99854819D01*
X160461905Y-99854819D02*
X160842857Y-99854819D01*
X160842857Y-99854819D02*
X160938095Y-99902438D01*
X160938095Y-99902438D02*
X160985714Y-99950057D01*
X160985714Y-99950057D02*
X161033333Y-100045295D01*
X161033333Y-100045295D02*
X161033333Y-100188152D01*
X161033333Y-100188152D02*
X160985714Y-100283390D01*
X160985714Y-100283390D02*
X160938095Y-100331009D01*
X160938095Y-100331009D02*
X160842857Y-100378628D01*
X160842857Y-100378628D02*
X160461905Y-100378628D01*
X161890476Y-100188152D02*
X161890476Y-100854819D01*
X161652381Y-99807200D02*
X161414286Y-100521485D01*
X161414286Y-100521485D02*
X162033333Y-100521485D01*
X159666667Y-87407200D02*
X159809524Y-87454819D01*
X159809524Y-87454819D02*
X160047619Y-87454819D01*
X160047619Y-87454819D02*
X160142857Y-87407200D01*
X160142857Y-87407200D02*
X160190476Y-87359580D01*
X160190476Y-87359580D02*
X160238095Y-87264342D01*
X160238095Y-87264342D02*
X160238095Y-87169104D01*
X160238095Y-87169104D02*
X160190476Y-87073866D01*
X160190476Y-87073866D02*
X160142857Y-87026247D01*
X160142857Y-87026247D02*
X160047619Y-86978628D01*
X160047619Y-86978628D02*
X159857143Y-86931009D01*
X159857143Y-86931009D02*
X159761905Y-86883390D01*
X159761905Y-86883390D02*
X159714286Y-86835771D01*
X159714286Y-86835771D02*
X159666667Y-86740533D01*
X159666667Y-86740533D02*
X159666667Y-86645295D01*
X159666667Y-86645295D02*
X159714286Y-86550057D01*
X159714286Y-86550057D02*
X159761905Y-86502438D01*
X159761905Y-86502438D02*
X159857143Y-86454819D01*
X159857143Y-86454819D02*
X160095238Y-86454819D01*
X160095238Y-86454819D02*
X160238095Y-86502438D01*
X160571429Y-86454819D02*
X160809524Y-87454819D01*
X160809524Y-87454819D02*
X161000000Y-86740533D01*
X161000000Y-86740533D02*
X161190476Y-87454819D01*
X161190476Y-87454819D02*
X161428572Y-86454819D01*
X161714286Y-86454819D02*
X162333333Y-86454819D01*
X162333333Y-86454819D02*
X162000000Y-86835771D01*
X162000000Y-86835771D02*
X162142857Y-86835771D01*
X162142857Y-86835771D02*
X162238095Y-86883390D01*
X162238095Y-86883390D02*
X162285714Y-86931009D01*
X162285714Y-86931009D02*
X162333333Y-87026247D01*
X162333333Y-87026247D02*
X162333333Y-87264342D01*
X162333333Y-87264342D02*
X162285714Y-87359580D01*
X162285714Y-87359580D02*
X162238095Y-87407200D01*
X162238095Y-87407200D02*
X162142857Y-87454819D01*
X162142857Y-87454819D02*
X161857143Y-87454819D01*
X161857143Y-87454819D02*
X161761905Y-87407200D01*
X161761905Y-87407200D02*
X161714286Y-87359580D01*
X129666667Y-72407200D02*
X129809524Y-72454819D01*
X129809524Y-72454819D02*
X130047619Y-72454819D01*
X130047619Y-72454819D02*
X130142857Y-72407200D01*
X130142857Y-72407200D02*
X130190476Y-72359580D01*
X130190476Y-72359580D02*
X130238095Y-72264342D01*
X130238095Y-72264342D02*
X130238095Y-72169104D01*
X130238095Y-72169104D02*
X130190476Y-72073866D01*
X130190476Y-72073866D02*
X130142857Y-72026247D01*
X130142857Y-72026247D02*
X130047619Y-71978628D01*
X130047619Y-71978628D02*
X129857143Y-71931009D01*
X129857143Y-71931009D02*
X129761905Y-71883390D01*
X129761905Y-71883390D02*
X129714286Y-71835771D01*
X129714286Y-71835771D02*
X129666667Y-71740533D01*
X129666667Y-71740533D02*
X129666667Y-71645295D01*
X129666667Y-71645295D02*
X129714286Y-71550057D01*
X129714286Y-71550057D02*
X129761905Y-71502438D01*
X129761905Y-71502438D02*
X129857143Y-71454819D01*
X129857143Y-71454819D02*
X130095238Y-71454819D01*
X130095238Y-71454819D02*
X130238095Y-71502438D01*
X130571429Y-71454819D02*
X130809524Y-72454819D01*
X130809524Y-72454819D02*
X131000000Y-71740533D01*
X131000000Y-71740533D02*
X131190476Y-72454819D01*
X131190476Y-72454819D02*
X131428572Y-71454819D01*
X131714286Y-71454819D02*
X132380952Y-71454819D01*
X132380952Y-71454819D02*
X131952381Y-72454819D01*
X145261905Y-83954819D02*
X145261905Y-82954819D01*
X145261905Y-82954819D02*
X145500000Y-82954819D01*
X145500000Y-82954819D02*
X145642857Y-83002438D01*
X145642857Y-83002438D02*
X145738095Y-83097676D01*
X145738095Y-83097676D02*
X145785714Y-83192914D01*
X145785714Y-83192914D02*
X145833333Y-83383390D01*
X145833333Y-83383390D02*
X145833333Y-83526247D01*
X145833333Y-83526247D02*
X145785714Y-83716723D01*
X145785714Y-83716723D02*
X145738095Y-83811961D01*
X145738095Y-83811961D02*
X145642857Y-83907200D01*
X145642857Y-83907200D02*
X145500000Y-83954819D01*
X145500000Y-83954819D02*
X145261905Y-83954819D01*
X146690476Y-83288152D02*
X146690476Y-83954819D01*
X146452381Y-82907200D02*
X146214286Y-83621485D01*
X146214286Y-83621485D02*
X146833333Y-83621485D01*
X138283333Y-103584580D02*
X138235714Y-103632200D01*
X138235714Y-103632200D02*
X138092857Y-103679819D01*
X138092857Y-103679819D02*
X137997619Y-103679819D01*
X137997619Y-103679819D02*
X137854762Y-103632200D01*
X137854762Y-103632200D02*
X137759524Y-103536961D01*
X137759524Y-103536961D02*
X137711905Y-103441723D01*
X137711905Y-103441723D02*
X137664286Y-103251247D01*
X137664286Y-103251247D02*
X137664286Y-103108390D01*
X137664286Y-103108390D02*
X137711905Y-102917914D01*
X137711905Y-102917914D02*
X137759524Y-102822676D01*
X137759524Y-102822676D02*
X137854762Y-102727438D01*
X137854762Y-102727438D02*
X137997619Y-102679819D01*
X137997619Y-102679819D02*
X138092857Y-102679819D01*
X138092857Y-102679819D02*
X138235714Y-102727438D01*
X138235714Y-102727438D02*
X138283333Y-102775057D01*
X138664286Y-102775057D02*
X138711905Y-102727438D01*
X138711905Y-102727438D02*
X138807143Y-102679819D01*
X138807143Y-102679819D02*
X139045238Y-102679819D01*
X139045238Y-102679819D02*
X139140476Y-102727438D01*
X139140476Y-102727438D02*
X139188095Y-102775057D01*
X139188095Y-102775057D02*
X139235714Y-102870295D01*
X139235714Y-102870295D02*
X139235714Y-102965533D01*
X139235714Y-102965533D02*
X139188095Y-103108390D01*
X139188095Y-103108390D02*
X138616667Y-103679819D01*
X138616667Y-103679819D02*
X139235714Y-103679819D01*
X138283333Y-100584580D02*
X138235714Y-100632200D01*
X138235714Y-100632200D02*
X138092857Y-100679819D01*
X138092857Y-100679819D02*
X137997619Y-100679819D01*
X137997619Y-100679819D02*
X137854762Y-100632200D01*
X137854762Y-100632200D02*
X137759524Y-100536961D01*
X137759524Y-100536961D02*
X137711905Y-100441723D01*
X137711905Y-100441723D02*
X137664286Y-100251247D01*
X137664286Y-100251247D02*
X137664286Y-100108390D01*
X137664286Y-100108390D02*
X137711905Y-99917914D01*
X137711905Y-99917914D02*
X137759524Y-99822676D01*
X137759524Y-99822676D02*
X137854762Y-99727438D01*
X137854762Y-99727438D02*
X137997619Y-99679819D01*
X137997619Y-99679819D02*
X138092857Y-99679819D01*
X138092857Y-99679819D02*
X138235714Y-99727438D01*
X138235714Y-99727438D02*
X138283333Y-99775057D01*
X138616667Y-99679819D02*
X139235714Y-99679819D01*
X139235714Y-99679819D02*
X138902381Y-100060771D01*
X138902381Y-100060771D02*
X139045238Y-100060771D01*
X139045238Y-100060771D02*
X139140476Y-100108390D01*
X139140476Y-100108390D02*
X139188095Y-100156009D01*
X139188095Y-100156009D02*
X139235714Y-100251247D01*
X139235714Y-100251247D02*
X139235714Y-100489342D01*
X139235714Y-100489342D02*
X139188095Y-100584580D01*
X139188095Y-100584580D02*
X139140476Y-100632200D01*
X139140476Y-100632200D02*
X139045238Y-100679819D01*
X139045238Y-100679819D02*
X138759524Y-100679819D01*
X138759524Y-100679819D02*
X138664286Y-100632200D01*
X138664286Y-100632200D02*
X138616667Y-100584580D01*
X189666667Y-87407200D02*
X189809524Y-87454819D01*
X189809524Y-87454819D02*
X190047619Y-87454819D01*
X190047619Y-87454819D02*
X190142857Y-87407200D01*
X190142857Y-87407200D02*
X190190476Y-87359580D01*
X190190476Y-87359580D02*
X190238095Y-87264342D01*
X190238095Y-87264342D02*
X190238095Y-87169104D01*
X190238095Y-87169104D02*
X190190476Y-87073866D01*
X190190476Y-87073866D02*
X190142857Y-87026247D01*
X190142857Y-87026247D02*
X190047619Y-86978628D01*
X190047619Y-86978628D02*
X189857143Y-86931009D01*
X189857143Y-86931009D02*
X189761905Y-86883390D01*
X189761905Y-86883390D02*
X189714286Y-86835771D01*
X189714286Y-86835771D02*
X189666667Y-86740533D01*
X189666667Y-86740533D02*
X189666667Y-86645295D01*
X189666667Y-86645295D02*
X189714286Y-86550057D01*
X189714286Y-86550057D02*
X189761905Y-86502438D01*
X189761905Y-86502438D02*
X189857143Y-86454819D01*
X189857143Y-86454819D02*
X190095238Y-86454819D01*
X190095238Y-86454819D02*
X190238095Y-86502438D01*
X190571429Y-86454819D02*
X190809524Y-87454819D01*
X190809524Y-87454819D02*
X191000000Y-86740533D01*
X191000000Y-86740533D02*
X191190476Y-87454819D01*
X191190476Y-87454819D02*
X191428572Y-86454819D01*
X192285714Y-86454819D02*
X191809524Y-86454819D01*
X191809524Y-86454819D02*
X191761905Y-86931009D01*
X191761905Y-86931009D02*
X191809524Y-86883390D01*
X191809524Y-86883390D02*
X191904762Y-86835771D01*
X191904762Y-86835771D02*
X192142857Y-86835771D01*
X192142857Y-86835771D02*
X192238095Y-86883390D01*
X192238095Y-86883390D02*
X192285714Y-86931009D01*
X192285714Y-86931009D02*
X192333333Y-87026247D01*
X192333333Y-87026247D02*
X192333333Y-87264342D01*
X192333333Y-87264342D02*
X192285714Y-87359580D01*
X192285714Y-87359580D02*
X192238095Y-87407200D01*
X192238095Y-87407200D02*
X192142857Y-87454819D01*
X192142857Y-87454819D02*
X191904762Y-87454819D01*
X191904762Y-87454819D02*
X191809524Y-87407200D01*
X191809524Y-87407200D02*
X191761905Y-87359580D01*
X144033333Y-106679819D02*
X143700000Y-106203628D01*
X143461905Y-106679819D02*
X143461905Y-105679819D01*
X143461905Y-105679819D02*
X143842857Y-105679819D01*
X143842857Y-105679819D02*
X143938095Y-105727438D01*
X143938095Y-105727438D02*
X143985714Y-105775057D01*
X143985714Y-105775057D02*
X144033333Y-105870295D01*
X144033333Y-105870295D02*
X144033333Y-106013152D01*
X144033333Y-106013152D02*
X143985714Y-106108390D01*
X143985714Y-106108390D02*
X143938095Y-106156009D01*
X143938095Y-106156009D02*
X143842857Y-106203628D01*
X143842857Y-106203628D02*
X143461905Y-106203628D01*
X144985714Y-106679819D02*
X144414286Y-106679819D01*
X144700000Y-106679819D02*
X144700000Y-105679819D01*
X144700000Y-105679819D02*
X144604762Y-105822676D01*
X144604762Y-105822676D02*
X144509524Y-105917914D01*
X144509524Y-105917914D02*
X144414286Y-105965533D01*
X144033333Y-103679819D02*
X143700000Y-103203628D01*
X143461905Y-103679819D02*
X143461905Y-102679819D01*
X143461905Y-102679819D02*
X143842857Y-102679819D01*
X143842857Y-102679819D02*
X143938095Y-102727438D01*
X143938095Y-102727438D02*
X143985714Y-102775057D01*
X143985714Y-102775057D02*
X144033333Y-102870295D01*
X144033333Y-102870295D02*
X144033333Y-103013152D01*
X144033333Y-103013152D02*
X143985714Y-103108390D01*
X143985714Y-103108390D02*
X143938095Y-103156009D01*
X143938095Y-103156009D02*
X143842857Y-103203628D01*
X143842857Y-103203628D02*
X143461905Y-103203628D01*
X144414286Y-102775057D02*
X144461905Y-102727438D01*
X144461905Y-102727438D02*
X144557143Y-102679819D01*
X144557143Y-102679819D02*
X144795238Y-102679819D01*
X144795238Y-102679819D02*
X144890476Y-102727438D01*
X144890476Y-102727438D02*
X144938095Y-102775057D01*
X144938095Y-102775057D02*
X144985714Y-102870295D01*
X144985714Y-102870295D02*
X144985714Y-102965533D01*
X144985714Y-102965533D02*
X144938095Y-103108390D01*
X144938095Y-103108390D02*
X144366667Y-103679819D01*
X144366667Y-103679819D02*
X144985714Y-103679819D01*
X204666667Y-87407200D02*
X204809524Y-87454819D01*
X204809524Y-87454819D02*
X205047619Y-87454819D01*
X205047619Y-87454819D02*
X205142857Y-87407200D01*
X205142857Y-87407200D02*
X205190476Y-87359580D01*
X205190476Y-87359580D02*
X205238095Y-87264342D01*
X205238095Y-87264342D02*
X205238095Y-87169104D01*
X205238095Y-87169104D02*
X205190476Y-87073866D01*
X205190476Y-87073866D02*
X205142857Y-87026247D01*
X205142857Y-87026247D02*
X205047619Y-86978628D01*
X205047619Y-86978628D02*
X204857143Y-86931009D01*
X204857143Y-86931009D02*
X204761905Y-86883390D01*
X204761905Y-86883390D02*
X204714286Y-86835771D01*
X204714286Y-86835771D02*
X204666667Y-86740533D01*
X204666667Y-86740533D02*
X204666667Y-86645295D01*
X204666667Y-86645295D02*
X204714286Y-86550057D01*
X204714286Y-86550057D02*
X204761905Y-86502438D01*
X204761905Y-86502438D02*
X204857143Y-86454819D01*
X204857143Y-86454819D02*
X205095238Y-86454819D01*
X205095238Y-86454819D02*
X205238095Y-86502438D01*
X205571429Y-86454819D02*
X205809524Y-87454819D01*
X205809524Y-87454819D02*
X206000000Y-86740533D01*
X206000000Y-86740533D02*
X206190476Y-87454819D01*
X206190476Y-87454819D02*
X206428572Y-86454819D01*
X207238095Y-86454819D02*
X207047619Y-86454819D01*
X207047619Y-86454819D02*
X206952381Y-86502438D01*
X206952381Y-86502438D02*
X206904762Y-86550057D01*
X206904762Y-86550057D02*
X206809524Y-86692914D01*
X206809524Y-86692914D02*
X206761905Y-86883390D01*
X206761905Y-86883390D02*
X206761905Y-87264342D01*
X206761905Y-87264342D02*
X206809524Y-87359580D01*
X206809524Y-87359580D02*
X206857143Y-87407200D01*
X206857143Y-87407200D02*
X206952381Y-87454819D01*
X206952381Y-87454819D02*
X207142857Y-87454819D01*
X207142857Y-87454819D02*
X207238095Y-87407200D01*
X207238095Y-87407200D02*
X207285714Y-87359580D01*
X207285714Y-87359580D02*
X207333333Y-87264342D01*
X207333333Y-87264342D02*
X207333333Y-87026247D01*
X207333333Y-87026247D02*
X207285714Y-86931009D01*
X207285714Y-86931009D02*
X207238095Y-86883390D01*
X207238095Y-86883390D02*
X207142857Y-86835771D01*
X207142857Y-86835771D02*
X206952381Y-86835771D01*
X206952381Y-86835771D02*
X206857143Y-86883390D01*
X206857143Y-86883390D02*
X206809524Y-86931009D01*
X206809524Y-86931009D02*
X206761905Y-87026247D01*
X174190476Y-72407200D02*
X174333333Y-72454819D01*
X174333333Y-72454819D02*
X174571428Y-72454819D01*
X174571428Y-72454819D02*
X174666666Y-72407200D01*
X174666666Y-72407200D02*
X174714285Y-72359580D01*
X174714285Y-72359580D02*
X174761904Y-72264342D01*
X174761904Y-72264342D02*
X174761904Y-72169104D01*
X174761904Y-72169104D02*
X174714285Y-72073866D01*
X174714285Y-72073866D02*
X174666666Y-72026247D01*
X174666666Y-72026247D02*
X174571428Y-71978628D01*
X174571428Y-71978628D02*
X174380952Y-71931009D01*
X174380952Y-71931009D02*
X174285714Y-71883390D01*
X174285714Y-71883390D02*
X174238095Y-71835771D01*
X174238095Y-71835771D02*
X174190476Y-71740533D01*
X174190476Y-71740533D02*
X174190476Y-71645295D01*
X174190476Y-71645295D02*
X174238095Y-71550057D01*
X174238095Y-71550057D02*
X174285714Y-71502438D01*
X174285714Y-71502438D02*
X174380952Y-71454819D01*
X174380952Y-71454819D02*
X174619047Y-71454819D01*
X174619047Y-71454819D02*
X174761904Y-71502438D01*
X175095238Y-71454819D02*
X175333333Y-72454819D01*
X175333333Y-72454819D02*
X175523809Y-71740533D01*
X175523809Y-71740533D02*
X175714285Y-72454819D01*
X175714285Y-72454819D02*
X175952381Y-71454819D01*
X176857142Y-72454819D02*
X176285714Y-72454819D01*
X176571428Y-72454819D02*
X176571428Y-71454819D01*
X176571428Y-71454819D02*
X176476190Y-71597676D01*
X176476190Y-71597676D02*
X176380952Y-71692914D01*
X176380952Y-71692914D02*
X176285714Y-71740533D01*
X177476190Y-71454819D02*
X177571428Y-71454819D01*
X177571428Y-71454819D02*
X177666666Y-71502438D01*
X177666666Y-71502438D02*
X177714285Y-71550057D01*
X177714285Y-71550057D02*
X177761904Y-71645295D01*
X177761904Y-71645295D02*
X177809523Y-71835771D01*
X177809523Y-71835771D02*
X177809523Y-72073866D01*
X177809523Y-72073866D02*
X177761904Y-72264342D01*
X177761904Y-72264342D02*
X177714285Y-72359580D01*
X177714285Y-72359580D02*
X177666666Y-72407200D01*
X177666666Y-72407200D02*
X177571428Y-72454819D01*
X177571428Y-72454819D02*
X177476190Y-72454819D01*
X177476190Y-72454819D02*
X177380952Y-72407200D01*
X177380952Y-72407200D02*
X177333333Y-72359580D01*
X177333333Y-72359580D02*
X177285714Y-72264342D01*
X177285714Y-72264342D02*
X177238095Y-72073866D01*
X177238095Y-72073866D02*
X177238095Y-71835771D01*
X177238095Y-71835771D02*
X177285714Y-71645295D01*
X177285714Y-71645295D02*
X177333333Y-71550057D01*
X177333333Y-71550057D02*
X177380952Y-71502438D01*
X177380952Y-71502438D02*
X177476190Y-71454819D01*
X148761905Y-96954819D02*
X148761905Y-95954819D01*
X148761905Y-95954819D02*
X149000000Y-95954819D01*
X149000000Y-95954819D02*
X149142857Y-96002438D01*
X149142857Y-96002438D02*
X149238095Y-96097676D01*
X149238095Y-96097676D02*
X149285714Y-96192914D01*
X149285714Y-96192914D02*
X149333333Y-96383390D01*
X149333333Y-96383390D02*
X149333333Y-96526247D01*
X149333333Y-96526247D02*
X149285714Y-96716723D01*
X149285714Y-96716723D02*
X149238095Y-96811961D01*
X149238095Y-96811961D02*
X149142857Y-96907200D01*
X149142857Y-96907200D02*
X149000000Y-96954819D01*
X149000000Y-96954819D02*
X148761905Y-96954819D01*
X150285714Y-96954819D02*
X149714286Y-96954819D01*
X150000000Y-96954819D02*
X150000000Y-95954819D01*
X150000000Y-95954819D02*
X149904762Y-96097676D01*
X149904762Y-96097676D02*
X149809524Y-96192914D01*
X149809524Y-96192914D02*
X149714286Y-96240533D01*
X175261905Y-83954819D02*
X175261905Y-82954819D01*
X175261905Y-82954819D02*
X175500000Y-82954819D01*
X175500000Y-82954819D02*
X175642857Y-83002438D01*
X175642857Y-83002438D02*
X175738095Y-83097676D01*
X175738095Y-83097676D02*
X175785714Y-83192914D01*
X175785714Y-83192914D02*
X175833333Y-83383390D01*
X175833333Y-83383390D02*
X175833333Y-83526247D01*
X175833333Y-83526247D02*
X175785714Y-83716723D01*
X175785714Y-83716723D02*
X175738095Y-83811961D01*
X175738095Y-83811961D02*
X175642857Y-83907200D01*
X175642857Y-83907200D02*
X175500000Y-83954819D01*
X175500000Y-83954819D02*
X175261905Y-83954819D01*
X176738095Y-82954819D02*
X176261905Y-82954819D01*
X176261905Y-82954819D02*
X176214286Y-83431009D01*
X176214286Y-83431009D02*
X176261905Y-83383390D01*
X176261905Y-83383390D02*
X176357143Y-83335771D01*
X176357143Y-83335771D02*
X176595238Y-83335771D01*
X176595238Y-83335771D02*
X176690476Y-83383390D01*
X176690476Y-83383390D02*
X176738095Y-83431009D01*
X176738095Y-83431009D02*
X176785714Y-83526247D01*
X176785714Y-83526247D02*
X176785714Y-83764342D01*
X176785714Y-83764342D02*
X176738095Y-83859580D01*
X176738095Y-83859580D02*
X176690476Y-83907200D01*
X176690476Y-83907200D02*
X176595238Y-83954819D01*
X176595238Y-83954819D02*
X176357143Y-83954819D01*
X176357143Y-83954819D02*
X176261905Y-83907200D01*
X176261905Y-83907200D02*
X176214286Y-83859580D01*
X154390476Y-101854819D02*
X155057142Y-102854819D01*
X155057142Y-101854819D02*
X154390476Y-102854819D01*
X155961904Y-102854819D02*
X155390476Y-102854819D01*
X155676190Y-102854819D02*
X155676190Y-101854819D01*
X155676190Y-101854819D02*
X155580952Y-101997676D01*
X155580952Y-101997676D02*
X155485714Y-102092914D01*
X155485714Y-102092914D02*
X155390476Y-102140533D01*
X144666667Y-87407200D02*
X144809524Y-87454819D01*
X144809524Y-87454819D02*
X145047619Y-87454819D01*
X145047619Y-87454819D02*
X145142857Y-87407200D01*
X145142857Y-87407200D02*
X145190476Y-87359580D01*
X145190476Y-87359580D02*
X145238095Y-87264342D01*
X145238095Y-87264342D02*
X145238095Y-87169104D01*
X145238095Y-87169104D02*
X145190476Y-87073866D01*
X145190476Y-87073866D02*
X145142857Y-87026247D01*
X145142857Y-87026247D02*
X145047619Y-86978628D01*
X145047619Y-86978628D02*
X144857143Y-86931009D01*
X144857143Y-86931009D02*
X144761905Y-86883390D01*
X144761905Y-86883390D02*
X144714286Y-86835771D01*
X144714286Y-86835771D02*
X144666667Y-86740533D01*
X144666667Y-86740533D02*
X144666667Y-86645295D01*
X144666667Y-86645295D02*
X144714286Y-86550057D01*
X144714286Y-86550057D02*
X144761905Y-86502438D01*
X144761905Y-86502438D02*
X144857143Y-86454819D01*
X144857143Y-86454819D02*
X145095238Y-86454819D01*
X145095238Y-86454819D02*
X145238095Y-86502438D01*
X145571429Y-86454819D02*
X145809524Y-87454819D01*
X145809524Y-87454819D02*
X146000000Y-86740533D01*
X146000000Y-86740533D02*
X146190476Y-87454819D01*
X146190476Y-87454819D02*
X146428572Y-86454819D01*
X146761905Y-86550057D02*
X146809524Y-86502438D01*
X146809524Y-86502438D02*
X146904762Y-86454819D01*
X146904762Y-86454819D02*
X147142857Y-86454819D01*
X147142857Y-86454819D02*
X147238095Y-86502438D01*
X147238095Y-86502438D02*
X147285714Y-86550057D01*
X147285714Y-86550057D02*
X147333333Y-86645295D01*
X147333333Y-86645295D02*
X147333333Y-86740533D01*
X147333333Y-86740533D02*
X147285714Y-86883390D01*
X147285714Y-86883390D02*
X146714286Y-87454819D01*
X146714286Y-87454819D02*
X147333333Y-87454819D01*
X189190476Y-72407200D02*
X189333333Y-72454819D01*
X189333333Y-72454819D02*
X189571428Y-72454819D01*
X189571428Y-72454819D02*
X189666666Y-72407200D01*
X189666666Y-72407200D02*
X189714285Y-72359580D01*
X189714285Y-72359580D02*
X189761904Y-72264342D01*
X189761904Y-72264342D02*
X189761904Y-72169104D01*
X189761904Y-72169104D02*
X189714285Y-72073866D01*
X189714285Y-72073866D02*
X189666666Y-72026247D01*
X189666666Y-72026247D02*
X189571428Y-71978628D01*
X189571428Y-71978628D02*
X189380952Y-71931009D01*
X189380952Y-71931009D02*
X189285714Y-71883390D01*
X189285714Y-71883390D02*
X189238095Y-71835771D01*
X189238095Y-71835771D02*
X189190476Y-71740533D01*
X189190476Y-71740533D02*
X189190476Y-71645295D01*
X189190476Y-71645295D02*
X189238095Y-71550057D01*
X189238095Y-71550057D02*
X189285714Y-71502438D01*
X189285714Y-71502438D02*
X189380952Y-71454819D01*
X189380952Y-71454819D02*
X189619047Y-71454819D01*
X189619047Y-71454819D02*
X189761904Y-71502438D01*
X190095238Y-71454819D02*
X190333333Y-72454819D01*
X190333333Y-72454819D02*
X190523809Y-71740533D01*
X190523809Y-71740533D02*
X190714285Y-72454819D01*
X190714285Y-72454819D02*
X190952381Y-71454819D01*
X191857142Y-72454819D02*
X191285714Y-72454819D01*
X191571428Y-72454819D02*
X191571428Y-71454819D01*
X191571428Y-71454819D02*
X191476190Y-71597676D01*
X191476190Y-71597676D02*
X191380952Y-71692914D01*
X191380952Y-71692914D02*
X191285714Y-71740533D01*
X192809523Y-72454819D02*
X192238095Y-72454819D01*
X192523809Y-72454819D02*
X192523809Y-71454819D01*
X192523809Y-71454819D02*
X192428571Y-71597676D01*
X192428571Y-71597676D02*
X192333333Y-71692914D01*
X192333333Y-71692914D02*
X192238095Y-71740533D01*
X160461905Y-104054819D02*
X160461905Y-103054819D01*
X160461905Y-103054819D02*
X160700000Y-103054819D01*
X160700000Y-103054819D02*
X160842857Y-103102438D01*
X160842857Y-103102438D02*
X160938095Y-103197676D01*
X160938095Y-103197676D02*
X160985714Y-103292914D01*
X160985714Y-103292914D02*
X161033333Y-103483390D01*
X161033333Y-103483390D02*
X161033333Y-103626247D01*
X161033333Y-103626247D02*
X160985714Y-103816723D01*
X160985714Y-103816723D02*
X160938095Y-103911961D01*
X160938095Y-103911961D02*
X160842857Y-104007200D01*
X160842857Y-104007200D02*
X160700000Y-104054819D01*
X160700000Y-104054819D02*
X160461905Y-104054819D01*
X161366667Y-103054819D02*
X162033333Y-103054819D01*
X162033333Y-103054819D02*
X161604762Y-104054819D01*
X144666667Y-72407200D02*
X144809524Y-72454819D01*
X144809524Y-72454819D02*
X145047619Y-72454819D01*
X145047619Y-72454819D02*
X145142857Y-72407200D01*
X145142857Y-72407200D02*
X145190476Y-72359580D01*
X145190476Y-72359580D02*
X145238095Y-72264342D01*
X145238095Y-72264342D02*
X145238095Y-72169104D01*
X145238095Y-72169104D02*
X145190476Y-72073866D01*
X145190476Y-72073866D02*
X145142857Y-72026247D01*
X145142857Y-72026247D02*
X145047619Y-71978628D01*
X145047619Y-71978628D02*
X144857143Y-71931009D01*
X144857143Y-71931009D02*
X144761905Y-71883390D01*
X144761905Y-71883390D02*
X144714286Y-71835771D01*
X144714286Y-71835771D02*
X144666667Y-71740533D01*
X144666667Y-71740533D02*
X144666667Y-71645295D01*
X144666667Y-71645295D02*
X144714286Y-71550057D01*
X144714286Y-71550057D02*
X144761905Y-71502438D01*
X144761905Y-71502438D02*
X144857143Y-71454819D01*
X144857143Y-71454819D02*
X145095238Y-71454819D01*
X145095238Y-71454819D02*
X145238095Y-71502438D01*
X145571429Y-71454819D02*
X145809524Y-72454819D01*
X145809524Y-72454819D02*
X146000000Y-71740533D01*
X146000000Y-71740533D02*
X146190476Y-72454819D01*
X146190476Y-72454819D02*
X146428572Y-71454819D01*
X146952381Y-71883390D02*
X146857143Y-71835771D01*
X146857143Y-71835771D02*
X146809524Y-71788152D01*
X146809524Y-71788152D02*
X146761905Y-71692914D01*
X146761905Y-71692914D02*
X146761905Y-71645295D01*
X146761905Y-71645295D02*
X146809524Y-71550057D01*
X146809524Y-71550057D02*
X146857143Y-71502438D01*
X146857143Y-71502438D02*
X146952381Y-71454819D01*
X146952381Y-71454819D02*
X147142857Y-71454819D01*
X147142857Y-71454819D02*
X147238095Y-71502438D01*
X147238095Y-71502438D02*
X147285714Y-71550057D01*
X147285714Y-71550057D02*
X147333333Y-71645295D01*
X147333333Y-71645295D02*
X147333333Y-71692914D01*
X147333333Y-71692914D02*
X147285714Y-71788152D01*
X147285714Y-71788152D02*
X147238095Y-71835771D01*
X147238095Y-71835771D02*
X147142857Y-71883390D01*
X147142857Y-71883390D02*
X146952381Y-71883390D01*
X146952381Y-71883390D02*
X146857143Y-71931009D01*
X146857143Y-71931009D02*
X146809524Y-71978628D01*
X146809524Y-71978628D02*
X146761905Y-72073866D01*
X146761905Y-72073866D02*
X146761905Y-72264342D01*
X146761905Y-72264342D02*
X146809524Y-72359580D01*
X146809524Y-72359580D02*
X146857143Y-72407200D01*
X146857143Y-72407200D02*
X146952381Y-72454819D01*
X146952381Y-72454819D02*
X147142857Y-72454819D01*
X147142857Y-72454819D02*
X147238095Y-72407200D01*
X147238095Y-72407200D02*
X147285714Y-72359580D01*
X147285714Y-72359580D02*
X147333333Y-72264342D01*
X147333333Y-72264342D02*
X147333333Y-72073866D01*
X147333333Y-72073866D02*
X147285714Y-71978628D01*
X147285714Y-71978628D02*
X147238095Y-71931009D01*
X147238095Y-71931009D02*
X147142857Y-71883390D01*
X138283333Y-106584580D02*
X138235714Y-106632200D01*
X138235714Y-106632200D02*
X138092857Y-106679819D01*
X138092857Y-106679819D02*
X137997619Y-106679819D01*
X137997619Y-106679819D02*
X137854762Y-106632200D01*
X137854762Y-106632200D02*
X137759524Y-106536961D01*
X137759524Y-106536961D02*
X137711905Y-106441723D01*
X137711905Y-106441723D02*
X137664286Y-106251247D01*
X137664286Y-106251247D02*
X137664286Y-106108390D01*
X137664286Y-106108390D02*
X137711905Y-105917914D01*
X137711905Y-105917914D02*
X137759524Y-105822676D01*
X137759524Y-105822676D02*
X137854762Y-105727438D01*
X137854762Y-105727438D02*
X137997619Y-105679819D01*
X137997619Y-105679819D02*
X138092857Y-105679819D01*
X138092857Y-105679819D02*
X138235714Y-105727438D01*
X138235714Y-105727438D02*
X138283333Y-105775057D01*
X139235714Y-106679819D02*
X138664286Y-106679819D01*
X138950000Y-106679819D02*
X138950000Y-105679819D01*
X138950000Y-105679819D02*
X138854762Y-105822676D01*
X138854762Y-105822676D02*
X138759524Y-105917914D01*
X138759524Y-105917914D02*
X138664286Y-105965533D01*
%TO.C,D6*%
D11*
X208360000Y-80500000D02*
X204350000Y-80500000D01*
X208360000Y-82500000D02*
X204350000Y-82500000D01*
X208360000Y-82500000D02*
X208360000Y-80500000D01*
%TO.C,SW9*%
D12*
X158000000Y-73000000D02*
X164000000Y-73000000D01*
X158000000Y-79000000D02*
X158000000Y-73000000D01*
X164000000Y-73000000D02*
X164000000Y-79000000D01*
X164000000Y-79000000D02*
X158000000Y-79000000D01*
D13*
X155180000Y-73460000D02*
G75*
G02*
X154880000Y-73460000I-150000J0D01*
G01*
X154880000Y-73460000D02*
G75*
G02*
X155180000Y-73460000I150000J0D01*
G01*
D14*
X156530000Y-73000000D02*
G75*
G02*
X156470000Y-73000000I-30000J0D01*
G01*
X156470000Y-73000000D02*
G75*
G02*
X156530000Y-73000000I30000J0D01*
G01*
D12*
X159360000Y-74000000D02*
G75*
G02*
X158640000Y-74000000I-360000J0D01*
G01*
X158640000Y-74000000D02*
G75*
G02*
X159360000Y-74000000I360000J0D01*
G01*
X159360000Y-78000000D02*
G75*
G02*
X158640000Y-78000000I-360000J0D01*
G01*
X158640000Y-78000000D02*
G75*
G02*
X159360000Y-78000000I360000J0D01*
G01*
X162400000Y-76000000D02*
G75*
G02*
X159600000Y-76000000I-1400000J0D01*
G01*
X159600000Y-76000000D02*
G75*
G02*
X162400000Y-76000000I1400000J0D01*
G01*
X163360000Y-74000000D02*
G75*
G02*
X162640000Y-74000000I-360000J0D01*
G01*
X162640000Y-74000000D02*
G75*
G02*
X163360000Y-74000000I360000J0D01*
G01*
X163360000Y-78000000D02*
G75*
G02*
X162640000Y-78000000I-360000J0D01*
G01*
X162640000Y-78000000D02*
G75*
G02*
X163360000Y-78000000I360000J0D01*
G01*
%TO.C,SW4*%
X173000000Y-88000000D02*
X179000000Y-88000000D01*
X173000000Y-94000000D02*
X173000000Y-88000000D01*
X179000000Y-88000000D02*
X179000000Y-94000000D01*
X179000000Y-94000000D02*
X173000000Y-94000000D01*
D13*
X170180000Y-88460000D02*
G75*
G02*
X169880000Y-88460000I-150000J0D01*
G01*
X169880000Y-88460000D02*
G75*
G02*
X170180000Y-88460000I150000J0D01*
G01*
D14*
X171530000Y-88000000D02*
G75*
G02*
X171470000Y-88000000I-30000J0D01*
G01*
X171470000Y-88000000D02*
G75*
G02*
X171530000Y-88000000I30000J0D01*
G01*
D12*
X174360000Y-89000000D02*
G75*
G02*
X173640000Y-89000000I-360000J0D01*
G01*
X173640000Y-89000000D02*
G75*
G02*
X174360000Y-89000000I360000J0D01*
G01*
X174360000Y-93000000D02*
G75*
G02*
X173640000Y-93000000I-360000J0D01*
G01*
X173640000Y-93000000D02*
G75*
G02*
X174360000Y-93000000I360000J0D01*
G01*
X177400000Y-91000000D02*
G75*
G02*
X174600000Y-91000000I-1400000J0D01*
G01*
X174600000Y-91000000D02*
G75*
G02*
X177400000Y-91000000I1400000J0D01*
G01*
X178360000Y-89000000D02*
G75*
G02*
X177640000Y-89000000I-360000J0D01*
G01*
X177640000Y-89000000D02*
G75*
G02*
X178360000Y-89000000I360000J0D01*
G01*
X178360000Y-93000000D02*
G75*
G02*
X177640000Y-93000000I-360000J0D01*
G01*
X177640000Y-93000000D02*
G75*
G02*
X178360000Y-93000000I360000J0D01*
G01*
%TO.C,C5*%
D11*
X132490000Y-103140580D02*
X132490000Y-102859420D01*
X133510000Y-103140580D02*
X133510000Y-102859420D01*
%TO.C,LED2*%
D13*
X83350000Y-68130000D02*
X83350000Y-87130000D01*
X83350000Y-87130000D02*
X120950000Y-87130000D01*
D15*
X86010000Y-82080000D02*
X86570000Y-78950000D01*
X86820000Y-76870000D02*
X87380000Y-73750000D01*
X90380000Y-83170000D02*
X86720000Y-83170000D01*
X91190000Y-77960000D02*
X87530000Y-77960000D01*
X91370000Y-82260000D02*
X91930000Y-79130000D01*
X91950000Y-72760000D02*
X88290000Y-72760000D01*
X92180000Y-77050000D02*
X92740000Y-73920000D01*
X98860000Y-82080000D02*
X99420000Y-78950000D01*
X99670000Y-76870000D02*
X100230000Y-73750000D01*
X103230000Y-83170000D02*
X99570000Y-83170000D01*
X104040000Y-77960000D02*
X100380000Y-77960000D01*
X104220000Y-82260000D02*
X104780000Y-79130000D01*
X104800000Y-72760000D02*
X101150000Y-72760000D01*
X105030000Y-77050000D02*
X105590000Y-73920000D01*
X110870000Y-81980000D02*
X111430000Y-78850000D01*
X111690000Y-76770000D02*
X112250000Y-73640000D01*
X115240000Y-83070000D02*
X111590000Y-83070000D01*
X116060000Y-77860000D02*
X112400000Y-77860000D01*
X116230000Y-82150000D02*
X116790000Y-79030000D01*
X116820000Y-72650000D02*
X113160000Y-72650000D01*
X117050000Y-76950000D02*
X117610000Y-73820000D01*
D13*
X120950000Y-68130000D02*
X83350000Y-68130000D01*
X120950000Y-87130000D02*
X120950000Y-68130000D01*
D15*
X93820000Y-82640000D02*
G75*
G02*
X93812252Y-82640100I-3J-300000D01*
G01*
X106850000Y-82670000D02*
G75*
G02*
X106842252Y-82670100I0J-300000D01*
G01*
X118540000Y-82570000D02*
G75*
G02*
X118532507Y-82569838I-10000J-290000D01*
G01*
D14*
X83230000Y-87280000D02*
G75*
G02*
X83170000Y-87280000I-30000J0D01*
G01*
X83170000Y-87280000D02*
G75*
G02*
X83230000Y-87280000I30000J0D01*
G01*
%TO.C,SW1*%
D12*
X128500000Y-88000000D02*
X134500000Y-88000000D01*
X128500000Y-94000000D02*
X128500000Y-88000000D01*
X134500000Y-88000000D02*
X134500000Y-94000000D01*
X134500000Y-94000000D02*
X128500000Y-94000000D01*
D13*
X125680000Y-88460000D02*
G75*
G02*
X125380000Y-88460000I-150000J0D01*
G01*
X125380000Y-88460000D02*
G75*
G02*
X125680000Y-88460000I150000J0D01*
G01*
D14*
X127030000Y-88000000D02*
G75*
G02*
X126970000Y-88000000I-30000J0D01*
G01*
X126970000Y-88000000D02*
G75*
G02*
X127030000Y-88000000I30000J0D01*
G01*
D12*
X129860000Y-89000000D02*
G75*
G02*
X129140000Y-89000000I-360000J0D01*
G01*
X129140000Y-89000000D02*
G75*
G02*
X129860000Y-89000000I360000J0D01*
G01*
X129860000Y-93000000D02*
G75*
G02*
X129140000Y-93000000I-360000J0D01*
G01*
X129140000Y-93000000D02*
G75*
G02*
X129860000Y-93000000I360000J0D01*
G01*
X132900000Y-91000000D02*
G75*
G02*
X130100000Y-91000000I-1400000J0D01*
G01*
X130100000Y-91000000D02*
G75*
G02*
X132900000Y-91000000I1400000J0D01*
G01*
X133860000Y-89000000D02*
G75*
G02*
X133140000Y-89000000I-360000J0D01*
G01*
X133140000Y-89000000D02*
G75*
G02*
X133860000Y-89000000I360000J0D01*
G01*
X133860000Y-93000000D02*
G75*
G02*
X133140000Y-93000000I-360000J0D01*
G01*
X133140000Y-93000000D02*
G75*
G02*
X133860000Y-93000000I360000J0D01*
G01*
%TO.C,SW12*%
X203000000Y-73000000D02*
X209000000Y-73000000D01*
X203000000Y-79000000D02*
X203000000Y-73000000D01*
X209000000Y-73000000D02*
X209000000Y-79000000D01*
X209000000Y-79000000D02*
X203000000Y-79000000D01*
D13*
X200180000Y-73460000D02*
G75*
G02*
X199880000Y-73460000I-150000J0D01*
G01*
X199880000Y-73460000D02*
G75*
G02*
X200180000Y-73460000I150000J0D01*
G01*
D14*
X201530000Y-73000000D02*
G75*
G02*
X201470000Y-73000000I-30000J0D01*
G01*
X201470000Y-73000000D02*
G75*
G02*
X201530000Y-73000000I30000J0D01*
G01*
D12*
X204360000Y-74000000D02*
G75*
G02*
X203640000Y-74000000I-360000J0D01*
G01*
X203640000Y-74000000D02*
G75*
G02*
X204360000Y-74000000I360000J0D01*
G01*
X204360000Y-78000000D02*
G75*
G02*
X203640000Y-78000000I-360000J0D01*
G01*
X203640000Y-78000000D02*
G75*
G02*
X204360000Y-78000000I360000J0D01*
G01*
X207400000Y-76000000D02*
G75*
G02*
X204600000Y-76000000I-1400000J0D01*
G01*
X204600000Y-76000000D02*
G75*
G02*
X207400000Y-76000000I1400000J0D01*
G01*
X208360000Y-74000000D02*
G75*
G02*
X207640000Y-74000000I-360000J0D01*
G01*
X207640000Y-74000000D02*
G75*
G02*
X208360000Y-74000000I360000J0D01*
G01*
X208360000Y-78000000D02*
G75*
G02*
X207640000Y-78000000I-360000J0D01*
G01*
X207640000Y-78000000D02*
G75*
G02*
X208360000Y-78000000I360000J0D01*
G01*
%TO.C,D3*%
D11*
X208360000Y-95500000D02*
X204350000Y-95500000D01*
X208360000Y-97500000D02*
X204350000Y-97500000D01*
X208360000Y-97500000D02*
X208360000Y-95500000D01*
%TO.C,R3*%
X141927500Y-99987742D02*
X141927500Y-100462258D01*
X142972500Y-99987742D02*
X142972500Y-100462258D01*
%TO.C,D2*%
X178360000Y-95500000D02*
X174350000Y-95500000D01*
X178360000Y-97500000D02*
X174350000Y-97500000D01*
X178360000Y-97500000D02*
X178360000Y-95500000D01*
%TO.C,R4*%
X158677500Y-100637258D02*
X158677500Y-100162742D01*
X159722500Y-100637258D02*
X159722500Y-100162742D01*
%TO.C,SW3*%
D12*
X158000000Y-88000000D02*
X164000000Y-88000000D01*
X158000000Y-94000000D02*
X158000000Y-88000000D01*
X164000000Y-88000000D02*
X164000000Y-94000000D01*
X164000000Y-94000000D02*
X158000000Y-94000000D01*
D13*
X155180000Y-88460000D02*
G75*
G02*
X154880000Y-88460000I-150000J0D01*
G01*
X154880000Y-88460000D02*
G75*
G02*
X155180000Y-88460000I150000J0D01*
G01*
D14*
X156530000Y-88000000D02*
G75*
G02*
X156470000Y-88000000I-30000J0D01*
G01*
X156470000Y-88000000D02*
G75*
G02*
X156530000Y-88000000I30000J0D01*
G01*
D12*
X159360000Y-89000000D02*
G75*
G02*
X158640000Y-89000000I-360000J0D01*
G01*
X158640000Y-89000000D02*
G75*
G02*
X159360000Y-89000000I360000J0D01*
G01*
X159360000Y-93000000D02*
G75*
G02*
X158640000Y-93000000I-360000J0D01*
G01*
X158640000Y-93000000D02*
G75*
G02*
X159360000Y-93000000I360000J0D01*
G01*
X162400000Y-91000000D02*
G75*
G02*
X159600000Y-91000000I-1400000J0D01*
G01*
X159600000Y-91000000D02*
G75*
G02*
X162400000Y-91000000I1400000J0D01*
G01*
X163360000Y-89000000D02*
G75*
G02*
X162640000Y-89000000I-360000J0D01*
G01*
X162640000Y-89000000D02*
G75*
G02*
X163360000Y-89000000I360000J0D01*
G01*
X163360000Y-93000000D02*
G75*
G02*
X162640000Y-93000000I-360000J0D01*
G01*
X162640000Y-93000000D02*
G75*
G02*
X163360000Y-93000000I360000J0D01*
G01*
%TO.C,SW7*%
X128000000Y-73000000D02*
X134000000Y-73000000D01*
X128000000Y-79000000D02*
X128000000Y-73000000D01*
X134000000Y-73000000D02*
X134000000Y-79000000D01*
X134000000Y-79000000D02*
X128000000Y-79000000D01*
D13*
X125180000Y-73460000D02*
G75*
G02*
X124880000Y-73460000I-150000J0D01*
G01*
X124880000Y-73460000D02*
G75*
G02*
X125180000Y-73460000I150000J0D01*
G01*
D14*
X126530000Y-73000000D02*
G75*
G02*
X126470000Y-73000000I-30000J0D01*
G01*
X126470000Y-73000000D02*
G75*
G02*
X126530000Y-73000000I30000J0D01*
G01*
D12*
X129360000Y-74000000D02*
G75*
G02*
X128640000Y-74000000I-360000J0D01*
G01*
X128640000Y-74000000D02*
G75*
G02*
X129360000Y-74000000I360000J0D01*
G01*
X129360000Y-78000000D02*
G75*
G02*
X128640000Y-78000000I-360000J0D01*
G01*
X128640000Y-78000000D02*
G75*
G02*
X129360000Y-78000000I360000J0D01*
G01*
X132400000Y-76000000D02*
G75*
G02*
X129600000Y-76000000I-1400000J0D01*
G01*
X129600000Y-76000000D02*
G75*
G02*
X132400000Y-76000000I1400000J0D01*
G01*
X133360000Y-74000000D02*
G75*
G02*
X132640000Y-74000000I-360000J0D01*
G01*
X132640000Y-74000000D02*
G75*
G02*
X133360000Y-74000000I360000J0D01*
G01*
X133360000Y-78000000D02*
G75*
G02*
X132640000Y-78000000I-360000J0D01*
G01*
X132640000Y-78000000D02*
G75*
G02*
X133360000Y-78000000I360000J0D01*
G01*
%TO.C,D4*%
D11*
X148360000Y-80500000D02*
X144350000Y-80500000D01*
X148360000Y-82500000D02*
X144350000Y-82500000D01*
X148360000Y-82500000D02*
X148360000Y-80500000D01*
%TO.C,C2*%
X139690000Y-103084420D02*
X139690000Y-103365580D01*
X140710000Y-103084420D02*
X140710000Y-103365580D01*
%TO.C,C3*%
X139690000Y-100365580D02*
X139690000Y-100084420D01*
X140710000Y-100365580D02*
X140710000Y-100084420D01*
%TO.C,SW5*%
D12*
X188000000Y-88000000D02*
X194000000Y-88000000D01*
X188000000Y-94000000D02*
X188000000Y-88000000D01*
X194000000Y-88000000D02*
X194000000Y-94000000D01*
X194000000Y-94000000D02*
X188000000Y-94000000D01*
D13*
X185180000Y-88460000D02*
G75*
G02*
X184880000Y-88460000I-150000J0D01*
G01*
X184880000Y-88460000D02*
G75*
G02*
X185180000Y-88460000I150000J0D01*
G01*
D14*
X186530000Y-88000000D02*
G75*
G02*
X186470000Y-88000000I-30000J0D01*
G01*
X186470000Y-88000000D02*
G75*
G02*
X186530000Y-88000000I30000J0D01*
G01*
D12*
X189360000Y-89000000D02*
G75*
G02*
X188640000Y-89000000I-360000J0D01*
G01*
X188640000Y-89000000D02*
G75*
G02*
X189360000Y-89000000I360000J0D01*
G01*
X189360000Y-93000000D02*
G75*
G02*
X188640000Y-93000000I-360000J0D01*
G01*
X188640000Y-93000000D02*
G75*
G02*
X189360000Y-93000000I360000J0D01*
G01*
X192400000Y-91000000D02*
G75*
G02*
X189600000Y-91000000I-1400000J0D01*
G01*
X189600000Y-91000000D02*
G75*
G02*
X192400000Y-91000000I1400000J0D01*
G01*
X193360000Y-89000000D02*
G75*
G02*
X192640000Y-89000000I-360000J0D01*
G01*
X192640000Y-89000000D02*
G75*
G02*
X193360000Y-89000000I360000J0D01*
G01*
X193360000Y-93000000D02*
G75*
G02*
X192640000Y-93000000I-360000J0D01*
G01*
X192640000Y-93000000D02*
G75*
G02*
X193360000Y-93000000I360000J0D01*
G01*
%TO.C,R1*%
D11*
X141927500Y-105987742D02*
X141927500Y-106462258D01*
X142972500Y-105987742D02*
X142972500Y-106462258D01*
%TO.C,R2*%
X141927500Y-103462258D02*
X141927500Y-102987742D01*
X142972500Y-103462258D02*
X142972500Y-102987742D01*
%TO.C,SW6*%
D12*
X203000000Y-88000000D02*
X209000000Y-88000000D01*
X203000000Y-94000000D02*
X203000000Y-88000000D01*
X209000000Y-88000000D02*
X209000000Y-94000000D01*
X209000000Y-94000000D02*
X203000000Y-94000000D01*
D13*
X200180000Y-88460000D02*
G75*
G02*
X199880000Y-88460000I-150000J0D01*
G01*
X199880000Y-88460000D02*
G75*
G02*
X200180000Y-88460000I150000J0D01*
G01*
D14*
X201530000Y-88000000D02*
G75*
G02*
X201470000Y-88000000I-30000J0D01*
G01*
X201470000Y-88000000D02*
G75*
G02*
X201530000Y-88000000I30000J0D01*
G01*
D12*
X204360000Y-89000000D02*
G75*
G02*
X203640000Y-89000000I-360000J0D01*
G01*
X203640000Y-89000000D02*
G75*
G02*
X204360000Y-89000000I360000J0D01*
G01*
X204360000Y-93000000D02*
G75*
G02*
X203640000Y-93000000I-360000J0D01*
G01*
X203640000Y-93000000D02*
G75*
G02*
X204360000Y-93000000I360000J0D01*
G01*
X207400000Y-91000000D02*
G75*
G02*
X204600000Y-91000000I-1400000J0D01*
G01*
X204600000Y-91000000D02*
G75*
G02*
X207400000Y-91000000I1400000J0D01*
G01*
X208360000Y-89000000D02*
G75*
G02*
X207640000Y-89000000I-360000J0D01*
G01*
X207640000Y-89000000D02*
G75*
G02*
X208360000Y-89000000I360000J0D01*
G01*
X208360000Y-93000000D02*
G75*
G02*
X207640000Y-93000000I-360000J0D01*
G01*
X207640000Y-93000000D02*
G75*
G02*
X208360000Y-93000000I360000J0D01*
G01*
%TO.C,SW10*%
X173000000Y-73000000D02*
X179000000Y-73000000D01*
X173000000Y-79000000D02*
X173000000Y-73000000D01*
X179000000Y-73000000D02*
X179000000Y-79000000D01*
X179000000Y-79000000D02*
X173000000Y-79000000D01*
D13*
X170180000Y-73460000D02*
G75*
G02*
X169880000Y-73460000I-150000J0D01*
G01*
X169880000Y-73460000D02*
G75*
G02*
X170180000Y-73460000I150000J0D01*
G01*
D14*
X171530000Y-73000000D02*
G75*
G02*
X171470000Y-73000000I-30000J0D01*
G01*
X171470000Y-73000000D02*
G75*
G02*
X171530000Y-73000000I30000J0D01*
G01*
D12*
X174360000Y-74000000D02*
G75*
G02*
X173640000Y-74000000I-360000J0D01*
G01*
X173640000Y-74000000D02*
G75*
G02*
X174360000Y-74000000I360000J0D01*
G01*
X174360000Y-78000000D02*
G75*
G02*
X173640000Y-78000000I-360000J0D01*
G01*
X173640000Y-78000000D02*
G75*
G02*
X174360000Y-78000000I360000J0D01*
G01*
X177400000Y-76000000D02*
G75*
G02*
X174600000Y-76000000I-1400000J0D01*
G01*
X174600000Y-76000000D02*
G75*
G02*
X177400000Y-76000000I1400000J0D01*
G01*
X178360000Y-74000000D02*
G75*
G02*
X177640000Y-74000000I-360000J0D01*
G01*
X177640000Y-74000000D02*
G75*
G02*
X178360000Y-74000000I360000J0D01*
G01*
X178360000Y-78000000D02*
G75*
G02*
X177640000Y-78000000I-360000J0D01*
G01*
X177640000Y-78000000D02*
G75*
G02*
X178360000Y-78000000I360000J0D01*
G01*
%TO.C,D1*%
D11*
X148360000Y-95500000D02*
X144350000Y-95500000D01*
X148360000Y-97500000D02*
X144350000Y-97500000D01*
X148360000Y-97500000D02*
X148360000Y-95500000D01*
%TO.C,D5*%
X178360000Y-80500000D02*
X174350000Y-80500000D01*
X178360000Y-82500000D02*
X174350000Y-82500000D01*
X178360000Y-82500000D02*
X178360000Y-80500000D01*
%TO.C,X1*%
D12*
X146350000Y-103770000D02*
X146950000Y-103770000D01*
X146350000Y-103950000D02*
X146350000Y-103770000D01*
X146350000Y-107870000D02*
X146350000Y-106910000D01*
X146350000Y-107870000D02*
X147350000Y-107870000D01*
X146950000Y-103370000D02*
X149370000Y-103370000D01*
X146950000Y-103770000D02*
X146950000Y-103370000D01*
X146950000Y-108670000D02*
X146950000Y-107870000D01*
X147350000Y-107870000D02*
X156150000Y-107870000D01*
X150130000Y-103370000D02*
X150370000Y-103370000D01*
X151130000Y-103370000D02*
X151370000Y-103370000D01*
X152130000Y-103370000D02*
X152370000Y-103370000D01*
X153130000Y-103370000D02*
X153370000Y-103370000D01*
X154130000Y-103370000D02*
X156650000Y-103370000D01*
X156470000Y-107870000D02*
X156470000Y-108670000D01*
X156470000Y-108670000D02*
X146950000Y-108670000D01*
X156650000Y-103370000D02*
X156650000Y-103670000D01*
X156650000Y-103670000D02*
X156750000Y-103770000D01*
X156750000Y-103770000D02*
X157250000Y-103770000D01*
X157250000Y-103770000D02*
X157250000Y-103970000D01*
X157250000Y-106890000D02*
X157250000Y-107870000D01*
X157250000Y-107870000D02*
X156150000Y-107870000D01*
D14*
X146330000Y-102660000D02*
G75*
G02*
X146270000Y-102660000I-30000J0D01*
G01*
X146270000Y-102660000D02*
G75*
G02*
X146330000Y-102660000I30000J0D01*
G01*
D12*
X148990000Y-102270000D02*
G75*
G02*
X148710000Y-102270000I-140000J0D01*
G01*
X148710000Y-102270000D02*
G75*
G02*
X148990000Y-102270000I140000J0D01*
G01*
%TO.C,SW2*%
X143000000Y-88000000D02*
X149000000Y-88000000D01*
X143000000Y-94000000D02*
X143000000Y-88000000D01*
X149000000Y-88000000D02*
X149000000Y-94000000D01*
X149000000Y-94000000D02*
X143000000Y-94000000D01*
D13*
X140180000Y-88460000D02*
G75*
G02*
X139880000Y-88460000I-150000J0D01*
G01*
X139880000Y-88460000D02*
G75*
G02*
X140180000Y-88460000I150000J0D01*
G01*
D14*
X141530000Y-88000000D02*
G75*
G02*
X141470000Y-88000000I-30000J0D01*
G01*
X141470000Y-88000000D02*
G75*
G02*
X141530000Y-88000000I30000J0D01*
G01*
D12*
X144360000Y-89000000D02*
G75*
G02*
X143640000Y-89000000I-360000J0D01*
G01*
X143640000Y-89000000D02*
G75*
G02*
X144360000Y-89000000I360000J0D01*
G01*
X144360000Y-93000000D02*
G75*
G02*
X143640000Y-93000000I-360000J0D01*
G01*
X143640000Y-93000000D02*
G75*
G02*
X144360000Y-93000000I360000J0D01*
G01*
X147400000Y-91000000D02*
G75*
G02*
X144600000Y-91000000I-1400000J0D01*
G01*
X144600000Y-91000000D02*
G75*
G02*
X147400000Y-91000000I1400000J0D01*
G01*
X148360000Y-89000000D02*
G75*
G02*
X147640000Y-89000000I-360000J0D01*
G01*
X147640000Y-89000000D02*
G75*
G02*
X148360000Y-89000000I360000J0D01*
G01*
X148360000Y-93000000D02*
G75*
G02*
X147640000Y-93000000I-360000J0D01*
G01*
X147640000Y-93000000D02*
G75*
G02*
X148360000Y-93000000I360000J0D01*
G01*
%TO.C,SW11*%
X188000000Y-73000000D02*
X194000000Y-73000000D01*
X188000000Y-79000000D02*
X188000000Y-73000000D01*
X194000000Y-73000000D02*
X194000000Y-79000000D01*
X194000000Y-79000000D02*
X188000000Y-79000000D01*
D13*
X185180000Y-73460000D02*
G75*
G02*
X184880000Y-73460000I-150000J0D01*
G01*
X184880000Y-73460000D02*
G75*
G02*
X185180000Y-73460000I150000J0D01*
G01*
D14*
X186530000Y-73000000D02*
G75*
G02*
X186470000Y-73000000I-30000J0D01*
G01*
X186470000Y-73000000D02*
G75*
G02*
X186530000Y-73000000I30000J0D01*
G01*
D12*
X189360000Y-74000000D02*
G75*
G02*
X188640000Y-74000000I-360000J0D01*
G01*
X188640000Y-74000000D02*
G75*
G02*
X189360000Y-74000000I360000J0D01*
G01*
X189360000Y-78000000D02*
G75*
G02*
X188640000Y-78000000I-360000J0D01*
G01*
X188640000Y-78000000D02*
G75*
G02*
X189360000Y-78000000I360000J0D01*
G01*
X192400000Y-76000000D02*
G75*
G02*
X189600000Y-76000000I-1400000J0D01*
G01*
X189600000Y-76000000D02*
G75*
G02*
X192400000Y-76000000I1400000J0D01*
G01*
X193360000Y-74000000D02*
G75*
G02*
X192640000Y-74000000I-360000J0D01*
G01*
X192640000Y-74000000D02*
G75*
G02*
X193360000Y-74000000I360000J0D01*
G01*
X193360000Y-78000000D02*
G75*
G02*
X192640000Y-78000000I-360000J0D01*
G01*
X192640000Y-78000000D02*
G75*
G02*
X193360000Y-78000000I360000J0D01*
G01*
%TO.C,D7*%
D11*
X158465000Y-102115000D02*
X158465000Y-104400000D01*
X159935000Y-102115000D02*
X158465000Y-102115000D01*
X159935000Y-104400000D02*
X159935000Y-102115000D01*
%TO.C,LED1*%
D13*
X83350000Y-89630000D02*
X83350000Y-108630000D01*
X83350000Y-108630000D02*
X120950000Y-108630000D01*
D15*
X86010000Y-103580000D02*
X86570000Y-100450000D01*
X86820000Y-98370000D02*
X87380000Y-95250000D01*
X90380000Y-104670000D02*
X86720000Y-104670000D01*
X91190000Y-99460000D02*
X87530000Y-99460000D01*
X91370000Y-103760000D02*
X91930000Y-100630000D01*
X91950000Y-94260000D02*
X88290000Y-94260000D01*
X92180000Y-98550000D02*
X92740000Y-95420000D01*
X98860000Y-103580000D02*
X99420000Y-100450000D01*
X99670000Y-98370000D02*
X100230000Y-95250000D01*
X103230000Y-104670000D02*
X99570000Y-104670000D01*
X104040000Y-99460000D02*
X100380000Y-99460000D01*
X104220000Y-103760000D02*
X104780000Y-100630000D01*
X104800000Y-94260000D02*
X101150000Y-94260000D01*
X105030000Y-98550000D02*
X105590000Y-95420000D01*
X110870000Y-103480000D02*
X111430000Y-100350000D01*
X111690000Y-98270000D02*
X112250000Y-95140000D01*
X115240000Y-104570000D02*
X111590000Y-104570000D01*
X116060000Y-99360000D02*
X112400000Y-99360000D01*
X116230000Y-103650000D02*
X116790000Y-100530000D01*
X116820000Y-94150000D02*
X113160000Y-94150000D01*
X117050000Y-98450000D02*
X117610000Y-95320000D01*
D13*
X120950000Y-89630000D02*
X83350000Y-89630000D01*
X120950000Y-108630000D02*
X120950000Y-89630000D01*
D15*
X93820000Y-104140000D02*
G75*
G02*
X93812252Y-104140100I-3J-300000D01*
G01*
X106850000Y-104170000D02*
G75*
G02*
X106842252Y-104170100I0J-300000D01*
G01*
X118540000Y-104070000D02*
G75*
G02*
X118532507Y-104069838I-10000J-290000D01*
G01*
D14*
X83230000Y-108780000D02*
G75*
G02*
X83170000Y-108780000I-30000J0D01*
G01*
X83170000Y-108780000D02*
G75*
G02*
X83230000Y-108780000I30000J0D01*
G01*
%TO.C,SW8*%
D12*
X143000000Y-73000000D02*
X149000000Y-73000000D01*
X143000000Y-79000000D02*
X143000000Y-73000000D01*
X149000000Y-73000000D02*
X149000000Y-79000000D01*
X149000000Y-79000000D02*
X143000000Y-79000000D01*
D13*
X140180000Y-73460000D02*
G75*
G02*
X139880000Y-73460000I-150000J0D01*
G01*
X139880000Y-73460000D02*
G75*
G02*
X140180000Y-73460000I150000J0D01*
G01*
D14*
X141530000Y-73000000D02*
G75*
G02*
X141470000Y-73000000I-30000J0D01*
G01*
X141470000Y-73000000D02*
G75*
G02*
X141530000Y-73000000I30000J0D01*
G01*
D12*
X144360000Y-74000000D02*
G75*
G02*
X143640000Y-74000000I-360000J0D01*
G01*
X143640000Y-74000000D02*
G75*
G02*
X144360000Y-74000000I360000J0D01*
G01*
X144360000Y-78000000D02*
G75*
G02*
X143640000Y-78000000I-360000J0D01*
G01*
X143640000Y-78000000D02*
G75*
G02*
X144360000Y-78000000I360000J0D01*
G01*
X147400000Y-76000000D02*
G75*
G02*
X144600000Y-76000000I-1400000J0D01*
G01*
X144600000Y-76000000D02*
G75*
G02*
X147400000Y-76000000I1400000J0D01*
G01*
X148360000Y-74000000D02*
G75*
G02*
X147640000Y-74000000I-360000J0D01*
G01*
X147640000Y-74000000D02*
G75*
G02*
X148360000Y-74000000I360000J0D01*
G01*
X148360000Y-78000000D02*
G75*
G02*
X147640000Y-78000000I-360000J0D01*
G01*
X147640000Y-78000000D02*
G75*
G02*
X148360000Y-78000000I360000J0D01*
G01*
%TO.C,C1*%
D11*
X139690000Y-106365580D02*
X139690000Y-106084420D01*
X140710000Y-106365580D02*
X140710000Y-106084420D01*
%TD*%
M02*
