#VRML V2.0 utf8
# 3D model generated by kicad-lcsc-manager
# Based on easyeda2kicad.py v1.0.1

Shape{
    appearance Appearance {
        material  Material {
            diffuseColor 0.8 0.8 0.8
            specularColor 1.0 1.0 1.0
            ambientIntensity 1.0
            transparency 0.0
            shininess 0.5
        }
    }
    geometry IndexedFaceSet {
        ccw TRUE
        solid FALSE
        coord DEF co Coordinate {
            point [
                0.1212 -3.8213 0.0197, 0.1406 -3.8235 0.0197, 0.0786 -3.9691 0.0197, 0.0559 -4.0002 0.0197, 0.0751 -3.9888 0.0197, 0.0961 -3.9974 0.0197, 2.3228 -1.3465 0.0197, 2.6378 -1.3465 0.0197, 2.3228 -1.5433 0.0197, 2.6378 -4.0002 0.0197, 0.1726 -3.9923 0.0197, 0.2383 -3.999 0.0197, 0.1535 -3.9989 0.0197, 0.1408 -4.0002 0.0197, 0.1553 -3.8288 0.0197, 0.1689 -3.8379 0.0197, 0.1808 -3.8511 0.0197, 0.1951 -3.9026 0.0197, 0.1931 -3.924 0.0197, 0.1878 -3.9409 0.0197, 0.144 -3.9777 0.0197, 0.1256 -3.9798 0.0197, 0.1583 -3.9724 0.0197, 0.1704 -3.9643 0.0197, 0.1796 -3.9545 0.0197, 0.0995 -3.9769 0.0197, 0.0973 -3.8244 0.0197, 0.0751 -3.9672 0.0197, 0.0751 -3.8339 0.0197, 0.0559 -1.5433 0.0197, 0.0751 -3.8075 0.0197, 0.1889 -3.8663 0.0197, 0.1942 -3.8873 0.0197, 0.2111 -3.854 0.0197, 0.1996 -3.8356 0.0197, 0.3128 -3.8021 0.0197, 0.3392 -3.8021 0.0197, 0.3392 -3.999 0.0197, 0.1884 -3.9822 0.0197, 0.2032 -3.9666 0.0197, 0.2383 -3.9774 0.0197, 0.2137 -3.9479 0.0197, 0.3128 -3.9774 0.0197, 0.1818 -3.8185 0.0197, 0.1631 -3.8077 0.0197, 0.1412 -3.8013 0.0197, 0.2196 -3.9271 0.0197, 0.2215 -3.9043 0.0197, 0.2187 -3.8763 0.0197, 0.1214 -3.7997 0.0197, 0.0979 -3.8013 0.0197, -0.2802 -3.999 0.0197, -0.256 -3.945 0.0197, -0.2447 -3.9626 0.0197, -0.0689 -3.999 0.0197, 0.0367 -3.999 0.0197, 0.0367 -3.8021 0.0197, -0.0641 -3.8021 0.0197, -2.3228 -1.5433 0.0197, -0.2285 -3.9781 0.0197, -0.2079 -3.9901 0.0197, -0.1852 -3.9968 0.0197, -0.0641 -3.8237 0.0197, -2.6378 -1.3465 0.0197, -2.3228 -1.3465 0.0197, -0.0689 -3.9774 0.0197, -0.1073 -3.999 0.0197, -0.1609 -3.999 0.0197, 0.0103 -3.8885 0.0197, -0.0593 -3.8885 0.0197, -0.1073 -3.8021 0.0197, -0.0593 -3.9101 0.0197, 0.0103 -3.9101 0.0197, 0.0103 -3.9774 0.0197, -0.4578 -3.999 0.0197, -0.429 -3.999 0.0197, -0.4091 -3.9438 0.0197, -0.3278 -3.9438 0.0197, -0.309 -3.999 0.0197, -0.3546 -3.8021 0.0197, -0.2144 -3.8132 0.0197, -0.2358 -3.8276 0.0197, -2.6378 -4.0002 0.0197, -0.381 -3.8021 0.0197, -0.236 -3.8278 0.0197, -0.2499 -3.8432 0.0197, -0.2591 -3.8602 0.0197, -0.2644 -3.8795 0.0197, -0.2658 -3.8981 0.0197, -0.263 -3.9244 0.0197, 0.0103 -3.8237 0.0197, -0.1629 -3.8021 0.0197, -0.1913 -3.8052 0.0197, 0.1293 -4.0014 0.0197, 2.6378 -6.4646 0.0197, 0.1239 -4.0013 0.0197, 0.0559 -6.4646 0.0197, 0.116 -4.0002 0.0197, -2.6378 -6.4646 0.0197, 0.3937 -6.4646 3.878, 2.6378 -6.4646 3.878, 0.3937 -5.4803 3.878, 2.6378 -1.3465 3.878, -0.3937 -5.4803 3.878, -2.6378 -1.3465 3.878, -0.3937 -6.4646 3.878, -2.6378 -6.4646 3.878, -1.4291 -1.3465 0.8976, -1.4291 -1.3465 0.4134, -1.4291 -1.5433 0.8976, -1.4291 -1.5433 0.4134, -1.878 -1.5433 0.8976, -1.878 -1.5433 0.4134, -1.878 -1.3465 0.8976, -1.878 -1.3465 0.4134, 0.2244 -1.3465 0.8976, 0.2244 -1.3465 0.4134, 0.2244 -1.5433 0.8976, 0.2244 -1.5433 0.4134, -0.2244 -1.5433 0.8976, -0.2244 -1.5433 0.4134, -0.2244 -1.3465 0.8976, -0.2244 -1.3465 0.4134, 1.878 -1.3465 0.8976, 1.878 -1.3465 0.4134, 1.878 -1.5433 0.8976, 1.878 -1.5433 0.4134, 1.4291 -1.5433 0.8976, 1.4291 -1.5433 0.4134, 1.4291 -1.3465 0.8976, 1.4291 -1.3465 0.4134, -2.3228 -1.5433 0.4134, -2.3228 -1.3465 0.4134, 2.7165 -1.3465 0.0984, 2.7165 -1.3465 3.7992, 2.7165 -6.4646 0.0984, 2.7165 -6.4646 3.7992, 2.6772 -6.5039 3.6811, 2.6772 -6.5039 3.8386, 0.8268 -6.5039 3.8386, 0.8268 -6.5039 1.9488, 0.9449 -6.5039 1.8701, 2.3622 -6.5039 1.8701, -0.6069 -6.5039 0.374, -0.8268 -6.5039 0.0591, 0.6069 -6.5039 0.374, 0.8268 -6.5039 0.0591, 0.7087 -6.5039 0.4758, 0.8268 -6.5039 1.122, 0.7087 -6.5039 1.122, 0.7087 -6.5039 1.8701, -0.7087 -6.5039 1.8701, -0.8268 -6.5039 1.9488, -0.7087 -6.5039 1.122, -0.8268 -6.5039 1.122, -0.7087 -6.5039 0.4758, -0.9449 -6.5039 0.4758, -1.0467 -6.5039 0.374, -2.5197 -6.5039 0.0591, -0.9449 -6.5039 1.122, -2.2604 -6.5039 0.374, -2.3622 -6.5039 0.4758, -2.5197 -6.5039 1.122, -2.3622 -6.5039 1.122, -2.5197 -6.5039 1.9488, -2.3622 -6.5039 1.8701, -0.9449 -6.5039 1.8701, 1.0467 -6.5039 2.0276, 0.9449 -6.5039 2.1294, 0.8268 -6.5039 3.6811, 0.9449 -6.5039 3.5236, 2.3622 -6.5039 3.5236, 2.6772 -6.5039 1.9488, 2.3622 -6.5039 2.1294, 2.2604 -6.5039 2.0276, 0.9449 -6.5039 1.122, 0.9449 -6.5039 0.374, 2.3622 -6.5039 0.374, 2.6772 -6.5039 0.0591, 2.3622 -6.5039 1.122, 2.6772 -6.5039 1.122, 0.7087 -6.5039 3.5236, -0.7087 -6.5039 3.5236, -0.8268 -6.5039 3.6811, -0.7087 -6.5039 2.0276, 0.7087 -6.5039 2.0276, -2.3622 -6.5039 2.0276, -2.5197 -6.5039 3.6811, -2.3622 -6.5039 3.5236, -0.9449 -6.5039 3.5236, -0.9449 -6.5039 2.0276, -0.8268 -6.5039 3.8386, -2.5197 -6.5039 3.8386, -2.6772 -6.5039 3.8386, -2.6772 -6.5039 3.6811, -2.6772 -6.5039 1.9488, -2.6772 -6.5039 1.122, -2.6772 -6.5039 0.0591, -2.7165 -6.4646 0.0984, -2.7165 -6.4646 3.7992, -2.7165 -1.3465 0.0984, -2.7165 -1.3465 3.7992, 2.3228 -1.3465 0.4134, 1.4291 -1.3465 3.0, 2.6869 -1.3465 0.0369, 2.672 -1.3465 0.0275, 2.6994 -1.3465 0.0493, 2.6553 -1.3465 0.0217, 2.7087 -1.3465 0.0643, 2.672 -1.3465 3.8702, 2.6869 -1.3465 3.8608, 1.878 -1.3465 3.0, 2.6994 -1.3465 3.8483, 2.7146 -1.3465 0.0809, 1.878 -1.3465 1.3465, 1.878 -1.3465 2.5512, 2.7146 -1.3465 3.8167, 2.7087 -1.3465 3.8334, 2.6553 -1.3465 3.876, 1.4291 -1.3465 1.3465, 0.2244 -1.3465 1.3465, 1.4291 -1.3465 2.5512, 0.2244 -1.3465 2.5512, 0.2244 -1.3465 3.0, -1.4291 -1.3465 3.0, -0.2244 -1.3465 3.0, -1.4291 -1.3465 2.5512, -0.2244 -1.3465 2.5512, -1.4291 -1.3465 1.3465, -0.2244 -1.3465 1.3465, -2.7146 -1.3465 3.8167, -2.7087 -1.3465 3.8334, -1.878 -1.3465 3.0, -2.6994 -1.3465 3.8483, -2.6869 -1.3465 3.8608, -2.6553 -1.3465 3.876, -2.672 -1.3465 3.8702, -1.878 -1.3465 2.5512, -1.878 -1.3465 1.3465, -2.6582 -1.3465 0.0224, -2.706 -1.3465 0.0591, -2.7139 -1.3465 0.078, -2.6772 -1.3465 0.0302, -2.6935 -1.3465 0.0427, -0.9843 -6.4646 3.4843, -0.9843 -2.5669 3.4843, -0.9843 -6.4646 2.0669, -0.9843 -2.5669 2.0669, -2.3228 -6.4646 2.0669, -2.3228 -2.5669 2.0669, -2.3228 -6.4646 3.4843, -2.3228 -2.5669 3.4843, -1.4291 -2.5669 2.5512, -1.878 -2.5669 2.5512, -1.878 -2.5669 3.0, -1.4291 -2.5669 3.0, 0.6693 -6.4646 2.0669, 0.6693 -2.5669 2.0669, -0.6693 -6.4646 2.0669, -0.6693 -2.5669 2.0669, -0.6693 -6.4646 3.4843, -0.6693 -2.5669 3.4843, 0.6693 -6.4646 3.4843, 0.6693 -2.5669 3.4843, -0.2244 -2.5669 3.0, -0.2244 -2.5669 2.5512, 0.2244 -2.5669 2.5512, 0.2244 -2.5669 3.0, -2.2441 -6.4646 0.4134, -2.2441 -2.5669 0.4134, -2.3228 -6.4646 0.4921, -2.3228 -2.5669 0.4921, -2.3228 -6.4646 1.8307, -2.3228 -2.5669 1.8307, -0.9843 -6.4646 1.8307, -0.9843 -2.5669 1.8307, -0.9843 -6.4646 0.4921, -0.9843 -2.5669 0.4921, -1.063 -6.4646 0.4134, -1.063 -2.5669 0.4134, -1.4291 -2.5669 0.8976, -1.878 -2.5669 0.8976, -1.878 -2.5669 1.3465, -1.4291 -2.5669 1.3465, 0.9843 -6.4646 3.4843, 0.9843 -2.5669 3.4843, 2.3228 -6.4646 3.4843, 2.3228 -2.5669 3.4843, 2.3228 -6.4646 2.1457, 2.3228 -2.5669 2.1457, 2.2441 -6.4646 2.0669, 2.2441 -2.5669 2.0669, 1.063 -6.4646 2.0669, 1.063 -2.5669 2.0669, 0.9843 -6.4646 2.1457, 0.9843 -2.5669 2.1457, 1.4291 -2.5669 2.5512, 1.878 -2.5669 2.5512, 1.878 -2.5669 3.0, 1.4291 -2.5669 3.0, -0.6693 -6.4646 1.8307, -0.6693 -2.5669 1.8307, 0.6693 -6.4646 1.8307, 0.6693 -2.5669 1.8307, 0.6693 -6.4646 0.4921, 0.6693 -2.5669 0.4921, 0.5906 -6.4646 0.4134, 0.5906 -2.5669 0.4134, -0.5906 -6.4646 0.4134, -0.5906 -2.5669 0.4134, -0.6693 -6.4646 0.4921, -0.6693 -2.5669 0.4921, -0.2244 -2.5669 0.8976, 0.2244 -2.5669 0.8976, 0.2244 -2.5669 1.3465, -0.2244 -2.5669 1.3465, 2.3228 -6.4646 0.4134, 2.3228 -2.5669 0.4134, 0.9843 -6.4646 0.4134, 0.9843 -2.5669 0.4134, 0.9843 -6.4646 1.8307, 0.9843 -2.5669 1.8307, 2.3228 -6.4646 1.8307, 2.3228 -2.5669 1.8307, 1.4291 -2.5669 1.3465, 1.4291 -2.5669 0.8976, 1.878 -2.5669 0.8976, 1.878 -2.5669 1.3465, 2.3228 -1.5433 0.4134, -1.4291 -1.5433 2.5512, -1.4291 -1.5433 1.3465, -1.878 -1.5433 2.5512, -1.878 -1.5433 1.3465, 0.2244 -1.5433 2.5512, 0.2244 -1.5433 1.3465, -0.2244 -1.5433 2.5512, -0.2244 -1.5433 1.3465, 1.878 -1.5433 2.5512, 1.878 -1.5433 1.3465, 1.4291 -1.5433 2.5512, 1.4291 -1.5433 1.3465
            ]
        }
        coordIndex [
            0,1,2,-1,3,4,5,-1,6,7,8,-1,8,7,9,-1,10,11,12,-1,12,11,13,-1,1,14,2,-1,2,14,15,-1,2,15,16,-1,17,18,2,-1,2,18,19,-1,20,21,22,-1,22,21,23,-1,19,24,2,-1,2,24,23,-1,2,23,25,-1,25,23,21,-1,0,2,26,-1,26,2,27,-1,26,27,28,-1,28,27,29,-1,28,29,30,-1,16,31,2,-1,2,31,32,-1,2,32,17,-1,33,34,35,-1,35,34,29,-1,35,29,36,-1,36,29,8,-1,36,8,37,-1,37,8,9,-1,10,38,11,-1,11,38,39,-1,11,39,40,-1,40,39,41,-1,40,41,42,-1,34,43,29,-1,29,43,44,-1,29,44,45,-1,41,46,42,-1,42,46,47,-1,42,47,35,-1,35,47,48,-1,35,48,33,-1,45,49,29,-1,29,49,50,-1,29,50,30,-1,51,52,53,-1,54,55,3,-1,3,55,56,-1,57,58,56,-1,56,58,29,-1,56,29,3,-1,3,29,27,-1,3,27,4,-1,53,59,51,-1,51,59,60,-1,51,60,61,-1,57,62,58,-1,58,62,63,-1,58,63,64,-1,65,54,66,-1,66,54,3,-1,66,3,67,-1,68,69,70,-1,70,69,71,-1,72,73,71,-1,71,73,65,-1,71,65,70,-1,70,65,66,-1,74,75,3,-1,76,77,75,-1,75,77,78,-1,75,78,3,-1,3,78,51,-1,3,51,67,-1,67,51,61,-1,79,80,81,-1,3,82,74,-1,74,82,63,-1,74,63,83,-1,83,63,79,-1,81,84,79,-1,79,84,85,-1,79,85,86,-1,86,87,79,-1,79,87,88,-1,79,88,51,-1,51,88,89,-1,51,89,52,-1,90,68,62,-1,62,68,70,-1,62,70,63,-1,63,70,91,-1,63,91,79,-1,79,91,92,-1,79,92,80,-1,11,37,13,-1,13,37,9,-1,13,9,93,-1,93,9,94,-1,93,94,95,-1,95,94,96,-1,95,96,97,-1,5,97,3,-1,3,97,96,-1,3,96,82,-1,82,96,98,-1,99,100,101,-1,101,100,102,-1,101,102,103,-1,103,102,104,-1,103,104,105,-1,105,104,106,-1,107,108,109,-1,109,108,110,-1,111,112,113,-1,113,112,114,-1,115,116,117,-1,117,116,118,-1,119,120,121,-1,121,120,122,-1,123,124,125,-1,125,124,126,-1,127,128,129,-1,129,128,130,-1,118,116,128,-1,128,116,130,-1,110,108,120,-1,120,108,122,-1,131,132,112,-1,112,132,114,-1,133,134,135,-1,135,134,136,-1,137,138,139,-1,140,141,142,-1,143,144,145,-1,145,144,146,-1,145,146,147,-1,147,146,148,-1,147,148,149,-1,149,148,150,-1,150,148,140,-1,150,140,151,-1,151,140,152,-1,151,152,153,-1,153,152,154,-1,153,154,155,-1,156,157,144,-1,144,157,158,-1,143,155,144,-1,144,155,154,-1,144,154,156,-1,156,154,159,-1,157,160,158,-1,158,160,161,-1,158,161,162,-1,162,161,163,-1,162,163,164,-1,164,163,165,-1,159,154,166,-1,166,154,152,-1,166,152,165,-1,140,167,168,-1,140,168,169,-1,169,168,170,-1,169,170,137,-1,137,170,171,-1,137,171,172,-1,172,171,173,-1,172,173,174,-1,141,140,175,-1,175,140,148,-1,175,148,176,-1,176,148,146,-1,176,146,177,-1,177,146,178,-1,177,178,179,-1,179,178,180,-1,179,180,142,-1,142,180,172,-1,142,172,140,-1,140,172,174,-1,140,174,167,-1,181,169,182,-1,182,169,183,-1,182,183,184,-1,184,183,152,-1,184,152,185,-1,185,152,140,-1,185,140,181,-1,181,140,169,-1,165,152,164,-1,164,152,186,-1,164,186,187,-1,187,186,188,-1,187,188,183,-1,183,188,189,-1,183,189,152,-1,152,189,190,-1,152,190,186,-1,137,139,169,-1,169,139,191,-1,169,191,183,-1,183,191,192,-1,183,192,187,-1,192,193,187,-1,187,193,194,-1,187,194,164,-1,164,194,195,-1,164,195,162,-1,162,195,196,-1,162,196,158,-1,158,196,197,-1,198,199,200,-1,200,199,201,-1,7,6,133,-1,133,6,202,-1,133,202,134,-1,203,104,102,-1,204,205,206,-1,206,205,207,-1,206,207,208,-1,209,210,211,-1,211,210,212,-1,7,133,207,-1,207,133,213,-1,207,213,208,-1,124,123,202,-1,202,123,214,-1,202,214,134,-1,134,214,215,-1,134,215,216,-1,216,215,211,-1,216,211,217,-1,217,211,212,-1,203,102,211,-1,211,102,218,-1,211,218,209,-1,130,116,129,-1,129,116,115,-1,129,115,219,-1,219,115,220,-1,219,220,221,-1,221,220,222,-1,221,222,203,-1,203,222,223,-1,203,223,104,-1,113,114,132,-1,224,225,226,-1,226,225,227,-1,226,227,228,-1,228,227,229,-1,228,229,107,-1,107,229,121,-1,107,121,108,-1,108,121,122,-1,230,231,232,-1,232,231,233,-1,232,233,234,-1,223,225,104,-1,104,225,224,-1,104,224,235,-1,235,224,232,-1,235,232,236,-1,236,232,234,-1,230,232,201,-1,201,232,237,-1,201,237,132,-1,132,237,238,-1,132,238,113,-1,64,63,132,-1,132,63,239,-1,240,241,132,-1,132,241,200,-1,132,200,201,-1,239,242,132,-1,132,242,243,-1,132,243,240,-1,244,245,246,-1,246,245,247,-1,246,247,248,-1,248,247,249,-1,248,249,250,-1,250,249,251,-1,250,251,244,-1,244,251,245,-1,252,247,245,-1,247,252,249,-1,249,252,253,-1,249,253,251,-1,251,253,254,-1,251,254,245,-1,245,254,255,-1,245,255,252,-1,256,257,258,-1,258,257,259,-1,258,259,260,-1,260,259,261,-1,260,261,262,-1,262,261,263,-1,262,263,256,-1,256,263,257,-1,264,261,265,-1,265,261,259,-1,265,259,266,-1,266,259,257,-1,266,257,267,-1,267,257,263,-1,267,263,264,-1,264,263,261,-1,268,269,270,-1,270,269,271,-1,270,271,272,-1,272,271,273,-1,272,273,274,-1,274,273,275,-1,274,275,276,-1,276,275,277,-1,276,277,278,-1,278,277,279,-1,278,279,268,-1,268,279,269,-1,280,277,275,-1,279,277,269,-1,269,277,280,-1,269,280,271,-1,271,280,281,-1,271,281,273,-1,273,281,282,-1,273,282,275,-1,275,282,283,-1,275,283,280,-1,284,285,286,-1,286,285,287,-1,286,287,288,-1,288,287,289,-1,288,289,290,-1,290,289,291,-1,290,291,292,-1,292,291,293,-1,292,293,294,-1,294,293,295,-1,294,295,284,-1,284,295,285,-1,295,293,296,-1,296,293,291,-1,296,291,297,-1,297,291,289,-1,297,289,298,-1,298,289,287,-1,298,287,299,-1,299,287,285,-1,299,285,296,-1,296,285,295,-1,300,301,302,-1,302,301,303,-1,302,303,304,-1,304,303,305,-1,304,305,306,-1,306,305,307,-1,306,307,308,-1,308,307,309,-1,308,309,310,-1,310,309,311,-1,310,311,300,-1,300,311,301,-1,311,309,312,-1,312,309,307,-1,312,307,313,-1,313,307,305,-1,313,305,314,-1,314,305,303,-1,314,303,315,-1,315,303,301,-1,315,301,312,-1,312,301,311,-1,316,317,318,-1,318,317,319,-1,318,319,320,-1,320,319,321,-1,320,321,322,-1,322,321,323,-1,322,323,316,-1,316,323,317,-1,324,321,325,-1,325,321,319,-1,325,319,326,-1,326,319,317,-1,326,317,327,-1,327,317,323,-1,327,323,324,-1,324,323,321,-1,328,202,8,-1,8,202,6,-1,132,131,64,-1,64,131,58,-1,128,127,125,-1,328,8,126,-1,126,8,58,-1,58,131,112,-1,111,109,112,-1,112,109,110,-1,112,110,58,-1,58,110,120,-1,119,117,120,-1,120,117,118,-1,120,118,58,-1,58,118,128,-1,58,128,126,-1,126,128,125,-1,202,328,124,-1,124,328,126,-1,226,228,329,-1,329,228,330,-1,331,332,237,-1,237,332,238,-1,222,220,333,-1,333,220,334,-1,335,336,227,-1,227,336,229,-1,215,214,337,-1,337,214,338,-1,339,340,221,-1,221,340,219,-1,330,332,329,-1,329,332,331,-1,334,336,333,-1,333,336,335,-1,338,340,337,-1,337,340,339,-1,
        ]
    }
}
Shape{
    appearance Appearance {
        material  Material {
            diffuseColor 0.6039215686274509 0.6039215686274509 0.6039215686274509
            specularColor 0.7529411764705882 0.7529411764705882 0.7529411764705882
            ambientIntensity 0.7529
            transparency 0.0
            shininess 0.5
        }
    }
    geometry IndexedFaceSet {
        ccw TRUE
        solid FALSE
        coord DEF co Coordinate {
            point [
                1.7416 -0.9828 -1.4567, 1.7416 -1.1589 -1.4567, 1.5655 -0.9828 -1.4567, 1.5655 -1.1589 -1.4567, 1.878 -1.3071 1.3465, 1.4291 -1.3071 1.3465, 1.878 -1.3465 1.3465, 1.4291 -1.3465 1.3465, 1.878 -1.5433 1.3465, 1.4291 -1.5433 1.3465, 1.4291 -1.3465 0.8976, 1.4291 -1.3071 0.8976, 1.4291 -1.304 0.8972, 1.4291 -1.1879 1.3308, 1.4291 -1.3012 0.8961, 1.4291 -1.0768 1.2847, 1.4291 -1.2987 0.8942, 1.4291 -0.9814 1.2115, 1.4291 -1.2969 0.8917, 1.4291 -0.9082 1.1161, 1.4291 -1.2957 0.8889, 1.4291 -0.8622 1.005, 1.4291 -1.2953 0.8858, 1.4291 -0.8465 0.8858, 1.4291 -1.2953 -1.2205, 1.4291 -0.8465 -1.2205, 1.878 -1.2953 -1.2205, 1.878 -0.8465 -1.2205, 1.878 -1.2953 0.8858, 1.878 -0.8465 0.8858, 1.878 -1.2957 0.8889, 1.878 -0.8622 1.005, 1.878 -1.2969 0.8917, 1.878 -0.9082 1.1161, 1.878 -1.2987 0.8942, 1.878 -0.9814 1.2115, 1.878 -1.3012 0.8961, 1.878 -1.0768 1.2847, 1.878 -1.304 0.8972, 1.878 -1.1879 1.3308, 1.878 -1.3071 0.8976, 1.878 -1.3465 0.8976, 1.4291 -1.5433 0.8976, 1.878 -1.5433 0.8976, 1.878 -5.4803 0.8976, 1.878 -2.5669 0.8976, 1.878 -5.4803 1.3465, 1.878 -2.5669 1.3465, 1.4291 -5.4803 1.3465, 1.4291 -2.5669 1.3465, 1.4291 -5.4803 0.8976, 1.4291 -2.5669 0.8976, 1.7416 -5.7165 1.034, 1.7416 -5.7165 1.2101, 1.5655 -5.7165 1.034, 1.5655 -5.7165 1.2101, 1.7416 1.1825 -1.4567, 1.7416 1.0065 -1.4567, 1.5655 1.1825 -1.4567, 1.5655 1.0065 -1.4567, 1.878 -1.3465 3.0, 1.878 0.8583 3.0, 1.4291 -1.3465 3.0, 1.4291 0.8583 3.0, 1.4291 0.8666 2.5477, 1.4291 1.2184 2.8266, 1.4291 0.8685 2.5453, 1.4291 1.2733 2.7392, 1.4291 0.8697 2.5424, 1.4291 1.3073 2.6419, 1.4291 0.8701 2.5394, 1.4291 1.3189 2.5394, 1.4291 0.8701 -1.2205, 1.4291 1.3189 -1.2205, 1.4291 -1.3465 2.5512, 1.4291 0.8583 2.5512, 1.4291 0.8613 2.5508, 1.4291 0.9608 2.9885, 1.4291 0.8642 2.5496, 1.4291 1.0581 2.9544, 1.4291 1.1455 2.8995, 1.878 0.8583 2.5512, 1.878 -1.3465 2.5512, 1.4291 -1.5433 2.5512, 1.878 -1.5433 2.5512, 1.878 0.8685 2.5453, 1.878 1.2184 2.8266, 1.878 0.8666 2.5477, 1.878 1.1455 2.8995, 1.878 0.8642 2.5496, 1.878 1.0581 2.9544, 1.878 0.8613 2.5508, 1.878 0.9608 2.9885, 1.878 0.8701 -1.2205, 1.878 1.3189 -1.2205, 1.878 0.8701 2.5394, 1.878 1.3189 2.5394, 1.878 0.8697 2.5424, 1.878 1.3073 2.6419, 1.878 1.2733 2.7392, 1.878 -5.4803 3.0, 1.878 -2.5669 3.0, 1.4291 -5.4803 3.0, 1.4291 -2.5669 3.0, 1.878 -5.4803 2.5512, 1.878 -2.5669 2.5512, 1.4291 -5.4803 2.5512, 1.4291 -2.5669 2.5512, 1.7416 -5.7165 2.6876, 1.7416 -5.7165 2.8636, 1.5655 -5.7165 2.6876, 1.5655 -5.7165 2.8636, 0.088 -0.9828 -1.4567, 0.088 -1.1589 -1.4567, -0.088 -0.9828 -1.4567, -0.088 -1.1589 -1.4567, 0.2244 -1.3071 1.3465, -0.2244 -1.3071 1.3465, 0.2244 -1.3465 1.3465, -0.2244 -1.3465 1.3465, 0.2244 -1.5433 1.3465, -0.2244 -1.5433 1.3465, -0.2244 -1.3465 0.8976, -0.2244 -1.3071 0.8976, -0.2244 -1.304 0.8972, -0.2244 -1.1879 1.3308, -0.2244 -1.3012 0.8961, -0.2244 -1.0768 1.2847, -0.2244 -1.2987 0.8942, -0.2244 -0.9814 1.2115, -0.2244 -1.2969 0.8917, -0.2244 -0.9082 1.1161, -0.2244 -1.2957 0.8889, -0.2244 -0.8622 1.005, -0.2244 -1.2953 0.8858, -0.2244 -0.8465 0.8858, -0.2244 -1.2953 -1.2205, -0.2244 -0.8465 -1.2205, 0.2244 -1.2953 -1.2205, 0.2244 -0.8465 -1.2205, 0.2244 -1.2953 0.8858, 0.2244 -0.8465 0.8858, 0.2244 -1.2957 0.8889, 0.2244 -0.8622 1.005, 0.2244 -1.2969 0.8917, 0.2244 -0.9082 1.1161, 0.2244 -1.2987 0.8942, 0.2244 -0.9814 1.2115, 0.2244 -1.3012 0.8961, 0.2244 -1.0768 1.2847, 0.2244 -1.304 0.8972, 0.2244 -1.1879 1.3308, 0.2244 -1.3071 0.8976, 0.2244 -1.3465 0.8976, -0.2244 -1.5433 0.8976, 0.2244 -1.5433 0.8976, 0.2244 -5.4803 0.8976, 0.2244 -2.5669 0.8976, 0.2244 -5.4803 1.3465, 0.2244 -2.5669 1.3465, -0.2244 -5.4803 1.3465, -0.2244 -2.5669 1.3465, -0.2244 -5.4803 0.8976, -0.2244 -2.5669 0.8976, 0.088 -5.7165 1.034, 0.088 -5.7165 1.2101, -0.088 -5.7165 1.034, -0.088 -5.7165 1.2101, -1.5655 -0.9828 -1.4567, -1.5655 -1.1589 -1.4567, -1.7416 -0.9828 -1.4567, -1.7416 -1.1589 -1.4567, -1.4291 -1.3071 1.3465, -1.878 -1.3071 1.3465, -1.4291 -1.3465 1.3465, -1.878 -1.3465 1.3465, -1.4291 -1.5433 1.3465, -1.878 -1.5433 1.3465, -1.4291 -0.8465 0.8858, -1.878 -0.8465 0.8858, -1.878 -0.8622 1.005, -1.4291 -0.8622 1.005, -1.878 -0.9082 1.1161, -1.4291 -0.9082 1.1161, -1.878 -0.9814 1.2115, -1.4291 -0.9814 1.2115, -1.878 -1.0768 1.2847, -1.4291 -1.0768 1.2847, -1.878 -1.1879 1.3308, -1.4291 -1.1879 1.3308, -1.4291 -1.3071 0.8976, -1.878 -1.3071 0.8976, -1.878 -1.304 0.8972, -1.4291 -1.304 0.8972, -1.878 -1.3012 0.8961, -1.4291 -1.3012 0.8961, -1.878 -1.2987 0.8942, -1.4291 -1.2987 0.8942, -1.878 -1.2969 0.8917, -1.4291 -1.2969 0.8917, -1.878 -1.2957 0.8889, -1.4291 -1.2957 0.8889, -1.878 -1.2953 0.8858, -1.4291 -1.2953 0.8858, -1.878 -0.8465 -1.2205, -1.4291 -0.8465 -1.2205, -1.4291 -1.2953 -1.2205, -1.878 -1.2953 -1.2205, -1.878 -1.3465 0.8976, -1.4291 -1.3465 0.8976, -1.878 -1.5433 0.8976, -1.4291 -1.5433 0.8976, -1.4291 -5.4803 1.3465, -1.4291 -2.5669 1.3465, -1.878 -5.4803 1.3465, -1.878 -2.5669 1.3465, -1.4291 -5.4803 0.8976, -1.4291 -2.5669 0.8976, -1.878 -5.4803 0.8976, -1.878 -2.5669 0.8976, -1.5655 -5.7165 1.034, -1.5655 -5.7165 1.2101, -1.7416 -5.7165 1.034, -1.7416 -5.7165 1.2101, 0.088 1.1825 -1.4567, 0.088 1.0065 -1.4567, -0.088 1.1825 -1.4567, -0.088 1.0065 -1.4567, 0.2244 -1.3465 3.0, 0.2244 0.8583 3.0, -0.2244 -1.3465 3.0, -0.2244 0.8583 3.0, -0.2244 0.8666 2.5477, -0.2244 1.2184 2.8266, -0.2244 0.8685 2.5453, -0.2244 1.2733 2.7392, -0.2244 0.8697 2.5424, -0.2244 1.3073 2.6419, -0.2244 0.8701 2.5394, -0.2244 1.3189 2.5394, -0.2244 0.8701 -1.2205, -0.2244 1.3189 -1.2205, -0.2244 -1.3465 2.5512, -0.2244 0.8583 2.5512, -0.2244 0.8613 2.5508, -0.2244 0.9608 2.9885, -0.2244 0.8642 2.5496, -0.2244 1.0581 2.9544, -0.2244 1.1455 2.8995, 0.2244 0.8583 2.5512, 0.2244 -1.3465 2.5512, -0.2244 -1.5433 2.5512, 0.2244 -1.5433 2.5512, 0.2244 0.8685 2.5453, 0.2244 1.2184 2.8266, 0.2244 0.8666 2.5477, 0.2244 1.1455 2.8995, 0.2244 0.8642 2.5496, 0.2244 1.0581 2.9544, 0.2244 0.8613 2.5508, 0.2244 0.9608 2.9885, 0.2244 0.8701 -1.2205, 0.2244 1.3189 -1.2205, 0.2244 0.8701 2.5394, 0.2244 1.3189 2.5394, 0.2244 0.8697 2.5424, 0.2244 1.3073 2.6419, 0.2244 1.2733 2.7392, 0.2244 -5.4803 3.0, 0.2244 -2.5669 3.0, -0.2244 -5.4803 3.0, -0.2244 -2.5669 3.0, 0.2244 -5.4803 2.5512, 0.2244 -2.5669 2.5512, -0.2244 -5.4803 2.5512, -0.2244 -2.5669 2.5512, 0.088 -5.7165 2.6876, 0.088 -5.7165 2.8636, -0.088 -5.7165 2.6876, -0.088 -5.7165 2.8636, -1.5655 1.1825 -1.4567, -1.5655 1.0065 -1.4567, -1.7416 1.1825 -1.4567, -1.7416 1.0065 -1.4567, -1.878 0.8583 2.5512, -1.4291 0.8583 2.5512, -1.878 -1.3465 2.5512, -1.4291 -1.3465 2.5512, -1.878 -1.5433 2.5512, -1.4291 -1.5433 2.5512, -1.4291 1.3189 2.5394, -1.878 1.3189 2.5394, -1.878 1.3073 2.6419, -1.4291 1.3073 2.6419, -1.878 1.2733 2.7392, -1.4291 1.2733 2.7392, -1.878 1.2184 2.8266, -1.4291 1.2184 2.8266, -1.878 1.1455 2.8995, -1.4291 1.1455 2.8995, -1.878 1.0581 2.9544, -1.4291 1.0581 2.9544, -1.878 0.9608 2.9885, -1.4291 0.9608 2.9885, -1.878 0.8583 3.0, -1.4291 0.8583 3.0, -1.878 0.8613 2.5508, -1.4291 0.8613 2.5508, -1.878 0.8642 2.5496, -1.4291 0.8642 2.5496, -1.878 0.8666 2.5477, -1.4291 0.8666 2.5477, -1.878 0.8685 2.5453, -1.4291 0.8685 2.5453, -1.878 0.8697 2.5424, -1.4291 0.8697 2.5424, -1.878 0.8701 2.5394, -1.4291 0.8701 2.5394, -1.878 1.3189 -1.2205, -1.4291 1.3189 -1.2205, -1.4291 0.8701 -1.2205, -1.878 0.8701 -1.2205, -1.878 -1.3465 3.0, -1.4291 -1.3465 3.0, -1.878 -5.4803 2.5512, -1.878 -2.5669 2.5512, -1.4291 -5.4803 2.5512, -1.4291 -2.5669 2.5512, -1.4291 -5.4803 3.0, -1.4291 -2.5669 3.0, -1.878 -5.4803 3.0, -1.878 -2.5669 3.0, -1.5655 -5.7165 2.6876, -1.5655 -5.7165 2.8636, -1.7416 -5.7165 2.6876, -1.7416 -5.7165 2.8636
            ]
        }
        coordIndex [
            0,1,2,-1,2,1,3,-1,4,5,6,-1,6,5,7,-1,6,7,8,-1,8,7,9,-1,10,7,11,-1,11,7,5,-1,11,5,12,-1,12,5,13,-1,12,13,14,-1,14,13,15,-1,14,15,16,-1,16,15,17,-1,16,17,18,-1,18,17,19,-1,18,19,20,-1,20,19,21,-1,20,21,22,-1,22,21,23,-1,22,23,24,-1,24,23,25,-1,26,27,28,-1,28,27,29,-1,28,29,30,-1,30,29,31,-1,30,31,32,-1,32,31,33,-1,32,33,34,-1,34,33,35,-1,34,35,36,-1,36,35,37,-1,36,37,38,-1,38,37,39,-1,38,39,40,-1,40,39,4,-1,40,4,41,-1,41,4,6,-1,29,23,21,-1,29,21,31,-1,31,21,19,-1,31,19,33,-1,33,19,17,-1,33,17,35,-1,35,17,15,-1,35,15,37,-1,37,15,13,-1,37,13,39,-1,39,13,5,-1,39,5,4,-1,40,11,12,-1,40,12,38,-1,38,12,14,-1,38,14,36,-1,36,14,16,-1,36,16,34,-1,34,16,18,-1,34,18,32,-1,32,18,20,-1,32,20,30,-1,30,20,22,-1,30,22,28,-1,25,23,27,-1,27,23,29,-1,26,28,24,-1,24,28,22,-1,11,40,10,-1,10,40,41,-1,10,41,42,-1,42,41,43,-1,44,45,46,-1,46,45,47,-1,48,49,50,-1,50,49,51,-1,50,51,44,-1,44,51,45,-1,46,47,48,-1,48,47,49,-1,52,53,54,-1,54,53,55,-1,56,57,58,-1,58,57,59,-1,60,61,62,-1,62,61,63,-1,64,65,66,-1,66,65,67,-1,66,67,68,-1,68,67,69,-1,68,69,70,-1,70,69,71,-1,70,71,72,-1,72,71,73,-1,74,62,75,-1,75,62,63,-1,75,63,76,-1,76,63,77,-1,76,77,78,-1,78,77,79,-1,78,79,64,-1,64,79,80,-1,64,80,65,-1,75,81,74,-1,74,81,82,-1,74,82,83,-1,83,82,84,-1,85,86,87,-1,87,86,88,-1,87,88,89,-1,89,88,90,-1,89,90,91,-1,91,90,92,-1,91,92,81,-1,81,92,61,-1,81,61,82,-1,82,61,60,-1,93,94,95,-1,95,94,96,-1,95,96,97,-1,97,96,98,-1,97,98,85,-1,85,98,99,-1,85,99,86,-1,96,71,69,-1,96,69,98,-1,98,69,67,-1,98,67,99,-1,99,67,65,-1,99,65,86,-1,86,65,80,-1,86,80,88,-1,88,80,79,-1,88,79,90,-1,90,79,77,-1,90,77,92,-1,92,77,63,-1,92,63,61,-1,81,75,76,-1,81,76,91,-1,91,76,78,-1,91,78,89,-1,89,78,64,-1,89,64,87,-1,87,64,66,-1,87,66,85,-1,85,66,68,-1,85,68,97,-1,97,68,70,-1,97,70,95,-1,73,71,94,-1,94,71,96,-1,93,95,72,-1,72,95,70,-1,100,101,102,-1,102,101,103,-1,104,105,100,-1,100,105,101,-1,106,107,104,-1,104,107,105,-1,102,103,106,-1,106,103,107,-1,108,109,110,-1,110,109,111,-1,102,111,100,-1,100,111,109,-1,106,110,102,-1,102,110,111,-1,108,104,109,-1,109,104,100,-1,104,108,106,-1,106,108,110,-1,57,93,59,-1,59,93,72,-1,56,94,57,-1,57,94,93,-1,73,58,72,-1,72,58,59,-1,58,73,56,-1,56,73,94,-1,1,26,3,-1,3,26,24,-1,0,27,1,-1,1,27,26,-1,25,2,24,-1,24,2,3,-1,2,25,0,-1,0,25,27,-1,48,55,46,-1,46,55,53,-1,50,54,48,-1,48,54,55,-1,52,44,53,-1,53,44,46,-1,44,52,50,-1,50,52,54,-1,112,113,114,-1,114,113,115,-1,116,117,118,-1,118,117,119,-1,118,119,120,-1,120,119,121,-1,122,119,123,-1,123,119,117,-1,123,117,124,-1,124,117,125,-1,124,125,126,-1,126,125,127,-1,126,127,128,-1,128,127,129,-1,128,129,130,-1,130,129,131,-1,130,131,132,-1,132,131,133,-1,132,133,134,-1,134,133,135,-1,134,135,136,-1,136,135,137,-1,138,139,140,-1,140,139,141,-1,140,141,142,-1,142,141,143,-1,142,143,144,-1,144,143,145,-1,144,145,146,-1,146,145,147,-1,146,147,148,-1,148,147,149,-1,148,149,150,-1,150,149,151,-1,150,151,152,-1,152,151,116,-1,152,116,153,-1,153,116,118,-1,141,135,133,-1,141,133,143,-1,143,133,131,-1,143,131,145,-1,145,131,129,-1,145,129,147,-1,147,129,127,-1,147,127,149,-1,149,127,125,-1,149,125,151,-1,151,125,117,-1,151,117,116,-1,152,123,124,-1,152,124,150,-1,150,124,126,-1,150,126,148,-1,148,126,128,-1,148,128,146,-1,146,128,130,-1,146,130,144,-1,144,130,132,-1,144,132,142,-1,142,132,134,-1,142,134,140,-1,137,135,139,-1,139,135,141,-1,138,140,136,-1,136,140,134,-1,123,152,122,-1,122,152,153,-1,122,153,154,-1,154,153,155,-1,156,157,158,-1,158,157,159,-1,160,161,162,-1,162,161,163,-1,162,163,156,-1,156,163,157,-1,158,159,160,-1,160,159,161,-1,164,165,166,-1,166,165,167,-1,168,169,170,-1,170,169,171,-1,172,173,174,-1,174,173,175,-1,174,175,176,-1,176,175,177,-1,178,179,180,-1,178,180,181,-1,181,180,182,-1,181,182,183,-1,183,182,184,-1,183,184,185,-1,185,184,186,-1,185,186,187,-1,187,186,188,-1,187,188,189,-1,189,188,173,-1,189,173,172,-1,190,191,192,-1,190,192,193,-1,193,192,194,-1,193,194,195,-1,195,194,196,-1,195,196,197,-1,197,196,198,-1,197,198,199,-1,199,198,200,-1,199,200,201,-1,201,200,202,-1,201,202,203,-1,204,179,205,-1,205,179,178,-1,206,203,207,-1,207,203,202,-1,191,190,208,-1,208,190,209,-1,208,209,210,-1,210,209,211,-1,208,175,191,-1,191,175,173,-1,191,173,192,-1,192,173,188,-1,192,188,194,-1,194,188,186,-1,194,186,196,-1,196,186,184,-1,196,184,198,-1,198,184,182,-1,198,182,200,-1,200,182,180,-1,200,180,202,-1,202,180,179,-1,202,179,207,-1,207,179,204,-1,206,205,203,-1,203,205,178,-1,203,178,201,-1,201,178,181,-1,201,181,199,-1,199,181,183,-1,199,183,197,-1,197,183,185,-1,197,185,195,-1,195,185,187,-1,195,187,193,-1,193,187,189,-1,193,189,190,-1,190,189,172,-1,190,172,209,-1,209,172,174,-1,212,213,214,-1,214,213,215,-1,216,217,212,-1,212,217,213,-1,218,219,216,-1,216,219,217,-1,214,215,218,-1,218,215,219,-1,220,221,222,-1,222,221,223,-1,224,225,226,-1,226,225,227,-1,228,229,230,-1,230,229,231,-1,232,233,234,-1,234,233,235,-1,234,235,236,-1,236,235,237,-1,236,237,238,-1,238,237,239,-1,238,239,240,-1,240,239,241,-1,242,230,243,-1,243,230,231,-1,243,231,244,-1,244,231,245,-1,244,245,246,-1,246,245,247,-1,246,247,232,-1,232,247,248,-1,232,248,233,-1,243,249,242,-1,242,249,250,-1,242,250,251,-1,251,250,252,-1,253,254,255,-1,255,254,256,-1,255,256,257,-1,257,256,258,-1,257,258,259,-1,259,258,260,-1,259,260,249,-1,249,260,229,-1,249,229,250,-1,250,229,228,-1,261,262,263,-1,263,262,264,-1,263,264,265,-1,265,264,266,-1,265,266,253,-1,253,266,267,-1,253,267,254,-1,264,239,237,-1,264,237,266,-1,266,237,235,-1,266,235,267,-1,267,235,233,-1,267,233,254,-1,254,233,248,-1,254,248,256,-1,256,248,247,-1,256,247,258,-1,258,247,245,-1,258,245,260,-1,260,245,231,-1,260,231,229,-1,249,243,244,-1,249,244,259,-1,259,244,246,-1,259,246,257,-1,257,246,232,-1,257,232,255,-1,255,232,234,-1,255,234,253,-1,253,234,236,-1,253,236,265,-1,265,236,238,-1,265,238,263,-1,241,239,262,-1,262,239,264,-1,261,263,240,-1,240,263,238,-1,268,269,270,-1,270,269,271,-1,272,273,268,-1,268,273,269,-1,274,275,272,-1,272,275,273,-1,270,271,274,-1,274,271,275,-1,276,277,278,-1,278,277,279,-1,280,281,282,-1,282,281,283,-1,284,285,286,-1,286,285,287,-1,286,287,288,-1,288,287,289,-1,290,291,292,-1,290,292,293,-1,293,292,294,-1,293,294,295,-1,295,294,296,-1,295,296,297,-1,297,296,298,-1,297,298,299,-1,299,298,300,-1,299,300,301,-1,301,300,302,-1,301,302,303,-1,303,302,304,-1,303,304,305,-1,285,284,306,-1,285,306,307,-1,307,306,308,-1,307,308,309,-1,309,308,310,-1,309,310,311,-1,311,310,312,-1,311,312,313,-1,313,312,314,-1,313,314,315,-1,315,314,316,-1,315,316,317,-1,318,291,319,-1,319,291,290,-1,320,317,321,-1,321,317,316,-1,310,296,312,-1,312,296,294,-1,312,294,314,-1,314,294,292,-1,314,292,316,-1,316,292,291,-1,316,291,321,-1,321,291,318,-1,286,322,284,-1,284,322,304,-1,284,304,306,-1,306,304,302,-1,306,302,308,-1,308,302,300,-1,308,300,310,-1,310,300,298,-1,310,298,296,-1,313,297,311,-1,311,297,299,-1,311,299,309,-1,309,299,301,-1,309,301,307,-1,307,301,303,-1,307,303,285,-1,285,303,305,-1,285,305,287,-1,287,305,323,-1,320,319,317,-1,317,319,290,-1,317,290,315,-1,315,290,293,-1,315,293,313,-1,313,293,295,-1,313,295,297,-1,323,305,322,-1,322,305,304,-1,324,325,326,-1,326,325,327,-1,326,327,328,-1,328,327,329,-1,330,331,324,-1,324,331,325,-1,328,329,330,-1,330,329,331,-1,332,333,334,-1,334,333,335,-1,270,279,268,-1,268,279,277,-1,274,278,270,-1,270,278,279,-1,276,272,277,-1,277,272,268,-1,272,276,274,-1,274,276,278,-1,225,261,227,-1,227,261,240,-1,224,262,225,-1,225,262,261,-1,241,226,240,-1,240,226,227,-1,226,241,224,-1,224,241,262,-1,113,138,115,-1,115,138,136,-1,112,139,113,-1,113,139,138,-1,137,114,136,-1,136,114,115,-1,114,137,112,-1,112,137,139,-1,160,167,158,-1,158,167,165,-1,162,166,160,-1,160,166,167,-1,164,156,165,-1,165,156,158,-1,156,164,162,-1,162,164,166,-1,330,335,328,-1,328,335,333,-1,324,334,330,-1,330,334,335,-1,332,326,333,-1,333,326,328,-1,326,332,324,-1,324,332,334,-1,281,320,283,-1,283,320,321,-1,280,319,281,-1,281,319,320,-1,318,282,321,-1,321,282,283,-1,282,318,280,-1,280,318,319,-1,169,206,171,-1,171,206,207,-1,168,205,169,-1,169,205,206,-1,204,170,207,-1,207,170,171,-1,170,204,168,-1,168,204,205,-1,214,223,212,-1,212,223,221,-1,218,222,214,-1,214,222,223,-1,220,216,221,-1,221,216,212,-1,216,220,218,-1,218,220,222,-1,
        ]
    }
}
Shape{
    appearance Appearance {
        material  Material {
            diffuseColor 0.8 0.8 0.8
            specularColor 1.0 1.0 1.0
            ambientIntensity 1.0
            transparency 0.0
            shininess 0.5
        }
    }
    geometry IndexedFaceSet {
        ccw TRUE
        solid FALSE
        coord DEF co Coordinate {
            point [
                0.3937 -6.4646 3.878, 0.3937 -5.4803 3.878, 0.3937 -5.7608 4.4685, 0.3937 -5.4803 4.4685, -0.3937 -5.4803 4.4685, -0.3937 -5.4803 3.878, -0.3937 -5.7608 4.4685, -0.3937 -6.4646 3.878, -2.7105 -6.4706 0.0683, -2.706 -6.4751 0.0591, -2.6772 -6.5039 0.0591, -2.7003 -6.4808 0.0505, -2.6935 -6.4876 0.0427, -2.6935 -6.4876 3.8549, -2.6994 -6.4818 3.8483, -2.6772 -6.5039 3.8386, -2.7087 -6.4724 3.8334, -2.7121 -6.469 3.8252, -2.7165 -6.4646 0.0984, -2.7159 -6.4652 0.0881, -2.7139 -6.4673 0.078, -2.6772 -6.5039 1.122, -2.6772 -6.5039 1.9488, -2.7165 -6.4646 3.7992, -2.6772 -6.5039 3.6811, -2.716 -6.4651 3.808, -2.7146 -6.4665 3.8167, 2.6553 -6.4665 0.0217, 2.6638 -6.469 0.0241, 2.6772 -6.5039 0.0591, -2.5197 -6.5039 0.0591, -2.6857 -6.4808 0.036, 2.672 -6.4724 0.0275, 2.6869 -6.4818 0.0369, 2.6935 -6.4876 0.0427, -2.6772 -6.4751 0.0302, -2.6679 -6.4706 0.0257, -2.6582 -6.4673 0.0224, -2.6481 -6.4652 0.0204, -2.6378 -6.4646 0.0197, -0.8268 -6.5039 0.0591, 0.0559 -6.4646 0.0197, 0.8268 -6.5039 0.0591, 2.6378 -6.4646 0.0197, 2.6466 -6.4651 0.0202, 2.6772 -6.5039 3.8386, 2.6935 -6.4876 3.8549, 2.6869 -6.4818 3.8608, -2.6553 -6.4665 3.876, -2.6638 -6.469 3.8735, -2.6378 -6.4646 3.878, -2.5197 -6.5039 3.8386, -0.8268 -6.5039 3.8386, 2.672 -6.4724 3.8702, 2.6638 -6.469 3.8735, 2.6553 -6.4665 3.876, 2.6466 -6.4651 3.8775, 2.6378 -6.4646 3.878, 0.8268 -6.5039 3.8386, -2.672 -6.4724 3.8702, -2.6869 -6.4818 3.8608, -2.6466 -6.4651 3.8775, 2.7146 -6.4665 3.8167, 2.7121 -6.469 3.8252, 2.7165 -6.4646 3.7992, 2.6772 -6.5039 3.6811, 2.6772 -6.5039 1.9488, 2.7087 -6.4724 3.8334, 2.6994 -6.4818 3.8483, 2.7165 -6.4646 0.0984, 2.716 -6.4651 3.808, 2.6994 -6.4818 0.0493, 2.7087 -6.4724 0.0643, 2.7121 -6.469 0.0724, 2.7146 -6.4665 0.0809, 2.6772 -6.5039 1.122, 2.716 -6.4651 0.0896, -0.9449 -6.5039 2.0276, -0.9843 -6.4646 2.0669, -2.3622 -6.5039 2.0276, -2.3228 -6.4646 2.0669, -0.9449 -6.5039 3.5236, -0.9843 -6.4646 3.4843, -2.3228 -6.4646 3.4843, -2.3622 -6.5039 3.5236, -0.7087 -6.5039 2.0276, -0.6693 -6.4646 2.0669, -0.7087 -6.5039 3.5236, -0.6693 -6.4646 3.4843, 0.7087 -6.5039 2.0276, 0.6693 -6.4646 2.0669, 0.6693 -6.4646 3.4843, 0.7087 -6.5039 3.5236, -2.3622 -6.5039 1.8701, -2.3228 -6.4646 1.8307, -0.9449 -6.5039 1.8701, -0.9843 -6.4646 1.8307, -2.3622 -6.5039 0.4758, -2.3228 -6.4646 0.4921, -2.3622 -6.5039 1.122, -0.9449 -6.5039 1.122, -0.9843 -6.4646 0.4921, -0.9449 -6.5039 0.4758, -2.2604 -6.5039 0.374, -2.2441 -6.4646 0.4134, -1.063 -6.4646 0.4134, -1.0467 -6.5039 0.374, 2.3622 -6.5039 2.1294, 2.3228 -6.4646 2.1457, 2.2604 -6.5039 2.0276, 2.2441 -6.4646 2.0669, 2.3622 -6.5039 3.5236, 2.3228 -6.4646 3.4843, 1.063 -6.4646 2.0669, 1.0467 -6.5039 2.0276, 0.9449 -6.5039 3.5236, 0.9843 -6.4646 3.4843, 0.9843 -6.4646 2.1457, 0.9449 -6.5039 2.1294, 0.7087 -6.5039 0.4758, 0.6693 -6.4646 0.4921, 0.6069 -6.5039 0.374, 0.5906 -6.4646 0.4134, 0.7087 -6.5039 1.8701, 0.6693 -6.4646 1.8307, 0.7087 -6.5039 1.122, -0.5906 -6.4646 0.4134, -0.6069 -6.5039 0.374, -0.7087 -6.5039 1.8701, -0.6693 -6.4646 1.8307, -0.6693 -6.4646 0.4921, -0.7087 -6.5039 0.4758, -0.7087 -6.5039 1.122, 0.9449 -6.5039 0.374, 0.9843 -6.4646 0.4134, 0.9449 -6.5039 1.122, 0.9843 -6.4646 1.8307, 0.9449 -6.5039 1.8701, 2.3622 -6.5039 0.374, 2.3228 -6.4646 0.4134, 2.3228 -6.4646 1.8307, 2.3622 -6.5039 1.8701, 2.3622 -6.5039 1.122, -2.6772 -1.3465 0.0302, -2.7139 -1.3465 0.078, -2.706 -1.3465 0.0591, -2.7165 -1.3465 0.0984, -2.6935 -1.3465 0.0427, -2.6582 -1.3465 0.0224, -2.6378 -1.3465 0.0197, -2.6378 -4.0002 0.0197, 2.6869 -1.3465 0.0369, 2.6994 -1.3465 0.0493, 2.7087 -1.3465 0.0643, 2.7146 -1.3465 0.0809, 2.7165 -1.3465 0.0984, 2.6378 -4.0002 0.0197, 2.6378 -1.3465 0.0197, 2.6553 -1.3465 0.0217, 2.672 -1.3465 0.0275, 2.6553 -1.3465 3.876, 2.6378 -1.3465 3.878, 2.672 -1.3465 3.8702, 2.7146 -1.3465 3.8167, 2.7165 -1.3465 3.7992, 2.6869 -1.3465 3.8608, 2.6994 -1.3465 3.8483, 2.7087 -1.3465 3.8334, -2.6553 -1.3465 3.876, -2.6378 -1.3465 3.878, -2.672 -1.3465 3.8702, -2.6869 -1.3465 3.8608, -2.6994 -1.3465 3.8483, -2.7087 -1.3465 3.8334, -2.7146 -1.3465 3.8167, -2.7165 -1.3465 3.7992
            ]
        }
        coordIndex [
            0,1,2,-1,2,1,3,-1,4,3,5,-1,5,3,1,-1,6,4,7,-1,7,4,5,-1,2,3,6,-1,6,3,4,-1,0,2,7,-1,7,2,6,-1,8,9,10,-1,10,9,11,-1,10,11,12,-1,13,14,15,-1,15,14,16,-1,15,16,17,-1,18,19,10,-1,10,19,20,-1,10,20,8,-1,10,21,18,-1,18,21,22,-1,18,22,23,-1,23,22,24,-1,23,24,25,-1,25,24,15,-1,25,15,26,-1,26,15,17,-1,27,28,29,-1,10,12,30,-1,30,12,31,-1,28,32,29,-1,29,32,33,-1,29,33,34,-1,31,35,30,-1,30,35,36,-1,30,36,37,-1,37,38,30,-1,30,38,39,-1,30,39,40,-1,40,39,41,-1,40,41,42,-1,42,41,43,-1,42,43,29,-1,29,43,44,-1,29,44,27,-1,45,46,47,-1,48,49,15,-1,50,51,52,-1,47,53,45,-1,45,53,54,-1,45,54,55,-1,55,56,45,-1,45,56,57,-1,45,57,58,-1,58,57,0,-1,58,0,52,-1,52,0,7,-1,52,7,50,-1,49,59,15,-1,15,59,60,-1,15,60,13,-1,51,50,15,-1,15,50,61,-1,15,61,48,-1,62,63,45,-1,64,65,66,-1,63,67,45,-1,45,67,68,-1,45,68,46,-1,64,66,69,-1,65,64,45,-1,45,64,70,-1,45,70,62,-1,29,34,71,-1,71,72,29,-1,29,72,73,-1,29,73,74,-1,66,75,69,-1,69,75,29,-1,69,29,76,-1,76,29,74,-1,77,78,79,-1,79,78,80,-1,81,82,77,-1,77,82,78,-1,83,84,80,-1,80,84,79,-1,84,83,81,-1,81,83,82,-1,85,86,87,-1,87,86,88,-1,89,90,85,-1,85,90,86,-1,91,92,88,-1,88,92,87,-1,92,91,89,-1,89,91,90,-1,93,94,95,-1,95,94,96,-1,97,98,99,-1,99,98,94,-1,99,94,93,-1,95,96,100,-1,100,96,101,-1,100,101,102,-1,103,104,97,-1,97,104,98,-1,105,106,101,-1,101,106,102,-1,106,105,103,-1,103,105,104,-1,107,108,109,-1,109,108,110,-1,111,112,107,-1,107,112,108,-1,113,114,110,-1,110,114,109,-1,115,116,111,-1,111,116,112,-1,117,118,113,-1,113,118,114,-1,118,117,115,-1,115,117,116,-1,119,120,121,-1,121,120,122,-1,123,124,125,-1,125,124,120,-1,125,120,119,-1,126,127,122,-1,122,127,121,-1,128,129,123,-1,123,129,124,-1,130,131,126,-1,126,131,127,-1,131,130,132,-1,132,130,129,-1,132,129,128,-1,133,134,135,-1,135,134,136,-1,135,136,137,-1,138,139,133,-1,133,139,134,-1,140,141,136,-1,136,141,137,-1,141,140,142,-1,142,140,139,-1,142,139,138,-1,36,35,143,-1,144,145,9,-1,9,8,144,-1,144,8,20,-1,144,20,146,-1,146,20,19,-1,146,19,18,-1,143,35,147,-1,35,31,147,-1,147,31,12,-1,147,12,145,-1,145,12,11,-1,145,11,9,-1,148,149,150,-1,36,143,37,-1,37,143,148,-1,37,148,38,-1,38,148,150,-1,38,150,39,-1,151,152,71,-1,71,152,153,-1,71,153,72,-1,154,155,69,-1,69,76,154,-1,154,76,74,-1,154,74,153,-1,153,74,73,-1,153,73,72,-1,156,157,158,-1,32,28,158,-1,158,28,27,-1,158,27,156,-1,156,27,44,-1,156,44,43,-1,158,159,32,-1,32,159,151,-1,32,151,33,-1,33,151,71,-1,33,71,34,-1,47,46,68,-1,160,161,57,-1,54,162,55,-1,55,162,160,-1,55,160,56,-1,56,160,57,-1,67,63,163,-1,163,63,62,-1,163,62,164,-1,164,62,70,-1,164,70,64,-1,54,53,162,-1,162,53,47,-1,162,47,165,-1,165,47,68,-1,165,68,166,-1,166,68,67,-1,166,67,167,-1,167,67,163,-1,59,49,168,-1,168,49,48,-1,168,48,169,-1,169,48,61,-1,169,61,50,-1,14,13,60,-1,168,170,59,-1,59,170,171,-1,59,171,60,-1,60,171,172,-1,60,172,14,-1,14,172,173,-1,14,173,16,-1,174,175,23,-1,23,25,174,-1,174,25,26,-1,174,26,173,-1,173,26,17,-1,173,17,16,-1,
        ]
    }
}
Shape{
    appearance Appearance {
        material  Material {
            diffuseColor 0.6039215686274509 0.6039215686274509 0.6039215686274509
            specularColor 0.7529411764705882 0.7529411764705882 0.7529411764705882
            ambientIntensity 0.7529
            transparency 0.0
            shininess 0.5
        }
    }
    geometry IndexedFaceSet {
        ccw TRUE
        solid FALSE
        coord DEF co Coordinate {
            point [
                0.2383 -3.9774 0.0236, 0.2383 -3.999 0.0236, 0.2383 -3.9774 0.0197, 0.2383 -3.999 0.0197, 0.3392 -3.999 0.0236, 0.3392 -3.999 0.0197, 0.3392 -3.8021 0.0236, 0.3392 -3.8021 0.0197, 0.3128 -3.8021 0.0236, 0.3128 -3.8021 0.0197, 0.3128 -3.9774 0.0236, 0.3128 -3.9774 0.0197, 0.0751 -3.9672 0.0236, 0.0751 -3.9888 0.0236, 0.0751 -3.9672 0.0197, 0.0751 -3.9888 0.0197, 0.0961 -3.9974 0.0236, 0.1293 -4.0014 0.0236, 0.1293 -4.0014 0.0197, 0.1239 -4.0013 0.0197, 0.1239 -4.0013 0.0236, 0.116 -4.0002 0.0197, 0.0961 -3.9974 0.0197, 0.2215 -3.9043 0.0236, 0.2215 -3.9043 0.0197, 0.2196 -3.9271 0.0197, 0.2196 -3.9271 0.0236, 0.2137 -3.9479 0.0197, 0.2137 -3.9479 0.0236, 0.2032 -3.9666 0.0197, 0.2032 -3.9666 0.0236, 0.1884 -3.9822 0.0197, 0.1884 -3.9822 0.0236, 0.1726 -3.9923 0.0197, 0.1726 -3.9923 0.0236, 0.1535 -3.9989 0.0197, 0.1535 -3.9989 0.0236, 0.1408 -4.0002 0.0197, 0.1214 -3.7997 0.0236, 0.1214 -3.7997 0.0197, 0.1412 -3.8013 0.0197, 0.1412 -3.8013 0.0236, 0.1631 -3.8077 0.0197, 0.1631 -3.8077 0.0236, 0.1818 -3.8185 0.0197, 0.1818 -3.8185 0.0236, 0.1996 -3.8356 0.0197, 0.1996 -3.8356 0.0236, 0.2111 -3.854 0.0197, 0.2111 -3.854 0.0236, 0.2187 -3.8763 0.0197, 0.2187 -3.8763 0.0236, 0.0751 -3.8075 0.0236, 0.0751 -3.8075 0.0197, 0.0979 -3.8013 0.0197, 0.0979 -3.8013 0.0236, 0.0751 -3.8339 0.0236, 0.0751 -3.8339 0.0197, 0.1212 -3.8213 0.0236, 0.1212 -3.8213 0.0197, 0.0973 -3.8244 0.0197, 0.0973 -3.8244 0.0236, 0.1951 -3.9026 0.0236, 0.1951 -3.9026 0.0197, 0.1942 -3.8873 0.0197, 0.1942 -3.8873 0.0236, 0.1889 -3.8663 0.0197, 0.1889 -3.8663 0.0236, 0.1808 -3.8511 0.0197, 0.1808 -3.8511 0.0236, 0.1689 -3.8379 0.0197, 0.1689 -3.8379 0.0236, 0.1553 -3.8288 0.0197, 0.1553 -3.8288 0.0236, 0.1406 -3.8235 0.0197, 0.1406 -3.8235 0.0236, 0.1256 -3.9798 0.0236, 0.1256 -3.9798 0.0197, 0.144 -3.9777 0.0197, 0.144 -3.9777 0.0236, 0.1583 -3.9724 0.0197, 0.1583 -3.9724 0.0236, 0.1704 -3.9643 0.0197, 0.1704 -3.9643 0.0236, 0.1796 -3.9545 0.0197, 0.1796 -3.9545 0.0236, 0.1878 -3.9409 0.0197, 0.1878 -3.9409 0.0236, 0.1931 -3.924 0.0197, 0.1931 -3.924 0.0236, 0.0786 -3.9691 0.0197, 0.0786 -3.9691 0.0236, 0.0995 -3.9769 0.0197, 0.0995 -3.9769 0.0236, -0.0689 -3.9774 0.0236, -0.0689 -3.999 0.0236, -0.0689 -3.9774 0.0197, -0.0689 -3.999 0.0197, 0.0367 -3.999 0.0236, 0.0367 -3.999 0.0197, 0.0367 -3.8021 0.0236, 0.0367 -3.8021 0.0197, -0.0641 -3.8021 0.0236, -0.0641 -3.8021 0.0197, -0.0641 -3.8237 0.0236, -0.0641 -3.8237 0.0197, 0.0103 -3.8237 0.0236, 0.0103 -3.8237 0.0197, 0.0103 -3.8885 0.0236, 0.0103 -3.8885 0.0197, -0.0593 -3.8885 0.0236, -0.0593 -3.8885 0.0197, -0.0593 -3.9101 0.0236, -0.0593 -3.9101 0.0197, 0.0103 -3.9101 0.0236, 0.0103 -3.9101 0.0197, 0.0103 -3.9774 0.0236, 0.0103 -3.9774 0.0197, -0.1609 -3.999 0.0236, -0.1073 -3.999 0.0236, -0.1609 -3.999 0.0197, -0.1073 -3.999 0.0197, -0.1073 -3.8021 0.0236, -0.1073 -3.8021 0.0197, -0.1629 -3.8021 0.0236, -0.1629 -3.8021 0.0197, -0.2658 -3.8981 0.0236, -0.2658 -3.8981 0.0197, -0.2644 -3.8795 0.0197, -0.2644 -3.8795 0.0236, -0.2591 -3.8602 0.0197, -0.2591 -3.8602 0.0236, -0.2499 -3.8432 0.0197, -0.2499 -3.8432 0.0236, -0.236 -3.8278 0.0197, -0.236 -3.8278 0.0236, -0.2358 -3.8276 0.0197, -0.2358 -3.8276 0.0236, -0.2144 -3.8132 0.0197, -0.2144 -3.8132 0.0236, -0.1913 -3.8052 0.0197, -0.1913 -3.8052 0.0236, -0.1852 -3.9968 0.0197, -0.1852 -3.9968 0.0236, -0.2079 -3.9901 0.0197, -0.2079 -3.9901 0.0236, -0.2285 -3.9781 0.0197, -0.2285 -3.9781 0.0236, -0.2447 -3.9626 0.0197, -0.2447 -3.9626 0.0236, -0.256 -3.945 0.0197, -0.256 -3.945 0.0236, -0.263 -3.9244 0.0197, -0.263 -3.9244 0.0236, -0.2263 -3.8513 0.0236, -0.2167 -3.8412 0.0236, -0.2023 -3.8319 0.0236, -0.1861 -3.8262 0.0236, -0.1628 -3.8237 0.0236, -0.1338 -3.8237 0.0236, -0.1338 -3.9774 0.0236, -0.1617 -3.9774 0.0236, -0.1825 -3.9754 0.0236, -0.199 -3.9703 0.0236, -0.2125 -3.9623 0.0236, -0.2235 -3.9514 0.0236, -0.2318 -3.9378 0.0236, -0.2376 -3.9193 0.0236, -0.2394 -3.8986 0.0236, -0.2377 -3.879 0.0236, -0.2331 -3.8635 0.0236, -0.1628 -3.8237 0.0197, -0.1338 -3.8237 0.0197, -0.1861 -3.8262 0.0197, -0.2023 -3.8319 0.0197, -0.2167 -3.8412 0.0197, -0.2263 -3.8513 0.0197, -0.2331 -3.8635 0.0197, -0.2377 -3.879 0.0197, -0.2394 -3.8986 0.0197, -0.2376 -3.9193 0.0197, -0.2318 -3.9378 0.0197, -0.2235 -3.9514 0.0197, -0.2125 -3.9623 0.0197, -0.199 -3.9703 0.0197, -0.1825 -3.9754 0.0197, -0.1617 -3.9774 0.0197, -0.1338 -3.9774 0.0197
            ]
        }
        coordIndex [
            0,1,2,-1,2,1,3,-1,1,4,3,-1,3,4,5,-1,4,6,5,-1,5,6,7,-1,6,8,7,-1,7,8,9,-1,8,10,9,-1,9,10,11,-1,10,0,11,-1,11,0,2,-1,8,6,10,-1,10,6,4,-1,10,4,0,-1,0,4,1,-1,12,13,14,-1,14,13,15,-1,15,13,16,-1,17,18,19,-1,17,19,20,-1,20,19,21,-1,20,21,16,-1,16,21,22,-1,16,22,15,-1,23,24,25,-1,23,25,26,-1,26,25,27,-1,26,27,28,-1,28,27,29,-1,28,29,30,-1,30,29,31,-1,30,31,32,-1,32,31,33,-1,32,33,34,-1,34,33,35,-1,34,35,36,-1,36,35,17,-1,17,35,37,-1,17,37,18,-1,38,39,40,-1,38,40,41,-1,41,40,42,-1,41,42,43,-1,43,42,44,-1,43,44,45,-1,45,44,46,-1,45,46,47,-1,47,46,48,-1,47,48,49,-1,49,48,50,-1,49,50,51,-1,51,50,24,-1,51,24,23,-1,52,53,54,-1,52,54,55,-1,55,54,39,-1,55,39,38,-1,52,56,53,-1,53,56,57,-1,58,59,60,-1,58,60,61,-1,61,60,57,-1,61,57,56,-1,62,63,64,-1,62,64,65,-1,65,64,66,-1,65,66,67,-1,67,66,68,-1,67,68,69,-1,69,68,70,-1,69,70,71,-1,71,70,72,-1,71,72,73,-1,73,72,74,-1,73,74,75,-1,75,74,59,-1,75,59,58,-1,76,77,78,-1,76,78,79,-1,79,78,80,-1,79,80,81,-1,81,80,82,-1,81,82,83,-1,83,82,84,-1,83,84,85,-1,85,84,86,-1,85,86,87,-1,87,86,88,-1,87,88,89,-1,89,88,63,-1,89,63,62,-1,12,14,90,-1,12,90,91,-1,91,90,92,-1,91,92,93,-1,93,92,77,-1,93,77,76,-1,79,17,76,-1,76,17,20,-1,76,20,93,-1,93,20,16,-1,93,16,91,-1,91,16,13,-1,91,13,12,-1,56,52,61,-1,61,52,55,-1,61,55,58,-1,58,55,38,-1,58,38,75,-1,75,38,41,-1,75,41,73,-1,73,41,43,-1,73,43,71,-1,71,43,45,-1,71,45,69,-1,69,45,47,-1,69,47,67,-1,67,47,49,-1,67,49,65,-1,65,49,51,-1,65,51,62,-1,62,51,23,-1,62,23,89,-1,89,23,26,-1,89,26,87,-1,87,26,28,-1,87,28,85,-1,85,28,30,-1,85,30,83,-1,83,30,32,-1,83,32,81,-1,81,32,34,-1,81,34,79,-1,79,34,36,-1,79,36,17,-1,94,95,96,-1,96,95,97,-1,95,98,97,-1,97,98,99,-1,98,100,99,-1,99,100,101,-1,100,102,101,-1,101,102,103,-1,102,104,103,-1,103,104,105,-1,104,106,105,-1,105,106,107,-1,106,108,107,-1,107,108,109,-1,108,110,109,-1,109,110,111,-1,110,112,111,-1,111,112,113,-1,112,114,113,-1,113,114,115,-1,114,116,115,-1,115,116,117,-1,116,94,117,-1,117,94,96,-1,98,95,94,-1,94,116,98,-1,98,116,114,-1,98,114,100,-1,104,102,106,-1,106,102,100,-1,106,100,108,-1,108,100,114,-1,108,114,110,-1,110,114,112,-1,118,119,120,-1,120,119,121,-1,119,122,121,-1,121,122,123,-1,122,124,123,-1,123,124,125,-1,126,127,128,-1,126,128,129,-1,129,128,130,-1,129,130,131,-1,131,130,132,-1,131,132,133,-1,133,132,134,-1,133,134,135,-1,135,134,136,-1,135,136,137,-1,137,136,138,-1,137,138,139,-1,139,138,140,-1,139,140,141,-1,141,140,125,-1,141,125,124,-1,118,120,142,-1,118,142,143,-1,143,142,144,-1,143,144,145,-1,145,144,146,-1,145,146,147,-1,147,146,148,-1,147,148,149,-1,149,148,150,-1,149,150,151,-1,151,150,152,-1,151,152,153,-1,153,152,127,-1,153,127,126,-1,131,133,154,-1,154,133,135,-1,154,135,155,-1,155,135,137,-1,155,137,156,-1,156,137,139,-1,156,139,157,-1,157,139,141,-1,157,141,158,-1,158,141,124,-1,158,124,159,-1,159,124,122,-1,159,122,160,-1,160,122,119,-1,160,119,161,-1,161,119,118,-1,161,118,162,-1,162,118,143,-1,162,143,163,-1,163,143,145,-1,163,145,164,-1,164,145,147,-1,164,147,165,-1,165,147,149,-1,165,149,166,-1,166,149,151,-1,166,151,167,-1,167,151,153,-1,167,153,168,-1,168,153,126,-1,168,126,169,-1,169,126,129,-1,169,129,170,-1,170,129,131,-1,170,131,154,-1,158,159,171,-1,171,159,172,-1,158,171,173,-1,158,173,157,-1,157,173,174,-1,157,174,156,-1,156,174,175,-1,156,175,155,-1,155,175,176,-1,155,176,154,-1,154,176,177,-1,154,177,170,-1,170,177,178,-1,170,178,169,-1,169,178,179,-1,169,179,168,-1,168,179,180,-1,168,180,167,-1,167,180,181,-1,167,181,166,-1,166,181,182,-1,166,182,165,-1,165,182,183,-1,165,183,164,-1,164,183,184,-1,164,184,163,-1,163,184,185,-1,163,185,162,-1,162,185,186,-1,162,186,161,-1,160,161,187,-1,187,161,186,-1,159,160,172,-1,172,160,187,-1,
        ]
    }
}
Shape{
    appearance Appearance {
        material  Material {
            diffuseColor 0.8 0.8 0.8
            specularColor 1.0 1.0 1.0
            ambientIntensity 1.0
            transparency 0.0
            shininess 0.5
        }
    }
    geometry IndexedFaceSet {
        ccw TRUE
        solid FALSE
        coord DEF co Coordinate {
            point [
                -0.1338 -3.8237 0.0197, -0.1338 -3.9774 0.0197, -0.1628 -3.8237 0.0197, -0.1617 -3.9774 0.0197, -0.1825 -3.9754 0.0197, -0.2394 -3.8986 0.0197, -0.2377 -3.879 0.0197, -0.2331 -3.8635 0.0197, -0.1861 -3.8262 0.0197, -0.199 -3.9703 0.0197, -0.2125 -3.9623 0.0197, -0.2235 -3.9514 0.0197, -0.2318 -3.9378 0.0197, -0.2376 -3.9193 0.0197, -0.2263 -3.8513 0.0197, -0.2167 -3.8412 0.0197, -0.2023 -3.8319 0.0197
            ]
        }
        coordIndex [
            0,1,2,-1,2,1,3,-1,2,3,4,-1,5,6,2,-1,2,6,7,-1,2,7,8,-1,4,9,2,-1,2,9,10,-1,2,10,11,-1,11,12,2,-1,2,12,13,-1,2,13,5,-1,14,15,7,-1,7,15,16,-1,7,16,8,-1,
        ]
    }
}
Shape{
    appearance Appearance {
        material  Material {
            diffuseColor 0.6039215686274509 0.6039215686274509 0.6039215686274509
            specularColor 0.7529411764705882 0.7529411764705882 0.7529411764705882
            ambientIntensity 0.7529
            transparency 0.0
            shininess 0.5
        }
    }
    geometry IndexedFaceSet {
        ccw TRUE
        solid FALSE
        coord DEF co Coordinate {
            point [
                -0.381 -3.8021 0.0236, -0.4578 -3.999 0.0236, -0.381 -3.8021 0.0197, -0.4578 -3.999 0.0197, -0.429 -3.999 0.0236, -0.429 -3.999 0.0197, -0.4091 -3.9438 0.0236, -0.4091 -3.9438 0.0197, -0.3278 -3.9438 0.0236, -0.3278 -3.9438 0.0197, -0.309 -3.999 0.0236, -0.309 -3.999 0.0197, -0.2802 -3.999 0.0236, -0.2802 -3.999 0.0197, -0.3546 -3.8021 0.0236, -0.3546 -3.8021 0.0197, -0.3706 -3.8399 0.0236, -0.4003 -3.9222 0.0236, -0.3689 -3.8331 0.0236, -0.3676 -3.8261 0.0236, -0.3344 -3.9222 0.0236, -0.3638 -3.8399 0.0236, -0.367 -3.8261 0.0236, -0.3657 -3.8331 0.0236, -0.3344 -3.9222 0.0197, -0.4003 -3.9222 0.0197, -0.3638 -3.8399 0.0197, -0.3657 -3.8331 0.0197, -0.367 -3.8261 0.0197, -0.3676 -3.8261 0.0197, -0.3689 -3.8331 0.0197, -0.3706 -3.8399 0.0197
            ]
        }
        coordIndex [
            0,1,2,-1,2,1,3,-1,1,4,3,-1,3,4,5,-1,4,6,5,-1,5,6,7,-1,6,8,7,-1,7,8,9,-1,8,10,9,-1,9,10,11,-1,10,12,11,-1,11,12,13,-1,12,14,13,-1,13,14,15,-1,14,0,15,-1,15,0,2,-1,16,17,18,-1,18,17,19,-1,6,4,1,-1,17,20,8,-1,21,14,20,-1,20,14,12,-1,20,12,8,-1,8,12,10,-1,8,6,17,-1,17,6,1,-1,17,1,19,-1,19,1,0,-1,19,0,22,-1,22,0,14,-1,22,14,23,-1,23,14,21,-1,20,17,24,-1,24,17,25,-1,21,20,26,-1,26,20,24,-1,21,26,27,-1,21,27,23,-1,23,27,28,-1,23,28,22,-1,19,22,29,-1,29,22,28,-1,19,29,30,-1,19,30,18,-1,18,30,31,-1,18,31,16,-1,17,16,25,-1,25,16,31,-1,
        ]
    }
}
Shape{
    appearance Appearance {
        material  Material {
            diffuseColor 0.8 0.8 0.8
            specularColor 1.0 1.0 1.0
            ambientIntensity 1.0
            transparency 0.0
            shininess 0.5
        }
    }
    geometry IndexedFaceSet {
        ccw TRUE
        solid FALSE
        coord DEF co Coordinate {
            point [
                -0.3344 -3.9222 0.0197, -0.4003 -3.9222 0.0197, -0.3638 -3.8399 0.0197, -0.3706 -3.8399 0.0197, -0.3657 -3.8331 0.0197, -0.3689 -3.8331 0.0197, -0.367 -3.8261 0.0197, -0.3676 -3.8261 0.0197
            ]
        }
        coordIndex [
            0,1,2,-1,2,1,3,-1,2,3,4,-1,4,3,5,-1,4,5,6,-1,6,5,7,-1,
        ]
    }
}