#VRML V2.0 utf8
# 3D model generated by kicad-lcsc-manager
# Based on easyeda2kicad.py v1.0.1

Shape{
    appearance Appearance {
        material  Material {
            diffuseColor 0.7019607843137254 0.7019607843137254 0.7019607843137254
            specularColor 0.050980392156862744 0.050980392156862744 0.050980392156862744
            ambientIntensity 1.0
            transparency 0.0
            shininess 0.5
        }
    }
    geometry IndexedFaceSet {
        ccw TRUE
        solid FALSE
        coord DEF co Coordinate {
            point [
                -0.474 -3.0812 0.3937, -0.4513 -3.0718 0.3937, -0.4513 -3.4124 0.3937, -0.474 2.903 0.3937, -0.4513 2.9124 0.3937, -0.4513 1.5325 0.3937, -6.3583 2.7165 0.3937, -6.3583 3.7402 0.3937, -4.9911 3.7402 0.3937, 0.7202 0.1606 0.3937, 0.7202 -0.1899 0.3937, 0.6867 -0.1899 0.3937, 0.773 -0.2331 0.3937, 1.0863 -0.2355 0.3937, 0.6867 -0.2355 0.3937, 0.6867 1.5325 0.3937, 1.0863 1.5325 0.3937, 0.773 0.1606 0.3937, 0.5545 1.5325 0.3937, 0.5713 -0.1899 0.3937, 0.5545 -0.2355 0.3937, 0.5713 -0.2331 0.3937, 0.6867 -0.2331 0.3937, -0.7107 -0.1227 0.3937, -0.5609 -0.1227 0.3937, -0.7107 -0.2355 0.3937, -0.5233 -0.2331 0.3937, -0.4513 -0.2355 0.3937, -0.4657 -0.2331 0.3937, -0.6146 0.1606 0.3937, -0.7107 1.5325 0.3937, -0.7236 -0.1227 0.3937, -0.7634 -0.2331 0.3937, -0.821 -0.2331 0.3937, -1.1103 -0.2355 0.3937, -0.7107 0.0495 0.3937, -0.6674 0.1606 0.3937, -4.9911 -3.4124 0.3937, -6.3583 -3.4124 0.3937, -4.9911 -0.2355 0.3937, -6.3583 -2.7165 0.3937, 6.3583 -3.4124 0.3937, 2.0 -3.4124 0.3937, 6.3583 -2.7165 0.3937, 2.0 -0.2355 0.3937, 7.3819 -2.7165 0.3937, 7.3819 -0.2355 0.3937, 7.3819 2.7165 0.3937, 7.3819 1.5325 0.3937, 6.3583 2.7165 0.3937, 2.0 1.5325 0.3937, 2.4131 2.9498 0.3937, 2.429 2.929 0.3937, 2.4498 2.9131 0.3937, 2.474 2.903 0.3937, 2.5 2.8996 0.3937, 2.0 3.7402 0.3937, 2.5 3.1004 0.3937, 2.474 3.097 0.3937, 2.4498 3.0869 0.3937, 2.429 3.071 0.3937, 2.4131 3.0502 0.3937, 2.526 2.903 0.3937, 2.5502 2.9131 0.3937, 2.571 2.929 0.3937, 2.5869 2.9498 0.3937, 2.5869 3.0502 0.3937, 2.571 3.071 0.3937, 6.3583 3.7402 0.3937, 2.5502 3.0869 0.3937, 2.526 3.097 0.3937, 2.403 3.026 0.3937, 2.3996 3.0 0.3937, 2.403 2.974 0.3937, 2.597 2.974 0.3937, 2.6004 3.0 0.3937, 2.597 3.026 0.3937, -7.3819 2.7165 0.3937, -4.9911 1.5325 0.3937, -0.3996 3.0 0.3937, -0.403 3.026 0.3937, -0.0816 3.7402 0.3937, -0.4131 3.0502 0.3937, -0.403 2.974 0.3937, -0.0816 1.5325 0.3937, -0.4131 2.9498 0.3937, -0.429 2.929 0.3937, -0.4513 3.0876 0.3937, -0.4513 3.7402 0.3937, -0.4498 3.0869 0.3937, -0.429 3.071 0.3937, -0.4498 2.9131 0.3937, -0.5502 3.0869 0.3937, -0.571 3.071 0.3937, -0.7107 3.7402 0.3937, -0.5869 3.0502 0.3937, -0.5869 2.9498 0.3937, -0.571 2.929 0.3937, -0.474 3.097 0.3937, -0.5 3.1004 0.3937, -0.526 3.097 0.3937, -0.597 3.026 0.3937, -0.6004 3.0 0.3937, -0.597 2.974 0.3937, -0.5502 2.9131 0.3937, -0.526 2.903 0.3937, -0.5 2.8996 0.3937, 0.5869 2.9498 0.3937, 0.597 2.974 0.3937, 0.6867 3.7402 0.3937, 0.6004 3.0 0.3937, 0.597 3.026 0.3937, 0.526 2.903 0.3937, 0.5502 2.9131 0.3937, 0.5545 2.9164 0.3937, 0.571 2.929 0.3937, 0.429 2.929 0.3937, 0.4498 2.9131 0.3937, 0.3222 1.5325 0.3937, 0.474 2.903 0.3937, 0.5 2.8996 0.3937, 0.5869 3.0502 0.3937, 0.571 3.071 0.3937, 0.5545 3.7402 0.3937, 0.5545 3.0836 0.3937, 0.5502 3.0869 0.3937, 0.526 3.097 0.3937, 0.5 3.1004 0.3937, 0.3222 3.7402 0.3937, 0.474 3.097 0.3937, 0.4498 3.0869 0.3937, 0.3996 3.0 0.3937, 0.403 2.974 0.3937, 0.4131 2.9498 0.3937, 0.429 3.071 0.3937, 0.4131 3.0502 0.3937, 0.403 3.026 0.3937, -0.0816 -0.2355 0.3937, -0.403 -2.9583 0.3937, -0.4131 -2.9341 0.3937, -0.429 -3.0552 0.3937, -0.4131 -3.0344 0.3937, -0.0816 -3.4124 0.3937, -0.403 -3.0102 0.3937, -0.3996 -2.9843 0.3937, -0.4513 -2.8967 0.3937, -0.4498 -2.8973 0.3937, -0.429 -2.9133 0.3937, -0.4498 -3.0712 0.3937, -0.5502 -2.8973 0.3937, -0.571 -2.9133 0.3937, -0.5869 -2.9341 0.3937, -0.597 -2.9583 0.3937, -0.6004 -2.9843 0.3937, -0.597 -3.0102 0.3937, -0.7107 -3.4124 0.3937, -0.5869 -3.0344 0.3937, -0.571 -3.0552 0.3937, -0.5502 -3.0712 0.3937, -0.526 -3.0812 0.3937, -0.5 -3.0846 0.3937, -0.474 -2.8873 0.3937, -0.5 -2.8839 0.3937, -0.526 -2.8873 0.3937, 0.6867 -3.4124 0.3937, 0.5545 -3.4124 0.3937, 0.5545 -3.0679 0.3937, 0.6004 -2.9843 0.3937, 0.597 -2.9583 0.3937, 0.571 -3.0552 0.3937, 0.5869 -3.0344 0.3937, 0.597 -3.0102 0.3937, 0.5545 -2.9006 0.3937, 0.571 -2.9133 0.3937, 0.5869 -2.9341 0.3937, 0.5 -3.0846 0.3937, 0.526 -3.0812 0.3937, 0.5502 -3.0712 0.3937, 0.474 -3.0812 0.3937, 0.3222 -3.4124 0.3937, 0.4498 -3.0712 0.3937, 0.3222 -0.2355 0.3937, 0.5502 -2.8973 0.3937, 0.526 -2.8873 0.3937, 0.5 -2.8839 0.3937, 0.474 -2.8873 0.3937, 0.4498 -2.8973 0.3937, 0.3996 -2.9843 0.3937, 0.403 -3.0102 0.3937, 0.429 -2.9133 0.3937, 0.4131 -2.9341 0.3937, 0.403 -2.9583 0.3937, 0.4131 -3.0344 0.3937, 0.429 -3.0552 0.3937, 0.3222 -0.1921 0.3937, 0.2937 -0.1889 0.3937, 0.3222 0.1202 0.3937, 0.2519 -0.1734 0.3937, 0.2892 0.1159 0.3937, 0.2449 -0.1695 0.3937, 0.2449 0.097 0.3937, 0.2065 1.5325 0.3937, 0.2449 0.1498 0.3937, 0.2449 -0.2127 0.3937, 0.2065 -0.2355 0.3937, 0.2868 -0.23 0.3937, 0.3222 0.1643 0.3937, 0.2904 0.1621 0.3937, 0.3371 0.1222 0.3937, 0.483 -0.0098 0.3937, 0.3758 0.1178 0.3937, 0.4053 0.1072 0.3937, 0.4849 -0.0405 0.3937, 0.4809 -0.0831 0.3937, 0.4702 -0.117 0.3937, 0.454 -0.1443 0.3937, 0.4355 -0.1638 0.3937, 0.4113 -0.18 0.3937, 0.4325 0.0889 0.3937, 0.4563 0.0627 0.3937, 0.4726 0.0323 0.3937, 0.3826 -0.1906 0.3937, 0.3459 -0.1947 0.3937, 0.4017 -0.2329 0.3937, 0.4399 -0.2198 0.3937, 0.4715 -0.1995 0.3937, 0.5011 -0.1684 0.3937, 0.5221 -0.131 0.3937, 0.517 0.0569 0.3937, 0.4939 0.0937 0.3937, 0.4583 0.1279 0.3937, 0.3222 -0.2349 0.3937, 0.3266 -0.2355 0.3937, 0.3424 -0.2377 0.3937, 0.3532 -0.2379 0.3937, 0.3763 -0.2355 0.3937, 0.4209 0.1494 0.3937, 0.3771 0.1621 0.3937, 0.3375 0.1654 0.3937, 0.5339 -0.0893 0.3937, 0.5377 -0.0437 0.3937, 0.5321 0.0123 0.3937, -6.3583 -3.7402 0.3937, -4.9911 -3.7402 0.3937, -2.0 -3.7402 0.3937, -2.0 -3.4124 0.3937, -1.1103 -3.7402 0.3937, -1.1103 -3.4124 0.3937, -0.7107 -3.7402 0.3937, -0.4513 -3.7402 0.3937, -0.0816 -3.7402 0.3937, 0.2065 -3.7402 0.3937, 0.2065 -3.4124 0.3937, 0.3222 -3.7402 0.3937, 0.5545 -3.7402 0.3937, 0.6867 -3.7402 0.3937, 1.0863 -3.7402 0.3937, 1.0863 -3.4124 0.3937, 2.0 -3.7402 0.3937, 6.3583 -3.7402 0.3937, 1.403 -2.9583 0.3937, 1.3996 -2.9843 0.3937, 1.403 -3.0102 0.3937, 1.4498 -3.0712 0.3937, 1.474 -3.0812 0.3937, 1.5 -3.0846 0.3937, 1.526 -3.0812 0.3937, 1.5502 -3.0712 0.3937, 1.4131 -3.0344 0.3937, 1.429 -3.0552 0.3937, 1.571 -3.0552 0.3937, 1.5869 -3.0344 0.3937, 1.597 -3.0102 0.3937, 1.474 -2.8873 0.3937, 1.4498 -2.8973 0.3937, 1.429 -2.9133 0.3937, 1.4131 -2.9341 0.3937, 1.6004 -2.9843 0.3937, 1.597 -2.9583 0.3937, 1.5869 -2.9341 0.3937, 1.571 -2.9133 0.3937, 1.5502 -2.8973 0.3937, 1.526 -2.8873 0.3937, 1.5 -2.8839 0.3937, -1.5 -3.0846 0.3937, -1.474 -3.0812 0.3937, -1.4498 -3.0712 0.3937, -1.429 -3.0552 0.3937, -1.526 -3.0812 0.3937, -1.5502 -3.0712 0.3937, -1.597 -3.0102 0.3937, -1.5869 -3.0344 0.3937, -1.571 -3.0552 0.3937, -1.5502 -2.8973 0.3937, -1.571 -2.9133 0.3937, -2.0 -0.2355 0.3937, -1.5869 -2.9341 0.3937, -1.597 -2.9583 0.3937, -1.6004 -2.9843 0.3937, -1.4131 -3.0344 0.3937, -1.403 -3.0102 0.3937, -1.3996 -2.9843 0.3937, -1.403 -2.9583 0.3937, -1.4131 -2.9341 0.3937, -1.429 -2.9133 0.3937, -1.4498 -2.8973 0.3937, -1.474 -2.8873 0.3937, -1.5 -2.8839 0.3937, -1.526 -2.8873 0.3937, -2.4498 -3.0712 0.3937, -2.429 -3.0552 0.3937, -2.5502 -3.0712 0.3937, -2.526 -3.0812 0.3937, -2.474 -3.0812 0.3937, -2.6004 -2.9843 0.3937, -2.597 -3.0102 0.3937, -2.5 -3.0846 0.3937, -2.5869 -3.0344 0.3937, -2.571 -3.0552 0.3937, -2.526 -2.8873 0.3937, -2.5502 -2.8973 0.3937, -2.4131 -3.0344 0.3937, -2.403 -3.0102 0.3937, -2.3996 -2.9843 0.3937, -2.403 -2.9583 0.3937, -2.4131 -2.9341 0.3937, -2.429 -2.9133 0.3937, -2.4498 -2.8973 0.3937, -2.571 -2.9133 0.3937, -2.5869 -2.9341 0.3937, -2.597 -2.9583 0.3937, -2.474 -2.8873 0.3937, -2.5 -2.8839 0.3937, -0.0432 -0.1899 0.3937, -0.0432 -0.2331 0.3937, 0.168 -0.2331 0.3937, 0.168 0.1606 0.3937, -0.0336 0.1174 0.3937, -0.0336 0.1606 0.3937, 0.1152 -0.0555 0.3937, 0.1152 -0.1899 0.3937, -0.024 -0.0555 0.3937, -0.024 -0.0123 0.3937, 0.1152 -0.0123 0.3937, 0.1152 0.1174 0.3937, -0.4173 -0.1252 0.3937, -0.3947 -0.1604 0.3937, -0.3623 -0.1915 0.3937, -0.3212 -0.2154 0.3937, -0.288 0.1545 0.3937, -0.3341 0.1383 0.3937, -0.3769 0.1096 0.3937, -0.12 0.1606 0.3937, -0.2311 0.1606 0.3937, -0.3773 0.1092 0.3937, -0.4052 0.0784 0.3937, -0.4235 0.0445 0.3937, -0.2758 -0.2289 0.3937, -0.2271 -0.2331 0.3937, -0.12 -0.2331 0.3937, -0.4341 0.0057 0.3937, -0.4369 -0.0313 0.3937, -0.4314 -0.084 0.3937, -7.3819 1.5325 0.3937, -7.3819 -0.2355 0.3937, -7.3819 -2.7165 0.3937, 1.3996 3.0 0.3937, 1.403 2.974 0.3937, 1.4131 2.9498 0.3937, 1.429 2.929 0.3937, 1.4498 2.9131 0.3937, 1.5502 2.9131 0.3937, 1.571 2.929 0.3937, 1.474 3.097 0.3937, 1.4498 3.0869 0.3937, 1.0863 3.7402 0.3937, 1.474 2.903 0.3937, 1.5 2.8996 0.3937, 1.526 2.903 0.3937, 1.5869 3.0502 0.3937, 1.571 3.071 0.3937, 1.597 3.026 0.3937, 1.5502 3.0869 0.3937, 1.526 3.097 0.3937, 1.5 3.1004 0.3937, 1.429 3.071 0.3937, 1.4131 3.0502 0.3937, 1.403 3.026 0.3937, 1.5869 2.9498 0.3937, 1.597 2.974 0.3937, 1.6004 3.0 0.3937, 0.2065 3.7402 0.3937, -2.0 1.5325 0.3937, -1.1103 1.5325 0.3937, -1.1103 3.7402 0.3937, -2.0 3.7402 0.3937, -1.6004 3.0 0.3937, -1.474 2.903 0.3937, -1.4498 2.9131 0.3937, -1.429 2.929 0.3937, -1.4131 2.9498 0.3937, -1.597 2.974 0.3937, -1.5869 2.9498 0.3937, -1.571 2.929 0.3937, -1.5502 2.9131 0.3937, -1.526 2.903 0.3937, -1.5 2.8996 0.3937, -1.429 3.071 0.3937, -1.4498 3.0869 0.3937, -1.4131 3.0502 0.3937, -1.403 2.974 0.3937, -1.3996 3.0 0.3937, -1.403 3.026 0.3937, -1.5502 3.0869 0.3937, -1.571 3.071 0.3937, -1.5869 3.0502 0.3937, -1.597 3.026 0.3937, -1.474 3.097 0.3937, -1.5 3.1004 0.3937, -1.526 3.097 0.3937, -2.4498 2.9131 0.3937, -2.429 2.929 0.3937, -2.403 3.026 0.3937, -2.4131 3.0502 0.3937, -2.6004 3.0 0.3937, -2.597 2.974 0.3937, -2.526 2.903 0.3937, -2.5 2.8996 0.3937, -2.474 2.903 0.3937, -2.5869 2.9498 0.3937, -2.571 2.929 0.3937, -2.5502 2.9131 0.3937, -2.4131 2.9498 0.3937, -2.403 2.974 0.3937, -2.3996 3.0 0.3937, -2.571 3.071 0.3937, -2.5869 3.0502 0.3937, -2.597 3.026 0.3937, -2.429 3.071 0.3937, -2.4498 3.0869 0.3937, -2.474 3.097 0.3937, -2.5 3.1004 0.3937, -2.526 3.097 0.3937, -2.5502 3.0869 0.3937
            ]
        }
        coordIndex [
            0,1,2,-1,3,4,5,-1,6,7,8,-1,9,10,11,-1,12,13,14,-1,15,16,17,-1,17,9,15,-1,15,9,11,-1,15,11,18,-1,18,11,19,-1,18,19,20,-1,20,19,21,-1,20,21,14,-1,14,21,22,-1,14,22,12,-1,23,24,25,-1,25,24,26,-1,25,26,27,-1,27,26,28,-1,27,28,5,-1,5,28,29,-1,5,29,30,-1,31,23,32,-1,32,23,25,-1,32,25,33,-1,33,25,34,-1,33,34,35,-1,35,34,30,-1,35,30,36,-1,36,30,29,-1,37,38,39,-1,39,38,40,-1,41,42,43,-1,43,42,44,-1,43,44,45,-1,45,44,46,-1,47,48,49,-1,49,48,50,-1,50,51,52,-1,52,53,50,-1,50,53,54,-1,50,54,55,-1,56,57,58,-1,58,59,56,-1,56,59,60,-1,56,60,61,-1,55,62,50,-1,50,62,63,-1,50,63,49,-1,49,63,64,-1,49,64,65,-1,66,67,68,-1,68,67,69,-1,68,69,56,-1,56,69,70,-1,56,70,57,-1,61,71,56,-1,56,71,72,-1,56,72,50,-1,50,72,73,-1,50,73,51,-1,65,74,49,-1,49,74,75,-1,49,75,68,-1,68,75,76,-1,68,76,66,-1,77,6,78,-1,79,80,81,-1,81,80,82,-1,83,84,85,-1,85,84,86,-1,87,88,89,-1,89,88,81,-1,89,81,90,-1,90,81,82,-1,5,4,84,-1,84,4,91,-1,84,91,86,-1,92,93,94,-1,94,93,95,-1,96,97,30,-1,87,98,88,-1,88,98,99,-1,88,99,94,-1,94,99,100,-1,94,100,92,-1,95,101,94,-1,94,101,102,-1,94,102,30,-1,30,102,103,-1,30,103,96,-1,97,104,30,-1,30,104,105,-1,30,105,5,-1,5,105,106,-1,5,106,3,-1,15,107,108,-1,109,110,111,-1,112,113,18,-1,18,113,114,-1,18,114,15,-1,15,114,115,-1,15,115,107,-1,116,117,118,-1,118,117,119,-1,118,119,18,-1,18,119,120,-1,18,120,112,-1,111,121,109,-1,109,121,122,-1,109,122,123,-1,123,122,124,-1,123,124,125,-1,125,126,123,-1,123,126,127,-1,123,127,128,-1,128,127,129,-1,128,129,130,-1,131,132,118,-1,118,132,133,-1,118,133,116,-1,130,134,128,-1,128,134,135,-1,128,135,136,-1,137,138,139,-1,140,141,142,-1,142,141,143,-1,142,143,144,-1,145,27,146,-1,146,27,137,-1,146,137,147,-1,147,137,139,-1,2,1,142,-1,142,1,148,-1,142,148,140,-1,149,150,25,-1,25,150,151,-1,25,151,152,-1,153,154,155,-1,155,154,156,-1,155,156,157,-1,157,158,155,-1,155,158,159,-1,155,159,2,-1,2,159,160,-1,2,160,0,-1,145,161,27,-1,27,161,162,-1,27,162,25,-1,25,162,163,-1,25,163,149,-1,164,165,166,-1,167,168,14,-1,166,169,164,-1,164,169,170,-1,164,170,171,-1,172,20,173,-1,173,20,14,-1,173,14,174,-1,174,14,168,-1,175,176,165,-1,165,176,177,-1,165,177,166,-1,175,165,178,-1,178,165,179,-1,178,179,180,-1,181,182,183,-1,183,184,181,-1,181,184,185,-1,181,185,186,-1,179,187,188,-1,186,189,181,-1,181,189,190,-1,181,190,191,-1,188,192,179,-1,179,192,193,-1,179,193,180,-1,194,195,196,-1,196,195,197,-1,196,197,198,-1,198,197,199,-1,198,199,200,-1,200,199,201,-1,200,201,202,-1,199,203,204,-1,204,203,205,-1,204,205,181,-1,118,206,201,-1,201,206,207,-1,201,207,202,-1,196,208,209,-1,209,208,210,-1,209,210,211,-1,209,212,196,-1,196,212,213,-1,196,213,214,-1,214,215,196,-1,196,215,216,-1,196,216,217,-1,211,218,209,-1,209,218,219,-1,209,219,220,-1,217,221,196,-1,196,221,222,-1,196,222,194,-1,223,224,20,-1,224,225,20,-1,20,225,226,-1,20,226,227,-1,228,229,18,-1,18,229,230,-1,205,231,181,-1,181,231,232,-1,181,232,182,-1,182,232,233,-1,182,233,172,-1,172,233,234,-1,172,234,20,-1,20,234,235,-1,20,235,223,-1,230,236,18,-1,18,236,237,-1,18,237,118,-1,118,237,238,-1,118,238,206,-1,227,239,20,-1,20,239,240,-1,20,240,18,-1,18,240,241,-1,18,241,228,-1,242,38,243,-1,243,38,37,-1,243,37,244,-1,244,37,245,-1,244,245,246,-1,246,245,247,-1,246,247,248,-1,248,247,155,-1,248,155,249,-1,249,155,2,-1,249,2,250,-1,250,2,142,-1,250,142,251,-1,251,142,252,-1,251,252,253,-1,253,252,179,-1,253,179,254,-1,254,179,165,-1,254,165,255,-1,255,165,164,-1,255,164,256,-1,256,164,257,-1,256,257,258,-1,258,257,42,-1,258,42,259,-1,259,42,41,-1,260,261,257,-1,257,261,262,-1,263,264,257,-1,257,264,265,-1,257,265,42,-1,42,265,266,-1,42,266,267,-1,262,268,257,-1,257,268,269,-1,257,269,263,-1,267,270,42,-1,42,270,271,-1,42,271,272,-1,273,274,13,-1,13,274,275,-1,13,275,276,-1,272,277,42,-1,42,277,278,-1,42,278,44,-1,44,278,279,-1,44,279,280,-1,280,281,44,-1,44,281,282,-1,44,282,13,-1,13,282,283,-1,13,283,273,-1,171,167,164,-1,164,167,14,-1,164,14,257,-1,257,14,13,-1,257,13,260,-1,260,13,276,-1,144,138,142,-1,142,138,137,-1,142,137,252,-1,252,137,204,-1,252,204,179,-1,179,204,181,-1,179,181,187,-1,187,181,191,-1,284,285,247,-1,247,285,286,-1,247,286,287,-1,284,247,288,-1,288,247,245,-1,288,245,289,-1,290,291,245,-1,245,291,292,-1,245,292,289,-1,293,294,295,-1,296,297,245,-1,245,297,298,-1,245,298,290,-1,287,299,247,-1,247,299,300,-1,247,300,301,-1,302,303,34,-1,34,303,304,-1,34,304,305,-1,152,153,25,-1,25,153,155,-1,25,155,34,-1,34,155,247,-1,34,247,302,-1,302,247,301,-1,305,306,34,-1,34,306,307,-1,34,307,295,-1,295,307,308,-1,295,308,293,-1,309,310,245,-1,37,311,312,-1,309,245,313,-1,37,314,315,-1,37,312,245,-1,245,312,316,-1,245,316,313,-1,315,317,37,-1,37,317,318,-1,37,318,311,-1,319,320,39,-1,310,321,245,-1,245,321,322,-1,245,322,323,-1,323,324,245,-1,245,324,295,-1,245,295,296,-1,296,295,294,-1,324,325,295,-1,295,325,326,-1,295,326,327,-1,320,328,39,-1,39,328,329,-1,39,329,37,-1,37,329,330,-1,37,330,314,-1,327,331,295,-1,295,331,332,-1,295,332,319,-1,12,17,13,-1,13,17,16,-1,13,16,44,-1,44,16,50,-1,44,50,46,-1,46,50,48,-1,333,334,137,-1,137,334,204,-1,204,334,335,-1,204,335,336,-1,337,333,84,-1,199,204,201,-1,201,204,336,-1,201,336,84,-1,84,336,338,-1,84,338,337,-1,339,340,341,-1,341,340,333,-1,341,333,342,-1,342,333,337,-1,342,337,343,-1,343,337,344,-1,345,346,27,-1,27,346,347,-1,27,347,348,-1,349,350,5,-1,5,350,351,-1,333,137,84,-1,84,137,352,-1,84,352,5,-1,5,352,353,-1,5,353,349,-1,351,354,5,-1,5,354,355,-1,5,355,356,-1,348,357,27,-1,27,357,358,-1,27,358,137,-1,137,358,359,-1,137,359,352,-1,356,360,5,-1,5,360,361,-1,5,361,27,-1,27,361,362,-1,27,362,345,-1,77,78,363,-1,363,78,39,-1,363,39,364,-1,364,39,40,-1,364,40,365,-1,366,367,16,-1,367,368,16,-1,16,368,369,-1,16,369,370,-1,371,372,50,-1,373,374,375,-1,370,376,16,-1,16,376,377,-1,16,377,50,-1,50,377,378,-1,50,378,371,-1,379,380,56,-1,379,56,381,-1,380,382,56,-1,56,382,383,-1,56,383,375,-1,375,383,384,-1,375,384,373,-1,374,385,375,-1,375,385,386,-1,375,386,387,-1,372,388,50,-1,50,388,389,-1,50,389,56,-1,56,389,390,-1,56,390,381,-1,108,110,15,-1,15,110,109,-1,15,109,16,-1,16,109,375,-1,16,375,366,-1,366,375,387,-1,83,79,84,-1,84,79,81,-1,84,81,201,-1,201,81,391,-1,201,391,118,-1,118,391,128,-1,118,128,131,-1,131,128,136,-1,295,392,34,-1,34,392,393,-1,34,393,30,-1,30,393,394,-1,30,394,94,-1,392,395,396,-1,397,398,393,-1,393,398,399,-1,393,399,400,-1,396,401,392,-1,392,401,402,-1,392,402,403,-1,403,404,392,-1,392,404,405,-1,392,405,393,-1,393,405,406,-1,393,406,397,-1,407,408,394,-1,407,394,409,-1,400,410,393,-1,393,410,411,-1,393,411,394,-1,394,411,412,-1,394,412,409,-1,395,413,414,-1,414,415,395,-1,395,415,416,-1,395,416,396,-1,408,417,394,-1,394,417,418,-1,394,418,395,-1,395,418,419,-1,395,419,413,-1,420,421,392,-1,422,423,395,-1,6,8,78,-1,78,8,424,-1,78,424,425,-1,426,427,392,-1,392,427,428,-1,392,428,420,-1,425,429,78,-1,78,429,430,-1,78,430,431,-1,421,432,392,-1,392,432,433,-1,392,433,395,-1,395,433,434,-1,395,434,422,-1,319,39,295,-1,295,39,78,-1,295,78,392,-1,392,78,431,-1,392,431,426,-1,435,436,8,-1,8,436,437,-1,8,437,424,-1,423,438,395,-1,395,438,439,-1,395,439,440,-1,440,441,395,-1,395,441,442,-1,395,442,8,-1,8,442,443,-1,8,443,435,-1,
        ]
    }
}
Shape{
    appearance Appearance {
        material  Material {
            diffuseColor 0.7019607843137254 0.7019607843137254 0.5254901960784314
            specularColor 0.050980392156862744 0.050980392156862744 0.0392156862745098
            ambientIntensity 0.9718
            transparency 0.0
            shininess 0.5
        }
    }
    geometry IndexedFaceSet {
        ccw TRUE
        solid FALSE
        coord DEF co Coordinate {
            point [
                6.1257 0.3044 3.1457, 6.335 0.0551 3.1457, 6.4649 2.2276 3.1457, 6.6436 0.3141 3.1457, 6.9532 2.6374 3.1457, 7.0359 2.5389 3.1457, 6.335 0.0551 3.1496, 6.1257 0.3044 3.1496, 6.6436 0.3141 3.1496, 6.3818 0.0944 3.1496, 6.9694 2.1619 3.1496, 7.0359 2.5389 3.1496, 6.8123 1.2708 3.1496, 6.9532 2.6374 3.1496, 6.9694 2.6181 3.1496, 6.4649 2.2276 3.1496, 6.3818 1.7567 3.1496, 6.2961 1.2708 3.1496, 3.097 -2.6973 3.1457, 3.1797 -2.7959 3.1457, 3.5854 -2.2875 3.1457, 5.8832 -2.7959 3.1457, 5.6177 -2.2875 3.1457, 5.9777 -2.7166 3.1457, 5.9777 -2.7166 3.1496, 5.8832 -2.7959 3.1496, 5.6177 -2.2875 3.1496, 3.5854 -2.2875 3.1496, 5.0 -2.2875 3.1496, 3.097 -2.6973 3.1496, 3.2812 -2.5428 3.1496, 3.1797 -2.7959 3.1496, 5.0 -2.7959 3.1496, 3.2812 -2.7959 3.1496, 5.6776 -2.2372 3.1457, 6.0376 -2.6663 3.1457, 6.1321 -2.5871 3.1457, 6.0167 -0.3141 3.1457, 6.5346 -0.3044 3.1457, 6.3253 -0.0551 3.1457, 6.0167 -0.3141 3.1496, 6.0517 -0.2847 3.1496, 6.3253 -0.0551 3.1496, 5.6776 -2.2372 3.1496, 5.8642 -1.1787 3.1496, 6.0376 -2.6663 3.1496, 6.1321 -2.5871 3.1496, 6.0517 -2.6545 3.1496, 6.3818 -1.1707 3.1496, 6.5346 -0.3044 3.1496, 6.3804 -1.1787 3.1496, 6.3818 -0.1224 3.1496, 4.3224 2.2372 3.1457, 3.9624 2.6663 3.1457, 3.8679 2.5871 3.1457, 3.9833 0.3141 3.1457, 3.4654 0.3044 3.1457, 3.6747 0.0551 3.1457, 3.4654 0.3044 3.1496, 3.6358 1.2708 3.1496, 3.8679 2.5871 3.1496, 3.6747 0.0551 3.1496, 3.9833 0.3141 3.1496, 4.3224 2.2372 3.1496, 4.152 1.2708 3.1496, 3.9624 2.6663 3.1496, 6.903 2.6973 3.1457, 6.8203 2.7959 3.1457, 6.4146 2.2875 3.1457, 4.1168 2.7959 3.1457, 4.3823 2.2875 3.1457, 4.0223 2.7166 3.1457, 6.8203 2.7959 3.1496, 6.903 2.6973 3.1496, 6.3818 2.7959 3.1496, 4.1168 2.7959 3.1496, 5.0 2.7959 3.1496, 6.0517 2.7959 3.1496, 4.0223 2.7166 3.1496, 4.3823 2.2875 3.1496, 6.3818 2.2875 3.1496, 6.4146 2.2875 3.1496, 5.0 2.2875 3.1496, 6.0517 2.2875 3.1496, 7.1075 -2.6007 3.1457, 7.1407 -2.5207 3.1457, 6.8203 -2.4349 3.1457, 7.152 -2.4349 3.1457, 7.1407 -2.349 3.1457, 6.9061 -2.7553 3.1457, 6.9861 -2.7221 3.1457, 7.0548 -2.6694 3.1457, 6.6544 -2.7221 3.1457, 6.7344 -2.7553 3.1457, 6.8203 -2.7666 3.1457, 6.4999 -2.5207 3.1457, 6.533 -2.6007 3.1457, 6.5857 -2.6694 3.1457, 6.533 -2.269 3.1457, 6.4999 -2.349 3.1457, 6.4886 -2.4349 3.1457, 6.7344 -2.1145 3.1457, 6.6544 -2.1476 3.1457, 6.5857 -2.2003 3.1457, 6.9861 -2.1476 3.1457, 6.9061 -2.1145 3.1457, 6.8203 -2.1032 3.1457, 7.1075 -2.269 3.1457, 7.0548 -2.2003 3.1457, 6.9694 -2.1407 3.1496, 6.9061 -2.1145 3.1496, 6.8203 -2.1032 3.1496, 6.7344 -2.1145 3.1496, 6.6544 -2.1476 3.1496, 6.5857 -2.2003 3.1496, 6.533 -2.269 3.1496, 6.4999 -2.349 3.1496, 6.4886 -2.4349 3.1496, 6.4999 -2.5207 3.1496, 6.533 -2.6007 3.1496, 6.5857 -2.6694 3.1496, 6.6544 -2.7221 3.1496, 6.7344 -2.7553 3.1496, 6.8203 -2.7666 3.1496, 6.9061 -2.7553 3.1496, 6.9694 -2.729 3.1496, 6.9861 -2.7221 3.1496, 7.0548 -2.6694 3.1496, 7.1075 -2.6007 3.1496, 7.1407 -2.5207 3.1496, 7.152 -2.4349 3.1496, 7.1407 -2.349 3.1496, 7.1075 -2.269 3.1496, 7.0548 -2.2003 3.1496, 6.9861 -2.1476 3.1496, 3.8743 -0.3044 3.1457, 3.665 -0.0551 3.1457, 3.3564 -0.3141 3.1457, 2.9641 -2.5389 3.1457, 3.0468 -2.6374 3.1457, 3.5351 -2.2276 3.1457, 3.3564 -0.3141 3.1496, 3.2812 -0.7402 3.1496, 3.2039 -1.1787 3.1496, 2.9641 -2.5389 3.1496, 3.0468 -2.6374 3.1496, 3.5351 -2.2276 3.1496, 3.2812 -2.4407 3.1496, 3.8743 -0.3044 3.1496, 3.7201 -1.1787 3.1496, 3.665 -0.0551 3.1496, 6.2751 0.0048 3.1457, 6.0658 0.2542 3.1457, 5.9664 -0.2542 3.1457, 4.0336 0.2542 3.1457, 3.9342 -0.2542 3.1457, 3.7249 -0.0048 3.1457, 4.0336 0.2542 3.1496, 5.0 0.2542 3.1496, 6.0517 0.2542 3.1496, 6.0658 0.2542 3.1496, 3.7307 -0.0 3.1496, 3.7249 -0.0048 3.1496, 3.9342 -0.2542 3.1496, 5.9664 -0.2542 3.1496, 5.0 -0.2542 3.1496, 6.2693 -0.0 3.1496, 6.2751 0.0048 3.1496, 6.0517 -0.1826 3.1496
            ]
        }
        coordIndex [
            0,1,2,-1,2,1,3,-1,2,3,4,-1,4,3,5,-1,1,0,6,-1,6,0,7,-1,8,3,9,-1,9,3,1,-1,9,1,6,-1,10,11,5,-1,10,5,12,-1,12,5,3,-1,12,3,8,-1,13,4,14,-1,14,4,5,-1,14,5,11,-1,2,4,15,-1,15,4,13,-1,2,15,16,-1,16,17,2,-1,2,17,7,-1,2,7,0,-1,18,19,20,-1,20,19,21,-1,20,21,22,-1,22,21,23,-1,23,21,24,-1,24,21,25,-1,22,23,26,-1,26,23,24,-1,27,20,28,-1,28,20,22,-1,28,22,26,-1,29,18,30,-1,30,18,20,-1,30,20,27,-1,19,18,31,-1,31,18,29,-1,25,21,32,-1,32,21,19,-1,32,19,33,-1,33,19,31,-1,34,35,36,-1,34,36,37,-1,37,36,38,-1,37,38,39,-1,40,37,41,-1,41,37,39,-1,41,39,42,-1,43,34,44,-1,44,34,37,-1,44,37,40,-1,35,34,45,-1,45,34,43,-1,46,36,47,-1,47,36,35,-1,47,35,45,-1,48,49,38,-1,48,38,50,-1,50,38,36,-1,50,36,46,-1,42,39,51,-1,51,39,38,-1,51,38,49,-1,52,53,54,-1,52,54,55,-1,55,54,56,-1,55,56,57,-1,58,56,59,-1,59,56,54,-1,59,54,60,-1,57,56,61,-1,61,56,58,-1,55,57,62,-1,62,57,61,-1,63,52,64,-1,64,52,55,-1,64,55,62,-1,53,52,65,-1,65,52,63,-1,54,53,60,-1,60,53,65,-1,66,67,68,-1,68,67,69,-1,68,69,70,-1,70,69,71,-1,67,66,72,-1,72,66,73,-1,67,72,74,-1,75,69,76,-1,76,69,67,-1,76,67,77,-1,77,67,74,-1,71,69,78,-1,78,69,75,-1,70,71,79,-1,79,71,78,-1,80,81,68,-1,70,79,82,-1,70,82,68,-1,68,82,83,-1,68,83,80,-1,66,68,73,-1,73,68,81,-1,84,85,86,-1,86,85,87,-1,86,87,88,-1,89,90,86,-1,86,90,91,-1,86,91,84,-1,92,93,86,-1,86,93,94,-1,86,94,89,-1,95,96,86,-1,86,96,97,-1,86,97,92,-1,98,99,86,-1,86,99,100,-1,86,100,95,-1,101,102,86,-1,86,102,103,-1,86,103,98,-1,104,105,86,-1,86,105,106,-1,86,106,101,-1,88,107,86,-1,86,107,108,-1,86,108,104,-1,104,109,105,-1,105,109,110,-1,105,110,106,-1,106,110,111,-1,106,111,101,-1,101,111,112,-1,101,112,102,-1,102,112,113,-1,102,113,103,-1,103,113,114,-1,103,114,98,-1,98,114,115,-1,98,115,99,-1,99,115,116,-1,99,116,100,-1,100,116,117,-1,100,117,95,-1,95,117,118,-1,95,118,96,-1,96,118,119,-1,96,119,97,-1,97,119,120,-1,97,120,92,-1,92,120,121,-1,92,121,93,-1,93,121,122,-1,93,122,94,-1,94,122,123,-1,94,123,89,-1,123,124,89,-1,89,124,125,-1,89,125,90,-1,90,125,126,-1,90,126,91,-1,91,126,127,-1,91,127,84,-1,84,127,128,-1,84,128,85,-1,85,128,129,-1,85,129,87,-1,87,129,130,-1,87,130,88,-1,88,130,131,-1,88,131,107,-1,107,131,132,-1,107,132,108,-1,108,132,133,-1,108,133,104,-1,104,133,134,-1,104,134,109,-1,135,136,137,-1,138,139,137,-1,137,139,140,-1,137,140,135,-1,137,141,142,-1,142,143,137,-1,137,143,144,-1,137,144,138,-1,139,138,145,-1,145,138,144,-1,146,140,147,-1,147,140,139,-1,147,139,145,-1,148,135,149,-1,149,135,140,-1,149,140,146,-1,136,135,150,-1,150,135,148,-1,137,136,141,-1,141,136,150,-1,151,152,153,-1,153,152,154,-1,153,154,155,-1,155,154,156,-1,157,154,158,-1,158,154,152,-1,158,152,159,-1,159,152,160,-1,154,157,156,-1,156,157,161,-1,156,161,162,-1,155,156,163,-1,163,156,162,-1,164,153,165,-1,165,153,155,-1,165,155,163,-1,166,167,151,-1,166,151,168,-1,168,151,153,-1,168,153,164,-1,152,151,160,-1,160,151,167,-1,
        ]
    }
}
Shape{
    appearance Appearance {
        material  Material {
            diffuseColor 0.6666666666666666 0.6666666666666666 0.6666666666666666
            specularColor 0.4666666666666667 0.4666666666666667 0.4666666666666667
            ambientIntensity 0.6667
            transparency 0.0
            shininess 0.5
        }
    }
    geometry IndexedFaceSet {
        ccw TRUE
        solid FALSE
        coord DEF co Coordinate {
            point [
                1.5869 -2.9341 -1.9685, 1.597 -2.9583 -1.9685, 1.5 -2.9843 -1.9685, 1.6004 -2.9843 -1.9685, 1.597 -3.0102 -1.9685, 1.526 -2.8873 -1.9685, 1.5502 -2.8973 -1.9685, 1.571 -2.9133 -1.9685, 1.4498 -2.8973 -1.9685, 1.474 -2.8873 -1.9685, 1.5 -2.8839 -1.9685, 1.403 -2.9583 -1.9685, 1.4131 -2.9341 -1.9685, 1.429 -2.9133 -1.9685, 1.4131 -3.0344 -1.9685, 1.403 -3.0102 -1.9685, 1.3996 -2.9843 -1.9685, 1.474 -3.0812 -1.9685, 1.4498 -3.0712 -1.9685, 1.429 -3.0552 -1.9685, 1.5502 -3.0712 -1.9685, 1.526 -3.0812 -1.9685, 1.5 -3.0846 -1.9685, 1.5869 -3.0344 -1.9685, 1.571 -3.0552 -1.9685, 1.403 -2.9583 0.3937, 1.4131 -2.9341 0.3937, 1.429 -2.9133 0.3937, 1.4498 -2.8973 0.3937, 1.474 -2.8873 0.3937, 1.5 -2.8839 0.3937, 1.526 -2.8873 0.3937, 1.5502 -2.8973 0.3937, 1.571 -2.9133 0.3937, 1.5869 -2.9341 0.3937, 1.597 -2.9583 0.3937, 1.6004 -2.9843 0.3937, 1.597 -3.0102 0.3937, 1.5869 -3.0344 0.3937, 1.571 -3.0552 0.3937, 1.5502 -3.0712 0.3937, 1.526 -3.0812 0.3937, 1.5 -3.0846 0.3937, 1.474 -3.0812 0.3937, 1.4498 -3.0712 0.3937, 1.429 -3.0552 0.3937, 1.4131 -3.0344 0.3937, 1.403 -3.0102 0.3937, 1.3996 -2.9843 0.3937, 0.5869 -2.9341 -1.9685, 0.597 -2.9583 -1.9685, 0.5 -2.9843 -1.9685, 0.6004 -2.9843 -1.9685, 0.597 -3.0102 -1.9685, 0.526 -2.8873 -1.9685, 0.5502 -2.8973 -1.9685, 0.571 -2.9133 -1.9685, 0.4498 -2.8973 -1.9685, 0.474 -2.8873 -1.9685, 0.5 -2.8839 -1.9685, 0.403 -2.9583 -1.9685, 0.4131 -2.9341 -1.9685, 0.429 -2.9133 -1.9685, 0.4131 -3.0344 -1.9685, 0.403 -3.0102 -1.9685, 0.3996 -2.9843 -1.9685, 0.474 -3.0812 -1.9685, 0.4498 -3.0712 -1.9685, 0.429 -3.0552 -1.9685, 0.5502 -3.0712 -1.9685, 0.526 -3.0812 -1.9685, 0.5 -3.0846 -1.9685, 0.5869 -3.0344 -1.9685, 0.571 -3.0552 -1.9685, 0.5869 -2.9341 0.3937, 0.597 -2.9583 0.3937, 0.6004 -2.9843 0.3937, 0.597 -3.0102 0.3937, 0.5869 -3.0344 0.3937, 0.571 -3.0552 0.3937, 0.5545 -3.0679 0.3937, 0.5502 -2.8973 0.3937, 0.5545 -2.9006 0.3937, 0.571 -2.9133 0.3937, 0.5502 -3.0712 0.3937, 0.526 -3.0812 0.3937, 0.5 -3.0846 0.3937, 0.474 -3.0812 0.3937, 0.4498 -3.0712 0.3937, 0.429 -3.0552 0.3937, 0.4131 -3.0344 0.3937, 0.403 -3.0102 0.3937, 0.3996 -2.9843 0.3937, 0.403 -2.9583 0.3937, 0.4131 -2.9341 0.3937, 0.429 -2.9133 0.3937, 0.4498 -2.8973 0.3937, 0.474 -2.8873 0.3937, 0.5 -2.8839 0.3937, 0.526 -2.8873 0.3937, -0.4131 -2.9341 -1.9685, -0.403 -2.9583 -1.9685, -0.5 -2.9843 -1.9685, -0.3996 -2.9843 -1.9685, -0.403 -3.0102 -1.9685, -0.474 -2.8873 -1.9685, -0.4498 -2.8973 -1.9685, -0.429 -2.9133 -1.9685, -0.5502 -2.8973 -1.9685, -0.526 -2.8873 -1.9685, -0.5 -2.8839 -1.9685, -0.597 -2.9583 -1.9685, -0.5869 -2.9341 -1.9685, -0.571 -2.9133 -1.9685, -0.5869 -3.0344 -1.9685, -0.597 -3.0102 -1.9685, -0.6004 -2.9843 -1.9685, -0.526 -3.0812 -1.9685, -0.5502 -3.0712 -1.9685, -0.571 -3.0552 -1.9685, -0.4498 -3.0712 -1.9685, -0.474 -3.0812 -1.9685, -0.5 -3.0846 -1.9685, -0.4131 -3.0344 -1.9685, -0.429 -3.0552 -1.9685, -0.4498 -3.0712 0.3937, -0.4513 -3.0718 0.3937, -0.429 -2.9133 0.3937, -0.4131 -2.9341 0.3937, -0.403 -2.9583 0.3937, -0.3996 -2.9843 0.3937, -0.403 -3.0102 0.3937, -0.4131 -3.0344 0.3937, -0.429 -3.0552 0.3937, -0.474 -3.0812 0.3937, -0.5 -3.0846 0.3937, -0.526 -3.0812 0.3937, -0.5502 -3.0712 0.3937, -0.571 -3.0552 0.3937, -0.5869 -3.0344 0.3937, -0.597 -3.0102 0.3937, -0.6004 -2.9843 0.3937, -0.597 -2.9583 0.3937, -0.5869 -2.9341 0.3937, -0.571 -2.9133 0.3937, -0.5502 -2.8973 0.3937, -0.526 -2.8873 0.3937, -0.5 -2.8839 0.3937, -0.474 -2.8873 0.3937, -0.4513 -2.8967 0.3937, -0.4498 -2.8973 0.3937, -1.4131 -2.9341 -1.9685, -1.403 -2.9583 -1.9685, -1.5 -2.9843 -1.9685, -1.3996 -2.9843 -1.9685, -1.403 -3.0102 -1.9685, -1.474 -2.8873 -1.9685, -1.4498 -2.8973 -1.9685, -1.429 -2.9133 -1.9685, -1.5502 -2.8973 -1.9685, -1.526 -2.8873 -1.9685, -1.5 -2.8839 -1.9685, -1.597 -2.9583 -1.9685, -1.5869 -2.9341 -1.9685, -1.571 -2.9133 -1.9685, -1.5869 -3.0344 -1.9685, -1.597 -3.0102 -1.9685, -1.6004 -2.9843 -1.9685, -1.526 -3.0812 -1.9685, -1.5502 -3.0712 -1.9685, -1.571 -3.0552 -1.9685, -1.4498 -3.0712 -1.9685, -1.474 -3.0812 -1.9685, -1.5 -3.0846 -1.9685, -1.4131 -3.0344 -1.9685, -1.429 -3.0552 -1.9685, -1.597 -2.9583 0.3937, -1.5869 -2.9341 0.3937, -1.571 -2.9133 0.3937, -1.5502 -2.8973 0.3937, -1.526 -2.8873 0.3937, -1.5 -2.8839 0.3937, -1.474 -2.8873 0.3937, -1.4498 -2.8973 0.3937, -1.429 -2.9133 0.3937, -1.4131 -2.9341 0.3937, -1.403 -2.9583 0.3937, -1.3996 -2.9843 0.3937, -1.403 -3.0102 0.3937, -1.4131 -3.0344 0.3937, -1.429 -3.0552 0.3937, -1.4498 -3.0712 0.3937, -1.474 -3.0812 0.3937, -1.5 -3.0846 0.3937, -1.526 -3.0812 0.3937, -1.5502 -3.0712 0.3937, -1.571 -3.0552 0.3937, -1.5869 -3.0344 0.3937, -1.597 -3.0102 0.3937, -1.6004 -2.9843 0.3937, -2.4131 -2.9341 -1.9685, -2.403 -2.9583 -1.9685, -2.5 -2.9843 -1.9685, -2.3996 -2.9843 -1.9685, -2.403 -3.0102 -1.9685, -2.474 -2.8873 -1.9685, -2.4498 -2.8973 -1.9685, -2.429 -2.9133 -1.9685, -2.5502 -2.8973 -1.9685, -2.526 -2.8873 -1.9685, -2.5 -2.8839 -1.9685, -2.597 -2.9583 -1.9685, -2.5869 -2.9341 -1.9685, -2.571 -2.9133 -1.9685, -2.5869 -3.0344 -1.9685, -2.597 -3.0102 -1.9685, -2.6004 -2.9843 -1.9685, -2.526 -3.0812 -1.9685, -2.5502 -3.0712 -1.9685, -2.571 -3.0552 -1.9685, -2.4498 -3.0712 -1.9685, -2.474 -3.0812 -1.9685, -2.5 -3.0846 -1.9685, -2.4131 -3.0344 -1.9685, -2.429 -3.0552 -1.9685, -2.597 -2.9583 0.3937, -2.5869 -2.9341 0.3937, -2.571 -2.9133 0.3937, -2.5502 -2.8973 0.3937, -2.526 -2.8873 0.3937, -2.5 -2.8839 0.3937, -2.474 -2.8873 0.3937, -2.4498 -2.8973 0.3937, -2.429 -2.9133 0.3937, -2.4131 -2.9341 0.3937, -2.403 -2.9583 0.3937, -2.3996 -2.9843 0.3937, -2.403 -3.0102 0.3937, -2.4131 -3.0344 0.3937, -2.429 -3.0552 0.3937, -2.4498 -3.0712 0.3937, -2.474 -3.0812 0.3937, -2.5 -3.0846 0.3937, -2.526 -3.0812 0.3937, -2.5502 -3.0712 0.3937, -2.571 -3.0552 0.3937, -2.5869 -3.0344 0.3937, -2.597 -3.0102 0.3937, -2.6004 -2.9843 0.3937, 2.5869 3.0502 -1.9685, 2.597 3.026 -1.9685, 2.5 3.0 -1.9685, 2.6004 3.0 -1.9685, 2.597 2.974 -1.9685, 2.526 3.097 -1.9685, 2.5502 3.0869 -1.9685, 2.571 3.071 -1.9685, 2.4498 3.0869 -1.9685, 2.474 3.097 -1.9685, 2.5 3.1004 -1.9685, 2.403 3.026 -1.9685, 2.4131 3.0502 -1.9685, 2.429 3.071 -1.9685, 2.4131 2.9498 -1.9685, 2.403 2.974 -1.9685, 2.3996 3.0 -1.9685, 2.474 2.903 -1.9685, 2.4498 2.9131 -1.9685, 2.429 2.929 -1.9685, 2.5502 2.9131 -1.9685, 2.526 2.903 -1.9685, 2.5 2.8996 -1.9685, 2.5869 2.9498 -1.9685, 2.571 2.929 -1.9685, 2.403 3.026 0.3937, 2.4131 3.0502 0.3937, 2.429 3.071 0.3937, 2.4498 3.0869 0.3937, 2.474 3.097 0.3937, 2.5 3.1004 0.3937, 2.526 3.097 0.3937, 2.5502 3.0869 0.3937, 2.571 3.071 0.3937, 2.5869 3.0502 0.3937, 2.597 3.026 0.3937, 2.6004 3.0 0.3937, 2.597 2.974 0.3937, 2.5869 2.9498 0.3937, 2.571 2.929 0.3937, 2.5502 2.9131 0.3937, 2.526 2.903 0.3937, 2.5 2.8996 0.3937, 2.474 2.903 0.3937, 2.4498 2.9131 0.3937, 2.429 2.929 0.3937, 2.4131 2.9498 0.3937, 2.403 2.974 0.3937, 2.3996 3.0 0.3937, 1.5869 3.0502 -1.9685, 1.597 3.026 -1.9685, 1.5 3.0 -1.9685, 1.6004 3.0 -1.9685, 1.597 2.974 -1.9685, 1.526 3.097 -1.9685, 1.5502 3.0869 -1.9685, 1.571 3.071 -1.9685, 1.4498 3.0869 -1.9685, 1.474 3.097 -1.9685, 1.5 3.1004 -1.9685, 1.403 3.026 -1.9685, 1.4131 3.0502 -1.9685, 1.429 3.071 -1.9685, 1.4131 2.9498 -1.9685, 1.403 2.974 -1.9685, 1.3996 3.0 -1.9685, 1.474 2.903 -1.9685, 1.4498 2.9131 -1.9685, 1.429 2.929 -1.9685, 1.5502 2.9131 -1.9685, 1.526 2.903 -1.9685, 1.5 2.8996 -1.9685, 1.5869 2.9498 -1.9685, 1.571 2.929 -1.9685, 1.403 3.026 0.3937, 1.4131 3.0502 0.3937, 1.429 3.071 0.3937, 1.4498 3.0869 0.3937, 1.474 3.097 0.3937, 1.5 3.1004 0.3937, 1.526 3.097 0.3937, 1.5502 3.0869 0.3937, 1.571 3.071 0.3937, 1.5869 3.0502 0.3937, 1.597 3.026 0.3937, 1.6004 3.0 0.3937, 1.597 2.974 0.3937, 1.5869 2.9498 0.3937, 1.571 2.929 0.3937, 1.5502 2.9131 0.3937, 1.526 2.903 0.3937, 1.5 2.8996 0.3937, 1.474 2.903 0.3937, 1.4498 2.9131 0.3937, 1.429 2.929 0.3937, 1.4131 2.9498 0.3937, 1.403 2.974 0.3937, 1.3996 3.0 0.3937, 0.5869 3.0502 -1.9685, 0.597 3.026 -1.9685, 0.5 3.0 -1.9685, 0.6004 3.0 -1.9685, 0.597 2.974 -1.9685, 0.526 3.097 -1.9685, 0.5502 3.0869 -1.9685, 0.571 3.071 -1.9685, 0.4498 3.0869 -1.9685, 0.474 3.097 -1.9685, 0.5 3.1004 -1.9685, 0.403 3.026 -1.9685, 0.4131 3.0502 -1.9685, 0.429 3.071 -1.9685, 0.4131 2.9498 -1.9685, 0.403 2.974 -1.9685, 0.3996 3.0 -1.9685, 0.474 2.903 -1.9685, 0.4498 2.9131 -1.9685, 0.429 2.929 -1.9685, 0.5502 2.9131 -1.9685, 0.526 2.903 -1.9685, 0.5 2.8996 -1.9685, 0.5869 2.9498 -1.9685, 0.571 2.929 -1.9685, 0.5869 3.0502 0.3937, 0.597 3.026 0.3937, 0.6004 3.0 0.3937, 0.597 2.974 0.3937, 0.5869 2.9498 0.3937, 0.571 2.929 0.3937, 0.5545 2.9164 0.3937, 0.5502 3.0869 0.3937, 0.5545 3.0836 0.3937, 0.571 3.071 0.3937, 0.5502 2.9131 0.3937, 0.526 2.903 0.3937, 0.5 2.8996 0.3937, 0.474 2.903 0.3937, 0.4498 2.9131 0.3937, 0.429 2.929 0.3937, 0.4131 2.9498 0.3937, 0.403 2.974 0.3937, 0.3996 3.0 0.3937, 0.403 3.026 0.3937, 0.4131 3.0502 0.3937, 0.429 3.071 0.3937, 0.4498 3.0869 0.3937, 0.474 3.097 0.3937, 0.5 3.1004 0.3937, 0.526 3.097 0.3937, -0.4131 3.0502 -1.9685, -0.403 3.026 -1.9685, -0.5 3.0 -1.9685, -0.3996 3.0 -1.9685, -0.403 2.974 -1.9685, -0.474 3.097 -1.9685, -0.4498 3.0869 -1.9685, -0.429 3.071 -1.9685, -0.5502 3.0869 -1.9685, -0.526 3.097 -1.9685, -0.5 3.1004 -1.9685, -0.597 3.026 -1.9685, -0.5869 3.0502 -1.9685, -0.571 3.071 -1.9685, -0.5869 2.9498 -1.9685, -0.597 2.974 -1.9685, -0.6004 3.0 -1.9685, -0.526 2.903 -1.9685, -0.5502 2.9131 -1.9685, -0.571 2.929 -1.9685, -0.4498 2.9131 -1.9685, -0.474 2.903 -1.9685, -0.5 2.8996 -1.9685, -0.4131 2.9498 -1.9685, -0.429 2.929 -1.9685, -0.4498 2.9131 0.3937, -0.4513 2.9124 0.3937, -0.429 3.071 0.3937, -0.4131 3.0502 0.3937, -0.403 3.026 0.3937, -0.3996 3.0 0.3937, -0.403 2.974 0.3937, -0.4131 2.9498 0.3937, -0.429 2.929 0.3937, -0.474 2.903 0.3937, -0.5 2.8996 0.3937, -0.526 2.903 0.3937, -0.5502 2.9131 0.3937, -0.571 2.929 0.3937, -0.5869 2.9498 0.3937, -0.597 2.974 0.3937, -0.6004 3.0 0.3937, -0.597 3.026 0.3937, -0.5869 3.0502 0.3937, -0.571 3.071 0.3937, -0.5502 3.0869 0.3937, -0.526 3.097 0.3937, -0.5 3.1004 0.3937, -0.474 3.097 0.3937, -0.4513 3.0876 0.3937, -0.4498 3.0869 0.3937
            ]
        }
        coordIndex [
            0,1,2,-1,2,1,3,-1,2,3,4,-1,5,6,2,-1,2,6,7,-1,2,7,0,-1,8,9,2,-1,2,9,10,-1,2,10,5,-1,11,12,2,-1,2,12,13,-1,2,13,8,-1,14,15,2,-1,2,15,16,-1,2,16,11,-1,17,18,2,-1,2,18,19,-1,2,19,14,-1,20,21,2,-1,2,21,22,-1,2,22,17,-1,4,23,2,-1,2,23,24,-1,2,24,20,-1,16,25,11,-1,11,25,26,-1,11,26,12,-1,12,26,27,-1,12,27,13,-1,13,27,28,-1,13,28,8,-1,8,28,29,-1,8,29,9,-1,9,29,30,-1,9,30,10,-1,10,30,31,-1,10,31,5,-1,5,31,32,-1,5,32,6,-1,6,32,33,-1,6,33,7,-1,7,33,34,-1,7,34,0,-1,0,34,35,-1,0,35,1,-1,1,35,36,-1,1,36,3,-1,3,36,37,-1,3,37,4,-1,4,37,38,-1,4,38,23,-1,23,38,39,-1,23,39,24,-1,24,39,40,-1,24,40,20,-1,20,40,41,-1,20,41,21,-1,21,41,42,-1,21,42,22,-1,22,42,43,-1,22,43,17,-1,17,43,44,-1,17,44,18,-1,18,44,45,-1,18,45,19,-1,19,45,46,-1,19,46,14,-1,14,46,47,-1,14,47,15,-1,15,47,48,-1,15,48,16,-1,16,48,25,-1,49,50,51,-1,51,50,52,-1,51,52,53,-1,54,55,51,-1,51,55,56,-1,51,56,49,-1,57,58,51,-1,51,58,59,-1,51,59,54,-1,60,61,51,-1,51,61,62,-1,51,62,57,-1,63,64,51,-1,51,64,65,-1,51,65,60,-1,66,67,51,-1,51,67,68,-1,51,68,63,-1,69,70,51,-1,51,70,71,-1,51,71,66,-1,53,72,51,-1,51,72,73,-1,51,73,69,-1,56,74,49,-1,49,74,75,-1,49,75,50,-1,50,75,76,-1,50,76,52,-1,52,76,77,-1,52,77,53,-1,53,77,78,-1,53,78,72,-1,72,78,79,-1,72,79,73,-1,73,79,80,-1,73,80,69,-1,81,82,56,-1,56,82,83,-1,56,83,74,-1,80,84,69,-1,69,84,85,-1,69,85,70,-1,70,85,86,-1,70,86,71,-1,71,86,87,-1,71,87,66,-1,66,87,88,-1,66,88,67,-1,67,88,89,-1,67,89,68,-1,68,89,90,-1,68,90,63,-1,63,90,91,-1,63,91,64,-1,64,91,92,-1,64,92,65,-1,65,92,93,-1,65,93,60,-1,60,93,94,-1,60,94,61,-1,61,94,95,-1,61,95,62,-1,62,95,96,-1,62,96,57,-1,57,96,97,-1,57,97,58,-1,58,97,98,-1,58,98,59,-1,59,98,99,-1,59,99,54,-1,54,99,81,-1,54,81,55,-1,55,81,56,-1,100,101,102,-1,102,101,103,-1,102,103,104,-1,105,106,102,-1,102,106,107,-1,102,107,100,-1,108,109,102,-1,102,109,110,-1,102,110,105,-1,111,112,102,-1,102,112,113,-1,102,113,108,-1,114,115,102,-1,102,115,116,-1,102,116,111,-1,117,118,102,-1,102,118,119,-1,102,119,114,-1,120,121,102,-1,102,121,122,-1,102,122,117,-1,104,123,102,-1,102,123,124,-1,102,124,120,-1,125,126,121,-1,106,127,107,-1,107,127,128,-1,107,128,100,-1,100,128,129,-1,100,129,101,-1,101,129,130,-1,101,130,103,-1,103,130,131,-1,103,131,104,-1,104,131,132,-1,104,132,123,-1,123,132,133,-1,123,133,124,-1,124,133,125,-1,124,125,120,-1,120,125,121,-1,126,134,121,-1,121,134,135,-1,121,135,122,-1,122,135,136,-1,122,136,117,-1,117,136,137,-1,117,137,118,-1,118,137,138,-1,118,138,119,-1,119,138,139,-1,119,139,114,-1,114,139,140,-1,114,140,115,-1,115,140,141,-1,115,141,116,-1,116,141,142,-1,116,142,111,-1,111,142,143,-1,111,143,112,-1,112,143,144,-1,112,144,113,-1,113,144,145,-1,113,145,108,-1,108,145,146,-1,108,146,109,-1,109,146,147,-1,109,147,110,-1,110,147,148,-1,110,148,105,-1,105,148,149,-1,105,149,106,-1,106,149,150,-1,106,150,127,-1,151,152,153,-1,153,152,154,-1,153,154,155,-1,156,157,153,-1,153,157,158,-1,153,158,151,-1,159,160,153,-1,153,160,161,-1,153,161,156,-1,162,163,153,-1,153,163,164,-1,153,164,159,-1,165,166,153,-1,153,166,167,-1,153,167,162,-1,168,169,153,-1,153,169,170,-1,153,170,165,-1,171,172,153,-1,153,172,173,-1,153,173,168,-1,155,174,153,-1,153,174,175,-1,153,175,171,-1,167,176,162,-1,162,176,177,-1,162,177,163,-1,163,177,178,-1,163,178,164,-1,164,178,179,-1,164,179,159,-1,159,179,180,-1,159,180,160,-1,160,180,181,-1,160,181,161,-1,161,181,182,-1,161,182,156,-1,156,182,183,-1,156,183,157,-1,157,183,184,-1,157,184,158,-1,158,184,185,-1,158,185,151,-1,151,185,186,-1,151,186,152,-1,152,186,187,-1,152,187,154,-1,154,187,188,-1,154,188,155,-1,155,188,189,-1,155,189,174,-1,174,189,190,-1,174,190,175,-1,175,190,191,-1,175,191,171,-1,171,191,192,-1,171,192,172,-1,172,192,193,-1,172,193,173,-1,173,193,194,-1,173,194,168,-1,168,194,195,-1,168,195,169,-1,169,195,196,-1,169,196,170,-1,170,196,197,-1,170,197,165,-1,165,197,198,-1,165,198,166,-1,166,198,199,-1,166,199,167,-1,167,199,176,-1,200,201,202,-1,202,201,203,-1,202,203,204,-1,205,206,202,-1,202,206,207,-1,202,207,200,-1,208,209,202,-1,202,209,210,-1,202,210,205,-1,211,212,202,-1,202,212,213,-1,202,213,208,-1,214,215,202,-1,202,215,216,-1,202,216,211,-1,217,218,202,-1,202,218,219,-1,202,219,214,-1,220,221,202,-1,202,221,222,-1,202,222,217,-1,204,223,202,-1,202,223,224,-1,202,224,220,-1,216,225,211,-1,211,225,226,-1,211,226,212,-1,212,226,227,-1,212,227,213,-1,213,227,228,-1,213,228,208,-1,208,228,229,-1,208,229,209,-1,209,229,230,-1,209,230,210,-1,210,230,231,-1,210,231,205,-1,205,231,232,-1,205,232,206,-1,206,232,233,-1,206,233,207,-1,207,233,234,-1,207,234,200,-1,200,234,235,-1,200,235,201,-1,201,235,236,-1,201,236,203,-1,203,236,237,-1,203,237,204,-1,204,237,238,-1,204,238,223,-1,223,238,239,-1,223,239,224,-1,224,239,240,-1,224,240,220,-1,220,240,241,-1,220,241,221,-1,221,241,242,-1,221,242,222,-1,222,242,243,-1,222,243,217,-1,217,243,244,-1,217,244,218,-1,218,244,245,-1,218,245,219,-1,219,245,246,-1,219,246,214,-1,214,246,247,-1,214,247,215,-1,215,247,248,-1,215,248,216,-1,216,248,225,-1,249,250,251,-1,251,250,252,-1,251,252,253,-1,254,255,251,-1,251,255,256,-1,251,256,249,-1,257,258,251,-1,251,258,259,-1,251,259,254,-1,260,261,251,-1,251,261,262,-1,251,262,257,-1,263,264,251,-1,251,264,265,-1,251,265,260,-1,266,267,251,-1,251,267,268,-1,251,268,263,-1,269,270,251,-1,251,270,271,-1,251,271,266,-1,253,272,251,-1,251,272,273,-1,251,273,269,-1,265,274,260,-1,260,274,275,-1,260,275,261,-1,261,275,276,-1,261,276,262,-1,262,276,277,-1,262,277,257,-1,257,277,278,-1,257,278,258,-1,258,278,279,-1,258,279,259,-1,259,279,280,-1,259,280,254,-1,254,280,281,-1,254,281,255,-1,255,281,282,-1,255,282,256,-1,256,282,283,-1,256,283,249,-1,249,283,284,-1,249,284,250,-1,250,284,285,-1,250,285,252,-1,252,285,286,-1,252,286,253,-1,253,286,287,-1,253,287,272,-1,272,287,288,-1,272,288,273,-1,273,288,289,-1,273,289,269,-1,269,289,290,-1,269,290,270,-1,270,290,291,-1,270,291,271,-1,271,291,292,-1,271,292,266,-1,266,292,293,-1,266,293,267,-1,267,293,294,-1,267,294,268,-1,268,294,295,-1,268,295,263,-1,263,295,296,-1,263,296,264,-1,264,296,297,-1,264,297,265,-1,265,297,274,-1,298,299,300,-1,300,299,301,-1,300,301,302,-1,303,304,300,-1,300,304,305,-1,300,305,298,-1,306,307,300,-1,300,307,308,-1,300,308,303,-1,309,310,300,-1,300,310,311,-1,300,311,306,-1,312,313,300,-1,300,313,314,-1,300,314,309,-1,315,316,300,-1,300,316,317,-1,300,317,312,-1,318,319,300,-1,300,319,320,-1,300,320,315,-1,302,321,300,-1,300,321,322,-1,300,322,318,-1,314,323,309,-1,309,323,324,-1,309,324,310,-1,310,324,325,-1,310,325,311,-1,311,325,326,-1,311,326,306,-1,306,326,327,-1,306,327,307,-1,307,327,328,-1,307,328,308,-1,308,328,329,-1,308,329,303,-1,303,329,330,-1,303,330,304,-1,304,330,331,-1,304,331,305,-1,305,331,332,-1,305,332,298,-1,298,332,333,-1,298,333,299,-1,299,333,334,-1,299,334,301,-1,301,334,335,-1,301,335,302,-1,302,335,336,-1,302,336,321,-1,321,336,337,-1,321,337,322,-1,322,337,338,-1,322,338,318,-1,318,338,339,-1,318,339,319,-1,319,339,340,-1,319,340,320,-1,320,340,341,-1,320,341,315,-1,315,341,342,-1,315,342,316,-1,316,342,343,-1,316,343,317,-1,317,343,344,-1,317,344,312,-1,312,344,345,-1,312,345,313,-1,313,345,346,-1,313,346,314,-1,314,346,323,-1,347,348,349,-1,349,348,350,-1,349,350,351,-1,352,353,349,-1,349,353,354,-1,349,354,347,-1,355,356,349,-1,349,356,357,-1,349,357,352,-1,358,359,349,-1,349,359,360,-1,349,360,355,-1,361,362,349,-1,349,362,363,-1,349,363,358,-1,364,365,349,-1,349,365,366,-1,349,366,361,-1,367,368,349,-1,349,368,369,-1,349,369,364,-1,351,370,349,-1,349,370,371,-1,349,371,367,-1,354,372,347,-1,347,372,373,-1,347,373,348,-1,348,373,374,-1,348,374,350,-1,350,374,375,-1,350,375,351,-1,351,375,376,-1,351,376,370,-1,370,376,377,-1,370,377,371,-1,371,377,378,-1,371,378,367,-1,379,380,354,-1,354,380,381,-1,354,381,372,-1,378,382,367,-1,367,382,383,-1,367,383,368,-1,368,383,384,-1,368,384,369,-1,369,384,385,-1,369,385,364,-1,364,385,386,-1,364,386,365,-1,365,386,387,-1,365,387,366,-1,366,387,388,-1,366,388,361,-1,361,388,389,-1,361,389,362,-1,362,389,390,-1,362,390,363,-1,363,390,391,-1,363,391,358,-1,358,391,392,-1,358,392,359,-1,359,392,393,-1,359,393,360,-1,360,393,394,-1,360,394,355,-1,355,394,395,-1,355,395,356,-1,356,395,396,-1,356,396,357,-1,357,396,397,-1,357,397,352,-1,352,397,379,-1,352,379,353,-1,353,379,354,-1,398,399,400,-1,400,399,401,-1,400,401,402,-1,403,404,400,-1,400,404,405,-1,400,405,398,-1,406,407,400,-1,400,407,408,-1,400,408,403,-1,409,410,400,-1,400,410,411,-1,400,411,406,-1,412,413,400,-1,400,413,414,-1,400,414,409,-1,415,416,400,-1,400,416,417,-1,400,417,412,-1,418,419,400,-1,400,419,420,-1,400,420,415,-1,402,421,400,-1,400,421,422,-1,400,422,418,-1,423,424,419,-1,404,425,405,-1,405,425,426,-1,405,426,398,-1,398,426,427,-1,398,427,399,-1,399,427,428,-1,399,428,401,-1,401,428,429,-1,401,429,402,-1,402,429,430,-1,402,430,421,-1,421,430,431,-1,421,431,422,-1,422,431,423,-1,422,423,418,-1,418,423,419,-1,424,432,419,-1,419,432,433,-1,419,433,420,-1,420,433,434,-1,420,434,415,-1,415,434,435,-1,415,435,416,-1,416,435,436,-1,416,436,417,-1,417,436,437,-1,417,437,412,-1,412,437,438,-1,412,438,413,-1,413,438,439,-1,413,439,414,-1,414,439,440,-1,414,440,409,-1,409,440,441,-1,409,441,410,-1,410,441,442,-1,410,442,411,-1,411,442,443,-1,411,443,406,-1,406,443,444,-1,406,444,407,-1,407,444,445,-1,407,445,408,-1,408,445,446,-1,408,446,403,-1,403,446,447,-1,403,447,404,-1,404,447,448,-1,404,448,425,-1,
        ]
    }
}
Shape{
    appearance Appearance {
        material  Material {
            diffuseColor 0.7019607843137254 0.7019607843137254 0.7019607843137254
            specularColor 0.050980392156862744 0.050980392156862744 0.050980392156862744
            ambientIntensity 1.0
            transparency 0.0
            shininess 0.5
        }
    }
    geometry IndexedFaceSet {
        ccw TRUE
        solid FALSE
        coord DEF co Coordinate {
            point [
                6.752 3.7402 0.0, 7.3819 3.7402 0.0, 6.752 3.1102 0.0, 7.3819 3.1102 0.0, -7.3819 3.7402 0.0, -6.752 3.7402 0.0, -7.3819 3.1102 0.0, -6.752 3.1102 0.0, 7.3819 -3.7402 0.0, 6.752 -3.7402 0.0, 7.3819 -3.1102 0.0, 6.752 -3.1102 0.0, 7.3819 2.7165 0.3937, 7.3819 3.7402 3.1496, 7.3819 -2.7165 0.3937, 7.3819 -3.7402 3.1496, -6.3583 3.7402 0.3937, -7.3819 3.7402 3.1496, 6.3583 3.7402 0.3937, -7.3819 -3.1102 0.0, -7.3819 -3.7402 0.0, -7.3819 -2.7165 0.3937, -7.3819 -3.7402 3.1496, -7.3819 2.7165 0.3937, 6.3583 -3.7402 0.3937, -6.3583 -3.7402 0.3937, -6.752 -3.7402 0.0
            ]
        }
        coordIndex [
            0,1,2,-1,2,1,3,-1,4,5,6,-1,6,5,7,-1,8,9,10,-1,10,9,11,-1,3,1,12,-1,12,1,13,-1,12,13,14,-1,14,13,15,-1,14,15,10,-1,10,15,8,-1,5,4,16,-1,16,4,17,-1,16,17,18,-1,18,17,13,-1,18,13,0,-1,0,13,1,-1,19,20,21,-1,21,20,22,-1,21,22,23,-1,23,22,17,-1,23,17,6,-1,6,17,4,-1,9,8,24,-1,24,8,15,-1,24,15,25,-1,25,15,22,-1,25,22,26,-1,26,22,20,-1,
        ]
    }
}
Shape{
    appearance Appearance {
        material  Material {
            diffuseColor 0.1568627450980392 0.1568627450980392 0.1568627450980392
            specularColor 0.011764705882352941 0.011764705882352941 0.011764705882352941
            ambientIntensity 0.2235
            transparency 0.0
            shininess 0.5
        }
    }
    geometry IndexedFaceSet {
        ccw TRUE
        solid FALSE
        coord DEF co Coordinate {
            point [
                7.2669 -3.7402 3.1496, 7.3819 -3.7402 3.1496, 7.3819 -1.1787 3.1496, -3.6747 -0.0551 3.1496, -3.6182 -0.1224 3.1496, -3.6182 -0.0 3.1496, -3.0939 -2.1145 3.1496, -3.0306 -2.1407 3.1496, -3.0306 -1.1787 3.1496, 6.9061 -2.1145 3.1496, 6.9694 -2.1407 3.1496, 6.9694 -1.1787 3.1496, 6.3253 -0.0551 3.1496, 6.3818 -0.1224 3.1496, 6.3818 -0.0 3.1496, 2.9641 -2.5389 3.1496, 3.2039 -1.1787 3.1496, 2.558 -1.1787 3.1496, 3.5854 -2.2875 3.1496, 5.0 -2.2875 3.1496, 5.0 -1.1787 3.1496, 6.3818 0.0944 3.1496, 6.335 0.0551 3.1496, 6.6436 0.3141 3.1496, 6.9694 -0.0 3.1496, 6.8123 1.2708 3.1496, 6.9694 1.2708 3.1496, 6.9694 2.1619 3.1496, 6.9694 3.7402 3.1496, 6.8203 2.7959 3.1496, 6.903 2.6973 3.1496, 7.2669 1.2708 3.1496, 7.0359 2.5389 3.1496, 7.2669 3.7402 3.1496, 6.9694 2.6181 3.1496, 6.9532 2.6374 3.1496, 6.4649 2.2276 3.1496, 6.4146 2.2875 3.1496, 6.3818 1.7567 3.1496, 6.3818 2.2875 3.1496, 6.0517 2.2875 3.1496, 6.2961 1.2708 3.1496, 5.8642 -1.1787 3.1496, 5.6177 -2.2875 3.1496, 5.6776 -2.2372 3.1496, 3.2812 -3.7402 3.1496, 3.1797 -2.7959 3.1496, 3.097 -2.6973 3.1496, 6.0376 -2.6663 3.1496, 5.9777 -2.7166 3.1496, 6.0517 -3.7402 3.1496, 5.8832 -2.7959 3.1496, 5.0 -3.7402 3.1496, 5.0 -2.7959 3.1496, 3.2812 -2.7959 3.1496, 5.9664 -0.2542 3.1496, 6.0167 -0.3141 3.1496, 6.0517 -0.1826 3.1496, 6.0517 -0.2847 3.1496, 6.2693 -0.0 3.1496, 6.5346 -0.3044 3.1496, 6.3818 -1.1707 3.1496, 6.3818 -1.1787 3.1496, 6.3804 -1.1787 3.1496, 6.3818 -3.7402 3.1496, 6.1321 -2.5871 3.1496, 6.0517 -2.6545 3.1496, 3.8679 2.5871 3.1496, 3.9624 2.6663 3.1496, 3.2812 3.7402 3.1496, 3.6358 1.2708 3.1496, 3.9833 0.3141 3.1496, 4.0336 0.2542 3.1496, 5.0 0.2542 3.1496, 3.7307 -0.0 3.1496, 6.3818 2.7959 3.1496, 6.3818 3.7402 3.1496, 6.0517 2.7959 3.1496, 6.0517 3.7402 3.1496, 5.0 2.7959 3.1496, 5.0 3.7402 3.1496, 4.1168 2.7959 3.1496, 4.0223 2.7166 3.1496, 4.3823 2.2875 3.1496, 6.1257 0.3044 3.1496, 6.0517 1.2708 3.1496, 5.0 1.2708 3.1496, 5.0 2.2875 3.1496, 4.152 1.2708 3.1496, 4.3224 2.2372 3.1496, 6.9694 -2.729 3.1496, 6.9694 -3.7402 3.1496, 6.9861 -2.7221 3.1496, 7.0548 -2.6694 3.1496, 7.1075 -2.6007 3.1496, 6.9861 -2.1476 3.1496, 7.0548 -2.2003 3.1496, 7.2669 -1.1787 3.1496, 7.1075 -2.269 3.1496, 7.1407 -2.349 3.1496, 7.152 -2.4349 3.1496, 7.1407 -2.5207 3.1496, 6.533 -2.269 3.1496, 6.5857 -2.2003 3.1496, 6.533 -2.6007 3.1496, 6.5857 -2.6694 3.1496, 6.6544 -2.7221 3.1496, 6.9061 -2.7553 3.1496, 6.8203 -2.7666 3.1496, 6.7344 -2.7553 3.1496, 6.6544 -2.1476 3.1496, 6.7344 -2.1145 3.1496, 6.8203 -2.1032 3.1496, 6.4999 -2.5207 3.1496, 6.4886 -2.4349 3.1496, 6.4999 -2.349 3.1496, 2.558 -3.7402 3.1496, 3.0468 -2.6374 3.1496, 3.2812 -2.4407 3.1496, 3.2812 -2.5428 3.1496, 3.5351 -2.2276 3.1496, 3.7201 -1.1787 3.1496, 3.8743 -0.3044 3.1496, 2.558 -0.0 3.1496, 3.2812 -0.7402 3.1496, 3.2812 -0.0 3.1496, 3.3564 -0.3141 3.1496, 3.665 -0.0551 3.1496, 3.6747 0.0551 3.1496, 3.7249 -0.0048 3.1496, 3.9342 -0.2542 3.1496, 5.0 -0.2542 3.1496, 6.2751 0.0048 3.1496, 6.0658 0.2542 3.1496, 6.0517 0.2542 3.1496, -7.3819 -3.7402 3.1496, -6.8203 -2.7959 3.1496, -6.903 -2.6973 3.1496, -6.1257 -0.3044 3.1496, -6.2799 -1.1787 3.1496, -5.0 -1.1787 3.1496, -6.4146 -2.2875 3.1496, -6.4649 -2.2276 3.1496, -6.9532 -2.6374 3.1496, -7.0359 -2.5389 3.1496, -7.3819 -1.1787 3.1496, -6.7961 -1.1787 3.1496, -7.3819 -0.0 3.1496, -6.6436 -0.3141 3.1496, -6.335 -0.0551 3.1496, -6.2693 -0.0 3.1496, -6.2751 -0.0048 3.1496, -6.0658 -0.2542 3.1496, -5.0 -0.2542 3.1496, -4.0336 -0.2542 3.1496, -2.8925 -2.269 3.1496, -2.442 -1.1787 3.1496, -2.9452 -2.2003 3.1496, -3.0139 -2.1476 3.1496, -2.8593 -2.349 3.1496, -2.848 -2.4349 3.1496, -2.442 -3.7402 3.1496, -2.8593 -2.5207 3.1496, -2.8925 -2.6007 3.1496, -3.0306 -2.729 3.1496, -3.0306 -3.7402 3.1496, -3.0139 -2.7221 3.1496, -2.9452 -2.6694 3.1496, -3.3456 -2.7221 3.1496, -3.4143 -2.6694 3.1496, -3.6182 -3.7402 3.1496, -3.467 -2.6007 3.1496, -3.0939 -2.7553 3.1496, -3.1797 -2.7666 3.1496, -3.2656 -2.7553 3.1496, -3.5001 -2.5207 3.1496, -3.5114 -2.4349 3.1496, -3.6182 -1.1787 3.1496, -3.5001 -2.349 3.1496, -3.467 -2.269 3.1496, -3.4143 -2.2003 3.1496, -3.3456 -2.1476 3.1496, -3.2656 -2.1145 3.1496, -3.1797 -2.1032 3.1496, -3.0306 3.7402 3.1496, -3.1797 2.7959 3.1496, -3.097 2.6973 3.1496, -3.6182 2.7959 3.1496, -3.6182 3.7402 3.1496, -3.9483 2.7959 3.1496, -3.9483 3.7402 3.1496, -5.0 2.7959 3.1496, -5.0 3.7402 3.1496, -5.8832 2.7959 3.1496, -7.3819 3.7402 3.1496, -6.0376 2.6663 3.1496, -6.1321 2.5871 3.1496, -5.9777 2.7166 3.1496, -5.6177 2.2875 3.1496, -3.7039 1.2708 3.1496, -3.6182 1.7567 3.1496, -3.9483 2.2875 3.1496, -6.3642 1.2708 3.1496, -7.3819 1.2708 3.1496, -6.5346 0.3044 3.1496, -6.3253 0.0551 3.1496, -6.0167 0.3141 3.1496, -5.9664 0.2542 3.1496, -5.0 0.2542 3.1496, -5.0 -2.2875 3.1496, -4.3823 -2.2875 3.1496, -4.1358 -1.1787 3.1496, -5.0 -2.7959 3.1496, -5.0 -3.7402 3.1496, -4.1168 -2.7959 3.1496, -3.9483 -3.7402 3.1496, -4.0223 -2.7166 3.1496, -3.9624 -2.6663 3.1496, -4.3224 -2.2372 3.1496, -3.0306 -0.0 3.1496, -3.4654 -0.3044 3.1496, -3.6182 -1.1707 3.1496, -3.6196 -1.1787 3.1496, -3.8679 -2.5871 3.1496, -3.9483 -2.6545 3.1496, -3.9833 -0.3141 3.1496, -3.9483 -0.1826 3.1496, -3.9483 -0.2847 3.1496, -3.7307 -0.0 3.1496, -3.6182 0.0944 3.1496, -3.665 0.0551 3.1496, -5.6776 2.2372 3.1496, -5.848 1.2708 3.1496, -5.0 2.2875 3.1496, -5.0 1.2708 3.1496, -3.9483 1.2708 3.1496, -3.8743 0.3044 3.1496, -3.3564 0.3141 3.1496, -3.1877 1.2708 3.1496, -3.0306 1.2708 3.1496, -3.0306 2.1619 3.1496, -2.442 1.2708 3.1496, -2.9641 2.5389 3.1496, -2.442 3.7402 3.1496, -3.0306 2.6181 3.1496, -3.0468 2.6374 3.1496, -3.5351 2.2276 3.1496, -3.5854 2.2875 3.1496, -3.6182 2.2875 3.1496, -3.7249 0.0048 3.1496, -3.9342 0.2542 3.1496, -3.9483 0.2542 3.1496, -1.2693 -0.0 3.1496, -2.442 -0.0 3.1496, -1.2751 -0.0048 3.1496, -1.335 -0.0551 3.1496, -1.0658 -0.2542 3.1496, -1.1257 -0.3044 3.1496, -1.0517 -0.2542 3.1496, -1.0517 -1.1787 3.1496, 0.0 -0.2542 3.1496, 0.0 -1.1787 3.1496, 0.9664 -0.2542 3.1496, 1.3818 -0.0 3.1496, 1.3818 0.0944 3.1496, 1.335 0.0551 3.1496, 1.1257 0.3044 3.1496, 1.0658 0.2542 3.1496, 1.2751 0.0048 3.1496, 1.2693 -0.0 3.1496, 1.0517 0.2542 3.1496, 1.0517 1.2708 3.1496, 0.0 0.2542 3.1496, 0.0 1.2708 3.1496, -1.0167 0.3141 3.1496, -0.848 1.2708 3.1496, -1.2799 -1.1787 3.1496, -1.4649 -2.2276 3.1496, 2.1407 -2.349 3.1496, 2.152 -2.4349 3.1496, 2.1407 -2.5207 3.1496, 2.1075 -2.6007 3.1496, 2.0939 -3.7402 3.1496, 1.6544 -2.7221 3.1496, 1.5857 -2.6694 3.1496, 1.3818 -3.7402 3.1496, 1.533 -2.6007 3.1496, 2.0939 -2.6184 3.1496, 2.0548 -2.6694 3.1496, 1.9861 -2.7221 3.1496, 1.9061 -2.7553 3.1496, 1.8203 -2.7666 3.1496, 1.7344 -2.7553 3.1496, 1.4999 -2.5207 3.1496, 1.4886 -2.4349 3.1496, 1.3818 -1.1787 3.1496, 1.4999 -2.349 3.1496, 1.533 -2.269 3.1496, 1.5857 -2.2003 3.1496, 1.9061 -2.1145 3.1496, 1.9861 -2.1476 3.1496, 2.0939 -1.1787 3.1496, 1.6544 -2.1476 3.1496, 1.7344 -2.1145 3.1496, 1.8203 -2.1032 3.1496, 2.0548 -2.2003 3.1496, 2.0939 -2.2513 3.1496, 2.1075 -2.269 3.1496, 1.9532 2.6374 3.1496, 2.0939 3.7402 3.1496, 1.903 2.6973 3.1496, 1.8203 2.7959 3.1496, 1.4649 2.2276 3.1496, 1.4146 2.2875 3.1496, 1.3818 1.7567 3.1496, -1.0517 3.7402 3.1496, -1.0517 2.6545 3.1496, -1.0376 2.6663 3.1496, 1.3818 2.7959 3.1496, 1.3818 3.7402 3.1496, 1.0517 2.7959 3.1496, 1.0517 3.7402 3.1496, 0.0 2.7959 3.1496, 0.0 3.7402 3.1496, -0.8832 2.7959 3.1496, -0.9777 2.7166 3.1496, -0.6177 2.2875 3.1496, 1.0517 2.2875 3.1496, 0.0 2.2875 3.1496, -0.6776 2.2372 3.1496, 1.3818 2.2875 3.1496, 1.2961 1.2708 3.1496, -1.1321 2.5871 3.1496, -1.3642 1.2708 3.1496, -1.5346 0.3044 3.1496, -1.3253 0.0551 3.1496, -1.0517 0.2847 3.1496, -1.0517 0.1826 3.1496, -0.9664 0.2542 3.1496, 0.6776 -2.2372 3.1496, 0.8642 -1.1787 3.1496, 0.6177 -2.2875 3.1496, 1.0517 -3.7402 3.1496, 1.0517 -2.6545 3.1496, 1.0376 -2.6663 3.1496, 1.0167 -0.3141 3.1496, 1.0517 -0.1826 3.1496, 1.0517 -0.2847 3.1496, 1.3253 -0.0551 3.1496, 1.3818 -0.1224 3.1496, 2.0939 -0.0 3.1496, 1.1321 -2.5871 3.1496, 1.3804 -1.1787 3.1496, 1.3818 -1.1707 3.1496, 1.5346 -0.3044 3.1496, 0.0 -2.2875 3.1496, -1.0517 -2.2875 3.1496, -1.4146 -2.2875 3.1496, -1.903 -2.6973 3.1496, -1.9532 -2.6374 3.1496, -2.0359 -2.5389 3.1496, -1.7961 -1.1787 3.1496, -1.6436 -0.3141 3.1496, 0.9777 -2.7166 3.1496, 0.8832 -2.7959 3.1496, 0.0 -3.7402 3.1496, 0.0 -2.7959 3.1496, -1.0517 -3.7402 3.1496, -1.0517 -2.7959 3.1496, -1.8203 -2.7959 3.1496, 1.6436 0.3141 3.1496, 1.8123 1.2708 3.1496, 3.4654 0.3044 3.1496, 3.2812 1.2708 3.1496, 2.558 1.2708 3.1496, 2.0939 1.2708 3.1496, 2.0359 2.5389 3.1496, 7.2669 -0.0 3.1496, 2.558 3.7402 3.1496, 7.3819 -0.0 3.1496, 7.3819 1.2708 3.1496, 7.3819 3.7402 3.1496
            ]
        }
        coordIndex [
            0,1,2,-1,3,4,5,-1,6,7,8,-1,9,10,11,-1,12,13,14,-1,15,16,17,-1,18,19,20,-1,14,21,22,-1,21,14,23,-1,23,14,24,-1,23,24,25,-1,25,24,26,-1,25,26,27,-1,28,29,30,-1,27,31,32,-1,32,31,33,-1,32,33,34,-1,34,33,28,-1,34,28,35,-1,35,28,30,-1,35,30,36,-1,36,30,37,-1,36,37,38,-1,37,39,38,-1,38,39,40,-1,38,40,41,-1,20,19,42,-1,42,19,43,-1,42,43,44,-1,45,46,47,-1,44,43,48,-1,48,43,49,-1,48,49,50,-1,50,49,51,-1,50,51,52,-1,52,51,53,-1,52,53,45,-1,45,53,54,-1,45,54,46,-1,55,56,57,-1,57,56,58,-1,57,58,59,-1,14,13,24,-1,24,13,60,-1,24,60,11,-1,11,60,61,-1,11,61,62,-1,62,61,63,-1,62,63,64,-1,64,63,65,-1,64,65,50,-1,50,65,66,-1,50,66,48,-1,67,68,69,-1,67,69,70,-1,71,72,73,-1,72,71,74,-1,29,28,75,-1,75,28,76,-1,75,76,77,-1,77,76,78,-1,77,78,79,-1,79,78,80,-1,79,80,81,-1,81,80,69,-1,81,69,82,-1,82,69,68,-1,82,68,83,-1,84,41,85,-1,85,41,40,-1,85,40,86,-1,86,40,87,-1,86,87,88,-1,88,87,83,-1,88,83,89,-1,89,83,68,-1,90,91,92,-1,92,91,0,-1,92,0,93,-1,93,0,94,-1,95,96,97,-1,97,96,98,-1,98,99,97,-1,97,99,100,-1,97,100,0,-1,0,100,101,-1,0,101,94,-1,102,103,62,-1,104,64,105,-1,105,64,106,-1,90,107,91,-1,91,107,108,-1,91,108,64,-1,64,108,109,-1,64,109,106,-1,103,110,62,-1,62,110,111,-1,62,111,11,-1,11,111,112,-1,11,112,9,-1,104,113,64,-1,64,113,114,-1,64,114,62,-1,62,114,115,-1,62,115,102,-1,116,45,117,-1,117,45,47,-1,117,47,118,-1,118,47,119,-1,118,119,120,-1,120,119,18,-1,120,18,121,-1,121,18,20,-1,121,20,122,-1,123,124,125,-1,125,124,126,-1,125,126,127,-1,71,128,74,-1,74,128,125,-1,74,125,129,-1,129,125,127,-1,129,127,130,-1,130,127,122,-1,130,122,131,-1,131,122,20,-1,131,20,55,-1,55,20,42,-1,55,42,56,-1,58,12,59,-1,59,12,14,-1,59,14,132,-1,132,14,22,-1,132,22,133,-1,133,22,84,-1,133,84,134,-1,134,84,85,-1,134,85,73,-1,73,85,86,-1,73,86,71,-1,71,86,88,-1,135,136,137,-1,138,139,140,-1,140,139,141,-1,141,139,142,-1,141,142,137,-1,137,142,143,-1,137,143,135,-1,135,143,144,-1,135,144,145,-1,145,144,146,-1,145,146,147,-1,147,146,148,-1,147,148,149,-1,150,147,151,-1,151,147,149,-1,151,149,152,-1,152,149,138,-1,152,138,153,-1,153,138,140,-1,153,140,154,-1,155,156,157,-1,157,156,158,-1,155,159,156,-1,156,159,160,-1,156,160,161,-1,161,160,162,-1,161,162,163,-1,164,165,166,-1,166,165,161,-1,166,161,167,-1,167,161,163,-1,168,169,170,-1,170,169,171,-1,164,172,165,-1,165,172,173,-1,165,173,170,-1,170,173,174,-1,170,174,168,-1,171,175,170,-1,170,175,176,-1,170,176,177,-1,176,178,177,-1,177,178,179,-1,177,179,180,-1,180,181,177,-1,177,181,182,-1,177,182,8,-1,8,182,183,-1,8,183,6,-1,184,185,186,-1,185,184,187,-1,187,184,188,-1,187,188,189,-1,189,188,190,-1,189,190,191,-1,191,190,192,-1,191,192,193,-1,192,194,195,-1,195,194,196,-1,193,192,197,-1,197,192,195,-1,197,195,198,-1,199,200,201,-1,196,194,202,-1,202,194,203,-1,202,203,204,-1,204,203,147,-1,204,147,205,-1,205,147,150,-1,205,150,206,-1,206,150,207,-1,206,207,208,-1,209,210,211,-1,136,135,212,-1,212,135,213,-1,212,213,214,-1,214,213,215,-1,214,215,216,-1,216,215,217,-1,216,217,210,-1,210,217,218,-1,210,218,211,-1,5,4,219,-1,219,4,220,-1,219,220,8,-1,8,220,221,-1,8,221,177,-1,177,221,222,-1,177,222,170,-1,170,222,223,-1,170,223,215,-1,215,223,224,-1,215,224,217,-1,141,209,140,-1,140,209,211,-1,140,211,154,-1,154,211,225,-1,154,225,226,-1,226,225,227,-1,226,227,228,-1,5,229,230,-1,195,231,198,-1,198,231,232,-1,198,232,233,-1,233,232,234,-1,233,234,201,-1,201,234,235,-1,201,235,199,-1,199,235,236,-1,229,5,237,-1,237,5,219,-1,237,219,238,-1,238,219,239,-1,238,239,240,-1,240,241,242,-1,242,241,243,-1,242,243,244,-1,244,243,184,-1,244,184,245,-1,245,184,186,-1,245,186,246,-1,246,186,247,-1,246,247,200,-1,200,247,248,-1,200,248,201,-1,227,3,228,-1,228,3,5,-1,228,5,249,-1,249,5,230,-1,249,230,250,-1,250,230,236,-1,250,236,251,-1,251,236,235,-1,251,235,208,-1,208,235,234,-1,208,234,206,-1,206,234,232,-1,252,253,254,-1,254,253,255,-1,254,255,256,-1,256,255,257,-1,256,257,258,-1,258,259,260,-1,260,259,261,-1,260,261,262,-1,263,264,265,-1,266,267,265,-1,265,267,268,-1,265,268,263,-1,263,268,269,-1,270,271,272,-1,272,271,273,-1,272,273,274,-1,274,273,275,-1,258,257,259,-1,259,257,276,-1,259,276,277,-1,278,279,17,-1,17,279,116,-1,17,116,15,-1,15,116,117,-1,279,280,116,-1,116,280,281,-1,116,281,282,-1,283,284,285,-1,285,284,286,-1,281,287,282,-1,282,287,288,-1,282,288,289,-1,289,290,282,-1,282,290,291,-1,282,291,285,-1,285,291,292,-1,285,292,283,-1,286,293,285,-1,285,293,294,-1,285,294,295,-1,294,296,295,-1,295,296,297,-1,295,297,298,-1,299,300,301,-1,298,302,295,-1,295,302,303,-1,295,303,301,-1,301,303,304,-1,301,304,299,-1,300,305,301,-1,301,305,306,-1,301,306,17,-1,17,306,307,-1,17,307,278,-1,308,309,310,-1,310,309,311,-1,308,310,312,-1,312,310,313,-1,312,313,314,-1,315,316,317,-1,311,309,318,-1,318,309,319,-1,318,319,320,-1,320,319,321,-1,320,321,322,-1,322,321,323,-1,322,323,324,-1,324,323,315,-1,324,315,325,-1,325,315,317,-1,325,317,326,-1,271,327,273,-1,273,327,328,-1,273,328,275,-1,275,328,326,-1,275,326,329,-1,329,326,317,-1,313,330,314,-1,314,330,327,-1,314,327,331,-1,331,327,271,-1,331,271,266,-1,266,271,270,-1,266,270,267,-1,316,315,332,-1,332,315,243,-1,332,243,333,-1,333,243,241,-1,333,241,334,-1,334,241,253,-1,334,253,335,-1,335,253,252,-1,335,252,336,-1,336,252,337,-1,336,337,274,-1,274,337,338,-1,274,338,272,-1,339,340,341,-1,342,343,344,-1,261,340,262,-1,262,340,345,-1,262,345,346,-1,346,345,347,-1,346,347,269,-1,269,347,348,-1,269,348,263,-1,263,348,349,-1,263,349,350,-1,343,342,351,-1,351,342,285,-1,351,285,352,-1,352,285,295,-1,352,295,353,-1,353,295,301,-1,353,301,354,-1,341,340,355,-1,355,340,261,-1,355,261,356,-1,356,261,259,-1,356,259,357,-1,357,259,277,-1,357,277,358,-1,358,277,359,-1,358,359,161,-1,161,359,360,-1,161,360,156,-1,156,360,361,-1,156,361,253,-1,253,361,362,-1,253,362,255,-1,339,341,344,-1,344,341,363,-1,344,363,342,-1,342,363,364,-1,342,364,365,-1,365,364,366,-1,365,366,367,-1,367,366,368,-1,367,368,161,-1,161,368,369,-1,161,369,358,-1,264,263,370,-1,370,263,350,-1,370,350,371,-1,16,124,17,-1,17,124,123,-1,17,123,301,-1,301,123,350,-1,301,350,354,-1,354,350,349,-1,240,239,241,-1,241,239,219,-1,241,219,253,-1,253,219,8,-1,253,8,156,-1,156,8,7,-1,156,7,158,-1,128,372,125,-1,125,372,373,-1,125,373,123,-1,123,373,374,-1,123,374,350,-1,350,374,375,-1,350,375,371,-1,371,375,376,-1,27,26,31,-1,31,26,24,-1,31,24,377,-1,377,24,11,-1,377,11,97,-1,97,11,10,-1,97,10,95,-1,372,70,373,-1,373,70,69,-1,373,69,374,-1,374,69,378,-1,374,378,375,-1,375,378,309,-1,375,309,376,-1,376,309,308,-1,0,2,97,-1,97,2,379,-1,97,379,377,-1,377,379,380,-1,377,380,31,-1,31,380,381,-1,31,381,33,-1,
        ]
    }
}
Shape{
    appearance Appearance {
        material  Material {
            diffuseColor 0.7019607843137254 0.7019607843137254 0.7019607843137254
            specularColor 0.050980392156862744 0.050980392156862744 0.050980392156862744
            ambientIntensity 1.0
            transparency 0.0
            shininess 0.5
        }
    }
    geometry IndexedFaceSet {
        ccw TRUE
        solid FALSE
        coord DEF co Coordinate {
            point [
                -6.752 -3.7402 0.0, -7.3819 -3.7402 0.0, -6.752 -3.1102 0.0, -7.3819 -3.1102 0.0, -6.752 3.1102 0.0, -6.3583 2.7165 0.3937, -7.3819 3.1102 0.0, -7.3819 2.7165 0.3937, -6.3583 3.7402 0.3937, -6.752 3.7402 0.0, -6.3583 -2.7165 0.3937, -7.3819 -2.7165 0.3937, -6.3583 -3.7402 0.3937, 6.3583 2.7165 0.3937, 6.752 3.1102 0.0, 7.3819 2.7165 0.3937, 7.3819 3.1102 0.0, 6.752 3.7402 0.0, 6.3583 3.7402 0.3937, 6.752 -3.1102 0.0, 6.3583 -2.7165 0.3937, 7.3819 -3.1102 0.0, 7.3819 -2.7165 0.3937, 6.752 -3.7402 0.0, 6.3583 -3.7402 0.3937
            ]
        }
        coordIndex [
            0,1,2,-1,2,1,3,-1,4,5,6,-1,6,5,7,-1,5,4,8,-1,8,4,9,-1,10,2,11,-1,11,2,3,-1,12,0,10,-1,10,0,2,-1,13,14,15,-1,15,14,16,-1,14,13,17,-1,17,13,18,-1,19,20,21,-1,21,20,22,-1,23,24,19,-1,19,24,20,-1,
        ]
    }
}
Shape{
    appearance Appearance {
        material  Material {
            diffuseColor 0.6666666666666666 0.6666666666666666 0.6666666666666666
            specularColor 0.4666666666666667 0.4666666666666667 0.4666666666666667
            ambientIntensity 0.6667
            transparency 0.0
            shininess 0.5
        }
    }
    geometry IndexedFaceSet {
        ccw TRUE
        solid FALSE
        coord DEF co Coordinate {
            point [
                -2.6004 3.0 -1.9685, -2.597 3.026 0.3937, -2.597 3.026 -1.9685, -2.5869 3.0502 0.3937, -2.5869 3.0502 -1.9685, -2.571 3.071 0.3937, -2.571 3.071 -1.9685, -2.5502 3.0869 0.3937, -2.5502 3.0869 -1.9685, -2.526 3.097 0.3937, -2.526 3.097 -1.9685, -2.5 3.1004 0.3937, -2.5 3.1004 -1.9685, -2.474 3.097 0.3937, -2.474 3.097 -1.9685, -2.4498 3.0869 0.3937, -2.4498 3.0869 -1.9685, -2.429 3.071 0.3937, -2.429 3.071 -1.9685, -2.4131 3.0502 0.3937, -2.4131 3.0502 -1.9685, -2.403 3.026 0.3937, -2.403 3.026 -1.9685, -2.3996 3.0 0.3937, -2.3996 3.0 -1.9685, -2.403 2.974 0.3937, -2.403 2.974 -1.9685, -2.4131 2.9498 0.3937, -2.4131 2.9498 -1.9685, -2.429 2.929 0.3937, -2.429 2.929 -1.9685, -2.4498 2.9131 0.3937, -2.4498 2.9131 -1.9685, -2.474 2.903 0.3937, -2.474 2.903 -1.9685, -2.5 2.8996 0.3937, -2.5 2.8996 -1.9685, -2.526 2.903 0.3937, -2.526 2.903 -1.9685, -2.5502 2.9131 0.3937, -2.5502 2.9131 -1.9685, -2.571 2.929 0.3937, -2.571 2.929 -1.9685, -2.5869 2.9498 0.3937, -2.5869 2.9498 -1.9685, -2.597 2.974 0.3937, -2.597 2.974 -1.9685, -2.6004 3.0 0.3937, -2.5 3.0 -1.9685, -1.6004 3.0 -1.9685, -1.597 3.026 0.3937, -1.597 3.026 -1.9685, -1.5869 3.0502 0.3937, -1.5869 3.0502 -1.9685, -1.571 3.071 0.3937, -1.571 3.071 -1.9685, -1.5502 3.0869 0.3937, -1.5502 3.0869 -1.9685, -1.526 3.097 0.3937, -1.526 3.097 -1.9685, -1.5 3.1004 0.3937, -1.5 3.1004 -1.9685, -1.474 3.097 0.3937, -1.474 3.097 -1.9685, -1.4498 3.0869 0.3937, -1.4498 3.0869 -1.9685, -1.429 3.071 0.3937, -1.429 3.071 -1.9685, -1.4131 3.0502 0.3937, -1.4131 3.0502 -1.9685, -1.403 3.026 0.3937, -1.403 3.026 -1.9685, -1.3996 3.0 0.3937, -1.3996 3.0 -1.9685, -1.403 2.974 0.3937, -1.403 2.974 -1.9685, -1.4131 2.9498 0.3937, -1.4131 2.9498 -1.9685, -1.429 2.929 0.3937, -1.429 2.929 -1.9685, -1.4498 2.9131 0.3937, -1.4498 2.9131 -1.9685, -1.474 2.903 0.3937, -1.474 2.903 -1.9685, -1.5 2.8996 0.3937, -1.5 2.8996 -1.9685, -1.526 2.903 0.3937, -1.526 2.903 -1.9685, -1.5502 2.9131 0.3937, -1.5502 2.9131 -1.9685, -1.571 2.929 0.3937, -1.571 2.929 -1.9685, -1.5869 2.9498 0.3937, -1.5869 2.9498 -1.9685, -1.597 2.974 0.3937, -1.597 2.974 -1.9685, -1.6004 3.0 0.3937, -1.5 3.0 -1.9685
            ]
        }
        coordIndex [
            0,1,2,-1,2,1,3,-1,2,3,4,-1,4,3,5,-1,4,5,6,-1,6,5,7,-1,6,7,8,-1,8,7,9,-1,8,9,10,-1,10,9,11,-1,10,11,12,-1,12,11,13,-1,12,13,14,-1,14,13,15,-1,14,15,16,-1,16,15,17,-1,16,17,18,-1,18,17,19,-1,18,19,20,-1,20,19,21,-1,20,21,22,-1,22,21,23,-1,22,23,24,-1,24,23,25,-1,24,25,26,-1,26,25,27,-1,26,27,28,-1,28,27,29,-1,28,29,30,-1,30,29,31,-1,30,31,32,-1,32,31,33,-1,32,33,34,-1,34,33,35,-1,34,35,36,-1,36,35,37,-1,36,37,38,-1,38,37,39,-1,38,39,40,-1,40,39,41,-1,40,41,42,-1,42,41,43,-1,42,43,44,-1,44,43,45,-1,44,45,46,-1,46,45,47,-1,46,47,0,-1,0,47,1,-1,20,22,48,-1,48,22,24,-1,48,24,26,-1,14,16,48,-1,48,16,18,-1,48,18,20,-1,8,10,48,-1,48,10,12,-1,48,12,14,-1,2,4,48,-1,48,4,6,-1,48,6,8,-1,44,46,48,-1,48,46,0,-1,48,0,2,-1,38,40,48,-1,48,40,42,-1,48,42,44,-1,32,34,48,-1,48,34,36,-1,48,36,38,-1,26,28,48,-1,48,28,30,-1,48,30,32,-1,49,50,51,-1,51,50,52,-1,51,52,53,-1,53,52,54,-1,53,54,55,-1,55,54,56,-1,55,56,57,-1,57,56,58,-1,57,58,59,-1,59,58,60,-1,59,60,61,-1,61,60,62,-1,61,62,63,-1,63,62,64,-1,63,64,65,-1,65,64,66,-1,65,66,67,-1,67,66,68,-1,67,68,69,-1,69,68,70,-1,69,70,71,-1,71,70,72,-1,71,72,73,-1,73,72,74,-1,73,74,75,-1,75,74,76,-1,75,76,77,-1,77,76,78,-1,77,78,79,-1,79,78,80,-1,79,80,81,-1,81,80,82,-1,81,82,83,-1,83,82,84,-1,83,84,85,-1,85,84,86,-1,85,86,87,-1,87,86,88,-1,87,88,89,-1,89,88,90,-1,89,90,91,-1,91,90,92,-1,91,92,93,-1,93,92,94,-1,93,94,95,-1,95,94,96,-1,95,96,49,-1,49,96,50,-1,69,71,97,-1,97,71,73,-1,97,73,75,-1,63,65,97,-1,97,65,67,-1,97,67,69,-1,57,59,97,-1,97,59,61,-1,97,61,63,-1,51,53,97,-1,97,53,55,-1,97,55,57,-1,93,95,97,-1,97,95,49,-1,97,49,51,-1,87,89,97,-1,97,89,91,-1,97,91,93,-1,81,83,97,-1,97,83,85,-1,97,85,87,-1,75,77,97,-1,97,77,79,-1,97,79,81,-1,
        ]
    }
}
Shape{
    appearance Appearance {
        material  Material {
            diffuseColor 0.7019607843137254 0.7019607843137254 0.5254901960784314
            specularColor 0.050980392156862744 0.050980392156862744 0.0392156862745098
            ambientIntensity 0.9718
            transparency 0.0
            shininess 0.5
        }
    }
    geometry IndexedFaceSet {
        ccw TRUE
        solid FALSE
        coord DEF co Coordinate {
            point [
                -6.6436 -0.3141 3.1457, -6.335 -0.0551 3.1457, -6.6436 -0.3141 3.1496, -6.335 -0.0551 3.1496, -6.1257 -0.3044 3.1457, -6.1257 -0.3044 3.1496, -6.2799 -1.1787 3.1496, -6.4649 -2.2276 3.1457, -6.4649 -2.2276 3.1496, -6.9532 -2.6374 3.1457, -6.9532 -2.6374 3.1496, -7.0359 -2.5389 3.1457, -7.0359 -2.5389 3.1496, -6.7961 -1.1787 3.1496, -3.0139 -2.1476 3.1457, -3.0306 -2.1407 3.1496, -3.0939 -2.1145 3.1457, -3.0939 -2.1145 3.1496, -3.1797 -2.1032 3.1457, -3.1797 -2.1032 3.1496, -3.2656 -2.1145 3.1457, -3.2656 -2.1145 3.1496, -3.3456 -2.1476 3.1457, -3.3456 -2.1476 3.1496, -3.4143 -2.2003 3.1457, -3.4143 -2.2003 3.1496, -3.467 -2.269 3.1457, -3.467 -2.269 3.1496, -3.5001 -2.349 3.1457, -3.5001 -2.349 3.1496, -3.5114 -2.4349 3.1457, -3.5114 -2.4349 3.1496, -3.5001 -2.5207 3.1457, -3.5001 -2.5207 3.1496, -3.467 -2.6007 3.1457, -3.467 -2.6007 3.1496, -3.4143 -2.6694 3.1457, -3.4143 -2.6694 3.1496, -3.3456 -2.7221 3.1457, -3.3456 -2.7221 3.1496, -3.2656 -2.7553 3.1457, -3.2656 -2.7553 3.1496, -3.1797 -2.7666 3.1457, -3.1797 -2.7666 3.1496, -3.0939 -2.7553 3.1457, -3.0939 -2.7553 3.1496, -3.0306 -2.729 3.1496, -3.0139 -2.7221 3.1457, -3.0139 -2.7221 3.1496, -2.9452 -2.6694 3.1457, -2.9452 -2.6694 3.1496, -2.8925 -2.6007 3.1457, -2.8925 -2.6007 3.1496, -2.8593 -2.5207 3.1457, -2.8593 -2.5207 3.1496, -2.848 -2.4349 3.1457, -2.848 -2.4349 3.1496, -2.8593 -2.349 3.1457, -2.8593 -2.349 3.1496, -2.8925 -2.269 3.1457, -2.8925 -2.269 3.1496, -2.9452 -2.2003 3.1457, -2.9452 -2.2003 3.1496, -3.0139 -2.1476 3.1496, -3.1797 -2.4349 3.1457, -3.097 2.6973 3.1457, -3.5854 2.2875 3.1457, -3.097 2.6973 3.1496, -3.5854 2.2875 3.1496, -3.6182 2.2875 3.1496, -5.6177 2.2875 3.1457, -5.6177 2.2875 3.1496, -5.0 2.2875 3.1496, -3.9483 2.2875 3.1496, -5.9777 2.7166 3.1457, -5.9777 2.7166 3.1496, -5.8832 2.7959 3.1457, -5.8832 2.7959 3.1496, -3.1797 2.7959 3.1457, -3.1797 2.7959 3.1496, -3.6182 2.7959 3.1496, -5.0 2.7959 3.1496, -3.9483 2.7959 3.1496, -6.1321 2.5871 3.1457, -6.0376 2.6663 3.1457, -6.1321 2.5871 3.1496, -6.0376 2.6663 3.1496, -5.6776 2.2372 3.1457, -5.6776 2.2372 3.1496, -5.848 1.2708 3.1496, -6.0167 0.3141 3.1457, -6.0167 0.3141 3.1496, -6.3253 0.0551 3.1457, -6.3253 0.0551 3.1496, -6.5346 0.3044 3.1457, -6.5346 0.3044 3.1496, -6.3642 1.2708 3.1496, -3.6747 -0.0551 3.1496, -3.6747 -0.0551 3.1457, -3.6182 -0.1224 3.1496, -3.4654 -0.3044 3.1457, -3.4654 -0.3044 3.1496, -3.6182 -1.1707 3.1496, -3.6196 -1.1787 3.1496, -3.8679 -2.5871 3.1457, -3.8679 -2.5871 3.1496, -3.9483 -2.6545 3.1496, -3.9624 -2.6663 3.1457, -3.9624 -2.6663 3.1496, -4.3224 -2.2372 3.1457, -4.3224 -2.2372 3.1496, -4.1358 -1.1787 3.1496, -3.9833 -0.3141 3.1457, -3.9833 -0.3141 3.1496, -3.9483 -0.2847 3.1496, -4.1168 -2.7959 3.1496, -4.1168 -2.7959 3.1457, -5.0 -2.7959 3.1496, -6.8203 -2.7959 3.1457, -6.8203 -2.7959 3.1496, -6.903 -2.6973 3.1457, -6.903 -2.6973 3.1496, -6.4146 -2.2875 3.1457, -6.4146 -2.2875 3.1496, -5.0 -2.2875 3.1496, -4.3823 -2.2875 3.1457, -4.3823 -2.2875 3.1496, -4.0223 -2.7166 3.1457, -4.0223 -2.7166 3.1496, -3.5351 2.2276 3.1457, -3.5351 2.2276 3.1496, -3.6182 1.7567 3.1496, -3.7039 1.2708 3.1496, -3.8743 0.3044 3.1496, -3.8743 0.3044 3.1457, -3.0468 2.6374 3.1457, -3.0468 2.6374 3.1496, -3.0306 2.6181 3.1496, -2.9641 2.5389 3.1457, -2.9641 2.5389 3.1496, -3.0306 2.1619 3.1496, -3.1877 1.2708 3.1496, -3.3564 0.3141 3.1457, -3.3564 0.3141 3.1496, -3.6182 0.0944 3.1496, -3.665 0.0551 3.1457, -3.665 0.0551 3.1496, -3.9342 0.2542 3.1457, -3.7249 0.0048 3.1457, -3.9342 0.2542 3.1496, -3.7249 0.0048 3.1496, -3.7307 -0.0 3.1496, -3.9483 -0.1826 3.1496, -4.0336 -0.2542 3.1457, -4.0336 -0.2542 3.1496, -5.0 -0.2542 3.1496, -6.0658 -0.2542 3.1457, -6.0658 -0.2542 3.1496, -6.2751 -0.0048 3.1457, -6.2751 -0.0048 3.1496, -5.9664 0.2542 3.1457, -5.9664 0.2542 3.1496, -6.2693 -0.0 3.1496, -5.0 0.2542 3.1496, -3.9483 0.2542 3.1496, 1.0658 0.2542 3.1457, 1.2751 0.0048 3.1457, 1.0658 0.2542 3.1496, 1.2751 0.0048 3.1496, 1.2693 -0.0 3.1496, 1.0517 -0.1826 3.1496, 0.9664 -0.2542 3.1457, 0.9664 -0.2542 3.1496, 0.0 -0.2542 3.1496, -1.0658 -0.2542 3.1457, -1.0517 -0.2542 3.1496, -1.0658 -0.2542 3.1496, -1.2751 -0.0048 3.1457, -1.2751 -0.0048 3.1496, -1.2693 -0.0 3.1496, -1.0517 0.1826 3.1496, -0.9664 0.2542 3.1457, -0.9664 0.2542 3.1496, 0.0 0.2542 3.1496, 1.0517 0.2542 3.1496, -1.6436 -0.3141 3.1457, -1.335 -0.0551 3.1457, -1.6436 -0.3141 3.1496, -1.335 -0.0551 3.1496, -1.1257 -0.3044 3.1457, -1.1257 -0.3044 3.1496, -1.2799 -1.1787 3.1496, -1.4649 -2.2276 3.1457, -1.4649 -2.2276 3.1496, -1.9532 -2.6374 3.1457, -1.9532 -2.6374 3.1496, -2.0359 -2.5389 3.1457, -2.0359 -2.5389 3.1496, -1.7961 -1.1787 3.1496, 2.1075 -2.269 3.1457, 2.0939 -2.2513 3.1496, 2.0548 -2.2003 3.1457, 2.0548 -2.2003 3.1496, 1.9861 -2.1476 3.1457, 1.9861 -2.1476 3.1496, 1.9061 -2.1145 3.1457, 1.9061 -2.1145 3.1496, 1.8203 -2.1032 3.1457, 1.8203 -2.1032 3.1496, 1.7344 -2.1145 3.1457, 1.7344 -2.1145 3.1496, 1.6544 -2.1476 3.1457, 1.6544 -2.1476 3.1496, 1.5857 -2.2003 3.1457, 1.5857 -2.2003 3.1496, 1.533 -2.269 3.1457, 1.533 -2.269 3.1496, 1.4999 -2.349 3.1457, 1.4999 -2.349 3.1496, 1.4886 -2.4349 3.1457, 1.4886 -2.4349 3.1496, 1.4999 -2.5207 3.1457, 1.4999 -2.5207 3.1496, 1.533 -2.6007 3.1457, 1.533 -2.6007 3.1496, 1.5857 -2.6694 3.1457, 1.5857 -2.6694 3.1496, 1.6544 -2.7221 3.1457, 1.6544 -2.7221 3.1496, 1.7344 -2.7553 3.1457, 1.7344 -2.7553 3.1496, 1.8203 -2.7666 3.1457, 1.8203 -2.7666 3.1496, 1.9061 -2.7553 3.1457, 1.9061 -2.7553 3.1496, 1.9861 -2.7221 3.1457, 1.9861 -2.7221 3.1496, 2.0548 -2.6694 3.1457, 2.0548 -2.6694 3.1496, 2.0939 -2.6184 3.1496, 2.1075 -2.6007 3.1457, 2.1075 -2.6007 3.1496, 2.1407 -2.5207 3.1457, 2.1407 -2.5207 3.1496, 2.152 -2.4349 3.1457, 2.152 -2.4349 3.1496, 2.1407 -2.349 3.1457, 2.1407 -2.349 3.1496, 2.1075 -2.269 3.1496, 1.8203 -2.4349 3.1457, 1.903 2.6973 3.1457, 1.4146 2.2875 3.1457, 1.903 2.6973 3.1496, 1.4146 2.2875 3.1496, 1.3818 2.2875 3.1496, -0.6177 2.2875 3.1457, -0.6177 2.2875 3.1496, 0.0 2.2875 3.1496, 1.0517 2.2875 3.1496, -0.9777 2.7166 3.1457, -0.9777 2.7166 3.1496, -0.8832 2.7959 3.1457, -0.8832 2.7959 3.1496, 1.8203 2.7959 3.1457, 1.8203 2.7959 3.1496, 1.3818 2.7959 3.1496, 0.0 2.7959 3.1496, 1.0517 2.7959 3.1496, -1.1321 2.5871 3.1496, -1.1321 2.5871 3.1457, -1.0517 2.6545 3.1496, -1.0376 2.6663 3.1457, -1.0376 2.6663 3.1496, -0.6776 2.2372 3.1457, -0.6776 2.2372 3.1496, -0.848 1.2708 3.1496, -1.0167 0.3141 3.1457, -1.0167 0.3141 3.1496, -1.0517 0.2847 3.1496, -1.3253 0.0551 3.1457, -1.3253 0.0551 3.1496, -1.5346 0.3044 3.1457, -1.5346 0.3044 3.1496, -1.3642 1.2708 3.1496, 1.3253 -0.0551 3.1496, 1.3253 -0.0551 3.1457, 1.3818 -0.1224 3.1496, 1.5346 -0.3044 3.1457, 1.5346 -0.3044 3.1496, 1.3818 -1.1707 3.1496, 1.3804 -1.1787 3.1496, 1.1321 -2.5871 3.1457, 1.1321 -2.5871 3.1496, 1.0517 -2.6545 3.1496, 1.0376 -2.6663 3.1457, 1.0376 -2.6663 3.1496, 0.6776 -2.2372 3.1457, 0.6776 -2.2372 3.1496, 0.8642 -1.1787 3.1496, 1.0167 -0.3141 3.1457, 1.0167 -0.3141 3.1496, 1.0517 -0.2847 3.1496, -1.8203 -2.7959 3.1496, -1.0517 -2.7959 3.1496, -1.8203 -2.7959 3.1457, 0.0 -2.7959 3.1496, 0.8832 -2.7959 3.1457, 0.8832 -2.7959 3.1496, -1.903 -2.6973 3.1457, -1.903 -2.6973 3.1496, -1.4146 -2.2875 3.1457, -1.4146 -2.2875 3.1496, -1.0517 -2.2875 3.1496, 0.0 -2.2875 3.1496, 0.6177 -2.2875 3.1457, 0.6177 -2.2875 3.1496, 0.9777 -2.7166 3.1457, 0.9777 -2.7166 3.1496, 1.4649 2.2276 3.1457, 1.4649 2.2276 3.1496, 1.3818 1.7567 3.1496, 1.2961 1.2708 3.1496, 1.1257 0.3044 3.1496, 1.1257 0.3044 3.1457, 1.9532 2.6374 3.1457, 1.9532 2.6374 3.1496, 2.0359 2.5389 3.1457, 2.0359 2.5389 3.1496, 1.8123 1.2708 3.1496, 1.6436 0.3141 3.1457, 1.6436 0.3141 3.1496, 1.3818 0.0944 3.1496, 1.335 0.0551 3.1457, 1.335 0.0551 3.1496
            ]
        }
        coordIndex [
            0,1,2,-1,2,1,3,-1,1,4,3,-1,3,4,5,-1,5,4,6,-1,6,4,7,-1,6,7,8,-1,7,9,8,-1,8,9,10,-1,9,11,10,-1,10,11,12,-1,12,11,13,-1,13,11,0,-1,13,0,2,-1,4,1,0,-1,11,9,0,-1,0,9,7,-1,0,7,4,-1,14,15,16,-1,16,15,17,-1,16,17,18,-1,18,17,19,-1,18,19,20,-1,20,19,21,-1,20,21,22,-1,22,21,23,-1,22,23,24,-1,24,23,25,-1,24,25,26,-1,26,25,27,-1,26,27,28,-1,28,27,29,-1,28,29,30,-1,30,29,31,-1,30,31,32,-1,32,31,33,-1,32,33,34,-1,34,33,35,-1,34,35,36,-1,36,35,37,-1,36,37,38,-1,38,37,39,-1,38,39,40,-1,40,39,41,-1,40,41,42,-1,42,41,43,-1,42,43,44,-1,43,45,44,-1,44,45,46,-1,44,46,47,-1,47,46,48,-1,47,48,49,-1,49,48,50,-1,49,50,51,-1,51,50,52,-1,51,52,53,-1,53,52,54,-1,53,54,55,-1,55,54,56,-1,55,56,57,-1,57,56,58,-1,57,58,59,-1,59,58,60,-1,59,60,61,-1,61,60,62,-1,61,62,14,-1,14,62,63,-1,14,63,15,-1,51,53,64,-1,64,53,55,-1,64,55,57,-1,44,47,64,-1,64,47,49,-1,64,49,51,-1,38,40,64,-1,64,40,42,-1,64,42,44,-1,32,34,64,-1,64,34,36,-1,64,36,38,-1,26,28,64,-1,64,28,30,-1,64,30,32,-1,20,22,64,-1,64,22,24,-1,64,24,26,-1,14,16,64,-1,64,16,18,-1,64,18,20,-1,57,59,64,-1,64,59,61,-1,64,61,14,-1,65,66,67,-1,67,66,68,-1,69,68,66,-1,70,71,72,-1,70,72,66,-1,66,72,73,-1,66,73,69,-1,70,74,71,-1,71,74,75,-1,74,76,75,-1,75,76,77,-1,78,79,80,-1,77,76,81,-1,81,76,78,-1,81,78,82,-1,82,78,80,-1,78,65,79,-1,79,65,67,-1,65,78,66,-1,66,78,76,-1,66,76,70,-1,70,76,74,-1,83,84,85,-1,85,84,86,-1,84,87,86,-1,86,87,88,-1,88,87,89,-1,89,87,90,-1,89,90,91,-1,90,92,91,-1,91,92,93,-1,92,94,93,-1,93,94,95,-1,95,94,96,-1,96,94,83,-1,96,83,85,-1,87,84,83,-1,87,83,90,-1,90,83,94,-1,90,94,92,-1,97,98,99,-1,99,98,100,-1,99,100,101,-1,102,101,100,-1,102,100,103,-1,103,100,104,-1,103,104,105,-1,105,104,106,-1,106,104,107,-1,106,107,108,-1,107,109,108,-1,108,109,110,-1,110,109,111,-1,111,109,112,-1,111,112,113,-1,113,112,114,-1,114,112,98,-1,114,98,97,-1,109,107,104,-1,109,104,112,-1,112,104,100,-1,112,100,98,-1,115,116,117,-1,117,116,118,-1,117,118,119,-1,118,120,119,-1,119,120,121,-1,120,122,121,-1,121,122,123,-1,123,122,124,-1,124,122,125,-1,124,125,126,-1,125,127,126,-1,126,127,128,-1,127,116,128,-1,128,116,115,-1,120,118,122,-1,122,118,116,-1,122,116,125,-1,125,116,127,-1,129,130,131,-1,131,132,129,-1,129,132,133,-1,129,133,134,-1,129,135,130,-1,130,135,136,-1,136,135,137,-1,137,135,138,-1,137,138,139,-1,140,139,138,-1,140,138,141,-1,141,138,142,-1,141,142,143,-1,143,142,144,-1,144,142,145,-1,144,145,146,-1,145,134,146,-1,146,134,133,-1,134,145,129,-1,129,145,142,-1,129,142,135,-1,135,142,138,-1,147,148,149,-1,149,148,150,-1,151,150,148,-1,151,148,152,-1,152,148,153,-1,152,153,154,-1,154,153,155,-1,155,153,156,-1,155,156,157,-1,156,158,157,-1,157,158,159,-1,160,161,158,-1,158,161,162,-1,158,162,159,-1,161,160,163,-1,163,160,147,-1,163,147,164,-1,164,147,149,-1,148,147,153,-1,153,147,160,-1,153,160,156,-1,156,160,158,-1,165,166,167,-1,167,166,168,-1,169,168,166,-1,169,166,170,-1,170,166,171,-1,170,171,172,-1,172,171,173,-1,173,171,174,-1,173,174,175,-1,175,174,176,-1,174,177,176,-1,176,177,178,-1,179,178,177,-1,179,177,180,-1,180,177,181,-1,180,181,182,-1,182,181,183,-1,183,181,165,-1,183,165,184,-1,184,165,167,-1,166,165,171,-1,171,165,181,-1,171,181,174,-1,174,181,177,-1,185,186,187,-1,187,186,188,-1,186,189,188,-1,188,189,190,-1,190,189,191,-1,191,189,192,-1,191,192,193,-1,192,194,193,-1,193,194,195,-1,194,196,195,-1,195,196,197,-1,197,196,198,-1,198,196,185,-1,198,185,187,-1,189,186,185,-1,196,194,185,-1,185,194,192,-1,185,192,189,-1,199,200,201,-1,201,200,202,-1,201,202,203,-1,203,202,204,-1,203,204,205,-1,205,204,206,-1,205,206,207,-1,207,206,208,-1,207,208,209,-1,209,208,210,-1,209,210,211,-1,211,210,212,-1,211,212,213,-1,213,212,214,-1,213,214,215,-1,215,214,216,-1,215,216,217,-1,217,216,218,-1,217,218,219,-1,219,218,220,-1,219,220,221,-1,221,220,222,-1,221,222,223,-1,223,222,224,-1,223,224,225,-1,225,224,226,-1,225,226,227,-1,227,226,228,-1,227,228,229,-1,229,228,230,-1,229,230,231,-1,231,230,232,-1,231,232,233,-1,233,232,234,-1,233,234,235,-1,235,234,236,-1,235,236,237,-1,236,238,237,-1,237,238,239,-1,237,239,240,-1,240,239,241,-1,240,241,242,-1,242,241,243,-1,242,243,244,-1,244,243,245,-1,244,245,246,-1,246,245,247,-1,246,247,199,-1,199,247,248,-1,199,248,200,-1,240,242,249,-1,249,242,244,-1,249,244,246,-1,233,235,249,-1,249,235,237,-1,249,237,240,-1,227,229,249,-1,249,229,231,-1,249,231,233,-1,221,223,249,-1,249,223,225,-1,249,225,227,-1,215,217,249,-1,249,217,219,-1,249,219,221,-1,209,211,249,-1,249,211,213,-1,249,213,215,-1,203,205,249,-1,249,205,207,-1,249,207,209,-1,246,199,249,-1,249,199,201,-1,249,201,203,-1,250,251,252,-1,252,251,253,-1,254,253,251,-1,255,256,257,-1,255,257,251,-1,251,257,258,-1,251,258,254,-1,255,259,256,-1,256,259,260,-1,259,261,260,-1,260,261,262,-1,263,264,265,-1,262,261,266,-1,266,261,263,-1,266,263,267,-1,267,263,265,-1,263,250,264,-1,264,250,252,-1,250,263,251,-1,251,263,261,-1,251,261,255,-1,255,261,259,-1,268,269,270,-1,270,269,271,-1,270,271,272,-1,271,273,272,-1,272,273,274,-1,274,273,275,-1,275,273,276,-1,275,276,277,-1,277,276,278,-1,278,276,279,-1,278,279,280,-1,279,281,280,-1,280,281,282,-1,282,281,283,-1,283,281,269,-1,283,269,268,-1,273,271,269,-1,273,269,276,-1,276,269,281,-1,276,281,279,-1,284,285,286,-1,286,285,287,-1,286,287,288,-1,289,288,287,-1,289,287,290,-1,290,287,291,-1,290,291,292,-1,292,291,293,-1,293,291,294,-1,293,294,295,-1,294,296,295,-1,295,296,297,-1,297,296,298,-1,298,296,299,-1,298,299,300,-1,300,299,301,-1,301,299,285,-1,301,285,284,-1,296,294,291,-1,296,291,299,-1,299,291,287,-1,299,287,285,-1,302,303,304,-1,304,303,305,-1,304,305,306,-1,306,305,307,-1,304,308,302,-1,302,308,309,-1,308,310,309,-1,309,310,311,-1,312,311,310,-1,312,310,313,-1,313,310,314,-1,313,314,315,-1,314,316,315,-1,315,316,317,-1,316,306,317,-1,317,306,307,-1,308,304,310,-1,310,304,306,-1,310,306,314,-1,314,306,316,-1,318,319,320,-1,320,321,318,-1,318,321,322,-1,318,322,323,-1,318,324,319,-1,319,324,325,-1,324,326,325,-1,325,326,327,-1,327,326,328,-1,328,326,329,-1,328,329,330,-1,330,329,331,-1,331,329,332,-1,331,332,333,-1,332,323,333,-1,333,323,322,-1,323,332,318,-1,318,332,329,-1,318,329,324,-1,324,329,326,-1,
        ]
    }
}
Shape{
    appearance Appearance {
        material  Material {
            diffuseColor 1.0 1.0 1.0
            specularColor 0.8784313725490196 0.8784313725490196 0.8784313725490196
            ambientIntensity 1.0
            transparency 0.0
            shininess 0.5
        }
    }
    geometry IndexedFaceSet {
        ccw TRUE
        solid FALSE
        coord DEF co Coordinate {
            point [
                -0.6674 0.1606 0.3937, -0.6674 0.1606 0.3976, -0.7107 0.0495 0.3937, -0.821 -0.2331 0.3976, -0.821 -0.2331 0.3937, -0.7634 -0.2331 0.3976, -0.7634 -0.2331 0.3937, -0.7236 -0.1227 0.3976, -0.7236 -0.1227 0.3937, -0.7107 -0.1227 0.3937, -0.5609 -0.1227 0.3976, -0.5609 -0.1227 0.3937, -0.5233 -0.2331 0.3976, -0.5233 -0.2331 0.3937, -0.4657 -0.2331 0.3976, -0.4657 -0.2331 0.3937, -0.6146 0.1606 0.3976, -0.6146 0.1606 0.3937, -0.5742 -0.0795 0.3976, -0.7059 -0.0795 0.3976, -0.6329 0.085 0.3976, -0.6367 0.0986 0.3976, -0.6392 0.1126 0.3976, -0.6405 0.1126 0.3976, -0.6431 0.0987 0.3976, -0.6466 0.085 0.3976, -0.5742 -0.0795 0.3937, -0.7059 -0.0795 0.3937, -0.6329 0.085 0.3937, -0.6367 0.0986 0.3937, -0.6392 0.1126 0.3937, -0.6405 0.1126 0.3937, -0.6431 0.0987 0.3937, -0.6466 0.085 0.3937, -0.2271 -0.2331 0.3976, -0.12 -0.2331 0.3976, -0.2271 -0.2331 0.3937, -0.12 -0.2331 0.3937, -0.12 0.1606 0.3976, -0.12 0.1606 0.3937, -0.2311 0.1606 0.3976, -0.2311 0.1606 0.3937, -0.4369 -0.0313 0.3976, -0.4369 -0.0313 0.3937, -0.4341 0.0057 0.3937, -0.4341 0.0057 0.3976, -0.4235 0.0445 0.3937, -0.4235 0.0445 0.3976, -0.4052 0.0784 0.3937, -0.4052 0.0784 0.3976, -0.3773 0.1092 0.3937, -0.3773 0.1092 0.3976, -0.3769 0.1096 0.3937, -0.3769 0.1096 0.3976, -0.3341 0.1383 0.3937, -0.3341 0.1383 0.3976, -0.288 0.1545 0.3937, -0.288 0.1545 0.3976, -0.2758 -0.2289 0.3937, -0.2758 -0.2289 0.3976, -0.3212 -0.2154 0.3937, -0.3212 -0.2154 0.3976, -0.3623 -0.1915 0.3937, -0.3623 -0.1915 0.3976, -0.3947 -0.1604 0.3937, -0.3947 -0.1604 0.3976, -0.4173 -0.1252 0.3937, -0.4173 -0.1252 0.3976, -0.4314 -0.084 0.3937, -0.4314 -0.084 0.3976, -0.3579 0.0622 0.3976, -0.3388 0.0825 0.3976, -0.31 0.101 0.3976, -0.2775 0.1124 0.3976, -0.2309 0.1174 0.3976, -0.1728 0.1174 0.3976, -0.1728 -0.1899 0.3976, -0.2287 -0.1899 0.3976, -0.2703 -0.1861 0.3976, -0.3034 -0.1757 0.3976, -0.3302 -0.1598 0.3976, -0.3523 -0.138 0.3976, -0.3689 -0.1108 0.3976, -0.3805 -0.0738 0.3976, -0.3841 -0.0325 0.3976, -0.3808 0.0067 0.3976, -0.3716 0.0379 0.3976, -0.2309 0.1174 0.3937, -0.1728 0.1174 0.3937, -0.2775 0.1124 0.3937, -0.31 0.101 0.3937, -0.3388 0.0825 0.3937, -0.3579 0.0622 0.3937, -0.3716 0.0379 0.3937, -0.3808 0.0067 0.3937, -0.3841 -0.0325 0.3937, -0.3805 -0.0738 0.3937, -0.3689 -0.1108 0.3937, -0.3523 -0.138 0.3937, -0.3302 -0.1598 0.3937, -0.3034 -0.1757 0.3937, -0.2703 -0.1861 0.3937, -0.2287 -0.1899 0.3937, -0.1728 -0.1899 0.3937, -0.0432 -0.1899 0.3976, -0.0432 -0.2331 0.3976, -0.0432 -0.1899 0.3937, -0.0432 -0.2331 0.3937, 0.168 -0.2331 0.3976, 0.168 -0.2331 0.3937, 0.168 0.1606 0.3976, 0.168 0.1606 0.3937, -0.0336 0.1606 0.3976, -0.0336 0.1606 0.3937, -0.0336 0.1174 0.3976, -0.0336 0.1174 0.3937, 0.1152 0.1174 0.3976, 0.1152 0.1174 0.3937, 0.1152 -0.0123 0.3976, 0.1152 -0.0123 0.3937, -0.024 -0.0123 0.3976, -0.024 -0.0123 0.3937, -0.024 -0.0555 0.3976, -0.024 -0.0555 0.3937, 0.1152 -0.0555 0.3976, 0.1152 -0.0555 0.3937, 0.1152 -0.1899 0.3976, 0.1152 -0.1899 0.3937, 0.2449 -0.1695 0.3976, 0.2449 -0.2127 0.3976, 0.2449 -0.1695 0.3937, 0.2449 -0.2127 0.3937, 0.2868 -0.23 0.3976, 0.3424 -0.2377 0.3976, 0.3532 -0.2379 0.3976, 0.3424 -0.2377 0.3937, 0.3532 -0.2379 0.3937, 0.3266 -0.2355 0.3937, 0.3222 -0.2349 0.3937, 0.2868 -0.23 0.3937, 0.3763 -0.2355 0.3937, 0.4017 -0.2329 0.3976, 0.4017 -0.2329 0.3937, 0.4399 -0.2198 0.3976, 0.4399 -0.2198 0.3937, 0.4715 -0.1995 0.3976, 0.4715 -0.1995 0.3937, 0.5011 -0.1684 0.3976, 0.5011 -0.1684 0.3937, 0.5221 -0.131 0.3976, 0.5221 -0.131 0.3937, 0.5339 -0.0893 0.3976, 0.5339 -0.0893 0.3937, 0.5377 -0.0437 0.3976, 0.5377 -0.0437 0.3937, 0.3375 0.1654 0.3976, 0.3375 0.1654 0.3937, 0.3771 0.1621 0.3937, 0.3771 0.1621 0.3976, 0.4209 0.1494 0.3937, 0.4209 0.1494 0.3976, 0.4583 0.1279 0.3937, 0.4583 0.1279 0.3976, 0.4939 0.0937 0.3937, 0.4939 0.0937 0.3976, 0.517 0.0569 0.3937, 0.517 0.0569 0.3976, 0.5321 0.0123 0.3937, 0.5321 0.0123 0.3976, 0.3222 0.1643 0.3937, 0.2904 0.1621 0.3976, 0.2904 0.1621 0.3937, 0.2449 0.1498 0.3976, 0.2449 0.1498 0.3937, 0.2449 0.097 0.3976, 0.2449 0.097 0.3937, 0.2892 0.1159 0.3976, 0.3371 0.1222 0.3976, 0.3371 0.1222 0.3937, 0.3222 0.1202 0.3937, 0.2892 0.1159 0.3937, 0.4849 -0.0405 0.3976, 0.4849 -0.0405 0.3937, 0.483 -0.0098 0.3937, 0.483 -0.0098 0.3976, 0.4726 0.0323 0.3937, 0.4726 0.0323 0.3976, 0.4563 0.0627 0.3937, 0.4563 0.0627 0.3976, 0.4325 0.0889 0.3937, 0.4325 0.0889 0.3976, 0.4053 0.1072 0.3937, 0.4053 0.1072 0.3976, 0.3758 0.1178 0.3937, 0.3758 0.1178 0.3976, 0.3459 -0.1947 0.3976, 0.3459 -0.1947 0.3937, 0.3826 -0.1906 0.3937, 0.3826 -0.1906 0.3976, 0.4113 -0.18 0.3937, 0.4113 -0.18 0.3976, 0.4355 -0.1638 0.3937, 0.4355 -0.1638 0.3976, 0.454 -0.1443 0.3937, 0.454 -0.1443 0.3976, 0.4702 -0.117 0.3937, 0.4702 -0.117 0.3976, 0.4809 -0.0831 0.3937, 0.4809 -0.0831 0.3976, 0.3222 -0.1921 0.3937, 0.2937 -0.1889 0.3976, 0.2937 -0.1889 0.3937, 0.2519 -0.1734 0.3976, 0.2519 -0.1734 0.3937, 0.5713 -0.1899 0.3976, 0.5713 -0.2331 0.3976, 0.5713 -0.1899 0.3937, 0.5713 -0.2331 0.3937, 0.6867 -0.2331 0.3937, 0.773 -0.2331 0.3976, 0.773 -0.2331 0.3937, 0.773 0.1606 0.3976, 0.773 0.1606 0.3937, 0.7202 0.1606 0.3976, 0.7202 0.1606 0.3937, 0.7202 -0.1899 0.3976, 0.7202 -0.1899 0.3937, 0.6867 -0.1899 0.3937
            ]
        }
        coordIndex [
            0,1,2,-1,2,1,3,-1,2,3,4,-1,3,5,4,-1,4,5,6,-1,5,7,6,-1,6,7,8,-1,8,7,9,-1,9,7,10,-1,9,10,11,-1,10,12,11,-1,11,12,13,-1,12,14,13,-1,13,14,15,-1,14,16,15,-1,15,16,17,-1,16,1,17,-1,17,1,0,-1,18,10,19,-1,19,10,7,-1,20,16,18,-1,18,16,14,-1,18,14,10,-1,10,14,12,-1,20,21,16,-1,16,21,22,-1,16,22,1,-1,1,22,23,-1,1,23,24,-1,24,25,1,-1,1,25,19,-1,1,19,3,-1,3,19,7,-1,3,7,5,-1,18,19,26,-1,26,19,27,-1,20,18,28,-1,28,18,26,-1,20,28,29,-1,20,29,21,-1,21,29,30,-1,21,30,22,-1,23,22,31,-1,31,22,30,-1,23,31,32,-1,23,32,24,-1,24,32,33,-1,24,33,25,-1,19,25,27,-1,27,25,33,-1,34,35,36,-1,36,35,37,-1,35,38,37,-1,37,38,39,-1,38,40,39,-1,39,40,41,-1,42,43,44,-1,42,44,45,-1,45,44,46,-1,45,46,47,-1,47,46,48,-1,47,48,49,-1,49,48,50,-1,49,50,51,-1,51,50,52,-1,51,52,53,-1,53,52,54,-1,53,54,55,-1,55,54,56,-1,55,56,57,-1,57,56,41,-1,57,41,40,-1,34,36,58,-1,34,58,59,-1,59,58,60,-1,59,60,61,-1,61,60,62,-1,61,62,63,-1,63,62,64,-1,63,64,65,-1,65,64,66,-1,65,66,67,-1,67,66,68,-1,67,68,69,-1,69,68,43,-1,69,43,42,-1,47,49,70,-1,70,49,51,-1,70,51,71,-1,71,51,53,-1,71,53,72,-1,72,53,55,-1,72,55,73,-1,73,55,57,-1,73,57,74,-1,74,57,40,-1,74,40,75,-1,75,40,38,-1,75,38,76,-1,76,38,35,-1,76,35,77,-1,77,35,34,-1,77,34,78,-1,78,34,59,-1,78,59,79,-1,79,59,61,-1,79,61,80,-1,80,61,63,-1,80,63,81,-1,81,63,65,-1,81,65,82,-1,82,65,67,-1,82,67,83,-1,83,67,69,-1,83,69,84,-1,84,69,42,-1,84,42,85,-1,85,42,45,-1,85,45,86,-1,86,45,47,-1,86,47,70,-1,74,75,87,-1,87,75,88,-1,74,87,89,-1,74,89,73,-1,73,89,90,-1,73,90,72,-1,72,90,91,-1,72,91,71,-1,71,91,92,-1,71,92,70,-1,70,92,93,-1,70,93,86,-1,86,93,94,-1,86,94,85,-1,85,94,95,-1,85,95,84,-1,84,95,96,-1,84,96,83,-1,83,96,97,-1,83,97,82,-1,82,97,98,-1,82,98,81,-1,81,98,99,-1,81,99,80,-1,80,99,100,-1,80,100,79,-1,79,100,101,-1,79,101,78,-1,78,101,102,-1,78,102,77,-1,76,77,103,-1,103,77,102,-1,75,76,88,-1,88,76,103,-1,104,105,106,-1,106,105,107,-1,105,108,107,-1,107,108,109,-1,108,110,109,-1,109,110,111,-1,110,112,111,-1,111,112,113,-1,112,114,113,-1,113,114,115,-1,114,116,115,-1,115,116,117,-1,116,118,117,-1,117,118,119,-1,118,120,119,-1,119,120,121,-1,120,122,121,-1,121,122,123,-1,122,124,123,-1,123,124,125,-1,124,126,125,-1,125,126,127,-1,126,104,127,-1,127,104,106,-1,108,105,104,-1,104,126,108,-1,108,126,124,-1,108,124,110,-1,114,112,116,-1,116,112,110,-1,116,110,118,-1,118,110,124,-1,118,124,120,-1,120,124,122,-1,128,129,130,-1,130,129,131,-1,131,129,132,-1,133,134,135,-1,135,134,136,-1,135,137,133,-1,133,137,138,-1,133,138,132,-1,132,138,139,-1,132,139,131,-1,136,134,140,-1,140,134,141,-1,140,141,142,-1,142,141,143,-1,142,143,144,-1,144,143,145,-1,144,145,146,-1,146,145,147,-1,146,147,148,-1,148,147,149,-1,148,149,150,-1,150,149,151,-1,150,151,152,-1,152,151,153,-1,152,153,154,-1,155,156,157,-1,155,157,158,-1,158,157,159,-1,158,159,160,-1,160,159,161,-1,160,161,162,-1,162,161,163,-1,162,163,164,-1,164,163,165,-1,164,165,166,-1,166,165,167,-1,166,167,168,-1,168,167,154,-1,168,154,153,-1,156,155,169,-1,169,155,170,-1,169,170,171,-1,171,170,172,-1,171,172,173,-1,172,174,173,-1,173,174,175,-1,175,174,176,-1,177,178,179,-1,177,179,176,-1,176,179,180,-1,176,180,175,-1,181,182,183,-1,181,183,184,-1,184,183,185,-1,184,185,186,-1,186,185,187,-1,186,187,188,-1,188,187,189,-1,188,189,190,-1,190,189,191,-1,190,191,192,-1,192,191,193,-1,192,193,194,-1,194,193,178,-1,194,178,177,-1,195,196,197,-1,195,197,198,-1,198,197,199,-1,198,199,200,-1,200,199,201,-1,200,201,202,-1,202,201,203,-1,202,203,204,-1,204,203,205,-1,204,205,206,-1,206,205,207,-1,206,207,208,-1,208,207,182,-1,208,182,181,-1,196,195,209,-1,209,195,210,-1,209,210,211,-1,211,210,212,-1,211,212,213,-1,213,212,128,-1,213,128,130,-1,198,134,195,-1,195,134,133,-1,195,133,210,-1,210,133,132,-1,210,132,212,-1,212,132,129,-1,212,129,128,-1,174,172,176,-1,176,172,170,-1,176,170,177,-1,177,170,155,-1,177,155,194,-1,194,155,158,-1,194,158,192,-1,192,158,160,-1,192,160,190,-1,190,160,162,-1,190,162,188,-1,188,162,164,-1,188,164,186,-1,186,164,166,-1,186,166,184,-1,184,166,168,-1,184,168,181,-1,181,168,153,-1,181,153,208,-1,208,153,151,-1,208,151,206,-1,206,151,149,-1,206,149,204,-1,204,149,147,-1,204,147,202,-1,202,147,145,-1,202,145,200,-1,200,145,143,-1,200,143,198,-1,198,143,141,-1,198,141,134,-1,214,215,216,-1,216,215,217,-1,217,215,218,-1,218,215,219,-1,218,219,220,-1,219,221,220,-1,220,221,222,-1,221,223,222,-1,222,223,224,-1,223,225,224,-1,224,225,226,-1,226,225,227,-1,227,225,214,-1,227,214,216,-1,223,221,225,-1,225,221,219,-1,225,219,214,-1,214,219,215,-1,
        ]
    }
}
Shape{
    appearance Appearance {
        material  Material {
            diffuseColor 0.7019607843137254 0.7019607843137254 0.7019607843137254
            specularColor 0.050980392156862744 0.050980392156862744 0.050980392156862744
            ambientIntensity 1.0
            transparency 0.0
            shininess 0.5
        }
    }
    geometry IndexedFaceSet {
        ccw TRUE
        solid FALSE
        coord DEF co Coordinate {
            point [
                -0.5742 -0.0795 0.3937, -0.7059 -0.0795 0.3937, -0.6329 0.085 0.3937, -0.6466 0.085 0.3937, -0.6367 0.0986 0.3937, -0.6431 0.0987 0.3937, -0.6392 0.1126 0.3937, -0.6405 0.1126 0.3937, -0.1728 0.1174 0.3937, -0.1728 -0.1899 0.3937, -0.2309 0.1174 0.3937, -0.2287 -0.1899 0.3937, -0.2703 -0.1861 0.3937, -0.3841 -0.0325 0.3937, -0.3808 0.0067 0.3937, -0.3716 0.0379 0.3937, -0.2775 0.1124 0.3937, -0.3034 -0.1757 0.3937, -0.3302 -0.1598 0.3937, -0.3523 -0.138 0.3937, -0.3689 -0.1108 0.3937, -0.3805 -0.0738 0.3937, -0.3579 0.0622 0.3937, -0.3388 0.0825 0.3937, -0.31 0.101 0.3937
            ]
        }
        coordIndex [
            0,1,2,-1,2,1,3,-1,2,3,4,-1,4,3,5,-1,4,5,6,-1,6,5,7,-1,8,9,10,-1,10,9,11,-1,10,11,12,-1,13,14,10,-1,10,14,15,-1,10,15,16,-1,12,17,10,-1,10,17,18,-1,10,18,19,-1,19,20,10,-1,10,20,21,-1,10,21,13,-1,22,23,15,-1,15,23,24,-1,15,24,16,-1,
        ]
    }
}