#VRML V2.0 utf8
# 3D model generated by kicad-lcsc-manager
# Based on easyeda2kicad.py v1.0.1

Shape{
    appearance Appearance {
        material  Material {
            diffuseColor 1.0 1.0 1.0
            specularColor 0.5019607843137255 0.5019607843137255 0.5019607843137255
            ambientIntensity 1.0
            transparency 0.0
            shininess 0.5
        }
    }
    geometry IndexedFaceSet {
        ccw TRUE
        solid FALSE
        coord DEF co Coordinate {
            point [
                1.4744 -1.2327 0.7084, 1.4744 -1.2327 0.5902, 1.4744 -1.1796 0.5902, 1.4744 -0.8441 0.662, 1.4744 -0.8419 0.6434, 1.4744 -0.8382 0.7096, 1.4744 -0.3358 0.5347, 1.4744 -0.3358 0.7096, 1.4744 -0.671 0.7096, 1.4744 -0.1244 -0.0, 1.4744 -0.1244 0.3093, 1.4744 -0.3358 0.3093, 1.4744 -1.1253 0.7083, 1.4744 -1.115 0.7096, 1.4744 -1.1681 0.7096, 1.4744 -1.0218 0.3629, 1.4744 -1.0277 0.3622, 1.4744 -0.9942 0.3622, 1.4744 -1.0512 0.3625, 1.4744 -1.0552 0.3639, 1.4744 -1.0552 0.3622, 1.4744 -1.5467 0.7234, 1.4744 -1.5262 0.7096, 1.4744 -1.3046 0.7096, 1.4744 -1.5044 0.6949, 1.4744 -1.4733 0.6591, 1.4744 -1.4532 0.62, 1.4744 -1.4463 0.6176, 1.4744 -1.4182 0.603, 1.4744 -1.6805 0.7384, 1.4744 -1.6334 0.7443, 1.4744 -1.3046 1.5335, 1.4744 -1.5943 0.7401, 1.4744 -1.9563 0.5637, 1.4744 -2.8803 0.7096, 1.4744 -1.9623 0.5347, 1.4744 -2.8803 0.5347, 1.4744 -1.9641 0.5264, 1.4744 -1.7243 0.7215, 1.4744 -2.8803 1.5335, 1.4744 -1.7436 0.7096, 1.4744 -1.7473 0.7072, 1.4744 -1.94 0.5971, 1.4744 -1.92 0.6219, 1.4744 -1.9103 0.6308, 1.4744 -1.8783 0.6517, 1.4744 -1.8428 0.664, 1.4744 -1.8109 0.6674, 1.4744 -1.7696 0.6882, 1.4744 -1.8 0.6668, 1.4744 -1.789 0.6655, 1.4744 -1.8488 0.3647, 1.4744 -1.8666 0.3704, 1.4744 -2.8803 0.3622, 1.4744 -1.9002 0.3885, 1.4744 -1.9247 0.4103, 1.4744 -1.9292 0.4155, 1.4744 -1.949 0.4463, 1.4744 -1.9612 0.4819, 1.4744 -1.9646 0.5137, 1.4744 -1.8252 0.327, 1.4744 -1.8393 0.3444, 1.4744 -1.8476 0.3622, 1.4744 -1.7358 0.303, 1.4744 -1.7587 0.3002, 1.4744 -1.3046 -0.0, 1.4744 -1.7624 0.3003, 1.4744 -2.8803 -0.0, 1.4744 -1.7848 0.3038, 1.4744 -2.8803 0.3093, 1.4744 -1.7979 0.3093, 1.4744 -1.8067 0.313, 1.4744 -1.6698 0.3622, 1.4744 -1.6698 0.362, 1.4744 -1.3046 0.3093, 1.4744 -1.681 0.3408, 1.4744 -1.6957 0.3243, 1.4744 -1.7146 0.3111, 1.4744 -1.7194 0.3093, 1.4744 -1.6875 0.4587, 1.4744 -1.5604 0.5251, 1.4744 -1.7041 0.4737, 1.4744 -1.7242 0.4845, 1.4744 -1.3929 0.5809, 1.4744 -1.3741 0.5535, 1.4744 -1.3046 0.5347, 1.4744 -1.3669 0.5347, 1.4744 -1.363 0.5244, 1.4744 -1.4224 0.3822, 1.4744 -1.4516 0.3687, 1.4744 -1.3046 0.3622, 1.4744 -1.4807 0.3628, 1.4744 -1.5532 0.3695, 1.4744 -1.557 0.3732, 1.4744 -1.4185 0.5029, 1.4744 -1.4229 0.5211, 1.4744 -1.4302 0.5347, 1.4744 -1.9024 0.5347, 1.4744 -1.5539 0.4145, 1.4744 -1.548 0.4185, 1.4744 -1.531 0.4748, 1.4744 -1.5415 0.4209, 1.4744 -1.3768 0.4294, 1.4744 -1.3943 0.4055, 1.4744 -1.3975 0.4023, 1.4744 -1.5367 0.3628, 1.4744 -1.5404 0.3633, 1.4744 -1.5468 0.3654, 1.4744 -1.8969 0.4779, 1.4744 -1.8855 0.4585, 1.4744 -1.8373 0.4488, 1.4744 -1.8685 0.441, 1.4744 -1.8479 0.4283, 1.4744 -1.8022 0.4801, 1.4744 -1.8216 0.4667, 1.4744 -1.9048 0.5156, 1.4744 -1.9037 0.5012, 1.4744 -1.3592 0.4957, 1.4744 -1.3593 0.4901, 1.4744 -1.3643 0.4591, 1.4744 -1.7813 0.4881, 1.4744 -1.7587 0.4909, 1.4744 -1.7471 0.4902, 1.4744 -1.5642 0.3922, 1.4744 -1.564 0.3951, 1.4744 -1.6638 0.4046, 1.4744 -1.5624 0.4024, 1.4744 -1.5589 0.409, 1.4744 -1.5348 0.4217, 1.4744 -1.5338 0.4216, 1.4744 -1.531 0.421, 1.4744 -1.561 0.3792, 1.4744 -1.5634 0.3857, 1.4744 -1.6643 0.3854, 1.4744 -1.6638 0.3951, 1.4744 -1.4373 0.4446, 1.4744 -1.4269 0.4594, 1.4744 -1.4203 0.4763, 1.4744 -1.4181 0.4947, 1.4744 -1.5291 0.4207, 1.4744 -1.4864 0.4207, 1.4744 -1.4695 0.4239, 1.4744 -1.4527 0.4317, 1.4744 -1.4387 0.4431, 1.4744 -1.5029 0.5863, 1.4744 -1.5154 0.6179, 1.4744 -1.5351 0.6449, 1.4744 -1.5732 0.6733, 1.4744 -1.6031 0.684, 1.4744 -1.4997 0.5687, 1.4744 -1.7596 0.5962, 1.4744 -1.7666 0.6001, 1.4744 -1.7879 0.6078, 1.4744 -1.7469 0.6235, 1.4744 -1.4921 0.5687, 1.4744 -1.4317 0.5375, 1.4744 -1.4428 0.5499, 1.4744 -1.4575 0.5601, 1.4744 -1.4741 0.5665, 1.4744 -1.5462 0.6554, 1.4744 -1.6325 0.6873, 1.4744 -1.6377 0.6872, 1.4744 -1.6693 0.6823, 1.4744 -1.843 0.6045, 1.4744 -1.8642 0.5933, 1.4744 -1.8196 0.61, 1.4744 -1.8807 0.5786, 1.4744 -1.8939 0.5597, 1.4744 -1.7001 0.6693, 1.4744 -1.7262 0.6494, 1.4744 -1.8099 0.6105, 1.4744 -1.902 0.5385, 1.4744 -0.8116 0.4814, 1.4744 -0.8086 0.3785, 1.4744 -0.796 0.5347, 1.4744 -0.796 0.3622, 1.4744 -0.8086 0.3633, 1.4744 -0.8382 0.3622, 1.4744 -0.8382 0.4387, 1.4744 -0.8154 0.4387, 1.4744 -0.8154 0.4234, 1.4744 -0.8382 0.3785, 1.4744 -0.8382 0.4234, 1.4744 -0.8631 0.4234, 1.4744 -0.8631 0.3785, 1.4744 -0.8382 0.4814, 1.4744 -0.8631 0.4814, 1.4744 -0.8631 0.4387, 1.4744 -0.8382 0.3633, 1.4744 -0.8804 0.3633, 1.4744 -0.9364 0.3622, 1.4744 -0.8984 0.4586, 1.4744 -0.9463 0.387, 1.4744 -0.9442 0.3791, 1.4744 -0.9438 0.3791, 1.4744 -0.9631 0.5347, 1.4744 -0.8804 0.4967, 1.4744 -0.8382 0.5347, 1.4744 -0.8382 0.4967, 1.4744 -0.8116 0.4967, 1.4744 -0.943 0.3824, 1.4744 -0.9417 0.3868, 1.4744 -0.9631 0.4354, 1.4744 -0.9157 0.4586, 1.4744 -1.0629 0.3839, 1.4744 -1.0799 0.5347, 1.4744 -1.0799 0.3622, 1.4744 -1.0629 0.3666, 1.4744 -1.0603 0.4439, 1.4744 -1.0573 0.4485, 1.4744 -1.0569 0.3801, 1.4744 -1.0552 0.3795, 1.4744 -1.0552 0.4148, 1.4744 -1.0552 0.5347, 1.4744 -1.0581 0.4178, 1.4744 -1.0601 0.4209, 1.4744 -1.0554 0.4149, 1.4744 -1.062 0.426, 1.4744 -1.0628 0.4329, 1.4744 -1.0622 0.4385, 1.4744 -1.0552 0.3093, 1.4744 -1.0371 0.361, 1.4744 -1.0479 0.3622, 1.4744 -1.0031 0.4566, 1.4744 -1.0031 0.4403, 1.4744 -1.0012 0.3776, 1.4744 -1.0042 0.3731, 1.4744 -1.0552 0.4504, 1.4744 -1.0521 0.4532, 1.4744 -1.0481 0.4557, 1.4744 -0.9993 0.3829, 1.4744 -1.0392 0.4592, 1.4744 -1.0257 0.4608, 1.4744 -0.9942 0.5347, 1.4744 -1.014 0.4597, 1.4744 -1.0093 0.3686, 1.4744 -1.0131 0.3663, 1.4744 -1.0042 0.405, 1.4744 -1.0013 0.4008, 1.4744 -0.9994 0.3959, 1.4744 -0.9986 0.3892, 1.4744 -1.0274 0.4472, 1.4744 -1.0323 0.4468, 1.4744 -1.0456 0.4344, 1.4744 -1.0368 0.4457, 1.4744 -1.0405 0.4437, 1.4744 -1.0455 0.4322, 1.4744 -1.0448 0.4296, 1.4744 -1.0436 0.4273, 1.4744 -1.042 0.4255, 1.4744 -1.0361 0.4218, 1.4744 -1.0157 0.4458, 1.4744 -1.0257 0.4173, 1.4744 -1.0062 0.4421, 1.4744 -1.0192 0.4147, 1.4744 -1.0081 0.4085, 1.4744 -1.043 0.4414, 1.4744 -1.0445 0.4393, 1.4744 -1.0453 0.4371, 1.4744 -1.0465 0.376, 1.4744 -1.0375 0.4052, 1.4744 -1.0475 0.4098, 1.4744 -1.0354 0.3747, 1.4744 -1.0347 0.3747, 1.4744 -1.0265 0.4006, 1.4744 -1.0261 0.3757, 1.4744 -1.0157 0.3876, 1.4744 -1.0159 0.3897, 1.4744 -1.0218 0.3772, 1.4744 -1.0203 0.3782, 1.4744 -1.0184 0.3799, 1.4744 -1.0169 0.382, 1.4744 -1.0161 0.3844, 1.4744 -1.0166 0.3923, 1.4744 -1.0179 0.3945, 1.4744 -1.02 0.3967, 1.4744 -0.747 0.6115, 1.4744 -0.796 0.6115, 1.4744 -0.7334 0.575, 1.4744 -0.7144 0.575, 1.4744 -0.671 0.5347, 1.4744 -0.7652 0.7084, 1.4744 -0.8344 0.575, 1.4744 -0.8154 0.575, 1.4744 -0.8026 0.6115, 1.4744 -0.9942 0.7096, 1.4744 -0.9787 0.7084, 1.4744 -0.9631 0.7096, 1.4744 -0.9787 0.6931, 1.4744 -0.9825 0.6504, 1.4744 -0.9825 0.6351, 1.4744 -0.9757 0.5902, 1.4744 -0.9942 0.5902, 1.4744 -0.9942 0.6351, 1.4744 -1.0303 0.6351, 1.4744 -1.0303 0.5902, 1.4744 -0.9942 0.6931, 1.4744 -0.9942 0.6504, 1.4744 -1.0303 0.6931, 1.4744 -1.0303 0.6504, 1.4744 -1.0475 0.575, 1.4744 -0.9942 0.575, 1.4744 -0.9757 0.575, 1.4744 -1.0552 0.7096, 1.4744 -1.0475 0.7084, 1.4744 -0.9942 0.7084, 1.4744 -1.7414 1.7717, 1.4744 -1.7099 1.6957, 1.4744 -2.8803 1.5354, 1.4744 -1.6992 1.5354, 1.4744 -1.6992 1.6142, 1.4744 -2.8803 2.3228, 1.4744 -2.8803 1.9291, 1.4744 -1.3046 2.3228, 1.4744 -2.0142 1.9291, 1.4744 -1.9327 1.9184, 1.4744 -1.8567 1.8869, 1.4744 -1.7915 1.8369, 1.4744 -1.0799 0.5783, 1.4744 -1.0765 0.5794, 1.4744 -1.0742 0.5805, 1.4744 -1.0742 0.597, 1.4744 -1.1024 0.5883, 1.4744 -1.0873 0.5912, 1.4744 -1.0799 0.6896, 1.4744 -1.0799 0.5945, 1.4744 -1.0757 0.688, 1.4744 -1.0742 0.6872, 1.4744 -1.1494 0.6112, 1.4744 -1.1429 0.6022, 1.4744 -1.1403 0.5996, 1.4744 -1.1316 0.5934, 1.4744 -1.142 0.6803, 1.4744 -1.1493 0.6703, 1.4744 -1.1329 0.6878, 1.4744 -1.1224 0.6927, 1.4744 -1.0892 0.6932, 1.4744 -1.1056 0.6951, 1.4744 -1.1559 0.6353, 1.4744 -1.1108 0.6949, 1.4744 -1.156 0.6402, 1.4744 -1.1538 0.6588, 1.4744 -1.1221 0.5897, 1.4744 -1.1086 0.5881, 1.4744 -1.1537 0.6219, 1.4744 -1.0917 0.7096, 1.4744 -1.0881 0.7093, 1.4744 -1.0799 0.7096, 1.4744 -1.0799 0.7069, 1.4744 -1.0742 0.7052, 1.4744 -1.1681 1.5335, 1.4744 -1.1058 0.7107, 1.4744 -1.0799 1.5335, 1.4744 -1.1055 0.7107, 1.4744 -1.1645 0.6784, 1.4744 -1.1548 0.6911, 1.4744 -1.1517 0.6941, 1.4744 -1.1392 0.7029, 1.4744 -1.1681 0.3622, 1.4744 -1.1681 0.5347, 1.4744 -1.1761 0.5347, 1.4744 -1.1681 0.6087, 1.4744 -1.1761 0.7096, 1.4744 -1.1709 0.6636, 1.4744 -1.1681 0.6699, 1.4744 -1.1719 0.6193, 1.4744 -1.1741 0.6392, 1.4744 -1.1739 0.6462, 1.4744 -1.1336 0.5761, 1.4744 -1.1462 0.582, 1.4744 -1.157 0.591, 1.4744 -1.1591 0.5933, 1.4744 -1.1668 0.605, 1.4744 -1.0908 0.5747, 1.4744 -1.1111 0.5727, 1.4744 -1.1192 0.5731, 1.4744 -1.1554 0.4087, 1.4744 -1.1529 0.4357, 1.4744 -1.1588 0.4039, 1.4744 -1.1611 0.398, 1.4744 -1.1109 0.3682, 1.4744 -1.117 0.3642, 1.4744 -1.1023 0.3633, 1.4744 -1.123 0.3622, 1.4744 -1.1593 0.3756, 1.4744 -1.1613 0.3812, 1.4744 -1.1487 0.3648, 1.4744 -1.1423 0.3623, 1.4744 -1.1414 0.3622, 1.4744 -1.093 0.4504, 1.4744 -1.0896 0.445, 1.4744 -1.1503 0.4131, 1.4744 -1.1432 0.4168, 1.4744 -1.1413 0.443, 1.4744 -1.1305 0.4199, 1.4744 -1.1158 0.4466, 1.4744 -1.1216 0.4472, 1.4744 -1.1308 0.4463, 1.4744 -1.154 0.3685, 1.4744 -1.1558 0.3704, 1.4744 -1.1101 0.4599, 1.4744 -1.1031 0.4578, 1.4744 -1.0975 0.4546, 1.4744 -1.1023 0.378, 1.4744 -1.1027 0.378, 1.4744 -1.1056 0.3738, 1.4744 -1.1622 0.3888, 1.4744 -1.1621 0.3908, 1.4744 -1.1529 0.4519, 1.4744 -1.1495 0.4539, 1.4744 -1.1371 0.4587, 1.4744 -1.12 0.4608, 1.4744 -1.0869 0.4375, 1.4744 -1.0856 0.4246, 1.4744 -1.0856 0.3633, 1.4744 -1.1023 0.4239, 1.4744 -1.1029 0.4311, 1.4744 -1.1046 0.4371, 1.4744 -1.1065 0.4406, 1.4744 -1.109 0.4433, 1.4744 -1.112 0.4452, 1.4744 -1.1239 0.3619, 1.4744 -1.0799 0.3093, 1.4744 -1.1681 0.3093, 1.4744 -1.1319 0.361, 1.4744 -1.1344 0.3611, 1.4744 -0.9631 0.3622, 1.4744 -0.9631 0.3905, 1.4744 -0.9899 0.4586, 1.4744 -0.9712 0.4586, 1.4744 -0.9525 0.3635, 1.4744 -0.953 0.3622, 1.4744 -0.9598 0.3462, 1.4744 -0.9942 0.3093, 1.4744 -0.9864 0.3198, 1.4744 -0.9864 0.3346, 1.4744 -0.983 0.3335, 1.4744 -0.9769 0.3327, 1.4744 -0.9754 0.3328, 1.4744 -0.9716 0.3335, 1.4744 -0.9681 0.3352, 1.4744 -0.9665 0.3364, 1.4744 -0.9634 0.3397, 1.4744 -0.9631 0.3403, 1.4744 -0.9631 0.3214, 1.4744 -0.9687 0.3192, 1.4744 -0.9631 0.3093, 1.4744 -0.9756 0.3184, 1.4744 -0.9795 0.3185, 1.4744 -0.9416 0.3489, 1.4744 -0.9496 0.3336, 1.4744 -0.8382 0.3093, 1.4744 -0.9557 0.3264, 1.4744 -0.9563 0.3259, 1.4744 -0.9622 0.3218, 1.4744 -0.1244 0.7096, 1.4744 -0.1244 0.5347, 1.4744 -0.1244 0.3622, 1.4744 -0.3358 0.3622, 1.4744 -0.6483 0.3633, 1.4744 -0.6673 0.3633, 1.4744 -0.671 0.3622, 1.4744 -0.5663 0.3633, 1.4744 -0.5799 0.3998, 1.4744 -0.6355 0.3998, 1.4744 -0.6165 0.4967, 1.4744 -0.5981 0.4967, 1.4744 -0.5473 0.3633, 1.4744 -0.796 0.7096, 1.4744 -0.7836 0.7084, 1.4744 -0.796 0.676, 1.4744 -0.682 0.463, 1.4744 -0.677 0.4503, 1.4744 -0.6747 0.4317, 1.4744 -0.6751 0.4233, 1.4744 -0.6784 0.4076, 1.4744 -0.6849 0.3938, 1.4744 -0.6949 0.382, 1.4744 -0.7086 0.3721, 1.4744 -0.7238 0.3661, 1.4744 -0.7467 0.3633, 1.4744 -0.7834 0.3633, 1.4744 -0.7834 0.4967, 1.4744 -0.7453 0.4967, 1.4744 -0.7249 0.4945, 1.4744 -0.7088 0.4886, 1.4744 -0.6949 0.4791, 1.4744 -0.6903 0.4746, 1.4744 -0.796 0.3093, 1.4744 -0.671 0.3093, 1.4744 -0.8491 0.6747, 1.4744 -0.9505 0.575, 1.4744 -0.8422 0.635, 1.4744 -0.8455 0.6193, 1.4744 -0.852 0.6055, 1.4744 -0.862 0.5937, 1.4744 -0.8757 0.5838, 1.4744 -0.8909 0.5778, 1.4744 -0.9138 0.575, 1.4744 -0.9505 0.7084, 1.4744 -0.9124 0.7084, 1.4744 -0.8921 0.7062, 1.4744 -0.876 0.7003, 1.4744 -0.862 0.6908, 1.4744 -0.8574 0.6863, 1.4744 -1.0552 1.5335, 1.4744 -0.9942 1.5335, 1.4744 -0.9631 1.5335, 1.4744 -0.8382 1.5335, 1.4744 -0.796 1.5335, 1.4744 -0.671 1.5335, 1.4744 -0.3358 1.5335, 1.4744 -0.1244 1.5335, 1.4744 -0.3358 -0.0, 1.4744 -0.671 -0.0, 1.4744 -0.796 -0.0, 1.4744 -0.8382 -0.0, 1.4744 -0.9631 -0.0, 1.4744 -0.9942 -0.0, 1.4744 -1.0552 -0.0, 1.4744 -1.0799 -0.0, 1.4744 -1.1681 -0.0, 1.4744 -1.1761 0.3093, 1.4744 -1.1761 -0.0, 1.4744 -1.1782 0.3785, 1.4744 -1.1782 0.3633, 1.4744 -1.1761 0.3622, 1.4744 -1.2499 0.3633, 1.4744 -1.1812 0.4814, 1.4744 -1.2499 0.4967, 1.4744 -1.1812 0.4967, 1.4744 -1.2327 0.4234, 1.4744 -1.2327 0.3785, 1.4744 -1.185 0.4234, 1.4744 -1.185 0.4387, 1.4744 -1.2327 0.4387, 1.4744 -1.2327 0.4814, 1.4744 -1.2499 0.575, 1.4744 -1.2499 0.7084, 1.4744 -1.1796 0.575, 1.4744 -1.1761 1.5335, 1.4744 -1.1761 2.3228, 1.4744 -1.1681 2.3228, 1.4744 -1.0799 2.3228, 1.4744 -1.0552 2.3228, 1.4744 -0.9942 2.3228, 1.4744 -0.9631 2.3228, 1.4744 -0.8382 2.3228, 1.4744 -0.796 2.3228, 1.4744 -0.671 2.3228, 1.4744 -0.3358 2.3228, 1.4744 -0.1244 2.3228, -0.691 -2.8803 2.3228, -1.4784 -2.8803 2.3228, -0.691 -2.8803 1.9291, -1.4784 -2.8803 1.9291, 0.687 -2.8803 1.9291, 0.687 -2.8803 2.3228, -1.0847 -1.1087 1.9291, -1.0847 -2.0142 1.9291, -1.0847 -1.9327 1.9184, -1.0847 -1.8567 1.8869, -1.0847 -1.7915 1.8369, -1.0847 -1.7414 1.7717, -1.0847 -2.7622 0.3937, -1.0847 -1.2268 0.3937, -1.0847 -2.7622 1.5354, -1.0847 -1.2268 0.9055, -1.0847 -1.6992 1.5354, -1.0847 -1.1087 1.0236, -1.0847 -1.6992 1.6142, -1.0847 -1.7099 1.6957, 1.0807 -1.7099 1.6957, 1.0807 -1.7414 1.7717, 1.0807 -1.1087 1.9291, 1.0807 -1.7915 1.8369, 1.0807 -1.8567 1.8869, 1.0807 -1.9327 1.9184, 1.0807 -2.0142 1.9291, 1.0807 -1.2268 0.3937, 1.0807 -2.7622 0.3937, 1.0807 -1.2268 0.9055, 1.0807 -2.7622 1.5354, 1.0807 -1.1087 1.0236, 1.0807 -1.6992 1.5354, 1.0807 -1.6992 1.6142, 0.3641 -1.1087 1.3858, -0.3682 -1.1087 1.3858, 0.3641 -1.1087 1.1339, -0.3682 -1.1087 1.1339, -0.6201 -1.1087 1.3858, -0.6201 -1.1087 1.1339, 0.6161 -1.1087 1.3858, 0.6161 -1.1087 1.1339, 0.2539 -0.1244 -0.0, -0.2579 -0.1244 -0.0, 0.2539 -0.1244 2.3228, -0.2579 -0.1244 2.3228, -0.7304 -0.1244 -0.0, -1.4784 -0.1244 -0.0, -0.7304 -0.1244 2.3228, -1.4784 -0.1244 2.3228, -1.4784 -1.7099 1.6957, -1.4784 -1.7414 1.7717, -1.4784 -1.7915 1.8369, -1.4784 -1.8567 1.8869, -1.4784 -2.8803 -0.0, -1.4784 -2.8803 1.5354, -1.4784 -1.6992 1.5354, -1.4784 -1.6992 1.6142, -1.4784 -1.9327 1.9184, -1.4784 -2.0142 1.9291, 1.1988 -2.8803 0.2756, -1.2028 -2.8803 1.5354, -1.2028 -2.8803 0.2756, 1.1988 -2.8803 1.5354, 0.7263 -0.1244 2.3228, 0.7263 -0.1244 -0.0, 0.7263 -0.6079 2.3228, 0.687 -2.415 2.3228, 0.5688 -2.5978 2.3228, 0.687 -2.785 2.3228, 0.2539 -0.6079 2.3228, -0.6333 -1.6388 2.3228, -0.5926 -1.6075 2.3228, 0.6606 -1.6795 2.3228, 0.6803 -1.727 2.3228, 0.687 -1.778 2.3228, -0.691 -2.785 2.3228, 0.5411 -1.5878 2.3228, 0.5885 -1.6075 2.3228, 0.6293 -1.6388 2.3228, -0.691 -1.778 2.3228, -0.691 -2.415 2.3228, -0.5729 -2.5978 2.3228, -0.6843 -1.727 2.3228, -0.7304 -0.6079 2.3228, -0.6646 -1.6795 2.3228, -0.2579 -0.6079 2.3228, -0.5451 -1.5878 2.3228, -0.4941 -1.5811 2.3228, 0.4901 -1.5811 2.3228, -0.7304 -0.6079 -0.0, -0.2579 -0.6079 -0.0, 0.7263 -0.6079 -0.0, 0.2539 -0.6079 -0.0, -0.691 -2.415 1.9291, -0.5729 -2.5978 1.9291, -0.691 -2.785 1.9291, -0.6646 -1.6795 1.9291, -0.6843 -1.727 1.9291, 0.687 -2.785 1.9291, 0.5688 -2.5978 1.9291, 0.687 -2.415 1.9291, 0.6803 -1.727 1.9291, 0.6606 -1.6795 1.9291, 0.6293 -1.6388 1.9291, 0.5885 -1.6075 1.9291, -0.691 -1.778 1.9291, -0.5451 -1.5878 1.9291, -0.5926 -1.6075 1.9291, -0.6333 -1.6388 1.9291, 0.687 -1.778 1.9291, 0.5411 -1.5878 1.9291, 0.4901 -1.5811 1.9291, -0.4941 -1.5811 1.9291, -0.7304 -0.3213 0.7874, -0.7304 -0.3213 1.5354, -0.2579 -0.3213 0.7874, -0.2579 -0.3213 1.5354, -0.6201 -0.3213 1.1339, -0.3682 -0.3213 1.1339, -0.3682 -0.3213 1.3858, -0.6201 -0.3213 1.3858, 0.2539 -0.3213 1.5354, 0.2539 -0.3213 0.7874, 0.7263 -0.3213 1.5354, 0.7263 -0.3213 0.7874, 0.3641 -0.3213 1.1339, 0.6161 -0.3213 1.1339, 0.6161 -0.3213 1.3858, 0.3641 -0.3213 1.3858
            ]
        }
        coordIndex [
            0,1,2,-1,3,4,5,-1,6,7,8,-1,9,10,11,-1,12,13,14,-1,15,16,17,-1,18,19,20,-1,21,22,23,-1,23,22,24,-1,23,24,25,-1,25,26,23,-1,23,26,27,-1,23,27,28,-1,29,30,31,-1,31,30,32,-1,31,32,21,-1,33,34,35,-1,35,34,36,-1,35,36,37,-1,29,31,38,-1,38,31,39,-1,38,39,40,-1,40,39,34,-1,40,34,41,-1,33,42,34,-1,34,42,43,-1,34,43,44,-1,44,45,34,-1,34,45,46,-1,34,46,41,-1,41,46,47,-1,41,47,48,-1,48,47,49,-1,48,49,50,-1,51,52,53,-1,52,54,53,-1,53,54,55,-1,53,55,56,-1,56,57,53,-1,53,57,58,-1,53,58,36,-1,36,58,59,-1,36,59,37,-1,60,61,53,-1,53,61,62,-1,53,62,51,-1,63,64,65,-1,65,64,66,-1,65,66,67,-1,67,66,68,-1,67,68,69,-1,69,68,70,-1,69,70,53,-1,53,70,71,-1,53,71,60,-1,72,73,74,-1,74,73,75,-1,75,76,74,-1,74,76,77,-1,74,77,78,-1,79,80,81,-1,81,80,82,-1,28,83,23,-1,23,83,84,-1,23,84,85,-1,85,84,86,-1,85,86,87,-1,88,89,90,-1,90,89,91,-1,72,92,93,-1,94,95,80,-1,80,95,96,-1,80,96,97,-1,98,99,100,-1,100,99,101,-1,102,103,90,-1,90,103,104,-1,90,104,88,-1,105,106,72,-1,72,106,107,-1,72,107,92,-1,108,109,110,-1,110,109,111,-1,110,111,112,-1,113,97,114,-1,114,97,115,-1,114,115,110,-1,110,115,116,-1,110,116,108,-1,87,117,85,-1,85,117,118,-1,85,118,90,-1,90,118,119,-1,90,119,102,-1,113,120,97,-1,97,120,121,-1,97,121,80,-1,80,121,122,-1,80,122,82,-1,123,124,125,-1,125,124,126,-1,125,126,100,-1,100,126,127,-1,100,127,98,-1,101,128,100,-1,100,128,129,-1,100,129,130,-1,93,131,72,-1,72,131,132,-1,72,132,133,-1,133,132,123,-1,133,123,134,-1,134,123,125,-1,135,136,100,-1,100,136,137,-1,100,137,80,-1,80,137,138,-1,80,138,94,-1,130,139,100,-1,100,139,140,-1,100,140,141,-1,141,142,100,-1,100,142,143,-1,100,143,135,-1,144,145,146,-1,147,148,149,-1,96,150,97,-1,97,150,151,-1,97,151,152,-1,153,150,149,-1,149,150,96,-1,149,96,154,-1,154,96,155,-1,155,156,154,-1,154,156,157,-1,154,157,158,-1,144,146,149,-1,149,146,159,-1,149,159,147,-1,148,160,149,-1,149,160,161,-1,149,161,162,-1,163,164,165,-1,165,164,166,-1,165,166,167,-1,162,168,149,-1,149,168,169,-1,149,169,153,-1,152,170,97,-1,97,170,165,-1,97,165,171,-1,171,165,167,-1,172,173,174,-1,174,173,175,-1,175,173,176,-1,175,176,177,-1,178,179,172,-1,172,179,173,-1,173,179,180,-1,173,180,181,-1,180,182,181,-1,181,182,183,-1,181,183,184,-1,172,185,178,-1,178,185,186,-1,178,186,187,-1,176,188,177,-1,177,188,189,-1,177,189,190,-1,190,189,191,-1,192,193,194,-1,195,196,197,-1,197,196,198,-1,197,198,174,-1,174,198,199,-1,174,199,172,-1,194,200,192,-1,192,200,201,-1,192,201,202,-1,202,201,203,-1,202,203,195,-1,195,203,191,-1,195,191,196,-1,196,191,189,-1,204,205,206,-1,20,19,206,-1,206,19,207,-1,206,207,204,-1,205,208,209,-1,210,211,212,-1,205,209,213,-1,214,215,204,-1,210,212,204,-1,204,212,216,-1,204,216,214,-1,215,217,204,-1,204,217,218,-1,204,218,205,-1,205,218,219,-1,205,219,208,-1,220,221,222,-1,223,224,17,-1,225,226,17,-1,209,227,213,-1,213,227,228,-1,213,228,229,-1,225,17,230,-1,229,231,213,-1,213,231,232,-1,213,232,233,-1,233,232,234,-1,233,234,223,-1,226,235,17,-1,17,235,236,-1,17,236,15,-1,237,238,224,-1,224,238,239,-1,224,239,17,-1,17,239,240,-1,17,240,230,-1,241,242,243,-1,243,242,244,-1,243,244,245,-1,243,246,241,-1,241,246,247,-1,241,247,248,-1,248,249,241,-1,241,249,250,-1,241,250,251,-1,251,250,252,-1,251,252,253,-1,253,252,254,-1,253,254,224,-1,224,254,255,-1,224,255,237,-1,256,257,245,-1,245,257,258,-1,245,258,243,-1,259,260,211,-1,211,260,261,-1,211,261,212,-1,259,262,260,-1,260,262,263,-1,260,263,264,-1,264,263,265,-1,264,266,267,-1,265,268,264,-1,264,268,269,-1,264,269,270,-1,270,271,264,-1,264,271,272,-1,264,272,266,-1,267,273,264,-1,264,273,274,-1,264,274,275,-1,276,277,278,-1,278,277,174,-1,278,174,279,-1,279,174,280,-1,279,280,281,-1,282,197,283,-1,283,197,174,-1,283,174,284,-1,284,174,277,-1,285,286,287,-1,287,286,288,-1,289,290,291,-1,291,290,292,-1,290,293,292,-1,292,293,294,-1,292,294,295,-1,288,296,297,-1,297,296,298,-1,297,298,299,-1,300,213,301,-1,301,213,233,-1,301,233,302,-1,302,233,195,-1,302,195,291,-1,303,304,285,-1,285,304,305,-1,285,305,286,-1,306,307,31,-1,308,39,309,-1,309,39,31,-1,309,31,310,-1,310,31,307,-1,311,312,313,-1,313,312,314,-1,313,314,315,-1,315,316,313,-1,313,316,317,-1,313,317,306,-1,318,205,319,-1,319,205,213,-1,319,213,320,-1,320,213,321,-1,322,323,324,-1,324,323,325,-1,324,325,326,-1,326,325,321,-1,326,321,327,-1,327,321,213,-1,327,213,303,-1,303,213,300,-1,303,300,304,-1,328,329,324,-1,324,329,330,-1,324,330,331,-1,332,333,334,-1,334,333,335,-1,336,337,338,-1,338,337,339,-1,338,339,340,-1,340,339,335,-1,340,335,341,-1,341,335,333,-1,331,342,324,-1,324,342,343,-1,324,343,322,-1,336,338,324,-1,324,338,344,-1,324,344,328,-1,345,346,347,-1,347,346,348,-1,347,348,303,-1,303,348,349,-1,303,349,327,-1,350,351,352,-1,352,351,353,-1,352,353,345,-1,14,354,355,-1,355,356,14,-1,14,356,357,-1,14,357,12,-1,358,359,360,-1,360,359,361,-1,362,363,14,-1,14,363,364,-1,14,364,354,-1,361,365,360,-1,360,365,366,-1,360,366,362,-1,362,366,367,-1,362,367,363,-1,368,369,359,-1,359,369,370,-1,370,371,359,-1,359,371,372,-1,359,372,361,-1,318,373,205,-1,205,373,374,-1,205,374,359,-1,359,374,375,-1,359,375,368,-1,376,377,378,-1,378,377,379,-1,380,381,382,-1,382,381,383,-1,382,383,206,-1,358,384,385,-1,386,358,387,-1,387,358,388,-1,205,389,390,-1,376,391,377,-1,377,391,392,-1,377,392,393,-1,393,392,394,-1,395,396,394,-1,394,396,397,-1,394,397,393,-1,386,398,358,-1,358,398,399,-1,358,399,384,-1,400,401,205,-1,205,401,402,-1,205,402,389,-1,403,404,382,-1,382,404,405,-1,382,405,380,-1,385,406,358,-1,358,406,407,-1,358,407,359,-1,359,407,379,-1,359,379,408,-1,408,379,377,-1,408,409,359,-1,359,409,410,-1,359,410,205,-1,205,410,411,-1,205,411,400,-1,390,412,205,-1,205,412,413,-1,205,413,206,-1,206,413,414,-1,206,414,382,-1,415,416,394,-1,394,416,417,-1,394,417,418,-1,418,419,394,-1,394,419,420,-1,394,420,395,-1,383,421,422,-1,422,421,423,-1,423,421,424,-1,423,424,425,-1,426,427,17,-1,17,427,428,-1,223,17,233,-1,233,17,428,-1,233,428,195,-1,195,428,429,-1,195,429,202,-1,430,427,431,-1,431,427,426,-1,431,426,432,-1,433,434,435,-1,436,437,17,-1,221,220,16,-1,16,220,433,-1,16,433,17,-1,17,433,435,-1,17,435,436,-1,437,438,17,-1,17,438,439,-1,17,439,440,-1,440,441,17,-1,17,441,442,-1,17,442,426,-1,426,442,443,-1,426,443,432,-1,444,445,446,-1,446,445,447,-1,446,447,433,-1,433,447,448,-1,433,448,434,-1,449,450,451,-1,449,451,190,-1,450,452,451,-1,451,452,453,-1,451,453,446,-1,446,453,454,-1,446,454,444,-1,455,7,456,-1,456,7,6,-1,456,6,457,-1,457,6,458,-1,459,460,461,-1,462,463,464,-1,461,460,280,-1,280,460,465,-1,280,465,466,-1,464,459,462,-1,462,459,461,-1,462,461,467,-1,467,461,458,-1,467,458,466,-1,466,458,6,-1,466,6,280,-1,280,6,8,-1,280,8,281,-1,281,8,468,-1,281,468,469,-1,469,468,470,-1,471,472,280,-1,280,472,473,-1,280,473,461,-1,461,473,474,-1,461,474,475,-1,475,476,461,-1,461,476,477,-1,461,477,478,-1,478,479,461,-1,461,479,480,-1,461,480,175,-1,175,480,481,-1,175,481,174,-1,481,482,174,-1,174,482,483,-1,174,483,280,-1,280,483,484,-1,280,484,485,-1,485,486,280,-1,280,486,487,-1,280,487,471,-1,190,451,177,-1,177,451,488,-1,177,488,175,-1,175,488,489,-1,175,489,461,-1,461,489,11,-1,461,11,458,-1,458,11,10,-1,458,10,457,-1,3,5,490,-1,297,289,288,-1,288,289,291,-1,288,291,287,-1,287,291,195,-1,287,195,491,-1,492,493,197,-1,197,493,494,-1,197,494,495,-1,470,468,282,-1,282,468,5,-1,282,5,197,-1,197,5,4,-1,197,4,492,-1,495,496,197,-1,197,496,497,-1,197,497,195,-1,195,497,498,-1,195,498,491,-1,491,499,287,-1,287,499,500,-1,287,500,5,-1,5,500,501,-1,5,501,502,-1,502,503,5,-1,5,503,504,-1,5,504,490,-1,383,422,206,-1,206,422,220,-1,206,220,20,-1,20,220,222,-1,20,222,18,-1,345,347,352,-1,352,347,303,-1,352,303,505,-1,505,303,285,-1,505,285,506,-1,506,285,287,-1,506,287,507,-1,507,287,5,-1,507,5,508,-1,508,5,468,-1,508,468,509,-1,509,468,8,-1,509,8,510,-1,510,8,7,-1,510,7,511,-1,511,7,455,-1,511,455,512,-1,9,11,513,-1,513,11,489,-1,513,489,514,-1,514,489,488,-1,514,488,515,-1,515,488,451,-1,515,451,516,-1,516,451,446,-1,516,446,517,-1,517,446,433,-1,517,433,518,-1,518,433,220,-1,518,220,519,-1,519,220,422,-1,519,422,520,-1,520,422,423,-1,520,423,521,-1,522,523,521,-1,523,74,65,-1,65,74,78,-1,65,78,63,-1,523,522,74,-1,74,522,90,-1,74,90,72,-1,72,90,91,-1,72,91,105,-1,524,525,526,-1,526,525,527,-1,425,388,423,-1,423,388,358,-1,423,358,526,-1,526,358,360,-1,526,360,524,-1,524,360,528,-1,521,423,522,-1,522,423,526,-1,522,526,90,-1,90,526,527,-1,90,527,85,-1,85,527,529,-1,85,529,360,-1,360,529,530,-1,360,530,528,-1,531,532,533,-1,533,532,524,-1,533,524,534,-1,534,524,528,-1,534,528,535,-1,535,528,536,-1,537,538,23,-1,23,538,0,-1,23,0,362,-1,362,0,2,-1,362,2,360,-1,360,2,539,-1,360,539,85,-1,85,539,537,-1,85,537,23,-1,21,23,31,-1,31,23,362,-1,31,362,540,-1,540,362,14,-1,540,14,350,-1,350,14,13,-1,350,13,351,-1,306,31,313,-1,313,31,540,-1,313,540,541,-1,541,540,350,-1,541,350,542,-1,542,350,352,-1,542,352,543,-1,543,352,505,-1,543,505,544,-1,544,505,506,-1,544,506,545,-1,545,506,507,-1,545,507,546,-1,546,507,508,-1,546,508,547,-1,547,508,509,-1,547,509,548,-1,548,509,510,-1,548,510,549,-1,549,510,511,-1,549,511,550,-1,550,511,512,-1,550,512,551,-1,552,553,554,-1,554,553,555,-1,556,312,557,-1,557,312,311,-1,558,559,560,-1,560,561,558,-1,558,561,562,-1,558,562,563,-1,564,565,566,-1,566,565,567,-1,566,567,568,-1,568,567,569,-1,568,569,570,-1,570,569,558,-1,570,558,571,-1,571,558,563,-1,572,573,574,-1,574,573,575,-1,575,576,574,-1,574,576,577,-1,574,577,578,-1,579,580,581,-1,581,580,582,-1,581,582,583,-1,583,582,584,-1,583,584,574,-1,574,584,585,-1,574,585,572,-1,580,579,564,-1,564,579,565,-1,586,587,588,-1,588,587,589,-1,590,558,591,-1,591,558,569,-1,591,569,589,-1,589,569,583,-1,589,583,588,-1,590,587,558,-1,558,587,586,-1,558,586,574,-1,574,586,592,-1,574,592,583,-1,583,592,593,-1,583,593,588,-1,594,595,596,-1,596,595,597,-1,598,599,600,-1,600,599,601,-1,602,603,601,-1,601,603,604,-1,601,604,605,-1,606,607,599,-1,599,607,608,-1,599,608,601,-1,601,608,609,-1,601,609,602,-1,605,610,601,-1,601,610,611,-1,601,611,553,-1,553,611,555,-1,612,69,53,-1,613,607,614,-1,614,607,606,-1,614,606,612,-1,612,606,67,-1,612,67,69,-1,53,36,612,-1,612,36,34,-1,612,34,615,-1,615,34,39,-1,615,39,308,-1,616,551,512,-1,616,512,617,-1,617,512,455,-1,617,455,456,-1,456,457,617,-1,617,457,10,-1,617,10,9,-1,551,616,311,-1,311,616,618,-1,619,620,311,-1,311,620,621,-1,311,621,557,-1,622,623,624,-1,618,625,626,-1,618,626,311,-1,311,626,627,-1,311,627,619,-1,553,552,628,-1,629,630,618,-1,618,630,631,-1,618,631,625,-1,632,553,633,-1,633,553,628,-1,633,628,634,-1,632,635,553,-1,553,635,636,-1,553,636,601,-1,601,636,600,-1,635,637,636,-1,636,637,623,-1,636,623,638,-1,638,623,622,-1,638,622,597,-1,597,622,596,-1,624,639,622,-1,622,639,640,-1,622,640,618,-1,618,640,641,-1,618,641,629,-1,599,598,606,-1,606,598,642,-1,606,642,643,-1,65,67,644,-1,644,67,606,-1,644,606,645,-1,645,606,643,-1,645,643,594,-1,594,643,595,-1,515,516,644,-1,617,9,513,-1,644,519,520,-1,617,513,644,-1,644,513,514,-1,644,514,515,-1,516,517,644,-1,644,517,518,-1,644,518,519,-1,520,521,644,-1,644,521,523,-1,644,523,65,-1,646,647,648,-1,555,611,559,-1,649,650,558,-1,556,651,312,-1,312,651,652,-1,312,652,653,-1,654,655,574,-1,574,655,656,-1,574,656,657,-1,558,650,559,-1,650,658,559,-1,559,658,646,-1,559,646,555,-1,555,646,648,-1,555,648,554,-1,659,660,558,-1,558,660,661,-1,558,661,649,-1,654,574,662,-1,662,574,578,-1,662,578,653,-1,653,578,314,-1,653,314,312,-1,657,663,574,-1,574,663,664,-1,574,664,558,-1,558,664,665,-1,558,665,659,-1,666,642,598,-1,666,598,667,-1,667,598,600,-1,667,600,636,-1,643,668,595,-1,595,668,669,-1,595,669,597,-1,597,669,638,-1,670,666,667,-1,666,670,668,-1,668,670,671,-1,668,671,669,-1,669,671,672,-1,669,672,667,-1,667,672,673,-1,667,673,670,-1,642,666,643,-1,643,666,668,-1,638,669,636,-1,636,669,667,-1,622,674,596,-1,596,674,675,-1,596,675,594,-1,594,675,645,-1,676,618,616,-1,676,616,677,-1,677,616,617,-1,677,617,644,-1,678,675,674,-1,675,678,677,-1,677,678,679,-1,677,679,676,-1,676,679,680,-1,676,680,674,-1,674,680,681,-1,674,681,678,-1,645,675,644,-1,644,675,677,-1,618,676,622,-1,622,676,674,-1,
        ]
    }
}
Shape{
    appearance Appearance {
        material  Material {
            diffuseColor 0.7529411764705882 0.7529411764705882 0.7529411764705882
            specularColor 0.3764705882352941 0.3764705882352941 0.3764705882352941
            ambientIntensity 0.7529
            transparency 0.0
            shininess 0.5
        }
    }
    geometry IndexedFaceSet {
        ccw TRUE
        solid FALSE
        coord DEF co Coordinate {
            point [
                -0.6201 -0.1953 1.3858, -0.3682 -0.1953 1.3858, -0.3682 -0.1117 1.3748, -0.6201 -0.1117 1.3748, -0.3682 -0.0339 1.3426, -0.6201 -0.0339 1.3426, -0.3682 0.033 1.2913, -0.6201 0.033 1.2913, -0.3682 0.0843 1.2244, -0.6201 0.0843 1.2244, -0.3682 0.1166 1.1465, -0.6201 0.1166 1.1465, -0.3682 0.1276 1.063, -0.6201 0.1276 1.063, -0.6201 0.1276 -1.1417, -0.3682 0.1276 -1.1417, -0.4398 0.0559 -1.3386, -0.4398 -0.0528 -1.3386, -0.5485 0.0559 -1.3386, -0.5485 -0.0528 -1.3386, -0.3682 -0.1244 -1.1417, -0.3682 -0.1244 1.063, -0.6201 -0.1244 -1.1417, -0.6201 -0.1244 1.063, -0.6201 -0.1268 1.0813, -0.3682 -0.1268 1.0813, -0.6201 -0.1339 1.0984, -0.3682 -0.1339 1.0984, -0.6201 -0.1452 1.1131, -0.3682 -0.1452 1.1131, -0.6201 -0.1598 1.1244, -0.3682 -0.1598 1.1244, -0.6201 -0.1769 1.1314, -0.3682 -0.1769 1.1314, -0.6201 -0.1953 1.1339, -0.3682 -0.1953 1.1339, -0.6201 -0.3213 1.1339, -0.6201 -0.3213 1.3858, -0.3682 -0.3213 1.1339, -0.3682 -0.3213 1.3858, -0.6201 -2.2425 1.1339, -0.6201 -1.1087 1.1339, -0.3682 -2.2425 1.1339, -0.3682 -1.1087 1.1339, -0.3682 -2.2425 1.3858, -0.3682 -1.1087 1.3858, -0.6201 -2.2425 1.3858, -0.6201 -1.1087 1.3858, -0.4398 -2.4394 1.2055, -0.4398 -2.4394 1.3142, -0.5485 -2.4394 1.2055, -0.5485 -2.4394 1.3142, 0.3641 -0.1953 1.3858, 0.6161 -0.1953 1.3858, 0.6161 -0.1117 1.3748, 0.3641 -0.1117 1.3748, 0.6161 -0.0339 1.3426, 0.3641 -0.0339 1.3426, 0.6161 0.033 1.2913, 0.3641 0.033 1.2913, 0.6161 0.0843 1.2244, 0.3641 0.0843 1.2244, 0.6161 0.1166 1.1465, 0.3641 0.1166 1.1465, 0.6161 0.1276 1.063, 0.3641 0.1276 1.063, 0.3641 0.1276 -1.1417, 0.6161 0.1276 -1.1417, 0.5444 0.0559 -1.3386, 0.5444 -0.0528 -1.3386, 0.4358 0.0559 -1.3386, 0.4358 -0.0528 -1.3386, 0.6161 -0.1244 -1.1417, 0.6161 -0.1244 1.063, 0.3641 -0.1244 -1.1417, 0.3641 -0.1244 1.063, 0.3641 -0.1268 1.0813, 0.6161 -0.1268 1.0813, 0.3641 -0.1339 1.0984, 0.6161 -0.1339 1.0984, 0.3641 -0.1452 1.1131, 0.6161 -0.1452 1.1131, 0.3641 -0.1598 1.1244, 0.6161 -0.1598 1.1244, 0.3641 -0.1769 1.1314, 0.6161 -0.1769 1.1314, 0.3641 -0.1953 1.1339, 0.6161 -0.1953 1.1339, 0.3641 -0.3213 1.1339, 0.3641 -0.3213 1.3858, 0.6161 -0.3213 1.1339, 0.6161 -0.3213 1.3858, 0.3641 -2.2425 1.1339, 0.3641 -1.1087 1.1339, 0.6161 -2.2425 1.1339, 0.6161 -1.1087 1.1339, 0.6161 -2.2425 1.3858, 0.6161 -1.1087 1.3858, 0.3641 -2.2425 1.3858, 0.3641 -1.1087 1.3858, 0.5444 -2.4394 1.2055, 0.5444 -2.4394 1.3142, 0.4358 -2.4394 1.2055, 0.4358 -2.4394 1.3142
            ]
        }
        coordIndex [
            0,1,2,-1,0,2,3,-1,3,2,4,-1,3,4,5,-1,5,4,6,-1,5,6,7,-1,7,6,8,-1,7,8,9,-1,9,8,10,-1,9,10,11,-1,11,10,12,-1,11,12,13,-1,14,13,15,-1,15,13,12,-1,16,17,18,-1,18,17,19,-1,20,21,22,-1,22,21,23,-1,23,21,24,-1,24,21,25,-1,24,25,26,-1,26,25,27,-1,26,27,28,-1,28,27,29,-1,28,29,30,-1,30,29,31,-1,30,31,32,-1,32,31,33,-1,32,33,34,-1,34,33,35,-1,36,37,34,-1,34,37,0,-1,34,0,32,-1,32,0,3,-1,32,3,30,-1,30,3,5,-1,30,5,28,-1,28,5,7,-1,28,7,26,-1,26,7,9,-1,26,9,24,-1,24,9,11,-1,24,11,23,-1,23,11,13,-1,23,13,22,-1,22,13,14,-1,20,15,21,-1,21,15,12,-1,21,12,25,-1,25,12,10,-1,25,10,27,-1,27,10,8,-1,27,8,29,-1,29,8,6,-1,29,6,31,-1,31,6,4,-1,31,4,33,-1,33,4,2,-1,33,2,35,-1,35,2,1,-1,35,1,38,-1,38,1,39,-1,1,0,39,-1,39,0,37,-1,36,34,38,-1,38,34,35,-1,40,41,42,-1,42,41,43,-1,44,45,46,-1,46,45,47,-1,46,47,40,-1,40,47,41,-1,42,43,44,-1,44,43,45,-1,48,49,50,-1,50,49,51,-1,46,51,44,-1,44,51,49,-1,40,50,46,-1,46,50,51,-1,48,42,49,-1,49,42,44,-1,42,48,40,-1,40,48,50,-1,22,19,20,-1,20,19,17,-1,14,18,22,-1,22,18,19,-1,16,15,17,-1,17,15,20,-1,15,16,14,-1,14,16,18,-1,52,53,54,-1,52,54,55,-1,55,54,56,-1,55,56,57,-1,57,56,58,-1,57,58,59,-1,59,58,60,-1,59,60,61,-1,61,60,62,-1,61,62,63,-1,63,62,64,-1,63,64,65,-1,66,65,67,-1,67,65,64,-1,68,69,70,-1,70,69,71,-1,72,73,74,-1,74,73,75,-1,75,73,76,-1,76,73,77,-1,76,77,78,-1,78,77,79,-1,78,79,80,-1,80,79,81,-1,80,81,82,-1,82,81,83,-1,82,83,84,-1,84,83,85,-1,84,85,86,-1,86,85,87,-1,88,89,86,-1,86,89,52,-1,86,52,84,-1,84,52,55,-1,84,55,82,-1,82,55,57,-1,82,57,80,-1,80,57,59,-1,80,59,78,-1,78,59,61,-1,78,61,76,-1,76,61,63,-1,76,63,75,-1,75,63,65,-1,75,65,74,-1,74,65,66,-1,72,67,73,-1,73,67,64,-1,73,64,77,-1,77,64,62,-1,77,62,79,-1,79,62,60,-1,79,60,81,-1,81,60,58,-1,81,58,83,-1,83,58,56,-1,83,56,85,-1,85,56,54,-1,85,54,87,-1,87,54,53,-1,87,53,90,-1,90,53,91,-1,53,52,91,-1,91,52,89,-1,88,86,90,-1,90,86,87,-1,92,93,94,-1,94,93,95,-1,96,97,98,-1,98,97,99,-1,98,99,92,-1,92,99,93,-1,94,95,96,-1,96,95,97,-1,100,101,102,-1,102,101,103,-1,98,103,96,-1,96,103,101,-1,92,102,98,-1,98,102,103,-1,100,94,101,-1,101,94,96,-1,94,100,92,-1,92,100,102,-1,74,71,72,-1,72,71,69,-1,66,70,74,-1,74,70,71,-1,68,67,69,-1,69,67,72,-1,67,68,66,-1,66,68,70,-1,
        ]
    }
}
Shape{
    appearance Appearance {
        material  Material {
            diffuseColor 1.0 1.0 1.0
            specularColor 0.5019607843137255 0.5019607843137255 0.5019607843137255
            ambientIntensity 1.0
            transparency 0.0
            shininess 0.5
        }
    }
    geometry IndexedFaceSet {
        ccw TRUE
        solid FALSE
        coord DEF co Coordinate {
            point [
                1.0807 -1.2268 0.3937, 1.0807 -1.2268 0.9055, -1.0847 -1.2268 0.3937, -1.0847 -1.2268 0.9055, -1.0847 -1.1087 1.0236, 1.0807 -1.1087 1.0236, 1.0807 -1.6992 1.5354, 1.0807 -2.7622 1.5354, 1.4744 -1.6992 1.5354, 1.1988 -2.8803 1.5354, 1.4744 -2.8803 1.5354, 1.4744 -1.6992 1.6142, 1.0807 -1.6992 1.6142, 1.0807 -1.7099 1.6957, 1.4744 -1.7099 1.6957, 1.0807 -1.7414 1.7717, 1.4744 -1.7414 1.7717, 1.0807 -1.7915 1.8369, 1.4744 -1.7915 1.8369, 1.0807 -1.8567 1.8869, 1.4744 -1.8567 1.8869, 1.0807 -1.9327 1.9184, 1.4744 -1.9327 1.9184, 1.0807 -2.0142 1.9291, 1.4744 -2.0142 1.9291, -1.4784 -1.6992 1.5354, -1.0847 -1.6992 1.5354, -1.4784 -1.6992 1.6142, -1.0847 -1.6992 1.6142, -1.0847 -2.7622 1.5354, -1.2028 -2.8803 1.5354, -1.4784 -2.8803 1.5354, -1.4784 -1.7099 1.6957, -1.0847 -1.7099 1.6957, -1.4784 -1.7414 1.7717, -1.0847 -1.7414 1.7717, -1.4784 -1.7915 1.8369, -1.0847 -1.7915 1.8369, -1.4784 -1.8567 1.8869, -1.0847 -1.8567 1.8869, -1.4784 -1.9327 1.9184, -1.0847 -1.9327 1.9184, -1.4784 -2.0142 1.9291, -1.0847 -2.0142 1.9291, 0.687 -1.778 1.9291, 0.687 -2.415 1.9291, 0.687 -1.778 2.3228, 0.687 -2.415 2.3228, 0.5688 -2.5978 1.9291, 0.5688 -2.5978 2.3228, 0.687 -2.785 1.9291, 0.687 -2.785 2.3228, 0.687 -2.8803 1.9291, 0.687 -2.8803 2.3228, -0.691 -2.8803 1.9291, -0.691 -2.785 1.9291, -0.691 -2.8803 2.3228, -0.691 -2.785 2.3228, -0.5729 -2.5978 1.9291, -0.5729 -2.5978 2.3228, -0.691 -2.415 1.9291, -0.691 -2.415 2.3228, -0.691 -1.778 2.3228, -0.691 -1.778 1.9291, -0.4941 -1.5811 1.9291, 0.4901 -1.5811 1.9291, -0.4941 -1.5811 2.3228, 0.4901 -1.5811 2.3228, -0.6843 -1.727 2.3228, -0.6843 -1.727 1.9291, -0.6646 -1.6795 2.3228, -0.6646 -1.6795 1.9291, -0.6333 -1.6388 2.3228, -0.6333 -1.6388 1.9291, -0.5926 -1.6075 2.3228, -0.5926 -1.6075 1.9291, -0.5451 -1.5878 2.3228, -0.5451 -1.5878 1.9291, 0.5411 -1.5878 2.3228, 0.5411 -1.5878 1.9291, 0.5885 -1.6075 2.3228, 0.5885 -1.6075 1.9291, 0.6293 -1.6388 2.3228, 0.6293 -1.6388 1.9291, 0.6606 -1.6795 2.3228, 0.6606 -1.6795 1.9291, 0.6803 -1.727 2.3228, 0.6803 -1.727 1.9291
            ]
        }
        coordIndex [
            0,1,2,-1,2,1,3,-1,4,3,5,-1,5,3,1,-1,6,7,8,-1,8,7,9,-1,8,9,10,-1,11,12,8,-1,8,12,6,-1,12,11,13,-1,13,11,14,-1,13,14,15,-1,15,14,16,-1,15,16,17,-1,17,16,18,-1,17,18,19,-1,19,18,20,-1,19,20,21,-1,21,20,22,-1,21,22,23,-1,23,22,24,-1,25,26,27,-1,27,26,28,-1,29,26,30,-1,30,26,25,-1,30,25,31,-1,27,28,32,-1,32,28,33,-1,32,33,34,-1,34,33,35,-1,34,35,36,-1,36,35,37,-1,36,37,38,-1,38,37,39,-1,38,39,40,-1,40,39,41,-1,40,41,42,-1,42,41,43,-1,44,45,46,-1,46,45,47,-1,45,48,47,-1,47,48,49,-1,48,50,49,-1,49,50,51,-1,50,52,51,-1,51,52,53,-1,54,55,56,-1,56,55,57,-1,55,58,57,-1,57,58,59,-1,58,60,59,-1,59,60,61,-1,62,61,63,-1,63,61,60,-1,64,65,66,-1,66,65,67,-1,62,63,68,-1,68,63,69,-1,68,69,70,-1,70,69,71,-1,70,71,72,-1,72,71,73,-1,72,73,74,-1,74,73,75,-1,74,75,76,-1,76,75,77,-1,76,77,66,-1,66,77,64,-1,67,65,78,-1,78,65,79,-1,78,79,80,-1,80,79,81,-1,80,81,82,-1,82,81,83,-1,82,83,84,-1,84,83,85,-1,84,85,86,-1,86,85,87,-1,86,87,46,-1,46,87,44,-1,
        ]
    }
}
Shape{
    appearance Appearance {
        material  Material {
            diffuseColor 0.0 0.0 0.0
            specularColor 0.0 0.0 0.0
            ambientIntensity 0.0
            transparency 0.0
            shininess 0.5
        }
    }
    geometry IndexedFaceSet {
        ccw TRUE
        solid FALSE
        coord DEF co Coordinate {
            point [
                1.4783 -1.1796 0.5902, 1.4783 -1.1796 0.575, 1.4744 -1.1796 0.5902, 1.4744 -1.1796 0.575, 1.4783 -1.2327 0.5902, 1.4744 -1.2327 0.5902, 1.4783 -1.2327 0.7084, 1.4744 -1.2327 0.7084, 1.4783 -1.2499 0.7084, 1.4744 -1.2499 0.7084, 1.4783 -1.2499 0.575, 1.4744 -1.2499 0.575, 1.4783 -1.1111 0.5727, 1.4744 -1.1111 0.5727, 1.4744 -1.0908 0.5747, 1.4744 -1.0799 0.5783, 1.4783 -1.0765 0.5794, 1.4783 -1.0908 0.5747, 1.4744 -1.0765 0.5794, 1.4744 -1.0742 0.5805, 1.4783 -1.0742 0.5805, 1.4783 -1.0742 0.597, 1.4744 -1.0742 0.597, 1.4744 -1.0799 0.5945, 1.4783 -1.0873 0.5912, 1.4744 -1.0873 0.5912, 1.4744 -1.1024 0.5883, 1.4783 -1.1024 0.5883, 1.4744 -1.1086 0.5881, 1.4783 -1.1086 0.5881, 1.4744 -1.1221 0.5897, 1.4783 -1.1221 0.5897, 1.4744 -1.1316 0.5934, 1.4783 -1.1316 0.5934, 1.4744 -1.1403 0.5996, 1.4783 -1.1403 0.5996, 1.4744 -1.1429 0.6022, 1.4783 -1.1429 0.6022, 1.4744 -1.1494 0.6112, 1.4783 -1.1494 0.6112, 1.4744 -1.1537 0.6219, 1.4783 -1.1537 0.6219, 1.4744 -1.1559 0.6353, 1.4783 -1.1559 0.6353, 1.4744 -1.156 0.6402, 1.4783 -1.156 0.6402, 1.4744 -1.1538 0.6588, 1.4783 -1.1538 0.6588, 1.4744 -1.1493 0.6703, 1.4783 -1.1493 0.6703, 1.4744 -1.142 0.6803, 1.4783 -1.142 0.6803, 1.4744 -1.1329 0.6878, 1.4783 -1.1329 0.6878, 1.4744 -1.1224 0.6927, 1.4783 -1.1224 0.6927, 1.4744 -1.1108 0.6949, 1.4783 -1.1108 0.6949, 1.4744 -1.1056 0.6951, 1.4783 -1.1056 0.6951, 1.4744 -1.0892 0.6932, 1.4744 -1.0799 0.6896, 1.4783 -1.0757 0.688, 1.4783 -1.0892 0.6932, 1.4744 -1.0757 0.688, 1.4744 -1.0742 0.6872, 1.4783 -1.0742 0.6872, 1.4783 -1.0742 0.7052, 1.4744 -1.0742 0.7052, 1.4744 -1.1058 0.7107, 1.4783 -1.1058 0.7107, 1.4783 -1.1055 0.7107, 1.4744 -1.0799 0.7069, 1.4783 -1.0881 0.7093, 1.4744 -1.0881 0.7093, 1.4744 -1.0917 0.7096, 1.4744 -1.1055 0.7107, 1.4744 -1.115 0.7096, 1.4783 -1.1253 0.7083, 1.4744 -1.1253 0.7083, 1.4744 -1.1392 0.7029, 1.4783 -1.1392 0.7029, 1.4744 -1.1517 0.6941, 1.4783 -1.1517 0.6941, 1.4744 -1.1548 0.6911, 1.4783 -1.1548 0.6911, 1.4744 -1.1645 0.6784, 1.4744 -1.1681 0.6699, 1.4783 -1.1709 0.6636, 1.4783 -1.1645 0.6784, 1.4744 -1.1709 0.6636, 1.4744 -1.1739 0.6462, 1.4783 -1.1739 0.6462, 1.4744 -1.1741 0.6392, 1.4783 -1.1741 0.6392, 1.4744 -1.1719 0.6193, 1.4744 -1.1681 0.6087, 1.4783 -1.1668 0.605, 1.4783 -1.1719 0.6193, 1.4744 -1.1668 0.605, 1.4744 -1.1591 0.5933, 1.4783 -1.1591 0.5933, 1.4744 -1.157 0.591, 1.4783 -1.157 0.591, 1.4744 -1.1462 0.582, 1.4783 -1.1462 0.582, 1.4744 -1.1336 0.5761, 1.4783 -1.1336 0.5761, 1.4744 -1.1192 0.5731, 1.4783 -1.1192 0.5731, 1.4783 -0.9757 0.5902, 1.4783 -0.9757 0.575, 1.4744 -0.9757 0.5902, 1.4744 -0.9757 0.575, 1.4744 -1.0303 0.5902, 1.4783 -1.0303 0.5902, 1.4744 -0.9942 0.5902, 1.4783 -1.0303 0.6351, 1.4744 -1.0303 0.6351, 1.4783 -0.9825 0.6351, 1.4744 -0.9942 0.6351, 1.4744 -0.9825 0.6351, 1.4783 -0.9825 0.6504, 1.4744 -0.9825 0.6504, 1.4744 -1.0303 0.6504, 1.4783 -1.0303 0.6504, 1.4744 -0.9942 0.6504, 1.4783 -1.0303 0.6931, 1.4744 -1.0303 0.6931, 1.4744 -0.9787 0.6931, 1.4783 -0.9787 0.6931, 1.4744 -0.9942 0.6931, 1.4783 -0.9787 0.7084, 1.4744 -0.9787 0.7084, 1.4744 -1.0475 0.7084, 1.4783 -1.0475 0.7084, 1.4744 -0.9942 0.7084, 1.4783 -1.0475 0.575, 1.4744 -1.0475 0.575, 1.4744 -0.9942 0.575, 1.4783 -0.8676 0.6124, 1.4783 -0.8742 0.6041, 1.4783 -0.862 0.5937, 1.4783 -0.8767 0.6019, 1.4783 -0.8757 0.5838, 1.4783 -0.8855 0.5961, 1.4783 -0.8909 0.5778, 1.4783 -0.8969 0.592, 1.4783 -0.9138 0.575, 1.4783 -0.9139 0.5902, 1.4783 -0.9505 0.575, 1.4783 -0.9333 0.5902, 1.4783 -0.9505 0.7084, 1.4783 -0.9333 0.6931, 1.4783 -0.9124 0.7084, 1.4783 -0.9131 0.6931, 1.4783 -0.8921 0.7062, 1.4783 -0.8959 0.6912, 1.4783 -0.876 0.7003, 1.4783 -0.8844 0.687, 1.4783 -0.862 0.6908, 1.4783 -0.8746 0.6805, 1.4783 -0.8574 0.6863, 1.4783 -0.8702 0.6761, 1.4783 -0.8491 0.6747, 1.4783 -0.8652 0.6684, 1.4783 -0.8441 0.662, 1.4783 -0.8616 0.6583, 1.4783 -0.8419 0.6434, 1.4783 -0.86 0.643, 1.4783 -0.8422 0.635, 1.4783 -0.8604 0.6345, 1.4783 -0.8455 0.6193, 1.4783 -0.863 0.6223, 1.4783 -0.852 0.6055, 1.4744 -0.9138 0.575, 1.4744 -0.9505 0.575, 1.4744 -0.8909 0.5778, 1.4744 -0.8757 0.5838, 1.4744 -0.862 0.5937, 1.4744 -0.852 0.6055, 1.4744 -0.8455 0.6193, 1.4744 -0.8422 0.635, 1.4744 -0.8419 0.6434, 1.4744 -0.8441 0.662, 1.4744 -0.8491 0.6747, 1.4744 -0.8574 0.6863, 1.4744 -0.862 0.6908, 1.4744 -0.876 0.7003, 1.4744 -0.8921 0.7062, 1.4744 -0.9124 0.7084, 1.4744 -0.9505 0.7084, 1.4744 -0.9131 0.6931, 1.4744 -0.9333 0.6931, 1.4744 -0.9333 0.5902, 1.4744 -0.9139 0.5902, 1.4744 -0.8742 0.6041, 1.4744 -0.8767 0.6019, 1.4744 -0.8855 0.5961, 1.4744 -0.8969 0.592, 1.4744 -0.86 0.643, 1.4744 -0.8604 0.6345, 1.4744 -0.863 0.6223, 1.4744 -0.8676 0.6124, 1.4744 -0.8746 0.6805, 1.4744 -0.8702 0.6761, 1.4744 -0.8652 0.6684, 1.4744 -0.8616 0.6583, 1.4744 -0.8959 0.6912, 1.4744 -0.8844 0.687
            ]
        }
        coordIndex [
            0,1,2,-1,2,1,3,-1,4,0,5,-1,5,0,2,-1,6,4,7,-1,7,4,5,-1,8,6,9,-1,9,6,7,-1,10,8,11,-1,11,8,9,-1,1,10,3,-1,3,10,11,-1,6,8,4,-1,4,8,10,-1,4,10,0,-1,0,10,1,-1,12,13,14,-1,15,16,14,-1,14,16,17,-1,14,17,12,-1,15,18,16,-1,16,18,19,-1,16,19,20,-1,21,20,22,-1,22,20,19,-1,21,22,23,-1,21,23,24,-1,23,25,24,-1,24,25,26,-1,24,26,27,-1,27,26,28,-1,27,28,29,-1,29,28,30,-1,29,30,31,-1,31,30,32,-1,31,32,33,-1,33,32,34,-1,33,34,35,-1,35,34,36,-1,35,36,37,-1,37,36,38,-1,37,38,39,-1,39,38,40,-1,39,40,41,-1,41,40,42,-1,41,42,43,-1,43,42,44,-1,43,44,45,-1,45,44,46,-1,45,46,47,-1,47,46,48,-1,47,48,49,-1,49,48,50,-1,49,50,51,-1,51,50,52,-1,51,52,53,-1,53,52,54,-1,53,54,55,-1,55,54,56,-1,55,56,57,-1,57,56,58,-1,57,58,59,-1,59,58,60,-1,61,62,60,-1,60,62,63,-1,60,63,59,-1,61,64,62,-1,62,64,65,-1,62,65,66,-1,67,66,68,-1,68,66,65,-1,69,70,71,-1,67,68,72,-1,67,72,73,-1,72,74,73,-1,73,74,75,-1,73,75,71,-1,71,75,76,-1,71,76,69,-1,70,69,77,-1,70,77,78,-1,77,79,78,-1,78,79,80,-1,78,80,81,-1,81,80,82,-1,81,82,83,-1,83,82,84,-1,83,84,85,-1,85,84,86,-1,87,88,86,-1,86,88,89,-1,86,89,85,-1,87,90,88,-1,88,90,91,-1,88,91,92,-1,92,91,93,-1,92,93,94,-1,94,93,95,-1,96,97,95,-1,95,97,98,-1,95,98,94,-1,96,99,97,-1,97,99,100,-1,97,100,101,-1,101,100,102,-1,101,102,103,-1,103,102,104,-1,103,104,105,-1,105,104,106,-1,105,106,107,-1,107,106,108,-1,107,108,109,-1,109,108,13,-1,109,13,12,-1,62,66,67,-1,53,83,51,-1,51,83,85,-1,51,85,49,-1,49,85,89,-1,49,89,47,-1,62,67,63,-1,63,67,73,-1,63,73,59,-1,59,73,71,-1,59,71,57,-1,57,71,70,-1,57,70,55,-1,55,70,78,-1,55,78,53,-1,53,78,81,-1,53,81,83,-1,20,21,16,-1,16,21,24,-1,16,24,17,-1,17,24,27,-1,17,27,12,-1,12,27,29,-1,12,29,109,-1,109,29,31,-1,109,31,107,-1,107,31,33,-1,107,33,105,-1,105,33,35,-1,105,35,103,-1,103,35,37,-1,103,37,101,-1,101,37,39,-1,101,39,97,-1,94,45,92,-1,92,45,47,-1,92,47,88,-1,88,47,89,-1,97,39,98,-1,98,39,41,-1,98,41,94,-1,94,41,43,-1,94,43,45,-1,110,111,112,-1,112,111,113,-1,114,115,116,-1,116,115,110,-1,116,110,112,-1,117,115,118,-1,118,115,114,-1,117,118,119,-1,119,118,120,-1,119,120,121,-1,122,119,123,-1,123,119,121,-1,124,125,126,-1,126,125,122,-1,126,122,123,-1,127,125,128,-1,128,125,124,-1,129,130,131,-1,131,130,127,-1,131,127,128,-1,132,130,133,-1,133,130,129,-1,134,135,136,-1,136,135,132,-1,136,132,133,-1,137,135,138,-1,138,135,134,-1,113,111,139,-1,139,111,137,-1,139,137,138,-1,137,111,110,-1,110,115,137,-1,137,115,117,-1,137,117,135,-1,130,132,127,-1,127,132,135,-1,127,135,125,-1,125,135,117,-1,125,117,122,-1,122,117,119,-1,140,141,142,-1,142,141,143,-1,142,143,144,-1,144,143,145,-1,144,145,146,-1,146,145,147,-1,146,147,148,-1,148,147,149,-1,148,149,150,-1,150,149,151,-1,150,151,152,-1,152,151,153,-1,152,153,154,-1,154,153,155,-1,154,155,156,-1,156,155,157,-1,156,157,158,-1,158,157,159,-1,158,159,160,-1,160,159,161,-1,160,161,162,-1,162,161,163,-1,162,163,164,-1,164,163,165,-1,164,165,166,-1,166,165,167,-1,166,167,168,-1,168,167,169,-1,168,169,170,-1,170,169,171,-1,170,171,172,-1,172,171,173,-1,172,173,174,-1,174,173,140,-1,174,140,142,-1,148,150,175,-1,175,150,176,-1,148,175,177,-1,148,177,146,-1,146,177,178,-1,146,178,144,-1,144,178,179,-1,144,179,142,-1,142,179,180,-1,142,180,174,-1,174,180,181,-1,174,181,172,-1,172,181,182,-1,172,182,170,-1,170,182,183,-1,170,183,168,-1,168,183,184,-1,168,184,166,-1,166,184,185,-1,166,185,164,-1,164,185,186,-1,164,186,162,-1,162,186,187,-1,162,187,160,-1,160,187,188,-1,160,188,158,-1,158,188,189,-1,158,189,156,-1,156,189,190,-1,156,190,154,-1,152,154,191,-1,191,154,190,-1,150,152,176,-1,176,152,191,-1,155,153,192,-1,192,153,193,-1,153,151,193,-1,193,151,194,-1,151,149,194,-1,194,149,195,-1,141,196,197,-1,141,197,143,-1,143,197,198,-1,143,198,145,-1,145,198,199,-1,145,199,147,-1,147,199,195,-1,147,195,149,-1,169,200,201,-1,169,201,171,-1,171,201,202,-1,171,202,173,-1,173,202,203,-1,173,203,140,-1,140,203,196,-1,140,196,141,-1,161,204,205,-1,161,205,163,-1,163,205,206,-1,163,206,165,-1,165,206,207,-1,165,207,167,-1,167,207,200,-1,167,200,169,-1,155,192,208,-1,155,208,157,-1,157,208,209,-1,157,209,159,-1,159,209,204,-1,159,204,161,-1,
        ]
    }
}
Shape{
    appearance Appearance {
        material  Material {
            diffuseColor 1.0 1.0 1.0
            specularColor 0.5019607843137255 0.5019607843137255 0.5019607843137255
            ambientIntensity 1.0
            transparency 0.0
            shininess 0.5
        }
    }
    geometry IndexedFaceSet {
        ccw TRUE
        solid FALSE
        coord DEF co Coordinate {
            point [
                1.4744 -0.9333 0.6931, 1.4744 -0.9333 0.5902, 1.4744 -0.9131 0.6931, 1.4744 -0.9139 0.5902, 1.4744 -0.8969 0.592, 1.4744 -0.8855 0.5961, 1.4744 -0.8767 0.6019, 1.4744 -0.8742 0.6041, 1.4744 -0.8676 0.6124, 1.4744 -0.863 0.6223, 1.4744 -0.8604 0.6345, 1.4744 -0.86 0.643, 1.4744 -0.8616 0.6583, 1.4744 -0.8652 0.6684, 1.4744 -0.8702 0.6761, 1.4744 -0.8746 0.6805, 1.4744 -0.8959 0.6912, 1.4744 -0.8844 0.687
            ]
        }
        coordIndex [
            0,1,2,-1,2,1,3,-1,2,3,4,-1,4,5,2,-1,2,5,6,-1,2,6,7,-1,7,8,2,-1,2,8,9,-1,2,9,10,-1,10,11,2,-1,2,11,12,-1,2,12,13,-1,13,14,2,-1,2,14,15,-1,2,15,16,-1,16,15,17,-1,
        ]
    }
}
Shape{
    appearance Appearance {
        material  Material {
            diffuseColor 0.0 0.0 0.0
            specularColor 0.0 0.0 0.0
            ambientIntensity 0.0
            transparency 0.0
            shininess 0.5
        }
    }
    geometry IndexedFaceSet {
        ccw TRUE
        solid FALSE
        coord DEF co Coordinate {
            point [
                1.4783 -0.7971 0.6266, 1.4783 -0.8026 0.6115, 1.4783 -0.7523 0.6266, 1.4783 -0.747 0.6115, 1.4783 -0.7772 0.682, 1.4783 -0.7836 0.7084, 1.4783 -0.8344 0.575, 1.4783 -0.8154 0.575, 1.4783 -0.776 0.686, 1.4783 -0.775 0.6914, 1.4783 -0.7652 0.7084, 1.4783 -0.7746 0.6914, 1.4783 -0.7735 0.6857, 1.4783 -0.7725 0.682, 1.4783 -0.7144 0.575, 1.4783 -0.7334 0.575, 1.4744 -0.7652 0.7084, 1.4744 -0.7144 0.575, 1.4744 -0.7836 0.7084, 1.4744 -0.8344 0.575, 1.4744 -0.796 0.676, 1.4744 -0.8154 0.575, 1.4744 -0.8026 0.6115, 1.4744 -0.747 0.6115, 1.4744 -0.796 0.6115, 1.4744 -0.7334 0.575, 1.4744 -0.7971 0.6266, 1.4744 -0.7523 0.6266, 1.4744 -0.7725 0.682, 1.4744 -0.7746 0.6914, 1.4744 -0.7735 0.6857, 1.4744 -0.775 0.6914, 1.4744 -0.7772 0.682, 1.4744 -0.776 0.686
            ]
        }
        coordIndex [
            0,1,2,-1,2,1,3,-1,4,5,0,-1,0,5,6,-1,0,6,1,-1,1,6,7,-1,4,8,5,-1,5,8,9,-1,5,9,10,-1,10,9,11,-1,10,11,12,-1,12,13,10,-1,10,13,2,-1,10,2,14,-1,14,2,3,-1,14,3,15,-1,10,14,16,-1,16,14,17,-1,5,10,18,-1,18,10,16,-1,19,6,20,-1,20,6,5,-1,20,5,18,-1,7,6,21,-1,21,6,19,-1,1,7,22,-1,22,7,21,-1,23,3,24,-1,24,3,1,-1,24,1,22,-1,15,3,25,-1,25,3,23,-1,14,15,17,-1,17,15,25,-1,0,2,26,-1,26,2,27,-1,2,13,27,-1,27,13,28,-1,11,29,30,-1,11,30,12,-1,12,30,28,-1,12,28,13,-1,11,9,29,-1,29,9,31,-1,4,32,33,-1,4,33,8,-1,8,33,31,-1,8,31,9,-1,4,0,32,-1,32,0,26,-1,
        ]
    }
}
Shape{
    appearance Appearance {
        material  Material {
            diffuseColor 1.0 1.0 1.0
            specularColor 0.5019607843137255 0.5019607843137255 0.5019607843137255
            ambientIntensity 1.0
            transparency 0.0
            shininess 0.5
        }
    }
    geometry IndexedFaceSet {
        ccw TRUE
        solid FALSE
        coord DEF co Coordinate {
            point [
                1.4744 -0.7746 0.6914, 1.4744 -0.775 0.6914, 1.4744 -0.7735 0.6857, 1.4744 -0.776 0.686, 1.4744 -0.7725 0.682, 1.4744 -0.7772 0.682, 1.4744 -0.7523 0.6266, 1.4744 -0.7971 0.6266
            ]
        }
        coordIndex [
            0,1,2,-1,2,1,3,-1,2,3,4,-1,4,3,5,-1,4,5,6,-1,6,5,7,-1,
        ]
    }
}
Shape{
    appearance Appearance {
        material  Material {
            diffuseColor 0.0 0.0 0.0
            specularColor 0.0 0.0 0.0
            ambientIntensity 0.0
            transparency 0.0
            shininess 0.5
        }
    }
    geometry IndexedFaceSet {
        ccw TRUE
        solid FALSE
        coord DEF co Coordinate {
            point [
                1.4783 -1.1782 0.3785, 1.4783 -1.1782 0.3633, 1.4744 -1.1782 0.3785, 1.4744 -1.1782 0.3633, 1.4783 -1.2327 0.3785, 1.4744 -1.2327 0.3785, 1.4783 -1.2327 0.4234, 1.4744 -1.2327 0.4234, 1.4783 -1.185 0.4234, 1.4744 -1.185 0.4234, 1.4783 -1.185 0.4387, 1.4744 -1.185 0.4387, 1.4783 -1.2327 0.4387, 1.4744 -1.2327 0.4387, 1.4783 -1.2327 0.4814, 1.4744 -1.2327 0.4814, 1.4783 -1.1812 0.4814, 1.4744 -1.1812 0.4814, 1.4783 -1.1812 0.4967, 1.4744 -1.1812 0.4967, 1.4783 -1.2499 0.4967, 1.4744 -1.2499 0.4967, 1.4783 -1.2499 0.3633, 1.4744 -1.2499 0.3633, 1.4783 -1.0856 0.4246, 1.4783 -1.1023 0.4111, 1.4783 -1.1023 0.402, 1.4783 -1.1027 0.378, 1.4783 -1.1023 0.378, 1.4783 -1.1033 0.3938, 1.4783 -1.1432 0.4168, 1.4783 -1.1503 0.4131, 1.4783 -1.1408 0.4023, 1.4783 -1.1023 0.3633, 1.4783 -1.0856 0.3633, 1.4783 -1.1418 0.3805, 1.4783 -1.154 0.3685, 1.4783 -1.1404 0.3791, 1.4783 -1.1487 0.3648, 1.4783 -1.137 0.3768, 1.4783 -1.1423 0.3623, 1.4783 -1.1333 0.3754, 1.4783 -1.1344 0.3611, 1.4783 -1.1319 0.361, 1.4783 -1.1276 0.3748, 1.4783 -1.1239 0.3619, 1.4783 -1.1209 0.3756, 1.4783 -1.117 0.3642, 1.4783 -1.1159 0.3775, 1.4783 -1.1109 0.3682, 1.4783 -1.1112 0.3808, 1.4783 -1.1056 0.3738, 1.4783 -1.1095 0.3825, 1.4783 -1.1056 0.3878, 1.4783 -1.1428 0.3998, 1.4783 -1.1554 0.4087, 1.4783 -1.1442 0.3967, 1.4783 -1.1588 0.4039, 1.4783 -1.1451 0.3928, 1.4783 -1.1385 0.404, 1.4783 -1.1345 0.4059, 1.4783 -1.1305 0.4199, 1.4783 -1.1246 0.4081, 1.4783 -1.1023 0.4239, 1.4783 -1.1529 0.4519, 1.4783 -1.1529 0.4357, 1.4783 -1.1495 0.4539, 1.4783 -1.1413 0.443, 1.4783 -1.1371 0.4587, 1.4783 -1.1308 0.4463, 1.4783 -1.12 0.4608, 1.4783 -1.1216 0.4472, 1.4783 -1.1101 0.4599, 1.4783 -1.1158 0.4466, 1.4783 -1.1031 0.4578, 1.4783 -1.112 0.4452, 1.4783 -1.0975 0.4546, 1.4783 -1.109 0.4433, 1.4783 -1.093 0.4504, 1.4783 -1.1065 0.4406, 1.4783 -1.0896 0.445, 1.4783 -1.1046 0.4371, 1.4783 -1.0869 0.4375, 1.4783 -1.1029 0.4311, 1.4783 -1.1611 0.398, 1.4783 -1.1621 0.3908, 1.4783 -1.1452 0.3902, 1.4783 -1.1622 0.3888, 1.4783 -1.1448 0.3863, 1.4783 -1.1613 0.3812, 1.4783 -1.1437 0.3833, 1.4783 -1.1593 0.3756, 1.4783 -1.1558 0.3704, 1.4744 -1.12 0.4608, 1.4744 -1.1371 0.4587, 1.4744 -1.1495 0.4539, 1.4744 -1.1529 0.4519, 1.4744 -1.1529 0.4357, 1.4744 -1.1413 0.443, 1.4744 -1.1308 0.4463, 1.4744 -1.1216 0.4472, 1.4744 -1.1158 0.4466, 1.4744 -1.112 0.4452, 1.4744 -1.109 0.4433, 1.4744 -1.1065 0.4406, 1.4744 -1.1046 0.4371, 1.4744 -1.1029 0.4311, 1.4744 -1.1023 0.4239, 1.4744 -1.1305 0.4199, 1.4744 -1.1432 0.4168, 1.4744 -1.1503 0.4131, 1.4744 -1.1554 0.4087, 1.4744 -1.1588 0.4039, 1.4744 -1.1611 0.398, 1.4744 -1.1621 0.3908, 1.4744 -1.1622 0.3888, 1.4744 -1.1613 0.3812, 1.4744 -1.1593 0.3756, 1.4744 -1.1558 0.3704, 1.4744 -1.154 0.3685, 1.4744 -1.1319 0.361, 1.4744 -1.1487 0.3648, 1.4744 -1.1423 0.3623, 1.4744 -1.1414 0.3622, 1.4744 -1.1344 0.3611, 1.4744 -1.1239 0.3619, 1.4744 -1.123 0.3622, 1.4744 -1.117 0.3642, 1.4744 -1.1109 0.3682, 1.4744 -1.1056 0.3738, 1.4744 -1.1027 0.378, 1.4744 -1.1023 0.378, 1.4744 -1.1023 0.3633, 1.4744 -1.0856 0.3633, 1.4744 -1.0856 0.4246, 1.4744 -1.0869 0.4375, 1.4744 -1.0896 0.445, 1.4744 -1.093 0.4504, 1.4744 -1.0975 0.4546, 1.4744 -1.1031 0.4578, 1.4744 -1.1101 0.4599, 1.4744 -1.1408 0.4023, 1.4744 -1.1385 0.404, 1.4744 -1.1345 0.4059, 1.4744 -1.1246 0.4081, 1.4744 -1.1452 0.3902, 1.4744 -1.1451 0.3928, 1.4744 -1.1442 0.3967, 1.4744 -1.1428 0.3998, 1.4744 -1.1404 0.3791, 1.4744 -1.1418 0.3805, 1.4744 -1.1437 0.3833, 1.4744 -1.1448 0.3863, 1.4744 -1.1276 0.3748, 1.4744 -1.1333 0.3754, 1.4744 -1.137 0.3768, 1.4744 -1.1095 0.3825, 1.4744 -1.1112 0.3808, 1.4744 -1.1159 0.3775, 1.4744 -1.1209 0.3756, 1.4744 -1.1023 0.402, 1.4744 -1.1033 0.3938, 1.4744 -1.1056 0.3878, 1.4744 -1.1023 0.4111
            ]
        }
        coordIndex [
            0,1,2,-1,2,1,3,-1,4,0,5,-1,5,0,2,-1,6,4,7,-1,7,4,5,-1,8,6,9,-1,9,6,7,-1,10,8,11,-1,11,8,9,-1,12,10,13,-1,13,10,11,-1,14,12,15,-1,15,12,13,-1,16,14,17,-1,17,14,15,-1,18,16,19,-1,19,16,17,-1,20,18,21,-1,21,18,19,-1,22,20,23,-1,23,20,21,-1,1,22,3,-1,3,22,23,-1,22,1,0,-1,0,4,22,-1,22,4,6,-1,22,6,20,-1,16,18,14,-1,14,18,20,-1,14,20,12,-1,12,20,6,-1,12,6,10,-1,10,6,8,-1,24,25,26,-1,27,28,29,-1,30,31,32,-1,33,34,28,-1,28,34,24,-1,28,24,29,-1,29,24,26,-1,35,36,37,-1,37,36,38,-1,37,38,39,-1,39,38,40,-1,39,40,41,-1,40,42,41,-1,41,42,43,-1,41,43,44,-1,44,43,45,-1,44,45,46,-1,46,45,47,-1,46,47,48,-1,48,47,49,-1,48,49,50,-1,50,49,51,-1,50,51,52,-1,52,51,27,-1,52,27,53,-1,53,27,29,-1,32,31,54,-1,54,31,55,-1,54,55,56,-1,56,55,57,-1,56,57,58,-1,32,59,30,-1,30,59,60,-1,30,60,61,-1,61,60,62,-1,61,62,63,-1,64,65,66,-1,66,65,67,-1,66,67,68,-1,68,67,69,-1,68,69,70,-1,70,69,71,-1,70,71,72,-1,72,71,73,-1,72,73,74,-1,74,73,75,-1,74,75,76,-1,76,75,77,-1,76,77,78,-1,78,77,79,-1,78,79,80,-1,80,79,81,-1,80,81,82,-1,82,81,83,-1,82,83,24,-1,24,83,63,-1,24,63,25,-1,25,63,62,-1,57,84,58,-1,58,84,85,-1,58,85,86,-1,86,85,87,-1,86,87,88,-1,88,87,89,-1,88,89,90,-1,90,89,91,-1,90,91,35,-1,35,91,92,-1,35,92,36,-1,70,93,94,-1,70,94,68,-1,68,94,95,-1,68,95,66,-1,66,95,96,-1,66,96,64,-1,65,64,97,-1,97,64,96,-1,65,97,98,-1,65,98,67,-1,67,98,99,-1,67,99,69,-1,69,99,100,-1,69,100,71,-1,71,100,101,-1,71,101,73,-1,73,101,102,-1,73,102,75,-1,75,102,103,-1,75,103,77,-1,77,103,104,-1,77,104,79,-1,79,104,105,-1,79,105,81,-1,81,105,106,-1,81,106,83,-1,83,106,107,-1,83,107,63,-1,61,63,108,-1,108,63,107,-1,61,108,109,-1,61,109,30,-1,30,109,110,-1,30,110,31,-1,31,110,111,-1,31,111,55,-1,55,111,112,-1,55,112,57,-1,57,112,113,-1,57,113,84,-1,84,113,114,-1,84,114,85,-1,85,114,115,-1,85,115,87,-1,87,115,116,-1,87,116,89,-1,89,116,117,-1,89,117,91,-1,91,117,118,-1,91,118,92,-1,92,118,119,-1,92,119,36,-1,120,43,42,-1,36,119,121,-1,36,121,38,-1,38,121,122,-1,38,122,40,-1,40,122,123,-1,40,123,42,-1,42,123,124,-1,42,124,120,-1,43,120,125,-1,43,125,45,-1,45,125,126,-1,45,126,47,-1,126,127,47,-1,47,127,128,-1,47,128,49,-1,49,128,129,-1,49,129,51,-1,51,129,130,-1,51,130,27,-1,28,27,131,-1,131,27,130,-1,33,28,132,-1,132,28,131,-1,34,33,133,-1,133,33,132,-1,24,34,134,-1,134,34,133,-1,24,134,135,-1,24,135,82,-1,82,135,136,-1,82,136,80,-1,80,136,137,-1,80,137,78,-1,78,137,138,-1,78,138,76,-1,76,138,139,-1,76,139,74,-1,74,139,140,-1,74,140,72,-1,72,140,93,-1,72,93,70,-1,32,141,142,-1,32,142,59,-1,59,142,143,-1,59,143,60,-1,60,143,144,-1,60,144,62,-1,86,145,146,-1,86,146,58,-1,58,146,147,-1,58,147,56,-1,56,147,148,-1,56,148,54,-1,54,148,141,-1,54,141,32,-1,37,149,150,-1,37,150,35,-1,35,150,151,-1,35,151,90,-1,90,151,152,-1,90,152,88,-1,88,152,145,-1,88,145,86,-1,44,153,154,-1,44,154,41,-1,41,154,155,-1,41,155,39,-1,39,155,149,-1,39,149,37,-1,52,156,157,-1,52,157,50,-1,50,157,158,-1,50,158,48,-1,48,158,159,-1,48,159,46,-1,46,159,153,-1,46,153,44,-1,26,160,161,-1,26,161,29,-1,29,161,162,-1,29,162,53,-1,53,162,156,-1,53,156,52,-1,26,25,160,-1,160,25,163,-1,25,62,163,-1,163,62,144,-1,
        ]
    }
}
Shape{
    appearance Appearance {
        material  Material {
            diffuseColor 1.0 1.0 1.0
            specularColor 0.5019607843137255 0.5019607843137255 0.5019607843137255
            ambientIntensity 1.0
            transparency 0.0
            shininess 0.5
        }
    }
    geometry IndexedFaceSet {
        ccw TRUE
        solid FALSE
        coord DEF co Coordinate {
            point [
                1.4744 -1.1112 0.3808, 1.4744 -1.1095 0.3825, 1.4744 -1.1246 0.4081, 1.4744 -1.1056 0.3878, 1.4744 -1.1209 0.3756, 1.4744 -1.1345 0.4059, 1.4744 -1.1385 0.404, 1.4744 -1.1159 0.3775, 1.4744 -1.1033 0.3938, 1.4744 -1.1023 0.402, 1.4744 -1.1023 0.4111, 1.4744 -1.1442 0.3967, 1.4744 -1.1451 0.3928, 1.4744 -1.1452 0.3902, 1.4744 -1.1448 0.3863, 1.4744 -1.137 0.3768, 1.4744 -1.1333 0.3754, 1.4744 -1.1404 0.3791, 1.4744 -1.1276 0.3748, 1.4744 -1.1408 0.4023, 1.4744 -1.1428 0.3998, 1.4744 -1.1437 0.3833, 1.4744 -1.1418 0.3805
            ]
        }
        coordIndex [
            0,1,2,-1,2,1,3,-1,4,5,6,-1,5,4,2,-1,2,4,7,-1,2,7,0,-1,3,8,2,-1,2,8,9,-1,2,9,10,-1,11,12,4,-1,4,12,13,-1,4,13,14,-1,15,16,17,-1,17,16,18,-1,17,18,4,-1,6,19,4,-1,4,19,20,-1,4,20,11,-1,14,21,4,-1,4,21,22,-1,4,22,17,-1,
        ]
    }
}
Shape{
    appearance Appearance {
        material  Material {
            diffuseColor 0.0 0.0 0.0
            specularColor 0.0 0.0 0.0
            ambientIntensity 0.0
            transparency 0.0
            shininess 0.5
        }
    }
    geometry IndexedFaceSet {
        ccw TRUE
        solid FALSE
        coord DEF co Coordinate {
            point [
                1.4744 -1.0629 0.3839, 1.4783 -1.0629 0.3839, 1.4783 -1.0569 0.3801, 1.4783 -1.0354 0.3747, 1.4744 -1.0354 0.3747, 1.4744 -1.0465 0.376, 1.4783 -1.0465 0.376, 1.4744 -1.0552 0.3795, 1.4744 -1.0569 0.3801, 1.4783 -1.0629 0.3666, 1.4744 -1.0629 0.3666, 1.4783 -1.0512 0.3625, 1.4744 -1.0552 0.3639, 1.4744 -1.0371 0.361, 1.4783 -1.0371 0.361, 1.4744 -1.0479 0.3622, 1.4744 -1.0512 0.3625, 1.4783 -1.0218 0.3629, 1.4744 -1.0277 0.3622, 1.4744 -1.0218 0.3629, 1.4744 -1.0131 0.3663, 1.4783 -1.0131 0.3663, 1.4744 -1.0093 0.3686, 1.4783 -1.0093 0.3686, 1.4744 -1.0042 0.3731, 1.4783 -1.0042 0.3731, 1.4744 -1.0012 0.3776, 1.4783 -1.0012 0.3776, 1.4744 -0.9993 0.3829, 1.4783 -0.9993 0.3829, 1.4744 -0.9986 0.3892, 1.4783 -0.9986 0.3892, 1.4744 -0.9994 0.3959, 1.4783 -0.9994 0.3959, 1.4744 -1.0013 0.4008, 1.4783 -1.0013 0.4008, 1.4744 -1.0042 0.405, 1.4783 -1.0042 0.405, 1.4744 -1.0081 0.4085, 1.4783 -1.0081 0.4085, 1.4744 -1.0192 0.4147, 1.4783 -1.0192 0.4147, 1.4744 -1.0257 0.4173, 1.4783 -1.0257 0.4173, 1.4744 -1.0361 0.4218, 1.4783 -1.0361 0.4218, 1.4744 -1.042 0.4255, 1.4783 -1.042 0.4255, 1.4744 -1.0436 0.4273, 1.4783 -1.0436 0.4273, 1.4744 -1.0448 0.4296, 1.4783 -1.0448 0.4296, 1.4744 -1.0455 0.4322, 1.4783 -1.0455 0.4322, 1.4744 -1.0456 0.4344, 1.4783 -1.0456 0.4344, 1.4744 -1.0453 0.4371, 1.4783 -1.0453 0.4371, 1.4744 -1.0445 0.4393, 1.4783 -1.0445 0.4393, 1.4744 -1.043 0.4414, 1.4783 -1.043 0.4414, 1.4744 -1.0405 0.4437, 1.4783 -1.0405 0.4437, 1.4744 -1.0368 0.4457, 1.4783 -1.0368 0.4457, 1.4744 -1.0323 0.4468, 1.4783 -1.0323 0.4468, 1.4744 -1.0274 0.4472, 1.4783 -1.0274 0.4472, 1.4744 -1.0157 0.4458, 1.4783 -1.0157 0.4458, 1.4744 -1.0062 0.4421, 1.4783 -1.0062 0.4421, 1.4744 -1.0031 0.4403, 1.4783 -1.0031 0.4403, 1.4783 -1.0031 0.4566, 1.4744 -1.0031 0.4566, 1.4744 -1.014 0.4597, 1.4783 -1.014 0.4597, 1.4744 -1.0257 0.4608, 1.4783 -1.0257 0.4608, 1.4744 -1.0392 0.4592, 1.4783 -1.0392 0.4592, 1.4744 -1.0481 0.4557, 1.4783 -1.0481 0.4557, 1.4744 -1.0521 0.4532, 1.4783 -1.0521 0.4532, 1.4783 -1.0573 0.4485, 1.4744 -1.0552 0.4504, 1.4744 -1.0573 0.4485, 1.4744 -1.0603 0.4439, 1.4783 -1.0603 0.4439, 1.4744 -1.0622 0.4385, 1.4783 -1.0622 0.4385, 1.4744 -1.0628 0.4329, 1.4783 -1.0628 0.4329, 1.4744 -1.062 0.426, 1.4783 -1.062 0.426, 1.4744 -1.0601 0.4209, 1.4783 -1.0601 0.4209, 1.4744 -1.0581 0.4178, 1.4783 -1.0581 0.4178, 1.4744 -1.0375 0.4052, 1.4783 -1.0375 0.4052, 1.4783 -1.0475 0.4098, 1.4744 -1.0554 0.4149, 1.4783 -1.0554 0.4149, 1.4744 -1.0552 0.4148, 1.4744 -1.0475 0.4098, 1.4744 -1.0265 0.4006, 1.4783 -1.0265 0.4006, 1.4744 -1.02 0.3967, 1.4783 -1.02 0.3967, 1.4744 -1.0179 0.3945, 1.4783 -1.0179 0.3945, 1.4744 -1.0166 0.3923, 1.4783 -1.0166 0.3923, 1.4744 -1.0159 0.3897, 1.4783 -1.0159 0.3897, 1.4744 -1.0157 0.3876, 1.4783 -1.0157 0.3876, 1.4744 -1.0161 0.3844, 1.4783 -1.0161 0.3844, 1.4744 -1.0169 0.382, 1.4783 -1.0169 0.382, 1.4744 -1.0184 0.3799, 1.4783 -1.0184 0.3799, 1.4744 -1.0203 0.3782, 1.4783 -1.0203 0.3782, 1.4744 -1.0218 0.3772, 1.4783 -1.0218 0.3772, 1.4744 -1.0261 0.3757, 1.4783 -1.0261 0.3757, 1.4744 -1.0347 0.3747, 1.4783 -1.0347 0.3747, 1.4783 -0.9157 0.4586, 1.4783 -0.8984 0.4586, 1.4744 -0.9157 0.4586, 1.4744 -0.8984 0.4586, 1.4783 -0.9417 0.3868, 1.4744 -0.9417 0.3868, 1.4744 -0.943 0.3824, 1.4783 -0.943 0.3824, 1.4744 -0.9438 0.3791, 1.4783 -0.9438 0.3791, 1.4783 -0.9442 0.3791, 1.4744 -0.9442 0.3791, 1.4783 -0.9463 0.387, 1.4744 -0.9463 0.387, 1.4744 -0.9712 0.4586, 1.4783 -0.9712 0.4586, 1.4744 -0.9631 0.4354, 1.4783 -0.9899 0.4586, 1.4744 -0.9899 0.4586, 1.4744 -0.9525 0.3635, 1.4783 -0.9525 0.3635, 1.4744 -0.9631 0.3905, 1.4744 -0.9598 0.3462, 1.4783 -0.9598 0.3462, 1.4744 -0.953 0.3622, 1.4744 -0.9631 0.3403, 1.4783 -0.9634 0.3397, 1.4744 -0.9634 0.3397, 1.4744 -0.9665 0.3364, 1.4783 -0.9665 0.3364, 1.4744 -0.9681 0.3352, 1.4783 -0.9681 0.3352, 1.4744 -0.9716 0.3335, 1.4783 -0.9716 0.3335, 1.4744 -0.9754 0.3328, 1.4783 -0.9754 0.3328, 1.4744 -0.9769 0.3327, 1.4783 -0.9769 0.3327, 1.4744 -0.983 0.3335, 1.4783 -0.983 0.3335, 1.4744 -0.9864 0.3346, 1.4783 -0.9864 0.3346, 1.4783 -0.9864 0.3198, 1.4744 -0.9864 0.3198, 1.4744 -0.9795 0.3185, 1.4783 -0.9795 0.3185, 1.4744 -0.9756 0.3184, 1.4783 -0.9756 0.3184, 1.4744 -0.9687 0.3192, 1.4783 -0.9687 0.3192, 1.4744 -0.9631 0.3214, 1.4783 -0.9622 0.3218, 1.4744 -0.9622 0.3218, 1.4744 -0.9563 0.3259, 1.4783 -0.9563 0.3259, 1.4744 -0.9557 0.3264, 1.4783 -0.9557 0.3264, 1.4744 -0.9496 0.3336, 1.4783 -0.9496 0.3336, 1.4744 -0.9416 0.3489, 1.4783 -0.9416 0.3489, 1.4744 -0.9364 0.3622, 1.4783 -0.8086 0.3785, 1.4783 -0.8086 0.3633, 1.4744 -0.8086 0.3785, 1.4744 -0.8086 0.3633, 1.4744 -0.8631 0.3785, 1.4783 -0.8631 0.3785, 1.4744 -0.8382 0.3785, 1.4783 -0.8631 0.4234, 1.4744 -0.8631 0.4234, 1.4744 -0.8154 0.4234, 1.4783 -0.8154 0.4234, 1.4744 -0.8382 0.4234, 1.4783 -0.8154 0.4387, 1.4744 -0.8154 0.4387, 1.4744 -0.8631 0.4387, 1.4783 -0.8631 0.4387, 1.4744 -0.8382 0.4387, 1.4783 -0.8631 0.4814, 1.4744 -0.8631 0.4814, 1.4744 -0.8116 0.4814, 1.4783 -0.8116 0.4814, 1.4744 -0.8382 0.4814, 1.4783 -0.8116 0.4967, 1.4744 -0.8116 0.4967, 1.4744 -0.8804 0.4967, 1.4783 -0.8804 0.4967, 1.4744 -0.8382 0.4967, 1.4783 -0.8804 0.3633, 1.4744 -0.8804 0.3633, 1.4744 -0.8382 0.3633, 1.4783 -0.7005 0.4007, 1.4783 -0.7071 0.3924, 1.4783 -0.6949 0.382, 1.4783 -0.7096 0.3902, 1.4783 -0.7086 0.3721, 1.4783 -0.7184 0.3844, 1.4783 -0.7238 0.3661, 1.4783 -0.7298 0.3803, 1.4783 -0.7467 0.3633, 1.4783 -0.7468 0.3785, 1.4783 -0.7834 0.3633, 1.4783 -0.7662 0.3785, 1.4783 -0.7834 0.4967, 1.4783 -0.7662 0.4814, 1.4783 -0.7453 0.4967, 1.4783 -0.746 0.4814, 1.4783 -0.7249 0.4945, 1.4783 -0.7288 0.4795, 1.4783 -0.7088 0.4886, 1.4783 -0.7172 0.4753, 1.4783 -0.6949 0.4791, 1.4783 -0.7075 0.4688, 1.4783 -0.6903 0.4746, 1.4783 -0.7031 0.4644, 1.4783 -0.682 0.463, 1.4783 -0.6981 0.4567, 1.4783 -0.677 0.4503, 1.4783 -0.6945 0.4466, 1.4783 -0.6747 0.4317, 1.4783 -0.6928 0.4312, 1.4783 -0.6751 0.4233, 1.4783 -0.6933 0.4228, 1.4783 -0.6784 0.4076, 1.4783 -0.6959 0.4106, 1.4783 -0.6849 0.3938, 1.4744 -0.7467 0.3633, 1.4744 -0.7834 0.3633, 1.4744 -0.7238 0.3661, 1.4744 -0.7086 0.3721, 1.4744 -0.6949 0.382, 1.4744 -0.6849 0.3938, 1.4744 -0.6784 0.4076, 1.4744 -0.6751 0.4233, 1.4744 -0.6747 0.4317, 1.4744 -0.677 0.4503, 1.4744 -0.682 0.463, 1.4744 -0.6903 0.4746, 1.4744 -0.6949 0.4791, 1.4744 -0.7088 0.4886, 1.4744 -0.7249 0.4945, 1.4744 -0.7453 0.4967, 1.4744 -0.7834 0.4967, 1.4744 -0.746 0.4814, 1.4744 -0.7662 0.4814, 1.4744 -0.7662 0.3785, 1.4744 -0.7468 0.3785, 1.4744 -0.7071 0.3924, 1.4744 -0.7096 0.3902, 1.4744 -0.7184 0.3844, 1.4744 -0.7298 0.3803, 1.4744 -0.6928 0.4312, 1.4744 -0.6933 0.4228, 1.4744 -0.6959 0.4106, 1.4744 -0.7005 0.4007, 1.4744 -0.7075 0.4688, 1.4744 -0.7031 0.4644, 1.4744 -0.6981 0.4567, 1.4744 -0.6945 0.4466, 1.4744 -0.7288 0.4795, 1.4744 -0.7172 0.4753
            ]
        }
        coordIndex [
            0,1,2,-1,3,4,5,-1,3,5,6,-1,6,5,7,-1,6,7,2,-1,2,7,8,-1,2,8,0,-1,9,1,10,-1,10,1,0,-1,9,10,11,-1,11,10,12,-1,13,14,15,-1,15,14,11,-1,15,11,16,-1,16,11,12,-1,14,13,17,-1,17,13,18,-1,18,19,17,-1,17,19,20,-1,17,20,21,-1,21,20,22,-1,21,22,23,-1,23,22,24,-1,23,24,25,-1,25,24,26,-1,25,26,27,-1,27,26,28,-1,27,28,29,-1,29,28,30,-1,29,30,31,-1,31,30,32,-1,31,32,33,-1,33,32,34,-1,33,34,35,-1,35,34,36,-1,35,36,37,-1,37,36,38,-1,37,38,39,-1,39,38,40,-1,39,40,41,-1,41,40,42,-1,41,42,43,-1,43,42,44,-1,43,44,45,-1,45,44,46,-1,45,46,47,-1,47,46,48,-1,47,48,49,-1,49,48,50,-1,49,50,51,-1,51,50,52,-1,51,52,53,-1,53,52,54,-1,53,54,55,-1,55,54,56,-1,55,56,57,-1,57,56,58,-1,57,58,59,-1,59,58,60,-1,59,60,61,-1,61,60,62,-1,61,62,63,-1,63,62,64,-1,63,64,65,-1,65,64,66,-1,65,66,67,-1,67,66,68,-1,67,68,69,-1,69,68,70,-1,69,70,71,-1,71,70,72,-1,71,72,73,-1,73,72,74,-1,73,74,75,-1,76,75,77,-1,77,75,74,-1,76,77,78,-1,76,78,79,-1,79,78,80,-1,79,80,81,-1,81,80,82,-1,81,82,83,-1,83,82,84,-1,83,84,85,-1,85,84,86,-1,85,86,87,-1,87,86,88,-1,88,86,89,-1,89,90,88,-1,88,90,91,-1,88,91,92,-1,92,91,93,-1,92,93,94,-1,94,93,95,-1,94,95,96,-1,96,95,97,-1,96,97,98,-1,98,97,99,-1,98,99,100,-1,100,99,101,-1,100,101,102,-1,103,104,105,-1,102,101,106,-1,102,106,107,-1,107,106,108,-1,107,108,105,-1,105,108,109,-1,105,109,103,-1,104,103,110,-1,104,110,111,-1,111,110,112,-1,111,112,113,-1,113,112,114,-1,113,114,115,-1,115,114,116,-1,115,116,117,-1,117,116,118,-1,117,118,119,-1,119,118,120,-1,119,120,121,-1,121,120,122,-1,121,122,123,-1,123,122,124,-1,123,124,125,-1,125,124,126,-1,125,126,127,-1,127,126,128,-1,127,128,129,-1,129,128,130,-1,129,130,131,-1,131,130,132,-1,131,132,133,-1,133,132,134,-1,133,134,135,-1,135,134,4,-1,135,4,3,-1,59,61,87,-1,87,61,85,-1,85,61,63,-1,85,63,83,-1,125,25,27,-1,111,43,104,-1,104,43,45,-1,125,27,123,-1,123,27,29,-1,123,29,121,-1,121,29,31,-1,121,31,119,-1,119,31,33,-1,119,33,117,-1,117,33,35,-1,117,35,115,-1,115,35,37,-1,115,37,113,-1,113,37,39,-1,113,39,111,-1,111,39,41,-1,111,41,43,-1,25,125,23,-1,23,125,127,-1,23,127,21,-1,14,3,11,-1,11,3,6,-1,11,6,9,-1,9,6,2,-1,9,2,1,-1,63,65,83,-1,83,65,67,-1,83,67,81,-1,81,67,69,-1,81,69,79,-1,79,69,71,-1,79,71,76,-1,76,71,73,-1,76,73,75,-1,127,129,21,-1,21,129,131,-1,21,131,17,-1,17,131,133,-1,17,133,14,-1,14,133,135,-1,14,135,3,-1,87,88,59,-1,59,88,92,-1,59,92,57,-1,57,92,94,-1,57,94,55,-1,55,94,96,-1,55,96,53,-1,53,96,98,-1,53,98,51,-1,51,98,100,-1,51,100,49,-1,49,100,102,-1,49,102,47,-1,47,102,107,-1,47,107,45,-1,45,107,105,-1,45,105,104,-1,136,137,138,-1,138,137,139,-1,140,136,141,-1,141,136,138,-1,140,141,142,-1,140,142,143,-1,143,142,144,-1,143,144,145,-1,146,145,147,-1,147,145,144,-1,148,146,149,-1,149,146,147,-1,150,151,152,-1,152,151,148,-1,152,148,149,-1,153,151,154,-1,154,151,150,-1,155,156,157,-1,157,156,153,-1,157,153,154,-1,158,159,160,-1,160,159,156,-1,160,156,155,-1,158,161,159,-1,159,161,162,-1,161,163,162,-1,162,163,164,-1,162,164,165,-1,165,164,166,-1,165,166,167,-1,167,166,168,-1,167,168,169,-1,169,168,170,-1,169,170,171,-1,171,170,172,-1,171,172,173,-1,173,172,174,-1,173,174,175,-1,175,174,176,-1,175,176,177,-1,178,177,179,-1,179,177,176,-1,178,179,180,-1,178,180,181,-1,181,180,182,-1,181,182,183,-1,183,182,184,-1,183,184,185,-1,185,184,186,-1,185,186,187,-1,186,188,187,-1,187,188,189,-1,187,189,190,-1,190,189,191,-1,190,191,192,-1,192,191,193,-1,192,193,194,-1,194,193,195,-1,194,195,196,-1,139,137,197,-1,197,137,196,-1,197,196,195,-1,143,145,196,-1,175,177,178,-1,137,136,196,-1,196,136,140,-1,196,140,143,-1,151,153,148,-1,148,153,156,-1,148,156,146,-1,145,146,196,-1,196,146,156,-1,196,156,194,-1,175,178,173,-1,173,178,181,-1,173,181,171,-1,171,181,183,-1,171,183,169,-1,169,183,185,-1,169,185,167,-1,167,185,187,-1,167,187,165,-1,156,159,194,-1,194,159,162,-1,194,162,192,-1,192,162,165,-1,192,165,190,-1,190,165,187,-1,198,199,200,-1,200,199,201,-1,202,203,204,-1,204,203,198,-1,204,198,200,-1,205,203,206,-1,206,203,202,-1,207,208,209,-1,209,208,205,-1,209,205,206,-1,210,208,211,-1,211,208,207,-1,212,213,214,-1,214,213,210,-1,214,210,211,-1,215,213,216,-1,216,213,212,-1,217,218,219,-1,219,218,215,-1,219,215,216,-1,220,218,221,-1,221,218,217,-1,222,223,224,-1,224,223,220,-1,224,220,221,-1,225,223,226,-1,226,223,222,-1,201,199,227,-1,227,199,225,-1,227,225,226,-1,218,220,215,-1,215,220,223,-1,215,223,213,-1,199,198,225,-1,225,198,203,-1,225,203,205,-1,208,210,205,-1,205,210,213,-1,205,213,225,-1,225,213,223,-1,228,229,230,-1,230,229,231,-1,230,231,232,-1,232,231,233,-1,232,233,234,-1,234,233,235,-1,234,235,236,-1,236,235,237,-1,236,237,238,-1,238,237,239,-1,238,239,240,-1,240,239,241,-1,240,241,242,-1,242,241,243,-1,242,243,244,-1,244,243,245,-1,244,245,246,-1,246,245,247,-1,246,247,248,-1,248,247,249,-1,248,249,250,-1,250,249,251,-1,250,251,252,-1,252,251,253,-1,252,253,254,-1,254,253,255,-1,254,255,256,-1,256,255,257,-1,256,257,258,-1,258,257,259,-1,258,259,260,-1,260,259,261,-1,260,261,262,-1,262,261,228,-1,262,228,230,-1,236,238,263,-1,263,238,264,-1,236,263,265,-1,236,265,234,-1,234,265,266,-1,234,266,232,-1,232,266,267,-1,232,267,230,-1,230,267,268,-1,230,268,262,-1,262,268,269,-1,262,269,260,-1,260,269,270,-1,260,270,258,-1,258,270,271,-1,258,271,256,-1,256,271,272,-1,256,272,254,-1,254,272,273,-1,254,273,252,-1,252,273,274,-1,252,274,250,-1,250,274,275,-1,250,275,248,-1,248,275,276,-1,248,276,246,-1,246,276,277,-1,246,277,244,-1,244,277,278,-1,244,278,242,-1,240,242,279,-1,279,242,278,-1,238,240,264,-1,264,240,279,-1,243,241,280,-1,280,241,281,-1,241,239,281,-1,281,239,282,-1,239,237,282,-1,282,237,283,-1,229,284,285,-1,229,285,231,-1,231,285,286,-1,231,286,233,-1,233,286,287,-1,233,287,235,-1,235,287,283,-1,235,283,237,-1,257,288,289,-1,257,289,259,-1,259,289,290,-1,259,290,261,-1,261,290,291,-1,261,291,228,-1,228,291,284,-1,228,284,229,-1,249,292,293,-1,249,293,251,-1,251,293,294,-1,251,294,253,-1,253,294,295,-1,253,295,255,-1,255,295,288,-1,255,288,257,-1,243,280,296,-1,243,296,245,-1,245,296,297,-1,245,297,247,-1,247,297,292,-1,247,292,249,-1,
        ]
    }
}
Shape{
    appearance Appearance {
        material  Material {
            diffuseColor 1.0 1.0 1.0
            specularColor 0.5019607843137255 0.5019607843137255 0.5019607843137255
            ambientIntensity 1.0
            transparency 0.0
            shininess 0.5
        }
    }
    geometry IndexedFaceSet {
        ccw TRUE
        solid FALSE
        coord DEF co Coordinate {
            point [
                1.4744 -0.7662 0.4814, 1.4744 -0.7662 0.3785, 1.4744 -0.746 0.4814, 1.4744 -0.7468 0.3785, 1.4744 -0.7298 0.3803, 1.4744 -0.7184 0.3844, 1.4744 -0.7096 0.3902, 1.4744 -0.7071 0.3924, 1.4744 -0.7005 0.4007, 1.4744 -0.6959 0.4106, 1.4744 -0.6933 0.4228, 1.4744 -0.6928 0.4312, 1.4744 -0.6945 0.4466, 1.4744 -0.6981 0.4567, 1.4744 -0.7031 0.4644, 1.4744 -0.7075 0.4688, 1.4744 -0.7288 0.4795, 1.4744 -0.7172 0.4753
            ]
        }
        coordIndex [
            0,1,2,-1,2,1,3,-1,2,3,4,-1,4,5,2,-1,2,5,6,-1,2,6,7,-1,7,8,2,-1,2,8,9,-1,2,9,10,-1,10,11,2,-1,2,11,12,-1,2,12,13,-1,13,14,2,-1,2,14,15,-1,2,15,16,-1,16,15,17,-1,
        ]
    }
}
Shape{
    appearance Appearance {
        material  Material {
            diffuseColor 0.0 0.0 0.0
            specularColor 0.0 0.0 0.0
            ambientIntensity 0.0
            transparency 0.0
            shininess 0.5
        }
    }
    geometry IndexedFaceSet {
        ccw TRUE
        solid FALSE
        coord DEF co Coordinate {
            point [
                1.4783 -0.63 0.4149, 1.4783 -0.6355 0.3998, 1.4783 -0.5852 0.4149, 1.4783 -0.5799 0.3998, 1.4783 -0.6101 0.4703, 1.4783 -0.6165 0.4967, 1.4783 -0.6673 0.3633, 1.4783 -0.6483 0.3633, 1.4783 -0.6089 0.4743, 1.4783 -0.6079 0.4797, 1.4783 -0.5981 0.4967, 1.4783 -0.6075 0.4797, 1.4783 -0.6064 0.474, 1.4783 -0.6054 0.4703, 1.4783 -0.5473 0.3633, 1.4783 -0.5663 0.3633, 1.4744 -0.5981 0.4967, 1.4744 -0.5473 0.3633, 1.4744 -0.6165 0.4967, 1.4744 -0.6673 0.3633, 1.4744 -0.6483 0.3633, 1.4744 -0.6355 0.3998, 1.4744 -0.5799 0.3998, 1.4744 -0.5663 0.3633, 1.4744 -0.63 0.4149, 1.4744 -0.5852 0.4149, 1.4744 -0.6054 0.4703, 1.4744 -0.6075 0.4797, 1.4744 -0.6064 0.474, 1.4744 -0.6079 0.4797, 1.4744 -0.6101 0.4703, 1.4744 -0.6089 0.4743
            ]
        }
        coordIndex [
            0,1,2,-1,2,1,3,-1,4,5,0,-1,0,5,6,-1,0,6,1,-1,1,6,7,-1,4,8,5,-1,5,8,9,-1,5,9,10,-1,10,9,11,-1,10,11,12,-1,12,13,10,-1,10,13,2,-1,10,2,14,-1,14,2,3,-1,14,3,15,-1,10,14,16,-1,16,14,17,-1,5,10,18,-1,18,10,16,-1,6,5,19,-1,19,5,18,-1,7,6,20,-1,20,6,19,-1,1,7,21,-1,21,7,20,-1,3,1,22,-1,22,1,21,-1,15,3,23,-1,23,3,22,-1,14,15,17,-1,17,15,23,-1,0,2,24,-1,24,2,25,-1,2,13,25,-1,25,13,26,-1,11,27,28,-1,11,28,12,-1,12,28,26,-1,12,26,13,-1,11,9,27,-1,27,9,29,-1,4,30,31,-1,4,31,8,-1,8,31,29,-1,8,29,9,-1,4,0,30,-1,30,0,24,-1,
        ]
    }
}
Shape{
    appearance Appearance {
        material  Material {
            diffuseColor 1.0 1.0 1.0
            specularColor 0.5019607843137255 0.5019607843137255 0.5019607843137255
            ambientIntensity 1.0
            transparency 0.0
            shininess 0.5
        }
    }
    geometry IndexedFaceSet {
        ccw TRUE
        solid FALSE
        coord DEF co Coordinate {
            point [
                1.4744 -0.6075 0.4797, 1.4744 -0.6079 0.4797, 1.4744 -0.6064 0.474, 1.4744 -0.6089 0.4743, 1.4744 -0.6054 0.4703, 1.4744 -0.6101 0.4703, 1.4744 -0.5852 0.4149, 1.4744 -0.63 0.4149
            ]
        }
        coordIndex [
            0,1,2,-1,2,1,3,-1,2,3,4,-1,4,3,5,-1,4,5,6,-1,6,5,7,-1,
        ]
    }
}
Shape{
    appearance Appearance {
        material  Material {
            diffuseColor 0.0 0.0 0.0
            specularColor 0.0 0.0 0.0
            ambientIntensity 0.0
            transparency 0.0
            shininess 0.5
        }
    }
    geometry IndexedFaceSet {
        ccw TRUE
        solid FALSE
        coord DEF co Coordinate {
            point [
                1.4783 -1.8393 0.3444, 1.4783 -1.8252 0.327, 1.4783 -1.8479 0.4283, 1.4783 -1.531 0.4748, 1.4783 -1.5604 0.5251, 1.4783 -1.6875 0.4587, 1.4783 -1.7596 0.4311, 1.4783 -1.7532 0.4306, 1.4783 -1.6638 0.4046, 1.4783 -1.7443 0.4278, 1.4783 -1.6638 0.3951, 1.4783 -1.7301 0.4164, 1.4783 -1.7256 0.4088, 1.4783 -1.6643 0.3854, 1.4783 -1.7471 0.4902, 1.4783 -1.7587 0.4909, 1.4783 -1.7756 0.4275, 1.4783 -1.8685 0.441, 1.4783 -1.8666 0.3704, 1.4783 -1.8488 0.3647, 1.4783 -1.7364 0.4229, 1.4783 -1.784 0.3663, 1.4783 -1.7764 0.3612, 1.4783 -1.8067 0.313, 1.4783 -1.7676 0.358, 1.4783 -1.7242 0.4845, 1.4783 -1.7813 0.4881, 1.4783 -1.8022 0.4801, 1.4783 -1.7833 0.4226, 1.4783 -1.8216 0.4667, 1.4783 -1.7896 0.4159, 1.4783 -1.8373 0.4488, 1.4783 -1.7941 0.4077, 1.4783 -1.7964 0.3986, 1.4783 -1.4997 0.5687, 1.4783 -1.4921 0.5687, 1.4783 -1.4532 0.62, 1.4783 -1.4741 0.5665, 1.4783 -1.4463 0.6176, 1.4783 -1.4575 0.5601, 1.4783 -1.4182 0.603, 1.4783 -1.3929 0.5809, 1.4783 -1.7666 0.6001, 1.4783 -1.7596 0.5962, 1.4783 -1.789 0.6655, 1.4783 -1.7469 0.6235, 1.4783 -1.7696 0.6882, 1.4783 -1.7262 0.6494, 1.4783 -1.7473 0.7072, 1.4783 -1.7001 0.6693, 1.4783 -1.7243 0.7215, 1.4783 -1.5404 0.3633, 1.4783 -1.5367 0.3628, 1.4783 -1.5291 0.4207, 1.4783 -1.6805 0.7384, 1.4783 -1.6693 0.6823, 1.4783 -1.6334 0.7443, 1.4783 -1.5044 0.6949, 1.4783 -1.5351 0.6449, 1.4783 -1.4733 0.6591, 1.4783 -1.5154 0.6179, 1.4783 -1.5029 0.5863, 1.4783 -1.8855 0.4585, 1.4783 -1.9247 0.4103, 1.4783 -1.9002 0.3885, 1.4783 -1.902 0.5385, 1.4783 -1.9641 0.5264, 1.4783 -1.9048 0.5156, 1.4783 -1.9646 0.5137, 1.4783 -1.9037 0.5012, 1.4783 -1.9612 0.4819, 1.4783 -1.8969 0.4779, 1.4783 -1.949 0.4463, 1.4783 -1.9292 0.4155, 1.4783 -1.7231 0.4001, 1.4783 -1.7228 0.3909, 1.4783 -1.6698 0.362, 1.4783 -1.7248 0.3818, 1.4783 -1.681 0.3408, 1.4783 -1.729 0.3735, 1.4783 -1.6957 0.3243, 1.4783 -1.735 0.3665, 1.4783 -1.7146 0.3111, 1.4783 -1.7423 0.3615, 1.4783 -1.7358 0.303, 1.4783 -1.7505 0.3583, 1.4783 -1.7587 0.3002, 1.4783 -1.7596 0.3571, 1.4783 -1.7624 0.3003, 1.4783 -1.7848 0.3038, 1.4783 -1.7901 0.3732, 1.4783 -1.7942 0.381, 1.4783 -1.7964 0.3897, 1.4783 -1.7672 0.4303, 1.4783 -1.7041 0.4737, 1.4783 -1.4428 0.5499, 1.4783 -1.4317 0.5375, 1.4783 -1.3741 0.5535, 1.4783 -1.4229 0.5211, 1.4783 -1.363 0.5244, 1.4783 -1.4185 0.5029, 1.4783 -1.3592 0.4957, 1.4783 -1.4181 0.4947, 1.4783 -1.4864 0.4207, 1.4783 -1.4807 0.3628, 1.4783 -1.4695 0.4239, 1.4783 -1.4516 0.3687, 1.4783 -1.4527 0.4317, 1.4783 -1.4224 0.3822, 1.4783 -1.4387 0.4431, 1.4783 -1.3975 0.4023, 1.4783 -1.4373 0.4446, 1.4783 -1.3943 0.4055, 1.4783 -1.4269 0.4594, 1.4783 -1.3768 0.4294, 1.4783 -1.4203 0.4763, 1.4783 -1.3643 0.4591, 1.4783 -1.3593 0.4901, 1.4783 -1.7879 0.6078, 1.4783 -1.8 0.6668, 1.4783 -1.8099 0.6105, 1.4783 -1.8109 0.6674, 1.4783 -1.8196 0.61, 1.4783 -1.8428 0.664, 1.4783 -1.843 0.6045, 1.4783 -1.8783 0.6517, 1.4783 -1.8642 0.5933, 1.4783 -1.9103 0.6308, 1.4783 -1.8807 0.5786, 1.4783 -1.92 0.6219, 1.4783 -1.8939 0.5597, 1.4783 -1.94 0.5971, 1.4783 -1.9563 0.5637, 1.4783 -1.6377 0.6872, 1.4783 -1.6325 0.6873, 1.4783 -1.5943 0.7401, 1.4783 -1.6031 0.684, 1.4783 -1.5467 0.7234, 1.4783 -1.5732 0.6733, 1.4783 -1.5462 0.6554, 1.4783 -1.564 0.3951, 1.4783 -1.5642 0.3922, 1.4783 -1.5338 0.4216, 1.4783 -1.5634 0.3857, 1.4783 -1.561 0.3792, 1.4783 -1.557 0.3732, 1.4783 -1.5532 0.3695, 1.4783 -1.531 0.421, 1.4783 -1.5468 0.3654, 1.4783 -1.5348 0.4217, 1.4783 -1.5415 0.4209, 1.4783 -1.548 0.4185, 1.4783 -1.5539 0.4145, 1.4783 -1.5589 0.409, 1.4783 -1.5624 0.4024, 1.4744 -1.3592 0.4957, 1.4744 -1.363 0.5244, 1.4744 -1.3669 0.5347, 1.4744 -1.3741 0.5535, 1.4744 -1.3929 0.5809, 1.4744 -1.4182 0.603, 1.4744 -1.4463 0.6176, 1.4744 -1.4532 0.62, 1.4744 -1.4733 0.6591, 1.4744 -1.5044 0.6949, 1.4744 -1.5262 0.7096, 1.4744 -1.5467 0.7234, 1.4744 -1.5943 0.7401, 1.4744 -1.6334 0.7443, 1.4744 -1.6805 0.7384, 1.4744 -1.7243 0.7215, 1.4744 -1.7436 0.7096, 1.4744 -1.7473 0.7072, 1.4744 -1.7696 0.6882, 1.4744 -1.789 0.6655, 1.4744 -1.8 0.6668, 1.4744 -1.8109 0.6674, 1.4744 -1.8428 0.664, 1.4744 -1.8783 0.6517, 1.4744 -1.9103 0.6308, 1.4744 -1.92 0.6219, 1.4744 -1.9563 0.5637, 1.4744 -1.94 0.5971, 1.4744 -1.9623 0.5347, 1.4744 -1.9641 0.5264, 1.4744 -1.9646 0.5137, 1.4744 -1.9612 0.4819, 1.4744 -1.949 0.4463, 1.4744 -1.9292 0.4155, 1.4744 -1.9247 0.4103, 1.4744 -1.9002 0.3885, 1.4744 -1.8666 0.3704, 1.4744 -1.8488 0.3647, 1.4744 -1.8476 0.3622, 1.4744 -1.8393 0.3444, 1.4744 -1.8252 0.327, 1.4744 -1.8067 0.313, 1.4744 -1.7979 0.3093, 1.4744 -1.7848 0.3038, 1.4744 -1.7624 0.3003, 1.4744 -1.7587 0.3002, 1.4744 -1.6638 0.3951, 1.4744 -1.7358 0.303, 1.4744 -1.7194 0.3093, 1.4744 -1.7146 0.3111, 1.4744 -1.6957 0.3243, 1.4744 -1.681 0.3408, 1.4744 -1.6698 0.362, 1.4744 -1.6698 0.3622, 1.4744 -1.6643 0.3854, 1.4744 -1.6638 0.4046, 1.4744 -1.531 0.4748, 1.4744 -1.5604 0.5251, 1.4744 -1.6875 0.4587, 1.4744 -1.7041 0.4737, 1.4744 -1.7242 0.4845, 1.4744 -1.7471 0.4902, 1.4744 -1.7587 0.4909, 1.4744 -1.7813 0.4881, 1.4744 -1.8022 0.4801, 1.4744 -1.8216 0.4667, 1.4744 -1.8373 0.4488, 1.4744 -1.8479 0.4283, 1.4744 -1.8685 0.441, 1.4744 -1.8855 0.4585, 1.4744 -1.8969 0.4779, 1.4744 -1.9037 0.5012, 1.4744 -1.9048 0.5156, 1.4744 -1.9024 0.5347, 1.4744 -1.902 0.5385, 1.4744 -1.8939 0.5597, 1.4744 -1.8807 0.5786, 1.4744 -1.8642 0.5933, 1.4744 -1.843 0.6045, 1.4744 -1.8196 0.61, 1.4744 -1.8099 0.6105, 1.4744 -1.7879 0.6078, 1.4744 -1.7666 0.6001, 1.4744 -1.7596 0.5962, 1.4744 -1.7469 0.6235, 1.4744 -1.7262 0.6494, 1.4744 -1.7001 0.6693, 1.4744 -1.6693 0.6823, 1.4744 -1.6377 0.6872, 1.4744 -1.6325 0.6873, 1.4744 -1.6031 0.684, 1.4744 -1.5732 0.6733, 1.4744 -1.5462 0.6554, 1.4744 -1.5351 0.6449, 1.4744 -1.5154 0.6179, 1.4744 -1.5029 0.5863, 1.4744 -1.4997 0.5687, 1.4744 -1.4921 0.5687, 1.4744 -1.4741 0.5665, 1.4744 -1.4575 0.5601, 1.4744 -1.4428 0.5499, 1.4744 -1.4317 0.5375, 1.4744 -1.4302 0.5347, 1.4744 -1.4229 0.5211, 1.4744 -1.4185 0.5029, 1.4744 -1.4181 0.4947, 1.4744 -1.4203 0.4763, 1.4744 -1.4269 0.4594, 1.4744 -1.4373 0.4446, 1.4744 -1.4387 0.4431, 1.4744 -1.4527 0.4317, 1.4744 -1.4695 0.4239, 1.4744 -1.4864 0.4207, 1.4744 -1.5291 0.4207, 1.4744 -1.531 0.421, 1.4744 -1.5338 0.4216, 1.4744 -1.5348 0.4217, 1.4744 -1.5415 0.4209, 1.4744 -1.548 0.4185, 1.4744 -1.5539 0.4145, 1.4744 -1.5589 0.409, 1.4744 -1.5624 0.4024, 1.4744 -1.564 0.3951, 1.4744 -1.5642 0.3922, 1.4744 -1.5634 0.3857, 1.4744 -1.561 0.3792, 1.4744 -1.557 0.3732, 1.4744 -1.5532 0.3695, 1.4744 -1.5468 0.3654, 1.4744 -1.5404 0.3633, 1.4744 -1.5367 0.3628, 1.4744 -1.4807 0.3628, 1.4744 -1.4516 0.3687, 1.4744 -1.4224 0.3822, 1.4744 -1.3975 0.4023, 1.4744 -1.3943 0.4055, 1.4744 -1.3768 0.4294, 1.4744 -1.3643 0.4591, 1.4744 -1.3593 0.4901, 1.4744 -1.7596 0.4311, 1.4744 -1.7532 0.4306, 1.4744 -1.7443 0.4278, 1.4744 -1.7364 0.4229, 1.4744 -1.7301 0.4164, 1.4744 -1.7256 0.4088, 1.4744 -1.7231 0.4001, 1.4744 -1.7228 0.3909, 1.4744 -1.7248 0.3818, 1.4744 -1.729 0.3735, 1.4744 -1.735 0.3665, 1.4744 -1.7423 0.3615, 1.4744 -1.7505 0.3583, 1.4744 -1.7596 0.3571, 1.4744 -1.7676 0.358, 1.4744 -1.7764 0.3612, 1.4744 -1.784 0.3663, 1.4744 -1.7901 0.3732, 1.4744 -1.7942 0.381, 1.4744 -1.7964 0.3897, 1.4744 -1.7964 0.3986, 1.4744 -1.7941 0.4077, 1.4744 -1.7896 0.4159, 1.4744 -1.7833 0.4226, 1.4744 -1.7756 0.4275, 1.4744 -1.7672 0.4303
            ]
        }
        coordIndex [
            0,1,2,-1,3,4,5,-1,6,7,3,-1,3,7,8,-1,8,7,9,-1,8,9,10,-1,11,12,13,-1,14,15,16,-1,17,18,2,-1,2,18,19,-1,2,19,0,-1,10,9,13,-1,13,9,20,-1,13,20,11,-1,21,1,22,-1,22,1,23,-1,22,23,24,-1,14,16,25,-1,15,26,16,-1,16,26,27,-1,16,27,28,-1,28,27,29,-1,28,29,30,-1,30,29,31,-1,30,31,32,-1,32,31,2,-1,32,2,33,-1,34,35,36,-1,36,35,37,-1,36,37,38,-1,38,37,39,-1,38,39,40,-1,40,39,41,-1,42,43,44,-1,44,43,45,-1,44,45,46,-1,46,45,47,-1,46,47,48,-1,48,47,49,-1,48,49,50,-1,51,52,53,-1,50,49,54,-1,54,49,55,-1,54,55,56,-1,57,58,59,-1,59,58,60,-1,59,60,36,-1,36,60,61,-1,36,61,34,-1,62,63,17,-1,17,63,64,-1,17,64,18,-1,65,66,67,-1,67,66,68,-1,67,68,69,-1,69,68,70,-1,69,70,71,-1,71,70,72,-1,71,72,62,-1,62,72,73,-1,62,73,63,-1,12,74,13,-1,13,74,75,-1,13,75,76,-1,76,75,77,-1,76,77,78,-1,78,77,79,-1,78,79,80,-1,80,79,81,-1,80,81,82,-1,82,81,83,-1,82,83,84,-1,84,83,85,-1,84,85,86,-1,86,85,87,-1,86,87,88,-1,88,87,24,-1,88,24,89,-1,89,24,23,-1,21,90,1,-1,1,90,91,-1,1,91,2,-1,2,91,92,-1,2,92,33,-1,6,3,93,-1,93,3,5,-1,93,5,16,-1,16,5,94,-1,16,94,25,-1,39,95,41,-1,41,95,96,-1,41,96,97,-1,97,96,98,-1,97,98,99,-1,99,98,100,-1,99,100,101,-1,101,100,102,-1,53,52,103,-1,103,52,104,-1,103,104,105,-1,105,104,106,-1,105,106,107,-1,107,106,108,-1,107,108,109,-1,109,108,110,-1,109,110,111,-1,111,110,112,-1,111,112,113,-1,113,112,114,-1,113,114,115,-1,115,114,116,-1,115,116,102,-1,102,116,117,-1,102,117,101,-1,42,44,118,-1,118,44,119,-1,118,119,120,-1,120,119,121,-1,120,121,122,-1,122,121,123,-1,122,123,124,-1,124,123,125,-1,124,125,126,-1,126,125,127,-1,126,127,128,-1,128,127,129,-1,128,129,130,-1,130,129,131,-1,130,131,65,-1,65,131,132,-1,65,132,66,-1,55,133,56,-1,56,133,134,-1,56,134,135,-1,135,134,136,-1,135,136,137,-1,137,136,138,-1,137,138,57,-1,57,138,139,-1,57,139,58,-1,140,141,142,-1,142,141,143,-1,143,144,142,-1,142,144,145,-1,142,145,146,-1,53,147,51,-1,51,147,142,-1,51,142,148,-1,148,142,146,-1,142,149,140,-1,140,149,150,-1,140,150,151,-1,151,152,140,-1,140,152,153,-1,140,153,154,-1,101,155,156,-1,101,156,99,-1,99,156,157,-1,99,157,97,-1,157,158,97,-1,97,158,159,-1,97,159,41,-1,41,159,160,-1,41,160,40,-1,40,160,161,-1,40,161,38,-1,38,161,162,-1,38,162,36,-1,36,162,163,-1,36,163,59,-1,59,163,164,-1,59,164,57,-1,137,57,165,-1,165,57,164,-1,165,166,137,-1,137,166,167,-1,137,167,135,-1,135,167,168,-1,135,168,56,-1,56,168,169,-1,56,169,54,-1,54,169,170,-1,54,170,50,-1,50,170,48,-1,48,170,171,-1,48,171,172,-1,48,172,173,-1,48,173,46,-1,46,173,174,-1,46,174,44,-1,44,174,175,-1,44,175,119,-1,119,175,176,-1,119,176,121,-1,121,176,177,-1,121,177,123,-1,123,177,178,-1,123,178,125,-1,125,178,179,-1,125,179,127,-1,127,179,180,-1,127,180,129,-1,181,131,182,-1,182,131,129,-1,182,129,180,-1,183,66,181,-1,181,66,132,-1,181,132,131,-1,183,184,66,-1,66,184,185,-1,66,185,68,-1,68,185,186,-1,68,186,70,-1,70,186,187,-1,70,187,72,-1,72,187,188,-1,72,188,73,-1,73,188,189,-1,73,189,63,-1,63,189,190,-1,63,190,64,-1,64,190,191,-1,64,191,18,-1,18,191,192,-1,18,192,19,-1,19,192,193,-1,19,193,0,-1,193,194,0,-1,0,194,195,-1,0,195,1,-1,1,195,196,-1,1,196,23,-1,23,196,197,-1,23,197,89,-1,197,198,89,-1,89,198,199,-1,89,199,88,-1,88,199,200,-1,88,200,86,-1,201,10,13,-1,86,200,202,-1,203,82,202,-1,202,82,84,-1,202,84,86,-1,203,204,82,-1,82,204,205,-1,82,205,80,-1,80,205,206,-1,80,206,78,-1,78,206,207,-1,78,207,76,-1,76,207,208,-1,76,208,13,-1,13,208,209,-1,13,209,201,-1,8,10,210,-1,210,10,201,-1,3,8,211,-1,211,8,210,-1,4,3,212,-1,212,3,211,-1,5,4,213,-1,213,4,212,-1,5,213,214,-1,5,214,94,-1,94,214,215,-1,94,215,25,-1,25,215,216,-1,25,216,14,-1,14,216,217,-1,14,217,15,-1,15,217,218,-1,15,218,26,-1,26,218,219,-1,26,219,27,-1,27,219,220,-1,27,220,29,-1,29,220,221,-1,29,221,31,-1,31,221,222,-1,31,222,2,-1,2,222,223,-1,2,223,17,-1,17,223,224,-1,17,224,62,-1,62,224,225,-1,62,225,71,-1,71,225,226,-1,71,226,69,-1,69,226,227,-1,69,227,67,-1,67,227,65,-1,65,227,228,-1,228,229,65,-1,65,229,230,-1,65,230,130,-1,130,230,231,-1,130,231,128,-1,128,231,232,-1,128,232,126,-1,126,232,233,-1,126,233,124,-1,124,233,234,-1,124,234,122,-1,122,234,235,-1,122,235,120,-1,120,235,236,-1,120,236,118,-1,118,236,237,-1,118,237,42,-1,42,237,238,-1,42,238,43,-1,43,238,239,-1,43,239,45,-1,45,239,240,-1,45,240,47,-1,47,240,241,-1,47,241,49,-1,49,241,242,-1,49,242,55,-1,55,242,243,-1,55,243,133,-1,133,243,244,-1,133,244,134,-1,134,244,245,-1,134,245,136,-1,136,245,246,-1,136,246,138,-1,138,246,247,-1,138,247,139,-1,139,247,248,-1,139,248,58,-1,58,248,249,-1,58,249,60,-1,60,249,250,-1,60,250,61,-1,61,250,251,-1,61,251,34,-1,35,34,252,-1,252,34,251,-1,35,252,253,-1,35,253,37,-1,37,253,254,-1,37,254,39,-1,39,254,255,-1,39,255,95,-1,95,255,256,-1,95,256,96,-1,96,256,257,-1,96,257,98,-1,257,258,98,-1,98,258,259,-1,98,259,100,-1,100,259,260,-1,100,260,102,-1,102,260,261,-1,102,261,115,-1,115,261,262,-1,115,262,113,-1,113,262,263,-1,113,263,111,-1,111,263,264,-1,111,264,109,-1,109,264,265,-1,109,265,107,-1,107,265,266,-1,107,266,105,-1,105,266,267,-1,105,267,103,-1,53,103,268,-1,268,103,267,-1,53,268,269,-1,53,269,147,-1,147,269,270,-1,147,270,142,-1,142,270,271,-1,142,271,149,-1,149,271,272,-1,149,272,150,-1,150,272,273,-1,150,273,151,-1,151,273,274,-1,151,274,152,-1,152,274,275,-1,152,275,153,-1,153,275,276,-1,153,276,154,-1,154,276,277,-1,154,277,140,-1,140,277,278,-1,140,278,141,-1,141,278,279,-1,141,279,143,-1,143,279,280,-1,143,280,144,-1,144,280,281,-1,144,281,145,-1,145,281,282,-1,145,282,146,-1,146,282,283,-1,146,283,148,-1,148,283,284,-1,148,284,51,-1,51,284,285,-1,51,285,52,-1,104,52,286,-1,286,52,285,-1,104,286,287,-1,104,287,106,-1,106,287,288,-1,106,288,108,-1,108,288,289,-1,108,289,110,-1,110,289,290,-1,110,290,112,-1,112,290,291,-1,112,291,114,-1,114,291,292,-1,114,292,116,-1,116,292,293,-1,116,293,117,-1,117,293,155,-1,117,155,101,-1,6,294,295,-1,6,295,7,-1,7,295,296,-1,7,296,9,-1,9,296,297,-1,9,297,20,-1,20,297,298,-1,20,298,11,-1,11,298,299,-1,11,299,12,-1,12,299,300,-1,12,300,74,-1,74,300,301,-1,74,301,75,-1,75,301,302,-1,75,302,77,-1,77,302,303,-1,77,303,79,-1,79,303,304,-1,79,304,81,-1,81,304,305,-1,81,305,83,-1,83,305,306,-1,83,306,85,-1,85,306,307,-1,85,307,87,-1,87,307,308,-1,87,308,24,-1,24,308,309,-1,24,309,22,-1,22,309,310,-1,22,310,21,-1,21,310,311,-1,21,311,90,-1,90,311,312,-1,90,312,91,-1,91,312,313,-1,91,313,92,-1,92,313,314,-1,92,314,33,-1,33,314,315,-1,33,315,32,-1,32,315,316,-1,32,316,30,-1,30,316,317,-1,30,317,28,-1,28,317,318,-1,28,318,16,-1,16,318,319,-1,16,319,93,-1,93,319,294,-1,93,294,6,-1,
        ]
    }
}
Shape{
    appearance Appearance {
        material  Material {
            diffuseColor 1.0 1.0 1.0
            specularColor 0.5019607843137255 0.5019607843137255 0.5019607843137255
            ambientIntensity 1.0
            transparency 0.0
            shininess 0.5
        }
    }
    geometry IndexedFaceSet {
        ccw TRUE
        solid FALSE
        coord DEF co Coordinate {
            point [
                1.4744 -1.7505 0.3583, 1.4744 -1.7532 0.4306, 1.4744 -1.7596 0.3571, 1.4744 -1.7596 0.4311, 1.4744 -1.7672 0.4303, 1.4744 -1.735 0.3665, 1.4744 -1.7301 0.4164, 1.4744 -1.7364 0.4229, 1.4744 -1.7964 0.3897, 1.4744 -1.7942 0.381, 1.4744 -1.7901 0.3732, 1.4744 -1.784 0.3663, 1.4744 -1.7423 0.3615, 1.4744 -1.7443 0.4278, 1.4744 -1.7764 0.3612, 1.4744 -1.7676 0.358, 1.4744 -1.7756 0.4275, 1.4744 -1.7833 0.4226, 1.4744 -1.7964 0.3986, 1.4744 -1.7896 0.4159, 1.4744 -1.7941 0.4077, 1.4744 -1.7248 0.3818, 1.4744 -1.7228 0.3909, 1.4744 -1.729 0.3735, 1.4744 -1.7231 0.4001, 1.4744 -1.7256 0.4088, -1.2028 -2.8803 0.2756, -1.0847 -2.7622 0.3937, -1.2028 -2.8803 1.5354, -1.0847 -2.7622 1.5354, 1.1988 -2.8803 0.2756, 1.0807 -2.7622 0.3937, 1.1988 -2.8803 1.5354, 1.0807 -2.7622 1.5354
            ]
        }
        coordIndex [
            0,1,2,-1,2,1,3,-1,2,3,4,-1,5,6,7,-1,8,9,4,-1,4,9,10,-1,4,10,11,-1,0,12,1,-1,1,12,5,-1,1,5,13,-1,13,5,7,-1,11,14,4,-1,4,14,15,-1,4,15,2,-1,4,16,8,-1,8,16,17,-1,8,17,18,-1,18,17,19,-1,18,19,20,-1,21,22,23,-1,23,22,24,-1,23,24,5,-1,5,24,25,-1,5,25,6,-1,26,27,28,-1,28,27,29,-1,30,31,26,-1,26,31,27,-1,32,33,30,-1,30,33,31,-1,
        ]
    }
}