#VRML V2.0 utf8
# 3D model generated by kicad-lcsc-manager
# Based on easyeda2kicad.py v1.0.1

Shape{
    appearance Appearance {
        material  Material {
            diffuseColor 1.0 1.0 1.0
            specularColor 0.5019607843137255 0.5019607843137255 0.5019607843137255
            ambientIntensity 1.0
            transparency 0.0
            shininess 0.5
        }
    }
    geometry IndexedFaceSet {
        ccw TRUE
        solid FALSE
        coord DEF co Coordinate {
            point [
                2.4323 -1.1343 0.7084, 2.4323 -1.1343 0.5902, 2.4323 -1.0811 0.5902, 2.4323 -1.0697 0.3622, 2.4323 -1.0697 0.5347, 2.4323 -1.0777 0.5347, 2.4323 -0.7457 0.6619, 2.4323 -0.7434 0.6434, 2.4323 -0.7397 0.7096, 2.4323 -0.2374 0.5347, 2.4323 -0.2374 0.7096, 2.4323 -0.5726 0.7096, 2.4323 -0.026 -0.0, 2.4323 -0.026 0.3093, 2.4323 -0.2374 0.3093, 2.4323 -1.0267 0.7083, 2.4323 -1.0166 0.7096, 2.4323 -1.0697 0.7096, 2.4323 -0.9236 0.3628, 2.4323 -0.9292 0.3622, 2.4323 -0.8958 0.3622, 2.4323 -0.9528 0.3625, 2.4323 -0.9568 0.3639, 2.4323 -0.9568 0.3622, 2.4323 -1.4483 0.7234, 2.4323 -1.4278 0.7096, 2.4323 -1.2062 0.7096, 2.4323 -1.2684 0.5347, 2.4323 -1.2062 0.5347, 2.4323 -1.2767 0.5556, 2.4323 -1.2961 0.5826, 2.4323 -1.3218 0.6043, 2.4323 -1.406 0.6949, 2.4323 -1.4014 0.6906, 2.4323 -1.3714 0.6537, 2.4323 -1.3547 0.62, 2.4323 -1.35 0.6184, 2.4323 -1.5822 0.7384, 2.4323 -1.535 0.7443, 2.4323 -1.2062 1.5335, 2.4323 -1.4959 0.7401, 2.4323 -1.8589 0.5604, 2.4323 -2.7819 0.7096, 2.4323 -1.8638 0.5347, 2.4323 -2.7819 0.5347, 2.4323 -1.8657 0.5248, 2.4323 -1.6259 0.7215, 2.4323 -2.7819 1.5335, 2.4323 -1.6451 0.7096, 2.4323 -1.6489 0.7072, 2.4323 -1.8433 0.5943, 2.4323 -1.8216 0.6219, 2.4323 -1.8134 0.6294, 2.4323 -1.7829 0.6502, 2.4323 -1.7477 0.6633, 2.4323 -1.7124 0.6674, 2.4323 -1.6712 0.6882, 2.4323 -1.7015 0.6668, 2.4323 -1.6906 0.6655, 2.4323 -1.7989 0.3865, 2.4323 -1.8263 0.4103, 2.4323 -2.7819 0.3622, 2.4323 -1.765 0.3692, 2.4323 -1.849 0.4432, 2.4323 -1.8621 0.4787, 2.4323 -1.8661 0.5137, 2.4323 -1.7504 0.3647, 2.4323 -1.7492 0.3622, 2.4323 -1.7409 0.3444, 2.4323 -1.7268 0.327, 2.4323 -1.6373 0.303, 2.4323 -1.6603 0.3002, 2.4323 -1.2062 -0.0, 2.4323 -1.6639 0.3003, 2.4323 -2.7819 -0.0, 2.4323 -1.6863 0.3038, 2.4323 -2.7819 0.3093, 2.4323 -1.6995 0.3093, 2.4323 -1.7082 0.313, 2.4323 -1.5713 0.3622, 2.4323 -1.5714 0.3619, 2.4323 -1.2062 0.3093, 2.4323 -1.5826 0.3407, 2.4323 -1.5973 0.3243, 2.4323 -1.6162 0.3112, 2.4323 -1.621 0.3093, 2.4323 -1.4502 0.4182, 2.4323 -1.4437 0.4207, 2.4323 -1.4325 0.4748, 2.4323 -1.5891 0.4587, 2.4323 -1.462 0.5251, 2.4323 -1.6057 0.4737, 2.4323 -1.6258 0.4845, 2.4323 -1.456 0.414, 2.4323 -1.2771 0.4317, 2.4323 -1.2959 0.4055, 2.4323 -1.2062 0.3622, 2.4323 -1.3201 0.5029, 2.4323 -1.3245 0.5212, 2.4323 -1.3318 0.5347, 2.4323 -1.804 0.5347, 2.4323 -1.2651 0.5266, 2.4323 -1.2608 0.4957, 2.4323 -1.2652 0.4618, 2.4323 -1.4363 0.4217, 2.4323 -1.4354 0.4216, 2.4323 -1.4326 0.421, 2.4323 -1.7985 0.4778, 2.4323 -1.7871 0.4585, 2.4323 -1.7389 0.4487, 2.4323 -1.7701 0.441, 2.4323 -1.7494 0.4283, 2.4323 -1.7038 0.4801, 2.4323 -1.7232 0.4667, 2.4323 -1.8064 0.5156, 2.4323 -1.8053 0.5011, 2.4323 -1.6829 0.4881, 2.4323 -1.6603 0.4909, 2.4323 -1.6487 0.4902, 2.4323 -1.3217 0.3837, 2.4323 -1.3507 0.3695, 2.4323 -1.3823 0.3628, 2.4323 -1.4657 0.3922, 2.4323 -1.4655 0.3959, 2.4323 -1.5654 0.4046, 2.4323 -1.4636 0.4032, 2.4323 -1.46 0.4096, 2.4323 -1.3389 0.4445, 2.4323 -1.3284 0.4593, 2.4323 -1.3219 0.4763, 2.4323 -1.3196 0.4947, 2.4323 -1.4382 0.3628, 2.4323 -1.4436 0.3637, 2.4323 -1.4499 0.3662, 2.4323 -1.456 0.3705, 2.4323 -1.4582 0.3728, 2.4323 -1.4623 0.3787, 2.4323 -1.4648 0.3852, 2.4323 -1.5659 0.3853, 2.4323 -1.5654 0.3951, 2.4323 -1.4306 0.4207, 2.4323 -1.3879 0.4207, 2.4323 -1.371 0.424, 2.4323 -1.3542 0.4317, 2.4323 -1.3402 0.4431, 2.4323 -1.443 0.6512, 2.4323 -1.4455 0.6535, 2.4323 -1.6612 0.5962, 2.4323 -1.4216 0.6256, 2.4323 -1.6681 0.6, 2.4323 -1.6894 0.6077, 2.4323 -1.3333 0.5376, 2.4323 -1.3443 0.5499, 2.4323 -1.3936 0.5687, 2.4323 -1.3591 0.5601, 2.4323 -1.3756 0.5665, 2.4323 -1.4012 0.5687, 2.4323 -1.407 0.595, 2.4323 -1.4722 0.672, 2.4323 -1.5019 0.6834, 2.4323 -1.6468 0.6261, 2.4323 -1.6255 0.6516, 2.4323 -1.7447 0.6044, 2.4323 -1.7659 0.5932, 2.4323 -1.7213 0.61, 2.4323 -1.7823 0.5786, 2.4323 -1.7954 0.5597, 2.4323 -1.5999 0.6703, 2.4323 -1.5341 0.6873, 2.4323 -1.5689 0.6829, 2.4323 -1.7115 0.6105, 2.4323 -1.8035 0.5385, 2.4323 -0.7132 0.4814, 2.4323 -0.7102 0.3785, 2.4323 -0.6976 0.5347, 2.4323 -0.6976 0.3622, 2.4323 -0.7102 0.3633, 2.4323 -0.7397 0.3622, 2.4323 -0.7397 0.4387, 2.4323 -0.717 0.4387, 2.4323 -0.717 0.4234, 2.4323 -0.7397 0.3785, 2.4323 -0.7397 0.4234, 2.4323 -0.7647 0.4234, 2.4323 -0.7647 0.3785, 2.4323 -0.7397 0.4814, 2.4323 -0.7647 0.4814, 2.4323 -0.7647 0.4387, 2.4323 -0.7397 0.3633, 2.4323 -0.7819 0.3633, 2.4323 -0.838 0.3622, 2.4323 -0.7999 0.4586, 2.4323 -0.8478 0.387, 2.4323 -0.8458 0.3791, 2.4323 -0.8454 0.3791, 2.4323 -0.8647 0.5347, 2.4323 -0.7819 0.4967, 2.4323 -0.7397 0.5347, 2.4323 -0.7397 0.4967, 2.4323 -0.7132 0.4967, 2.4323 -0.8446 0.3824, 2.4323 -0.8433 0.3868, 2.4323 -0.8647 0.4354, 2.4323 -0.8173 0.4586, 2.4323 -0.9815 0.3622, 2.4323 -0.9645 0.3666, 2.4323 -0.9645 0.3839, 2.4323 -0.9644 0.4329, 2.4323 -0.9638 0.4388, 2.4323 -0.9815 0.5347, 2.4323 -0.9618 0.4213, 2.4323 -0.9637 0.4264, 2.4323 -0.9571 0.3794, 2.4323 -0.9568 0.3793, 2.4323 -0.9568 0.4148, 2.4323 -0.9597 0.4178, 2.4323 -0.9569 0.4149, 2.4323 -0.9568 0.3093, 2.4323 -0.9386 0.361, 2.4323 -0.9495 0.3622, 2.4323 -0.9047 0.4566, 2.4323 -0.9047 0.4403, 2.4323 -0.9537 0.4532, 2.4323 -0.9496 0.4557, 2.4323 -0.9568 0.5347, 2.4323 -0.9618 0.4442, 2.4323 -0.9587 0.4487, 2.4323 -0.9568 0.4504, 2.4323 -0.9009 0.3825, 2.4323 -0.903 0.3772, 2.4323 -0.9061 0.3728, 2.4323 -0.9406 0.4592, 2.4323 -0.9273 0.4608, 2.4323 -0.8958 0.5347, 2.4323 -0.9156 0.4597, 2.4323 -0.9057 0.405, 2.4323 -0.9026 0.4004, 2.4323 -0.9008 0.3955, 2.4323 -0.9001 0.3892, 2.4323 -0.9109 0.3686, 2.4323 -0.9148 0.3662, 2.4323 -0.9289 0.4472, 2.4323 -0.9339 0.4468, 2.4323 -0.9472 0.4344, 2.4323 -0.9383 0.4457, 2.4323 -0.9421 0.4437, 2.4323 -0.947 0.4322, 2.4323 -0.9464 0.4296, 2.4323 -0.9452 0.4273, 2.4323 -0.9435 0.4255, 2.4323 -0.9376 0.4218, 2.4323 -0.919 0.4462, 2.4323 -0.9273 0.4173, 2.4323 -0.9095 0.443, 2.4323 -0.9208 0.4147, 2.4323 -0.9097 0.4085, 2.4323 -0.9446 0.4414, 2.4323 -0.946 0.4393, 2.4323 -0.9469 0.4371, 2.4323 -0.9465 0.3757, 2.4323 -0.9391 0.4052, 2.4323 -0.9491 0.4098, 2.4323 -0.937 0.3747, 2.4323 -0.9363 0.3747, 2.4323 -0.9281 0.4006, 2.4323 -0.9277 0.3757, 2.4323 -0.9173 0.3876, 2.4323 -0.9175 0.3897, 2.4323 -0.9234 0.3772, 2.4323 -0.9219 0.3782, 2.4323 -0.9199 0.3799, 2.4323 -0.9185 0.382, 2.4323 -0.9176 0.3844, 2.4323 -0.9182 0.3923, 2.4323 -0.9195 0.3945, 2.4323 -0.9216 0.3967, 2.4323 -0.6486 0.6115, 2.4323 -0.6976 0.6115, 2.4323 -0.635 0.575, 2.4323 -0.6159 0.575, 2.4323 -0.5726 0.5347, 2.4323 -0.6668 0.7084, 2.4323 -0.736 0.575, 2.4323 -0.717 0.575, 2.4323 -0.7042 0.6115, 2.4323 -0.8958 0.7096, 2.4323 -0.8803 0.7084, 2.4323 -0.8647 0.7096, 2.4323 -0.8803 0.6931, 2.4323 -0.8841 0.6504, 2.4323 -0.8841 0.6351, 2.4323 -0.8773 0.5902, 2.4323 -0.8958 0.5902, 2.4323 -0.8958 0.6351, 2.4323 -0.9318 0.6351, 2.4323 -0.9318 0.5902, 2.4323 -0.8958 0.6931, 2.4323 -0.8958 0.6504, 2.4323 -0.9318 0.6931, 2.4323 -0.9318 0.6504, 2.4323 -0.9491 0.575, 2.4323 -0.8958 0.575, 2.4323 -0.8773 0.575, 2.4323 -0.9568 0.7096, 2.4323 -0.9491 0.7084, 2.4323 -0.8958 0.7084, 2.4323 -1.643 1.7717, 2.4323 -1.6115 1.6957, 2.4323 -2.7819 1.5354, 2.4323 -1.6008 1.5354, 2.4323 -1.6008 1.6142, 2.4323 -2.7819 2.3228, 2.4323 -2.7819 1.9291, 2.4323 -1.2062 2.3228, 2.4323 -1.9157 1.9291, 2.4323 -1.8342 1.9184, 2.4323 -1.7583 1.8869, 2.4323 -1.693 1.8369, 2.4323 -0.9815 0.5783, 2.4323 -0.978 0.5794, 2.4323 -0.9758 0.5805, 2.4323 -0.9758 0.597, 2.4323 -1.004 0.5883, 2.4323 -0.9889 0.5911, 2.4323 -0.9815 0.6896, 2.4323 -0.9815 0.5945, 2.4323 -0.9772 0.688, 2.4323 -0.9758 0.6872, 2.4323 -0.9908 0.6932, 2.4323 -1.0573 0.6331, 2.4323 -1.0548 0.6202, 2.4323 -1.0502 0.6098, 2.4323 -1.0436 0.6803, 2.4323 -1.0509 0.6702, 2.4323 -1.0345 0.6878, 2.4323 -1.024 0.6927, 2.4323 -1.0072 0.6951, 2.4323 -1.0124 0.6949, 2.4323 -1.0576 0.6402, 2.4323 -1.0554 0.6587, 2.4323 -1.0445 0.6022, 2.4323 -1.0419 0.5995, 2.4323 -1.0331 0.5934, 2.4323 -1.0236 0.5897, 2.4323 -1.0102 0.5881, 2.4323 -0.9931 0.7096, 2.4323 -0.9898 0.7093, 2.4323 -0.9815 0.7096, 2.4323 -0.9815 0.7069, 2.4323 -0.9758 0.7052, 2.4323 -1.0697 1.5335, 2.4323 -1.0074 0.7107, 2.4323 -0.9815 1.5335, 2.4323 -1.0073 0.7107, 2.4323 -1.0661 0.6784, 2.4323 -1.0564 0.6911, 2.4323 -1.0532 0.6941, 2.4323 -1.0407 0.7029, 2.4323 -1.0777 0.7096, 2.4323 -1.0724 0.6636, 2.4323 -1.0697 0.6699, 2.4323 -1.0757 0.6392, 2.4323 -1.0754 0.6462, 2.4323 -1.0478 0.582, 2.4323 -1.0586 0.591, 2.4323 -1.0352 0.5761, 2.4323 -1.0676 0.6035, 2.4323 -1.0697 0.6089, 2.4323 -1.073 0.6174, 2.4323 -0.9924 0.5747, 2.4323 -1.0127 0.5727, 2.4323 -1.0208 0.5731, 2.4323 -1.0575 0.4081, 2.4323 -1.0544 0.4357, 2.4323 -1.061 0.4027, 2.4323 -1.063 0.3965, 2.4323 -0.9872 0.3633, 2.4323 -1.0039 0.3633, 2.4323 -1.0127 0.368, 2.4323 -1.0179 0.3645, 2.4323 -1.0244 0.3622, 2.4323 -1.0175 0.4466, 2.4323 -1.0232 0.4472, 2.4323 -1.0321 0.4199, 2.4323 -0.9888 0.4387, 2.4323 -0.9872 0.4246, 2.4323 -1.0526 0.4126, 2.4323 -1.0459 0.4163, 2.4323 -1.0429 0.4429, 2.4323 -1.0324 0.4463, 2.4323 -1.0432 0.3622, 2.4323 -1.0435 0.3622, 2.4323 -1.0499 0.3646, 2.4323 -1.0556 0.3685, 2.4323 -1.0544 0.4519, 2.4323 -1.0637 0.3888, 2.4323 -1.0627 0.3805, 2.4323 -1.0039 0.378, 2.4323 -1.0043 0.378, 2.4323 -1.0073 0.3735, 2.4323 -1.057 0.37, 2.4323 -1.0606 0.375, 2.4323 -1.0039 0.4239, 2.4323 -1.0044 0.4312, 2.4323 -1.0062 0.4372, 2.4323 -1.0081 0.4406, 2.4323 -1.051 0.4539, 2.4323 -1.0386 0.4587, 2.4323 -1.0216 0.4608, 2.4323 -1.01 0.4596, 2.4323 -1.0034 0.4572, 2.4323 -0.998 0.4539, 2.4323 -0.9951 0.451, 2.4323 -0.9915 0.4458, 2.4323 -1.0107 0.4433, 2.4323 -1.0136 0.4453, 2.4323 -1.0335 0.361, 2.4323 -1.0697 0.3093, 2.4323 -1.0247 0.362, 2.4323 -0.9815 0.3093, 2.4323 -0.8647 0.3622, 2.4323 -0.8647 0.3905, 2.4323 -0.8914 0.4586, 2.4323 -0.8727 0.4586, 2.4323 -0.854 0.3635, 2.4323 -0.8546 0.3622, 2.4323 -0.8614 0.3462, 2.4323 -0.8958 0.3093, 2.4323 -0.888 0.3198, 2.4323 -0.888 0.3346, 2.4323 -0.8679 0.3366, 2.4323 -0.8648 0.34, 2.4323 -0.8647 0.3402, 2.4323 -0.8846 0.3335, 2.4323 -0.8785 0.3327, 2.4323 -0.8647 0.3214, 2.4323 -0.8705 0.3192, 2.4323 -0.8647 0.3093, 2.4323 -0.8772 0.3184, 2.4323 -0.8809 0.3185, 2.4323 -0.8741 0.3333, 2.4323 -0.8705 0.3347, 2.4323 -0.8432 0.3489, 2.4323 -0.8508 0.3342, 2.4323 -0.7397 0.3093, 2.4323 -0.8569 0.3268, 2.4323 -0.858 0.3258, 2.4323 -0.8639 0.3217, 2.4323 -0.026 0.7096, 2.4323 -0.026 0.5347, 2.4323 -0.026 0.3622, 2.4323 -0.2374 0.3622, 2.4323 -0.5499 0.3633, 2.4323 -0.5689 0.3633, 2.4323 -0.5726 0.3622, 2.4323 -0.4679 0.3633, 2.4323 -0.4815 0.3998, 2.4323 -0.537 0.3998, 2.4323 -0.5181 0.4967, 2.4323 -0.4997 0.4967, 2.4323 -0.4488 0.3633, 2.4323 -0.6976 0.7096, 2.4323 -0.6852 0.7084, 2.4323 -0.6976 0.676, 2.4323 -0.5835 0.4629, 2.4323 -0.5785 0.4502, 2.4323 -0.5763 0.4317, 2.4323 -0.5767 0.4232, 2.4323 -0.5799 0.4076, 2.4323 -0.5865 0.3938, 2.4323 -0.5964 0.382, 2.4323 -0.6103 0.372, 2.4323 -0.6255 0.3661, 2.4323 -0.6482 0.3633, 2.4323 -0.685 0.3633, 2.4323 -0.685 0.4967, 2.4323 -0.6469 0.4967, 2.4323 -0.6265 0.4945, 2.4323 -0.6104 0.4886, 2.4323 -0.5964 0.4791, 2.4323 -0.5918 0.4745, 2.4323 -0.6976 0.3093, 2.4323 -0.5726 0.3093, 2.4323 -0.7506 0.6746, 2.4323 -0.8521 0.575, 2.4323 -0.7438 0.6349, 2.4323 -0.7471 0.6193, 2.4323 -0.7536 0.6055, 2.4323 -0.7635 0.5937, 2.4323 -0.7774 0.5837, 2.4323 -0.7926 0.5778, 2.4323 -0.8154 0.575, 2.4323 -0.8521 0.7084, 2.4323 -0.814 0.7084, 2.4323 -0.7936 0.7062, 2.4323 -0.7775 0.7003, 2.4323 -0.7635 0.6908, 2.4323 -0.7589 0.6862, 2.4323 -0.9568 1.5335, 2.4323 -0.8958 1.5335, 2.4323 -0.8647 1.5335, 2.4323 -0.7397 1.5335, 2.4323 -0.6976 1.5335, 2.4323 -0.5726 1.5335, 2.4323 -0.2374 1.5335, 2.4323 -0.026 1.5335, 2.4323 -0.2374 -0.0, 2.4323 -0.5726 -0.0, 2.4323 -0.6976 -0.0, 2.4323 -0.7397 -0.0, 2.4323 -0.8647 -0.0, 2.4323 -0.8958 -0.0, 2.4323 -0.9568 -0.0, 2.4323 -0.9815 -0.0, 2.4323 -1.0697 -0.0, 2.4323 -1.0777 0.3093, 2.4323 -1.0777 -0.0, 2.4323 -1.0797 0.3785, 2.4323 -1.0797 0.3633, 2.4323 -1.0777 0.3622, 2.4323 -1.1515 0.3633, 2.4323 -1.0828 0.4814, 2.4323 -1.1515 0.4967, 2.4323 -1.0828 0.4967, 2.4323 -1.1343 0.4234, 2.4323 -1.1343 0.3785, 2.4323 -1.0866 0.4234, 2.4323 -1.0866 0.4387, 2.4323 -1.1343 0.4387, 2.4323 -1.1343 0.4814, 2.4323 -1.1515 0.575, 2.4323 -1.1515 0.7084, 2.4323 -1.0811 0.575, 2.4323 -1.0777 1.5335, 2.4323 -1.0777 2.3228, 2.4323 -1.0697 2.3228, 2.4323 -0.9815 2.3228, 2.4323 -0.9568 2.3228, 2.4323 -0.8958 2.3228, 2.4323 -0.8647 2.3228, 2.4323 -0.7397 2.3228, 2.4323 -0.6976 2.3228, 2.4323 -0.5726 2.3228, 2.4323 -0.2374 2.3228, 2.4323 -0.026 2.3228, -1.7016 -2.7819 2.3228, -2.489 -2.7819 2.3228, -1.7016 -2.7819 1.9291, -2.489 -2.7819 1.9291, -1.1898 -2.7819 1.9291, 1.133 -2.7819 1.9291, -1.1898 -2.7819 2.3228, 1.133 -2.7819 2.3228, 1.6449 -2.7819 1.9291, 1.6449 -2.7819 2.3228, -2.0953 -1.0102 1.9291, -2.0953 -1.9157 1.9291, -2.0953 -1.8342 1.9184, -2.0953 -1.7583 1.8869, -2.0953 -1.693 1.8369, -2.0953 -1.643 1.7717, -2.0953 -2.6638 0.3937, -2.0953 -1.1283 0.3937, -2.0953 -2.6638 1.5354, -2.0953 -1.1283 0.9055, -2.0953 -1.6008 1.5354, -2.0953 -1.0102 1.0236, -2.0953 -1.6008 1.6142, -2.0953 -1.6115 1.6957, 2.0386 -1.8342 1.9184, 2.0386 -1.9157 1.9291, 2.0386 -1.0102 1.9291, 2.0386 -1.6115 1.6957, 2.0386 -1.643 1.7717, 2.0386 -1.693 1.8369, 2.0386 -1.7583 1.8869, 2.0386 -1.1283 0.3937, 2.0386 -2.6638 0.3937, 2.0386 -1.1283 0.9055, 2.0386 -2.6638 1.5354, 2.0386 -1.0102 1.0236, 2.0386 -1.6008 1.5354, 2.0386 -1.6008 1.6142, 1.322 -1.0102 1.1339, 0.5897 -1.0102 1.3858, 0.5897 -1.0102 1.1339, 1.322 -1.0102 1.3858, 1.574 -1.0102 1.3858, 1.574 -1.0102 1.1339, 0.3378 -1.0102 1.1339, -1.3788 -1.0102 1.1339, -1.6307 -1.0102 1.1339, -1.6307 -1.0102 1.3858, -1.3788 -1.0102 1.3858, -0.3945 -1.0102 1.3858, -0.6465 -1.0102 1.3858, -0.6465 -1.0102 1.1339, -0.3945 -1.0102 1.1339, 0.3378 -1.0102 1.3858, -0.7567 -0.026 -0.0, -1.2685 -0.026 -0.0, -0.7567 -0.026 2.3228, -1.2685 -0.026 2.3228, -0.2843 -0.026 2.3228, 0.2275 -0.026 2.3228, -0.2843 -0.026 -0.0, 0.2275 -0.026 -0.0, 0.7 -0.026 2.3228, 1.2118 -0.026 2.3228, 0.7 -0.026 -0.0, 1.2118 -0.026 -0.0, -1.741 -0.026 -0.0, -2.489 -0.026 -0.0, -1.741 -0.026 2.3228, -2.489 -0.026 2.3228, -2.489 -2.7819 -0.0, -2.489 -2.7819 1.5354, -2.489 -1.6008 1.5354, -2.489 -1.6008 1.6142, -2.489 -1.6115 1.6957, -2.489 -1.643 1.7717, -2.489 -1.693 1.8369, -2.489 -1.7583 1.8869, -2.489 -1.8342 1.9184, -2.489 -1.9157 1.9291, 2.1567 -2.7819 0.2756, -2.2134 -2.7819 1.5354, -2.2134 -2.7819 0.2756, 2.1567 -2.7819 1.5354, 1.6842 -0.026 2.3228, 1.6842 -0.026 -0.0, -0.2843 -0.5094 2.3228, -1.5047 -1.4827 2.3228, -1.1898 -1.4827 2.3228, -0.7567 -0.5094 2.3228, -1.6439 -1.5403 2.3228, -1.6032 -1.509 2.3228, 1.133 -1.4827 2.3228, 1.6842 -0.5094 2.3228, -1.5557 -1.4894 2.3228, 1.2118 -0.5094 2.3228, 0.2275 -0.5094 2.3228, 0.7 -0.5094 2.3228, -1.7016 -2.6866 2.3228, 1.6449 -2.3166 2.3228, 1.5267 -2.4994 2.3228, 1.6449 -2.6866 2.3228, -1.7016 -1.6795 2.3228, -1.7016 -2.3166 2.3228, -1.5835 -2.4994 2.3228, -1.6949 -1.6286 2.3228, -1.741 -0.5094 2.3228, 1.499 -1.4894 2.3228, 1.5464 -1.509 2.3228, 1.5872 -1.5403 2.3228, 1.6185 -1.5811 2.3228, 1.6382 -1.6286 2.3228, 1.6449 -1.6795 2.3228, -1.6752 -1.5811 2.3228, -1.2685 -0.5094 2.3228, 1.448 -1.4827 2.3228, 1.6842 -0.5094 -0.0, 1.2118 -0.5094 -0.0, 0.7 -0.5094 -0.0, -1.741 -0.5094 -0.0, -1.2685 -0.5094 -0.0, -0.7567 -0.5094 -0.0, -0.2843 -0.5094 -0.0, 0.2275 -0.5094 -0.0, -1.7016 -2.6866 1.9291, 1.6449 -2.6866 1.9291, -1.5835 -2.4994 1.9291, -1.7016 -2.3166 1.9291, 1.5267 -2.4994 1.9291, 1.6449 -2.3166 1.9291, 1.6449 -1.6795 1.9291, 1.6382 -1.6286 1.9291, 1.6185 -1.5811 1.9291, 1.5872 -1.5403 1.9291, 1.5464 -1.509 1.9291, 1.499 -1.4894 1.9291, 1.448 -1.4827 1.9291, 1.133 -1.4827 1.9291, -1.6439 -1.5403 1.9291, -1.6032 -1.509 1.9291, -1.5557 -1.4894 1.9291, -1.1898 -1.4827 1.9291, -1.5047 -1.4827 1.9291, -1.6752 -1.5811 1.9291, -1.6949 -1.6286 1.9291, -1.7016 -1.6795 1.9291, -1.741 -0.2228 0.7874, -1.741 -0.2228 1.5354, -1.2685 -0.2228 0.7874, -1.2685 -0.2228 1.5354, -1.6307 -0.2228 1.1339, -1.3788 -0.2228 1.1339, -1.3788 -0.2228 1.3858, -1.6307 -0.2228 1.3858, 1.2118 -0.2228 1.5354, 1.2118 -0.2228 0.7874, 1.6842 -0.2228 1.5354, 1.6842 -0.2228 0.7874, 1.322 -0.2228 1.1339, 1.574 -0.2228 1.1339, 1.574 -0.2228 1.3858, 1.322 -0.2228 1.3858, 0.2275 -0.2228 0.7874, 0.2275 -0.2228 1.5354, 0.7 -0.2228 0.7874, 0.7 -0.2228 1.5354, 0.3378 -0.2228 1.1339, 0.5897 -0.2228 1.1339, 0.5897 -0.2228 1.3858, 0.3378 -0.2228 1.3858, -0.7567 -0.2228 0.7874, -0.7567 -0.2228 1.5354, -0.2843 -0.2228 0.7874, -0.2843 -0.2228 1.5354, -0.6465 -0.2228 1.1339, -0.3945 -0.2228 1.1339, -0.3945 -0.2228 1.3858, -0.6465 -0.2228 1.3858
            ]
        }
        coordIndex [
            0,1,2,-1,3,4,5,-1,6,7,8,-1,9,10,11,-1,12,13,14,-1,15,16,17,-1,18,19,20,-1,21,22,23,-1,24,25,26,-1,27,28,29,-1,29,28,26,-1,29,26,30,-1,30,26,31,-1,25,32,26,-1,26,32,33,-1,26,33,34,-1,34,35,26,-1,26,35,36,-1,26,36,31,-1,37,38,39,-1,39,38,40,-1,39,40,24,-1,41,42,43,-1,43,42,44,-1,43,44,45,-1,37,39,46,-1,46,39,47,-1,46,47,48,-1,48,47,42,-1,48,42,49,-1,41,50,42,-1,42,50,51,-1,42,51,52,-1,52,53,42,-1,42,53,54,-1,42,54,49,-1,49,54,55,-1,49,55,56,-1,56,55,57,-1,56,57,58,-1,59,60,61,-1,59,61,62,-1,60,63,61,-1,61,63,64,-1,61,64,44,-1,44,64,65,-1,44,65,45,-1,66,62,67,-1,67,62,61,-1,67,61,68,-1,68,61,69,-1,70,71,72,-1,72,71,73,-1,72,73,74,-1,74,73,75,-1,74,75,76,-1,76,75,77,-1,76,77,61,-1,61,77,78,-1,61,78,69,-1,79,80,81,-1,81,80,82,-1,82,83,81,-1,81,83,84,-1,81,84,85,-1,86,87,88,-1,89,90,91,-1,91,90,92,-1,86,88,93,-1,94,95,96,-1,97,98,90,-1,90,98,99,-1,90,99,100,-1,27,101,28,-1,28,101,102,-1,28,102,96,-1,96,102,103,-1,96,103,94,-1,87,104,88,-1,88,104,105,-1,88,105,106,-1,107,108,109,-1,109,108,110,-1,109,110,111,-1,112,100,113,-1,113,100,114,-1,113,114,109,-1,109,114,115,-1,109,115,107,-1,112,116,100,-1,100,116,117,-1,100,117,90,-1,90,117,118,-1,90,118,92,-1,95,119,96,-1,96,119,120,-1,96,120,121,-1,122,123,124,-1,124,123,125,-1,124,125,88,-1,88,125,126,-1,88,126,93,-1,127,128,88,-1,88,128,129,-1,88,129,90,-1,90,129,130,-1,90,130,97,-1,131,132,79,-1,132,133,79,-1,79,133,134,-1,79,134,135,-1,135,136,79,-1,79,136,137,-1,79,137,138,-1,138,137,122,-1,138,122,139,-1,139,122,124,-1,106,140,88,-1,88,140,141,-1,88,141,142,-1,142,143,88,-1,88,143,144,-1,88,144,127,-1,145,146,147,-1,145,147,148,-1,99,147,100,-1,100,147,149,-1,100,149,150,-1,151,152,153,-1,153,152,154,-1,153,154,155,-1,151,153,99,-1,99,153,156,-1,99,156,147,-1,147,156,157,-1,147,157,148,-1,146,158,147,-1,147,158,159,-1,147,159,160,-1,160,159,161,-1,162,163,164,-1,164,163,165,-1,164,165,166,-1,161,159,167,-1,167,159,168,-1,167,168,169,-1,150,170,100,-1,100,170,164,-1,100,164,171,-1,171,164,166,-1,172,173,174,-1,174,173,175,-1,175,173,176,-1,175,176,177,-1,178,179,172,-1,172,179,173,-1,173,179,180,-1,173,180,181,-1,180,182,181,-1,181,182,183,-1,181,183,184,-1,172,185,178,-1,178,185,186,-1,178,186,187,-1,176,188,177,-1,177,188,189,-1,177,189,190,-1,190,189,191,-1,192,193,194,-1,195,196,197,-1,197,196,198,-1,197,198,174,-1,174,198,199,-1,174,199,172,-1,194,200,192,-1,192,200,201,-1,192,201,202,-1,202,201,203,-1,202,203,195,-1,195,203,191,-1,195,191,196,-1,196,191,189,-1,23,22,204,-1,204,22,205,-1,204,205,206,-1,207,208,209,-1,210,211,206,-1,212,213,214,-1,210,206,215,-1,212,214,206,-1,206,214,216,-1,206,216,215,-1,217,218,219,-1,220,221,20,-1,222,223,224,-1,208,225,209,-1,209,225,226,-1,209,226,224,-1,224,226,227,-1,224,227,222,-1,228,229,20,-1,20,229,230,-1,223,231,224,-1,224,231,232,-1,224,232,233,-1,233,232,234,-1,233,234,220,-1,235,236,221,-1,221,236,237,-1,221,237,20,-1,20,237,238,-1,20,238,228,-1,230,239,20,-1,20,239,240,-1,20,240,18,-1,241,242,243,-1,243,242,244,-1,243,244,245,-1,243,246,241,-1,241,246,247,-1,241,247,248,-1,248,249,241,-1,241,249,250,-1,241,250,251,-1,251,250,252,-1,251,252,253,-1,253,252,254,-1,253,254,221,-1,221,254,255,-1,221,255,235,-1,256,257,245,-1,245,257,258,-1,245,258,243,-1,259,260,213,-1,213,260,261,-1,213,261,214,-1,259,262,260,-1,260,262,263,-1,260,263,264,-1,264,263,265,-1,264,266,267,-1,265,268,264,-1,264,268,269,-1,264,269,270,-1,270,271,264,-1,264,271,272,-1,264,272,266,-1,267,273,264,-1,264,273,274,-1,264,274,275,-1,276,277,278,-1,278,277,174,-1,278,174,279,-1,279,174,280,-1,279,280,281,-1,282,197,283,-1,283,197,174,-1,283,174,284,-1,284,174,277,-1,285,286,287,-1,287,286,288,-1,289,290,291,-1,291,290,292,-1,290,293,292,-1,292,293,294,-1,292,294,295,-1,288,296,297,-1,297,296,298,-1,297,298,299,-1,300,224,301,-1,301,224,233,-1,301,233,302,-1,302,233,195,-1,302,195,291,-1,303,304,285,-1,285,304,305,-1,285,305,286,-1,306,307,39,-1,308,47,309,-1,309,47,39,-1,309,39,310,-1,310,39,307,-1,311,312,313,-1,313,312,314,-1,313,314,315,-1,315,316,313,-1,313,316,317,-1,313,317,306,-1,318,209,319,-1,319,209,224,-1,319,224,320,-1,320,224,321,-1,322,323,324,-1,324,323,325,-1,324,325,326,-1,326,325,321,-1,326,321,327,-1,327,321,224,-1,327,224,303,-1,303,224,300,-1,303,300,304,-1,328,329,324,-1,324,329,330,-1,324,330,331,-1,332,333,334,-1,334,333,335,-1,328,336,329,-1,329,336,337,-1,329,337,338,-1,338,337,335,-1,338,335,339,-1,339,335,333,-1,331,340,324,-1,324,340,341,-1,324,341,342,-1,342,343,324,-1,324,343,344,-1,324,344,322,-1,345,346,347,-1,347,346,348,-1,347,348,303,-1,303,348,349,-1,303,349,327,-1,350,351,352,-1,352,351,353,-1,352,353,345,-1,17,354,355,-1,355,356,17,-1,17,356,357,-1,17,357,15,-1,358,359,17,-1,17,359,360,-1,17,360,354,-1,5,361,358,-1,358,361,362,-1,358,362,359,-1,363,364,4,-1,363,4,365,-1,364,366,4,-1,4,366,367,-1,4,367,5,-1,5,367,368,-1,5,368,361,-1,318,369,209,-1,209,369,370,-1,209,370,4,-1,4,370,371,-1,4,371,365,-1,372,373,374,-1,374,373,375,-1,204,376,377,-1,378,379,377,-1,377,379,380,-1,377,380,204,-1,381,382,383,-1,209,384,385,-1,372,386,373,-1,373,386,387,-1,373,387,388,-1,388,387,383,-1,388,383,389,-1,389,383,382,-1,211,207,206,-1,206,207,209,-1,206,209,204,-1,204,209,385,-1,204,385,376,-1,390,391,3,-1,3,391,392,-1,3,392,393,-1,373,394,375,-1,375,394,4,-1,375,4,395,-1,395,4,3,-1,395,3,396,-1,397,398,377,-1,377,398,399,-1,377,399,378,-1,393,400,3,-1,3,400,401,-1,3,401,396,-1,402,403,383,-1,383,403,404,-1,383,404,405,-1,394,406,4,-1,4,406,407,-1,4,407,209,-1,209,407,408,-1,408,409,209,-1,209,409,410,-1,209,410,411,-1,411,412,209,-1,209,412,413,-1,209,413,384,-1,405,414,383,-1,383,414,415,-1,383,415,381,-1,416,417,418,-1,418,417,419,-1,418,419,380,-1,420,421,20,-1,20,421,422,-1,220,20,233,-1,233,20,422,-1,233,422,195,-1,195,422,423,-1,195,423,202,-1,424,421,425,-1,425,421,420,-1,425,420,426,-1,427,428,429,-1,430,431,420,-1,420,431,432,-1,420,432,426,-1,218,217,19,-1,19,217,427,-1,19,427,20,-1,20,427,429,-1,20,429,420,-1,420,429,433,-1,420,433,434,-1,435,436,437,-1,437,436,438,-1,437,438,427,-1,427,438,439,-1,427,439,428,-1,434,440,420,-1,420,440,441,-1,420,441,430,-1,442,443,444,-1,442,444,190,-1,443,445,444,-1,444,445,446,-1,444,446,437,-1,437,446,447,-1,437,447,435,-1,448,10,449,-1,449,10,9,-1,449,9,450,-1,450,9,451,-1,452,453,454,-1,455,456,457,-1,454,453,280,-1,280,453,458,-1,280,458,459,-1,457,452,455,-1,455,452,454,-1,455,454,460,-1,460,454,451,-1,460,451,459,-1,459,451,9,-1,459,9,280,-1,280,9,11,-1,280,11,281,-1,281,11,461,-1,281,461,462,-1,462,461,463,-1,464,465,280,-1,280,465,466,-1,280,466,454,-1,454,466,467,-1,454,467,468,-1,468,469,454,-1,454,469,470,-1,454,470,471,-1,471,472,454,-1,454,472,473,-1,454,473,175,-1,175,473,474,-1,175,474,174,-1,474,475,174,-1,174,475,476,-1,174,476,280,-1,280,476,477,-1,280,477,478,-1,478,479,280,-1,280,479,480,-1,280,480,464,-1,190,444,177,-1,177,444,481,-1,177,481,175,-1,175,481,482,-1,175,482,454,-1,454,482,14,-1,454,14,451,-1,451,14,13,-1,451,13,450,-1,6,8,483,-1,297,289,288,-1,288,289,291,-1,288,291,287,-1,287,291,195,-1,287,195,484,-1,485,486,197,-1,197,486,487,-1,197,487,488,-1,463,461,282,-1,282,461,8,-1,282,8,197,-1,197,8,7,-1,197,7,485,-1,488,489,197,-1,197,489,490,-1,197,490,195,-1,195,490,491,-1,195,491,484,-1,484,492,287,-1,287,492,493,-1,287,493,8,-1,8,493,494,-1,8,494,495,-1,495,496,8,-1,8,496,497,-1,8,497,483,-1,380,419,204,-1,204,419,217,-1,204,217,23,-1,23,217,219,-1,23,219,21,-1,345,347,352,-1,352,347,303,-1,352,303,498,-1,498,303,285,-1,498,285,499,-1,499,285,287,-1,499,287,500,-1,500,287,8,-1,500,8,501,-1,501,8,461,-1,501,461,502,-1,502,461,11,-1,502,11,503,-1,503,11,10,-1,503,10,504,-1,504,10,448,-1,504,448,505,-1,12,14,506,-1,506,14,482,-1,506,482,507,-1,507,482,481,-1,507,481,508,-1,508,481,444,-1,508,444,509,-1,509,444,437,-1,509,437,510,-1,510,437,427,-1,510,427,511,-1,511,427,217,-1,511,217,512,-1,512,217,419,-1,512,419,513,-1,513,419,417,-1,513,417,514,-1,515,516,514,-1,516,81,72,-1,72,81,85,-1,72,85,70,-1,516,515,81,-1,81,515,96,-1,81,96,79,-1,79,96,121,-1,79,121,131,-1,517,518,519,-1,519,518,520,-1,416,390,417,-1,417,390,3,-1,417,3,519,-1,519,3,5,-1,519,5,517,-1,517,5,521,-1,514,417,515,-1,515,417,519,-1,515,519,96,-1,96,519,520,-1,96,520,28,-1,28,520,522,-1,28,522,5,-1,5,522,523,-1,5,523,521,-1,524,525,526,-1,526,525,517,-1,526,517,527,-1,527,517,521,-1,527,521,528,-1,528,521,529,-1,530,531,26,-1,26,531,0,-1,26,0,358,-1,358,0,2,-1,358,2,5,-1,5,2,532,-1,5,532,28,-1,28,532,530,-1,28,530,26,-1,24,26,39,-1,39,26,358,-1,39,358,533,-1,533,358,17,-1,533,17,350,-1,350,17,16,-1,350,16,351,-1,306,39,313,-1,313,39,533,-1,313,533,534,-1,534,533,350,-1,534,350,535,-1,535,350,352,-1,535,352,536,-1,536,352,498,-1,536,498,537,-1,537,498,499,-1,537,499,538,-1,538,499,500,-1,538,500,539,-1,539,500,501,-1,539,501,540,-1,540,501,502,-1,540,502,541,-1,541,502,503,-1,541,503,542,-1,542,503,504,-1,542,504,543,-1,543,504,505,-1,543,505,544,-1,545,546,547,-1,547,546,548,-1,549,550,551,-1,551,550,552,-1,553,312,554,-1,554,312,311,-1,555,556,557,-1,557,558,555,-1,555,558,559,-1,555,559,560,-1,561,562,563,-1,563,562,564,-1,563,564,565,-1,565,564,566,-1,565,566,567,-1,567,566,555,-1,567,555,568,-1,568,555,560,-1,569,570,571,-1,572,573,571,-1,573,574,571,-1,571,574,575,-1,571,575,569,-1,576,577,578,-1,578,577,579,-1,578,579,580,-1,580,579,581,-1,580,581,571,-1,571,581,582,-1,571,582,572,-1,577,576,561,-1,561,576,562,-1,583,584,585,-1,555,586,571,-1,571,586,587,-1,571,587,580,-1,580,587,588,-1,580,588,583,-1,583,585,580,-1,580,585,589,-1,580,589,566,-1,590,591,566,-1,566,591,555,-1,555,591,592,-1,555,592,593,-1,594,555,595,-1,595,555,593,-1,595,593,596,-1,593,590,596,-1,596,590,566,-1,596,566,597,-1,597,566,589,-1,597,589,594,-1,594,589,598,-1,594,598,555,-1,555,598,584,-1,555,584,586,-1,586,584,583,-1,599,600,601,-1,601,600,602,-1,603,604,605,-1,605,604,606,-1,607,608,609,-1,609,608,610,-1,611,612,613,-1,613,612,614,-1,615,616,612,-1,612,616,617,-1,612,617,614,-1,614,617,618,-1,614,618,619,-1,619,620,614,-1,614,620,621,-1,614,621,622,-1,622,623,614,-1,614,623,624,-1,614,624,546,-1,546,624,548,-1,625,76,61,-1,626,616,627,-1,627,616,615,-1,627,615,625,-1,625,615,74,-1,625,74,76,-1,61,44,625,-1,625,44,42,-1,625,42,628,-1,628,42,47,-1,628,47,308,-1,629,544,630,-1,630,544,12,-1,631,632,633,-1,634,635,636,-1,551,552,637,-1,544,629,311,-1,311,629,638,-1,634,636,631,-1,631,636,639,-1,631,639,632,-1,551,637,633,-1,640,608,607,-1,603,631,604,-1,604,631,633,-1,604,633,641,-1,641,633,637,-1,641,637,642,-1,546,545,643,-1,644,645,311,-1,311,645,646,-1,311,646,554,-1,647,546,648,-1,648,546,643,-1,648,643,649,-1,647,650,546,-1,546,650,651,-1,546,651,614,-1,614,651,613,-1,652,653,638,-1,638,653,654,-1,654,655,638,-1,638,655,656,-1,638,656,311,-1,311,656,657,-1,311,657,644,-1,650,658,651,-1,651,658,635,-1,651,635,659,-1,659,635,634,-1,659,634,602,-1,602,634,601,-1,607,642,640,-1,640,642,637,-1,640,637,638,-1,638,637,660,-1,638,660,652,-1,630,12,661,-1,661,12,74,-1,661,74,662,-1,662,74,615,-1,663,609,610,-1,612,611,615,-1,615,611,664,-1,615,664,665,-1,600,599,665,-1,665,599,666,-1,665,666,615,-1,615,666,667,-1,610,662,663,-1,663,662,615,-1,663,615,668,-1,668,615,667,-1,668,667,606,-1,606,667,605,-1,669,547,548,-1,312,553,670,-1,671,669,672,-1,672,669,548,-1,672,548,556,-1,556,548,624,-1,670,673,312,-1,312,673,674,-1,312,674,314,-1,314,674,570,-1,570,674,675,-1,570,675,571,-1,571,675,676,-1,571,676,677,-1,677,678,571,-1,571,678,679,-1,571,679,680,-1,680,681,571,-1,571,681,682,-1,571,682,555,-1,683,555,684,-1,684,555,685,-1,550,549,682,-1,682,549,686,-1,682,686,555,-1,555,686,687,-1,555,687,685,-1,683,688,555,-1,555,688,689,-1,555,689,556,-1,556,689,690,-1,556,690,672,-1,691,664,611,-1,691,611,692,-1,692,611,613,-1,692,613,651,-1,665,693,600,-1,600,693,694,-1,600,694,602,-1,602,694,659,-1,695,691,692,-1,691,695,693,-1,693,695,696,-1,693,696,694,-1,694,696,697,-1,694,697,692,-1,692,697,698,-1,692,698,695,-1,664,691,665,-1,665,691,693,-1,659,694,651,-1,651,694,692,-1,640,699,608,-1,608,699,700,-1,608,700,610,-1,610,700,662,-1,701,638,629,-1,701,629,702,-1,702,629,630,-1,702,630,661,-1,703,700,699,-1,700,703,702,-1,702,703,704,-1,702,704,701,-1,701,704,705,-1,701,705,699,-1,699,705,706,-1,699,706,703,-1,707,668,606,-1,707,606,708,-1,708,606,604,-1,708,604,641,-1,663,709,609,-1,609,709,710,-1,609,710,607,-1,607,710,642,-1,711,707,708,-1,707,711,709,-1,709,711,712,-1,709,712,710,-1,710,712,713,-1,710,713,708,-1,708,713,714,-1,708,714,711,-1,715,666,599,-1,715,599,716,-1,716,599,601,-1,716,601,634,-1,667,717,605,-1,605,717,718,-1,605,718,603,-1,603,718,631,-1,719,715,716,-1,715,719,717,-1,717,719,720,-1,717,720,718,-1,718,720,721,-1,718,721,716,-1,716,721,722,-1,716,722,719,-1,666,715,667,-1,667,715,717,-1,631,718,634,-1,634,718,716,-1,668,707,663,-1,663,707,709,-1,642,710,641,-1,641,710,708,-1,662,700,661,-1,661,700,702,-1,638,701,640,-1,640,701,699,-1,
        ]
    }
}
Shape{
    appearance Appearance {
        material  Material {
            diffuseColor 0.7529411764705882 0.7529411764705882 0.7529411764705882
            specularColor 0.3764705882352941 0.3764705882352941 0.3764705882352941
            ambientIntensity 0.7529
            transparency 0.0
            shininess 0.5
        }
    }
    geometry IndexedFaceSet {
        ccw TRUE
        solid FALSE
        coord DEF co Coordinate {
            point [
                -0.6465 -0.0969 1.3858, -0.3945 -0.0969 1.3858, -0.3945 -0.0133 1.3748, -0.6465 -0.0133 1.3748, -0.3945 0.0646 1.3426, -0.6465 0.0646 1.3426, -0.3945 0.1314 1.2913, -0.6465 0.1314 1.2913, -0.3945 0.1827 1.2244, -0.6465 0.1827 1.2244, -0.3945 0.215 1.1465, -0.6465 0.215 1.1465, -0.3945 0.226 1.063, -0.6465 0.226 1.063, -0.6465 0.226 -1.1417, -0.3945 0.226 -1.1417, -0.4662 0.1543 -1.3386, -0.4662 0.0457 -1.3386, -0.5748 0.1543 -1.3386, -0.5748 0.0457 -1.3386, -0.3945 -0.026 -1.1417, -0.3945 -0.026 1.063, -0.6465 -0.026 -1.1417, -0.6465 -0.026 1.063, -0.6465 -0.0284 1.0813, -0.3945 -0.0284 1.0813, -0.6465 -0.0355 1.0984, -0.3945 -0.0355 1.0984, -0.6465 -0.0467 1.1131, -0.3945 -0.0467 1.1131, -0.6465 -0.0614 1.1244, -0.3945 -0.0614 1.1244, -0.6465 -0.0785 1.1314, -0.3945 -0.0785 1.1314, -0.6465 -0.0969 1.1339, -0.3945 -0.0969 1.1339, -0.6465 -0.2228 1.1339, -0.6465 -0.2228 1.3858, -0.3945 -0.2228 1.1339, -0.3945 -0.2228 1.3858, -0.6465 -2.1441 1.1339, -0.6465 -1.0102 1.1339, -0.3945 -2.1441 1.1339, -0.3945 -1.0102 1.1339, -0.3945 -2.1441 1.3858, -0.3945 -1.0102 1.3858, -0.6465 -2.1441 1.3858, -0.6465 -1.0102 1.3858, -0.4662 -2.3409 1.2055, -0.4662 -2.3409 1.3142, -0.5748 -2.3409 1.2055, -0.5748 -2.3409 1.3142, -1.6307 -0.0969 1.3858, -1.3788 -0.0969 1.3858, -1.3788 -0.0133 1.3748, -1.6307 -0.0133 1.3748, -1.3788 0.0646 1.3426, -1.6307 0.0646 1.3426, -1.3788 0.1314 1.2913, -1.6307 0.1314 1.2913, -1.3788 0.1827 1.2244, -1.6307 0.1827 1.2244, -1.3788 0.215 1.1465, -1.6307 0.215 1.1465, -1.3788 0.226 1.063, -1.6307 0.226 1.063, -1.6307 0.226 -1.1417, -1.3788 0.226 -1.1417, -1.4504 0.1543 -1.3386, -1.4504 0.0457 -1.3386, -1.5591 0.1543 -1.3386, -1.5591 0.0457 -1.3386, -1.3788 -0.026 -1.1417, -1.3788 -0.026 1.063, -1.6307 -0.026 -1.1417, -1.6307 -0.026 1.063, -1.6307 -0.0284 1.0813, -1.3788 -0.0284 1.0813, -1.6307 -0.0355 1.0984, -1.3788 -0.0355 1.0984, -1.6307 -0.0467 1.1131, -1.3788 -0.0467 1.1131, -1.6307 -0.0614 1.1244, -1.3788 -0.0614 1.1244, -1.6307 -0.0785 1.1314, -1.3788 -0.0785 1.1314, -1.6307 -0.0969 1.1339, -1.3788 -0.0969 1.1339, -1.6307 -0.2228 1.1339, -1.6307 -0.2228 1.3858, -1.3788 -0.2228 1.1339, -1.3788 -0.2228 1.3858, -1.6307 -2.1441 1.1339, -1.6307 -1.0102 1.1339, -1.3788 -2.1441 1.1339, -1.3788 -1.0102 1.1339, -1.3788 -2.1441 1.3858, -1.3788 -1.0102 1.3858, -1.6307 -2.1441 1.3858, -1.6307 -1.0102 1.3858, -1.4504 -2.3409 1.2055, -1.4504 -2.3409 1.3142, -1.5591 -2.3409 1.2055, -1.5591 -2.3409 1.3142, 0.3378 -0.0969 1.3858, 0.5897 -0.0969 1.3858, 0.5897 -0.0133 1.3748, 0.3378 -0.0133 1.3748, 0.5897 0.0646 1.3426, 0.3378 0.0646 1.3426, 0.5897 0.1314 1.2913, 0.3378 0.1314 1.2913, 0.5897 0.1827 1.2244, 0.3378 0.1827 1.2244, 0.5897 0.215 1.1465, 0.3378 0.215 1.1465, 0.5897 0.226 1.063, 0.3378 0.226 1.063, 0.3378 0.226 -1.1417, 0.5897 0.226 -1.1417, 0.5181 0.1543 -1.3386, 0.5181 0.0457 -1.3386, 0.4094 0.1543 -1.3386, 0.4094 0.0457 -1.3386, 0.5897 -0.026 -1.1417, 0.5897 -0.026 1.063, 0.3378 -0.026 -1.1417, 0.3378 -0.026 1.063, 0.3378 -0.0284 1.0813, 0.5897 -0.0284 1.0813, 0.3378 -0.0355 1.0984, 0.5897 -0.0355 1.0984, 0.3378 -0.0467 1.1131, 0.5897 -0.0467 1.1131, 0.3378 -0.0614 1.1244, 0.5897 -0.0614 1.1244, 0.3378 -0.0785 1.1314, 0.5897 -0.0785 1.1314, 0.3378 -0.0969 1.1339, 0.5897 -0.0969 1.1339, 0.3378 -0.2228 1.1339, 0.3378 -0.2228 1.3858, 0.5897 -0.2228 1.1339, 0.5897 -0.2228 1.3858, 0.3378 -2.1441 1.1339, 0.3378 -1.0102 1.1339, 0.5897 -2.1441 1.1339, 0.5897 -1.0102 1.1339, 0.5897 -2.1441 1.3858, 0.5897 -1.0102 1.3858, 0.3378 -2.1441 1.3858, 0.3378 -1.0102 1.3858, 0.5181 -2.3409 1.2055, 0.5181 -2.3409 1.3142, 0.4094 -2.3409 1.2055, 0.4094 -2.3409 1.3142, 1.322 -0.0969 1.3858, 1.574 -0.0969 1.3858, 1.574 -0.0133 1.3748, 1.322 -0.0133 1.3748, 1.574 0.0646 1.3426, 1.322 0.0646 1.3426, 1.574 0.1314 1.2913, 1.322 0.1314 1.2913, 1.574 0.1827 1.2244, 1.322 0.1827 1.2244, 1.574 0.215 1.1465, 1.322 0.215 1.1465, 1.574 0.226 1.063, 1.322 0.226 1.063, 1.322 0.226 -1.1417, 1.574 0.226 -1.1417, 1.5023 0.1543 -1.3386, 1.5023 0.0457 -1.3386, 1.3937 0.1543 -1.3386, 1.3937 0.0457 -1.3386, 1.574 -0.026 -1.1417, 1.574 -0.026 1.063, 1.322 -0.026 -1.1417, 1.322 -0.026 1.063, 1.322 -0.0284 1.0813, 1.574 -0.0284 1.0813, 1.322 -0.0355 1.0984, 1.574 -0.0355 1.0984, 1.322 -0.0467 1.1131, 1.574 -0.0467 1.1131, 1.322 -0.0614 1.1244, 1.574 -0.0614 1.1244, 1.322 -0.0785 1.1314, 1.574 -0.0785 1.1314, 1.322 -0.0969 1.1339, 1.574 -0.0969 1.1339, 1.322 -0.2228 1.1339, 1.322 -0.2228 1.3858, 1.574 -0.2228 1.1339, 1.574 -0.2228 1.3858, 1.322 -2.1441 1.1339, 1.322 -1.0102 1.1339, 1.574 -2.1441 1.1339, 1.574 -1.0102 1.1339, 1.574 -2.1441 1.3858, 1.574 -1.0102 1.3858, 1.322 -2.1441 1.3858, 1.322 -1.0102 1.3858, 1.5023 -2.3409 1.2055, 1.5023 -2.3409 1.3142, 1.3937 -2.3409 1.2055, 1.3937 -2.3409 1.3142
            ]
        }
        coordIndex [
            0,1,2,-1,0,2,3,-1,3,2,4,-1,3,4,5,-1,5,4,6,-1,5,6,7,-1,7,6,8,-1,7,8,9,-1,9,8,10,-1,9,10,11,-1,11,10,12,-1,11,12,13,-1,14,13,15,-1,15,13,12,-1,16,17,18,-1,18,17,19,-1,20,21,22,-1,22,21,23,-1,23,21,24,-1,24,21,25,-1,24,25,26,-1,26,25,27,-1,26,27,28,-1,28,27,29,-1,28,29,30,-1,30,29,31,-1,30,31,32,-1,32,31,33,-1,32,33,34,-1,34,33,35,-1,36,37,34,-1,34,37,0,-1,34,0,32,-1,32,0,3,-1,32,3,30,-1,30,3,5,-1,30,5,28,-1,28,5,7,-1,28,7,26,-1,26,7,9,-1,26,9,24,-1,24,9,11,-1,24,11,23,-1,23,11,13,-1,23,13,22,-1,22,13,14,-1,20,15,21,-1,21,15,12,-1,21,12,25,-1,25,12,10,-1,25,10,27,-1,27,10,8,-1,27,8,29,-1,29,8,6,-1,29,6,31,-1,31,6,4,-1,31,4,33,-1,33,4,2,-1,33,2,35,-1,35,2,1,-1,35,1,38,-1,38,1,39,-1,1,0,39,-1,39,0,37,-1,36,34,38,-1,38,34,35,-1,40,41,42,-1,42,41,43,-1,44,45,46,-1,46,45,47,-1,46,47,40,-1,40,47,41,-1,42,43,44,-1,44,43,45,-1,48,49,50,-1,50,49,51,-1,46,51,44,-1,44,51,49,-1,40,50,46,-1,46,50,51,-1,48,42,49,-1,49,42,44,-1,42,48,40,-1,40,48,50,-1,22,19,20,-1,20,19,17,-1,14,18,22,-1,22,18,19,-1,16,15,17,-1,17,15,20,-1,15,16,14,-1,14,16,18,-1,52,53,54,-1,52,54,55,-1,55,54,56,-1,55,56,57,-1,57,56,58,-1,57,58,59,-1,59,58,60,-1,59,60,61,-1,61,60,62,-1,61,62,63,-1,63,62,64,-1,63,64,65,-1,66,65,67,-1,67,65,64,-1,68,69,70,-1,70,69,71,-1,72,73,74,-1,74,73,75,-1,75,73,76,-1,76,73,77,-1,76,77,78,-1,78,77,79,-1,78,79,80,-1,80,79,81,-1,80,81,82,-1,82,81,83,-1,82,83,84,-1,84,83,85,-1,84,85,86,-1,86,85,87,-1,88,89,86,-1,86,89,52,-1,86,52,84,-1,84,52,55,-1,84,55,82,-1,82,55,57,-1,82,57,80,-1,80,57,59,-1,80,59,78,-1,78,59,61,-1,78,61,76,-1,76,61,63,-1,76,63,75,-1,75,63,65,-1,75,65,74,-1,74,65,66,-1,72,67,73,-1,73,67,64,-1,73,64,77,-1,77,64,62,-1,77,62,79,-1,79,62,60,-1,79,60,81,-1,81,60,58,-1,81,58,83,-1,83,58,56,-1,83,56,85,-1,85,56,54,-1,85,54,87,-1,87,54,53,-1,87,53,90,-1,90,53,91,-1,53,52,91,-1,91,52,89,-1,88,86,90,-1,90,86,87,-1,92,93,94,-1,94,93,95,-1,96,97,98,-1,98,97,99,-1,98,99,92,-1,92,99,93,-1,94,95,96,-1,96,95,97,-1,100,101,102,-1,102,101,103,-1,104,105,106,-1,104,106,107,-1,107,106,108,-1,107,108,109,-1,109,108,110,-1,109,110,111,-1,111,110,112,-1,111,112,113,-1,113,112,114,-1,113,114,115,-1,115,114,116,-1,115,116,117,-1,118,117,119,-1,119,117,116,-1,120,121,122,-1,122,121,123,-1,124,125,126,-1,126,125,127,-1,127,125,128,-1,128,125,129,-1,128,129,130,-1,130,129,131,-1,130,131,132,-1,132,131,133,-1,132,133,134,-1,134,133,135,-1,134,135,136,-1,136,135,137,-1,136,137,138,-1,138,137,139,-1,140,141,138,-1,138,141,104,-1,138,104,136,-1,136,104,107,-1,136,107,134,-1,134,107,109,-1,134,109,132,-1,132,109,111,-1,132,111,130,-1,130,111,113,-1,130,113,128,-1,128,113,115,-1,128,115,127,-1,127,115,117,-1,127,117,126,-1,126,117,118,-1,124,119,125,-1,125,119,116,-1,125,116,129,-1,129,116,114,-1,129,114,131,-1,131,114,112,-1,131,112,133,-1,133,112,110,-1,133,110,135,-1,135,110,108,-1,135,108,137,-1,137,108,106,-1,137,106,139,-1,139,106,105,-1,139,105,142,-1,142,105,143,-1,105,104,143,-1,143,104,141,-1,140,138,142,-1,142,138,139,-1,144,145,146,-1,146,145,147,-1,148,149,150,-1,150,149,151,-1,150,151,144,-1,144,151,145,-1,146,147,148,-1,148,147,149,-1,152,153,154,-1,154,153,155,-1,156,157,158,-1,156,158,159,-1,159,158,160,-1,159,160,161,-1,161,160,162,-1,161,162,163,-1,163,162,164,-1,163,164,165,-1,165,164,166,-1,165,166,167,-1,167,166,168,-1,167,168,169,-1,170,169,171,-1,171,169,168,-1,172,173,174,-1,174,173,175,-1,176,177,178,-1,178,177,179,-1,179,177,180,-1,180,177,181,-1,180,181,182,-1,182,181,183,-1,182,183,184,-1,184,183,185,-1,184,185,186,-1,186,185,187,-1,186,187,188,-1,188,187,189,-1,188,189,190,-1,190,189,191,-1,192,193,190,-1,190,193,156,-1,190,156,188,-1,188,156,159,-1,188,159,186,-1,186,159,161,-1,186,161,184,-1,184,161,163,-1,184,163,182,-1,182,163,165,-1,182,165,180,-1,180,165,167,-1,180,167,179,-1,179,167,169,-1,179,169,178,-1,178,169,170,-1,176,171,177,-1,177,171,168,-1,177,168,181,-1,181,168,166,-1,181,166,183,-1,183,166,164,-1,183,164,185,-1,185,164,162,-1,185,162,187,-1,187,162,160,-1,187,160,189,-1,189,160,158,-1,189,158,191,-1,191,158,157,-1,191,157,194,-1,194,157,195,-1,157,156,195,-1,195,156,193,-1,192,190,194,-1,194,190,191,-1,196,197,198,-1,198,197,199,-1,200,201,202,-1,202,201,203,-1,202,203,196,-1,196,203,197,-1,198,199,200,-1,200,199,201,-1,204,205,206,-1,206,205,207,-1,98,103,96,-1,96,103,101,-1,92,102,98,-1,98,102,103,-1,100,94,101,-1,101,94,96,-1,94,100,92,-1,92,100,102,-1,74,71,72,-1,72,71,69,-1,66,70,74,-1,74,70,71,-1,68,67,69,-1,69,67,72,-1,67,68,66,-1,66,68,70,-1,150,155,148,-1,148,155,153,-1,144,154,150,-1,150,154,155,-1,152,146,153,-1,153,146,148,-1,146,152,144,-1,144,152,154,-1,126,123,124,-1,124,123,121,-1,118,122,126,-1,126,122,123,-1,120,119,121,-1,121,119,124,-1,119,120,118,-1,118,120,122,-1,202,207,200,-1,200,207,205,-1,196,206,202,-1,202,206,207,-1,204,198,205,-1,205,198,200,-1,198,204,196,-1,196,204,206,-1,178,175,176,-1,176,175,173,-1,170,174,178,-1,178,174,175,-1,172,171,173,-1,173,171,176,-1,171,172,170,-1,170,172,174,-1,
        ]
    }
}
Shape{
    appearance Appearance {
        material  Material {
            diffuseColor 1.0 1.0 1.0
            specularColor 0.5019607843137255 0.5019607843137255 0.5019607843137255
            ambientIntensity 1.0
            transparency 0.0
            shininess 0.5
        }
    }
    geometry IndexedFaceSet {
        ccw TRUE
        solid FALSE
        coord DEF co Coordinate {
            point [
                2.0386 -1.1283 0.3937, 2.0386 -1.1283 0.9055, -2.0953 -1.1283 0.3937, -2.0953 -1.1283 0.9055, -2.0953 -1.0102 1.0236, 2.0386 -1.0102 1.0236, 2.1567 -2.7819 1.5354, 2.4323 -2.7819 1.5354, 2.0386 -2.6638 1.5354, 2.4323 -1.6008 1.5354, 2.0386 -1.6008 1.5354, 2.4323 -1.6008 1.6142, 2.0386 -1.6008 1.6142, 2.0386 -1.6115 1.6957, 2.4323 -1.6115 1.6957, 2.0386 -1.643 1.7717, 2.4323 -1.643 1.7717, 2.0386 -1.693 1.8369, 2.4323 -1.693 1.8369, 2.0386 -1.7583 1.8869, 2.4323 -1.7583 1.8869, 2.0386 -1.8342 1.9184, 2.4323 -1.8342 1.9184, 2.0386 -1.9157 1.9291, 2.4323 -1.9157 1.9291, -2.489 -1.6008 1.5354, -2.0953 -1.6008 1.5354, -2.489 -1.6008 1.6142, -2.0953 -1.6008 1.6142, -2.0953 -2.6638 1.5354, -2.2134 -2.7819 1.5354, -2.489 -2.7819 1.5354, -2.489 -1.6115 1.6957, -2.0953 -1.6115 1.6957, -2.489 -1.643 1.7717, -2.0953 -1.643 1.7717, -2.489 -1.693 1.8369, -2.0953 -1.693 1.8369, -2.489 -1.7583 1.8869, -2.0953 -1.7583 1.8869, -2.489 -1.8342 1.9184, -2.0953 -1.8342 1.9184, -2.489 -1.9157 1.9291, -2.0953 -1.9157 1.9291, 1.133 -2.7819 1.9291, 1.133 -1.4827 1.9291, 1.133 -2.7819 2.3228, 1.133 -1.4827 2.3228, 1.448 -1.4827 2.3228, 1.448 -1.4827 1.9291, 1.6449 -1.6795 1.9291, 1.6449 -2.3166 1.9291, 1.6449 -1.6795 2.3228, 1.6449 -2.3166 2.3228, 1.5267 -2.4994 1.9291, 1.5267 -2.4994 2.3228, 1.6449 -2.6866 1.9291, 1.6449 -2.6866 2.3228, 1.6449 -2.7819 1.9291, 1.6449 -2.7819 2.3228, -1.7016 -2.7819 1.9291, -1.7016 -2.6866 1.9291, -1.7016 -2.7819 2.3228, -1.7016 -2.6866 2.3228, -1.5835 -2.4994 1.9291, -1.5835 -2.4994 2.3228, -1.7016 -2.3166 1.9291, -1.7016 -2.3166 2.3228, -1.7016 -1.6795 2.3228, -1.7016 -1.6795 1.9291, -1.5047 -1.4827 1.9291, -1.1898 -1.4827 1.9291, -1.5047 -1.4827 2.3228, -1.1898 -1.4827 2.3228, -1.1898 -2.7819 1.9291, -1.1898 -2.7819 2.3228, -1.6949 -1.6286 2.3228, -1.6949 -1.6286 1.9291, -1.6752 -1.5811 2.3228, -1.6752 -1.5811 1.9291, -1.6439 -1.5403 2.3228, -1.6439 -1.5403 1.9291, -1.6032 -1.509 2.3228, -1.6032 -1.509 1.9291, -1.5557 -1.4894 2.3228, -1.5557 -1.4894 1.9291, 1.499 -1.4894 2.3228, 1.499 -1.4894 1.9291, 1.5464 -1.509 2.3228, 1.5464 -1.509 1.9291, 1.5872 -1.5403 2.3228, 1.5872 -1.5403 1.9291, 1.6185 -1.5811 2.3228, 1.6185 -1.5811 1.9291, 1.6382 -1.6286 2.3228, 1.6382 -1.6286 1.9291
            ]
        }
        coordIndex [
            0,1,2,-1,2,1,3,-1,4,3,5,-1,5,3,1,-1,6,7,8,-1,8,7,9,-1,8,9,10,-1,11,12,9,-1,9,12,10,-1,12,11,13,-1,13,11,14,-1,13,14,15,-1,15,14,16,-1,15,16,17,-1,17,16,18,-1,17,18,19,-1,19,18,20,-1,19,20,21,-1,21,20,22,-1,21,22,23,-1,23,22,24,-1,25,26,27,-1,27,26,28,-1,29,26,30,-1,30,26,25,-1,30,25,31,-1,27,28,32,-1,32,28,33,-1,32,33,34,-1,34,33,35,-1,34,35,36,-1,36,35,37,-1,36,37,38,-1,38,37,39,-1,38,39,40,-1,40,39,41,-1,40,41,42,-1,42,41,43,-1,44,45,46,-1,46,45,47,-1,48,47,49,-1,49,47,45,-1,50,51,52,-1,52,51,53,-1,51,54,53,-1,53,54,55,-1,54,56,55,-1,55,56,57,-1,56,58,57,-1,57,58,59,-1,60,61,62,-1,62,61,63,-1,61,64,63,-1,63,64,65,-1,64,66,65,-1,65,66,67,-1,68,67,69,-1,69,67,66,-1,70,71,72,-1,72,71,73,-1,71,74,73,-1,73,74,75,-1,68,69,76,-1,76,69,77,-1,76,77,78,-1,78,77,79,-1,78,79,80,-1,80,79,81,-1,80,81,82,-1,82,81,83,-1,82,83,84,-1,84,83,85,-1,84,85,72,-1,72,85,70,-1,48,49,86,-1,86,49,87,-1,86,87,88,-1,88,87,89,-1,88,89,90,-1,90,89,91,-1,90,91,92,-1,92,91,93,-1,92,93,94,-1,94,93,95,-1,94,95,52,-1,52,95,50,-1,
        ]
    }
}
Shape{
    appearance Appearance {
        material  Material {
            diffuseColor 0.0 0.0 0.0
            specularColor 0.0 0.0 0.0
            ambientIntensity 0.0
            transparency 0.0
            shininess 0.5
        }
    }
    geometry IndexedFaceSet {
        ccw TRUE
        solid FALSE
        coord DEF co Coordinate {
            point [
                2.4362 -1.0811 0.5902, 2.4362 -1.0811 0.575, 2.4323 -1.0811 0.5902, 2.4323 -1.0811 0.575, 2.4362 -1.1343 0.5902, 2.4323 -1.1343 0.5902, 2.4362 -1.1343 0.7084, 2.4323 -1.1343 0.7084, 2.4362 -1.1515 0.7084, 2.4323 -1.1515 0.7084, 2.4362 -1.1515 0.575, 2.4323 -1.1515 0.575, 2.4362 -1.0127 0.5727, 2.4323 -1.0127 0.5727, 2.4323 -0.9924 0.5747, 2.4323 -0.9815 0.5783, 2.4362 -0.978 0.5794, 2.4362 -0.9924 0.5747, 2.4323 -0.978 0.5794, 2.4323 -0.9758 0.5805, 2.4362 -0.9758 0.5805, 2.4362 -0.9758 0.597, 2.4323 -0.9758 0.597, 2.4323 -0.9815 0.5945, 2.4362 -0.9889 0.5911, 2.4323 -0.9889 0.5911, 2.4323 -1.004 0.5883, 2.4362 -1.004 0.5883, 2.4323 -1.0102 0.5881, 2.4362 -1.0102 0.5881, 2.4323 -1.0236 0.5897, 2.4362 -1.0236 0.5897, 2.4323 -1.0331 0.5934, 2.4362 -1.0331 0.5934, 2.4323 -1.0419 0.5995, 2.4362 -1.0419 0.5995, 2.4323 -1.0445 0.6022, 2.4362 -1.0445 0.6022, 2.4323 -1.0502 0.6098, 2.4362 -1.0502 0.6098, 2.4323 -1.0548 0.6202, 2.4362 -1.0548 0.6202, 2.4323 -1.0573 0.6331, 2.4362 -1.0573 0.6331, 2.4323 -1.0576 0.6402, 2.4362 -1.0576 0.6402, 2.4323 -1.0554 0.6587, 2.4362 -1.0554 0.6587, 2.4323 -1.0509 0.6702, 2.4362 -1.0509 0.6702, 2.4323 -1.0436 0.6803, 2.4362 -1.0436 0.6803, 2.4323 -1.0345 0.6878, 2.4362 -1.0345 0.6878, 2.4323 -1.024 0.6927, 2.4362 -1.024 0.6927, 2.4323 -1.0124 0.6949, 2.4362 -1.0124 0.6949, 2.4323 -1.0072 0.6951, 2.4362 -1.0072 0.6951, 2.4323 -0.9908 0.6932, 2.4323 -0.9815 0.6896, 2.4362 -0.9772 0.688, 2.4362 -0.9908 0.6932, 2.4323 -0.9772 0.688, 2.4323 -0.9758 0.6872, 2.4362 -0.9758 0.6872, 2.4362 -0.9758 0.7052, 2.4323 -0.9758 0.7052, 2.4323 -1.0074 0.7107, 2.4362 -1.0074 0.7107, 2.4362 -1.0073 0.7107, 2.4323 -0.9815 0.7069, 2.4362 -0.9898 0.7093, 2.4323 -0.9898 0.7093, 2.4323 -0.9931 0.7096, 2.4323 -1.0073 0.7107, 2.4323 -1.0166 0.7096, 2.4362 -1.0267 0.7083, 2.4323 -1.0267 0.7083, 2.4323 -1.0407 0.7029, 2.4362 -1.0407 0.7029, 2.4323 -1.0532 0.6941, 2.4362 -1.0532 0.6941, 2.4323 -1.0564 0.6911, 2.4362 -1.0564 0.6911, 2.4323 -1.0661 0.6784, 2.4323 -1.0697 0.6699, 2.4362 -1.0724 0.6636, 2.4362 -1.0661 0.6784, 2.4323 -1.0724 0.6636, 2.4323 -1.0754 0.6462, 2.4362 -1.0754 0.6462, 2.4323 -1.0757 0.6392, 2.4362 -1.0757 0.6392, 2.4323 -1.073 0.6174, 2.4323 -1.0697 0.6089, 2.4362 -1.0676 0.6035, 2.4362 -1.073 0.6174, 2.4323 -1.0676 0.6035, 2.4323 -1.0586 0.591, 2.4362 -1.0586 0.591, 2.4323 -1.0478 0.582, 2.4362 -1.0478 0.582, 2.4323 -1.0352 0.5761, 2.4362 -1.0352 0.5761, 2.4323 -1.0208 0.5731, 2.4362 -1.0208 0.5731, 2.4362 -0.8773 0.5902, 2.4362 -0.8773 0.575, 2.4323 -0.8773 0.5902, 2.4323 -0.8773 0.575, 2.4323 -0.9318 0.5902, 2.4362 -0.9318 0.5902, 2.4323 -0.8958 0.5902, 2.4362 -0.9318 0.6351, 2.4323 -0.9318 0.6351, 2.4362 -0.8841 0.6351, 2.4323 -0.8958 0.6351, 2.4323 -0.8841 0.6351, 2.4362 -0.8841 0.6504, 2.4323 -0.8841 0.6504, 2.4323 -0.9318 0.6504, 2.4362 -0.9318 0.6504, 2.4323 -0.8958 0.6504, 2.4362 -0.9318 0.6931, 2.4323 -0.9318 0.6931, 2.4323 -0.8803 0.6931, 2.4362 -0.8803 0.6931, 2.4323 -0.8958 0.6931, 2.4362 -0.8803 0.7084, 2.4323 -0.8803 0.7084, 2.4323 -0.9491 0.7084, 2.4362 -0.9491 0.7084, 2.4323 -0.8958 0.7084, 2.4362 -0.9491 0.575, 2.4323 -0.9491 0.575, 2.4323 -0.8958 0.575, 2.4362 -0.7699 0.6113, 2.4362 -0.7758 0.6041, 2.4362 -0.7635 0.5937, 2.4362 -0.7773 0.6027, 2.4362 -0.7774 0.5837, 2.4362 -0.7859 0.5967, 2.4362 -0.7926 0.5778, 2.4362 -0.7969 0.5925, 2.4362 -0.8154 0.575, 2.4362 -0.8155 0.5902, 2.4362 -0.8521 0.575, 2.4362 -0.8348 0.5902, 2.4362 -0.8521 0.7084, 2.4362 -0.8348 0.6931, 2.4362 -0.814 0.7084, 2.4362 -0.8147 0.6931, 2.4362 -0.7936 0.7062, 2.4362 -0.7975 0.6912, 2.4362 -0.7775 0.7003, 2.4362 -0.786 0.687, 2.4362 -0.7635 0.6908, 2.4362 -0.7762 0.6805, 2.4362 -0.7589 0.6862, 2.4362 -0.7725 0.6769, 2.4362 -0.7506 0.6746, 2.4362 -0.7673 0.6695, 2.4362 -0.7457 0.6619, 2.4362 -0.7635 0.6598, 2.4362 -0.7434 0.6434, 2.4362 -0.7615 0.643, 2.4362 -0.7438 0.6349, 2.4362 -0.7622 0.6328, 2.4362 -0.7471 0.6193, 2.4362 -0.765 0.621, 2.4362 -0.7536 0.6055, 2.4323 -0.8154 0.575, 2.4323 -0.8521 0.575, 2.4323 -0.7926 0.5778, 2.4323 -0.7774 0.5837, 2.4323 -0.7635 0.5937, 2.4323 -0.7536 0.6055, 2.4323 -0.7471 0.6193, 2.4323 -0.7438 0.6349, 2.4323 -0.7434 0.6434, 2.4323 -0.7457 0.6619, 2.4323 -0.7506 0.6746, 2.4323 -0.7589 0.6862, 2.4323 -0.7635 0.6908, 2.4323 -0.7775 0.7003, 2.4323 -0.7936 0.7062, 2.4323 -0.814 0.7084, 2.4323 -0.8521 0.7084, 2.4323 -0.8147 0.6931, 2.4323 -0.8348 0.6931, 2.4323 -0.8348 0.5902, 2.4323 -0.8155 0.5902, 2.4323 -0.7758 0.6041, 2.4323 -0.7773 0.6027, 2.4323 -0.7859 0.5967, 2.4323 -0.7969 0.5925, 2.4323 -0.7615 0.643, 2.4323 -0.7622 0.6328, 2.4323 -0.765 0.621, 2.4323 -0.7699 0.6113, 2.4323 -0.7762 0.6805, 2.4323 -0.7725 0.6769, 2.4323 -0.7673 0.6695, 2.4323 -0.7635 0.6598, 2.4323 -0.7975 0.6912, 2.4323 -0.786 0.687
            ]
        }
        coordIndex [
            0,1,2,-1,2,1,3,-1,4,0,5,-1,5,0,2,-1,6,4,7,-1,7,4,5,-1,8,6,9,-1,9,6,7,-1,10,8,11,-1,11,8,9,-1,1,10,3,-1,3,10,11,-1,6,8,4,-1,4,8,10,-1,4,10,0,-1,0,10,1,-1,12,13,14,-1,15,16,14,-1,14,16,17,-1,14,17,12,-1,15,18,16,-1,16,18,19,-1,16,19,20,-1,21,20,22,-1,22,20,19,-1,21,22,23,-1,21,23,24,-1,23,25,24,-1,24,25,26,-1,24,26,27,-1,27,26,28,-1,27,28,29,-1,29,28,30,-1,29,30,31,-1,31,30,32,-1,31,32,33,-1,33,32,34,-1,33,34,35,-1,35,34,36,-1,35,36,37,-1,37,36,38,-1,37,38,39,-1,39,38,40,-1,39,40,41,-1,41,40,42,-1,41,42,43,-1,43,42,44,-1,43,44,45,-1,45,44,46,-1,45,46,47,-1,47,46,48,-1,47,48,49,-1,49,48,50,-1,49,50,51,-1,51,50,52,-1,51,52,53,-1,53,52,54,-1,53,54,55,-1,55,54,56,-1,55,56,57,-1,57,56,58,-1,57,58,59,-1,59,58,60,-1,61,62,60,-1,60,62,63,-1,60,63,59,-1,61,64,62,-1,62,64,65,-1,62,65,66,-1,67,66,68,-1,68,66,65,-1,69,70,71,-1,67,68,72,-1,67,72,73,-1,72,74,73,-1,73,74,75,-1,73,75,71,-1,71,75,76,-1,71,76,69,-1,70,69,77,-1,70,77,78,-1,77,79,78,-1,78,79,80,-1,78,80,81,-1,81,80,82,-1,81,82,83,-1,83,82,84,-1,83,84,85,-1,85,84,86,-1,87,88,86,-1,86,88,89,-1,86,89,85,-1,87,90,88,-1,88,90,91,-1,88,91,92,-1,92,91,93,-1,92,93,94,-1,94,93,95,-1,96,97,95,-1,95,97,98,-1,95,98,94,-1,96,99,97,-1,97,99,100,-1,97,100,101,-1,101,100,102,-1,101,102,103,-1,103,102,104,-1,103,104,105,-1,105,104,106,-1,105,106,107,-1,107,106,13,-1,107,13,12,-1,62,66,67,-1,53,83,51,-1,51,83,85,-1,51,85,49,-1,49,85,89,-1,49,89,47,-1,62,67,63,-1,63,67,73,-1,63,73,59,-1,59,73,71,-1,59,71,57,-1,57,71,70,-1,57,70,55,-1,55,70,78,-1,55,78,53,-1,53,78,81,-1,53,81,83,-1,94,45,92,-1,92,45,47,-1,92,47,88,-1,88,47,89,-1,20,21,16,-1,16,21,24,-1,16,24,17,-1,17,24,27,-1,17,27,12,-1,12,27,29,-1,12,29,107,-1,107,29,31,-1,107,31,105,-1,105,31,33,-1,105,33,103,-1,103,33,35,-1,103,35,101,-1,101,35,37,-1,101,37,97,-1,97,37,39,-1,97,39,98,-1,98,39,41,-1,98,41,94,-1,94,41,43,-1,94,43,45,-1,108,109,110,-1,110,109,111,-1,112,113,114,-1,114,113,108,-1,114,108,110,-1,115,113,116,-1,116,113,112,-1,115,116,117,-1,117,116,118,-1,117,118,119,-1,120,117,121,-1,121,117,119,-1,122,123,124,-1,124,123,120,-1,124,120,121,-1,125,123,126,-1,126,123,122,-1,127,128,129,-1,129,128,125,-1,129,125,126,-1,130,128,131,-1,131,128,127,-1,132,133,134,-1,134,133,130,-1,134,130,131,-1,135,133,136,-1,136,133,132,-1,111,109,137,-1,137,109,135,-1,137,135,136,-1,135,109,108,-1,108,113,135,-1,135,113,115,-1,135,115,133,-1,128,130,125,-1,125,130,133,-1,125,133,123,-1,123,133,115,-1,123,115,120,-1,120,115,117,-1,138,139,140,-1,140,139,141,-1,140,141,142,-1,142,141,143,-1,142,143,144,-1,144,143,145,-1,144,145,146,-1,146,145,147,-1,146,147,148,-1,148,147,149,-1,148,149,150,-1,150,149,151,-1,150,151,152,-1,152,151,153,-1,152,153,154,-1,154,153,155,-1,154,155,156,-1,156,155,157,-1,156,157,158,-1,158,157,159,-1,158,159,160,-1,160,159,161,-1,160,161,162,-1,162,161,163,-1,162,163,164,-1,164,163,165,-1,164,165,166,-1,166,165,167,-1,166,167,168,-1,168,167,169,-1,168,169,170,-1,170,169,171,-1,170,171,172,-1,172,171,138,-1,172,138,140,-1,146,148,173,-1,173,148,174,-1,146,173,175,-1,146,175,144,-1,144,175,176,-1,144,176,142,-1,142,176,177,-1,142,177,140,-1,140,177,178,-1,140,178,172,-1,172,178,179,-1,172,179,170,-1,170,179,180,-1,170,180,168,-1,168,180,181,-1,168,181,166,-1,166,181,182,-1,166,182,164,-1,164,182,183,-1,164,183,162,-1,162,183,184,-1,162,184,160,-1,160,184,185,-1,160,185,158,-1,158,185,186,-1,158,186,156,-1,156,186,187,-1,156,187,154,-1,154,187,188,-1,154,188,152,-1,150,152,189,-1,189,152,188,-1,148,150,174,-1,174,150,189,-1,153,151,190,-1,190,151,191,-1,151,149,191,-1,191,149,192,-1,149,147,192,-1,192,147,193,-1,139,194,195,-1,139,195,141,-1,141,195,196,-1,141,196,143,-1,143,196,197,-1,143,197,145,-1,145,197,193,-1,145,193,147,-1,167,198,199,-1,167,199,169,-1,169,199,200,-1,169,200,171,-1,171,200,201,-1,171,201,138,-1,138,201,194,-1,138,194,139,-1,159,202,203,-1,159,203,161,-1,161,203,204,-1,161,204,163,-1,163,204,205,-1,163,205,165,-1,165,205,198,-1,165,198,167,-1,153,190,206,-1,153,206,155,-1,155,206,207,-1,155,207,157,-1,157,207,202,-1,157,202,159,-1,
        ]
    }
}
Shape{
    appearance Appearance {
        material  Material {
            diffuseColor 1.0 1.0 1.0
            specularColor 0.5019607843137255 0.5019607843137255 0.5019607843137255
            ambientIntensity 1.0
            transparency 0.0
            shininess 0.5
        }
    }
    geometry IndexedFaceSet {
        ccw TRUE
        solid FALSE
        coord DEF co Coordinate {
            point [
                2.4323 -0.7773 0.6027, 2.4323 -0.7758 0.6041, 2.4323 -0.8147 0.6931, 2.4323 -0.8348 0.6931, 2.4323 -0.8348 0.5902, 2.4323 -0.8155 0.5902, 2.4323 -0.7969 0.5925, 2.4323 -0.7859 0.5967, 2.4323 -0.7699 0.6113, 2.4323 -0.765 0.621, 2.4323 -0.7622 0.6328, 2.4323 -0.7615 0.643, 2.4323 -0.7635 0.6598, 2.4323 -0.7673 0.6695, 2.4323 -0.7725 0.6769, 2.4323 -0.7762 0.6805, 2.4323 -0.7975 0.6912, 2.4323 -0.786 0.687
            ]
        }
        coordIndex [
            0,1,2,-1,3,4,2,-1,2,4,5,-1,5,6,2,-1,2,6,7,-1,2,7,0,-1,1,8,2,-1,2,8,9,-1,2,9,10,-1,10,11,2,-1,2,11,12,-1,2,12,13,-1,13,14,2,-1,2,14,15,-1,2,15,16,-1,16,15,17,-1,
        ]
    }
}
Shape{
    appearance Appearance {
        material  Material {
            diffuseColor 0.0 0.0 0.0
            specularColor 0.0 0.0 0.0
            ambientIntensity 0.0
            transparency 0.0
            shininess 0.5
        }
    }
    geometry IndexedFaceSet {
        ccw TRUE
        solid FALSE
        coord DEF co Coordinate {
            point [
                2.4362 -0.6987 0.6266, 2.4362 -0.7042 0.6115, 2.4362 -0.6539 0.6266, 2.4362 -0.6486 0.6115, 2.4362 -0.6787 0.682, 2.4362 -0.6852 0.7084, 2.4362 -0.736 0.575, 2.4362 -0.717 0.575, 2.4362 -0.6776 0.686, 2.4362 -0.6766 0.6914, 2.4362 -0.6668 0.7084, 2.4362 -0.6762 0.6914, 2.4362 -0.6751 0.6857, 2.4362 -0.6741 0.682, 2.4362 -0.6159 0.575, 2.4362 -0.635 0.575, 2.4323 -0.6668 0.7084, 2.4323 -0.6159 0.575, 2.4323 -0.6852 0.7084, 2.4323 -0.736 0.575, 2.4323 -0.6976 0.676, 2.4323 -0.717 0.575, 2.4323 -0.7042 0.6115, 2.4323 -0.6486 0.6115, 2.4323 -0.6976 0.6115, 2.4323 -0.635 0.575, 2.4323 -0.6987 0.6266, 2.4323 -0.6539 0.6266, 2.4323 -0.6741 0.682, 2.4323 -0.6762 0.6914, 2.4323 -0.6751 0.6857, 2.4323 -0.6766 0.6914, 2.4323 -0.6787 0.682, 2.4323 -0.6776 0.686
            ]
        }
        coordIndex [
            0,1,2,-1,2,1,3,-1,4,5,0,-1,0,5,6,-1,0,6,1,-1,1,6,7,-1,4,8,5,-1,5,8,9,-1,5,9,10,-1,10,9,11,-1,10,11,12,-1,12,13,10,-1,10,13,2,-1,10,2,14,-1,14,2,3,-1,14,3,15,-1,10,14,16,-1,16,14,17,-1,5,10,18,-1,18,10,16,-1,19,6,20,-1,20,6,5,-1,20,5,18,-1,7,6,21,-1,21,6,19,-1,1,7,22,-1,22,7,21,-1,23,3,24,-1,24,3,1,-1,24,1,22,-1,15,3,25,-1,25,3,23,-1,14,15,17,-1,17,15,25,-1,0,2,26,-1,26,2,27,-1,2,13,27,-1,27,13,28,-1,11,29,30,-1,11,30,12,-1,12,30,28,-1,12,28,13,-1,11,9,29,-1,29,9,31,-1,4,32,33,-1,4,33,8,-1,8,33,31,-1,8,31,9,-1,4,0,32,-1,32,0,26,-1,
        ]
    }
}
Shape{
    appearance Appearance {
        material  Material {
            diffuseColor 1.0 1.0 1.0
            specularColor 0.5019607843137255 0.5019607843137255 0.5019607843137255
            ambientIntensity 1.0
            transparency 0.0
            shininess 0.5
        }
    }
    geometry IndexedFaceSet {
        ccw TRUE
        solid FALSE
        coord DEF co Coordinate {
            point [
                2.4323 -0.6762 0.6914, 2.4323 -0.6766 0.6914, 2.4323 -0.6751 0.6857, 2.4323 -0.6776 0.686, 2.4323 -0.6741 0.682, 2.4323 -0.6787 0.682, 2.4323 -0.6539 0.6266, 2.4323 -0.6987 0.6266
            ]
        }
        coordIndex [
            0,1,2,-1,2,1,3,-1,2,3,4,-1,4,3,5,-1,4,5,6,-1,6,5,7,-1,
        ]
    }
}
Shape{
    appearance Appearance {
        material  Material {
            diffuseColor 0.0 0.0 0.0
            specularColor 0.0 0.0 0.0
            ambientIntensity 0.0
            transparency 0.0
            shininess 0.5
        }
    }
    geometry IndexedFaceSet {
        ccw TRUE
        solid FALSE
        coord DEF co Coordinate {
            point [
                2.4362 -1.0797 0.3785, 2.4362 -1.0797 0.3633, 2.4323 -1.0797 0.3785, 2.4323 -1.0797 0.3633, 2.4362 -1.1343 0.3785, 2.4323 -1.1343 0.3785, 2.4362 -1.1343 0.4234, 2.4323 -1.1343 0.4234, 2.4362 -1.0866 0.4234, 2.4323 -1.0866 0.4234, 2.4362 -1.0866 0.4387, 2.4323 -1.0866 0.4387, 2.4362 -1.1343 0.4387, 2.4323 -1.1343 0.4387, 2.4362 -1.1343 0.4814, 2.4323 -1.1343 0.4814, 2.4362 -1.0828 0.4814, 2.4323 -1.0828 0.4814, 2.4362 -1.0828 0.4967, 2.4323 -1.0828 0.4967, 2.4362 -1.1515 0.4967, 2.4323 -1.1515 0.4967, 2.4362 -1.1515 0.3633, 2.4323 -1.1515 0.3633, 2.4362 -1.0043 0.378, 2.4362 -1.0039 0.378, 2.4362 -1.005 0.3934, 2.4362 -1.0405 0.4037, 2.4362 -1.0368 0.4056, 2.4362 -1.0459 0.4163, 2.4362 -1.0039 0.4009, 2.4362 -0.9872 0.4246, 2.4362 -1.0039 0.402, 2.4362 -1.0039 0.4111, 2.4362 -1.0039 0.3633, 2.4362 -0.9872 0.3633, 2.4362 -1.01 0.4596, 2.4362 -1.0136 0.4453, 2.4362 -1.0034 0.4572, 2.4362 -1.0107 0.4433, 2.4362 -1.0074 0.3874, 2.4362 -1.011 0.3825, 2.4362 -1.0073 0.3735, 2.4362 -1.0131 0.3805, 2.4362 -1.0127 0.368, 2.4362 -1.0178 0.3773, 2.4362 -1.0179 0.3645, 2.4362 -1.0229 0.3755, 2.4362 -1.0247 0.362, 2.4362 -1.0292 0.3748, 2.4362 -1.0335 0.361, 2.4362 -1.0348 0.3754, 2.4362 -1.0435 0.3622, 2.4362 -1.0386 0.3768, 2.4362 -1.0499 0.3646, 2.4362 -1.0419 0.3791, 2.4362 -1.0556 0.3685, 2.4362 -1.0434 0.3805, 2.4362 -1.0321 0.4199, 2.4362 -1.0262 0.4081, 2.4362 -1.0039 0.4239, 2.4362 -1.0544 0.4519, 2.4362 -1.0544 0.4357, 2.4362 -1.051 0.4539, 2.4362 -1.0429 0.4429, 2.4362 -1.0386 0.4587, 2.4362 -1.0324 0.4463, 2.4362 -1.0216 0.4608, 2.4362 -1.0232 0.4472, 2.4362 -1.0175 0.4466, 2.4362 -1.0044 0.4312, 2.4362 -0.9888 0.4387, 2.4362 -1.0062 0.4372, 2.4362 -0.9915 0.4458, 2.4362 -1.0081 0.4406, 2.4362 -0.9951 0.451, 2.4362 -0.998 0.4539, 2.4362 -1.0424 0.4023, 2.4362 -1.0526 0.4126, 2.4362 -1.0444 0.3998, 2.4362 -1.0575 0.4081, 2.4362 -1.0458 0.3967, 2.4362 -1.061 0.4027, 2.4362 -1.0466 0.3928, 2.4362 -1.063 0.3965, 2.4362 -1.0468 0.3902, 2.4362 -1.0637 0.3888, 2.4362 -1.0464 0.3863, 2.4362 -1.0627 0.3805, 2.4362 -1.0453 0.3833, 2.4362 -1.0606 0.375, 2.4362 -1.057 0.37, 2.4323 -1.0216 0.4608, 2.4323 -1.0386 0.4587, 2.4323 -1.051 0.4539, 2.4323 -1.0544 0.4519, 2.4323 -1.0544 0.4357, 2.4323 -1.0429 0.4429, 2.4323 -1.0324 0.4463, 2.4323 -1.0232 0.4472, 2.4323 -1.0175 0.4466, 2.4323 -1.0136 0.4453, 2.4323 -1.0107 0.4433, 2.4323 -1.0081 0.4406, 2.4323 -1.0062 0.4372, 2.4323 -1.0044 0.4312, 2.4323 -1.0039 0.4239, 2.4323 -1.0321 0.4199, 2.4323 -1.0459 0.4163, 2.4323 -1.0526 0.4126, 2.4323 -1.0575 0.4081, 2.4323 -1.061 0.4027, 2.4323 -1.063 0.3965, 2.4323 -1.0637 0.3888, 2.4323 -1.0627 0.3805, 2.4323 -1.0606 0.375, 2.4323 -1.057 0.37, 2.4323 -1.0556 0.3685, 2.4323 -1.0335 0.361, 2.4323 -1.0432 0.3622, 2.4323 -1.0435 0.3622, 2.4323 -1.0499 0.3646, 2.4323 -1.0247 0.362, 2.4323 -1.0244 0.3622, 2.4323 -1.0179 0.3645, 2.4323 -1.0127 0.368, 2.4323 -1.0073 0.3735, 2.4323 -1.0043 0.378, 2.4323 -1.0039 0.378, 2.4323 -1.0039 0.3633, 2.4323 -0.9872 0.3633, 2.4323 -0.9872 0.4246, 2.4323 -0.9888 0.4387, 2.4323 -0.9915 0.4458, 2.4323 -0.9951 0.451, 2.4323 -0.998 0.4539, 2.4323 -1.0034 0.4572, 2.4323 -1.01 0.4596, 2.4323 -1.0424 0.4023, 2.4323 -1.0405 0.4037, 2.4323 -1.0368 0.4056, 2.4323 -1.0262 0.4081, 2.4323 -1.0468 0.3902, 2.4323 -1.0466 0.3928, 2.4323 -1.0458 0.3967, 2.4323 -1.0444 0.3998, 2.4323 -1.0419 0.3791, 2.4323 -1.0434 0.3805, 2.4323 -1.0453 0.3833, 2.4323 -1.0464 0.3863, 2.4323 -1.0292 0.3748, 2.4323 -1.0348 0.3754, 2.4323 -1.0386 0.3768, 2.4323 -1.011 0.3825, 2.4323 -1.0131 0.3805, 2.4323 -1.0178 0.3773, 2.4323 -1.0229 0.3755, 2.4323 -1.0039 0.402, 2.4323 -1.0039 0.4009, 2.4323 -1.005 0.3934, 2.4323 -1.0074 0.3874, 2.4323 -1.0039 0.4111
            ]
        }
        coordIndex [
            0,1,2,-1,2,1,3,-1,4,0,5,-1,5,0,2,-1,6,4,7,-1,7,4,5,-1,8,6,9,-1,9,6,7,-1,10,8,11,-1,11,8,9,-1,12,10,13,-1,13,10,11,-1,14,12,15,-1,15,12,13,-1,16,14,17,-1,17,14,15,-1,18,16,19,-1,19,16,17,-1,20,18,21,-1,21,18,19,-1,22,20,23,-1,23,20,21,-1,1,22,3,-1,3,22,23,-1,22,1,0,-1,0,4,22,-1,22,4,6,-1,22,6,20,-1,16,18,14,-1,14,18,20,-1,14,20,12,-1,12,20,6,-1,12,6,10,-1,10,6,8,-1,24,25,26,-1,27,28,29,-1,30,31,32,-1,32,31,33,-1,34,35,25,-1,25,35,31,-1,25,31,26,-1,26,31,30,-1,36,37,38,-1,38,37,39,-1,26,40,24,-1,24,40,41,-1,24,41,42,-1,42,41,43,-1,42,43,44,-1,44,43,45,-1,44,45,46,-1,46,45,47,-1,46,47,48,-1,48,47,49,-1,48,49,50,-1,50,49,51,-1,50,51,52,-1,52,51,53,-1,52,53,54,-1,54,53,55,-1,54,55,56,-1,56,55,57,-1,29,28,58,-1,58,28,59,-1,58,59,60,-1,61,62,63,-1,63,62,64,-1,63,64,65,-1,65,64,66,-1,65,66,67,-1,67,66,68,-1,67,68,36,-1,36,68,69,-1,36,69,37,-1,59,33,60,-1,60,33,31,-1,60,31,70,-1,70,31,71,-1,70,71,72,-1,72,71,73,-1,72,73,74,-1,74,73,75,-1,74,75,39,-1,39,75,76,-1,39,76,38,-1,27,29,77,-1,77,29,78,-1,77,78,79,-1,79,78,80,-1,79,80,81,-1,81,80,82,-1,81,82,83,-1,83,82,84,-1,83,84,85,-1,85,84,86,-1,85,86,87,-1,87,86,88,-1,87,88,89,-1,89,88,90,-1,89,90,57,-1,57,90,91,-1,57,91,56,-1,67,92,93,-1,67,93,65,-1,65,93,94,-1,65,94,63,-1,63,94,95,-1,63,95,61,-1,62,61,96,-1,96,61,95,-1,62,96,97,-1,62,97,64,-1,64,97,98,-1,64,98,66,-1,66,98,99,-1,66,99,68,-1,68,99,100,-1,68,100,69,-1,69,100,101,-1,69,101,37,-1,37,101,102,-1,37,102,39,-1,39,102,103,-1,39,103,74,-1,74,103,104,-1,74,104,72,-1,72,104,105,-1,72,105,70,-1,70,105,106,-1,70,106,60,-1,58,60,107,-1,107,60,106,-1,58,107,108,-1,58,108,29,-1,29,108,109,-1,29,109,78,-1,78,109,110,-1,78,110,80,-1,80,110,111,-1,80,111,82,-1,82,111,112,-1,82,112,84,-1,84,112,113,-1,84,113,86,-1,86,113,114,-1,86,114,88,-1,88,114,115,-1,88,115,90,-1,90,115,116,-1,90,116,91,-1,91,116,117,-1,91,117,56,-1,118,50,119,-1,119,50,52,-1,119,52,120,-1,120,52,54,-1,120,54,121,-1,121,54,56,-1,121,56,117,-1,50,118,122,-1,50,122,48,-1,48,122,123,-1,48,123,46,-1,123,124,46,-1,46,124,125,-1,46,125,44,-1,44,125,126,-1,44,126,42,-1,42,126,127,-1,42,127,24,-1,25,24,128,-1,128,24,127,-1,34,25,129,-1,129,25,128,-1,35,34,130,-1,130,34,129,-1,31,35,131,-1,131,35,130,-1,31,131,132,-1,31,132,71,-1,71,132,133,-1,71,133,73,-1,73,133,134,-1,73,134,75,-1,75,134,135,-1,75,135,76,-1,76,135,136,-1,76,136,38,-1,38,136,137,-1,38,137,36,-1,36,137,92,-1,36,92,67,-1,77,138,139,-1,77,139,27,-1,27,139,140,-1,27,140,28,-1,28,140,141,-1,28,141,59,-1,85,142,143,-1,85,143,83,-1,83,143,144,-1,83,144,81,-1,81,144,145,-1,81,145,79,-1,79,145,138,-1,79,138,77,-1,55,146,147,-1,55,147,57,-1,57,147,148,-1,57,148,89,-1,89,148,149,-1,89,149,87,-1,87,149,142,-1,87,142,85,-1,49,150,151,-1,49,151,51,-1,51,151,152,-1,51,152,53,-1,53,152,146,-1,53,146,55,-1,41,153,154,-1,41,154,43,-1,43,154,155,-1,43,155,45,-1,45,155,156,-1,45,156,47,-1,47,156,150,-1,47,150,49,-1,32,157,158,-1,32,158,30,-1,30,158,159,-1,30,159,26,-1,26,159,160,-1,26,160,40,-1,40,160,153,-1,40,153,41,-1,32,33,157,-1,157,33,161,-1,33,59,161,-1,161,59,141,-1,
        ]
    }
}
Shape{
    appearance Appearance {
        material  Material {
            diffuseColor 1.0 1.0 1.0
            specularColor 0.5019607843137255 0.5019607843137255 0.5019607843137255
            ambientIntensity 1.0
            transparency 0.0
            shininess 0.5
        }
    }
    geometry IndexedFaceSet {
        ccw TRUE
        solid FALSE
        coord DEF co Coordinate {
            point [
                2.4323 -1.0039 0.4009, 2.4323 -1.0039 0.402, 2.4323 -1.0424 0.4023, 2.4323 -1.0039 0.4111, 2.4323 -1.0262 0.4081, 2.4323 -1.0368 0.4056, 2.4323 -1.0405 0.4037, 2.4323 -1.005 0.3934, 2.4323 -1.0444 0.3998, 2.4323 -1.0074 0.3874, 2.4323 -1.0434 0.3805, 2.4323 -1.0419 0.3791, 2.4323 -1.0131 0.3805, 2.4323 -1.0453 0.3833, 2.4323 -1.0178 0.3773, 2.4323 -1.0229 0.3755, 2.4323 -1.0292 0.3748, 2.4323 -1.0458 0.3967, 2.4323 -1.0466 0.3928, 2.4323 -1.011 0.3825, 2.4323 -1.0468 0.3902, 2.4323 -1.0464 0.3863, 2.4323 -1.0386 0.3768, 2.4323 -1.0348 0.3754
            ]
        }
        coordIndex [
            0,1,2,-1,1,3,4,-1,4,5,1,-1,1,5,6,-1,1,6,2,-1,0,2,7,-1,7,2,8,-1,7,8,9,-1,10,11,12,-1,10,12,13,-1,14,12,15,-1,15,12,16,-1,8,17,9,-1,9,17,18,-1,9,18,19,-1,19,18,20,-1,19,20,12,-1,12,20,21,-1,12,21,13,-1,11,22,12,-1,12,22,23,-1,12,23,16,-1,
        ]
    }
}
Shape{
    appearance Appearance {
        material  Material {
            diffuseColor 0.0 0.0 0.0
            specularColor 0.0 0.0 0.0
            ambientIntensity 0.0
            transparency 0.0
            shininess 0.5
        }
    }
    geometry IndexedFaceSet {
        ccw TRUE
        solid FALSE
        coord DEF co Coordinate {
            point [
                2.4323 -0.9645 0.3839, 2.4362 -0.9645 0.3839, 2.4362 -0.9571 0.3794, 2.4362 -0.937 0.3747, 2.4323 -0.937 0.3747, 2.4323 -0.9465 0.3757, 2.4362 -0.9465 0.3757, 2.4323 -0.9568 0.3793, 2.4323 -0.9571 0.3794, 2.4362 -0.9645 0.3666, 2.4323 -0.9645 0.3666, 2.4362 -0.9528 0.3625, 2.4323 -0.9568 0.3639, 2.4323 -0.9386 0.361, 2.4362 -0.9386 0.361, 2.4323 -0.9495 0.3622, 2.4323 -0.9528 0.3625, 2.4362 -0.9236 0.3628, 2.4323 -0.9292 0.3622, 2.4323 -0.9236 0.3628, 2.4323 -0.9148 0.3662, 2.4362 -0.9148 0.3662, 2.4323 -0.9109 0.3686, 2.4362 -0.9109 0.3686, 2.4323 -0.9061 0.3728, 2.4362 -0.9061 0.3728, 2.4323 -0.903 0.3772, 2.4362 -0.903 0.3772, 2.4323 -0.9009 0.3825, 2.4362 -0.9009 0.3825, 2.4323 -0.9001 0.3892, 2.4362 -0.9001 0.3892, 2.4323 -0.9008 0.3955, 2.4362 -0.9008 0.3955, 2.4323 -0.9026 0.4004, 2.4362 -0.9026 0.4004, 2.4323 -0.9057 0.405, 2.4362 -0.9057 0.405, 2.4323 -0.9097 0.4085, 2.4362 -0.9097 0.4085, 2.4323 -0.9208 0.4147, 2.4362 -0.9208 0.4147, 2.4323 -0.9273 0.4173, 2.4362 -0.9273 0.4173, 2.4323 -0.9376 0.4218, 2.4362 -0.9376 0.4218, 2.4323 -0.9435 0.4255, 2.4362 -0.9435 0.4255, 2.4323 -0.9452 0.4273, 2.4362 -0.9452 0.4273, 2.4323 -0.9464 0.4296, 2.4362 -0.9464 0.4296, 2.4323 -0.947 0.4322, 2.4362 -0.947 0.4322, 2.4323 -0.9472 0.4344, 2.4362 -0.9472 0.4344, 2.4323 -0.9469 0.4371, 2.4362 -0.9469 0.4371, 2.4323 -0.946 0.4393, 2.4362 -0.946 0.4393, 2.4323 -0.9446 0.4414, 2.4362 -0.9446 0.4414, 2.4323 -0.9421 0.4437, 2.4362 -0.9421 0.4437, 2.4323 -0.9383 0.4457, 2.4362 -0.9383 0.4457, 2.4323 -0.9339 0.4468, 2.4362 -0.9339 0.4468, 2.4323 -0.9289 0.4472, 2.4362 -0.9289 0.4472, 2.4323 -0.919 0.4462, 2.4362 -0.919 0.4462, 2.4323 -0.9095 0.443, 2.4362 -0.9095 0.443, 2.4323 -0.9047 0.4403, 2.4362 -0.9047 0.4403, 2.4362 -0.9047 0.4566, 2.4323 -0.9047 0.4566, 2.4323 -0.9156 0.4597, 2.4362 -0.9156 0.4597, 2.4323 -0.9273 0.4608, 2.4362 -0.9273 0.4608, 2.4323 -0.9406 0.4592, 2.4362 -0.9406 0.4592, 2.4323 -0.9496 0.4557, 2.4362 -0.9496 0.4557, 2.4323 -0.9537 0.4532, 2.4362 -0.9537 0.4532, 2.4362 -0.9587 0.4487, 2.4323 -0.9568 0.4504, 2.4323 -0.9587 0.4487, 2.4323 -0.9618 0.4442, 2.4362 -0.9618 0.4442, 2.4323 -0.9638 0.4388, 2.4362 -0.9638 0.4388, 2.4323 -0.9644 0.4329, 2.4362 -0.9644 0.4329, 2.4323 -0.9637 0.4264, 2.4362 -0.9637 0.4264, 2.4323 -0.9618 0.4213, 2.4362 -0.9618 0.4213, 2.4323 -0.9597 0.4178, 2.4362 -0.9597 0.4178, 2.4323 -0.9391 0.4052, 2.4362 -0.9391 0.4052, 2.4362 -0.9491 0.4098, 2.4323 -0.9569 0.4149, 2.4362 -0.9569 0.4149, 2.4323 -0.9568 0.4148, 2.4323 -0.9491 0.4098, 2.4323 -0.9281 0.4006, 2.4362 -0.9281 0.4006, 2.4323 -0.9216 0.3967, 2.4362 -0.9216 0.3967, 2.4323 -0.9195 0.3945, 2.4362 -0.9195 0.3945, 2.4323 -0.9182 0.3923, 2.4362 -0.9182 0.3923, 2.4323 -0.9175 0.3897, 2.4362 -0.9175 0.3897, 2.4323 -0.9173 0.3876, 2.4362 -0.9173 0.3876, 2.4323 -0.9176 0.3844, 2.4362 -0.9176 0.3844, 2.4323 -0.9185 0.382, 2.4362 -0.9185 0.382, 2.4323 -0.9199 0.3799, 2.4362 -0.9199 0.3799, 2.4323 -0.9219 0.3782, 2.4362 -0.9219 0.3782, 2.4323 -0.9234 0.3772, 2.4362 -0.9234 0.3772, 2.4323 -0.9277 0.3757, 2.4362 -0.9277 0.3757, 2.4323 -0.9363 0.3747, 2.4362 -0.9363 0.3747, 2.4362 -0.8173 0.4586, 2.4362 -0.7999 0.4586, 2.4323 -0.8173 0.4586, 2.4323 -0.7999 0.4586, 2.4362 -0.8433 0.3868, 2.4323 -0.8433 0.3868, 2.4323 -0.8446 0.3824, 2.4362 -0.8446 0.3824, 2.4323 -0.8454 0.3791, 2.4362 -0.8454 0.3791, 2.4362 -0.8458 0.3791, 2.4323 -0.8458 0.3791, 2.4362 -0.8478 0.387, 2.4323 -0.8478 0.387, 2.4323 -0.8727 0.4586, 2.4362 -0.8727 0.4586, 2.4323 -0.8647 0.4354, 2.4362 -0.8914 0.4586, 2.4323 -0.8914 0.4586, 2.4323 -0.854 0.3635, 2.4362 -0.854 0.3635, 2.4323 -0.8647 0.3905, 2.4323 -0.8614 0.3462, 2.4362 -0.8614 0.3462, 2.4323 -0.8546 0.3622, 2.4323 -0.8647 0.3402, 2.4362 -0.8648 0.34, 2.4323 -0.8648 0.34, 2.4323 -0.8679 0.3366, 2.4362 -0.8679 0.3366, 2.4323 -0.8705 0.3347, 2.4362 -0.8705 0.3347, 2.4323 -0.8741 0.3333, 2.4362 -0.8741 0.3333, 2.4323 -0.8785 0.3327, 2.4362 -0.8785 0.3327, 2.4323 -0.8846 0.3335, 2.4362 -0.8846 0.3335, 2.4323 -0.888 0.3346, 2.4362 -0.888 0.3346, 2.4362 -0.888 0.3198, 2.4323 -0.888 0.3198, 2.4323 -0.8809 0.3185, 2.4362 -0.8809 0.3185, 2.4323 -0.8772 0.3184, 2.4362 -0.8772 0.3184, 2.4323 -0.8705 0.3192, 2.4362 -0.8705 0.3192, 2.4323 -0.8647 0.3214, 2.4362 -0.8639 0.3217, 2.4323 -0.8639 0.3217, 2.4323 -0.858 0.3258, 2.4362 -0.858 0.3258, 2.4323 -0.8569 0.3268, 2.4362 -0.8569 0.3268, 2.4323 -0.8508 0.3342, 2.4362 -0.8508 0.3342, 2.4323 -0.8432 0.3489, 2.4362 -0.8432 0.3489, 2.4323 -0.838 0.3622, 2.4362 -0.7102 0.3785, 2.4362 -0.7102 0.3633, 2.4323 -0.7102 0.3785, 2.4323 -0.7102 0.3633, 2.4323 -0.7647 0.3785, 2.4362 -0.7647 0.3785, 2.4323 -0.7397 0.3785, 2.4362 -0.7647 0.4234, 2.4323 -0.7647 0.4234, 2.4323 -0.717 0.4234, 2.4362 -0.717 0.4234, 2.4323 -0.7397 0.4234, 2.4362 -0.717 0.4387, 2.4323 -0.717 0.4387, 2.4323 -0.7647 0.4387, 2.4362 -0.7647 0.4387, 2.4323 -0.7397 0.4387, 2.4362 -0.7647 0.4814, 2.4323 -0.7647 0.4814, 2.4323 -0.7132 0.4814, 2.4362 -0.7132 0.4814, 2.4323 -0.7397 0.4814, 2.4362 -0.7132 0.4967, 2.4323 -0.7132 0.4967, 2.4323 -0.7819 0.4967, 2.4362 -0.7819 0.4967, 2.4323 -0.7397 0.4967, 2.4362 -0.7819 0.3633, 2.4323 -0.7819 0.3633, 2.4323 -0.7397 0.3633, 2.4362 -0.6027 0.3996, 2.4362 -0.6087 0.3924, 2.4362 -0.5964 0.382, 2.4362 -0.6102 0.391, 2.4362 -0.6103 0.372, 2.4362 -0.6188 0.385, 2.4362 -0.6255 0.3661, 2.4362 -0.6297 0.3807, 2.4362 -0.6482 0.3633, 2.4362 -0.6483 0.3785, 2.4362 -0.685 0.3633, 2.4362 -0.6677 0.3785, 2.4362 -0.685 0.4967, 2.4362 -0.6677 0.4814, 2.4362 -0.6469 0.4967, 2.4362 -0.6476 0.4814, 2.4362 -0.6265 0.4945, 2.4362 -0.6304 0.4795, 2.4362 -0.6104 0.4886, 2.4362 -0.6188 0.4753, 2.4362 -0.5964 0.4791, 2.4362 -0.6091 0.4688, 2.4362 -0.5918 0.4745, 2.4362 -0.6054 0.4652, 2.4362 -0.5835 0.4629, 2.4362 -0.6002 0.4578, 2.4362 -0.5785 0.4502, 2.4362 -0.5964 0.4481, 2.4362 -0.5763 0.4317, 2.4362 -0.5944 0.4312, 2.4362 -0.5767 0.4232, 2.4362 -0.5951 0.4211, 2.4362 -0.5799 0.4076, 2.4362 -0.5979 0.4092, 2.4362 -0.5865 0.3938, 2.4323 -0.6482 0.3633, 2.4323 -0.685 0.3633, 2.4323 -0.6255 0.3661, 2.4323 -0.6103 0.372, 2.4323 -0.5964 0.382, 2.4323 -0.5865 0.3938, 2.4323 -0.5799 0.4076, 2.4323 -0.5767 0.4232, 2.4323 -0.5763 0.4317, 2.4323 -0.5785 0.4502, 2.4323 -0.5835 0.4629, 2.4323 -0.5918 0.4745, 2.4323 -0.5964 0.4791, 2.4323 -0.6104 0.4886, 2.4323 -0.6265 0.4945, 2.4323 -0.6469 0.4967, 2.4323 -0.685 0.4967, 2.4323 -0.6476 0.4814, 2.4323 -0.6677 0.4814, 2.4323 -0.6677 0.3785, 2.4323 -0.6483 0.3785, 2.4323 -0.6087 0.3924, 2.4323 -0.6102 0.391, 2.4323 -0.6188 0.385, 2.4323 -0.6297 0.3807, 2.4323 -0.5944 0.4312, 2.4323 -0.5951 0.4211, 2.4323 -0.5979 0.4092, 2.4323 -0.6027 0.3996, 2.4323 -0.6091 0.4688, 2.4323 -0.6054 0.4652, 2.4323 -0.6002 0.4578, 2.4323 -0.5964 0.4481, 2.4323 -0.6304 0.4795, 2.4323 -0.6188 0.4753
            ]
        }
        coordIndex [
            0,1,2,-1,3,4,5,-1,3,5,6,-1,6,5,7,-1,6,7,2,-1,2,7,8,-1,2,8,0,-1,9,1,10,-1,10,1,0,-1,9,10,11,-1,11,10,12,-1,13,14,15,-1,15,14,11,-1,15,11,16,-1,16,11,12,-1,14,13,17,-1,17,13,18,-1,18,19,17,-1,17,19,20,-1,17,20,21,-1,21,20,22,-1,21,22,23,-1,23,22,24,-1,23,24,25,-1,25,24,26,-1,25,26,27,-1,27,26,28,-1,27,28,29,-1,29,28,30,-1,29,30,31,-1,31,30,32,-1,31,32,33,-1,33,32,34,-1,33,34,35,-1,35,34,36,-1,35,36,37,-1,37,36,38,-1,37,38,39,-1,39,38,40,-1,39,40,41,-1,41,40,42,-1,41,42,43,-1,43,42,44,-1,43,44,45,-1,45,44,46,-1,45,46,47,-1,47,46,48,-1,47,48,49,-1,49,48,50,-1,49,50,51,-1,51,50,52,-1,51,52,53,-1,53,52,54,-1,53,54,55,-1,55,54,56,-1,55,56,57,-1,57,56,58,-1,57,58,59,-1,59,58,60,-1,59,60,61,-1,61,60,62,-1,61,62,63,-1,63,62,64,-1,63,64,65,-1,65,64,66,-1,65,66,67,-1,67,66,68,-1,67,68,69,-1,69,68,70,-1,69,70,71,-1,71,70,72,-1,71,72,73,-1,73,72,74,-1,73,74,75,-1,76,75,77,-1,77,75,74,-1,76,77,78,-1,76,78,79,-1,79,78,80,-1,79,80,81,-1,81,80,82,-1,81,82,83,-1,83,82,84,-1,83,84,85,-1,85,84,86,-1,85,86,87,-1,87,86,88,-1,88,86,89,-1,89,90,88,-1,88,90,91,-1,88,91,92,-1,92,91,93,-1,92,93,94,-1,94,93,95,-1,94,95,96,-1,96,95,97,-1,96,97,98,-1,98,97,99,-1,98,99,100,-1,100,99,101,-1,100,101,102,-1,103,104,105,-1,102,101,106,-1,102,106,107,-1,107,106,108,-1,107,108,105,-1,105,108,109,-1,105,109,103,-1,104,103,110,-1,104,110,111,-1,111,110,112,-1,111,112,113,-1,113,112,114,-1,113,114,115,-1,115,114,116,-1,115,116,117,-1,117,116,118,-1,117,118,119,-1,119,118,120,-1,119,120,121,-1,121,120,122,-1,121,122,123,-1,123,122,124,-1,123,124,125,-1,125,124,126,-1,125,126,127,-1,127,126,128,-1,127,128,129,-1,129,128,130,-1,129,130,131,-1,131,130,132,-1,131,132,133,-1,133,132,134,-1,133,134,135,-1,135,134,4,-1,135,4,3,-1,61,63,85,-1,85,63,83,-1,111,43,104,-1,104,43,45,-1,21,23,127,-1,127,23,25,-1,127,25,125,-1,125,25,27,-1,125,27,123,-1,123,27,29,-1,123,29,121,-1,121,29,31,-1,121,31,119,-1,119,31,33,-1,119,33,117,-1,117,33,35,-1,117,35,115,-1,115,35,37,-1,115,37,113,-1,113,37,39,-1,113,39,111,-1,111,39,41,-1,111,41,43,-1,14,3,11,-1,11,3,6,-1,11,6,9,-1,9,6,2,-1,9,2,1,-1,63,65,83,-1,83,65,67,-1,83,67,81,-1,81,67,69,-1,81,69,79,-1,79,69,71,-1,79,71,76,-1,76,71,73,-1,76,73,75,-1,127,129,21,-1,21,129,131,-1,21,131,17,-1,17,131,133,-1,17,133,14,-1,14,133,135,-1,14,135,3,-1,85,87,61,-1,61,87,88,-1,61,88,59,-1,59,88,92,-1,59,92,57,-1,57,92,94,-1,57,94,55,-1,55,94,96,-1,55,96,53,-1,53,96,98,-1,53,98,51,-1,51,98,100,-1,51,100,49,-1,49,100,102,-1,49,102,47,-1,47,102,107,-1,47,107,45,-1,45,107,105,-1,45,105,104,-1,136,137,138,-1,138,137,139,-1,140,136,141,-1,141,136,138,-1,140,141,142,-1,140,142,143,-1,143,142,144,-1,143,144,145,-1,146,145,147,-1,147,145,144,-1,148,146,149,-1,149,146,147,-1,150,151,152,-1,152,151,148,-1,152,148,149,-1,153,151,154,-1,154,151,150,-1,155,156,157,-1,157,156,153,-1,157,153,154,-1,158,159,160,-1,160,159,156,-1,160,156,155,-1,158,161,159,-1,159,161,162,-1,161,163,162,-1,162,163,164,-1,162,164,165,-1,165,164,166,-1,165,166,167,-1,167,166,168,-1,167,168,169,-1,169,168,170,-1,169,170,171,-1,171,170,172,-1,171,172,173,-1,173,172,174,-1,173,174,175,-1,176,175,177,-1,177,175,174,-1,176,177,178,-1,176,178,179,-1,179,178,180,-1,179,180,181,-1,181,180,182,-1,181,182,183,-1,183,182,184,-1,183,184,185,-1,184,186,185,-1,185,186,187,-1,185,187,188,-1,188,187,189,-1,188,189,190,-1,190,189,191,-1,190,191,192,-1,192,191,193,-1,192,193,194,-1,139,137,195,-1,195,137,194,-1,195,194,193,-1,143,145,194,-1,137,136,194,-1,194,136,140,-1,194,140,143,-1,151,153,148,-1,148,153,156,-1,148,156,146,-1,175,176,173,-1,173,176,179,-1,173,179,171,-1,171,179,181,-1,171,181,169,-1,169,181,183,-1,169,183,167,-1,167,183,185,-1,167,185,165,-1,145,146,194,-1,194,146,156,-1,194,156,192,-1,156,159,192,-1,192,159,162,-1,192,162,190,-1,190,162,165,-1,190,165,188,-1,188,165,185,-1,196,197,198,-1,198,197,199,-1,200,201,202,-1,202,201,196,-1,202,196,198,-1,203,201,204,-1,204,201,200,-1,205,206,207,-1,207,206,203,-1,207,203,204,-1,208,206,209,-1,209,206,205,-1,210,211,212,-1,212,211,208,-1,212,208,209,-1,213,211,214,-1,214,211,210,-1,215,216,217,-1,217,216,213,-1,217,213,214,-1,218,216,219,-1,219,216,215,-1,220,221,222,-1,222,221,218,-1,222,218,219,-1,223,221,224,-1,224,221,220,-1,199,197,225,-1,225,197,223,-1,225,223,224,-1,216,218,213,-1,213,218,221,-1,213,221,211,-1,197,196,223,-1,223,196,201,-1,223,201,203,-1,206,208,203,-1,203,208,211,-1,203,211,223,-1,223,211,221,-1,226,227,228,-1,228,227,229,-1,228,229,230,-1,230,229,231,-1,230,231,232,-1,232,231,233,-1,232,233,234,-1,234,233,235,-1,234,235,236,-1,236,235,237,-1,236,237,238,-1,238,237,239,-1,238,239,240,-1,240,239,241,-1,240,241,242,-1,242,241,243,-1,242,243,244,-1,244,243,245,-1,244,245,246,-1,246,245,247,-1,246,247,248,-1,248,247,249,-1,248,249,250,-1,250,249,251,-1,250,251,252,-1,252,251,253,-1,252,253,254,-1,254,253,255,-1,254,255,256,-1,256,255,257,-1,256,257,258,-1,258,257,259,-1,258,259,260,-1,260,259,226,-1,260,226,228,-1,234,236,261,-1,261,236,262,-1,234,261,263,-1,234,263,232,-1,232,263,264,-1,232,264,230,-1,230,264,265,-1,230,265,228,-1,228,265,266,-1,228,266,260,-1,260,266,267,-1,260,267,258,-1,258,267,268,-1,258,268,256,-1,256,268,269,-1,256,269,254,-1,254,269,270,-1,254,270,252,-1,252,270,271,-1,252,271,250,-1,250,271,272,-1,250,272,248,-1,248,272,273,-1,248,273,246,-1,246,273,274,-1,246,274,244,-1,244,274,275,-1,244,275,242,-1,242,275,276,-1,242,276,240,-1,238,240,277,-1,277,240,276,-1,236,238,262,-1,262,238,277,-1,241,239,278,-1,278,239,279,-1,239,237,279,-1,279,237,280,-1,237,235,280,-1,280,235,281,-1,227,282,283,-1,227,283,229,-1,229,283,284,-1,229,284,231,-1,231,284,285,-1,231,285,233,-1,233,285,281,-1,233,281,235,-1,255,286,287,-1,255,287,257,-1,257,287,288,-1,257,288,259,-1,259,288,289,-1,259,289,226,-1,226,289,282,-1,226,282,227,-1,247,290,291,-1,247,291,249,-1,249,291,292,-1,249,292,251,-1,251,292,293,-1,251,293,253,-1,253,293,286,-1,253,286,255,-1,241,278,294,-1,241,294,243,-1,243,294,295,-1,243,295,245,-1,245,295,290,-1,245,290,247,-1,
        ]
    }
}
Shape{
    appearance Appearance {
        material  Material {
            diffuseColor 1.0 1.0 1.0
            specularColor 0.5019607843137255 0.5019607843137255 0.5019607843137255
            ambientIntensity 1.0
            transparency 0.0
            shininess 0.5
        }
    }
    geometry IndexedFaceSet {
        ccw TRUE
        solid FALSE
        coord DEF co Coordinate {
            point [
                2.4323 -0.6102 0.391, 2.4323 -0.6087 0.3924, 2.4323 -0.6476 0.4814, 2.4323 -0.6677 0.4814, 2.4323 -0.6677 0.3785, 2.4323 -0.6483 0.3785, 2.4323 -0.6297 0.3807, 2.4323 -0.6188 0.385, 2.4323 -0.6027 0.3996, 2.4323 -0.5979 0.4092, 2.4323 -0.5951 0.4211, 2.4323 -0.5944 0.4312, 2.4323 -0.5964 0.4481, 2.4323 -0.6002 0.4578, 2.4323 -0.6054 0.4652, 2.4323 -0.6091 0.4688, 2.4323 -0.6304 0.4795, 2.4323 -0.6188 0.4753
            ]
        }
        coordIndex [
            0,1,2,-1,3,4,2,-1,2,4,5,-1,5,6,2,-1,2,6,7,-1,2,7,0,-1,1,8,2,-1,2,8,9,-1,2,9,10,-1,10,11,2,-1,2,11,12,-1,2,12,13,-1,13,14,2,-1,2,14,15,-1,2,15,16,-1,16,15,17,-1,
        ]
    }
}
Shape{
    appearance Appearance {
        material  Material {
            diffuseColor 0.0 0.0 0.0
            specularColor 0.0 0.0 0.0
            ambientIntensity 0.0
            transparency 0.0
            shininess 0.5
        }
    }
    geometry IndexedFaceSet {
        ccw TRUE
        solid FALSE
        coord DEF co Coordinate {
            point [
                2.4362 -0.5316 0.4149, 2.4362 -0.537 0.3998, 2.4362 -0.4868 0.4149, 2.4362 -0.4815 0.3998, 2.4362 -0.5116 0.4703, 2.4362 -0.5181 0.4967, 2.4362 -0.5689 0.3633, 2.4362 -0.5499 0.3633, 2.4362 -0.5105 0.4743, 2.4362 -0.5094 0.4797, 2.4362 -0.4997 0.4967, 2.4362 -0.509 0.4797, 2.4362 -0.508 0.474, 2.4362 -0.507 0.4703, 2.4362 -0.4488 0.3633, 2.4362 -0.4679 0.3633, 2.4323 -0.4997 0.4967, 2.4323 -0.4488 0.3633, 2.4323 -0.5181 0.4967, 2.4323 -0.5689 0.3633, 2.4323 -0.5499 0.3633, 2.4323 -0.537 0.3998, 2.4323 -0.4815 0.3998, 2.4323 -0.4679 0.3633, 2.4323 -0.5316 0.4149, 2.4323 -0.4868 0.4149, 2.4323 -0.507 0.4703, 2.4323 -0.509 0.4797, 2.4323 -0.508 0.474, 2.4323 -0.5094 0.4797, 2.4323 -0.5116 0.4703, 2.4323 -0.5105 0.4743
            ]
        }
        coordIndex [
            0,1,2,-1,2,1,3,-1,4,5,0,-1,0,5,6,-1,0,6,1,-1,1,6,7,-1,4,8,5,-1,5,8,9,-1,5,9,10,-1,10,9,11,-1,10,11,12,-1,12,13,10,-1,10,13,2,-1,10,2,14,-1,14,2,3,-1,14,3,15,-1,10,14,16,-1,16,14,17,-1,5,10,18,-1,18,10,16,-1,6,5,19,-1,19,5,18,-1,7,6,20,-1,20,6,19,-1,1,7,21,-1,21,7,20,-1,3,1,22,-1,22,1,21,-1,15,3,23,-1,23,3,22,-1,14,15,17,-1,17,15,23,-1,0,2,24,-1,24,2,25,-1,2,13,25,-1,25,13,26,-1,11,27,28,-1,11,28,12,-1,12,28,26,-1,12,26,13,-1,11,9,27,-1,27,9,29,-1,4,30,31,-1,4,31,8,-1,8,31,29,-1,8,29,9,-1,4,0,30,-1,30,0,24,-1,
        ]
    }
}
Shape{
    appearance Appearance {
        material  Material {
            diffuseColor 1.0 1.0 1.0
            specularColor 0.5019607843137255 0.5019607843137255 0.5019607843137255
            ambientIntensity 1.0
            transparency 0.0
            shininess 0.5
        }
    }
    geometry IndexedFaceSet {
        ccw TRUE
        solid FALSE
        coord DEF co Coordinate {
            point [
                2.4323 -0.509 0.4797, 2.4323 -0.5094 0.4797, 2.4323 -0.508 0.474, 2.4323 -0.5105 0.4743, 2.4323 -0.507 0.4703, 2.4323 -0.5116 0.4703, 2.4323 -0.4868 0.4149, 2.4323 -0.5316 0.4149
            ]
        }
        coordIndex [
            0,1,2,-1,2,1,3,-1,2,3,4,-1,4,3,5,-1,4,5,6,-1,6,5,7,-1,
        ]
    }
}
Shape{
    appearance Appearance {
        material  Material {
            diffuseColor 0.0 0.0 0.0
            specularColor 0.0 0.0 0.0
            ambientIntensity 0.0
            transparency 0.0
            shininess 0.5
        }
    }
    geometry IndexedFaceSet {
        ccw TRUE
        solid FALSE
        coord DEF co Coordinate {
            point [
                2.4362 -1.7409 0.3444, 2.4362 -1.7268 0.327, 2.4362 -1.7494 0.4283, 2.4362 -1.407 0.595, 2.4362 -1.4012 0.5687, 2.4362 -1.3547 0.62, 2.4362 -1.653 0.4302, 2.4362 -1.6442 0.427, 2.4362 -1.5654 0.4046, 2.4362 -1.6366 0.4218, 2.4362 -1.6306 0.4149, 2.4362 -1.4325 0.4748, 2.4362 -1.462 0.5251, 2.4362 -1.5891 0.4587, 2.4362 -1.6612 0.4311, 2.4362 -1.7701 0.441, 2.4362 -1.765 0.3692, 2.4362 -1.7504 0.3647, 2.4362 -1.6265 0.407, 2.4362 -1.6244 0.3982, 2.4362 -1.5654 0.3951, 2.4362 -1.6244 0.3902, 2.4362 -1.6847 0.3656, 2.4362 -1.6769 0.3607, 2.4362 -1.7082 0.313, 2.4362 -1.668 0.3578, 2.4362 -1.6696 0.4302, 2.4362 -1.6829 0.4881, 2.4362 -1.6779 0.4271, 2.4362 -1.7038 0.4801, 2.4362 -1.6854 0.4221, 2.4362 -1.7232 0.4667, 2.4362 -1.6916 0.4152, 2.4362 -1.7389 0.4487, 2.4362 -1.6959 0.407, 2.4362 -1.698 0.3978, 2.4362 -1.3936 0.5687, 2.4362 -1.3756 0.5665, 2.4362 -1.35 0.6184, 2.4362 -1.3591 0.5601, 2.4362 -1.3218 0.6043, 2.4362 -1.2961 0.5826, 2.4362 -1.5999 0.6703, 2.4362 -1.6489 0.7072, 2.4362 -1.6255 0.6516, 2.4362 -1.6712 0.6882, 2.4362 -1.6468 0.6261, 2.4362 -1.6906 0.6655, 2.4362 -1.6612 0.5962, 2.4362 -1.7447 0.6044, 2.4362 -1.7213 0.61, 2.4362 -1.7124 0.6674, 2.4362 -1.7115 0.6105, 2.4362 -1.7015 0.6668, 2.4362 -1.6894 0.6077, 2.4362 -1.6681 0.6, 2.4362 -1.6258 0.4845, 2.4362 -1.6487 0.4902, 2.4362 -1.6603 0.4909, 2.4362 -1.2959 0.4055, 2.4362 -1.3402 0.4431, 2.4362 -1.3217 0.3837, 2.4362 -1.3542 0.4317, 2.4362 -1.3507 0.3695, 2.4362 -1.371 0.424, 2.4362 -1.3823 0.3628, 2.4362 -1.3879 0.4207, 2.4362 -1.4382 0.3628, 2.4362 -1.4306 0.4207, 2.4362 -1.4436 0.3637, 2.4362 -1.8035 0.5385, 2.4362 -1.8657 0.5248, 2.4362 -1.8064 0.5156, 2.4362 -1.8661 0.5137, 2.4362 -1.8053 0.5011, 2.4362 -1.8621 0.4787, 2.4362 -1.7985 0.4778, 2.4362 -1.849 0.4432, 2.4362 -1.7871 0.4585, 2.4362 -1.8263 0.4103, 2.4362 -1.7989 0.3865, 2.4362 -1.691 0.3723, 2.4362 -1.6954 0.3799, 2.4362 -1.6978 0.3885, 2.4362 -1.3443 0.5499, 2.4362 -1.3333 0.5376, 2.4362 -1.2767 0.5556, 2.4362 -1.3245 0.5212, 2.4362 -1.2651 0.5266, 2.4362 -1.3201 0.5029, 2.4362 -1.2608 0.4957, 2.4362 -1.3196 0.4947, 2.4362 -1.2652 0.4618, 2.4362 -1.3219 0.4763, 2.4362 -1.2771 0.4317, 2.4362 -1.3284 0.4593, 2.4362 -1.3389 0.4445, 2.4362 -1.7477 0.6633, 2.4362 -1.7829 0.6502, 2.4362 -1.7659 0.5932, 2.4362 -1.8134 0.6294, 2.4362 -1.7823 0.5786, 2.4362 -1.8216 0.6219, 2.4362 -1.7954 0.5597, 2.4362 -1.8433 0.5943, 2.4362 -1.8589 0.5604, 2.4362 -1.6057 0.4737, 2.4362 -1.4216 0.6256, 2.4362 -1.3714 0.6537, 2.4362 -1.443 0.6512, 2.4362 -1.4014 0.6906, 2.4362 -1.4455 0.6535, 2.4362 -1.406 0.6949, 2.4362 -1.4722 0.672, 2.4362 -1.4483 0.7234, 2.4362 -1.5019 0.6834, 2.4362 -1.4959 0.7401, 2.4362 -1.5341 0.6873, 2.4362 -1.535 0.7443, 2.4362 -1.5689 0.6829, 2.4362 -1.5822 0.7384, 2.4362 -1.6259 0.7215, 2.4362 -1.4354 0.4216, 2.4362 -1.4582 0.3728, 2.4362 -1.456 0.3705, 2.4362 -1.6863 0.3038, 2.4362 -1.6639 0.3003, 2.4362 -1.6612 0.3571, 2.4362 -1.6603 0.3002, 2.4362 -1.6528 0.3581, 2.4362 -1.6373 0.303, 2.4362 -1.6445 0.3611, 2.4362 -1.6162 0.3112, 2.4362 -1.6371 0.3661, 2.4362 -1.5973 0.3243, 2.4362 -1.6309 0.3729, 2.4362 -1.5826 0.3407, 2.4362 -1.6266 0.3811, 2.4362 -1.5714 0.3619, 2.4362 -1.5659 0.3853, 2.4362 -1.4326 0.421, 2.4362 -1.4499 0.3662, 2.4362 -1.4657 0.3922, 2.4362 -1.4648 0.3852, 2.4362 -1.4623 0.3787, 2.4362 -1.4437 0.4207, 2.4362 -1.4502 0.4182, 2.4362 -1.4655 0.3959, 2.4362 -1.456 0.414, 2.4362 -1.46 0.4096, 2.4362 -1.4636 0.4032, 2.4362 -1.4363 0.4217, 2.4323 -1.2608 0.4957, 2.4323 -1.2651 0.5266, 2.4323 -1.2684 0.5347, 2.4323 -1.2767 0.5556, 2.4323 -1.2961 0.5826, 2.4323 -1.3218 0.6043, 2.4323 -1.35 0.6184, 2.4323 -1.3547 0.62, 2.4323 -1.3714 0.6537, 2.4323 -1.4014 0.6906, 2.4323 -1.406 0.6949, 2.4323 -1.4278 0.7096, 2.4323 -1.4483 0.7234, 2.4323 -1.4959 0.7401, 2.4323 -1.535 0.7443, 2.4323 -1.5822 0.7384, 2.4323 -1.6259 0.7215, 2.4323 -1.6451 0.7096, 2.4323 -1.6489 0.7072, 2.4323 -1.6712 0.6882, 2.4323 -1.6906 0.6655, 2.4323 -1.7015 0.6668, 2.4323 -1.7124 0.6674, 2.4323 -1.7477 0.6633, 2.4323 -1.7829 0.6502, 2.4323 -1.8134 0.6294, 2.4323 -1.8216 0.6219, 2.4323 -1.8589 0.5604, 2.4323 -1.8433 0.5943, 2.4323 -1.8638 0.5347, 2.4323 -1.8657 0.5248, 2.4323 -1.8661 0.5137, 2.4323 -1.8621 0.4787, 2.4323 -1.849 0.4432, 2.4323 -1.8263 0.4103, 2.4323 -1.7989 0.3865, 2.4323 -1.765 0.3692, 2.4323 -1.7504 0.3647, 2.4323 -1.7492 0.3622, 2.4323 -1.7409 0.3444, 2.4323 -1.7268 0.327, 2.4323 -1.7082 0.313, 2.4323 -1.6995 0.3093, 2.4323 -1.6863 0.3038, 2.4323 -1.6639 0.3003, 2.4323 -1.6603 0.3002, 2.4323 -1.5654 0.3951, 2.4323 -1.6373 0.303, 2.4323 -1.621 0.3093, 2.4323 -1.6162 0.3112, 2.4323 -1.5973 0.3243, 2.4323 -1.5826 0.3407, 2.4323 -1.5714 0.3619, 2.4323 -1.5713 0.3622, 2.4323 -1.5659 0.3853, 2.4323 -1.5654 0.4046, 2.4323 -1.4325 0.4748, 2.4323 -1.462 0.5251, 2.4323 -1.5891 0.4587, 2.4323 -1.6057 0.4737, 2.4323 -1.6258 0.4845, 2.4323 -1.6487 0.4902, 2.4323 -1.6603 0.4909, 2.4323 -1.6829 0.4881, 2.4323 -1.7038 0.4801, 2.4323 -1.7232 0.4667, 2.4323 -1.7389 0.4487, 2.4323 -1.7494 0.4283, 2.4323 -1.7701 0.441, 2.4323 -1.7871 0.4585, 2.4323 -1.7985 0.4778, 2.4323 -1.8053 0.5011, 2.4323 -1.8064 0.5156, 2.4323 -1.804 0.5347, 2.4323 -1.8035 0.5385, 2.4323 -1.7954 0.5597, 2.4323 -1.7823 0.5786, 2.4323 -1.7659 0.5932, 2.4323 -1.7447 0.6044, 2.4323 -1.7213 0.61, 2.4323 -1.7115 0.6105, 2.4323 -1.6894 0.6077, 2.4323 -1.6681 0.6, 2.4323 -1.6612 0.5962, 2.4323 -1.6468 0.6261, 2.4323 -1.6255 0.6516, 2.4323 -1.5999 0.6703, 2.4323 -1.5689 0.6829, 2.4323 -1.5341 0.6873, 2.4323 -1.5019 0.6834, 2.4323 -1.4722 0.672, 2.4323 -1.4455 0.6535, 2.4323 -1.443 0.6512, 2.4323 -1.4216 0.6256, 2.4323 -1.407 0.595, 2.4323 -1.4012 0.5687, 2.4323 -1.3936 0.5687, 2.4323 -1.3756 0.5665, 2.4323 -1.3591 0.5601, 2.4323 -1.3443 0.5499, 2.4323 -1.3333 0.5376, 2.4323 -1.3318 0.5347, 2.4323 -1.3245 0.5212, 2.4323 -1.3201 0.5029, 2.4323 -1.3196 0.4947, 2.4323 -1.3219 0.4763, 2.4323 -1.3284 0.4593, 2.4323 -1.3389 0.4445, 2.4323 -1.3402 0.4431, 2.4323 -1.3542 0.4317, 2.4323 -1.371 0.424, 2.4323 -1.3879 0.4207, 2.4323 -1.4306 0.4207, 2.4323 -1.4326 0.421, 2.4323 -1.4354 0.4216, 2.4323 -1.4363 0.4217, 2.4323 -1.4437 0.4207, 2.4323 -1.4502 0.4182, 2.4323 -1.456 0.414, 2.4323 -1.46 0.4096, 2.4323 -1.4636 0.4032, 2.4323 -1.4655 0.3959, 2.4323 -1.4657 0.3922, 2.4323 -1.4648 0.3852, 2.4323 -1.4623 0.3787, 2.4323 -1.4582 0.3728, 2.4323 -1.456 0.3705, 2.4323 -1.4499 0.3662, 2.4323 -1.4436 0.3637, 2.4323 -1.4382 0.3628, 2.4323 -1.3823 0.3628, 2.4323 -1.3507 0.3695, 2.4323 -1.3217 0.3837, 2.4323 -1.2959 0.4055, 2.4323 -1.2771 0.4317, 2.4323 -1.2652 0.4618, 2.4323 -1.6612 0.4311, 2.4323 -1.653 0.4302, 2.4323 -1.6442 0.427, 2.4323 -1.6366 0.4218, 2.4323 -1.6306 0.4149, 2.4323 -1.6265 0.407, 2.4323 -1.6244 0.3982, 2.4323 -1.6244 0.3902, 2.4323 -1.6266 0.3811, 2.4323 -1.6309 0.3729, 2.4323 -1.6371 0.3661, 2.4323 -1.6445 0.3611, 2.4323 -1.6528 0.3581, 2.4323 -1.6612 0.3571, 2.4323 -1.668 0.3578, 2.4323 -1.6769 0.3607, 2.4323 -1.6847 0.3656, 2.4323 -1.691 0.3723, 2.4323 -1.6954 0.3799, 2.4323 -1.6978 0.3885, 2.4323 -1.698 0.3978, 2.4323 -1.6959 0.407, 2.4323 -1.6916 0.4152, 2.4323 -1.6854 0.4221, 2.4323 -1.6779 0.4271, 2.4323 -1.6696 0.4302
            ]
        }
        coordIndex [
            0,1,2,-1,3,4,5,-1,6,7,8,-1,8,7,9,-1,8,9,10,-1,11,12,8,-1,8,12,13,-1,8,13,6,-1,6,13,14,-1,15,16,2,-1,2,16,17,-1,2,17,0,-1,10,18,8,-1,8,18,19,-1,8,19,20,-1,20,19,21,-1,22,1,23,-1,23,1,24,-1,23,24,25,-1,26,27,28,-1,28,27,29,-1,28,29,30,-1,30,29,31,-1,30,31,32,-1,32,31,33,-1,32,33,34,-1,34,33,2,-1,34,2,35,-1,4,36,5,-1,5,36,37,-1,5,37,38,-1,38,37,39,-1,38,39,40,-1,40,39,41,-1,42,43,44,-1,44,43,45,-1,44,45,46,-1,46,45,47,-1,46,47,48,-1,49,50,51,-1,51,50,52,-1,51,52,53,-1,53,52,54,-1,53,54,47,-1,47,54,55,-1,47,55,48,-1,56,57,26,-1,26,57,58,-1,26,58,27,-1,59,60,61,-1,61,60,62,-1,61,62,63,-1,63,62,64,-1,63,64,65,-1,65,64,66,-1,65,66,67,-1,67,66,68,-1,67,68,69,-1,70,71,72,-1,72,71,73,-1,72,73,74,-1,74,73,75,-1,74,75,76,-1,76,75,77,-1,76,77,78,-1,78,77,79,-1,78,79,15,-1,15,79,80,-1,15,80,16,-1,22,81,1,-1,1,81,82,-1,1,82,2,-1,2,82,83,-1,2,83,35,-1,39,84,41,-1,41,84,85,-1,41,85,86,-1,86,85,87,-1,86,87,88,-1,88,87,89,-1,88,89,90,-1,90,89,91,-1,90,91,92,-1,92,91,93,-1,92,93,94,-1,94,93,95,-1,94,95,59,-1,59,95,96,-1,59,96,60,-1,51,97,49,-1,49,97,98,-1,49,98,99,-1,99,98,100,-1,99,100,101,-1,101,100,102,-1,101,102,103,-1,103,102,104,-1,103,104,70,-1,70,104,105,-1,70,105,71,-1,14,13,26,-1,26,13,106,-1,26,106,56,-1,3,5,107,-1,107,5,108,-1,107,108,109,-1,109,108,110,-1,109,110,111,-1,111,110,112,-1,111,112,113,-1,113,112,114,-1,113,114,115,-1,115,114,116,-1,115,116,117,-1,117,116,118,-1,117,118,119,-1,119,118,120,-1,119,120,42,-1,42,120,121,-1,42,121,43,-1,122,123,124,-1,24,125,25,-1,25,125,126,-1,25,126,127,-1,127,126,128,-1,127,128,129,-1,129,128,130,-1,129,130,131,-1,131,130,132,-1,131,132,133,-1,133,132,134,-1,133,134,135,-1,135,134,136,-1,135,136,137,-1,137,136,138,-1,137,138,21,-1,21,138,139,-1,21,139,20,-1,68,140,69,-1,69,140,122,-1,69,122,141,-1,141,122,124,-1,142,143,122,-1,122,143,144,-1,122,144,123,-1,145,146,147,-1,146,148,147,-1,147,148,149,-1,147,149,150,-1,142,122,147,-1,147,122,151,-1,147,151,145,-1,90,152,153,-1,90,153,88,-1,88,153,154,-1,88,154,86,-1,154,155,86,-1,86,155,156,-1,86,156,41,-1,41,156,157,-1,41,157,40,-1,40,157,158,-1,40,158,38,-1,38,158,159,-1,38,159,5,-1,5,159,160,-1,5,160,108,-1,108,160,161,-1,108,161,110,-1,110,161,162,-1,110,162,112,-1,114,112,163,-1,163,112,162,-1,163,164,114,-1,114,164,165,-1,114,165,116,-1,116,165,166,-1,116,166,118,-1,118,166,167,-1,118,167,120,-1,120,167,168,-1,120,168,121,-1,121,168,43,-1,43,168,169,-1,43,169,170,-1,43,170,171,-1,43,171,45,-1,45,171,172,-1,45,172,47,-1,47,172,173,-1,47,173,53,-1,53,173,174,-1,53,174,51,-1,51,174,175,-1,51,175,97,-1,97,175,176,-1,97,176,98,-1,98,176,177,-1,98,177,100,-1,100,177,178,-1,100,178,102,-1,179,104,180,-1,180,104,102,-1,180,102,178,-1,181,71,179,-1,179,71,105,-1,179,105,104,-1,181,182,71,-1,71,182,183,-1,71,183,73,-1,73,183,184,-1,73,184,75,-1,75,184,185,-1,75,185,77,-1,77,185,186,-1,77,186,79,-1,79,186,187,-1,79,187,80,-1,80,187,188,-1,80,188,16,-1,16,188,189,-1,16,189,17,-1,17,189,190,-1,17,190,0,-1,190,191,0,-1,0,191,192,-1,0,192,1,-1,1,192,193,-1,1,193,24,-1,24,193,194,-1,24,194,125,-1,194,195,125,-1,125,195,196,-1,125,196,126,-1,126,196,197,-1,126,197,128,-1,198,20,139,-1,128,197,199,-1,200,132,199,-1,199,132,130,-1,199,130,128,-1,200,201,132,-1,132,201,202,-1,132,202,134,-1,134,202,203,-1,134,203,136,-1,136,203,204,-1,136,204,138,-1,138,204,205,-1,138,205,139,-1,139,205,206,-1,139,206,198,-1,8,20,207,-1,207,20,198,-1,11,8,208,-1,208,8,207,-1,12,11,209,-1,209,11,208,-1,13,12,210,-1,210,12,209,-1,13,210,211,-1,13,211,106,-1,106,211,212,-1,106,212,56,-1,56,212,213,-1,56,213,57,-1,57,213,214,-1,57,214,58,-1,58,214,215,-1,58,215,27,-1,27,215,216,-1,27,216,29,-1,29,216,217,-1,29,217,31,-1,31,217,218,-1,31,218,33,-1,33,218,219,-1,33,219,2,-1,2,219,220,-1,2,220,15,-1,15,220,221,-1,15,221,78,-1,78,221,222,-1,78,222,76,-1,76,222,223,-1,76,223,74,-1,74,223,224,-1,74,224,72,-1,72,224,70,-1,70,224,225,-1,225,226,70,-1,70,226,227,-1,70,227,103,-1,103,227,228,-1,103,228,101,-1,101,228,229,-1,101,229,99,-1,99,229,230,-1,99,230,49,-1,49,230,231,-1,49,231,50,-1,50,231,232,-1,50,232,52,-1,52,232,233,-1,52,233,54,-1,54,233,234,-1,54,234,55,-1,55,234,235,-1,55,235,48,-1,48,235,236,-1,48,236,46,-1,46,236,237,-1,46,237,44,-1,44,237,238,-1,44,238,42,-1,42,238,239,-1,42,239,119,-1,119,239,240,-1,119,240,117,-1,117,240,241,-1,117,241,115,-1,115,241,242,-1,115,242,113,-1,113,242,243,-1,113,243,111,-1,111,243,244,-1,111,244,109,-1,109,244,245,-1,109,245,107,-1,107,245,246,-1,107,246,3,-1,3,246,247,-1,3,247,4,-1,36,4,248,-1,248,4,247,-1,36,248,249,-1,36,249,37,-1,37,249,250,-1,37,250,39,-1,39,250,251,-1,39,251,84,-1,84,251,252,-1,84,252,85,-1,85,252,253,-1,85,253,87,-1,253,254,87,-1,87,254,255,-1,87,255,89,-1,89,255,256,-1,89,256,91,-1,91,256,257,-1,91,257,93,-1,93,257,258,-1,93,258,95,-1,95,258,259,-1,95,259,96,-1,96,259,260,-1,96,260,60,-1,60,260,261,-1,60,261,62,-1,62,261,262,-1,62,262,64,-1,64,262,263,-1,64,263,66,-1,68,66,264,-1,264,66,263,-1,68,264,265,-1,68,265,140,-1,140,265,266,-1,140,266,122,-1,122,266,267,-1,122,267,151,-1,151,267,268,-1,151,268,145,-1,145,268,269,-1,145,269,146,-1,146,269,270,-1,146,270,148,-1,148,270,271,-1,148,271,149,-1,149,271,272,-1,149,272,150,-1,150,272,273,-1,150,273,147,-1,147,273,274,-1,147,274,142,-1,142,274,275,-1,142,275,143,-1,143,275,276,-1,143,276,144,-1,144,276,277,-1,144,277,123,-1,123,277,278,-1,123,278,124,-1,124,278,279,-1,124,279,141,-1,141,279,280,-1,141,280,69,-1,69,280,281,-1,69,281,67,-1,65,67,282,-1,282,67,281,-1,65,282,283,-1,65,283,63,-1,63,283,284,-1,63,284,61,-1,61,284,285,-1,61,285,59,-1,59,285,286,-1,59,286,94,-1,94,286,287,-1,94,287,92,-1,92,287,152,-1,92,152,90,-1,14,288,289,-1,14,289,6,-1,6,289,290,-1,6,290,7,-1,7,290,291,-1,7,291,9,-1,9,291,292,-1,9,292,10,-1,10,292,293,-1,10,293,18,-1,18,293,294,-1,18,294,19,-1,19,294,295,-1,19,295,21,-1,21,295,296,-1,21,296,137,-1,137,296,297,-1,137,297,135,-1,135,297,298,-1,135,298,133,-1,133,298,299,-1,133,299,131,-1,131,299,300,-1,131,300,129,-1,129,300,301,-1,129,301,127,-1,127,301,302,-1,127,302,25,-1,25,302,303,-1,25,303,23,-1,23,303,304,-1,23,304,22,-1,22,304,305,-1,22,305,81,-1,81,305,306,-1,81,306,82,-1,82,306,307,-1,82,307,83,-1,83,307,308,-1,83,308,35,-1,35,308,309,-1,35,309,34,-1,34,309,310,-1,34,310,32,-1,32,310,311,-1,32,311,30,-1,30,311,312,-1,30,312,28,-1,28,312,313,-1,28,313,26,-1,26,313,288,-1,26,288,14,-1,
        ]
    }
}
Shape{
    appearance Appearance {
        material  Material {
            diffuseColor 1.0 1.0 1.0
            specularColor 0.5019607843137255 0.5019607843137255 0.5019607843137255
            ambientIntensity 1.0
            transparency 0.0
            shininess 0.5
        }
    }
    geometry IndexedFaceSet {
        ccw TRUE
        solid FALSE
        coord DEF co Coordinate {
            point [
                2.4323 -1.668 0.3578, 2.4323 -1.6612 0.3571, 2.4323 -1.6612 0.4311, 2.4323 -1.6244 0.3982, 2.4323 -1.6244 0.3902, 2.4323 -1.6528 0.3581, 2.4323 -1.6445 0.3611, 2.4323 -1.6265 0.407, 2.4323 -1.6306 0.4149, 2.4323 -1.6366 0.4218, 2.4323 -1.6779 0.4271, 2.4323 -1.691 0.3723, 2.4323 -1.6847 0.3656, 2.4323 -1.6442 0.427, 2.4323 -1.653 0.4302, 2.4323 -1.6954 0.3799, 2.4323 -1.6854 0.4221, 2.4323 -1.6978 0.3885, 2.4323 -1.6696 0.4302, 2.4323 -1.6769 0.3607, 2.4323 -1.6371 0.3661, 2.4323 -1.6309 0.3729, 2.4323 -1.6266 0.3811, 2.4323 -1.698 0.3978, 2.4323 -1.6916 0.4152, 2.4323 -1.6959 0.407, -2.2134 -2.7819 0.2756, -2.0953 -2.6638 0.3937, -2.2134 -2.7819 1.5354, -2.0953 -2.6638 1.5354, 2.1567 -2.7819 0.2756, 2.0386 -2.6638 0.3937, 2.1567 -2.7819 1.5354, 2.0386 -2.6638 1.5354
            ]
        }
        coordIndex [
            0,1,2,-1,3,1,4,-1,4,1,5,-1,4,5,6,-1,3,7,1,-1,1,7,8,-1,1,8,9,-1,10,11,12,-1,9,13,1,-1,1,13,14,-1,1,14,2,-1,11,10,15,-1,15,10,16,-1,15,16,17,-1,2,18,0,-1,0,18,10,-1,0,10,19,-1,19,10,12,-1,6,20,4,-1,4,20,21,-1,4,21,22,-1,17,16,23,-1,23,16,24,-1,23,24,25,-1,26,27,28,-1,28,27,29,-1,30,31,26,-1,26,31,27,-1,32,33,30,-1,30,33,31,-1,
        ]
    }
}